P3
50 50
255
  31  27  28    30  27  28    30  26  27    26  23  25    23  21  22    23  21  22    25  23  24    26  24  25    26  23  22     0   0   0     0   0   0     0   0   0     0   0   0     0   0   0     0   0   0     0   0   0     0   0   0     0   0   0     0   0   0     0   0   0     0   0   0     0   0   0     0   0   0     0   0   0     0   0   0     0   0   0     0   0   0     0   0   0     0   0   0   137 119 109   133 111  99   122  99  87   126 104  93   126 105  95   113  93  82    87  69  60    94  77  69    95  81  73    76  62  55    59  48  42    70  61  54    77  68  62    79  70  65    71  63  59    69  62  59    72  63  58    78  66  59    86  73  64    90  74  64    94  77  67  
  32  28  29    30  27  28    30  26  27    26  23  25    23  21  22    22  20  21    24  22  23    25  23  24    25  21  21     0   0   0     0   0   0     0   0   0     0   0   0     0   0   0     0   0   0     0   0   0     0   0   0     0   0   0     0   0   0     0   0   0     0   0   0     0   0   0     0   0   0     0   0   0     0   0   0     0   0   0     0   0   0     0   0   0     0   0   0   123 103  92   132 110  97   114  90  79   105  83  72    97  77  66    96  76  65    85  67  57    86  68  61    83  67  60    71  57  51    54  42  36    50  41  34    58  49  44    66  57  52    58  50  46    59  52  46    65  55  48    74  63  56    85  70  62    87  70  60    88  70  60  
  30  26  27    28  24  25    27  23  24    25  22  23    22  20  21    22  20  21    23  21  22    22  20  21    23  20  19    26  22  21     0   0   0     0   0   0     0   0   0     0   0   0     0   0   0     0   0   0     0   0   0     0   0   0     0   0   0     0   0   0     0   0   0     0   0   0     0   0   0     0   0   0     0   0   0     0   0   0     0   0   0     0   0   0   115  96  86   124 104  93   112  90  77   109  86  72   112  89  77   101  80  69   108  88  77   105  87  77    95  79  69    81  67  59    73  61  55    60  49  43    48  39  34    56  48  43    62  55  50    69  62  57    71  64  58    64  55  47    68  57  48    88  74  65   106  90  80   120 102  90  
  27  23  24    25  20  22    24  20  21    24  21  22    22  20  21    22  20  21    22  20  21    21  19  20    22  19  18    25  21  20     0   0   0     0   0   0     0   0   0     0   0   0     0   0   0     0   0   0     0   0   0     0   0   0     0   0   0     0   0   0     0   0   0     0   0   0     0   0   0     0   0   0     0   0   0     0   0   0     0   0   0     0   0   0   131 112 102   127 107  96   134 110  98   143 119 106   150 126 114   127 105  94   124 104  93   118  99  90   104  85  78    93  77  70    75  61  55    57  46  40    45  35  30    54  45  40    57  49  46    61  54  49    71  62  57    71  60  54    76  62  56    87  71  64    91  73  64    92  72  61  
  27  23  24    25  21  22    24  20  21    23  20  21    22  20  21    22  20  21    22  20  20    20  18  19    22  18  18    27  22  22     0   0   0     0   0   0     0   0   0     0   0   0     0   0   0     0   0   0     0   0   0    71  61  57     0   0   0     0   0   0     0   0   0     0   0   0     0   0   0     0   0   0     0   0   0     0   0   0     0   0   0     0   0   0   123 103  92   121 101  90   132 107  95   131 105  93   128 104  92   110  87  76   108  87  76    95  77  67    81  65  55    83  70  61    71  60  53    64  53  47    52  44  39    53  46  41    58  53  49    49  43  38    60  53  47    69  60  53    76  65  56    86  71  61    84  67  55    79  60  48  
  30  26  27    29  25  25    28  24  25    24  21  22    22  20  21    23  21  22    22  20  21    21  19  20    23  20  20    29  25  24    43  39  38     0   0   0     0   0   0     0   0   0     0   0   0     0   0   0     0   0   0    83  72  69    83  70  66     0   0   0     0   0   0     0   0   0     0   0   0     0   0   0     0   0   0     0   0   0     0   0   0     0   0   0   102  82  71   130 108  97   135 111  98   124  99  86   121  97  85   123 100  89   125 103  92   100  80  71    87  69  62    96  80  73   112  99  93   124 113 107   105  96  91    72  65  60    67  62  58    63  57  51    77  68  63    87  76  69    89  76  67    95  79  70    95  77  66    93  73  62  
  30  26  27    29  25  25    28  24  25    24  21  22    22  20  21    23  21  22    23  21  22    22  20  21    25  22  21    32  28  27    50  46  45     0   0   0     0   0   0     0   0   0     0   0   0     0   0   0    76  67  64    79  69  65    73  60  56    67  53  50    83  67  62     0   0   0     0   0   0     0   0   0     0   0   0     0   0   0     0   0   0   109  89  78   113  93  83   144 122 109   143 120 106   132 106  93   125 101  88   128 105  94   118  98  87    96  78  68   138 122 112   220 207 198   215 203 197   199 190 183   151 144 139    76  69  66    57  52  48    66  60  55    94  86  80   113 102  96   114 100  92   107  91  82    92  74  63    80  60  49  
  26  22  23    25  22  23    25  21  22    23  20  21    22  20  21    24  22  23    23  21  22    22  20  21    27  23  23    34  30  29    30  26  25    28  24  22     0   0   0     0   0   0     0   0   0     0   0   0    78  70  67    67  56  53    69  56  53    75  61  58    69  54  51    72  54  50     0   0   0     0   0   0     0   0   0     0   0   0     0   0   0   130 108  98   147 125 114   145 121 111   144 117 106   134 109  96   121  98  86   118  97  87   111  92  85   121 104  96   175 161 154   196 184 178   158 147 143   126 116 111   100  91  86    50  41  36    60  51  46    70  59  53    92  80  75   111  98  92   114  99  91   121 104  95   125 106  95   127 107  96  
  23  21  22    24  22  23    24  22  23    21  19  20    22  20  21    23  21  22    23  20  22    22  20  21    25  21  21    28  24  23    27  23  22    35  31  29     0   0   0     0   0   0     0   0   0    64  59  56    50  42  40    57  47  45    62  51  49    55  42  39    71  56  53   106  88  84   119 100  95     0   0   0     0   0   0     0   0   0     0   0   0   140 113 107   144 117 110   120  93  85   114  86  75   113  87  77   116  94  84   119 101  93   137 124 117   145 135 133   211 204 201   157 152 149   122 117 113   106  98  95    74  65  60    66  54  48    87  73  66   108  93  86   104  89  82   102  85  78   111  93  85   120 102  92   125 106  97   131 111 101  
  24  22  23    24  22  23    24  22  23    23  21  22    22  20  21    22  20  21    23  21  22    24  22  23    25  22  21    25  21  20    22  19  17    21  17  15     0   0   0     0   0   0     0   0   0    54  48  46    68  59  58    59  49  47    48  37  35    58  46  44    96  82  79   123 108 104   129 111 107     0   0   0     0   0   0     0   0   0     0   0   0   120  91  87   113  84  78   121  92  84   133 105  94   118  91  81   117  95  87   135 121 114   131 120 118   144 139 136   196 192 191   168 165 164   121 116 114    86  79  76    82  73  68   110  96  90   114  98  91   102  85  77   101  84  76   102  83  76   109  90  82   120 102  92     0   0   0     0   0   0  
  25  23  24    25  23  24    24  22  23    25  23  24    24  22  23    23  21  22    24  22  23    25  23  24    25  21  21    24  20  19    25  20  20    29  25  24    24  20  17     0   0   0    53  48  45    58  53  50    42  34  32    47  37  35    67  57  55   109  98  96   139 125 122   134 120 116   133 117 112   116  97  91     0   0   0     0   0   0   133 107 103   129 101  97   111  84  78   117  90  81   128 100  89   139 114 103   133 112 103   116 101  94    69  59  54   101  96  92   134 131 128   135 134 132   149 146 143   124 116 113    83  72  67    85  72  64    93  78  69   104  85  78   121 103  96     0   0   0     0   0   0     0   0   0     0   0   0     0   0   0  
   0   0   0    25  23  24    24  22  23    24  22  23    26  24  25    28  26  27    26  24  25    24  22  23    24  21  21    26  22  21    27  23  22    19  15  13    35  31  28     0   0   0    67  62  59    71  66  63    80  74  71    95  86  84    88  78  76    93  83  81    99  88  84    89  75  71    96  82  76   104  87  81    89  70  64     0   0   0   106  83  77   107  81  76   120  93  87   118  91  85   135 106  98   147 121 112   102  81  74    98  83  75   160 151 145   206 201 197   166 162 159   135 131 129   130 125 122   114 107 101    80  68  62    72  56  49     0   0   0     0   0   0     0   0   0     0   0   0     0   0   0     0   0   0     0   0   0     0   0   0  
   0   0   0     0   0   0     0   0   0    24  22  23    28  26  27    34  32  33    30  28  29    25  23  24    26  22  22    30  27  25    31  27  26    50  46  44    74  70  67    69  64  61    49  44  41    62  57  54    70  65  62    61  54  51    86  78  75    88  78  76    76  66  62    69  57  53    94  80  74    96  80  73    91  72  66   110  89  83   113  90  84   109  85  80   116  91  85   103  78  71   126  99  90   110  86  77   104  83  76   134 118 111   199 188 183   172 164 161   120 117 113    95  91  88    81  76  73     0   0   0     0   0   0     0   0   0     0   0   0     0   0   0     0   0   0     0   0   0     0   0   0     0   0   0     0   0   0     0   0   0  
   0   0   0     0   0   0     0   0   0     0   0   0    30  28  29    37  35  36    33  31  32    28  26  27    29  26  25    34  30  29    45  41  40    72  68  66    73  69  66    45  40  37    31  26  23    31  26  23    32  27  23    54  49  45    62  55  52    63  55  52    78  69  64    82  72  67    88  76  70    95  80  73   117 101  94   121 102  95   108  87  80   105  82  76   104  80  73   108  83  76   137 110 101   118  93  86   119  98  90   113  97  90   148 137 130   129 122 116   122 117 113     0   0   0     0   0   0     0   0   0     0   0   0     0   0   0     0   0   0     0   0   0     0   0   0     0   0   0     0   0   0     0   0   0     0   0   0     0   0   0  
   0   0   0     0   0   0     0   0   0     0   0   0     0   0   0    35  33  34    35  34  35    35  33  34    35  31  31    35  31  30    46  42  41    31  27  25    37  33  30    39  35  32    25  20  17    24  19  15    35  31  27    52  49  44    51  47  42    47  42  38    65  57  51    72  62  57    87  75  69    92  78  71   103  87  80   108  89  82   109  90  83   117  97  90   121  99  92   134 111 103   103  78  71   143 119 112   134 113 105   110  93  86   176 164 158   141 132 127   112 105  99    92  85  79    78  71  65     0   0   0     0   0   0     0   0   0     0   0   0     0   0   0     0   0   0     0   0   0     0   0   0     0   0   0     0   0   0     0   0   0  
   0   0   0     0   0   0     0   0   0     0   0   0     0   0   0     0   0   0     0   0   0    40  38  39    38  35  35    34  30  29    29  25  24    38  35  33    34  30  27    23  18  15    33  28  25    48  43  40    50  45  42    56  53  48    47  43  39    51  46  42    83  75  69    88  79  74   101  89  83   118 103  96   106  89  82   119 100  93   136 117 110   132 112 105   127 105  97   110  87  79   125 100  93   130 108 100   124 105  98   126 110 103   161 150 144   122 114 109   109 102  96    85  77  72    73  64  58    73  62  56    86  71  64    86  69  60     0   0   0     0   0   0     0   0   0     0   0   0     0   0   0     0   0   0     0   0   0     0   0   0  
   0   0   0     0   0   0     0   0   0     0   0   0     0   0   0     0   0   0     0   0   0     0   0   0    35  31  31    35  31  30    31  27  26    30  27  25    30  26  23    34  29  26    42  37  34    49  44  41    48  44  40    41  38  33    45  40  36    54  49  45    67  60  54    89  81  75   110 100  93   118 105  98   119 104  97   116  99  91   113  94  87   106  86  79   110  88  80    88  65  57   106  83  77   100  78  71   113  94  87   113  98  90   115 105  96   138 129 122    91  82  75    72  63  56    75  66  57    69  59  50    72  58  49    91  74  65   105  87  77   110  90  80     0   0   0     0   0   0     0   0   0     0   0   0     0   0   0     0   0   0  
   0   0   0     0   0   0     0   0   0     0   0   0     0   0   0     0   0   0     0   0   0    31  29  30    34  30  30    34  30  29    32  28  27    33  29  28    35  31  28    39  34  31    43  38  34    43  38  35    38  33  30    34  30  25    44  39  35    61  53  51    81  73  67    99  90  84   108  96  90   112  97  90   110  93  86    96  77  70   113  93  86   130 108 102   135 112 105   128 105  97   116  93  87   119 100  93   128 110 103   127 112 104   116 103  95   104  93  87    84  73  67    91  80  73    88  78  69    83  70  63    85  71  62   100  83  74   113  94  84   105  84  74    98  76  65    93  71  60    95  73  62     0   0   0     0   0   0     0   0   0  
   0   0   0     0   0   0     0   0   0     0   0   0     0   0   0     0   0   0    33  31  32    31  29  30    33  30  29    34  30  29    31  27  26    32  28  27    36  32  29    41  37  34    43  38  35    39  34  32    45  40  37    64  59  55    56  51  47    56  48  45    75  68  62   102  93  88   115 103  97   114 100  93   132 115 108   130 111 104   136 116 109   127 105  99   115  91  84   126 103  96   120  97  91   129 108 103   133 115 108   135 120 113   121 107 100    86  73  65    83  73  64    83  72  63    92  78  69   102  88  79   106  89  79    98  81  71    87  69  59    93  74  63     0   0   0     0   0   0     0   0   0     0   0   0     0   0   0     0   0   0  
   0   0   0     0   0   0     0   0   0     0   0   0     0   0   0    37  34  35    32  30  31    32  30  31    35  31  31    36  32  31    32  28  27    29  25  23    31  27  24    42  37  34    55  50  47    65  60  58    66  61  58    58  52  48    61  53  50    67  57  55    90  81  76   109  97  93   114 100  95   119 102  96   117  98  92    90  69  62    91  69  63   103  79  74   116  91  85   129 104  99   103  82  77   101  83  77   103  86  79   110  95  88   110  95  88    79  66  58    89  76  67    81  67  58    87  73  64    85  69  60     0   0   0     0   0   0     0   0   0     0   0   0     0   0   0     0   0   0     0   0   0     0   0   0     0   0   0     0   0   0  
   0   0   0     0   0   0     0   0   0     0   0   0     0   0   0    34  32  33    32  30  31    33  31  32    37  33  33    40  36  35    34  30  29    44  40  38    60  56  53    70  66  63    65  60  57    53  48  45    52  46  43    66  57  55    70  60  58    71  61  59    81  70  66    86  73  69    87  73  67    76  60  53    75  57  50    76  56  49    89  65  60   106  79  75   122  95  89   104  79  74   117  96  91   100  81  76    98  81  74   100  85  78   107  92  85    87  74  65    96  83  73     0   0   0     0   0   0     0   0   0     0   0   0     0   0   0     0   0   0     0   0   0     0   0   0     0   0   0     0   0   0     0   0   0     0   0   0     0   0   0  
   0   0   0     0   0   0     0   0   0     0   0   0    36  34  35    32  30  31    32  30  31    34  32  33    37  33  33    41  37  36    51  47  46    49  45  43    49  45  42    47  42  39    41  36  33    44  38  35    59  51  49    83  73  71    86  76  74    86  75  73    86  71  68    69  54  51    65  49  44    82  64  58    96  75  70    97  74  68    85  59  54    81  53  49   100  72  66    83  58  53    83  63  58    72  53  48    79  62  55    85  69  62    95  80  73     0   0   0     0   0   0     0   0   0     0   0   0     0   0   0     0   0   0     0   0   0     0   0   0     0   0   0     0   0   0     0   0   0     0   0   0     0   0   0     0   0   0     0   0   0  
   0   0   0     0   0   0     0   0   0    46  44  45    38  35  37    32  30  31    32  30  31    33  31  32    35  31  31    39  34  34    26  22  21    26  22  21    32  28  25    36  31  28    40  35  32    58  52  50    77  69  67    81  70  68    70  59  57    69  58  56    82  68  65    87  72  68   110  94  89   144 125 120   145 124 119   117  93  88   107  81  76   115  86  82   125  97  91   110  84  79   105  84  80   105  87  83   102  85  79    97  81  74    85  71  62    78  64  53    66  52  41     0   0   0     0   0   0     0   0   0     0   0   0     0   0   0     0   0   0     0   0   0     0   0   0     0   0   0     0   0   0     0   0   0     0   0   0     0   0   0  
   0   0   0     0   0   0     0   0   0     0   0   0    41  39  40    33  31  32    33  31  32    32  30  31    32  29  30    36  32  31    36  32  31    36  31  31    39  35  33    38  35  31    42  37  34    60  55  52    72  65  63    59  48  46    54  43  41    69  58  54    95  81  78   101  85  80   126 109 103   120 102  95   127 107 100   119  95  89   116  90  85   111  83  78   105  78  71   111  86  79    99  79  74   118 100  96   112  94  90   111  95  90    97  83  74    98  84  75    91  77  68   102  88  79   103  87  78    80  63  53    69  52  42     0   0   0     0   0   0     0   0   0     0   0   0     0   0   0     0   0   0     0   0   0     0   0   0     0   0   0  
   0   0   0     0   0   0     0   0   0     0   0   0     0   0   0    33  31  34    33  31  34    42  40  42    52  49  50    56  54  55    38  36  36    29  28  26    36  35  33    33  32  30    42  41  39    55  54  52    50  45  41    61  53  47    68  58  52    76  65  59    90  77  70    88  75  67    97  81  73   107  89  81   117  97  88   113  93  84    96  74  62    93  70  59   106  82  72   116  91  84   124 103  99   117  98  94   114  96  92   116  98  94   132 115 108   131 114 107   110  94  87   104  89  82    99  84  77    96  81  74    79  64  57    76  61  54    98  82  75   109  91  80     0   0   0     0   0   0     0   0   0     0   0   0     0   0   0     0   0   0  
   0   0   0     0   0   0     0   0   0     0   0   0     0   0   0     0   0   0     0   0   0    57  55  58    60  59  60    59  57  58    49  47  48    41  40  40    38  37  35    39  38  36    43  42  39    46  45  43    50  45  41    60  52  46    65  55  49    65  54  48    68  54  48    67  53  45    79  65  57    99  83  74   102  84  74    95  75  66    91  71  60   100  78  67   108  86  75   108  86  75   126 107 101   115  96  92   116  98  94   108  90  86    95  77  73    90  72  68    88  71  67    93  78  73   101  86  81   113  98  93   103  91  85    91  78  72    89  75  68   108  91  82   153 135 123   109  91  81    71  52  46   107  88  82     0   0   0     0   0   0  
   0   0   0     0   0   0     0   0   0     0   0   0     0   0   0     0   0   0     0   0   0     0   0   0    61  59  61    58  56  57    57  55  56    51  50  50    42  41  39    47  45  43    45  44  42    42  41  39    52  48  44    54  48  43    68  59  54    74  65  59    74  64  57    73  62  53    85  71  63    89  73  64    92  75  67   100  81  74   102  83  74   103  83  73   108  88  77   116  96  87   113  94  88   105  87  83   108  90  86    96  80  75    81  66  61    82  67  62    82  67  62    82  69  63    83  70  64    76  63  57    57  46  40    68  57  51    98  86  79   105  90  80   124 106  94    97  79  69    92  73  64    87  68  61    76  56  52    77  58  54  
   0   0   0     0   0   0     0   0   0     0   0   0     0   0   0     0   0   0     0   0   0     0   0   0     0   0   0    61  59  60    57  55  56    54  52  52    53  52  50    53  52  50    47  45  44    49  48  46    61  57  54    65  58  55    74  67  63    82  73  69    86  77  72    89  78  72    95  83  76   105  91  83   103  86  78    94  76  69    90  72  65    93  73  65   104  84  75   119 101  91   113  96  89   113  95  91   104  86  82    81  66  61    79  64  59    80  65  60    68  53  48    64  51  45    58  46  40    65  52  46    79  69  62    95  84  78    97  85  78    90  74  64   141 123 111   129 111 102    98  79  72    69  50  44    74  54  50    74  55  50  
   0   0   0     0   0   0     0   0   0     0   0   0     0   0   0     0   0   0     0   0   0     0   0   0     0   0   0     0   0   0    59  57  57    59  57  57    70  69  67    59  58  56    48  47  45    59  58  56    66  64  62    74  70  66    70  65  61    71  63  60    75  66  63    81  72  67    83  73  67    74  62  56    65  51  44    71  56  49    98  81  74   116  98  91   113  93  87   101  82  75   101  85  78   108  93  88   104  89  84    79  65  59    72  59  53    74  61  55    67  55  48    71  60  54    76  65  59    90  79  73    95  86  79    85  76  69    60  50  42    81  69  58   155 139 127   102  85  75    74  57  48    77  60  53    66  49  44    76  58  54  
   0   0   0     0   0   0     0   0   0     0   0   0     0   0   0     0   0   0     0   0   0     0   0   0     0   0   0    69  67  68    66  64  64    68  66  66    79  78  76    58  57  55    46  45  43    58  57  55    54  52  50    54  50  47    59  55  52    67  62  59    72  64  62    75  66  63    70  60  57    69  59  54    80  67  61    94  80  74   101  86  79   100  83  76    90  73  66    81  65  58    88  73  67    99  84  79   113  98  93    95  81  76    71  58  52    75  61  55    74  61  55    62  51  45    70  59  53    71  60  54    59  50  43    62  53  46    77  68  60   102  89  79   132 117 104    96  79  69    89  72  65    92  75  68    81  63  58    89  71  67  
   0   0   0     0   0   0     0   0   0     0   0   0     0   0   0     0   0   0     0   0   0    55  53  56    61  59  61    67  64  65    68  66  67    73  71  71    70  69  67    49  48  46    40  39  37    44  42  40    37  36  34    36  35  33    57  54  52    69  65  62    64  59  56    68  62  58    72  63  60    66  56  54    82  71  67   102  88  85   101  87  82    93  78  73    86  71  66    81  66  60    96  81  74    96  83  75   106  93  85    95  81  74    76  63  55    72  62  53    74  64  55    71  61  52    58  49  40    60  51  42    62  53  44    65  56  47    72  62  53    70  57  46   103  87  74   112  95  85    71  54  45    69  52  45    89  71  66    65  47  43  
   0   0   0     0   0   0     0   0   0     0   0   0     0   0   0    65  63  66    54  52  55    54  52  55    64  62  63    73  71  72    65  63  64    73  71  71    55  54  52    39  38  36    35  34  32    29  28  26    33  32  30    49  48  46    63  60  59    58  54  53    38  33  32    51  45  42    75  67  65    89  79  77    77  67  66    58  47  43    64  49  46    92  77  72   101  86  81    85  70  65    76  63  55    74  61  53    74  61  53    77  64  56    93  80  72    92  82  73    72  62  53    62  52  43    61  52  43    71  62  53    64  55  46    54  45  36    59  49  40    72  59  48   108  92  80   104  87  77    67  50  42    71  54  47    71  53  48    83  65  61  
   0   0   0     0   0   0     0   0   0     0   0   0    72  70  73    69  67  69    65  63  66    62  60  63    60  58  60    70  68  69    66  64  65    75  73  73    51  50  48    35  34  32    43  42  40    25  24  22    49  47  46    55  53  54    48  46  47    40  39  38    46  42  41    72  66  63    92  84  82    80  71  69    73  63  61    64  53  49    79  67  63    98  85  79    94  80  75   107  92  87    78  63  56    62  47  40    64  49  42    63  49  41    60  47  39    68  55  47    71  59  51    63  53  44    57  47  38    71  61  53    62  53  44    60  51  42    71  61  52    85  72  62   131 115 103   101  84  74    61  44  35    74  57  50    83  65  61    75  57  53  
   0   0   0     0   0   0    67  65  68    70  68  70    70  68  71    68  66  69    67  65  68    64  62  65    63  61  63    74  72  73    81  79  80    61  59  59    41  40  38    33  32  30    34  33  31    36  35  33    54  53  52    46  44  45    37  35  36    35  31  32    43  38  37    61  54  53    65  57  55    67  57  55    67  57  55    73  62  58    86  72  68    88  75  69    86  71  66    90  75  70    94  79  72    88  73  66    91  76  69    80  65  58    66  53  45    73  60  51    75  63  54    69  58  49    74  64  55    75  65  56    63  53  45    73  63  54    80  70  61    84  71  60   127 111  99   105  88  78    72  55  47    79  62  55    81  63  58    74  55  52  
  55  53  56    50  48  51    69  67  70    71  68  72    69  67  70    69  67  70    69  67  70    67  65  68    67  65  67    78  76  77    93  91  92    56  54  54    34  33  31    31  31  28    30  29  27    47  46  44    45  44  42    34  33  31    35  32  30    40  36  35    49  45  42    64  58  55    65  57  54    67  58  55    65  55  53    75  63  60    79  65  62    75  61  56    87  72  67    95  80  75   104  87  79   101  84  76   103  86  78    93  76  68    76  62  53    74  60  51    74  60  51    66  52  43    70  58  48    72  59  50    65  53  43    72  62  52    77  65  56    75  61  51   106  91  79    84  70  59    62  48  38    72  57  49    84  69  63    93  78  73  
  60  58  61    58  56  59    78  76  79    75  73  76    72  70  73    72  70  73    73  71  74    71  69  72    70  68  70    81  79  80    92  90  91    65  63  63    34  33  31    35  34  32    37  36  34    47  46  44    30  29  27    36  33  32    46  42  41    52  46  46    51  46  43    63  56  53    71  62  59    65  55  53    64  54  52    75  61  58    79  64  61    81  66  61    94  79  74   108  91  84   102  85  77    94  75  68    94  76  69    95  78  70    88  71  63    77  60  52    69  55  46    58  44  35    53  39  30    66  53  43    69  55  46    64  51  42    67  54  45    77  63  53   102  88  76    84  70  60    73  59  51    81  66  59    93  78  73   112  97  92  
  52  50  53    57  55  58    75  73  76    76  74  77    77  75  78    77  75  78    78  76  79    75  73  76    73  70  72    82  80  81    92  90  91    67  66  66    34  33  31    43  42  40    40  39  37    39  38  36    33  31  29    47  43  40    52  48  45    48  43  40    40  34  30    48  41  37    55  47  42    51  42  37    66  55  51    78  64  58    88  73  68   100  84  77    94  77  70    97  80  73     0   0   0    91  72  65    89  70  63    92  73  66    88  68  61    75  57  49    68  51  43    59  42  34    58  41  33    70  56  47    70  56  47    64  50  41    68  54  44    70  57  44    88  74  61    78  64  53    76  62  52    73  59  51    67  52  46    73  58  53  
  46  45  48    57  55  58    71  69  72    75  73  76    79  78  81    80  78  81    80  79  82    77  75  78    74  72  73    82  80  81    94  92  93    55  53  53    32  31  29    49  47  45    36  35  33    31  30  28    47  46  43    50  46  43    48  43  40    44  39  36    44  36  33    53  44  41    56  46  41    57  46  42    77  63  60    76  61  56    84  67  62   100  83  76     0   0   0     0   0   0     0   0   0     0   0   0     0   0   0    86  66  59    75  56  49    66  47  40    64  45  38    63  45  38    80  63  55    78  61  53    71  54  46    74  57  49    76  61  52    80  67  56    90  76  63    76  62  51    80  66  58    80  65  58    72  57  52    75  60  55  
  50  48  51    60  58  61    76  74  77    77  75  78    79  77  79    80  78  81    81  79  82    78  76  79    74  72  73    82  80  81    88  85  86    43  41  41    37  36  34    44  43  41    35  34  32    30  29  27    49  47  44    50  45  42    53  48  44    54  49  45    56  48  45    65  56  53    68  58  53    70  59  54    78  65  59    74  59  52    77  60  53     0   0   0     0   0   0     0   0   0     0   0   0     0   0   0     0   0   0     0   0   0    83  63  56    72  52  45    71  52  46    83  64  57    99  80  73    96  78  70    92  73  66    94  75  68    93  75  66    93  78  66    92  78  65    70  56  45    77  63  53    86  71  63    85  70  65    88  73  68  
  33  31  34    40  38  41    62  60  63    71  69  72    76  74  77    78  76  79    81  79  82    78  76  79    74  72  73    82  80  81    78  75  77    41  39  39    46  45  43    38  37  35    40  39  37    33  32  30    42  38  36    56  51  48    69  64  60    67  62  58    57  49  46    59  49  46    64  53  49    66  54  48    68  53  48    80  63  55    87  70  63     0   0   0     0   0   0     0   0   0     0   0   0     0   0   0     0   0   0     0   0   0     0   0   0    92  72  65    93  73  66   109  90  83   109  90  83   119 100  93   127 108 101   117  98  91   111  93  84   115 100  89   114 100  89    93  79  69   102  88  79   109  94  86    99  84  77    90  75  70  
  30  28  31    32  30  33    43  41  44    48  44  48    52  47  51    55  50  54    56  51  55    55  50  54    54  50  51    55  51  52    55  51  52    45  42  42    48  44  43    47  43  42    35  31  30    37  33  32    56  51  50    65  60  56    56  51  46    53  48  42    60  53  47    73  64  59    79  68  62    76  64  57    86  71  64    96  80  71     0   0   0     0   0   0     0   0   0     0   0   0     0   0   0     0   0   0     0   0   0     0   0   0     0   0   0     0   0   0    97  77  68    98  78  69   104  84  75   105  85  76   103  83  74   108  88  79   105  86  77   101  86  75   111 100  90    89  79  69    85  75  65    99  89  79    84  74  64    87  77  67  
  31  29  32    34  32  35    42  40  43    48  44  47    48  43  47    44  39  44    40  35  39    38  33  37    38  34  36    42  38  39    50  46  47    48  44  45    45  41  40    39  35  34    36  32  31    46  42  41    57  53  51    59  54  50    55  50  45    57  50  44    62  53  48    71  61  56    75  63  57    88  74  67    97  82  74    97  80  72     0   0   0     0   0   0     0   0   0     0   0   0     0   0   0     0   0   0     0   0   0     0   0   0     0   0   0     0   0   0     0   0   0    84  64  55    82  62  53    82  62  53    91  71  62   104  84  75    96  77  68   100  85  76   109  98  88   104  94  84   119 109  99   127 117 107    95  85  75    80  70  60  
  49  47  50    52  50  53    55  53  56    58  54  58    58  53  57    53  48  52    47  42  46    43  38  42    42  38  40    43  39  40    47  43  44    51  47  47    43  39  38    33  29  28    38  34  33    52  48  46    55  51  48    52  47  43    64  57  54    63  55  51    51  42  37    61  52  47    82  71  65    99  87  79   102  87  80    98  81  73     0   0   0     0   0   0     0   0   0     0   0   0     0   0   0     0   0   0     0   0   0     0   0   0     0   0   0     0   0   0     0   0   0    85  65  56    88  68  59   115  95  85   100  80  71    77  57  48    97  78  68   117 101  92   104  91  81    90  78  68    96  83  75    90  77  68    69  56  47    62  49  40  
  70  68  71    70  68  70    69  67  70    69  65  68    71  66  70    72  67  71    69  64  68    63  58  62    56  51  53    51  47  48    53  49  50    50  46  47    44  40  39    38  34  33    39  35  34    47  43  42    53  49  47    55  50  47    54  46  43    51  43  40    55  46  41    74  64  59    91  79  73    98  83  77    95  80  73    97  80  72     0   0   0     0   0   0     0   0   0     0   0   0     0   0   0     0   0   0     0   0   0     0   0   0     0   0   0     0   0   0     0   0   0   124 104  95   121 101  92   113  93  84   109  89  80   116  96  87   113  94  85    95  79  70    81  67  58    84  70  61    86  72  62    75  61  52    73  59  50    73  59  50  
  74  72  75    74  72  75    71  69  72    71  67  70    73  68  72    75  70  74    74  69  73    68  63  67    58  53  55    50  45  46    62  58  58    48  44  44    46  42  41    48  44  43    41  37  36    38  34  33    43  39  35    47  42  38    56  49  46    56  48  45    51  42  37    70  60  55    96  85  79    90  77  70    84  69  62     0   0   0     0   0   0     0   0   0     0   0   0     0   0   0     0   0   0     0   0   0     0   0   0     0   0   0     0   0   0     0   0   0     0   0   0     0   0   0   114  97  87   121 103  93   124 106  96   124 106  96   106  88  78    84  67  58    74  60  51    84  70  61    80  66  57    79  65  56    95  81  72    93  79  70  
  73  71  74    73  71  74    71  69  72    74  70  74    75  70  74    74  69  73    71  66  70    65  60  64    55  51  53    48  44  45    64  60  61    45  41  41    45  41  40    53  49  48    45  41  40    39  35  34    45  40  39    45  39  36    45  37  34    51  43  40    63  54  49    77  68  63    82  70  65    79  64  59    81  66  59     0   0   0     0   0   0     0   0   0     0   0   0     0   0   0     0   0   0     0   0   0     0   0   0     0   0   0     0   0   0     0   0   0     0   0   0     0   0   0   123 105  95   151 133 123   134 116 106    91  73  63    87  69  59    95  78  69    98  81  73   112  95  87   117 100  92   124 107  99   133 116 108   112  95  87  
  70  68  71    72  70  73    71  69  72    73  69  73    76  71  75    77  72  76    77  72  76    72  67  71    61  57  59    52  48  49    58  53  55    43  39  40    40  36  35    46  42  41    50  46  45    52  48  47    53  49  47    48  42  39    56  48  45    61  51  49    58  49  46    66  57  52    73  62  57    78  65  59    81  66  61     0   0   0     0   0   0     0   0   0     0   0   0     0   0   0     0   0   0     0   0   0     0   0   0     0   0   0     0   0   0     0   0   0     0   0   0     0   0   0   104  85  79    92  73  66    94  75  68   102  83  76    92  73  66    89  70  63    86  67  60    92  73  65   101  82  75   119 100  93   137 118 111   133 114 107  
  65  63  66    65  63  65    64  62  65    65  61  65    70  65  69    80  75  79    85  80  85    81  76  80    66  62  64    53  49  50    50  46  47    43  39  40    35  31  30    38  33  33    53  49  48    67  63  62    69  62  62    62  54  52    60  51  48    59  49  47    59  48  46    66  55  53    70  58  54    79  66  61    82  67  62     0   0   0     0   0   0     0   0   0     0   0   0     0   0   0     0   0   0     0   0   0     0   0   0     0   0   0     0   0   0     0   0   0     0   0   0     0   0   0   145 127 120   132 113 106   108  89  82    94  75  68    85  66  59    81  62  55    83  64  57    96  77  70   108  89  82   109  90  83   112  93  86   115  96  89  
  63  61  64    62  60  63    60  58  61    64  60  64    69  64  68    75  70  74    78  73  77    79  74  78    75  71  73    62  58  59    48  44  45    42  38  38    40  36  35    39  35  34    39  35  34    44  39  38    52  45  45    67  58  57    81  71  70    74  64  63    69  58  56    71  61  58    75  63  59    76  63  58     0   0   0     0   0   0     0   0   0     0   0   0     0   0   0     0   0   0     0   0   0     0   0   0     0   0   0     0   0   0     0   0   0     0   0   0     0   0   0     0   0   0     0   0   0   134 117 109   110  93  85   102  85  77    95  77  69   112  93  86   127 107 100   118  98  91   107  87  80   106  86  79    94  74  67    74  54  47  
  64  62  65    62  60  63    61  59  62    64  60  64    68  63  67    74  69  73    75  70  75    76  71  75    72  67  69    58  54  55    49  45  46    40  36  37    36  32  31    36  32  31    38  34  33    45  40  40    57  50  50    68  59  58    70  60  59    73  63  62    75  64  62    70  58  56    74  60  58    90  76  73     0   0   0     0   0   0     0   0   0     0   0   0     0   0   0     0   0   0     0   0   0     0   0   0     0   0   0     0   0   0     0   0   0     0   0   0     0   0   0     0   0   0     0   0   0   116  99  91   101  84  76   101  83  76   102  85  77    97  78  71    97  77  70   102  82  75   121 101  94   130 110 103   111  91  84    90  70  63  
