P3
70 50
255
  86  99 107    86  99 107    86  99 107    87 100 108    87 100 108    87 100 108    87 100 108    87 100 108    87 100 108     0   0   0     0   0   0     0   0   0     0   0   0     0   0   0     0   0   0     0   0   0     0   0   0     0   0   0     0   0   0     0   0   0     0   0   0     0   0   0     0   0   0     0   0   0     0   0   0     0   0   0     0   0   0     0   0   0     0   0   0     0   0   0     0   0   0     0   0   0     0   0   0     0   0   0     0   0   0     0   0   0     0   0   0     0   0   0     0   0   0    90 103 111    90 103 111    90 103 111    90 103 111    89 102 111    90 103 112    90 103 112    90 103 112    91 104 113    91 104 113    91 104 113     0   0   0     0   0   0     0   0   0     0   0   0     0   0   0     0   0   0     0   0   0     0   0   0     0   0   0     0   0   0     0   0   0     0   0   0     0   0   0     0   0   0     0   0   0     0   0   0     0   0   0     0   0   0     0   0   0     0   0   0  
  86  99 107    86  99 107    86  99 107    87 100 108    87 100 108    87 100 108    87 100 108    87 100 108    87 100 108    87 100 108    87 100 108    87 100 108    87 100 108     0   0   0     0   0   0     0   0   0     0   0   0     0   0   0     0   0   0     0   0   0     0   0   0     0   0   0     0   0   0     0   0   0     0   0   0     0   0   0     0   0   0     0   0   0     0   0   0     0   0   0     0   0   0     0   0   0     0   0   0     0   0   0     0   0   0     0   0   0     0   0   0     0   0   0     0   0   0    90 103 111    90 103 111    90 103 111    90 103 111    89 102 111    90 103 112    90 103 112    90 103 112    91 104 113    91 104 113    91 104 113     0   0   0     0   0   0     0   0   0     0   0   0     0   0   0     0   0   0     0   0   0     0   0   0     0   0   0     0   0   0     0   0   0     0   0   0     0   0   0     0   0   0     0   0   0     0   0   0     0   0   0     0   0   0     0   0   0     0   0   0  
  86  99 107    86  99 107    87 100 108    87 100 108    87 100 108    87 100 108    87 100 108    87 100 108    87 100 108    87 100 108    87 100 108    87 100 108    87 100 108    87 100 108    87 100 108    87 100 108    87 100 108     0   0   0     0   0   0     0   0   0     0   0   0     0   0   0     0   0   0     0   0   0     0   0   0     0   0   0     0   0   0     0   0   0     0   0   0     0   0   0    89 102 110     0   0   0     0   0   0     0   0   0     0   0   0     0   0   0     0   0   0     0   0   0     0   0   0    89 102 110    90 103 111    90 103 111    90 103 111    90 103 112    90 103 112    90 103 112    90 103 112    90 103 112    90 103 112    90 103 112     0   0   0     0   0   0     0   0   0     0   0   0     0   0   0     0   0   0     0   0   0     0   0   0     0   0   0     0   0   0     0   0   0     0   0   0     0   0   0     0   0   0     0   0   0     0   0   0     0   0   0     0   0   0     0   0   0     0   0   0  
  86  99 107    86  99 107    87 100 108    87 100 108    87 100 108    87 100 108    87 100 108    87 100 108    87 100 108    87 100 108    87 100 108    87 100 108    87 100 108    87 100 108    87 100 108    87 100 108    87 100 108     0   0   0     0   0   0     0   0   0     0   0   0     0   0   0     0   0   0     0   0   0     0   0   0     0   0   0     0   0   0     0   0   0     0   0   0     0   0   0    89 102 110    89 102 110     0   0   0     0   0   0     0   0   0     0   0   0     0   0   0     0   0   0     0   0   0    89 102 110    90 103 111    90 103 111    90 103 111    90 103 112    90 103 112    90 103 112    90 103 112    90 103 112    90 103 112    90 103 112     0   0   0     0   0   0     0   0   0     0   0   0     0   0   0     0   0   0     0   0   0     0   0   0     0   0   0     0   0   0     0   0   0     0   0   0     0   0   0     0   0   0     0   0   0     0   0   0     0   0   0     0   0   0     0   0   0     0   0   0  
  86  99 107    86  99 107    87 100 108    87 100 108    87 100 108    87 100 108    87 100 108    87 100 108    87 100 108    87 100 108    87 100 108    87 100 108    87 100 108    87 100 108    87 100 108    87 100 108    87 100 108    87 100 108     0   0   0     0   0   0     0   0   0     0   0   0     0   0   0     0   0   0     0   0   0     0   0   0     0   0   0     0   0   0     0   0   0    88 101 109    89 102 110    89 102 110    89 102 110     0   0   0     0   0   0     0   0   0     0   0   0     0   0   0     0   0   0    89 102 110    90 103 111    90 103 111    90 103 111    90 103 112    90 103 112    90 103 112    90 103 112    90 103 112    90 103 112    90 103 112     0   0   0     0   0   0     0   0   0     0   0   0     0   0   0     0   0   0     0   0   0     0   0   0     0   0   0     0   0   0     0   0   0     0   0   0     0   0   0     0   0   0     0   0   0     0   0   0     0   0   0     0   0   0     0   0   0     0   0   0  
  86  99 107    86  99 107    87 100 108    87 100 108    87 100 108    87 100 108    87 100 108    87 100 108    87 100 108    87 100 108    87 100 108    87 100 108    87 100 108    87 100 108    87 100 108    87 100 108    87 100 108    87 100 108    87 100 108     0   0   0     0   0   0     0   0   0     0   0   0     0   0   0     0   0   0     0   0   0     0   0   0     0   0   0    88 101 109    88 101 109    89 102 110    89 102 110    89 102 110    90 103 110     0   0   0     0   0   0     0   0   0     0   0   0    89 102 110    89 102 110    90 103 111    90 103 111    90 103 111    90 103 112    90 103 112    90 103 112    90 103 112    90 103 112    90 103 112    90 103 112     0   0   0     0   0   0     0   0   0     0   0   0     0   0   0     0   0   0     0   0   0     0   0   0     0   0   0     0   0   0     0   0   0     0   0   0     0   0   0     0   0   0     0   0   0     0   0   0     0   0   0     0   0   0     0   0   0     0   0   0  
  86  99 107    86  99 107    87 100 108    87 100 108    87 100 108    87 100 108    87 100 108    87 100 108    87 100 108    87 100 108    87 100 108    87 100 108    87 100 108    87 100 108    87 100 108    87 100 108    87 100 108    87 100 108    87 100 108    87 100 108     0   0   0     0   0   0     0   0   0     0   0   0     0   0   0     0   0   0     0   0   0    88 101 109    88 101 109    88 101 109    89 102 110    89 102 110    89 102 110    90 103 110     0   0   0     0   0   0     0   0   0     0   0   0    89 102 110    89 102 110    90 103 111    90 103 111    90 103 111    90 103 112    90 103 112    90 103 112    90 103 112    90 103 112    90 103 112    90 103 112     0   0   0     0   0   0     0   0   0     0   0   0     0   0   0     0   0   0     0   0   0     0   0   0     0   0   0     0   0   0     0   0   0     0   0   0     0   0   0     0   0   0     0   0   0     0   0   0     0   0   0     0   0   0     0   0   0     0   0   0  
  86  99 107    86  99 107    87 100 108    87 100 108    87 100 108    87 100 108    87 100 108    87 100 108    87 100 108    87 100 108    87 100 108    87 100 108    87 100 108    87 100 108    87 100 108    87 100 108    87 100 108    87 100 108    87 100 108    87 100 108     0   0   0     0   0   0     0   0   0     0   0   0     0   0   0     0   0   0     0   0   0    88 101 109    88 101 109    88 101 109    89 102 110    89 102 110    89 102 110    90 103 110    90 103 111     0   0   0     0   0   0     0   0   0    89 102 110    89 102 110    90 103 111    90 103 111    90 103 111    90 103 112    90 103 112    90 103 112    90 103 112    90 103 112    90 103 112    90 103 112     0   0   0     0   0   0     0   0   0     0   0   0     0   0   0     0   0   0     0   0   0     0   0   0     0   0   0     0   0   0     0   0   0     0   0   0     0   0   0     0   0   0     0   0   0     0   0   0     0   0   0     0   0   0     0   0   0     0   0   0  
  86  99 107    86  99 107    87 100 108    87 100 108    87 100 108    87 100 108    87 100 108    87 100 108    87 100 108    87 100 108    87 100 108    87 100 108    87 100 108    87 100 108    87 100 108    87 100 108    87 100 108    87 100 108    87 100 108    87 100 108    87 100 108     0   0   0     0   0   0     0   0   0     0   0   0     0   0   0    88 101 109    88 101 109    88 101 109    88 101 109    89 102 110    89 102 110    89 102 110    90 103 110    90 103 111    90 103 111     0   0   0     0   0   0    89 102 110    89 102 110    90 103 111    90 103 111    90 103 111    90 103 112    90 103 112    90 103 112    90 103 112    90 103 112    90 103 112    90 103 112     0   0   0     0   0   0     0   0   0     0   0   0     0   0   0     0   0   0     0   0   0     0   0   0     0   0   0     0   0   0     0   0   0     0   0   0     0   0   0     0   0   0     0   0   0     0   0   0     0   0   0     0   0   0     0   0   0     0   0   0  
  86  99 107    86  99 107    87 100 108    87 100 108    87 100 108    87 100 108    87 100 108    87 100 108    87 100 108    87 100 108    87 100 108    87 100 108    87 100 108    87 100 108    87 100 108    87 100 108    87 100 108    87 100 108    87 100 108    87 100 108    87 100 108    88 101 109     0   0   0     0   0   0     0   0   0    88 101 109    88 101 109    88 101 109    88 101 109    88 101 109    89 102 110    89 102 110    89 102 110    90 103 110    90 103 111    90 103 111    90 103 110     0   0   0    89 102 110    89 102 110    90 103 111    90 103 111    90 103 111    90 103 112    90 103 112    90 103 112    90 103 112    90 103 112    90 103 112    90 103 112     0   0   0     0   0   0     0   0   0     0   0   0     0   0   0     0   0   0     0   0   0     0   0   0     0   0   0     0   0   0     0   0   0     0   0   0     0   0   0     0   0   0     0   0   0     0   0   0     0   0   0     0   0   0     0   0   0     0   0   0  
  86  99 107    86  99 107    86  99 107    87 100 108    87 100 108    87 100 108    87 100 108    87 100 108    87 100 108    87 100 108    87 100 108    87 100 108    87 100 108    87 100 108    87 100 108    87 100 108    87 100 108    88 101 109    88 101 109    88 101 109    88 101 109    88 101 109     0   0   0     0   0   0     0   0   0    88 101 109    88 101 109    88 101 109    88 101 109    88 101 109    89 102 110    89 102 110    89 102 110    89 102 110    89 102 110    89 102 110    89 102 110    90 103 111    90 103 111    90 103 111    90 103 111    91 104 112    91 104 112    91 104 113    91 104 113    91 104 113    91 104 113    91 104 113    91 104 113    91 104 113     0   0   0     0   0   0     0   0   0     0   0   0     0   0   0     0   0   0     0   0   0     0   0   0     0   0   0     0   0   0     0   0   0     0   0   0     0   0   0     0   0   0     0   0   0     0   0   0     0   0   0     0   0   0     0   0   0     0   0   0  
  86  99 107    86  99 107    86  99 107    87 100 108    87 100 108    87 100 108    87 100 108    87 100 108    87 100 108    87 100 108    87 100 108    87 100 108    87 100 108    87 100 108    87 100 108    87 100 108    87 100 108    88 101 109    88 101 109    88 101 109    88 101 109    88 101 109    88 101 109     0   0   0    88 101 109    88 101 109    88 101 109    88 101 109    88 101 109    88 101 109    89 102 110    89 102 110    89 102 110    89 102 110    89 102 110    89 102 110    89 102 110    90 103 111    90 103 111    90 103 111    90 103 111    91 104 112    91 104 112    91 104 113    91 104 113    91 104 113    91 104 113    91 104 113    91 104 113    91 104 113     0   0   0     0   0   0     0   0   0     0   0   0     0   0   0     0   0   0     0   0   0     0   0   0     0   0   0     0   0   0     0   0   0     0   0   0     0   0   0     0   0   0     0   0   0     0   0   0     0   0   0     0   0   0     0   0   0     0   0   0  
  85  98 106    85  98 106    85  98 106    86  99 107    87 100 108    87 100 108    87 100 108    87 100 108    87 100 108    87 100 108    87 100 108    87 100 108    87 100 108    87 100 108    87 100 108    87 100 108    87 100 108    88 101 109    88 101 109    88 101 109    88 101 109    88 101 109    88 101 109    88 101 109    88 101 109    88 101 109    88 101 109    88 101 109    88 101 109    88 101 109    89 102 110    89 102 110    89 102 110    89 102 110    89 102 110    89 102 110    89 102 110    90 103 111    90 103 111    90 103 111    90 103 111    91 104 112    91 104 112    91 104 113    91 104 113    91 104 113    91 104 113    91 104 113    91 104 113    91 104 113     0   0   0     0   0   0     0   0   0     0   0   0     0   0   0     0   0   0     0   0   0     0   0   0     0   0   0     0   0   0     0   0   0     0   0   0     0   0   0     0   0   0     0   0   0     0   0   0     0   0   0     0   0   0     0   0   0     0   0   0  
  85  98 106    85  98 106    85  98 106    86  99 107    87 100 108    87 100 108    87 100 108    87 100 108    87 100 108    87 100 108    87 100 108    87 100 108    87 100 108    87 100 108    87 100 108    87 100 108    87 100 108    87 100 108    87 100 108    87 100 108    87 100 108    87 100 108    87 100 108    88 100 109    88 101 109    88 101 109    88 101 109    88 101 109    88 101 109    88 101 109    89 102 110    89 102 110    89 102 110    89 102 110    89 102 110    89 102 110    89 102 110    90 103 111    90 103 111    90 103 111    90 103 111    91 104 112    91 104 112    90 103 112    90 103 112    90 103 112    90 103 112    90 103 112    90 103 112    90 103 112    91 104 113    91 104 113     0   0   0     0   0   0     0   0   0     0   0   0     0   0   0     0   0   0     0   0   0     0   0   0     0   0   0     0   0   0     0   0   0     0   0   0     0   0   0     0   0   0     0   0   0     0   0   0     0   0   0     0   0   0  
  85  98 106    85  98 106    85  98 106    86  99 107    87 100 108    87 100 108    87 100 108    87 100 108    87 100 108    87 100 108    86  99 107    86  99 107    86  99 107    86  99 107    86  99 107    86  99 107    86  99 107    87 100 108    87 100 108    87 100 108    87 100 108    87 100 108    87 100 108    88 100 109    88 101 109    88 101 109    88 101 109    88 101 109    88 101 109    88 101 109    89 102 110    89 102 110    89 102 110    89 102 110    89 102 110    89 102 110    89 102 110    90 103 111    90 103 111    90 103 111    90 103 111    91 104 112    91 104 112    90 103 112    90 103 112    90 103 112    90 103 112    90 103 112    90 103 112    90 103 112    91 104 113    91 104 113    91 104 113    91 104 113    91 104 113    91 104 113     0   0   0     0   0   0     0   0   0     0   0   0     0   0   0     0   0   0     0   0   0     0   0   0     0   0   0     0   0   0     0   0   0     0   0   0     0   0   0     0   0   0  
  85  98 106    85  98 106    85  98 106    86  99 107    87 100 108    87 100 108    87 100 108    87 100 108    87 100 108    87 100 108    86  99 107    86  99 107    86  99 107    86  99 107    86  99 107    86  99 107    86  99 107    87 100 108    87 100 108    87 100 108    87 100 108    87 100 108    87 100 108    88 100 109    88 101 109    88 101 109    88 101 109    88 101 109    88 101 109    88 101 109    88 101 109    88 101 109    88 101 109    88 101 109    88 101 109    88 101 109    88 101 109    90 103 111    90 103 111    90 103 111    90 103 111    91 104 112    91 104 112    90 103 112    90 103 112    90 103 112    90 103 112    90 103 112    90 103 112    90 103 112    91 104 113    91 104 113    91 104 113    91 104 113    91 104 113    91 104 113    91 104 113    92 105 114    92 105 114     0   0   0     0   0   0     0   0   0     0   0   0     0   0   0     0   0   0     0   0   0     0   0   0     0   0   0     0   0   0     0   0   0  
  86  99 107    86  99 107    86  99 107    87 100 108    87 100 108    87 100 108    87 100 108    87 100 108    87 100 108    87 100 108    86  99 107    86  99 107    86  99 107    86  99 107    86  99 107    86  99 107    86  99 107    87 100 108    87 100 108    87 100 108    87 100 108    87 100 108    87 100 108    88 100 109    88 101 109    88 101 109    88 101 109    88 101 109    88 101 109    88 101 109    88 101 109    88 101 109    88 101 109    88 101 109    88 101 109    88 101 109    88 101 109    90 103 111    90 103 111    90 103 111    90 103 111    91 104 112    91 104 112    90 103 112    90 103 112    90 103 112    90 103 112    90 103 112    90 103 112    90 103 112    91 104 113    91 104 113    91 104 113    91 104 113    91 104 113    91 104 113    91 104 113    92 105 114    92 105 114    92 105 114    92 105 114     0   0   0     0   0   0     0   0   0     0   0   0     0   0   0     0   0   0     0   0   0     0   0   0     0   0   0  
  86  99 107    86  99 107    86  99 107    87 100 108    87 100 108    87 100 108    87 100 108    87 100 108    87 100 108    87 100 108    86  99 107    86  99 107    86  99 107    86  99 107    86  99 107    86  99 107    86  99 107    87 100 108    87 100 108    87 100 108    87 100 108    87 100 108    87 100 108    88 100 109    88 101 109    88 101 109    88 101 109    88 101 109    88 101 109    88 101 109    88 101 109    88 101 109    88 101 109    88 101 109    88 101 109    88 101 109    88 101 109    90 103 111    90 103 111    90 103 111    90 103 111    91 104 112    91 104 112    90 103 112    90 103 112    90 103 112    90 103 112    90 103 112    90 103 112    90 103 112    91 104 113    91 104 113    91 104 113    91 104 113    91 104 113    91 104 113    91 104 113    92 105 114    92 105 114    92 105 114    92 105 114    92 105 114    92 105 114     0   0   0     0   0   0     0   0   0     0   0   0     0   0   0     0   0   0     0   0   0  
  85  98 106    86  99 107    86  99 107    87 100 108    87 100 108    87 100 108    87 100 108    87 100 108    87 100 108    87 100 108    87 100 108    87 100 108    87 100 108    87 100 108    87 100 108    87 100 108    87 100 108    87 100 108    87 100 108    87 100 108    87 100 108    87 100 108    87 100 108    87 100 108    87 100 108    88 101 109    88 101 109    89 102 110    89 102 110    89 102 110    89 102 110    89 102 110    89 102 110    89 102 110    89 102 110    89 102 110    89 102 110    89 102 110    90 103 110    90 103 111    90 103 111    91 104 112    91 104 112    90 103 111    90 103 111    90 103 111    90 103 111    90 103 111    90 103 111    90 103 111    91 104 112    91 104 112    91 104 112    91 104 112    91 104 112    91 104 112    91 104 112    92 105 113    92 105 113    92 105 113    92 105 113    92 105 113    92 105 113    92 105 113    92 105 113     0   0   0     0   0   0     0   0   0     0   0   0     0   0   0  
  85  98 106    86  99 107    86  99 107    87 100 108    87 100 108    87 100 108    87 100 108    87 100 108    87 100 108    87 100 108    87 100 108    87 100 108    87 100 108    87 100 108    87 100 108    87 100 108    87 100 108    87 100 108    87 100 108    87 100 108    87 100 108    87 100 108    87 100 108    87 100 108    87 100 108    88 101 109    88 101 109    89 102 110    89 102 110    89 102 110    89 102 110    89 102 110    89 102 110    89 102 110    89 102 110    89 102 110    89 102 110    89 102 110    90 103 110    90 103 111    90 103 111    91 104 112    91 104 112    90 103 111    90 103 111    90 103 111    90 103 111    90 103 111    90 103 111    90 103 111    91 104 112    91 104 112    91 104 112    91 104 112    91 104 112    91 104 112    91 104 112    92 105 113    92 105 113    92 105 113    92 105 113    92 105 113    92 105 113    92 105 113    92 105 113    92 105 113     0   0   0     0   0   0     0   0   0     0   0   0  
   0   0   0     0   0   0     0   0   0     0   0   0     0   0   0     0   0   0    87 100 108    87 100 108    87 100 108    87 100 108    87 100 108    87 100 108    87 100 108    87 100 108    87 100 108    87 100 108    87 100 108    87 100 108    87 100 108    87 100 108    87 100 108    87 100 108    87 100 108    87 100 108    87 100 108    88 101 109    88 101 109    89 102 110    89 102 110    89 102 110    89 102 110    89 102 110    89 102 110    89 102 110    89 102 110    89 102 110    89 102 110    89 102 110    90 103 110    90 103 111    90 103 111    90 103 111    91 104 112    90 103 111    90 103 111    90 103 111    90 103 111    90 103 111    90 103 111    90 103 111    91 104 112    91 104 112    91 104 112    91 104 112    91 104 112    91 104 112    91 104 112    92 105 113    92 105 113    92 105 113    92 105 113    92 105 113    92 105 113    92 105 113    92 105 113    92 105 113    92 105 113     0   0   0     0   0   0     0   0   0  
   0   0   0     0   0   0     0   0   0     0   0   0     0   0   0     0   0   0     0   0   0     0   0   0     0   0   0     0   0   0     0   0   0     0   0   0     0   0   0    87 100 108    87 100 108    87 100 108    87 100 108    87 100 108    87 100 108    87 100 108    87 100 108    87 100 108    87 100 108    87 100 108    87 100 108    88 101 109    88 101 109    89 102 110    89 102 110    89 102 110    89 102 110    89 102 110    89 102 110    89 102 110    89 102 110    89 102 110    89 102 110    89 102 110    90 103 110    90 103 111    90 103 111    90 103 111    90 103 111    90 103 111    90 103 111    90 103 111    90 103 111    90 103 111    90 103 111    90 103 111    91 104 112    91 104 112    91 104 112    91 104 112    91 104 112    91 104 112    91 104 112    92 105 113    92 105 113    92 105 113    92 105 113    92 105 113    92 105 113    92 105 113    92 105 113    92 105 113    92 105 113    92 105 113     0   0   0     0   0   0  
   0   0   0     0   0   0     0   0   0     0   0   0     0   0   0     0   0   0     0   0   0     0   0   0     0   0   0     0   0   0    87 100 108    87 100 108    87 100 108    87 100 108    87 100 108    87 100 108    87 100 108    87 100 108    87 100 108    87 100 108    87 100 108    87 100 108    87 100 108    87 100 108    87 100 108    88 101 109    88 101 109    89 102 110    89 102 110    89 102 110    89 102 110    89 102 110    89 102 110    89 102 110    89 102 110    89 102 110    89 102 110    90 103 111    90 103 111    89 102 110    89 102 110    89 102 110    89 102 110    90 103 110    90 103 111    90 103 111    90 103 111    90 103 111    90 103 111    90 103 111    91 104 112    91 104 112    91 104 112    91 104 112    91 104 112    91 104 112    91 104 112    92 105 113    92 105 113    92 105 113    92 105 113    92 105 113    92 105 113    92 105 113    92 105 113    92 105 113    92 105 113    92 105 113    92 105 113     0   0   0  
   0   0   0     0   0   0     0   0   0     0   0   0     0   0   0    86  99 107    86  99 107    86  99 107    86  99 107    86  99 107    87 100 108    87 100 108    87 100 108    87 100 108    87 100 108    87 100 108    87 100 108    87 100 108    87 100 108    87 100 108    87 100 108    87 100 108    87 100 108    87 100 108    87 100 108    88 101 109    88 101 109    89 102 110    89 102 110    89 102 110    89 102 110    89 102 110    89 102 110    89 102 110    89 102 110    89 102 110    89 102 110    90 103 111    90 103 111    89 102 110    89 102 110    89 102 110    89 102 110    90 103 111    91 104 112    91 104 112    91 104 112    91 104 112    91 104 112    91 104 112    91 104 112    91 104 112    91 104 112    91 104 112    91 104 112    91 104 112    91 104 112    91 104 112    91 104 112    91 104 112    91 104 112    91 104 112    91 104 112    92 105 113    92 105 113    92 105 113    92 105 113    92 105 113    92 105 113    92 105 113  
   0   0   0     0   0   0     0   0   0     0   0   0     0   0   0     0   0   0     0   0   0     0   0   0    86  99 107    86  99 107    87 100 108    87 100 108    87 100 108    87 100 108    87 100 108    87 100 108    87 100 108    87 100 108    87 100 108    87 100 108    87 100 108    87 100 108    87 100 108    87 100 108    87 100 108    88 101 109    88 101 109    89 102 110    89 102 110    89 102 110    89 102 110    89 102 110    89 102 110    89 102 110    89 102 110    89 102 110    89 102 110    90 103 111    90 103 111    89 102 110    89 102 110    88 101 109    88 101 109    90 103 111    91 104 112    91 104 112    91 104 112    91 104 112    91 104 112    91 104 112    91 104 112    91 104 112    91 104 112    91 104 112    91 104 112    91 104 112    91 104 112    91 104 112    91 104 112    91 104 112    91 104 112    91 104 112    91 104 112    92 105 113    92 105 113    92 105 113    92 105 113     0   0   0     0   0   0     0   0   0  
   0   0   0     0   0   0     0   0   0     0   0   0     0   0   0     0   0   0     0   0   0     0   0   0     0   0   0     0   0   0    87 100 108    87 100 108    87 100 108    87 100 108    87 100 108    87 100 108    87 100 108    87 100 108    87 100 108    87 100 108    87 100 108    87 100 108    87 100 108    87 100 108    87 100 108    88 101 109    88 101 109    89 102 110    89 102 110    89 102 110    89 102 110    89 102 110    89 102 110    89 102 110    89 102 110    89 102 110    89 102 110    90 103 111    90 103 111    89 102 110    89 102 110    88 101 109    88 101 109    90 103 111    91 104 112    91 104 112    91 104 112    91 104 112    91 104 112    91 104 112    91 104 112    91 104 112    91 104 112    91 104 112    91 104 112    91 104 112    91 104 112    91 104 112    91 104 112    91 104 112    91 104 112    91 104 112    91 104 112     0   0   0     0   0   0     0   0   0     0   0   0     0   0   0     0   0   0     0   0   0  
   0   0   0     0   0   0     0   0   0     0   0   0     0   0   0     0   0   0     0   0   0     0   0   0     0   0   0     0   0   0     0   0   0    87 100 108    87 100 108    87 100 108    87 100 108    87 100 108    87 100 108    87 100 108    87 100 108    87 100 108    87 100 108    87 100 108    87 100 108    87 100 108    88 101 109    88 101 109    88 101 109    89 102 110    90 103 110    90 103 111    89 102 110    89 102 110    89 102 110    89 102 110    89 102 110    89 102 110    89 102 110    89 102 110    89 102 110    89 102 110    89 102 110    89 102 110    89 102 110    90 103 110    90 103 111    90 103 111    90 103 111    90 103 111    90 103 111    90 103 111    90 103 111    90 103 111    90 103 111    90 103 111    90 103 111    90 103 111    91 103 111    92 105 113    92 105 113     0   0   0     0   0   0     0   0   0     0   0   0     0   0   0     0   0   0     0   0   0     0   0   0     0   0   0     0   0   0     0   0   0  
   0   0   0     0   0   0     0   0   0     0   0   0     0   0   0     0   0   0     0   0   0     0   0   0     0   0   0     0   0   0     0   0   0     0   0   0    87 100 108    87 100 108    87 100 108    87 100 108    87 100 108    87 100 108    87 100 108    87 100 108    87 100 108    87 100 108    87 100 108    88 100 109    88 101 109    88 101 109    88 101 109    89 102 110    89 102 110    90 103 111    89 102 110    89 102 110    89 102 110    89 102 110    89 102 110    89 102 110    89 102 110    89 102 110    89 102 110    89 102 110    89 102 110    89 102 110    89 102 110    90 103 110    90 103 111    90 103 111    90 103 111    90 103 111    90 103 111    90 103 111    91 104 112    91 104 112    91 104 112    91 104 112    91 104 112     0   0   0     0   0   0     0   0   0     0   0   0     0   0   0     0   0   0     0   0   0     0   0   0     0   0   0     0   0   0     0   0   0     0   0   0     0   0   0     0   0   0     0   0   0  
   0   0   0     0   0   0     0   0   0     0   0   0     0   0   0     0   0   0     0   0   0     0   0   0     0   0   0    85  98 106    87 100 108    87 100 108    87 100 108    87 100 108    87 100 108    87 100 108    87 100 108    87 100 108    87 100 108    87 100 108    87 100 108    87 100 108    87 100 108    88 100 109    88 101 109    88 101 109    88 101 109    89 102 110    89 102 110    89 102 110    89 102 110    89 102 110    89 102 110    89 102 110    89 102 110    89 102 110    89 102 110    89 102 110    89 102 110    89 102 110    89 102 110    89 102 110    89 102 110    90 103 110    90 103 111    90 103 111    90 103 111    90 103 111    90 103 111    90 103 111    91 104 112    91 104 112     0   0   0     0   0   0     0   0   0     0   0   0     0   0   0     0   0   0     0   0   0     0   0   0     0   0   0     0   0   0     0   0   0     0   0   0     0   0   0     0   0   0     0   0   0     0   0   0     0   0   0     0   0   0  
   0   0   0     0   0   0     0   0   0     0   0   0    85  98 106    85  98 106    85  98 106    85  98 106    85  98 106    85  98 106    87 100 108    87 100 108    87 100 108    87 100 108    87 100 108    87 100 108    87 100 108    87 100 108    87 100 108    87 100 108    87 100 108    87 100 108    87 100 108    88 100 109    88 101 109    88 101 109    88 101 109    88 101 109    88 101 109    88 101 109    89 102 110    89 102 110    89 102 110    89 102 110    89 102 110    89 102 110    89 102 110    89 102 110    89 102 110    89 102 110    89 102 110    89 102 110    89 102 110    90 103 110    90 103 111    90 103 111    90 103 111    90 103 111    90 103 111    90 103 111    92 105 113     0   0   0     0   0   0     0   0   0     0   0   0     0   0   0     0   0   0     0   0   0     0   0   0     0   0   0     0   0   0     0   0   0     0   0   0     0   0   0     0   0   0     0   0   0     0   0   0     0   0   0     0   0   0     0   0   0  
   0   0   0    85  98 106    85  98 106    85  98 106    85  98 106    85  98 106    85  98 106    85  98 106    85  98 106    85  98 106    87 100 108    87 100 108    87 100 108    87 100 108    87 100 108    87 100 108    87 100 108    87 100 108    87 100 108    87 100 108    87 100 108    87 100 108    87 100 108    88 100 109    88 101 109    88 101 109    88 101 109    88 101 109    88 101 109    88 101 109    89 102 110    89 102 110    89 102 110    89 102 110    89 102 110    89 102 110    89 102 110    89 102 110    89 102 110    89 102 110    89 102 110    89 102 110    89 102 110    90 103 110    90 103 111    90 103 111    90 103 111    90 103 111    90 103 111    90 103 111    92 105 113     0   0   0     0   0   0     0   0   0     0   0   0     0   0   0     0   0   0     0   0   0     0   0   0     0   0   0     0   0   0     0   0   0     0   0   0     0   0   0     0   0   0     0   0   0     0   0   0     0   0   0     0   0   0     0   0   0  
  85  98 106    85  98 106    85  98 106    85  98 106    85  98 106    85  98 106    85  98 106    85  98 106    85  98 106    85  98 106    87 100 108    87 100 108    87 100 108    87 100 108    87 100 108    87 100 108    87 100 108    87 100 108    87 100 108    87 100 108    87 100 108    87 100 108    87 100 108    88 100 109    88 101 109    88 101 109    88 100 109    87 100 108    87 100 108    87 100 108    89 102 110    89 102 110    89 102 110    89 102 110    89 102 110    89 102 110    89 102 110    89 102 110    89 102 110    89 102 110    89 102 110    89 102 110    89 102 110    90 103 110    90 103 111    90 103 111    90 103 111    90 103 111    90 103 111    90 103 111     0   0   0     0   0   0     0   0   0     0   0   0     0   0   0     0   0   0     0   0   0     0   0   0     0   0   0     0   0   0     0   0   0     0   0   0     0   0   0     0   0   0     0   0   0     0   0   0     0   0   0     0   0   0     0   0   0     0   0   0  
  85  98 106    85  98 106    85  98 106    85  98 106    85  98 106    85  98 106    85  98 106    85  98 106    85  98 106    85  98 106    87 100 108    87 100 108    87 100 108    87 100 108    87 100 108    87 100 108    87 100 108    87 100 108    87 100 108    87 100 108    87 100 108    87 100 108    87 100 108    88 100 109    88 101 109    88 101 109    88 100 109    87 100 108    87 100 108    86  99 107    89 102 110    89 102 110    89 102 110    89 102 110    89 102 110    89 102 110    89 102 110    89 102 110    89 102 110    89 102 110    89 102 110    89 102 110    89 102 110    90 103 110    90 103 111    90 103 111    90 103 111    90 103 111    90 103 111    90 103 111     0   0   0     0   0   0     0   0   0     0   0   0     0   0   0     0   0   0     0   0   0     0   0   0     0   0   0     0   0   0     0   0   0     0   0   0     0   0   0     0   0   0     0   0   0     0   0   0     0   0   0     0   0   0     0   0   0     0   0   0  
  85  98 106    85  98 106    85  98 106    85  98 106    85  98 106    85  98 106    85  98 106    85  98 106    85  98 106    85  98 106    87 100 108    87 100 108    87 100 108    87 100 108    87 100 108    87 100 108    87 100 108    87 100 108    87 100 108    87 100 108    87 100 108     0   0   0     0   0   0    88 101 109    88 101 109    88 101 109    88 100 109    87 100 108    86  99 107    86  99 107    89 102 110    89 102 110    89 102 110    89 102 110    89 102 110    89 102 110    89 102 110    89 102 110    89 102 110    89 102 110    89 102 110    89 102 110    89 102 110    90 103 110    90 103 111    90 103 111    90 103 111    90 103 111    90 103 111    90 103 111     0   0   0     0   0   0     0   0   0     0   0   0     0   0   0     0   0   0     0   0   0     0   0   0     0   0   0     0   0   0     0   0   0     0   0   0     0   0   0     0   0   0     0   0   0     0   0   0     0   0   0     0   0   0     0   0   0     0   0   0  
  85  98 106    85  98 106    85  98 106    85  98 106    85  98 106    85  98 106    85  98 106    85  98 106    85  98 106    85  98 106    86  99 107    86  99 107    86  99 107    86  99 107    86  99 107    86  99 107    86  99 107    87 100 108    87 100 108     0   0   0     0   0   0     0   0   0     0   0   0    88 100 109    88 101 109    88 101 109    88 101 109    88 101 109    88 101 109    88 101 109    89 102 110    89 102 110    89 102 110    89 102 110    89 102 110    89 102 110    89 102 110    90 103 111    90 103 111    90 103 111    90 103 111    90 103 111    90 103 111    90 103 111    90 103 111    90 103 111    90 103 111    90 103 111    90 103 111    90 103 111     0   0   0     0   0   0     0   0   0     0   0   0     0   0   0     0   0   0     0   0   0     0   0   0     0   0   0     0   0   0     0   0   0     0   0   0     0   0   0     0   0   0     0   0   0     0   0   0     0   0   0     0   0   0     0   0   0     0   0   0  
  85  98 106    85  98 106    85  98 106    85  98 106    85  98 106    85  98 106    85  98 106    85  98 106    85  98 106    85  98 106    86  99 107    86  99 107    86  99 107    86  99 107    86  99 107    86  99 107    86  99 107    87 100 108    87 100 108     0   0   0     0   0   0     0   0   0     0   0   0     0   0   0    88 101 109    88 101 109    88 101 109    88 101 109    88 101 109    88 101 109    89 102 110    89 102 110    89 102 110    89 102 110    89 102 110    89 102 110    89 102 110    90 103 111    90 103 111    90 103 111    90 103 111    90 103 111    90 103 111    90 103 111    90 103 111    90 103 111    90 103 111    90 103 111    90 103 111    90 103 111     0   0   0     0   0   0     0   0   0     0   0   0     0   0   0     0   0   0     0   0   0     0   0   0     0   0   0     0   0   0     0   0   0     0   0   0     0   0   0     0   0   0     0   0   0     0   0   0     0   0   0     0   0   0     0   0   0     0   0   0  
  85  98 106    85  98 106    85  98 106    85  98 106    85  98 106    85  98 106    85  98 106    85  98 106    85  98 106    85  98 106    86  99 107    86  99 107    86  99 107    86  99 107    86  99 107    86  99 107    86  99 107    87 100 108     0   0   0     0   0   0     0   0   0     0   0   0     0   0   0     0   0   0    88 101 109    88 101 109    88 101 109    88 101 109    88 101 109    88 101 109    89 102 110    89 102 110    89 102 110    89 102 110    89 102 110    89 102 110    89 102 110    90 103 111    90 103 111    90 103 111    90 103 111    90 103 111    90 103 111    90 103 111    90 103 111    90 103 111    90 103 111    90 103 111    90 103 111    90 103 111     0   0   0     0   0   0     0   0   0     0   0   0     0   0   0     0   0   0     0   0   0     0   0   0     0   0   0     0   0   0     0   0   0     0   0   0     0   0   0     0   0   0     0   0   0     0   0   0     0   0   0     0   0   0     0   0   0     0   0   0  
  85  98 106    85  98 106    85  98 106    85  98 106    85  98 106    85  98 106    85  98 106    85  98 106    85  98 106    85  98 106    86  99 107    86  99 107    86  99 107    86  99 107    86  99 107    86  99 107    86  99 107    86  99 107     0   0   0     0   0   0     0   0   0     0   0   0     0   0   0     0   0   0    88 101 109    88 101 109    88 101 109    88 101 109    88 101 109    88 101 109    89 102 110    89 102 110    89 102 110    89 102 110    89 102 110    89 102 110    89 102 110    90 103 111    90 103 111    90 103 111    90 103 111    90 103 111    90 103 111    90 103 111    90 103 111    90 103 111    90 103 111    90 103 111    90 103 111    90 103 111     0   0   0     0   0   0     0   0   0     0   0   0     0   0   0     0   0   0     0   0   0     0   0   0     0   0   0     0   0   0     0   0   0     0   0   0     0   0   0     0   0   0     0   0   0     0   0   0     0   0   0     0   0   0     0   0   0     0   0   0  
  85  98 106    85  98 106    85  98 106    85  98 106    85  98 106    85  98 106    85  98 106    85  98 106    85  98 106    85  98 106    86  99 107    86  99 107    86  99 107    86  99 107    86  99 107    86  99 107    86  99 107    87 100 108     0   0   0     0   0   0     0   0   0     0   0   0     0   0   0     0   0   0    88 101 109    88 101 109    88 101 109    88 101 109    88 101 109    88 101 109    89 102 110    89 102 110    89 102 110    89 102 110    89 102 110    89 102 110    89 102 110    90 103 111    90 103 111    90 103 111    90 103 111    90 103 111    90 103 111    90 103 111    90 103 111    90 103 111    90 103 111    90 103 111    90 103 111    90 103 111     0   0   0     0   0   0     0   0   0     0   0   0     0   0   0     0   0   0     0   0   0     0   0   0     0   0   0     0   0   0     0   0   0     0   0   0     0   0   0     0   0   0     0   0   0     0   0   0     0   0   0     0   0   0     0   0   0     0   0   0  
  85  98 106    85  98 106    85  98 106    85  98 106    85  98 106    85  98 106    85  98 106    85  98 106    85  98 106    85  98 106    86  99 107    86  99 107    86  99 107    86  99 107    86  99 107    86  99 107    86  99 107     0   0   0     0   0   0     0   0   0     0   0   0     0   0   0     0   0   0     0   0   0     0   0   0    88 101 109    88 101 109    88 101 109    88 101 109    88 101 109    89 102 110    89 102 110    89 102 110    89 102 110    89 102 110    89 102 110    89 102 110    90 103 111    90 103 111    90 103 111    90 103 111    90 103 111    90 103 111    90 103 111    90 103 111    90 103 111    90 103 111    90 103 111    90 103 111    90 103 111     0   0   0     0   0   0     0   0   0     0   0   0     0   0   0     0   0   0     0   0   0     0   0   0     0   0   0     0   0   0     0   0   0     0   0   0     0   0   0     0   0   0     0   0   0     0   0   0     0   0   0     0   0   0     0   0   0     0   0   0  
  85  98 106    85  98 106    85  98 106    85  98 106    85  98 106    85  98 106    85  98 106    85  98 106    85  98 106    85  98 106    86  99 107    86  99 107    86  99 107    86  99 107    86  99 107    86  99 107    86 100 107     0   0   0     0   0   0     0   0   0     0   0   0     0   0   0     0   0   0     0   0   0     0   0   0    88 101 109    88 101 109    88 101 109    88 101 109    88 101 109    89 102 110    89 102 110    89 102 110    89 102 110    89 102 110    89 102 110    89 102 110    90 103 111    90 103 111    90 103 111    90 103 111    90 103 111    90 103 111    90 103 111    90 103 111    90 103 111    90 103 111    90 103 111    90 103 111    90 103 111     0   0   0     0   0   0     0   0   0     0   0   0     0   0   0     0   0   0     0   0   0     0   0   0     0   0   0     0   0   0     0   0   0     0   0   0     0   0   0     0   0   0     0   0   0     0   0   0     0   0   0     0   0   0     0   0   0     0   0   0  
  85  98 106    85  98 106    85  98 106    85  98 106    85  98 106    85  98 106    85  98 106    85  98 106    85  98 106    85  98 106    86  99 107    86  99 107    86  99 107    86  99 107    86  99 107    86  99 107    87 100 108     0   0   0     0   0   0     0   0   0     0   0   0     0   0   0     0   0   0     0   0   0     0   0   0    88 101 109    88 101 109    88 101 109    88 101 109    88 101 109    89 102 110    89 102 110    89 102 110    89 102 110    89 102 110    89 102 110    89 102 110    90 103 111    90 103 111    90 103 111    90 103 111    90 103 111    90 103 111    90 103 111    90 103 111    90 103 111    90 103 111    90 103 111    90 103 111    90 103 111     0   0   0     0   0   0     0   0   0     0   0   0     0   0   0     0   0   0     0   0   0     0   0   0     0   0   0     0   0   0     0   0   0     0   0   0     0   0   0     0   0   0     0   0   0     0   0   0     0   0   0     0   0   0     0   0   0     0   0   0  
  85  98 106    85  98 106    85  98 106    85  98 106    85  98 106    85  98 106    85  98 106    85  98 106    85  98 106    85  98 106    84  97 105    84  97 105    85  98 106    85  98 106    86  99 107    86  99 107    86 100 107     0   0   0     0   0   0     0   0   0     0   0   0     0   0   0     0   0   0     0   0   0     0   0   0    88 101 109    88 101 109    88 101 109    88 101 109    88 101 109    88 101 109    88 101 109    88 101 109    88 101 109    88 101 109    88 101 109    88 101 109    89 102 110    89 102 110    89 102 110    89 102 110    89 102 110    89 102 110    89 102 110    90 103 111    90 103 111    90 103 111    91 104 112    91 104 112    91 104 112     0   0   0     0   0   0     0   0   0     0   0   0     0   0   0     0   0   0     0   0   0     0   0   0     0   0   0     0   0   0     0   0   0     0   0   0     0   0   0     0   0   0     0   0   0     0   0   0     0   0   0     0   0   0     0   0   0     0   0   0  
  85  98 106    85  98 106    85  98 106    85  98 106    85  98 106    85  98 106    85  98 106    85  98 106    85  98 106    85  98 106    85  98 106    85  98 106    85  98 106    85  99 107    86  99 107    86  99 107     0   0   0     0   0   0     0   0   0     0   0   0     0   0   0     0   0   0     0   0   0     0   0   0     0   0   0     0   0   0    88 101 109    88 101 109    88 101 109    88 101 109    88 101 109    88 101 109    88 101 109    88 101 109    88 101 109    88 101 109    88 101 109    89 102 110    89 102 110    89 102 110    89 102 110    89 102 110    89 102 110    89 102 110    90 103 111    90 103 111    90 103 111    91 104 112    91 104 112    91 104 112     0   0   0     0   0   0     0   0   0     0   0   0     0   0   0     0   0   0     0   0   0     0   0   0     0   0   0     0   0   0     0   0   0     0   0   0     0   0   0     0   0   0     0   0   0     0   0   0     0   0   0     0   0   0     0   0   0     0   0   0  
  85  98 106    85  98 106    85  98 106    85  98 106    85  98 106    85  98 106    85  98 106    85  98 106    85  98 106    85  98 106    85  98 106    85  98 106    86  99 107    86  99 107    87 100 108    87 100 108     0   0   0     0   0   0     0   0   0     0   0   0     0   0   0     0   0   0     0   0   0     0   0   0     0   0   0     0   0   0    88 101 109    88 101 109    88 101 109    88 101 109    88 101 109    88 101 109    88 101 109    88 101 109    88 101 109    88 101 109    88 101 109    89 102 110    89 102 110    89 102 110    89 102 110    89 102 110    89 102 110    89 102 110    90 103 111    90 103 111    90 103 111    91 104 112    91 104 112    91 104 112     0   0   0     0   0   0     0   0   0     0   0   0     0   0   0     0   0   0     0   0   0     0   0   0     0   0   0     0   0   0     0   0   0     0   0   0     0   0   0     0   0   0     0   0   0     0   0   0     0   0   0     0   0   0     0   0   0     0   0   0  
  85  98 106    85  98 106    85  98 106    85  98 106    85  98 106    85  98 106    85  98 106    85  98 106    85  98 106    85  98 106    86  99 107    86  99 107    86  99 107    87 100 108    87 100 108     0   0   0     0   0   0     0   0   0     0   0   0     0   0   0     0   0   0     0   0   0     0   0   0     0   0   0     0   0   0     0   0   0    87 100 108    87 100 108    87 100 108    87 100 108    88 101 109    88 101 109    88 101 109    88 101 109    88 101 109    88 101 109    88 101 109    89 102 110    89 102 110    89 102 110    89 102 110    89 102 110    89 102 110    89 102 110    90 103 111    90 103 111    90 103 111    91 104 112    91 104 112    91 104 112     0   0   0     0   0   0     0   0   0     0   0   0     0   0   0     0   0   0     0   0   0     0   0   0     0   0   0     0   0   0     0   0   0     0   0   0     0   0   0     0   0   0     0   0   0     0   0   0     0   0   0     0   0   0     0   0   0     0   0   0  
  85  98 106    85  98 106    85  98 106    85  98 106    85  98 106    85  98 106    85  98 106    85  98 106    85  98 106    85  98 106    86  99 107    86  99 107    86  99 107    87 100 108    87 100 108     0   0   0     0   0   0     0   0   0     0   0   0     0   0   0     0   0   0     0   0   0     0   0   0     0   0   0     0   0   0     0   0   0     0   0   0    87 100 108    87 100 108    87 100 108    88 101 109    88 101 109    88 101 109    88 101 109    88 101 109    88 101 109    88 101 109    89 102 110    89 102 110    89 102 110    89 102 110    89 102 110    89 102 110    89 102 110    90 103 111    90 103 111    90 103 111    91 104 112    91 104 112    91 104 112     0   0   0     0   0   0     0   0   0     0   0   0     0   0   0     0   0   0     0   0   0     0   0   0     0   0   0     0   0   0     0   0   0     0   0   0     0   0   0     0   0   0     0   0   0     0   0   0     0   0   0     0   0   0     0   0   0     0   0   0  
  85  98 106    85  98 106    85  98 106    85  98 106    85  98 106    85  98 106    85  98 106    85  98 106    85  98 106    85  98 106    85  98 106    85  98 106    86  99 107    86  99 107     0   0   0     0   0   0     0   0   0     0   0   0     0   0   0     0   0   0     0   0   0     0   0   0     0   0   0     0   0   0     0   0   0     0   0   0     0   0   0    87 100 108    87 100 108    87 100 108    88 101 109    88 101 109    88 101 109    88 101 109    88 101 109    88 101 109    88 101 109    89 102 110    89 102 110    89 102 110    89 102 110    89 102 110    89 102 110    89 102 110    90 103 111    90 103 111    90 103 111    91 104 112    91 104 112    91 104 112     0   0   0     0   0   0     0   0   0     0   0   0     0   0   0     0   0   0     0   0   0     0   0   0     0   0   0     0   0   0     0   0   0     0   0   0     0   0   0     0   0   0     0   0   0     0   0   0     0   0   0     0   0   0     0   0   0     0   0   0  
  85  98 106    85  98 106    85  98 106    85  98 106    85  98 106    85  98 106    85  98 106    85  98 106    85  98 106    85  98 106    85  98 106    85  98 106    85  98 106    85  99 107     0   0   0     0   0   0     0   0   0     0   0   0     0   0   0     0   0   0     0   0   0     0   0   0     0   0   0     0   0   0     0   0   0     0   0   0     0   0   0     0   0   0    87 100 108    87 100 108    88 101 109    88 101 109    88 101 109    88 101 109    88 101 109    88 101 109    88 101 109    89 102 110    89 102 110    89 102 110    89 102 110    89 102 110    89 102 110    89 102 110    90 103 111    90 103 111    90 103 111    91 104 112    91 104 112    91 104 112     0   0   0     0   0   0     0   0   0     0   0   0     0   0   0     0   0   0     0   0   0     0   0   0     0   0   0     0   0   0     0   0   0     0   0   0     0   0   0     0   0   0     0   0   0     0   0   0     0   0   0     0   0   0     0   0   0     0   0   0  
  85  98 106    85  98 106    85  98 106    85  98 106    85  98 106    85  98 106    85  98 106    85  98 106    85  98 106    85  98 106    84  97 105    84  97 105    85  98 106     0   0   0     0   0   0     0   0   0     0   0   0     0   0   0     0   0   0     0   0   0     0   0   0     0   0   0     0   0   0     0   0   0     0   0   0     0   0   0     0   0   0     0   0   0    87 100 108    87 100 108    88 101 109    88 101 109    88 101 109    88 101 109    88 101 109    88 101 109    88 101 109    89 102 110    89 102 110    89 102 110    89 102 110    89 102 110    89 102 110    89 102 110    90 103 111    90 103 111    90 103 111    91 104 112    91 104 112    91 104 112     0   0   0     0   0   0     0   0   0     0   0   0     0   0   0     0   0   0     0   0   0     0   0   0     0   0   0     0   0   0     0   0   0     0   0   0     0   0   0     0   0   0     0   0   0     0   0   0     0   0   0     0   0   0     0   0   0     0   0   0  
