P3
50 50
255
  86  63  55   116  93  86   130 110 103   113  93  87    92  72  66    80  60  53    69  53  47    72  61  55    79  70  65    77  68  63    66  56  54    59  49  47    60  52  49    51  43  41    46  38  36    45  37  35    46  39  37    56  51  48    66  60  59    70  64  64    61  56  53    67  62  59     0   0   0     0   0   0     0   0   0     0   0   0     0   0   0     0   0   0     0   0   0     0   0   0     0   0   0     0   0   0     0   0   0     0   0   0     0   0   0     0   0   0     0   0   0    45  40  37    44  39  36    46  41  38    53  48  45    60  55  52    59  54  51    62  57  54    54  49  46    49  44  41    65  60  56    80  75  72    81  76  72    71  66  63  
 100  77  69   129 107  99   142 122 115   119  99  92   107  87  80   111  91  84    90  75  68    73  63  58    80  71  66    69  60  55    52  42  40    40  30  28    42  34  31    52  44  42    53  45  43    48  40  38    47  40  38    58  53  50    68  62  62    69  63  63    63  58  55    59  54  51     0   0   0     0   0   0     0   0   0     0   0   0     0   0   0     0   0   0     0   0   0     0   0   0     0   0   0     0   0   0     0   0   0     0   0   0     0   0   0     0   0   0    56  51  48    62  57  54    66  61  58    77  72  69    90  85  82    83  78  75    78  73  70    71  66  63    61  56  53    58  53  50    60  55  52    64  59  56    63  58  55    46  41  38  
 152 127 120   127 103  96   101  78  72    99  79  72   121 101  94   134 114 107   114  97  91    72  61  55    67  58  53    50  41  36    42  34  30    38  30  27    42  34  31    45  40  37    48  43  40    44  39  36    41  36  33    48  43  40    55  50  49    56  50  50    70  65  62    64  59  56    58  53  50     0   0   0     0   0   0     0   0   0     0   0   0     0   0   0     0   0   0     0   0   0     0   0   0     0   0   0     0   0   0     0   0   0     0   0   0     0   0   0    64  59  56    68  63  60    70  65  62    83  78  75    90  85  82    75  70  67    74  69  66    65  60  57    58  53  50    61  56  53    55  50  47    53  48  45    50  45  42    40  35  32  
  87  62  55    89  66  58    94  71  65   122 101  94   125 105  98    98  79  72    95  80  73    97  87  81    75  66  61    48  39  34    43  35  32    41  33  30    41  33  30    47  41  38    54  49  46    55  50  47    48  43  40    50  45  42    56  50  49    57  51  51    46  41  38    50  45  41    49  44  41     0   0   0     0   0   0     0   0   0     0   0   0     0   0   0     0   0   0     0   0   0     0   0   0     0   0   0     0   0   0     0   0   0     0   0   0    59  54  51    70  65  62    70  65  62    65  60  57    76  71  68    69  64  61    62  57  54    81  76  73    80  75  72    73  68  65    70  65  62    56  51  48    54  49  46    49  44  41    51  46  43  
 119  95  87    94  72  64    93  71  65    95  75  67    84  64  57    83  65  58    84  69  63    66  57  51    50  43  37    44  37  31    43  34  32    40  32  29    44  36  33    54  48  45    54  49  46    53  48  45    45  40  38    42  38  35    47  43  41    38  34  33    37  32  29    41  36  33    42  37  34    46  41  38     0   0   0     0   0   0     0   0   0     0   0   0     0   0   0     0   0   0     0   0   0     0   0   0     0   0   0     0   0   0     0   0   0    59  54  51    67  62  59    63  58  55    75  70  67    86  81  78    64  59  56    65  60  57    77  72  69    80  75  72    85  80  77    75  70  67    56  51  49    77  72  69    68  63  60    59  54  51  
 115  92  84   129 109 101   127 107 100   108  88  81   103  84  77   104  85  78    84  71  64    55  47  40    47  40  34    49  42  36    51  43  39    48  40  37    49  41  38    52  46  43    48  43  40    52  47  44    53  49  46    45  41  38    40  36  34    33  30  28    38  33  30    42  37  35    45  40  37    47  42  39     0   0   0     0   0   0     0   0   0     0   0   0     0   0   0     0   0   0     0   0   0     0   0   0     0   0   0     0   0   0    72  67  64    69  64  61    73  68  65    75  70  67    82  77  74    75  70  67    65  60  57    71  66  63    77  72  69    76  71  68    89  84  81    81  76  74    67  62  59    98  93  90    83  78  75    75  70  66  
 110  87  79   115  95  87   112  93  86   112  93  86   125 108 100   104  87  79    68  55  47    61  53  46    52  45  39    51  44  38    47  42  38    42  37  33    41  36  32    47  42  38    42  37  34    47  43  40    55  51  48    46  42  39    38  34  32    37  33  32    41  36  33    44  39  36    46  41  38    48  43  40     0   0   0     0   0   0     0   0   0     0   0   0     0   0   0     0   0   0     0   0   0     0   0   0     0   0   0     0   0   0    72  67  64    63  58  55    65  60  57    76  71  68    84  79  76    63  58  55    69  64  61    78  73  70    80  75  72    77  72  69    98  93  90    89  84  81    63  58  55    74  69  66    57  52  49    64  59  56  
 134 115 106   131 113 104   133 115 107   125 108 100   108  94  85    88  74  65    71  60  52    65  57  51    53  46  40    45  38  32    40  35  31    38  33  29    41  36  32    45  40  37    44  39  36    45  41  38    48  44  41    45  41  38    43  39  37    45  41  40    45  40  37    45  40  38    46  41  38    47  42  39    44  39  36     0   0   0     0   0   0     0   0   0     0   0   0     0   0   0     0   0   0     0   0   0     0   0   0    61  56  53    58  53  50    49  44  41    59  54  51    73  68  65    82  77  74    66  61  58    74  69  66    80  75  72    83  78  75    84  79  76   102  97  94    91  86  83    64  59  56    68  63  60    55  50  47    65  60  57  
 116  96  87   111  93  84   112  97  88    99  85  76    77  63  54    70  56  47    66  55  47    53  45  38    44  37  31    39  32  26    38  33  29    43  38  34    50  45  41    46  42  39    52  48  45    53  49  46    44  41  38    45  44  40    46  45  43    43  40  38    49  44  42    46  41  38    44  39  36    47  42  39    44  39  36     0   0   0     0   0   0     0   0   0     0   0   0     0   0   0     0   0   0     0   0   0     0   0   0    55  50  47    51  46  43    52  47  44    73  68  65    78  73  70    80  75  72    75  70  67    84  79  76    74  69  66    76  71  68    82  77  74    97  92  89    90  85  82    71  66  63    85  80  77    83  78  75    84  79  76  
 120 102  92   117 101  91   103  89  80    77  64  56    64  51  42    61  48  39    53  43  35    49  41  34    44  37  31    40  33  27    38  33  29    41  36  32    44  39  35    45  40  37    60  56  53    61  56  53    47  44  40    47  46  42    45  44  42    36  35  33    52  47  44    46  41  38    46  41  38    51  46  43    48  43  40     0   0   0     0   0   0     0   0   0     0   0   0     0   0   0     0   0   0     0   0   0     0   0   0    48  43  40    49  44  41    58  53  50    82  77  75    78  73  70    75  70  67    77  72  69    90  85  82    71  66  63    70  65  62    78  73  69    94  89  86    89  84  81    68  63  60    81  76  73    88  83  80    78  73  70  
  88  70  60   106  90  80    96  82  73    63  50  41    55  44  35    69  59  49    65  57  48    53  46  39    45  40  34    38  33  26    34  29  25    37  32  28    41  36  32    48  43  40    61  57  54    58  54  51    48  45  42    47  46  42    44  43  41    45  41  40    52  47  44    46  41  38    50  45  42    60  55  53    55  50  47     0   0   0     0   0   0     0   0   0     0   0   0     0   0   0     0   0   0     0   0   0     0   0   0    44  39  36    48  43  40    57  52  49    73  68  66    74  69  66    83  78  75    91  86  83    87  82  79    77  72  69    78  73  70    86  81  78   105 100  97    93  88  85    62  57  54    76  71  68    76  71  68    66  61  58  
  95  77  67    83  67  58    71  57  48    66  53  44    73  60  51    67  57  47    52  43  34    48  40  34    39  32  26    29  24  18    31  26  22    44  39  34    56  51  47    56  52  48    58  54  51    49  45  42    44  41  37    44  43  39    45  44  41    58  57  55    50  46  43    47  42  39    55  50  47    68  63  60    61  56  53    44  39  35     0   0   0     0   0   0     0   0   0     0   0   0     0   0   0     0   0   0    48  43  40    46  41  38    53  48  45    55  50  46    62  57  54    74  69  66   103  98  95   116 111 108    80  75  72    85  80  77    92  87  84   101  96  92   122 117 114    97  92  89    54  49  46    68  63  60    63  58  55    71  66  63  
 112  92  83    87  69  59    81  63  53    93  76  66    89  72  62    68  51  41    57  44  36    51  41  36    46  37  32    43  36  30    45  37  34    48  41  38    52  47  43    51  47  44    45  41  38    41  40  36    45  44  40    47  46  42    45  45  42    49  48  46    49  45  44    54  50  49    62  58  57    60  56  55    55  51  50    40  37  35     0   0   0     0   0   0     0   0   0     0   0   0     0   0   0     0   0   0    40  36  35    41  35  35    52  46  46    53  47  47    57  51  51    81  75  75    95  89  89    90  85  85    68  62  62    86  80  80   112 106 106   119 113 113   104  97  97    76  70  70    59  54  51    69  64  60    65  60  56    67  62  59  
   0   0   0     0   0   0    91  71  62    95  76  66    94  76  66    87  69  59    72  57  50    50  40  35    53  44  39    56  47  42    52  44  41    43  36  33    34  29  25    36  32  28    38  34  31    37  36  32    38  37  33    42  41  37    47  46  44    51  51  49    52  51  49    54  50  49    59  55  54    59  55  54    56  52  51    41  37  36     0   0   0     0   0   0     0   0   0     0   0   0     0   0   0     0   0   0    47  43  42    49  44  43    55  49  49    54  48  48    55  49  49    73  67  67    83  77  77    79  73  73   100  94  94   100  94  94    97  91  91    79  73  73    61  55  55    54  48  47    52  47  43    63  58  54    70  65  62    75  70  67  
   0   0   0     0   0   0     0   0   0     0   0   0    93  74  64    83  65  55    65  50  42    58  48  42    47  38  33    40  31  26    38  30  27    38  31  28    42  37  33    35  31  28    38  34  31    39  38  34    36  35  31    41  40  36    50  49  47    54  54  52    57  53  52    54  50  49    55  51  50    56  52  51    56  52  51    41  37  36     0   0   0     0   0   0     0   0   0     0   0   0     0   0   0    46  42  41    49  45  44    55  49  49    59  54  54    54  49  49    53  47  47    61  55  55    65  59  59    66  60  60    69  63  63    68  62  62    67  61  61    58  53  53    56  50  50    64  58  58    63  57  56    65  60  57    79  74  71    80  74  74  
   0   0   0     0   0   0     0   0   0     0   0   0     0   0   0     0   0   0    66  51  43    62  52  46    52  43  38    47  38  33    42  34  31    37  30  26    35  30  26    40  36  33    48  44  41    45  44  40    39  38  34    46  45  41    54  54  52    53  53  51    54  53  51    52  48  47    52  48  47    51  47  46    52  48  47    40  36  35    47  43  42     0   0   0     0   0   0     0   0   0     0   0   0    59  55  54    61  57  56    60  54  54    61  55  55    55  49  49    50  44  44    49  43  43    51  45  45    59  53  53    48  42  42    44  38  38    48  42  42    54  48  48    60  54  54    64  57  57    58  52  51    65  60  56    80  75  71    73  67  67  
   0   0   0     0   0   0     0   0   0     0   0   0     0   0   0     0   0   0     0   0   0     0   0   0    51  42  37    50  41  36    51  43  40    50  43  40    52  47  43    55  50  47    56  52  49    47  46  42    42  41  37    51  50  46    57  56  54    51  50  49    52  48  47    51  47  46    51  47  46    48  44  43    48  44  43    41  37  36    51  47  46     0   0   0     0   0   0    58  54  53    57  54  52    54  50  49    56  52  51    55  50  50    59  52  52    55  49  49    47  41  41    44  38  38    49  43  43    62  56  56    56  50  50    48  42  42    44  38  38    42  36  36    45  39  39    51  45  45    48  42  41    58  53  50     0   0   0     0   0   0  
   0   0   0     0   0   0     0   0   0     0   0   0     0   0   0     0   0   0     0   0   0     0   0   0     0   0   0     0   0   0     0   0   0    56  49  46    54  49  45    55  50  47    52  48  45    43  42  38    42  41  37    50  49  45    52  52  50    46  46  45    46  45  43    49  45  44    53  49  48    49  45  44    49  45  44    43  39  38    56  52  51    57  53  52    50  46  45    49  45  44    40  36  35    36  32  31    40  36  35    50  44  44    57  51  51    52  46  46    46  40  40    52  46  46    62  55  55    70  64  64    50  44  44    56  50  50    59  53  53    46  40  40    37  31  31    43  37  37     0   0   0     0   0   0     0   0   0     0   0   0  
   0   0   0     0   0   0     0   0   0     0   0   0     0   0   0     0   0   0     0   0   0     0   0   0     0   0   0     0   0   0     0   0   0     0   0   0     0   0   0     0   0   0    47  43  40    40  39  35    41  40  36    44  43  39    43  43  40    43  42  40    47  43  42    47  43  42    52  48  47    54  50  49    56  52  51    49  45  44    60  56  55    64  60  59    57  53  52    56  52  51    46  42  41    41  37  36    46  42  41    54  49  48    59  53  53    48  42  42    47  41  41    67  61  61    79  73  73    78  72  72    53  47  47    70  64  64    81  75  75    66  61  61    46  41  41     0   0   0     0   0   0     0   0   0     0   0   0     0   0   0  
   0   0   0     0   0   0     0   0   0     0   0   0     0   0   0     0   0   0     0   0   0     0   0   0     0   0   0     0   0   0     0   0   0     0   0   0     0   0   0     0   0   0     0   0   0     0   0   0    42  40  37    39  38  34    36  36  33    39  39  37    46  44  43    47  43  42    52  48  47    58  53  53    63  59  58    52  48  47    56  52  51    51  47  46    51  47  46    57  53  52    50  46  45    45  41  40    48  44  43    58  53  52    60  54  54    44  39  39    48  42  42    79  73  73    93  87  87    82  76  76    57  51  51    68  62  62    82  76  76     0   0   0     0   0   0     0   0   0     0   0   0     0   0   0     0   0   0     0   0   0  
   0   0   0     0   0   0     0   0   0     0   0   0     0   0   0     0   0   0     0   0   0     0   0   0     0   0   0     0   0   0     0   0   0     0   0   0     0   0   0     0   0   0     0   0   0    39  38  34    33  32  28    37  36  32    38  38  35    34  33  31    41  37  36    47  43  42    51  47  46    53  49  48    57  54  52    57  53  52    51  47  46    45  41  40    44  40  39    40  36  35    42  38  37    49  45  44    66  62  61    77  72  72    61  55  55    41  35  35    62  56  56    79  73  73    72  66  66    83  76  76    70  64  64     0   0   0     0   0   0     0   0   0     0   0   0     0   0   0     0   0   0     0   0   0     0   0   0     0   0   0  
   0   0   0     0   0   0     0   0   0     0   0   0     0   0   0     0   0   0     0   0   0     0   0   0     0   0   0     0   0   0     0   0   0     0   0   0     0   0   0     0   0   0    54  50  47    42  41  37    40  39  35    44  43  39    43  43  40    41  41  39    43  41  39    49  45  44    51  47  46    51  47  46    50  46  45    47  42  42    42  38  37    43  39  38    45  40  40    46  42  41    49  45  44    53  49  48    65  61  60    68  62  62    56  50  50    51  45  45    81  75  75    96  90  90    74  68  68    65  59  59     0   0   0     0   0   0     0   0   0     0   0   0     0   0   0     0   0   0     0   0   0     0   0   0     0   0   0     0   0   0  
   0   0   0     0   0   0     0   0   0     0   0   0     0   0   0     0   0   0     0   0   0     0   0   0     0   0   0     0   0   0     0   0   0     0   0   0     0   0   0    66  62  59    51  47  44    40  39  35    44  43  39    48  47  43    46  46  44    48  47  45    44  40  39    47  43  42    50  46  45    48  45  43    45  41  40    39  36  34    38  34  33    41  37  36    45  41  40    50  46  45    53  49  48    51  47  46    54  50  49    48  43  42    43  37  37    50  44  44    81  75  75    98  92  92    88  82  82    89  83  83   113 107 107     0   0   0     0   0   0     0   0   0     0   0   0     0   0   0     0   0   0     0   0   0     0   0   0     0   0   0  
   0   0   0     0   0   0     0   0   0     0   0   0     0   0   0     0   0   0     0   0   0     0   0   0     0   0   0     0   0   0     0   0   0    54  47  43    63  58  54    60  56  52    44  40  37    35  34  30    43  42  38    46  45  41    43  43  40    46  46  44    39  38  36    43  39  38    48  44  43    50  46  45    45  41  40    42  38  37    42  38  37    43  39  38    45  41  40    50  46  45    49  45  44    45  41  40    42  38  37    40  35  35    49  43  43    63  57  57    81  75  75    92  86  86   100  94  94   119 113 113    94  88  88   107 101 101     0   0   0     0   0   0     0   0   0     0   0   0     0   0   0     0   0   0     0   0   0     0   0   0  
   0   0   0     0   0   0     0   0   0     0   0   0     0   0   0     0   0   0     0   0   0     0   0   0     0   0   0    47  38  33    43  35  32    43  36  33    50  45  41    52  47  44    40  36  33    34  33  29    41  40  36    44  43  39    41  40  38    45  44  42    42  38  37    41  37  36    49  45  44    54  50  49    48  45  43    46  42  41    49  45  44    45  41  40    45  41  40    50  46  45    48  44  43    45  40  40    41  37  36    39  33  33    51  45  45    68  62  62    76  71  71    77  71  71    77  71  71    85  79  79   101  96  96   132 126 126   120 114 114     0   0   0     0   0   0     0   0   0     0   0   0     0   0   0     0   0   0     0   0   0  
   0   0   0     0   0   0     0   0   0     0   0   0     0   0   0     0   0   0     0   0   0    56  46  40    54  45  40    53  44  39    50  42  39    52  45  42    60  55  51    52  48  45    43  39  36    39  38  34    42  41  37    43  42  38    41  40  38    44  44  42    44  43  41    43  39  38    50  46  45    55  52  50    49  45  44    48  43  43    52  48  47    46  42  41    45  41  40    52  48  47    49  45  44    51  47  46    51  47  46    44  39  39    47  40  40    54  48  48    62  56  56    69  63  63    69  63  63    63  57  57   109 103 103   135 129 129    93  87  87   103  97  97   117 112 112     0   0   0     0   0   0     0   0   0     0   0   0     0   0   0  
   0   0   0     0   0   0     0   0   0    80  62  52    87  69  59    85  67  57    81  66  58    59  49  44    59  50  45    63  54  49    63  55  52    62  55  52    63  58  54    51  47  44    47  43  40    45  44  40    42  41  37    41  40  36    42  41  39    44  44  42    47  43  42    41  37  36    49  45  44    55  51  50    49  45  44    49  45  44    53  49  48    45  41  40    47  43  42    54  50  49    49  45  44    53  49  48    56  52  51    54  48  48    52  46  46    52  46  46    61  55  55    80  74  74    91  85  85    85  80  80    91  85  85   122 116 116    99  93  93   104  98  98   106 100 100   108 102 102     0   0   0     0   0   0     0   0   0     0   0   0  
  93  70  62    93  70  62    89  68  59   103  83  74    86  68  58    87  69  60    82  66  59    75  63  58    72  61  57    74  64  59    71  62  57    56  49  46    42  37  33    41  38  33    48  44  41    47  46  42    41  40  36    39  38  34    40  41  36    43  42  39    43  39  38    37  33  32    46  42  41    54  50  49    49  45  44    50  46  45    56  52  51    44  40  39    47  43  42    55  51  50    47  43  42    50  46  45    53  49  48    45  40  39    47  41  41    54  48  48    60  54  54    74  68  68    86  80  80    81  75  75    98  92  92    95  89  89    96  90  90    98  92  92    98  92  92   115 109 109   109 103 104     0   0   0     0   0   0     0   0   0  
 137 113 103   135 111 101   131 108  97   111  90  79   100  79  68   102  82  72    99  81  72    95  79  73    75  60  55    65  51  45    53  42  36    39  31  25    36  30  24    41  37  30    45  44  38    49  48  43    45  44  39    40  39  34    37  36  31    38  37  33    44  41  39    41  37  36    39  35  34    41  37  36    46  42  41    53  49  48    56  52  51    48  44  43    42  38  37    62  58  57    71  68  66    55  51  50    47  43  42    54  49  49    53  47  47    52  46  46    57  51  51    59  53  53    61  55  55    68  62  62    73  67  67    66  60  60    76  70  70    80  74  74    72  66  66    67  61  61     0   0   0     0   0   0     0   0   0     0   0   0  
 133 106  97   128 104  94   113  90  79   100  78  67    90  70  59    90  70  59    99  80  71    90  72  67    71  55  51    62  49  43    54  43  37    42  34  27    40  35  28    41  40  33    44  44  36    45  44  39    43  42  37    40  39  34    39  38  33    41  40  36    42  38  37    40  36  35    40  36  35    39  35  34    40  36  35    48  44  43    54  50  49    49  45  44    49  45  44    59  55  54    59  55  54    48  44  43    50  46  45    63  57  57    62  56  56    57  51  51    55  49  49    55  49  49    52  46  46    51  45  45    45  39  39    48  42  42    62  56  56    72  66  66    75  69  69     0   0   0     0   0   0     0   0   0     0   0   0     0   0   0  
 128 104  94    85  61  51    75  52  42    71  49  38    84  64  53   106  86  75    94  76  67    81  62  57    68  53  48    65  52  46    58  47  43    47  39  33    43  37  31    43  40  34    42  41  36    41  40  35    41  40  35    42  41  36    43  42  37    44  43  39    46  42  41    45  41  40    47  43  42    45  41  40    40  36  35    49  45  44    57  54  52    49  45  44    48  44  43    51  47  46    50  46  45    50  46  45    56  52  51    62  56  56    59  53  53    50  44  44    44  38  38    47  41  41    48  42  42    43  37  37    47  41  41    51  45  45    51  45  45    52  46  46    65  58  58     0   0   0     0   0   0     0   0   0     0   0   0     0   0   0  
  91  67  57    88  65  55    91  69  58   117  97  86   117  99  87    89  72  60    90  73  64    89  73  67    75  60  55    65  52  46    54  43  39    41  34  28    37  33  26    38  37  31    39  38  33    39  38  33    41  41  36    44  43  38    44  43  39    43  42  38    44  39  39    41  36  36    45  41  40    46  42  41    40  36  35    48  44  43    57  53  52    49  45  44    43  39  38    43  39  38    53  49  48    61  57  56    62  58  57    67  61  61    69  63  63    58  53  53    48  42  42    59  53  53    73  67  67    74  68  68    79  73  73    93  87  87    93  87  87    78  72  72     0   0   0     0   0   0     0   0   0     0   0   0     0   0   0     0   0   0  
 110  86  76    98  75  65   114  92  81   100  80  69    91  73  61   102  84  72    79  62  53    57  41  35    67  52  49    81  67  64    77  67  62    56  50  44    38  34  28    34  32  26    36  35  30    39  38  33    44  43  38    46  45  41    43  42  38    40  39  35    34  30  29    30  26  25    35  31  30    40  36  35    38  34  33    43  39  38    50  46  45    50  46  45    47  43  42    47  43  42    55  51  50    64  60  59    65  61  60    72  66  66    76  70  70    61  55  55    46  40  40    58  52  52    81  75  75    90  84  84    78  72  72    86  80  80    93  87  87     0   0   0     0   0   0     0   0   0     0   0   0     0   0   0     0   0   0     0   0   0  
 105  82  72    96  74  63    86  65  54   102  84  72   105  89  76    81  65  52    76  62  52    84  70  64    73  59  55    60  49  45    48  39  34    37  30  24    32  28  21    31  29  24    34  34  29    40  39  34    44  43  38    44  43  39    41  40  36    38  37  33    33  29  28    32  28  27    37  33  32    42  38  37    45  41  40    47  43  42    49  45  44    51  47  46    57  53  52    56  52  51    52  48  47    55  51  50    63  59  58    72  66  66    71  65  65    54  48  48    38  32  32    48  42  42    70  64  64    79  73  73    70  64  64    65  59  59     0   0   0     0   0   0     0   0   0     0   0   0     0   0   0     0   0   0     0   0   0     0   0   0  
  84  61  53   102  79  71   119  98  89   100  81  71    88  71  61    96  79  69    86  72  64    83  68  64    66  52  49    47  36  32    34  25  20    29  22  17    29  25  21    31  30  25    35  34  29    41  40  36    42  41  37    40  39  35    40  36  33    40  36  33    38  34  33    45  41  40    48  44  43    48  44  43    52  49  47    56  52  51    53  49  48    50  46  45    55  51  50    57  53  52    50  47  45    49  45  44    59  55  54    69  63  63    65  60  60    52  46  46    48  42  42    62  56  56    77  71  71    81  75  75    84  78  78    89  83  83    92  86  86     0   0   0     0   0   0     0   0   0     0   0   0     0   0   0     0   0   0     0   0   0  
 110  87  79   107  85  77    92  73  64    83  66  56    88  74  63    88  74  63    76  63  55    66  54  49    55  44  40    43  34  29    32  26  19    28  23  17    27  25  20    31  30  25    37  35  30    41  40  36    40  39  35    36  35  31    38  35  31    42  38  34    36  32  31    50  46  45    52  48  47    47  43  42    50  46  45    56  52  51    53  49  48    48  44  43    45  41  40    50  46  45    53  49  48    51  47  46    57  53  52    54  49  48    45  40  40    40  33  33    50  44  44    72  66  66    83  77  77    82  76  76    77  71  71    91  85  85    88  82  82    96  90  90   105  99  99     0   0   0     0   0   0     0   0   0     0   0   0     0   0   0  
 100  77  69    88  66  58    82  63  53    85  67  57    83  69  58    73  59  48    63  50  42    55  43  38    47  36  33    39  28  26    32  25  22    29  24  20    28  26  21    33  32  28    34  35  30    35  34  30    33  32  28    34  33  31    37  34  33    41  37  36    40  36  35    48  44  43    58  54  53    53  49  48    45  40  40    45  41  40    44  40  39    46  42  41    56  52  51    54  50  49    52  48  47    45  41  40    43  39  38    38  33  33    33  27  27    37  31  31    64  58  58    71  65  65    73  67  67    69  63  63   101  95  95   125 118 118   117 111 111   115 109 109   113 107 107    69  63  63     0   0   0     0   0   0     0   0   0     0   0   0  
  86  63  55    82  63  54    79  62  52    71  56  46    62  50  38    55  44  32    52  42  33    51  41  36    45  36  33    38  30  27    34  29  25    33  31  26    34  33  28    33  34  29    34  35  30    36  35  31    37  36  32    38  37  35    39  36  35    40  36  35    42  38  37    49  45  44    58  54  53    53  49  48    47  43  42    51  47  46    51  47  46    55  51  50    60  56  55    53  49  48    46  42  41    35  32  30    31  27  26    42  37  37    46  40  40    43  37  37    58  52  52    63  57  57    62  56  56    49  43  43    72  66  66   108 102 102   124 118 118   131 125 125   119 113 113    60  54  54    41  35  35     0   0   0     0   0   0     0   0   0  
  77  57  50    76  57  50    73  55  47    64  49  41    57  44  35    57  44  35    56  45  38    54  43  40    47  37  35    39  30  28    33  28  24    30  27  22    29  28  24    31  31  27    34  35  30    37  37  35    40  39  37    41  40  38    41  38  36    40  36  35    44  40  39    50  46  45    56  52  51    50  46  45    45  41  40    50  46  45     0   0   0    50  46  45    54  50  49    48  45  43    44  40  39    39  35  34    37  33  32    36  30  30    39  33  33    40  34  34    62  56  56    81  75  75    92  85  85    85  79  79    75  69  69    92  86  86   103  97  97   120 114 114   112 106 106    54  48  48    42  36  36    68  62  62    75  69  69     0   0   0  
  85  65  58    75  56  49    63  47  39    57  44  35    57  47  37    55  45  36    51  42  34    50  41  37    43  35  32    35  30  26    31  28  23    29  28  23    31  30  26    34  34  29    35  36  31    37  37  35    40  39  37    41  40  38    41  38  36    39  35  34    43  39  38    50  46  45    54  50  49    46  42  41    39  35  34     0   0   0     0   0   0     0   0   0    49  45  44    46  42  41    45  41  40    46  42  41    48  44  43    49  44  44    49  43  43    44  38  38    69  63  63    89  83  83   101  95  95   105  99  99   115 109 109   117 110 110   113 107 107   113 107 107    97  91  91    54  49  49    54  49  49    72  66  66    85  79  79    97  91  91  
 115  95  88   108  88  82    97  80  72    88  75  66    83  73  63    76  66  56    63  54  46    51  42  38    46  38  35    40  35  31    39  35  32    39  38  34     0   0   0    39  39  36    36  36  34    35  35  33    37  36  35    41  38  37    41  37  38    39  35  36    40  37  35    49  45  44    54  50  49    46  42  41    41  37  36     0   0   0     0   0   0     0   0   0    48  45  43    44  40  39    42  38  37    45  41  40    46  42  41    60  55  54    59  53  53    45  39  39    66  60  60    78  72  72    85  79  79    98  92  92   104  98  98    94  88  88   100  94  94   121 115 115   118 112 112    67  61  61    60  54  54    75  69  69    77  71  71    90  84  84  
  93  73  66   101  83  76   103  87  79    95  82  73    87  76  66    77  69  58    71  63  55    70  63  58    61  55  51    50  47  42    40  39  35    36  36  32     0   0   0     0   0   0    35  35  33    34  34  32    36  36  34    41  39  37    43  39  39    42  38  39    39  35  34    50  46  45    55  51  50    48  44  43     0   0   0     0   0   0     0   0   0     0   0   0     0   0   0    42  38  37    42  38  37    49  45  44    51  47  46    59  53  53    58  51  51    42  36  36    61  55  55    71  65  65    77  71  71    94  88  88   119 113 113   115 109 109   123 117 117   133 127 127   121 116 116    76  69  69    72  66  66    85  79  79    71  65  65    74  68  68  
  96  76  69   104  86  79   106  90  82    99  86  77    93  82  72    80  72  61    73  64  56    74  67  62    63  57  53    48  44  41    34  33  29    27  26  22     0   0   0     0   0   0     0   0   0    33  33  31    40  38  37    48  44  45    49  43  45    46  40  42    43  39  38    52  48  47    55  51  50     0   0   0     0   0   0     0   0   0     0   0   0     0   0   0     0   0   0     0   0   0    46  42  41    56  52  51    59  55  54    61  55  55    72  66  66    56  50  50    56  50  50    61  55  55    64  58  58    69  64  64    69  63  63    95  89  89   108 102 102    88  82  82    69  63  63    68  62  62    85  79  79    74  68  68    78  72  72    90  84  84  
 128 108 101   118 100  92   103  88  79    93  80  71    85  75  66    66  56  47    48  40  33    50  42  38    42  36  33    35  30  27    28  27  23    27  26  22     0   0   0     0   0   0     0   0   0     0   0   0    43  42  41    52  49  50    52  48  50    49  43  45    48  43  43    54  50  49    53  49  48     0   0   0     0   0   0     0   0   0     0   0   0     0   0   0     0   0   0     0   0   0    48  44  43    54  50  49    52  48  47    49  44  44    72  66  66    58  53  53    47  41  41    53  47  47    56  50  50    50  44  44    46  40  40    42  36  36    46  40  40    57  51  51    70  64  64    59  53  53    59  53  53    68  62  62    79  73  73    87  81  81  
 111  88  80    80  60  52    74  56  49    70  54  47    72  59  53    71  60  54    51  40  37    48  39  36    46  41  37    36  31  27    30  26  23    33  32  28     0   0   0     0   0   0     0   0   0     0   0   0    37  37  35    42  39  38    43  39  38    47  42  42    45  41  40    44  40  39     0   0   0     0   0   0     0   0   0     0   0   0     0   0   0     0   0   0     0   0   0     0   0   0     0   0   0    53  49  48    48  44  43    43  38  38    69  63  63    71  65  65    49  43  43    46  40  40    42  36  36    40  34  34    39  33  33    43  37  37    42  36  36    41  35  35    40  34  34    65  59  59    61  55  55    67  61  61    88  82  82   106 100 100  
 112  89  81    99  79  71    91  73  66    85  69  62    78  64  58    69  58  54    70  60  56    72  63  61    50  44  40    38  33  29    40  36  33     0   0   0     0   0   0     0   0   0     0   0   0     0   0   0     0   0   0    39  38  36    38  35  33    40  36  35    40  36  35     0   0   0     0   0   0     0   0   0     0   0   0     0   0   0     0   0   0     0   0   0     0   0   0     0   0   0     0   0   0     0   0   0    61  57  56    57  52  52    74  68  68    70  64  64    51  45  45    48  42  42    44  38  38    46  39  39    49  43  43    48  43  43    48  42  42    53  47  47    52  46  46    59  53  53    39  33  33    41  35  35    60  54  54    64  58  58  
 123 100  92   118  96  88   101  82  75    97  78  74    86  71  66    73  60  56    75  64  61    64  54  52    50  42  39    52  47  43    54  50  47     0   0   0     0   0   0     0   0   0     0   0   0     0   0   0     0   0   0     0   0   0    34  31  29    35  31  30     0   0   0     0   0   0     0   0   0     0   0   0     0   0   0     0   0   0     0   0   0     0   0   0     0   0   0     0   0   0     0   0   0     0   0   0     0   0   0    68  62  62    74  68  68    64  58  58    52  45  45    51  45  45    50  45  45    58  52  52    63  57  57    63  57  57    62  56  56    64  58  58    61  55  55    60  54  54    41  35  35    51  45  45    57  51  51    43  37  37  
 120  98  90   101  81  73    85  67  60    89  74  66   100  87  81   105  93  90    97  86  83    69  60  57    73  68  64    77  72  68    63  59  56     0   0   0     0   0   0     0   0   0     0   0   0     0   0   0     0   0   0     0   0   0     0   0   0    34  30  29     0   0   0     0   0   0     0   0   0     0   0   0     0   0   0     0   0   0     0   0   0     0   0   0     0   0   0     0   0   0     0   0   0     0   0   0     0   0   0    69  63  63    66  60  60    54  48  48    50  44  44    53  47  47    57  51  51    69  63  63    63  58  58    69  63  63    67  61  61    62  56  56    62  56  56    62  56  56    55  49  49    61  55  55    56  50  50    46  40  40  
 107  84  76   103  81  73   116  97  90   117  99  94   106  90  86    91  77  74    76  65  61    90  80  78    89  80  77    66  61  57    41  37  34     0   0   0     0   0   0     0   0   0     0   0   0     0   0   0     0   0   0     0   0   0     0   0   0     0   0   0     0   0   0     0   0   0     0   0   0     0   0   0     0   0   0     0   0   0     0   0   0     0   0   0     0   0   0     0   0   0     0   0   0     0   0   0     0   0   0     0   0   0     0   0   0     0   0   0     0   0   0    53  47  47    59  53  53    70  64  64    57  50  50    64  58  58    64  58  58    63  57  57    69  63  63    65  59  59    61  55  55    59  53  53    58  52  52    75  69  69  
 106  84  75   105  85  77   120 102  95   106  91  83    92  78  72    89  78  74    78  67  64    80  71  68    67  61  57    42  37  33    30  26  23     0   0   0     0   0   0     0   0   0     0   0   0     0   0   0     0   0   0     0   0   0     0   0   0     0   0   0     0   0   0     0   0   0     0   0   0     0   0   0     0   0   0     0   0   0     0   0   0     0   0   0     0   0   0     0   0   0     0   0   0     0   0   0     0   0   0     0   0   0     0   0   0     0   0   0     0   0   0     0   0   0     0   0   0     0   0   0     0   0   0    64  58  58    67  61  61    76  70  70    92  86  86    73  67  67    64  58  58    63  57  57    68  62  62    98  92  92  
