P3
50 65
255
  80  66  57    90  76  67    90  77  68    89  76  67    76  66  56    75  65  55    66  56  46    76  66  57   104  91  83    88  75  69    83  70  64     0   0   0     0   0   0     0   0   0     0   0   0     0   0   0     0   0   0     0   0   0     0   0   0     0   0   0     0   0   0     0   0   0     0   0   0     0   0   0     0   0   0     0   0   0     0   0   0     0   0   0     0   0   0     0   0   0     0   0   0     0   0   0     0   0   0     0   0   0     0   0   0     0   0   0     0   0   0     0   0   0   122 100  86    94  72  59    92  72  61    94  74  63    83  63  54    88  68  59    96  76  67    95  75  66    92  73  66    75  55  49    61  44  36    52  35  27  
  77  63  54    85  71  62    97  84  75    80  67  58    57  47  37    65  55  45    73  63  53    91  81  72    94  81  73    83  70  64    80  67  61     0   0   0     0   0   0     0   0   0     0   0   0     0   0   0     0   0   0     0   0   0     0   0   0     0   0   0     0   0   0     0   0   0     0   0   0     0   0   0     0   0   0     0   0   0     0   0   0     0   0   0     0   0   0     0   0   0     0   0   0     0   0   0     0   0   0     0   0   0     0   0   0     0   0   0     0   0   0     0   0   0   120  98  84    83  61  47    94  74  61    98  78  67    86  66  57    87  67  57    91  71  62    93  73  64    97  78  71    84  65  58    66  49  41    65  48  40  
  81  68  59    97  84  75   101  88  79    69  56  47    66  55  45    79  67  58    80  70  60   107  96  87    84  71  63    73  60  54    87  74  67    69  56  50     0   0   0     0   0   0     0   0   0     0   0   0     0   0   0     0   0   0     0   0   0     0   0   0     0   0   0     0   0   0     0   0   0     0   0   0     0   0   0     0   0   0     0   0   0     0   0   0     0   0   0     0   0   0     0   0   0     0   0   0     0   0   0     0   0   0     0   0   0     0   0   0     0   0   0   134 112  99   117  95  81    76  54  40    91  69  57   101  79  68    91  71  60    86  66  55    84  64  55    86  66  57    96  77  70    91  72  65    77  60  52    81  64  56  
 118 104  95   112  99  90   104  90  81    60  46  37    83  69  60    80  66  57    89  77  67   113 100  91    80  67  58    68  55  47    87  74  65    58  45  38     0   0   0     0   0   0     0   0   0     0   0   0     0   0   0     0   0   0     0   0   0     0   0   0     0   0   0     0   0   0     0   0   0     0   0   0     0   0   0     0   0   0     0   0   0     0   0   0     0   0   0     0   0   0     0   0   0     0   0   0     0   0   0     0   0   0     0   0   0     0   0   0     0   0   0   121 100  88   113  91  79    79  57  45    76  56  46   106  85  76    81  61  51    88  68  58    83  64  55    86  67  57    93  75  68    90  72  64    79  64  55    89  75  66  
 123 109 100   128 114 105   123 109 100    70  56  47    82  68  59    88  74  65    98  84  75   104  90  81    94  81  72    68  55  46    78  65  56    63  50  41    68  58  48     0   0   0     0   0   0     0   0   0     0   0   0     0   0   0     0   0   0     0   0   0     0   0   0     0   0   0     0   0   0     0   0   0     0   0   0     0   0   0     0   0   0     0   0   0     0   0   0     0   0   0     0   0   0     0   0   0     0   0   0     0   0   0     0   0   0     0   0   0   101  83  73   115  95  86   102  82  73    80  57  49    76  56  47   107  87  78    78  58  49    83  63  53    88  70  60    84  66  56    93  76  68    99  82  74    74  60  51    85  72  63  
 103  86  78   117 100  92   126 109 101   100  83  75    90  73  65   100  83  75    95  78  70    90  76  67   101  88  79    75  62  53    69  55  47    80  67  58    71  58  49     0   0   0     0   0   0     0   0   0     0   0   0     0   0   0     0   0   0     0   0   0     0   0   0     0   0   0     0   0   0     0   0   0     0   0   0     0   0   0     0   0   0     0   0   0     0   0   0     0   0   0     0   0   0     0   0   0     0   0   0     0   0   0     0   0   0     0   0   0   103  85  75   116  96  87    89  69  60    80  57  49    94  74  65   111  91  83    87  67  58    80  60  51   101  83  73    76  58  48    87  70  62   104  87  79    81  67  58    77  63  54  
  91  75  66    85  68  60   100  83  75   123 106  98   111  93  86   108  91  83    88  71  63    95  78  70    93  79  70    97  84  75    80  67  58    91  77  68    80  67  58    82  69  60     0   0   0     0   0   0     0   0   0     0   0   0     0   0   0     0   0   0     0   0   0     0   0   0     0   0   0     0   0   0     0   0   0     0   0   0     0   0   0     0   0   0     0   0   0     0   0   0     0   0   0     0   0   0     0   0   0     0   0   0     0   0   0    78  61  51   104  86  76   113  93  84    81  61  52    87  64  56   114  94  85   115  95  86   101  81  72    87  67  58   116  98  88    73  55  45    80  63  55   100  83  75    89  75  66    72  58  49  
  93  76  68    80  63  55    85  68  60   114  97  89   110  93  85   113  96  88    89  72  64    97  80  72    75  61  52   105  91  82    97  84  75    91  78  69    80  67  58    84  71  62    67  54  46     0   0   0     0   0   0     0   0   0     0   0   0     0   0   0     0   0   0     0   0   0     0   0   0     0   0   0     0   0   0     0   0   0     0   0   0     0   0   0     0   0   0     0   0   0     0   0   0     0   0   0     0   0   0     0   0   0     0   0   0    85  68  58   103  85  75   104  84  75    81  61  52    97  74  66   116  96  87   103  83  74   101  81  72    92  72  63   121 103  93    80  62  52    83  66  58    98  81  73    78  64  55    69  55  46  
  89  72  62    92  75  65    91  74  64    94  78  68    97  80  70   102  85  76    80  63  54    88  71  62    68  54  45    79  64  56   106  92  83    94  80  71    71  58  48    79  66  57    61  48  40    81  68  60     0   0   0     0   0   0     0   0   0     0   0   0     0   0   0     0   0   0     0   0   0     0   0   0     0   0   0     0   0   0     0   0   0     0   0   0     0   0   0     0   0   0     0   0   0     0   0   0     0   0   0     0   0   0    97  83  72    93  76  66   101  82  72    89  69  60    85  65  56   104  81  73   114  94  85    87  67  58    93  73  64    95  75  66   115  97  87    89  72  62    91  74  66    95  78  70    70  57  48    69  55  46  
  83  66  56    99  82  72   106  88  78   100  83  73   102  85  75    90  73  63    68  51  41    86  69  59    86  72  63    56  42  33   116 102  93   106  92  83    61  48  39    71  58  49    60  47  39    71  58  50    80  67  59    63  50  42     0   0   0     0   0   0     0   0   0     0   0   0     0   0   0     0   0   0   127 112 105   101  84  77     0   0   0     0   0   0     0   0   0     0   0   0     0   0   0     0   0   0     0   0   0     0   0   0   102  89  77    99  82  72    97  79  69    78  58  49    89  69  59   108  85  77   122 102  93    85  65  56    93  73  64    99  79  70   108  90  80    94  77  67    94  77  69    88  71  63    83  68  60    74  60  51  
  86  68  58   110  92  82    87  69  59   107  89  79    94  76  66    84  66  56   101  83  73   111  94  84    75  61  52    87  73  64    93  80  71    99  86  76    63  49  40    59  45  36    62  49  41    79  66  58    79  67  59    56  43  35    66  53  47     0   0   0     0   0   0    77  67  60    74  63  57    91  78  72   129 114 107    92  75  68    80  65  58     0   0   0     0   0   0     0   0   0     0   0   0     0   0   0     0   0   0    99  85  76   101  87  76   105  89  79    81  63  53    81  61  52    89  69  60   127 104  96   121 101  92   101  81  72   101  81  72   124 104  95   108  90  80    95  77  67    99  82  74    86  69  61    79  65  57    76  62  53  
   0   0   0     0   0   0     0   0   0     0   0   0     0   0   0    86  68  58    94  76  65   108  90  80    89  72  64    87  72  64    82  68  59    84  69  61    63  49  40    68  54  45    63  50  42    62  48  41    70  57  49    78  65  57    67  54  48    76  63  57   104  92  87    72  61  55    76  65  59   121 108 102   117 102  95    84  67  60    85  70  63    68  53  46     0   0   0     0   0   0     0   0   0     0   0   0     0   0   0   119 105  96    95  82  70    99  83  73    81  63  53    77  57  48   108  88  79   120  97  89   108  88  79   114  94  85   103  83  74   141 121 112   116  98  88    97  79  69    88  71  63    85  68  60    77  63  54    70  56  47  
   0   0   0     0   0   0     0   0   0     0   0   0     0   0   0     0   0   0     0   0   0     0   0   0     0   0   0     0   0   0    88  71  63    78  61  53    58  44  35    64  50  41    64  49  42    58  43  36    58  45  37    71  58  50    75  62  56    73  60  54    90  77  71    80  67  61   129 118 112   132 119 113   105  90  83    72  55  48    75  60  53    64  49  42    90  77  69    73  60  52     0   0   0     0   0   0    74  61  52   133 119 110    96  82  71    86  69  59    82  64  54    85  65  56   121 101  92   110  87  79    94  74  65   115  95  86    92  72  63   132 112 103   117  99  89    86  68  58    78  61  53    86  69  61    85  71  62    74  60  51  
   0   0   0     0   0   0     0   0   0     0   0   0     0   0   0     0   0   0     0   0   0     0   0   0     0   0   0    90  73  65    91  73  66    79  62  54    63  47  38    62  46  38    71  56  49    73  58  51    70  55  48    64  49  42    86  73  67    85  73  67    81  68  62   100  87  81   180 168 162   131 118 112   104  89  82    72  55  48    64  49  42    79  64  57    90  77  69    79  67  58    77  64  55     0   0   0    79  66  57   121 107  98    98  84  73    67  50  40    82  64  54   102  82  73   107  87  78    98  75  67    93  73  64   104  84  75    85  65  56   109  89  80   123 105  95    76  58  48    77  60  52    89  72  64    87  73  65    79  65  56  
   0   0   0     0   0   0     0   0   0     0   0   0     0   0   0     0   0   0     0   0   0     0   0   0   104  87  77    83  66  58    84  67  59    83  66  58    78  61  53    64  47  39    71  56  49    78  63  56    77  62  54    67  52  45    70  57  51    76  63  57    94  81  75    99  86  80   140 127 121   118 103  98    85  70  63    68  51  44    63  48  41    95  80  73    92  79  71    89  76  68    74  61  52    72  59  49    85  72  63    98  84  75   102  88  77    62  45  35    96  78  68   123 103  94    93  73  64   104  81  73   100  80  71    90  70  61    89  69  60    99  79  70   131 113 103    78  59  49    72  55  47    85  68  60    81  68  58    78  64  55  
   0   0   0     0   0   0     0   0   0     0   0   0     0   0   0     0   0   0     0   0   0   114  94  85   113  96  86    75  58  50    77  60  53    88  71  63    89  72  64    56  39  31    64  49  42    80  65  58    80  65  58    83  68  61    67  52  47    73  58  53   113 100  94   111  98  92    99  86  80   110  95  89    74  59  51    76  59  52    82  67  59    88  73  66    82  69  61    85  72  64    87  74  65    83  70  61    78  64  55    78  63  55    98  84  73    72  55  45   118 100  90   129 109 100    92  72  63   122  99  90   104  84  75    80  60  51    92  72  63   102  82  73   123 105  95    88  70  60    69  52  44    92  76  67    89  75  66    86  72  63  
   0   0   0     0   0   0     0   0   0     0   0   0     0   0   0    84  64  54   104  85  74   112  93  84   103  86  78    62  45  39    71  54  48    91  75  68    88  71  65    52  36  30    63  48  41    92  77  70    81  66  58    75  60  53    68  52  47    76  60  55   106  90  85   118 102  97    98  82  77    99  84  76    94  77  70   104  87  80   102  87  78    81  65  58    76  61  52    87  72  63    93  79  69    87  73  63    67  52  42    67  52  43    85  67  57    80  61  51   129 110 101   123 102  94    96  73  65   127 104  96   102  82  73    83  64  55    95  76  67    99  80  70   120 102  92   101  83  73    78  60  52   107  90  82   102  85  76   100  86  76  
   0   0   0     0   0   0     0   0   0     0   0   0    93  75  65    96  78  68   111  93  83   124 105  98   101  84  78    60  45  41    68  53  49    84  69  65    73  58  53    60  44  39    64  46  42    85  67  63    94  77  70    64  46  39    61  43  36    83  65  58    91  73  67   103  85  79   103  85  78   106  88  81   104  87  78   106  89  80    89  72  62    89  72  63    97  80  70   109  91  81    84  66  56    84  66  56    67  48  39    69  50  40    80  61  52   102  82  73   133 111 103   116  93  85   103  80  72   127 104  96    91  72  63    96  78  68   100  82  72    80  62  52   120 102  92   109  91  81    94  76  66   100  82  72    99  81  71   109  91  81  
   0   0   0     0   0   0     0   0   0    85  65  56    85  67  57   116  98  88   115  97  87   108  89  81   101  84  78    71  54  50    79  62  58    84  67  64    73  56  50    69  52  46    72  54  48    83  64  59    83  65  58    70  51  44    60  40  34    77  57  50    77  58  51    91  71  64    98  78  70   113  95  86   107  90  80    92  75  65    83  65  55    92  75  65   116  98  88   105  87  77    84  66  56    74  56  46    68  48  39    69  49  40    89  69  60   130 110 101   118  94  86   106  83  75    97  74  66   111  88  80   103  85  75    90  72  62    81  64  54    81  63  53    94  76  66   117  99  89   102  84  74    92  74  64   101  83  73   106  88  78  
   0   0   0     0   0   0    91  71  62    85  65  56    82  64  54   124 107  97   116  98  88    84  65  58   113  96  89    79  60  57    88  70  66   102  85  78    90  73  66    79  60  54    78  59  54    93  74  68    83  64  57    74  54  48    73  53  46    87  67  60    92  72  65    80  60  51    93  73  64   110  90  81   116  98  88    91  74  64    82  65  55    80  63  53   113  95  85    95  77  67    92  74  64    73  55  45    76  56  47    85  65  56   102  82  73   131 111 102   113  90  82    99  76  68    95  72  64    95  72  64   108  88  79    89  72  62    70  53  43    92  74  64    92  74  64   128 110 100   104  86  76   103  85  75   105  87  77   108  90  80  
   0   0   0     0   0   0     0   0   0     0   0   0    86  68  58   119 101  91   118 100  90    78  59  51   112  93  87    87  68  62   101  82  76   110  92  84    99  79  72    90  71  64    86  67  60    92  72  65   100  80  71    78  58  49    88  68  59   108  85  77   123 100  92    82  60  49   105  83  72   108  88  77   118 100  90    74  57  47    67  50  40    82  65  55   113  95  85    72  54  44    93  75  65    93  75  65    74  54  45   111  91  82   127 107  97   121 101  92   119  95  88    94  71  63   108  85  78   114  91  83    96  76  67   115  95  86    96  76  67    96  76  67   101  81  72   138 118 109   103  83  74   101  81  72   114  94  85   117  97  88  
   0   0   0     0   0   0     0   0   0     0   0   0     0   0   0   108  90  80   108  90  80    86  68  58   105  85  78    98  79  73   113  94  86   106  86  79    94  75  67   104  84  77   100  80  72    87  66  59   104  83  73    81  59  50    90  68  59   120  97  88   121  99  87    88  65  54   113  90  79    98  77  66    87  69  59    71  54  44    70  53  43    80  63  53   102  84  74    81  63  53   113  95  85    97  79  69    99  79  70   119  99  90   117  97  88   115  95  86   125 102  94   101  78  70   114  90  83   100  77  69    83  63  54   124 104  95   127 107  98    94  74  65   103  83  75   139 119 110   119  99  90    95  75  66   120 100  91   124 104  95  
   0   0   0     0   0   0     0   0   0     0   0   0     0   0   0     0   0   0    95  77  67    97  79  69   104  84  77    94  74  67   106  86  77   101  81  72    90  70  61    98  78  69    97  75  67    89  66  58    99  77  66    91  69  58    94  71  60   140 116 106   106  82  70   101  77  65   114  90  78    80  58  47    77  59  48    75  58  48    74  57  47    85  68  58   100  82  72    93  75  65   128 110 100   103  85  75   118  98  89   111  91  82   103  83  74   134 114 105   122  99  91   105  82  74   116  93  85    89  66  58   101  81  72   113  93  84   142 122 113   107  87  78   108  88  79   121 101  92   127 107  98    95  75  66     0   0   0     0   0   0  
   0   0   0     0   0   0     0   0   0     0   0   0     0   0   0     0   0   0     0   0   0     0   0   0   109  89  83    87  67  60    98  78  69   100  80  70    86  66  57    91  71  62    95  72  64    90  67  59    99  77  66    89  66  55   127 103  93   153 129 119    95  71  58   125 101  89   110  86  74    80  58  47    80  61  50    71  54  44    74  57  47    83  66  56    95  77  67    93  75  65   103  85  75   113  95  85   119  99  90   109  89  80   118  98  89   152 132 123   114  91  83   106  83  75   123 100  92   109  86  78   114  93  82   110  88  78   123 102  91   117  96  85   117  96  86   106  85  75     0   0   0     0   0   0     0   0   0     0   0   0  
   0   0   0     0   0   0     0   0   0     0   0   0     0   0   0     0   0   0     0   0   0     0   0   0     0   0   0    78  58  51    85  65  56    91  71  62    85  65  56    95  75  66    98  77  69    94  71  63    97  75  64    96  74  63   143 120 109   137 113 103   111  87  75   126 102  90   110  86  74    81  59  48    83  65  55    83  66  56    81  64  54    70  53  43    80  62  52    93  75  65    87  69  59    92  74  64   110  90  81   114  94  85   120 100  91   144 124 115   102  79  71   106  83  75   116  93  85   109  86  78    94  72  61    96  74  63   101  79  68     0   0   0     0   0   0     0   0   0     0   0   0     0   0   0     0   0   0     0   0   0  
   0   0   0     0   0   0     0   0   0     0   0   0     0   0   0     0   0   0     0   0   0     0   0   0     0   0   0     0   0   0     0   0   0    86  67  60    77  58  51    83  63  56    85  65  59    87  67  60    86  66  57   110  88  80   121  98  90   112  89  81   113  91  80   123 101  90   109  87  76    76  56  45    79  61  51    79  62  52    84  67  57    74  57  47    71  53  43    71  53  43    80  62  52   111  93  83   105  85  76   126 106  97   122 102  93   134 114 105   102  79  71   109  86  78   111  88  80     0   0   0     0   0   0     0   0   0     0   0   0     0   0   0     0   0   0     0   0   0     0   0   0     0   0   0     0   0   0     0   0   0  
   0   0   0     0   0   0     0   0   0     0   0   0     0   0   0     0   0   0     0   0   0     0   0   0     0   0   0     0   0   0     0   0   0     0   0   0    79  61  54    81  62  55    86  67  60   100  80  73   104  85  76   127 107  99    94  74  66   102  80  72    89  67  60   123 102  92   109  88  78    67  47  37    73  55  45    83  66  56    87  70  60    69  52  42    71  53  43    88  70  60    96  78  68   114  96  86   112  92  83   129 109 100   126 106  97     0   0   0     0   0   0     0   0   0     0   0   0     0   0   0     0   0   0     0   0   0     0   0   0     0   0   0     0   0   0     0   0   0     0   0   0     0   0   0     0   0   0     0   0   0  
   0   0   0     0   0   0     0   0   0     0   0   0     0   0   0     0   0   0     0   0   0     0   0   0     0   0   0     0   0   0     0   0   0    88  71  65    93  76  69    98  80  73    98  80  74   114  95  89   127 108 101   129 109 102    91  72  65    85  65  58    81  61  54   114  94  86   119  99  90    69  50  40    69  51  41    94  77  67   100  83  73    73  56  46    86  68  58   119 101  91   108  90  80    87  69  59   118  98  89     0   0   0     0   0   0     0   0   0     0   0   0     0   0   0     0   0   0     0   0   0     0   0   0     0   0   0     0   0   0     0   0   0     0   0   0     0   0   0     0   0   0     0   0   0     0   0   0     0   0   0  
   0   0   0     0   0   0     0   0   0     0   0   0     0   0   0     0   0   0     0   0   0     0   0   0     0   0   0    99  83  80    88  72  69    88  72  68    94  79  73    97  80  75    95  77  72   113  95  90   113  96  89   118  99  93    90  71  64    68  48  42    86  67  61   110  90  84   117  98  90    90  71  63    65  49  39    90  73  63   111  94  84    99  82  72   100  82  72   105  87  77    93  75  65    93  75  65   114  94  85     0   0   0     0   0   0     0   0   0     0   0   0     0   0   0     0   0   0     0   0   0     0   0   0     0   0   0     0   0   0     0   0   0     0   0   0     0   0   0     0   0   0     0   0   0     0   0   0     0   0   0  
   0   0   0     0   0   0     0   0   0     0   0   0     0   0   0     0   0   0     0   0   0     0   0   0   117 102  95   103  88  83    97  82  77    90  75  70    87  72  67    87  71  67    96  80  74   133 116 109    98  83  76   132 115 108    90  73  66    76  57  51    88  69  63   119 100  94    94  75  68   108  90  83    78  60  50   101  83  73   117  99  89    97  80  70    92  74  64    97  79  69    85  67  57    84  66  56    96  78  69   123 103  94     0   0   0     0   0   0     0   0   0     0   0   0     0   0   0     0   0   0     0   0   0     0   0   0     0   0   0     0   0   0     0   0   0     0   0   0     0   0   0     0   0   0     0   0   0     0   0   0  
   0   0   0     0   0   0     0   0   0     0   0   0     0   0   0     0   0   0    93  75  63   108  90  80   112  98  89   103  88  80    82  67  60    95  80  73    92  79  71    59  46  38   115 102  93   127 113 104    82  69  60   103  89  80   102  85  77    79  60  53    84  65  58    91  71  64    88  68  61   113  93  86   105  86  79   110  91  84    97  78  71    89  70  63    86  69  59    84  66  56    89  73  63    90  73  63    98  81  71   125 107  97     0   0   0     0   0   0     0   0   0     0   0   0     0   0   0     0   0   0     0   0   0     0   0   0     0   0   0     0   0   0     0   0   0     0   0   0     0   0   0     0   0   0     0   0   0     0   0   0  
   0   0   0     0   0   0     0   0   0     0   0   0     0   0   0   103  84  73    72  54  42   110  92  82   113  96  86   112  97  88    89  75  66    90  76  67    87  74  65    71  58  49   120 107  98   115 102  93    73  60  51    89  75  66   100  86  77    80  61  54    82  63  56    92  72  65    82  59  53   109  86  80    89  70  63    83  64  57    93  74  67    88  70  62    81  65  55    98  82  72   102  88  77    92  78  67    88  72  61   130 113 103   123 105  93   103  85  73     0   0   0     0   0   0     0   0   0     0   0   0     0   0   0     0   0   0     0   0   0     0   0   0     0   0   0     0   0   0     0   0   0     0   0   0     0   0   0     0   0   0  
   0   0   0     0   0   0     0   0   0     0   0   0   105  87  75   112  94  82    74  56  44   111  93  83   102  85  75   121 104  96   108  94  85   102  88  79    88  75  66    79  66  57   117 104  95   108  95  86    72  59  50    81  67  58   104  90  81    84  66  58    84  65  58    98  78  71    82  61  54   110  88  82    93  74  67    63  44  37    89  72  64    86  69  61    72  58  49    98  84  75    94  80  69    75  61  50    72  58  47   108  93  82   127 110  98    73  55  43   136 116 105   106  85  74   119  96  86     0   0   0     0   0   0     0   0   0     0   0   0     0   0   0     0   0   0     0   0   0     0   0   0     0   0   0     0   0   0     0   0   0  
   0   0   0     0   0   0   117  97  86   119  99  88    90  72  60   101  83  71   102  84  72   104  86  76    86  69  59   109  92  84   111  95  86   115 101  92    94  82  73    83  70  61   100  87  78    90  77  68    77  64  55    78  64  55    99  85  76    82  66  57    82  63  56    97  77  70    86  66  59   110  90  83   111  92  86    62  43  37    86  69  61    89  72  64    76  62  53    97  83  74    84  70  61    70  56  46    81  67  56    94  80  69   122 105  94    73  55  45   128 108  97   113  93  82   133 111 100   129 109  98   111  92  82    73  56  47    88  71  61     0   0   0     0   0   0     0   0   0     0   0   0     0   0   0     0   0   0     0   0   0  
   0   0   0     0   0   0   107  87  76   141 121 110   110  92  80    89  71  59   109  91  79   104  86  76    87  70  60    96  79  71    96  79  71   116  99  91   104  90  81    96  83  74    90  76  68    72  59  50    84  71  62    82  68  59    90  76  67    84  68  59    84  65  59    93  74  67    96  76  69   106  86  79   115  96  90    81  62  56    87  70  62    88  71  63    84  70  61    90  76  67    74  60  51    71  57  48    93  79  68   103  89  78   105  88  78   109  91  81   103  85  73   130 110  99   139 117 107   129 109 100   111  92  84    84  67  59    87  70  60    96  79  69    90  72  62     0   0   0     0   0   0     0   0   0     0   0   0     0   0   0  
   0   0   0     0   0   0    82  62  51   117  97  86   135 117 105    99  81  69    94  77  64   109  91  81    94  76  66    99  80  73    95  78  70   109  92  84    95  81  72   102  88  79    93  80  71    80  67  58    83  70  61    86  73  64    81  67  58    92  75  67    93  74  67    89  70  63   102  82  74    92  73  66    89  70  64   101  84  77    90  73  66    77  60  53    82  68  59    77  63  54    62  49  40    66  53  44    81  67  58   104  91  82    92  75  65   122 104  94   102  84  74   126 106  97   138 115 107   134 114 105   101  82  75    89  72  64    85  68  60    87  70  62    83  66  58    97  80  72   114  97  87     0   0   0     0   0   0     0   0   0  
   0   0   0     0   0   0    87  67  56    76  56  45   107  89  77   106  88  76    93  75  63   101  83  73    89  71  61   105  85  78   101  84  76    99  83  74    73  59  50    90  77  68    93  80  71    88  75  67    78  65  56    80  67  57    71  57  48    91  77  68    89  72  64    83  64  57    92  73  66    80  61  54    67  50  43   101  83  77    97  80  73    74  57  50    85  72  63    73  59  51    66  53  44    70  57  48    75  61  52    97  83  74    92  75  65   109  92  82   118 100  90   100  80  71   135 115 106   130 110 101    80  63  55    80  63  55    75  59  51    79  63  55    69  52  44    88  71  63   113  95  86    97  79  70    94  76  66     0   0   0  
   0   0   0   114  94  83    84  64  53    76  56  45    86  68  56    98  80  68    98  80  68    97  79  69    87  67  58    97  77  70   103  84  77   100  82  74    64  48  40    83  69  60    92  79  70    82  69  60    81  68  59    75  62  53    70  56  47    87  73  64    76  59  51    77  59  51    73  54  47    86  67  60    77  60  53    80  63  56   108  93  86    87  72  65    88  75  67    75  62  54    63  50  41    66  53  44    77  64  55    81  67  58    85  70  61   100  83  75   118 100  90    84  65  56   130 110 101   130 111 103    72  55  47    71  56  49    72  58  49    84  70  61    62  45  37    88  71  63   112  95  87   107  90  82    81  63  53   123 105  95  
   0   0   0   114  94  83    93  73  62    82  62  51    84  66  54    91  73  61   102  84  72   126 108  98    92  72  63    82  62  55   104  85  78   116  97  90    69  52  44    76  62  53    91  78  69    76  63  54    72  59  50    81  68  59    77  64  55    84  70  61    75  58  50    70  52  45    70  53  45    97  80  72    68  52  45    64  48  43    99  84  79    94  79  74    65  52  44    84  71  63    51  40  31    67  56  47    69  56  47    75  62  53    94  80  71    90  73  65    93  74  66    83  64  56    94  74  65   127 108 101    79  62  54    72  57  50    80  65  58    74  60  52    64  48  41    91  76  69    93  76  68   106  89  81    87  70  61   119 102  93  
   0   0   0   131 111 100    99  79  67    88  68  57    86  68  56    83  65  53   115  97  85   135 117 107    98  78  69    84  64  57   108  89  82   124 105  99    87  70  62    77  60  52    84  70  62    77  64  55    69  56  47    85  72  63    79  66  57    76  63  54    80  66  57    79  62  54    83  66  58   115  98  91    63  48  41    53  38  33    83  68  63    99  84  79    59  46  38    77  64  56    56  46  37    75  65  56    64  51  42    88  76  66   101  87  78    86  72  63    81  64  56    94  75  68    78  58  49   111  93  86    83  66  59    75  60  53    75  60  53    70  55  48    73  58  51    79  64  57    77  60  52   103  86  78   116  99  91   128 111 103  
   0   0   0   153 133 122    99  79  68    92  72  61    91  73  61    80  62  50   127 109  97   119 101  91    84  64  55    88  65  59    99  79  72   109  90  83   106  89  81    83  66  58    78  65  56    89  76  67    79  66  57    86  73  64    75  62  53    66  53  44    84  69  60    82  68  59    87  70  62   106  89  82    94  79  72    70  55  50    70  57  51    95  82  76    79  68  62    66  55  49    71  61  52    62  52  43    55  45  36   100  87  79    87  73  64    82  68  59    80  63  55    95  76  69    80  61  54    79  60  53    79  64  57    79  66  58    65  50  43    77  62  55    88  73  65    65  50  44    78  64  55   103  89  80   140 123 115   140 123 115  
  99  79  68   152 132 121   102  82  71    92  72  60    98  80  68    90  72  60   128 110  98   117  97  88    81  61  52    90  67  61    96  76  68    94  74  67   105  88  80    87  70  62    80  67  58    86  73  64    86  73  64    86  73  64    80  67  58    65  52  43    79  65  56    74  60  51    76  60  51    76  60  52    97  82  75    79  64  59    66  54  48    79  66  60    89  77  72    72  61  55    78  68  59    50  40  31    64  54  45    99  86  78    75  62  53    82  68  59    81  64  56    85  68  60    88  69  62    72  53  46    87  72  65    95  82  75    85  70  63    85  71  63    91  76  69    65  50  43    82  68  59    93  79  71   140 123 115   142 124 117  
  96  76  65   133 113 102   109  89  78    90  70  59   104  85  73   108  89  78   121 103  91   133 113 103    89  67  59    87  64  57    99  78  70    92  72  64    99  82  73    97  80  71   103  88  79    87  73  64    82  68  59    83  69  60    91  78  69    76  63  54    79  65  56    69  55  46    73  59  50    62  48  40    69  54  47    85  70  64    90  76  70    73  59  53    73  61  54    78  66  59    73  62  53    59  47  38    84  72  63    89  76  67    76  63  54    86  72  64    80  63  55    74  57  49    90  72  63    90  73  65    85  71  63    97  84  77   111  98  90    82  69  61    84  69  62    83  68  61    90  75  68    92  76  69   147 130 122   130 113 105  
  96  76  67   124 104  94   115  95  85    87  67  57    97  77  66   113  91  80   106  87  76   120  99  88    89  66  55    86  63  52   102  78  68   105  84  74   117  96  85    94  74  64   105  86  75   121 103  94    83  67  57    91  74  64    81  65  55    90  74  64    84  68  60    64  48  39    77  61  53    71  55  47    66  50  40    80  63  54   105  89  80   102  86  77    77  64  54    82  69  59    68  54  44    72  58  48    94  81  70    79  65  55    81  67  57    76  62  51    78  63  53    62  47  37    75  60  48   101  86  76    72  59  50    89  78  68    96  83  74    78  65  56    88  74  65    99  83  75    97  81  73    99  81  74   151 133 126   106  88  81  
 106  86  77   119  99  90    88  68  59    85  65  56   103  81  70   122 100  89    98  76  65    95  73  60   105  81  69   100  76  63    99  75  63   120  96  84   130 108  95   110  88  75    95  73  62   110  88  77    92  72  63   110  90  81    89  71  61    80  62  52    99  81  73    66  48  40    74  57  49    87  70  62    74  57  47    82  64  52    97  79  67   110  92  80   108  92  80   110  94  81    78  63  50    86  70  57    93  77  65    76  60  47    77  63  50    69  55  42    70  56  43    60  46  33    71  57  44   104  91  79    67  57  47    75  65  55    78  65  56    78  64  55    85  70  62    94  77  69   105  86  79   120 101  94   137 117 111    84  65  58  
  98  78  67   124 104  93    89  66  56   105  83  73   106  84  73   113  91  81   101  79  66   107  85  72   100  76  64    95  71  59    94  70  58   134 110  98   132 110  97   116  94  81    93  71  60   113  91  80    98  78  69   105  85  77   119 101  91    89  71  61    96  77  70    63  44  37    85  66  59   102  83  76    76  58  48    83  65  55    74  56  46    84  66  56    99  82  72   107  90  80    81  64  54    97  80  70    99  82  72    86  69  60    85  71  60    86  71  61    70  55  45    67  53  42    67  53  42    95  81  70    76  66  56    67  57  47    73  60  51    80  66  57    76  62  53    86  69  61   115  96  89   139 120 113   121 101  94    71  51  44  
  88  67  56   127 107  96   103  80  69   104  82  71   109  86  75   100  78  67   117  94  81   121  99  86   112  88  76   117  93  81   115  91  79   116  93  81   120  98  86   127 105  92   114  92  81   100  78  67   102  82  73    83  63  53   131 112 102   127 109  99    84  65  57    61  43  35    93  74  67   100  81  74    88  69  62    90  71  65    90  71  62   103  84  77    93  76  67    99  82  74    93  76  67   100  83  75    92  75  66    88  71  63    93  79  69   101  87  78    74  60  50    73  59  50    65  51  40    83  69  60    84  74  64    71  61  51    74  61  52    77  63  53    69  55  46    86  69  61   114  95  88   124 105  98   108  88  81    77  57  50  
  96  74  63   125 103  92   107  85  72    84  62  49   110  86  74    96  72  60   120  96  84   113  89  77   117  95  82   117  95  82   117  95  82    96  74  61   117  95  84   137 115 104   147 125 114   117  95  84   112  92  81    92  72  61   114  94  85   133 113 104   103  85  75    80  62  52    82  64  54    88  69  62    94  75  69    84  65  59    94  75  69   120 101  95    91  74  67    97  80  73   104  87  79    85  68  61    85  68  60    80  63  56    93  78  70    98  83  76    69  55  47    71  56  49    69  54  46    81  66  58    86  76  66    79  69  59    75  62  53    69  55  46    73  59  50   101  84  76   116  97  90   104  85  78   100  80  73    93  73  66  
  93  72  61   120  99  88   118  96  83    85  63  50    98  75  63    84  61  48   104  81  69   118  95  82   127 105  94   108  86  75   114  92  80   115  93  82   111  88  78   104  82  71   122 102  91   134 114 103   127 107  96   116  96  85   102  82  72   115  95  84   124 104  95   100  81  71    95  76  66    87  68  61    97  78  72    83  64  59    79  59  55   103  84  80    81  63  58    92  74  70   107  90  85    89  71  66    89  71  66    80  62  57    99  84  79    93  78  73    69  54  48    66  51  46    74  59  54    78  63  56    88  78  68    87  77  67    73  60  51    62  48  39    83  68  59   115  98  90   120 101  94   104  85  78    92  72  65   107  87  79  
  89  69  58   109  89  78   111  92  78    92  70  57    88  66  53    81  59  46    85  63  50   124 102  90   125 104  93   120  98  87   116  94  83   121  99  88    98  76  65   111  89  78   115  95  84   116  96  85   139 119 108   120 100  89   113  93  83   111  91  80   117  97  88   101  81  72   139 119 110    96  76  69    76  57  51    82  63  59    69  50  45    88  69  65    77  59  55    79  61  57    92  74  70    90  72  68    79  61  57    70  52  48   103  88  83    94  79  74    76  61  56    69  54  49    82  67  62    79  64  59    87  77  67    86  76  66    64  51  42    54  40  31    84  70  61   114  97  89   115  96  90   108  89  82    81  61  54   106  86  79  
   0   0   0     0   0   0     0   0   0     0   0   0     0   0   0     0   0   0     0   0   0     0   0   0     0   0   0   114  94  85   112  92  83   103  83  74   111  91  80   101  81  70   123 103  92   139 119 108   125 105  94   145 125 113    89  66  56   125 103  91   114  92  81    84  62  51   122 100  89   120  99  90    88  69  63    85  66  62     0   0   0     0   0   0     0   0   0     0   0   0     0   0   0     0   0   0     0   0   0     0   0   0     0   0   0     0   0   0     0   0   0     0   0   0     0   0   0     0   0   0     0   0   0     0   0   0     0   0   0     0   0   0     0   0   0     0   0   0     0   0   0     0   0   0     0   0   0     0   0   0  
   0   0   0     0   0   0     0   0   0     0   0   0     0   0   0     0   0   0     0   0   0     0   0   0     0   0   0   122 103  94   112  93  83   121 102  93    97  77  66   102  82  71   109  89  78   133 113 102   119  99  88   128 107  96   109  87  76   132 110  99   130 108  96    82  61  49   114  92  81   127 104  95    83  63  57   104  85  80     0   0   0     0   0   0     0   0   0     0   0   0     0   0   0     0   0   0     0   0   0     0   0   0     0   0   0     0   0   0     0   0   0     0   0   0     0   0   0     0   0   0     0   0   0     0   0   0     0   0   0     0   0   0     0   0   0     0   0   0     0   0   0     0   0   0     0   0   0     0   0   0  
   0   0   0     0   0   0     0   0   0     0   0   0     0   0   0     0   0   0     0   0   0     0   0   0     0   0   0     0   0   0   105  87  77   128 110 100    88  68  59   103  83  74    95  75  64   113  93  82   113  91  80   109  87  76   120  98  87   139 117 106   140 118 105    89  67  54   103  81  68   134 112 101    73  53  46     0   0   0     0   0   0     0   0   0     0   0   0     0   0   0     0   0   0     0   0   0     0   0   0     0   0   0     0   0   0     0   0   0     0   0   0     0   0   0     0   0   0     0   0   0     0   0   0     0   0   0     0   0   0     0   0   0     0   0   0     0   0   0     0   0   0     0   0   0     0   0   0     0   0   0  
   0   0   0     0   0   0     0   0   0     0   0   0     0   0   0     0   0   0     0   0   0     0   0   0     0   0   0     0   0   0   108  89  81   123 104  96    86  67  58    91  73  63    89  69  60    95  75  65   108  86  76     0   0   0   111  89  76   137 115 102   131 108  96   104  80  68    95  72  59   138 116 105    91  71  63     0   0   0     0   0   0     0   0   0     0   0   0     0   0   0     0   0   0     0   0   0     0   0   0     0   0   0     0   0   0     0   0   0     0   0   0     0   0   0     0   0   0     0   0   0     0   0   0     0   0   0     0   0   0     0   0   0     0   0   0     0   0   0     0   0   0     0   0   0     0   0   0     0   0   0  
   0   0   0     0   0   0     0   0   0     0   0   0     0   0   0     0   0   0     0   0   0     0   0   0     0   0   0     0   0   0   123 104  97   124 105  98    86  68  58    76  58  48    92  72  63    94  74  65   109  87  76     0   0   0    96  74  61   121  99  86   115  91  79   112  88  76    96  72  60   135 113 100   137 117 106     0   0   0     0   0   0     0   0   0     0   0   0     0   0   0     0   0   0     0   0   0     0   0   0     0   0   0     0   0   0     0   0   0     0   0   0     0   0   0     0   0   0     0   0   0     0   0   0     0   0   0     0   0   0     0   0   0     0   0   0     0   0   0     0   0   0     0   0   0     0   0   0     0   0   0  
   0   0   0     0   0   0     0   0   0     0   0   0     0   0   0     0   0   0     0   0   0     0   0   0     0   0   0     0   0   0     0   0   0   124 106  99    87  69  59    81  63  53    95  75  66    89  69  60   111  89  78     0   0   0    95  73  60    98  76  63   106  82  70   107  83  71   103  80  67   126 104  91   128 108  97     0   0   0     0   0   0     0   0   0     0   0   0     0   0   0     0   0   0     0   0   0     0   0   0     0   0   0     0   0   0     0   0   0     0   0   0     0   0   0     0   0   0     0   0   0     0   0   0     0   0   0     0   0   0     0   0   0     0   0   0     0   0   0     0   0   0     0   0   0     0   0   0     0   0   0  
   0   0   0     0   0   0     0   0   0     0   0   0     0   0   0     0   0   0     0   0   0     0   0   0     0   0   0     0   0   0     0   0   0   114  96  88    86  69  59    95  76  67    94  75  65    79  60  50     0   0   0     0   0   0     0   0   0    89  68  58   103  81  69    98  75  63   112  91  78   113  91  79     0   0   0     0   0   0     0   0   0     0   0   0     0   0   0     0   0   0     0   0   0     0   0   0     0   0   0     0   0   0     0   0   0     0   0   0     0   0   0     0   0   0     0   0   0     0   0   0     0   0   0     0   0   0     0   0   0     0   0   0     0   0   0     0   0   0     0   0   0     0   0   0     0   0   0     0   0   0  
   0   0   0     0   0   0     0   0   0     0   0   0     0   0   0     0   0   0     0   0   0     0   0   0     0   0   0     0   0   0     0   0   0    89  72  64    81  65  57    90  72  64    92  75  66    81  63  53     0   0   0     0   0   0     0   0   0    90  71  61   101  82  71   106  85  75   116  96  85    95  76  66     0   0   0     0   0   0     0   0   0     0   0   0     0   0   0     0   0   0     0   0   0     0   0   0     0   0   0     0   0   0     0   0   0     0   0   0     0   0   0     0   0   0     0   0   0     0   0   0     0   0   0     0   0   0     0   0   0     0   0   0     0   0   0     0   0   0     0   0   0     0   0   0     0   0   0     0   0   0  
   0   0   0     0   0   0     0   0   0     0   0   0     0   0   0     0   0   0     0   0   0     0   0   0     0   0   0     0   0   0     0   0   0     0   0   0    82  69  60    75  60  52    86  70  63     0   0   0     0   0   0     0   0   0     0   0   0    72  54  44    95  77  67   126 107  98    98  80  68    85  68  58     0   0   0     0   0   0     0   0   0     0   0   0     0   0   0     0   0   0     0   0   0     0   0   0     0   0   0     0   0   0     0   0   0     0   0   0     0   0   0     0   0   0     0   0   0     0   0   0     0   0   0     0   0   0     0   0   0     0   0   0     0   0   0     0   0   0     0   0   0     0   0   0     0   0   0     0   0   0  
   0   0   0     0   0   0     0   0   0     0   0   0     0   0   0     0   0   0     0   0   0     0   0   0     0   0   0     0   0   0     0   0   0     0   0   0    95  83  77    71  58  50    74  61  53     0   0   0     0   0   0     0   0   0     0   0   0    72  54  44    83  66  56   130 112 102    98  80  68     0   0   0     0   0   0     0   0   0     0   0   0     0   0   0     0   0   0     0   0   0     0   0   0     0   0   0     0   0   0     0   0   0     0   0   0     0   0   0     0   0   0     0   0   0     0   0   0     0   0   0     0   0   0     0   0   0     0   0   0     0   0   0     0   0   0     0   0   0     0   0   0     0   0   0     0   0   0     0   0   0  
   0   0   0     0   0   0     0   0   0     0   0   0     0   0   0     0   0   0     0   0   0     0   0   0     0   0   0     0   0   0     0   0   0     0   0   0    94  86  81    72  63  56    66  57  50     0   0   0     0   0   0     0   0   0     0   0   0     0   0   0    74  57  47   114  98  88   124 108  95     0   0   0     0   0   0     0   0   0     0   0   0     0   0   0     0   0   0     0   0   0     0   0   0     0   0   0     0   0   0     0   0   0     0   0   0     0   0   0     0   0   0     0   0   0     0   0   0     0   0   0     0   0   0     0   0   0     0   0   0     0   0   0     0   0   0     0   0   0     0   0   0     0   0   0     0   0   0     0   0   0  
   0   0   0     0   0   0     0   0   0     0   0   0     0   0   0     0   0   0     0   0   0     0   0   0     0   0   0     0   0   0     0   0   0     0   0   0     0   0   0    73  66  61     0   0   0     0   0   0     0   0   0     0   0   0     0   0   0     0   0   0    76  62  51    98  82  71   127 112  99     0   0   0     0   0   0     0   0   0     0   0   0     0   0   0     0   0   0     0   0   0     0   0   0     0   0   0     0   0   0     0   0   0     0   0   0     0   0   0     0   0   0     0   0   0     0   0   0     0   0   0     0   0   0     0   0   0     0   0   0     0   0   0     0   0   0     0   0   0     0   0   0     0   0   0     0   0   0     0   0   0  
   0   0   0     0   0   0     0   0   0     0   0   0     0   0   0     0   0   0     0   0   0     0   0   0     0   0   0     0   0   0     0   0   0     0   0   0     0   0   0    73  68  64     0   0   0     0   0   0     0   0   0     0   0   0     0   0   0     0   0   0    89  75  64    84  70  59    88  74  63     0   0   0     0   0   0     0   0   0     0   0   0     0   0   0     0   0   0     0   0   0     0   0   0     0   0   0     0   0   0     0   0   0     0   0   0     0   0   0     0   0   0     0   0   0     0   0   0     0   0   0     0   0   0     0   0   0     0   0   0     0   0   0     0   0   0     0   0   0     0   0   0     0   0   0     0   0   0     0   0   0  
   0   0   0     0   0   0     0   0   0     0   0   0     0   0   0     0   0   0     0   0   0     0   0   0     0   0   0     0   0   0     0   0   0     0   0   0     0   0   0     0   0   0     0   0   0     0   0   0     0   0   0     0   0   0     0   0   0     0   0   0     0   0   0    85  72  62     0   0   0     0   0   0     0   0   0     0   0   0     0   0   0     0   0   0     0   0   0     0   0   0     0   0   0     0   0   0     0   0   0     0   0   0     0   0   0     0   0   0     0   0   0     0   0   0     0   0   0     0   0   0     0   0   0     0   0   0     0   0   0     0   0   0     0   0   0     0   0   0     0   0   0     0   0   0     0   0   0     0   0   0  
   0   0   0     0   0   0     0   0   0     0   0   0     0   0   0     0   0   0     0   0   0     0   0   0     0   0   0     0   0   0     0   0   0     0   0   0     0   0   0     0   0   0     0   0   0     0   0   0     0   0   0     0   0   0     0   0   0     0   0   0     0   0   0    89  77  68     0   0   0     0   0   0     0   0   0     0   0   0     0   0   0     0   0   0     0   0   0     0   0   0     0   0   0     0   0   0     0   0   0     0   0   0     0   0   0     0   0   0     0   0   0     0   0   0     0   0   0     0   0   0     0   0   0     0   0   0     0   0   0     0   0   0     0   0   0     0   0   0     0   0   0     0   0   0     0   0   0     0   0   0  
