P3
70 50
255
   0   0   0     0   0   0     0   0   0     0   0   0     0   0   0     0   0   0     0   0   0     0   0   0     0   0   0     0   0   0     0   0   0     0   0   0     0   0   0     0   0   0     0   0   0     0   0   0     0   0   0     0   0   0     0   0   0     0   0   0    83  81  82    72  70  71    85  83  84    91  89  90    67  65  66    49  47  48    82  80  81   128 126 127   130 128 129   147 145 146   126 126 128   109 109 111   132 132 134   148 148 150   155 155 157     0   0   0     0   0   0     0   0   0     0   0   0     0   0   0     0   0   0     0   0   0     0   0   0     0   0   0     0   0   0     0   0   0     0   0   0     0   0   0     0   0   0     0   0   0     0   0   0     0   0   0     0   0   0     0   0   0     0   0   0     0   0   0     0   0   0    50  48  49    49  47  48    51  49  50    52  50  51    56  54  55    63  61  62    82  80  81    62  60  61    49  47  48    75  73  74    95  93  94    96  94  95    90  88  88  
   0   0   0     0   0   0     0   0   0     0   0   0     0   0   0     0   0   0     0   0   0     0   0   0     0   0   0     0   0   0     0   0   0     0   0   0     0   0   0     0   0   0     0   0   0     0   0   0     0   0   0     0   0   0     0   0   0     0   0   0    68  66  67    68  66  67    79  77  78    75  73  74    76  74  75    54  52  53    73  71  71   122 120 121   123 121 122   155 153 154   111 111 114   126 126 128   127 127 129   118 118 119   107 107 109     0   0   0     0   0   0     0   0   0     0   0   0     0   0   0     0   0   0     0   0   0     0   0   0     0   0   0     0   0   0     0   0   0     0   0   0     0   0   0     0   0   0     0   0   0     0   0   0     0   0   0     0   0   0     0   0   0     0   0   0     0   0   0    56  51  55    58  56  57    60  58  59    65  63  64    71  70  70    79  77  78    89  87  88    89  87  88    65  63  64    64  62  63   101  99 100   114 112 113   112 110 111   132 130 131  
   0   0   0     0   0   0     0   0   0     0   0   0     0   0   0     0   0   0     0   0   0     0   0   0     0   0   0     0   0   0     0   0   0     0   0   0     0   0   0     0   0   0     0   0   0     0   0   0     0   0   0     0   0   0     0   0   0     0   0   0    83  81  82    83  81  82    68  66  67    52  50  51    59  57  58    52  50  51    78  76  77   131 129 130   133 131 132   146 143 145   146 146 148   139 139 141   120 120 122   111 111 113   111 111 113     0   0   0     0   0   0     0   0   0     0   0   0     0   0   0     0   0   0     0   0   0     0   0   0     0   0   0     0   0   0     0   0   0     0   0   0     0   0   0     0   0   0     0   0   0     0   0   0     0   0   0     0   0   0     0   0   0     0   0   0     0   0   0    53  49  52    47  45  46    57  55  56    77  75  76    95  93  94   102 101 101   105 103 104    89  87  88    61  59  60    53  51  52   104 102 103   141 139 140   135 133 134   143 141 142  
   0   0   0     0   0   0     0   0   0     0   0   0     0   0   0     0   0   0     0   0   0     0   0   0     0   0   0     0   0   0     0   0   0     0   0   0     0   0   0     0   0   0     0   0   0     0   0   0     0   0   0     0   0   0     0   0   0     0   0   0    98  96  97    81  79  80    54  52  53    57  55  56    47  46  46    60  58  59   105 103 104   145 143 144   135 133 134   107 105 106   127 127 129   108 108 110   112 112 114   116 116 118   128 128 130     0   0   0     0   0   0     0   0   0     0   0   0     0   0   0     0   0   0     0   0   0     0   0   0     0   0   0     0   0   0     0   0   0     0   0   0     0   0   0     0   0   0     0   0   0     0   0   0     0   0   0     0   0   0     0   0   0     0   0   0    48  43  47    51  47  50    60  58  59    65  63  64    81  79  80    90  88  89    77  75  76    58  56  57    54  52  53    65  63  64    64  62  64    91  89  90   126 124 125   130 128 129   142 140 141  
   0   0   0     0   0   0     0   0   0     0   0   0     0   0   0     0   0   0     0   0   0     0   0   0     0   0   0     0   0   0     0   0   0     0   0   0     0   0   0     0   0   0     0   0   0     0   0   0     0   0   0     0   0   0     0   0   0     0   0   0    56  52  53    53  49  50    59  55  56    62  58  59    48  44  45    48  44  45   112 108 109   137 133 134   113 109 110   105 101 102   137 135 136   128 126 127   118 116 117   122 121 121   115 113 114     0   0   0     0   0   0     0   0   0     0   0   0     0   0   0     0   0   0     0   0   0     0   0   0     0   0   0     0   0   0     0   0   0     0   0   0     0   0   0     0   0   0     0   0   0     0   0   0     0   0   0     0   0   0     0   0   0     0   0   0    56  52  53    55  52  53    65  63  66    65  64  67    62  60  63    55  53  56    57  55  58    59  57  60    63  61  64    64  62  65    57  55  58    96  94  97   122 120 123   115 113 116   107 105 108  
   0   0   0     0   0   0     0   0   0     0   0   0     0   0   0     0   0   0     0   0   0     0   0   0     0   0   0     0   0   0     0   0   0     0   0   0     0   0   0     0   0   0     0   0   0     0   0   0     0   0   0     0   0   0     0   0   0     0   0   0    71  67  68    75  71  72    72  68  69    66  62  63    64  60  61    53  50  50    90  86  87   129 125 126   137 133 134   133 129 130   122 120 121   105 103 104    96  94  95    85  83  84   112 110 111   164 162 163     0   0   0     0   0   0     0   0   0     0   0   0     0   0   0     0   0   0     0   0   0     0   0   0     0   0   0     0   0   0    95  91  92    83  79  80     0   0   0     0   0   0     0   0   0     0   0   0     0   0   0     0   0   0    52  48  49    55  51  52    61  58  60    61  59  62    64  62  65    66  64  67    62  60  63    64  62  65    62  60  63    54  52  55    50  48  51    44  42  45    82  80  83   110 108 111   110 108 111   111 109 112  
   0   0   0     0   0   0     0   0   0     0   0   0     0   0   0     0   0   0     0   0   0     0   0   0     0   0   0     0   0   0     0   0   0     0   0   0     0   0   0     0   0   0     0   0   0     0   0   0     0   0   0     0   0   0     0   0   0     0   0   0    58  54  55    67  63  64    65  61  62    63  59  60    60  56  57    51  48  48   100  96  97   146 142 143   143 139 140   114 110 111   166 164 165   137 135 136    84  82  83   101  99 100   140 138 139   149 147 148     0   0   0     0   0   0     0   0   0     0   0   0     0   0   0     0   0   0     0   0   0     0   0   0     0   0   0     0   0   0    97  93  94    89  85  86     0   0   0     0   0   0     0   0   0     0   0   0     0   0   0     0   0   0    56  52  53    65  61  62    76  73  74    65  63  66    59  57  60    69  67  70    85  83  86    87  85  88    67  65  68    62  60  63    60  58  60    49  47  50    83  81  84   112 110 113   127 125 128   142 140 143  
   0   0   0     0   0   0     0   0   0     0   0   0     0   0   0     0   0   0     0   0   0     0   0   0     0   0   0     0   0   0     0   0   0     0   0   0     0   0   0     0   0   0     0   0   0     0   0   0     0   0   0     0   0   0     0   0   0     0   0   0    38  34  35    47  43  44    58  54  55    69  65  66    54  50  51    55  51  52   118 113 114   145 141 142   148 144 145   164 160 161   149 147 148   103 101 102    95  93  94   105 103 104   109 107 107   131 129 130     0   0   0     0   0   0     0   0   0     0   0   0     0   0   0     0   0   0     0   0   0     0   0   0     0   0   0     0   0   0    92  88  89    99  95  96   105 101 102     0   0   0     0   0   0     0   0   0     0   0   0    57  53  54    57  53  54    57  53  54    56  52  54    59  57  60    71  69  72    82  80  83    82  80  83    78  76  79    69  67  70    52  50  53    49  47  50    55  53  56    94  93  96   116 114 117   124 122 125   134 132 135  
   0   0   0     0   0   0     0   0   0     0   0   0     0   0   0     0   0   0     0   0   0     0   0   0     0   0   0     0   0   0     0   0   0     0   0   0     0   0   0     0   0   0     0   0   0     0   0   0     0   0   0     0   0   0     0   0   0     0   0   0    33  29  30    35  31  32    48  44  45    53  49  50    73  69  70    59  55  56    59  55  56   104 100 101   141 137 138   122 119 120   127 125 126   134 132 133   117 115 116   108 106 107   151 149 150   158 156 157     0   0   0     0   0   0     0   0   0     0   0   0     0   0   0     0   0   0     0   0   0     0   0   0     0   0   0   117 113 114    88  84  85    97  93  94   107 103 104   126 122 123     0   0   0     0   0   0     0   0   0    43  39  40    44  40  41    48  45  45    61  57  59    77  75  78    82  80  83    89  87  90    89  87  90    82  80  83    66  64  67    54  52  55    47  45  48    48  46  49    82  80  83   100  98 101   115 113 116   134 132 135  
   0   0   0     0   0   0     0   0   0     0   0   0     0   0   0     0   0   0     0   0   0     0   0   0     0   0   0     0   0   0     0   0   0     0   0   0     0   0   0     0   0   0     0   0   0     0   0   0     0   0   0     0   0   0     0   0   0     0   0   0    52  48  49    45  42  43    47  43  44    55  51  52    62  57  59    50  46  47    44  40  41    48  44  45    97  93  94   154 150 150   156 154 155   126 124 125    90  88  89   103 101 102   105 103 104    63  61  62     0   0   0     0   0   0     0   0   0     0   0   0     0   0   0     0   0   0     0   0   0     0   0   0     0   0   0    94  90  90    99  95  96    94  90  91   120 116 117   135 132 132    77  73  74     0   0   0    54  50  51    68  64  65    56  52  53    58  54  55    73  70  71    78  76  79    95  93  96    93  91  95    71  69  72    61  58  61    63  61  64    54  52  55    49  47  50    59  57  60    96  94  97   108 106 109   116 114 117   129 127 130  
   0   0   0     0   0   0     0   0   0     0   0   0     0   0   0     0   0   0     0   0   0     0   0   0     0   0   0     0   0   0     0   0   0     0   0   0     0   0   0     0   0   0     0   0   0     0   0   0     0   0   0     0   0   0     0   0   0     0   0   0    83  78  80    69  65  66    68  64  65    59  55  56    48  45  45    42  38  39    46  42  43    39  35  36    53  49  50    76  72  73    74  72  74    46  44  45    56  54  55    46  44  45    45  43  44    56  54  55    45  42  44     0   0   0     0   0   0     0   0   0     0   0   0     0   0   0     0   0   0     0   0   0     0   0   0    81  77  78   110 106 107    95  91  92   124 120 121   141 137 138    69  65  66    51  47  48    76  72  73   100  96  97    76  72  73    53  50  50    58  54  56    56  54  57    58  56  59    57  55  58    49  47  50    48  45  49    45  43  46    48  46  49    47  45  48    58  57  60    97  95  98   107 105 108   116 114 117   130 128 131  
   0   0   0     0   0   0     0   0   0     0   0   0     0   0   0     0   0   0     0   0   0     0   0   0     0   0   0     0   0   0     0   0   0     0   0   0     0   0   0     0   0   0     0   0   0     0   0   0     0   0   0     0   0   0     0   0   0     0   0   0    84  80  81    68  64  65    74  70  71    62  58  59    57  53  54    48  44  45    48  44  45    48  44  45    54  50  51    43  39  40    44  42  43    46  44  45    37  35  36    37  36  37    53  51  53    53  51  52    51  49  50     0   0   0     0   0   0     0   0   0     0   0   0     0   0   0     0   0   0     0   0   0    62  58  58    69  64  66   108 104 105    95  91  92   113 109 110   137 133 134    75  72  72    50  46  47    48  44  45    59  55  57    55  51  52    47  43  44    48  44  46    45  43  46    48  46  49    48  46  49    45  43  46    51  49  52    55  53  56    45  44  46    44  43  46    69  67  70   116 114 117   123 121 124   122 120 123   126 124 127  
   0   0   0     0   0   0     0   0   0     0   0   0     0   0   0     0   0   0     0   0   0     0   0   0     0   0   0     0   0   0     0   0   0     0   0   0     0   0   0     0   0   0     0   0   0     0   0   0     0   0   0     0   0   0     0   0   0     0   0   0    90  86  87    71  67  68    92  88  89    77  73  74    51  46  47    42  38  39    44  40  40    42  38  39    42  38  39    41  37  38    36  34  35    36  34  35    42  40  41    51  49  50    65  63  64    62  60  61    45  43  44    39  37  38     0   0   0     0   0   0     0   0   0     0   0   0     0   0   0     0   0   0    56  52  53    51  47  48    99  95  96    81  77  78   104 100 101   126 122 123    60  56  57    55  51  52    44  40  41    38  34  35    42  38  39    34  30  31    53  49  51    54  52  55    61  59  62    58  56  59    51  49  52    51  49  52    58  56  59    58  56  59    43  41  44    96  94  97   125 123 126   128 126 129   108 106 109   111 109 112  
   0   0   0     0   0   0     0   0   0     0   0   0     0   0   0     0   0   0     0   0   0     0   0   0     0   0   0     0   0   0     0   0   0     0   0   0     0   0   0     0   0   0     0   0   0     0   0   0     0   0   0     0   0   0     0   0   0     0   0   0   107 103 104    92  88  89    89  85  86    68  64  65    50  46  47    56  52  53    79  75  76    89  85  86    77  73  74    58  54  55    44  42  43    53  51  52    62  60  61    59  57  58    59  57  58    62  59  60    51  49  50    42  40  41     0   0   0     0   0   0     0   0   0     0   0   0     0   0   0     0   0   0    48  44  45    42  38  38    79  75  76    90  86  87   121 117 118   122 118 119    58  54  55    42  38  39    46  42  43    49  45  46    60  56  57    66  62  63    68  64  66    66  64  67    53  51  53    54  52  54    60  58  61    56  54  57    47  45  48    43  41  44    52  50  53   112 110 113   118 116 119   109 107 110   107 106 108   130 128 131  
   0   0   0     0   0   0     0   0   0     0   0   0     0   0   0     0   0   0     0   0   0     0   0   0     0   0   0     0   0   0     0   0   0     0   0   0     0   0   0     0   0   0     0   0   0     0   0   0     0   0   0     0   0   0     0   0   0     0   0   0    88  84  85    76  72  73    67  63  64    58  54  55    52  48  49    68  64  65    99  95  96   113 109 110   102  98  99    82  78  79    66  64  65    70  68  69    76  74  75    71  69  70    64  62  63    60  59  59    54  52  52    54  52  53    62  60  60     0   0   0     0   0   0     0   0   0     0   0   0    53  50  51    45  40  41    37  33  34    53  49  50    68  64  65    89  85  86    84  80  81    58  54  55    51  47  48    58  54  55    66  62  62    68  64  65    81  77  78    80  76  78    72  70  73    66  64  67    67  65  68    67  65  68    62  60  63    61  59  62    60  58  61    56  54  57    97  95  98   120 118 121   141 139 142   139 137 140   128 125 129  
   0   0   0     0   0   0     0   0   0     0   0   0     0   0   0     0   0   0     0   0   0     0   0   0     0   0   0     0   0   0     0   0   0     0   0   0     0   0   0     0   0   0     0   0   0     0   0   0     0   0   0     0   0   0     0   0   0     0   0   0    56  52  53    62  58  59    86  82  83    64  60  61    51  47  48    61  57  58    72  68  69    79  75  76    84  80  81    87  83  84    91  89  90    67  65  66    63  61  62    76  74  75    80  78  79    60  57  59    37  35  36    37  35  36    48  46  47     0   0   0     0   0   0     0   0   0     0   0   0    62  59  60    46  43  44    46  42  43    45  41  42    43  39  40    44  40  41    53  49  50    60  56  57    81  77  78    76  72  73    82  78  79    65  61  62    73  69  70    95  92  94    94  92  95    87  85  88    81  79  82    83  81  84    82  79  83    71  69  72    62  60  63    62  60  63    98  96  99   114 112 115   125 123 126   131 129 132   136 134 137  
   0   0   0     0   0   0     0   0   0     0   0   0     0   0   0     0   0   0     0   0   0     0   0   0     0   0   0     0   0   0     0   0   0     0   0   0     0   0   0     0   0   0     0   0   0     0   0   0     0   0   0     0   0   0     0   0   0     0   0   0    78  74  75    62  58  59    74  70  71    59  55  55    47  43  44    49  45  46    46  42  43    44  40  41    56  52  53    67  63  64    58  56  57    62  60  61    66  64  65    57  55  56    50  48  49    53  51  52    49  47  48    31  29  30    34  32  33    31  30  30     0   0   0     0   0   0     0   0   0    63  60  61    50  46  47    57  54  54    53  49  50    53  49  50    50  46  47    59  55  56    61  57  58    87  83  84    87  83  84    92  88  89    75  71  72    85  81  82   102  99 101   106 104 107   120 118 121    99  97 100    76  74  77    75  74  77    72  70  73    55  53  56    63  61  64   116 114 117   139 138 140   127 125 128   116 114 117   122 120 123  
   0   0   0     0   0   0     0   0   0     0   0   0     0   0   0     0   0   0     0   0   0     0   0   0     0   0   0     0   0   0     0   0   0     0   0   0     0   0   0     0   0   0     0   0   0     0   0   0     0   0   0     0   0   0     0   0   0     0   0   0    67  63  64    53  49  50    57  53  54    58  54  55    55  51  52    56  52  53    55  51  52    52  48  49    53  49  50    51  47  48    47  45  46    35  33  34    35  33  34    47  45  46    61  59  60    53  51  52    38  36  37    40  38  39    47  45  46    49  47  48     0   0   0     0   0   0    58  56  57    61  57  58    59  55  56    59  55  56    55  51  52    70  66  67    72  68  69    59  55  56    59  55  57    63  59  60    83  79  80    92  88  89    97  93  94   111 107 108   100  97  98    97  95  98    98  96  99    84  82  85    86  84  87    92  90  93    70  68  71    57  55  58    51  49  52    82  80  83   134 132 135   147 145 148   128 126 129   102 100 103  
   0   0   0     0   0   0     0   0   0     0   0   0     0   0   0     0   0   0     0   0   0     0   0   0     0   0   0     0   0   0     0   0   0     0   0   0     0   0   0     0   0   0     0   0   0     0   0   0     0   0   0     0   0   0     0   0   0     0   0   0    59  55  56    66  62  63    68  64  65    63  58  59    61  57  58    62  58  59    62  58  59    59  55  56    54  50  51    43  39  40    36  34  35    34  32  33    35  33  34    44  42  43    61  58  59    52  51  52    31  29  30    36  34  35    50  48  49    61  59  60    60  58  59     0   0   0    80  78  79    69  66  66    63  59  60    52  48  49    54  50  51    69  65  66    68  64  65    51  46  48    57  53  54    47  43  44    70  66  67    81  77  78   102  97  98   105 101 102    80  77  78    76  74  77    84  82  85    86  84  87    86  84  87    86  84  87    77  75  78    61  59  62    44  42  45    46  44  47    69  67  70    86  84  87    98  96  99    94  92  95  
   0   0   0     0   0   0     0   0   0     0   0   0     0   0   0     0   0   0     0   0   0     0   0   0     0   0   0     0   0   0     0   0   0     0   0   0     0   0   0     0   0   0     0   0   0     0   0   0     0   0   0     0   0   0     0   0   0    77  73  74    56  51  53    82  78  79    90  86  87    62  58  59    55  51  52    54  50  51    48  43  44    41  37  38    39  35  36    35  31  32    31  29  30    48  46  47    53  51  52    47  45  46    54  52  53    51  49  50    38  36  37    49  47  48    48  46  47    45  43  44    47  45  46    58  56  57    81  79  80    71  68  69    58  54  55    42  39  39    60  56  58    63  59  60    58  54  55    58  54  55    58  54  54    52  48  49    60  56  57    70  66  67    90  86  87    73  69  70    67  65  67    81  79  82    83  81  84    92  90  93    91  89  92    78  76  79    70  68  71    53  51  54    53  51  54    56  54  57    54  52  55    46  44  47    52  51  54    46  44  47  
   0   0   0     0   0   0     0   0   0     0   0   0     0   0   0     0   0   0     0   0   0     0   0   0     0   0   0     0   0   0     0   0   0     0   0   0     0   0   0     0   0   0     0   0   0     0   0   0     0   0   0     0   0   0     0   0   0    62  60  61    55  53  54    81  79  80    77  75  76    61  60  61    49  47  48    34  32  33    35  33  33    46  44  45    52  50  50    48  46  47    61  57  58    71  67  68    83  79  80    93  89  90    69  65  66    43  39  40    50  46  47    62  58  59    59  55  56    60  56  57    49  45  46    70  66  67    57  53  54    52  47  48    57  51  53    50  44  46    46  41  43    61  57  58    66  62  63    55  51  52    49  45  46    45  42  43    63  61  62    95  93  94   102 100 101    73  71  72    81  79  80    82  81  83    79  79  81    92  92  94   103 103 105    86  86  88    94  94  96    74  74  76    58  58  60    46  46  48    62  62  64    55  55  57    57  57  59    57  57  59  
   0   0   0     0   0   0     0   0   0     0   0   0     0   0   0     0   0   0     0   0   0     0   0   0     0   0   0     0   0   0     0   0   0     0   0   0     0   0   0     0   0   0     0   0   0     0   0   0     0   0   0     0   0   0    76  74  75    58  56  57    58  56  57    97  95  96    87  85  86    62  60  61    48  46  47    32  30  32    32  30  31    43  41  42    49  47  48    48  46  47    58  55  55    66  62  63    75  71  72    74  70  71    57  53  54    49  45  46    59  55  56    66  62  63    67  63  63    71  67  68    59  55  56    74  70  71    63  59  60    57  52  54    52  46  48    43  37  39    48  43  44    62  58  59    62  58  59    55  50  52    61  57  58    53  50  51    94  92  93   121 119 120   111 110 111   105 103 104   107 106 107   111 111 113   102 102 104   112 112 114   111 111 113   106 106 108   113 113 115    75  75  77    55  55  57    70  70  72    54  54  56    50  50  52    67  67  70    51  51  53  
   0   0   0     0   0   0     0   0   0     0   0   0     0   0   0     0   0   0     0   0   0     0   0   0     0   0   0     0   0   0     0   0   0     0   0   0     0   0   0     0   0   0     0   0   0    89  85  86    91  88  88    96  94  95    88  86  87    61  59  60    61  59  60    99  97  98    79  77  78    53  51  52    43  41  42    31  29  30    32  30  31    43  41  42    51  49  50    53  51  52    60  56  57    55  51  52    61  57  58    63  59  60    58  54  55    52  48  49    51  47  48    68  64  65    70  66  67    74  70  71    63  59  60    67  64  65    60  56  57    59  53  55    53  47  49    47  40  43    56  50  52    63  59  60    61  57  58    63  59  59    56  52  52    46  42  44   100  98  99    94  92  93    79  77  78   100  98  99   128 127 128   105 105 107    98  98 100    88  88  90    90  90  92   118 118 120   108 108 110    77  77  79    55  55  56    64  64  66    52  52  54    75  75  77    77  77  78    44  44  46  
   0   0   0     0   0   0     0   0   0     0   0   0     0   0   0     0   0   0     0   0   0     0   0   0     0   0   0     0   0   0     0   0   0    64  60  61    68  64  65    75  71  72   112 108 109   104 100 101    87  83  84    86  84  85    90  88  89    73  71  72    68  66  67    93  90  92    71  69  70    46  44  45    38  36  38    33  31  32    40  38  39    52  50  51    59  57  58    63  61  62    66  62  63    65  61  62    68  64  65    50  46  47    42  38  39    55  51  52    58  54  55    61  57  58    60  56  56    62  58  59    55  51  52    50  47  48    45  41  42    46  40  42    50  44  47    51  45  47    54  49  50    58  54  55    60  56  57    67  63  64    63  59  60    58  55  56    90  88  89    92  90  91   100  98  99   124 122 123   102 101 102   107 107 109   109 109 112   116 116 118   109 109 111   113 113 115   123 123 125    88  88  90    62  62  64    50  50  52    64  64  66    92  92  94    71  71  74    68  68  70  
   0   0   0     0   0   0     0   0   0     0   0   0     0   0   0     0   0   0     0   0   0    47  43  44    60  56  57    57  53  54    56  52  53    67  63  64    71  67  68    79  75  76   108 104 105   107 103 103    99  95  96   110 108 109   117 115 116   107 105 106    87  85  86    88  86  87    75  73  74    48  47  47    39  37  38    42  40  41    52  50  51    60  58  59    64  62  63    67  65  66   100  96  97    77  72  74    66  62  63    54  50  51    56  52  53    64  60  61    55  51  52    48  44  45    45  41  42    43  39  40    45  41  42    39  35  35    37  33  34    35  30  31    43  37  39    44  38  40    45  40  41    60  56  57    68  64  65    63  59  60    62  58  59    58  55  56   104 102 103   125 124 124   129 127 128    98  96  97   102 101 102   121 121 123   120 120 122   103 103 105   108 108 110   110 110 112   100 100 102    71  71  73    68  68  70    54  54  56    72  72  74    73  73  75    72  72  74   109 109 111  
   0   0   0     0   0   0     0   0   0    39  35  35    42  39  39    41  37  38    33  29  30    34  30  31    43  38  39    48  44  44    48  44  45    52  48  49    60  56  57    64  60  60    63  59  60    69  65  66    75  71  72    72  70  71    77  75  76    74  72  73    52  50  51    45  43  44    48  46  47    45  43  44    44  42  43    51  49  50    60  58  59    63  61  62    62  60  61    64  62  63    87  83  84    91  87  88    96  92  93    81  78  79    62  58  59    60  56  57    57  53  54    43  39  40    45  41  42    39  35  36    48  44  45    42  38  39    44  40  41    45  40  42    50  44  47    43  37  39    51  45  47    79  75  76    86  82  83    67  63  64    61  57  58    65  61  62    84  82  83    92  90  91    86  84  85   109 107 108   128 126 128   132 132 134   127 127 129   129 129 130   122 122 124    85  85  87    83  83  85    80  80  82    65  65  67    49  49  51    69  69  70    68  68  70    97  97  99   114 114 116  
  36  32  31    35  32  30    35  31  30    40  36  36    44  40  41    44  39  41    39  35  36    36  32  33    38  34  35    42  39  39    34  30  31    36  32  33    40  36  37    39  35  36    28  24  25    35  31  32    37  34  35    25  23  24    33  31  32    40  38  39    37  35  36    43  41  42    53  51  52    47  45  46    44  42  43    51  49  50    61  58  60    60  58  59    58  56  57    62  59  60    71  68  68    80  76  78    97  93  94   105 101 102    82  78  79    53  49  50    48  44  45    49  45  46    61  57  58    50  46  47    58  53  54    49  45  46    56  52  53    65  59  61    67  61  63    57  51  53    66  61  62    88  84  85    88  83  85    72  68  69    64  60  61    58  55  56    92  90  91   108 106 107   103 101 102    97  95  96   124 122 123   133 131 132   135 133 134   102 100 101    69  67  68    80  78  79   123 121 122   112 110 111    62  60  61    50  48  49    76  74  75    96  94  95   116 114 115   101  99 100  
   0   0   0    34  30  29    33  29  28    41  37  37    38  34  35    34  30  31    39  35  36    41  37  38    38  34  35    36  32  33    36  32  33    40  37  38    34  30  31    34  30  30    37  33  34    39  35  36    32  29  29    39  37  38    41  39  40    45  43  44    44  42  43    47  45  46    46  44  45    40  38  39    40  38  39    48  46  47    56  55  56    56  54  55    55  53  54    62  60  61    60  56  57    73  69  70    87  83  84    96  92  93    72  69  70    52  48  49    59  55  56    58  54  55    78  74  75    62  58  59    65  61  62    53  49  50    61  57  58    73  67  69    74  68  70    69  63  65    73  68  70    76  72  73    70  66  67    69  65  66    60  56  57    81  78  79   111 109 110   102 100 101   100  98  99   118 116 117   124 122 123   104 102 103    91  89  90    99  97  98   112 110 111   131 129 130   127 125 126   106 104 105    65  63  64     0   0   0     0   0   0     0   0   0     0   0   0     0   0   0  
   0   0   0     0   0   0    34  30  29    34  30  30    38  34  34    39  35  36    37  33  34    36  32  33    35  31  32    32  28  29    30  26  27    28  24  25    31  27  28    35  31  32    41  37  38    33  29  30    68  64  65    71  69  70    78  76  77    92  90  91    83  81  83    62  61  62    46  44  45    42  40  41    44  42  43    46  44  45    45  43  44    53  51  52    58  56  57    55  53  54    76  72  73    60  57  58    76  72  73    90  86  87    63  59  60    55  51  52    55  52  53    58  54  55    54  50  51    53  49  50    59  55  56    74  70  71    78  74  75    70  64  66    61  55  57    61  55  57    70  65  66    77  73  74    75  71  72    65  61  62    56  51  53    82  78  79   114 112 113   123 121 122   131 129 130     0   0   0     0   0   0     0   0   0     0   0   0     0   0   0     0   0   0     0   0   0     0   0   0     0   0   0     0   0   0     0   0   0     0   0   0     0   0   0     0   0   0     0   0   0  
   0   0   0     0   0   0     0   0   0    30  26  27    37  33  34    41  37  38    36  32  33    33  29  30    35  31  32    38  34  35    43  39  40    38  33  35    51  47  48    47  43  44    61  57  58    79  75  76    96  93  94    74  72  73    79  77  78    90  88  89    99  97  98    89  87  88    63  61  62    62  60  61    54  52  53    42  40  41    51  49  50    62  60  61    62  60  61    69  67  68    69  65  66    68  64  65    64  60  61    62  58  59    55  51  53    54  50  51    43  38  40    57  53  54    63  59  60    59  55  56    63  59  60    78  74  74    78  74  75    56  51  53    54  48  49    66  60  62    77  72  73    78  74  75    77  73  74    73  69  70     0   0   0     0   0   0     0   0   0     0   0   0     0   0   0     0   0   0     0   0   0     0   0   0     0   0   0     0   0   0     0   0   0     0   0   0     0   0   0     0   0   0     0   0   0     0   0   0     0   0   0     0   0   0     0   0   0     0   0   0  
   0   0   0     0   0   0     0   0   0     0   0   0    36  32  33    43  39  39    38  34  35    35  31  32    42  38  38    50  46  47    66  62  63    63  59  60    87  83  84    58  54  55    54  50  51    72  68  69    75  72  73    63  61  62    71  70  70    79  77  78    95  93  94    95  93  94    63  61  62    42  40  41    63  61  62    84  82  83    92  91  91    84  82  83    60  58  59    57  55  57    47  43  44    65  61  62    69  65  66    64  60  61    64  60  61    71  67  68    55  51  52    59  55  56    69  65  66    62  58  59    61  57  58    70  66  67    66  62  63    63  57  59    87  80  82    98  92  93    85  80  81    92  88  89    99  95  96    74  70  71    70  66  67    78  74  76   105 103 104     0   0   0     0   0   0     0   0   0     0   0   0     0   0   0     0   0   0     0   0   0     0   0   0     0   0   0     0   0   0     0   0   0     0   0   0     0   0   0     0   0   0     0   0   0     0   0   0     0   0   0  
   0   0   0     0   0   0     0   0   0     0   0   0     0   0   0    44  40  41    41  37  38    42  38  39    52  47  49    63  59  60    58  54  54    66  62  63    97  93  94    62  58  59    50  46  47    66  62  63    72  68  69    65  63  64    75  72  74    79  77  78    90  88  90    86  85  86    62  60  61    57  55  56    82  80  81    83  81  82    82  80  81    98  96  97    78  76  77    48  46  47    54  50  51    68  64  64    85  81  82    86  82  83    63  59  60    62  58  59    57  53  54    63  59  60    71  67  68    71  67  68    74  70  71    81  77  78    83  79  80    85  80  82    80  74  76    82  76  78    91  85  87    90  86  87    82  78  79    71  67  68    65  61  62    83  80  81   109 107 108   111 110 111   122 120 121   126 124 125   128 126 126   127 123 122   122 118 117     0   0   0     0   0   0     0   0   0     0   0   0     0   0   0     0   0   0     0   0   0     0   0   0     0   0   0     0   0   0     0   0   0  
   0   0   0     0   0   0     0   0   0     0   0   0     0   0   0     0   0   0     0   0   0    44  40  41    54  50  51    63  59  60    58  54  55    70  66  67    93  89  90    68  64  65    61  57  58    79  75  76   100  97  97    84  82  83    84  82  82    90  89  89   103 101 102    91  89  90    69  67  68    68  66  67    86  84  85    76  74  75    64  62  63    82  80  81    83  81  82    73  71  72    68  64  65    58  54  55    72  68  69    85  81  82    64  60  61    57  54  54    58  54  54    71  67  68    68  65  66    68  64  65    70  66  67    68  64  65    75  71  72    71  66  67    75  69  71    82  76  78    82  77  78    90  86  87    89  85  86    67  63  64    68  64  65    98  95  95   116 114 115   108 106 107   132 130 131   149 147 148   153 150 151     0   0   0     0   0   0     0   0   0     0   0   0     0   0   0     0   0   0     0   0   0     0   0   0     0   0   0     0   0   0     0   0   0     0   0   0     0   0   0  
   0   0   0     0   0   0     0   0   0     0   0   0     0   0   0     0   0   0     0   0   0     0   0   0     0   0   0    56  52  53    67  63  64    78  74  75    98  94  95    84  81  82    70  66  68    71  67  68   102  99 100    89  87  88    76  74  75    79  77  79   102 100 101    91  89  90    66  64  65    50  48  49    63  61  62    80  78  79    76  74  75    65  63  64    71  69  70    95  93  94    87  83  84    63  59  60    55  51  52    71  67  68    77  73  74    75  71  72    58  54  55    64  60  61    63  60  61    62  58  59    63  59  60    59  55  56    69  65  66    83  77  79    80  75  77    95  89  91   110 105 107    95  91  92    80  76  77    83  79  80    78  74  75   112 109 110   127 125 126   115 113 113   128 126 127     0   0   0     0   0   0     0   0   0     0   0   0     0   0   0     0   0   0     0   0   0     0   0   0     0   0   0     0   0   0     0   0   0     0   0   0     0   0   0     0   0   0     0   0   0  
   0   0   0     0   0   0     0   0   0     0   0   0     0   0   0     0   0   0     0   0   0     0   0   0     0   0   0     0   0   0     0   0   0    64  60  61    95  91  92    94  90  91    79  75  76    71  67  68    97  93  95    88  86  87    75  73  74    68  65  67    89  87  88    85  83  84    61  59  60    58  56  57    48  46  47    52  50  51    61  59  60    66  64  65    79  77  78    90  88  89   111 107 108    96  92  93    79  75  76    75  71  72    76  72  73    75  71  72    54  50  51    65  61  62    86  82  83    84  80  81    87  83  84    93  89  89   103  99 100   109 104 105   120 114 116   127 121 123   116 110 112   108 104 105   105 101 102    92  88  89    93  89  90   109 106 107   122 120 121   119 117 118   123 121 122    85  83  84    46  44  44     0   0   0     0   0   0     0   0   0     0   0   0     0   0   0     0   0   0     0   0   0     0   0   0     0   0   0     0   0   0     0   0   0     0   0   0     0   0   0  
   0   0   0     0   0   0     0   0   0     0   0   0     0   0   0     0   0   0     0   0   0     0   0   0     0   0   0     0   0   0     0   0   0     0   0   0     0   0   0     0   0   0    75  70  71    74  70  71    99  95  96   102  98  98    98  94  93    77  73  72    89  85  84    92  88  87    74  70  69    58  54  53    48  44  43    58  54  53    59  55  54    63  59  58    84  80  79    81  77  76    96  92  91   104 100  99   105 101 100    93  89  88    74  69  69    77  72  72    71  67  66    95  91  90   126 122 121   109 105 104    97  93  92    97  93  92    98  93  92    80  74  74    72  66  66    66  60  60    59  53  53    64  59  59    70  66  65    59  55  54   108 104 103    96  92  91   103  99  98   117 113 112   133 130 128    97  93  92    57  53  52    56  52  50    63  59  56    65  61  60     0   0   0     0   0   0     0   0   0     0   0   0     0   0   0     0   0   0     0   0   0     0   0   0     0   0   0     0   0   0  
   0   0   0     0   0   0     0   0   0     0   0   0     0   0   0     0   0   0     0   0   0     0   0   0     0   0   0     0   0   0     0   0   0     0   0   0     0   0   0     0   0   0     0   0   0     0   0   0     0   0   0     0   0   0   104  98  98   109 103 103   116 110 110    89  83  83    75  69  69    61  55  55    59  54  54    68  62  62    65  59  59    59  53  53    69  63  63    83  77  77    76  70  70    94  85  86   121 112 113   112 103 104    90  81  82    90  81  82   100  91  91   109 100 101    98  89  90    87  78  79    73  64  65    64  55  56    55  46  47    46  37  38    46  37  38    58  49  50    57  48  50    61  52  53    54  45  46    48  39  40    90  81  82   111 105 105   113 107 107   123 117 117   138 133 133   113 107 107    58  53  50    60  54  51    70  62  60    61  55  53    59  54  51     0   0   0     0   0   0     0   0   0     0   0   0     0   0   0     0   0   0     0   0   0     0   0   0     0   0   0  
   0   0   0     0   0   0     0   0   0     0   0   0     0   0   0     0   0   0     0   0   0     0   0   0     0   0   0     0   0   0     0   0   0     0   0   0     0   0   0     0   0   0     0   0   0     0   0   0     0   0   0     0   0   0     0   0   0     0   0   0   121 113 111   107  99  97    85  77  75    77  68  67    80  72  70    92  84  82   103  95  93   101  93  91    92  84  82    83  75  73    93  85  83   136 128 126   114 106 104   104  96  94   100  92  90    92  84  82    97  89  87    90  82  80    75  67  65    66  58  56    60  52  50    53  45  43    45  37  35    49  41  39    57  49  47    76  68  66    83  75  73    87  79  77    68  60  58    47  39  37    55  47  45    71  64  61    91  83  81    95  87  85   110 102 100   111 103 101    63  55  53    64  56  53    67  60  56    59  51  48    55  50  47    49  44  41     0   0   0     0   0   0     0   0   0     0   0   0     0   0   0     0   0   0     0   0   0     0   0   0  
   0   0   0     0   0   0     0   0   0     0   0   0     0   0   0     0   0   0     0   0   0     0   0   0     0   0   0     0   0   0     0   0   0     0   0   0     0   0   0     0   0   0     0   0   0     0   0   0     0   0   0     0   0   0     0   0   0     0   0   0   122 114 112   125 117 115   113 105 103    83  75  73    79  71  69    93  85  83   107  99  97   103  95  93    86  78  76    66  59  56    91  83  81   124 116 114    73  65  63    75  67  65    91  83  81    90  82  80    93  85  83    97  89  87    86  79  76    66  58  56    50  42  40    54  46  44    67  59  57    93  85  83    92  84  82    86  78  76     0   0   0    81  73  71    75  67  65    65  57  55    55  47  45    55  47  45    99  91  89   121 113 111   140 132 130   138 130 128    76  67  65    70  62  59    68  60  57    59  51  48    54  49  45    47  42  39    38  33  30    32  28  26    25  21  20    27  23  22    30  27  25     0   0   0     0   0   0     0   0   0  
   0   0   0     0   0   0     0   0   0     0   0   0     0   0   0     0   0   0     0   0   0     0   0   0     0   0   0     0   0   0     0   0   0     0   0   0     0   0   0     0   0   0     0   0   0     0   0   0     0   0   0     0   0   0     0   0   0     0   0   0   100  92  90   105  97  95    84  76  74    65  58  55    68  60  58    78  70  68    79  71  69    69  61  59    61  53  51    57  49  47    76  68  66    79  71  69    67  59  57    92  84  82   101  93  91   100  92  90    91  83  81   119 111 109    97  89  87    67  59  57    70  61  60    85  77  75    79  71  69    72  64  62    73  65  63     0   0   0     0   0   0     0   0   0    68  60  58    57  49  47    49  41  39    71  63  61   122 114 112   122 114 112   105  97  95   103  95  93    66  58  56    73  65  62    71  63  60    64  55  53    55  50  47    47  42  39    38  33  30    31  26  25    26  22  21    30  26  25    35  32  30    36  32  31    36  34  32    35  34  32  
   0   0   0     0   0   0     0   0   0     0   0   0     0   0   0     0   0   0     0   0   0     0   0   0     0   0   0     0   0   0     0   0   0     0   0   0     0   0   0     0   0   0     0   0   0     0   0   0     0   0   0     0   0   0     0   0   0     0   0   0    88  80  78    95  87  85   101  93  91    81  73  71    71  63  61    72  64  62    65  57  55    56  48  46    59  52  49    67  59  57    76  68  66    59  51  49     0   0   0    91  83  81    98  90  88   108 100  98    96  88  86   112 104 102   114 105 104    78  70  68    73  65  63    88  80  78    81  73  71    72  65  62    86  78  76     0   0   0     0   0   0     0   0   0    68  60  58    48  40  38    46  38  36    46  38  36    52  44  42    48  40  38    49  40  39    74  66  64    70  63  60    71  63  60    72  64  60    68  60  57    57  52  49    48  43  40    40  35  32    31  27  25    28  24  23    36  32  31    43  39  38    44  40  39    45  43  41    45  44  42  
   0   0   0     0   0   0     0   0   0     0   0   0     0   0   0     0   0   0     0   0   0     0   0   0     0   0   0     0   0   0     0   0   0     0   0   0     0   0   0     0   0   0     0   0   0     0   0   0     0   0   0     0   0   0     0   0   0     0   0   0   118 111 108   100  92  90    78  70  68    54  46  44    40  32  30    38  30  28    38  30  28    36  28  26    38  30  28    39  31  29    53  45  43    63  55  53     0   0   0     0   0   0    90  82  80    78  70  68    96  87  86   126 118 116   106  98  96    66  58  56    76  67  66   100  92  90    91  83  81    72  64  62     0   0   0     0   0   0     0   0   0     0   0   0     0   0   0    61  53  51    42  34  32    51  43  41    57  49  47    86  77  76   105  97  95   103  96  93    86  78  76    70  62  59    69  60  58    68  60  57    58  53  50    50  45  42    42  37  34    31  27  25    30  26  25    40  36  35    48  44  43    50  46  45    50  49  47    50  49  47  
   0   0   0     0   0   0     0   0   0     0   0   0     0   0   0     0   0   0     0   0   0     0   0   0     0   0   0     0   0   0     0   0   0     0   0   0     0   0   0     0   0   0     0   0   0     0   0   0     0   0   0     0   0   0     0   0   0     0   0   0   106  98  96    74  66  64    50  42  40    43  35  33    39  31  29    43  35  33    51  43  41    53  45  43    51  42  41    45  36  35    63  55  53    68  59  58     0   0   0     0   0   0     0   0   0    71  63  61   109 101  99   128 120 118   108  99  98    68  60  58    62  54  52    78  70  68    98  90  88     0   0   0     0   0   0     0   0   0     0   0   0     0   0   0     0   0   0     0   0   0    69  62  59   116 108 106   131 123 121   133 125 123   131 123 121   129 121 119   110 102 100    78  70  67    67  59  56    67  59  56    62  57  54    58  53  50    47  42  39    32  28  26    31  27  26    42  38  37    50  46  45    50  46  45    50  48  46    50  49  47  
   0   0   0     0   0   0     0   0   0     0   0   0     0   0   0     0   0   0     0   0   0     0   0   0     0   0   0     0   0   0     0   0   0     0   0   0     0   0   0     0   0   0     0   0   0     0   0   0     0   0   0     0   0   0     0   0   0     0   0   0    85  77  75    78  70  68    67  59  57    44  36  34    41  33  31    53  45  43    62  54  52    60  52  50    57  50  47    53  45  43    59  51  49    44  36  34     0   0   0     0   0   0     0   0   0     0   0   0   102  94  92   110 102 100    90  82  80    68  60  58    60  52  50    53  45  43    69  61  59     0   0   0     0   0   0     0   0   0     0   0   0     0   0   0     0   0   0     0   0   0    74  65  64   120 112 110   128 120 118   119 111 109   117 109 107   117 109 107   101  93  91    89  81  78    69  61  59    68  60  57    67  62  59    67  62  58    53  48  45    34  30  28    32  28  27    43  39  38    50  46  45    49  45  44    48  46  44    47  46  44  
   0   0   0     0   0   0     0   0   0     0   0   0     0   0   0     0   0   0     0   0   0     0   0   0     0   0   0     0   0   0     0   0   0     0   0   0     0   0   0     0   0   0     0   0   0     0   0   0     0   0   0     0   0   0     0   0   0     0   0   0   112 104 102    81  73  71    57  49  47    45  36  35    48  40  38    65  57  55    69  61  59    65  57  55    65  58  55    59  51  49    58  50  48    57  49  47     0   0   0     0   0   0     0   0   0     0   0   0    98  90  88   104  96  94    88  80  78    57  48  47    39  31  29    53  45  43     0   0   0     0   0   0     0   0   0     0   0   0     0   0   0     0   0   0     0   0   0     0   0   0     0   0   0   102  94  92   111 103 101   108 100  98   116 108 106   111 103 101    91  83  81    84  76  73    70  62  59    67  59  56    69  64  61    53  48  45    55  50  47    37  33  31    28  24  23    45  42  40    51  47  46    51  47  46    46  44  42    47  47  44  
   0   0   0     0   0   0     0   0   0     0   0   0     0   0   0     0   0   0     0   0   0     0   0   0     0   0   0     0   0   0     0   0   0     0   0   0     0   0   0     0   0   0     0   0   0     0   0   0     0   0   0     0   0   0     0   0   0     0   0   0   105  97  95    72  64  62    55  47  45    58  50  48    67  59  57    71  63  61    68  60  58    64  56  54    64  55  54    63  55  53    77  69  67     0   0   0     0   0   0     0   0   0     0   0   0     0   0   0     0   0   0   104  96  94    64  56  54    47  39  37    42  34  32     0   0   0     0   0   0     0   0   0     0   0   0     0   0   0     0   0   0     0   0   0     0   0   0     0   0   0     0   0   0     0   0   0   122 114 112   119 111 109   113 105 103   106  98  96    97  89  86    88  80  77    82  74  71    66  58  55    63  58  55    53  48  46    50  45  42    35  31  30    27  23  22    45  40  40    50  47  45    51  47  46    46  44  42    48  47  45  
   0   0   0     0   0   0     0   0   0     0   0   0     0   0   0     0   0   0     0   0   0     0   0   0     0   0   0     0   0   0     0   0   0     0   0   0     0   0   0     0   0   0     0   0   0     0   0   0     0   0   0     0   0   0     0   0   0     0   0   0   107  99  97    75  67  65    62  54  52    66  58  56    77  69  67    76  68  66    78  70  68    85  77  75    87  79  77    98  90  88    94  86  84     0   0   0     0   0   0     0   0   0     0   0   0     0   0   0     0   0   0     0   0   0    71  63  61    52  44  42     0   0   0     0   0   0     0   0   0     0   0   0     0   0   0     0   0   0     0   0   0     0   0   0     0   0   0     0   0   0     0   0   0     0   0   0     0   0   0   131 123 121   124 116 114   109 101  99   105  97  95    95  87  84    88  80  77    61  53  50    67  62  59    66  61  58    47  42  39    34  30  28    27  23  22    44  40  39    50  45  45    51  47  46    47  45  43    49  47  45  
   0   0   0     0   0   0     0   0   0     0   0   0     0   0   0     0   0   0     0   0   0     0   0   0     0   0   0     0   0   0     0   0   0     0   0   0     0   0   0     0   0   0     0   0   0     0   0   0     0   0   0     0   0   0     0   0   0     0   0   0    92  84  82    66  57  56    51  43  41    49  41  39    64  56  54    67  59  57    78  70  68    92  84  82    92  84  82   105  97  95    93  85  83     0   0   0     0   0   0     0   0   0     0   0   0     0   0   0     0   0   0     0   0   0     0   0   0    45  37  35     0   0   0     0   0   0     0   0   0     0   0   0     0   0   0     0   0   0     0   0   0     0   0   0     0   0   0     0   0   0     0   0   0     0   0   0     0   0   0   111 102 101   108 100  98   102  94  92   116 108 106    99  91  88    82  74  71    59  51  47    83  78  75    82  77  74    50  45  42    37  33  31    29  25  24    43  40  38    49  45  44    52  48  47    48  46  44    50  49  47  
   0   0   0     0   0   0     0   0   0     0   0   0     0   0   0     0   0   0     0   0   0     0   0   0     0   0   0     0   0   0     0   0   0     0   0   0     0   0   0     0   0   0     0   0   0     0   0   0     0   0   0     0   0   0     0   0   0     0   0   0    65  57  55    57  49  47    46  38  36    47  39  37    65  57  55    72  64  62    85  77  75    93  85  83    81  73  71    87  79  77    80  72  70     0   0   0     0   0   0     0   0   0     0   0   0     0   0   0     0   0   0     0   0   0     0   0   0     0   0   0     0   0   0     0   0   0     0   0   0     0   0   0     0   0   0     0   0   0     0   0   0     0   0   0     0   0   0     0   0   0     0   0   0     0   0   0     0   0   0     0   0   0     0   0   0     0   0   0     0   0   0    95  87  84    74  66  63    61  53  50    93  88  85    84  79  76    53  48  45    41  37  35    31  27  26    44  40  39    49  45  44    52  48  47    48  46  45    50  49  47  
   0   0   0     0   0   0     0   0   0     0   0   0     0   0   0     0   0   0     0   0   0     0   0   0     0   0   0     0   0   0     0   0   0     0   0   0     0   0   0     0   0   0     0   0   0     0   0   0     0   0   0     0   0   0     0   0   0     0   0   0    35  27  25    41  33  31    34  26  24    49  41  39    66  58  56    75  67  65    87  78  77    88  80  78    75  67  65    75  67  65    65  57  55     0   0   0     0   0   0     0   0   0     0   0   0     0   0   0     0   0   0     0   0   0     0   0   0     0   0   0     0   0   0     0   0   0     0   0   0     0   0   0     0   0   0     0   0   0     0   0   0     0   0   0     0   0   0     0   0   0     0   0   0     0   0   0     0   0   0     0   0   0     0   0   0     0   0   0     0   0   0     0   0   0     0   0   0     0   0   0     0   0   0    76  71  68    58  53  50    45  41  39    32  28  27    43  39  38    48  44  43    51  47  46    47  45  43    49  47  45  
