P3
50 63
255
   0   0   0     0   0   0     0   0   0     0   0   0     0   0   0     0   0   0     0   0   0     0   0   0     0   0   0     0   0   0     0   0   0     0   0   0     0   0   0     0   0   0     0   0   0     0   0   0     0   0   0     0   0   0     0   0   0     0   0   0     0   0   0     0   0   0     0   0   0     0   0   0    22   4   6    19   1   3    31  13   5    30  17   2    21  14   1    12   4   1    32  10   1    52  24   6    42  18   1    25   1   1    31   8   5    28   6   5     0   0   0     0   0   0     0   0   0     0   0   0     0   0   0     0   0   0     0   0   0     0   0   0     0   0   0     0   0   0     0   0   0     0   0   0     0   0   0     0   0   0  
   0   0   0     0   0   0     0   0   0     0   0   0     0   0   0     0   0   0     0   0   0     0   0   0     0   0   0     0   0   0     0   0   0     0   0   0     0   0   0     0   0   0     0   0   0     0   0   0     0   0   0     0   0   0     0   0   0     0   0   0     0   0   0     0   0   0    60  16   1    53   6   1    68  19   1    46   5   1    65  40   1    89  69  25    59  36   8    28   1   1    54   4   1   127  76  39   101  66  29    71  41  15    46  14   1    31   1   1    45   1   1     0   0   0     0   0   0     0   0   0     0   0   0     0   0   0     0   0   0     0   0   0     0   0   0     0   0   0     0   0   0     0   0   0     0   0   0     0   0   0  
   0   0   0     0   0   0     0   0   0     0   0   0     0   0   0     0   0   0     0   0   0     0   0   0     0   0   0     0   0   0     0   0   0     0   0   0     0   0   0     0   0   0     0   0   0     0   0   0     0   0   0     0   0   0     0   0   0     0   0   0     0   0   0   202 141  54    88  20   1   134  60  29   192 113  72   116  48   1   133  88  11   187 145  72   139  80  38    75   4   1   133  54   1   198 126  62   125  72  14   128  80  32    96  36   3    89  19   1   110  25   1   197 119  67     0   0   0     0   0   0     0   0   0     0   0   0     0   0   0     0   0   0     0   0   0     0   0   0     0   0   0     0   0   0     0   0   0     0   0   0  
   0   0   0     0   0   0     0   0   0     0   0   0     0   0   0     0   0   0     0   0   0     0   0   0     0   0   0     0   0   0     0   0   0     0   0   0     0   0   0     0   0   0     0   0   0     0   0   0     0   0   0     0   0   0     0   0   0   244 130  26   217 116  35   119  27   1    94   9   1   207 121  72   194 100  52   100   9   1   158  84   3   177  96  16   125  14   1   192  75  28   242 142  73   230 147  73   142  73   8    86   6   1   129  15   1   211  85  33   242 121  51   233 130  62   153  85  37     0   0   0     0   0   0     0   0   0     0   0   0     0   0   0     0   0   0     0   0   0     0   0   0     0   0   0     0   0   0     0   0   0  
   0   0   0     0   0   0     0   0   0     0   0   0     0   0   0     0   0   0     0   0   0     0   0   0     0   0   0     0   0   0     0   0   0     0   0   0     0   0   0     0   0   0     0   0   0     0   0   0     0   0   0   221 119  20   240 130  13   229 125   9   193 104  11   159  82  10   139  68  14   174 101  17   197 111  33   198 107  23   214 125  26   208 111  16   214 101  27   169  62  10   187 108  16   210 146  50   215 154  69   107  31   1   182  73  15   245 127  54   195  81  15   161  63   1   108  30   1   111  35  11     0   0   0     0   0   0     0   0   0     0   0   0     0   0   0     0   0   0     0   0   0     0   0   0     0   0   0     0   0   0  
   0   0   0     0   0   0     0   0   0     0   0   0     0   0   0     0   0   0     0   0   0     0   0   0     0   0   0     0   0   0     0   0   0     0   0   0     0   0   0     0   0   0     0   0   0     0   0   0   229 172  76   253 200  96   230 168  39   209 154  16   189 143  16   177 136  17   183 142  23   208 161  43   241 182  68   229 157  43   218 132  16   235 146  35   236 154  58   222 156  57   216 172  57   203 168  50   188 149  40   187 136  39   232 163  65   222 144  53   167  90  29   160  84  11   158  85   4   221 139  57   217 116  31   218 112  33     0   0   0     0   0   0     0   0   0     0   0   0     0   0   0     0   0   0     0   0   0     0   0   0  
   0   0   0     0   0   0     0   0   0     0   0   0     0   0   0     0   0   0     0   0   0     0   0   0     0   0   0     0   0   0     0   0   0     0   0   0     0   0   0     0   0   0   179 154  68   193 165  79   224 191 105   223 197 100   168 140  20   147 123   1   160 140   9   140 121   1   166 145  15   200 176  47   207 175  51   196 153  35   202 142  29   228 165  54   219 164  50   227 183  63   212 178  50   186 159  30   177 153  30   223 197  83   208 176  74   170 134  37   195 152  58   215 168  70   203 154  46   201 149  40   189 134  31   157 100   3   185 125  35     0   0   0     0   0   0     0   0   0     0   0   0     0   0   0     0   0   0     0   0   0  
   0   0   0     0   0   0     0   0   0     0   0   0     0   0   0     0   0   0     0   0   0     0   0   0     0   0   0     0   0   0     0   0   0     0   0   0   132 100  30   143 113  45   147 119  51   184 159  91   168 148  72   161 145  59   188 177  78   159 149  43   153 144  31   181 170  55   198 186  69   162 151  34   140 128  12   202 182  74   199 165  65   179 142  41   192 157  49   184 149  38   166 133  18   149 119   5   202 180  67   197 183  77   156 144  54   107  91   7   176 152  65   203 176  80   159 130  26   145 120  15   145 130  31   152 134  43   157 128  40   141 108  27     0   0   0     0   0   0     0   0   0     0   0   0     0   0   0     0   0   0  
   0   0   0     0   0   0     0   0   0     0   0   0     0   0   0     0   0   0     0   0   0     0   0   0     0   0   0     0   0   0   128  96  47   121  86  29   130  93  29   148 110  47   152 117  60   119  88  32   127 102  41   135 118  50   165 153  79   182 174  95   205 195 112   233 221 137   159 146  68   221 209 126   175 164  73   159 146  51   167 150  61   145 124  40   145 117  42   118  86  16    93  57   3    75  42   4   131 105  23   152 130  50   129 108  45   225 203 148   210 185 132   137 112  60    93  68  15   111  89  34    93  74  15   129 105  50   164 126  77   160 118  76   173 140 105     0   0   0     0   0   0     0   0   0     0   0   0     0   0   0  
   0   0   0     0   0   0     0   0   0     0   0   0     0   0   0     0   0   0     0   0   0     0   0   0   204 187 162   182 166 138   124 105  76   164 140 107   170 139  98   132  97  53    90  53  11    92  58  11   114  86  29   114  92  34   125 109  56   131 120  65   156 148  85   164 156  88   151 138  74   192 176 109   161 143  64   115 100  17   120 108  31   139 127  55   136 117  52   126 103  46   122  94  47   125  95  51   143 112  67   156 124  83   155 122  89   203 170 145   189 161 139   201 175 155   190 166 143   188 160 137   166 132 106   217 175 150   186 135 114   162 108  92   167 121 112   116  77  71     0   0   0     0   0   0     0   0   0     0   0   0  
   0   0   0     0   0   0     0   0   0     0   0   0     0   0   0     0   0   0   174 145 134   220 194 185   241 230 218   230 221 207   215 210 196   237 228 213   240 223 203   222 204 180   146 111  82   108  71  32   129  94  40   100  71  16   107  85  46   128 113  75   111 104  50   122 118  55   134 123  59   120 100  34   104  77  12   102  77   6   112 100  32   107 100  32   123 112  42   147 131  69   141 122  72   170 145 111   214 181 164   203 165 155   194 152 142   188 148 141   147 113 114   180 152 151   200 174 164   177 146 133   184 138 131   189 135 129   113  57  46    99  45  37   119  67  72   105  60  65    76  38  34     0   0   0     0   0   0     0   0   0  
   0   0   0     0   0   0     0   0   0     0   0   0   226 216 194   238 227 206   240 221 204   232 212 200   207 187 182   219 205 202   229 224 217   212 206 194   200 188 169   232 217 193   224 193 169    95  59  28   124  86  40   102  67  19   123  93  56   147 126  89   104  93  41    88  82  25   101  89  34    90  72  17    81  54   1   106  80  21    81  72  14    57  51   5   113 101  28   128 109  41   121  96  48   140 110  79   171 137 118   149 113  98   144 108  94   151 115 107    82  49  55    84  54  61   141 115 108   114  89  76    80  50  39    88  57  43   117  86  66    99  68  51    64  30  31    60  26  32    79  46  44     0   0   0     0   0   0     0   0   0  
   0   0   0     0   0   0   251 237 231   241 228 219   220 209 192   216 205 184   230 215 195   225 207 193   211 191 186   174 156 153   221 208 199   217 207 189   137 122  99   136 118  92   124  98  73    79  48  18    91  52  13   108  70  31   100  65  33    97  68  34   120 104  59   105  96  46   100  87  43   101  86  42   138 117  73   103  81  37    57  45   1    52  41   1   120 102  37   132 109  48    88  54  18    94  58  33   120  86  60   136 104  79   138 107  87   101  69  58    62  28  34    78  43  53   124  93  90   119  92  81   100  81  67    83  67  48    78  63  37    85  68  45    52  30  26    58  31  33    74  43  40   122  88  79     0   0   0     0   0   0  
 144 125 102   151 129 110   211 187 175   218 193 186   192 164 160   234 209 204   240 222 212   225 211 200   217 206 193   181 168 151   180 160 135   191 167 141   136 114  91    54  32  10    40  16   3    52  26   1    69  40   3    68  34   1    71  36  14    95  63  43   114  91  61   124 108  73   126 113  76    97  84  50    66  52  26    50  34  11    61  40  18    90  66  38    99  76  36    87  63  24    81  49  30   117  84  70   126  92  65   133  99  72    84  51  32    56  19   9    95  57  56   143 102 104   130  90  89   114  76  72   130  94  90   108  78  70    96  67  53    98  70  55    69  39  30    92  59  50    83  51  34    80  45  27   141 105  86   190 152 142  
 174 156 135   199 175 158   184 163 148   155 134 123   194 169 163   199 178 172   187 174 165   222 214 202   235 227 212   233 221 203   198 180 156   205 185 162   205 184 171   147 130 119   126 106  88    78  58  37    35  13   1    46  22   1    51  26  12    48  24  11    45  25   7    67  51  25    77  64  29    52  40  11    35  22   4    61  46  26    55  36  17    52  31  10    65  43  16    58  39  16    46  24  12    58  34  22    63  39  17    44  17   1    57  26  10   101  66  47   110  75  55    99  64  44   100  66  45   102  68  49   105  71  58    98  66  51   114  83  60    93  62  36    69  38  12    89  60  31    69  42   7    54  27   7   103  76  43   105  77  51  
 236 217 207   206 185 174   170 156 142   134 124 109   174 161 147   158 148 134   190 186 171   177 174 159   176 165 151   230 218 203   211 202 187   182 173 160   219 208 198   240 230 222   244 228 217   206 189 173    49  34  16    19   5   1    32  18   1    32  19   1    38  26   4    54  42  11    62  50   6    55  41   2    47  32   4    61  47  11    57  46   8    50  40   4    60  47  17    54  41  19    56  45  22    67  55  30    64  52  27    63  46  26   104  81  46   130 104  63   119  94  44   117  95  40   110  91  35   108  90  38   120  99  59   124 101  63   134 110  63   137 114  61   121 101  47   133 115  58   137 121  63   136 123  66   146 132  78     0   0   0  
   0   0   0   201 183 166   183 168 154   144 132 116   214 202 185   236 227 211   241 233 222   231 224 209   109  98  74   153 144 119   246 242 222   164 161 140   110 106  75   161 155 125   204 195 177   234 223 198   126 118  67   108 102  50   135 128  71   134 124  68   140 131  67   150 141  71   151 141  66   154 142  69   158 145  77   167 155  86   158 151  72   157 151  75   158 150  92   156 147  94   160 152  96   167 160  99   170 163  99   176 167 101   176 166  95   181 170  93   178 169  82   176 170  78   171 166  72   177 174  85   188 179 106   182 173 102   186 176  97   183 174  89   178 170  84   182 176  89   185 180  93   184 179  92     0   0   0     0   0   0  
   0   0   0   219 204 181   249 243 227   227 215 199   227 214 197   210 198 182   184 173 161   242 231 215   195 185 158   162 155 126   236 232 206   191 187 158   112 110  69   126 122  84   190 183 157   202 194 159   188 184 114   197 193 105   196 191 101   199 194 102   197 191  97   191 185  88   191 187  88   201 196 100   207 199 112   204 197 108   200 196  98   201 199 100   198 194 109   196 191 111   197 193 108   197 193 104   197 194  99   198 198  99   194 194  96   194 196  94   193 196  86   187 192  77   185 189  73   188 194  82   192 193  94   184 185  90   191 193  90   189 191  85   188 190  84   189 191  85   190 193  87   191 193  88     0   0   0     0   0   0  
   0   0   0     0   0   0   218 205 186   205 192 174   188 176 158   183 172 153   103  93  72   139 131 111   234 225 209   228 219 201   193 186 160   217 206 179   210 199 178   202 189 170   217 205 181   217 206 170   202 193 135   211 206 126   210 208 108   210 209 103   207 207 109   205 206 109   202 205 105   201 203 108   201 201 113   201 202 111   210 211 109   205 207 102   201 202 105   201 202 105   204 205 104   204 207 102   201 204  97   199 202  95   199 201 100   206 211 110   205 211 106   199 205  96   201 208  95   206 215 100   206 212 106   200 206 103   197 202  99   200 206 100   202 209 103   204 210 104   204 211 107     0   0   0     0   0   0     0   0   0  
   0   0   0     0   0   0     0   0   0   182 173 142   182 176 131   117 115  60   135 134  71   132 131  71   202 197 155   236 230 193   181 173 136   204 192 164   241 225 215   241 225 216   241 228 203   240 228 193   239 228 186   211 206 142   209 209 113   211 216 104   216 221 115   218 224 119   215 222 117   208 215 115   205 211 116   205 211 115   211 217 112   203 209 101   200 205 103   201 207 104   203 209 103   205 212 103   207 214 105   204 212 105   205 210 112   211 217 122   209 214 119   205 212 112   209 216 111   209 217 111   207 214 113   210 217 116   205 215 111   207 216 112   206 215 110   203 213 108     0   0   0     0   0   0     0   0   0     0   0   0  
   0   0   0     0   0   0     0   0   0     0   0   0   120 121  49    92  98   6   181 188  82   195 202 100   195 198 117   195 195 131   193 188 139   226 217 185   218 206 196   215 201 193   186 176 148   207 197 163   234 224 194   230 224 178   213 213 130   212 218 110   211 219 102   210 219  99   210 219 101   210 220 105   212 221 109   213 222 111   211 221 107   205 215 101   208 216 108   212 221 113   211 219 110   213 222 113   218 226 118   216 225 121   215 221 125   214 221 128   212 218 126   213 220 124   215 223 124   210 218 118   208 215 119   214 221 125   208 219 117   206 218 114   204 216 111   203 215 111     0   0   0     0   0   0     0   0   0     0   0   0  
   0   0   0     0   0   0     0   0   0     0   0   0   136 134  86   173 175 104   194 200 107   175 182  87   196 200 125   193 194 137   204 204 160   220 217 188   223 218 205   191 184 171   144 139 113   158 152 123   206 198 179   234 227 197   219 217 157   196 200 107   182 191  66   188 198  56   191 200  61   186 196  56   191 201  60   202 212  74   196 208  73   190 203  72   200 211  87   208 219  99   205 216  98   206 216 100   211 220 107   208 218 106   208 217 108   205 214 107   207 216 109   213 222 114   214 223 115   211 220 115   210 218 117   211 219 119   210 221 117   210 221 116   212 223 119     0   0   0     0   0   0     0   0   0     0   0   0     0   0   0  
   0   0   0     0   0   0     0   0   0     0   0   0     0   0   0   243 242 201   221 223 158   207 210 141   223 224 172   212 212 175   215 215 187   230 231 212   220 218 203   232 229 214   239 237 217   209 206 186   214 208 196   221 214 195   230 225 185   202 202 128   181 187  63   180 190  39   186 195  43   183 193  37   184 192  30   185 196  34   182 198  40   174 191  39   183 199  53   192 207  68   186 199  66   185 198  67   189 202  71   185 198  68   186 199  69   184 198  65   190 202  70   193 206  76   191 202  73   188 199  75   186 195  77   175 186  69   176 187  70   178 190  73   184 195  79     0   0   0     0   0   0     0   0   0     0   0   0     0   0   0  
   0   0   0     0   0   0     0   0   0     0   0   0     0   0   0     0   0   0   207 206 163   204 203 159   205 200 173   229 226 210   233 229 223   229 225 220   221 217 206   223 219 207   212 208 197   206 202 193   233 226 216   234 228 212   229 223 197   228 225 170   188 192  85   179 186  51   195 203  57   189 199  44   196 207  43   188 202  32   184 200  30   179 197  27   184 201  33   175 192  27   168 184  26   163 178  22   160 175  19   157 172  16   157 173  13   153 169  10   150 164   6   149 165   7   152 165  13   151 166  15   149 161  14   143 157  11   136 150   4   140 155   9     0   0   0     0   0   0     0   0   0     0   0   0     0   0   0     0   0   0  
   0   0   0     0   0   0     0   0   0     0   0   0     0   0   0     0   0   0     0   0   0   194 189 167   208 201 190   226 218 213   235 225 221   224 214 205   192 183 168   179 170 155   218 209 200   177 169 160   188 181 165   219 213 192   234 228 205   222 218 176   187 188 114   160 165  68   150 157  47   148 157  36   143 152  22   147 159  20   147 159  12   148 163  10   144 157   1   150 166   5   147 160   4   147 162   6   147 160   3   149 163   5   143 158   1   142 156   1   140 154   1   140 154   1   141 154   1   143 156   3   143 157   2   143 157   2   146 159   5     0   0   0     0   0   0     0   0   0     0   0   0     0   0   0     0   0   0     0   0   0  
   0   0   0     0   0   0     0   0   0     0   0   0     0   0   0     0   0   0     0   0   0   198 191 174   204 196 184   192 181 169   162 147 130   169 153 130   148 133 109   162 147 126   200 186 172   224 212 198   202 193 170   181 174 147   167 161 133   141 137 105   212 210 170   216 216 168   195 198 137   157 164  91   156 163  84   180 187  99   158 163  62   128 133  21   148 154  28   139 148  13   137 145   9   141 151  14   143 152  12   141 153  13   138 149   9   137 149   9   136 146   9   134 145   8   133 143   7   133 144   5   134 147   1   135 148   1   136 145   1     0   0   0     0   0   0     0   0   0     0   0   0     0   0   0     0   0   0     0   0   0  
   0   0   0     0   0   0     0   0   0     0   0   0     0   0   0     0   0   0     0   0   0     0   0   0   163 160 111   152 144  94   131 118  73   141 124  82   130 112  76   179 163 133   206 190 168   224 209 188   217 207 181   206 199 170   135 130 100    69  64  38   187 180 165   250 245 230   234 230 206   220 220 189   221 221 187   242 240 200   234 231 179   187 184 117   158 157  74   169 170  74   173 178  74   154 160  51   151 157  46   156 163  49   146 153  37   145 154  36   144 153  37   142 150  37   140 148  35   138 147  28   138 148  18   138 149  15     0   0   0     0   0   0     0   0   0     0   0   0     0   0   0     0   0   0     0   0   0     0   0   0  
   0   0   0     0   0   0     0   0   0     0   0   0     0   0   0     0   0   0     0   0   0     0   0   0   133 134  58   134 130  52   123 112  47    93  78  24    92  78  33   161 145 112   178 163 137   182 167 144   236 224 200   160 151 123   148 141 112   129 121  98   174 165 156   210 202 196   236 227 217   219 212 200   185 178 166   193 186 171   240 232 212   249 241 209   180 175 124   117 116  50   156 157  84   146 147  67   115 117  32   148 153  60   144 150  49   145 152  47   146 153  49   144 152  50   143 149  50   139 148  42   139 148  32   137 148  25     0   0   0     0   0   0     0   0   0     0   0   0     0   0   0     0   0   0     0   0   0     0   0   0  
   0   0   0     0   0   0     0   0   0     0   0   0     0   0   0     0   0   0     0   0   0   219 214 164   146 144  68   131 130  50   103  95  30    87  78  23   135 123  81   166 153 121   153 141 116   184 172 154   174 164 145   189 178 158   199 189 163   198 188 160   153 140 119   195 182 161   217 205 181   210 195 172   173 158 138   108  95  77   200 188 171   246 238 215   230 225 185   115 113  60    85  83  24   103 104  35   127 131  53    81  86   6   120 127  22   124 134  20   128 138  25   127 139  29   127 137  31   124 136  27   128 138  23   128 142  23     0   0   0     0   0   0     0   0   0     0   0   0     0   0   0     0   0   0     0   0   0     0   0   0  
   0   0   0     0   0   0     0   0   0     0   0   0     0   0   0     0   0   0     0   0   0   146 145  64   118 120  22   112 114  21   104  98  34   142 133  87   179 169 129   143 134  97   169 158 125   171 161 131   109  99  75   203 193 168   238 228 197   205 196 160   167 155 117   158 147 103   142 131  82   126 113  67   190 174 137   127 112  80   116 104  71   146 137 102   126 118  82   126 121  75   114 111  49   110 110  32   149 152  58   160 167  59   146 155  36   153 163  39   159 170  48   162 174  55   161 172  59   165 177  62   168 183  56   171 188  60     0   0   0     0   0   0     0   0   0     0   0   0     0   0   0     0   0   0     0   0   0     0   0   0  
   0   0   0     0   0   0     0   0   0     0   0   0     0   0   0     0   0   0     0   0   0   120 127   2   125 134   7   131 137  31   134 126  65   223 210 172   174 162 124   124 114  72   110 103  49   107  99  47   121 114  73   194 186 147   179 172 127   150 144  94   204 196 147   167 159 103   100  92  25   107  98  30   111  99  42    97  86  33   118 107  52   129 118  69    81  70  33   173 164 121   148 143  75   116 116  30   155 159  49   190 199  75   189 198  70   189 200  70   188 200  72   195 206  84   193 203  89   194 206  87   193 209  74   192 210  71     0   0   0     0   0   0     0   0   0     0   0   0     0   0   0     0   0   0     0   0   0     0   0   0  
   0   0   0     0   0   0     0   0   0     0   0   0     0   0   0     0   0   0     0   0   0   144 155  11   118 126   5   102 106  14   113 104  48   124 111  70   151 140  97   155 145  93   122 118  47   115 111  37    83  79  18   129 126  67   143 142  76   139 136  75   192 184 144   163 154 113   111 102  43   146 138  66   161 154  72   112 105  26   106  97  34   158 150  98   162 152 111   237 230 185   191 186 124    79  77   4   147 149  60   171 177  74   182 191  76   201 212  91   183 194  70   193 206  86   204 214 107   187 201  89   191 207  81   185 203  69     0   0   0     0   0   0     0   0   0     0   0   0     0   0   0     0   0   0     0   0   0     0   0   0  
   0   0   0     0   0   0     0   0   0     0   0   0     0   0   0     0   0   0   166 178  21   164 173  28   148 154  44    87  89   6   145 136  77    72  60  10   101  90  38   194 185 123   148 146  60    68  68   5    82  82   4   118 119  42   157 160  72   193 194 119   242 233 197   204 195 166   147 140  87   167 161  87   145 143  43   106 104   5    95  91  20    94  88  36   143 136  90   167 160 114   179 173 121   133 131  69   113 114  45   123 127  42   196 204 100   199 210  96   205 218  99   184 196  83   163 175  76   194 206 107   194 208  98     0   0   0     0   0   0     0   0   0     0   0   0     0   0   0     0   0   0     0   0   0     0   0   0     0   0   0  
   0   0   0     0   0   0     0   0   0     0   0   0     0   0   0     0   0   0   141 151   6   181 189  53   139 146  33   110 111  19   106 101  26   128 118  55   142 135  72   211 204 132   150 151  54   130 132  31   114 117  30   148 151  64   187 194  91   186 191 100   188 184 135   172 165 125   115 112  50   122 120  38   124 125  21    92  93   7    97  95  21   109 104  49   160 154 107   142 137  90   126 123  69   198 199 135   203 206 128   197 203 109   215 224 112   202 213  95   225 237 123   169 180  75    71  81   1   147 157  69   206 218 118     0   0   0     0   0   0     0   0   0     0   0   0     0   0   0     0   0   0     0   0   0     0   0   0     0   0   0  
   0   0   0     0   0   0     0   0   0     0   0   0     0   0   0     0   0   0   167 172  55   160 163  60   177 179  93   211 210 132   162 157  80   200 193 120   147 140  71   151 148  68   198 201  98   167 171  62   158 162  65   214 219 123   209 216 111   166 171  78   127 126  68    94  91  40   101 102  29   131 135  44   211 214 110   185 187  87   161 159  81   143 140  75   158 154 100   140 138  83   175 174 108   212 215 133   204 209 110   198 206  94   191 200  78   193 204  83   184 194  82   103 113  15    79  88   9   156 166  74   164 176  73     0   0   0     0   0   0     0   0   0     0   0   0     0   0   0     0   0   0     0   0   0     0   0   0     0   0   0  
   0   0   0     0   0   0     0   0   0     0   0   0     0   0   0     0   0   0   135 134  49   175 173 101   203 201 143   191 187 127   200 197 121   164 160  81   122 116  44   193 190 111   208 210 109   199 204  94   205 210 107   191 196  95   218 224 123   183 188  97    66  67   9    57  58   5   136 140  56   195 201 105   204 210 110   220 226 128   196 195 110   115 113  38    66  63  17    64  62   9   154 155  71   182 187  85   177 183  64   175 185  57   170 179  55   188 198  80   160 168  60    97 105   9   112 119  19   169 178  74   189 200  90     0   0   0     0   0   0     0   0   0     0   0   0     0   0   0     0   0   0     0   0   0     0   0   0     0   0   0  
   0   0   0     0   0   0     0   0   0     0   0   0     0   0   0   157 159  52   160 162  64   151 151  64   140 140  67   168 165  93   182 181  95   144 142  57   143 139  67   194 191 121   195 194 113   215 218 128   220 224 127   199 205 104   191 197  97   146 151  55    87  91  13    93  98  22   184 189 100   214 220 128   199 205 116   182 186  98   158 158  69   121 120  32    62  60   1    89  87  12   193 193  99   204 208 102   199 202  89   195 200  85   184 188  80   190 197  92   194 199  96   179 186  80   136 143  33   156 163  49   190 198  84     0   0   0     0   0   0     0   0   0     0   0   0     0   0   0     0   0   0     0   0   0     0   0   0     0   0   0  
   0   0   0     0   0   0     0   0   0     0   0   0     0   0   0   166 168  59   148 151  45   159 161  64   125 127  44   132 132  56   128 127  46   161 158  80   121 118  49   147 143  77   219 218 150   194 195 120   196 200 113   210 215 121   116 121  26    54  59   3   172 179  85   196 203 110   199 205 117   192 197 112   204 209 129   147 150  69   129 127  40   146 142  51   169 168  78   183 181  90   166 165  74   176 175  83   191 190  97   176 175  83   182 182  90   186 187  96   181 181  87   188 190  89   172 176  65   177 181  67   179 183  73     0   0   0     0   0   0     0   0   0     0   0   0     0   0   0     0   0   0     0   0   0     0   0   0     0   0   0  
   0   0   0     0   0   0     0   0   0     0   0   0     0   0   0    87  84   3    95  94  12   134 132  57   125 123  61    82  79  27   137 131  85   167 162 108   107 104  35   127 126  48   179 180 102   169 170  90   180 182  98   135 137  54   130 133  53   115 118  38   153 158  68   168 173  82   162 165  84   174 177  98   155 159  75   180 182  98   115 113  30   124 119  35   191 187 100   145 140  59   133 126  57    77  69   5   139 132  65   151 144  73   149 144  63   159 157  70   143 139  52   127 125  34   134 133  41   140 139  44   139 138  46   156 157  64     0   0   0     0   0   0     0   0   0     0   0   0     0   0   0     0   0   0     0   0   0     0   0   0  
   0   0   0     0   0   0     0   0   0     0   0   0     0   0   0    79  74  17    79  75  13   119 113  62   145 140 104   191 185 156   217 208 184   201 193 158   176 173 109   105 105  26   142 143  63   154 155  76   108 108  34   121 121  48   167 168  97   139 142  65   136 141  50   152 157  62   144 147  61   141 144  62   143 146  64   104 106  25   112 108  31   141 137  57   120 116  36   127 121  49   117 108  53   106  96  47   122 113  58   131 124  58   125 120  41   140 136  51   144 140  59   139 134  55   146 144  62   147 145  61   141 139  55   151 149  66     0   0   0     0   0   0     0   0   0     0   0   0     0   0   0     0   0   0     0   0   0     0   0   0  
   0   0   0     0   0   0     0   0   0     0   0   0     0   0   0     0   0   0    90  83  35   149 142 108   228 219 203   222 214 202   220 211 198   221 214 186   157 154  98    96  96  24    91  91  18   107 108  33   124 123  57   171 170 105   133 132  65   132 133  56   136 140  46   142 147  47   133 137  43   136 139  51     0   0   0    97  98  22   134 131  55   132 130  51   107 104  26   129 125  56   129 121  70   173 166 118   180 173 117   150 145  78   140 137  59   144 142  61   152 148  73   155 151  77   155 152  70   161 159  74   165 163  79   165 164  77   169 169  81     0   0   0     0   0   0     0   0   0     0   0   0     0   0   0     0   0   0     0   0   0  
   0   0   0     0   0   0     0   0   0     0   0   0     0   0   0     0   0   0   173 165 126   210 202 177   185 176 162   178 170 156   194 186 170   218 212 186   189 184 142   124 121  65    95  94  27   152 152  79   164 164  94   143 143  73   124 122  51   139 138  61   145 145  59   137 138  45   148 152  55     0   0   0     0   0   0     0   0   0   156 157  73   150 152  65   155 154  67   122 122  42   118 113  49   146 144  84   153 149  86   143 139  75   150 146  80   150 146  78   133 129  59   143 141  62   153 155  57   164 166  62   161 163  63   156 158  59   167 169  68     0   0   0     0   0   0     0   0   0     0   0   0     0   0   0     0   0   0     0   0   0  
   0   0   0     0   0   0     0   0   0     0   0   0     0   0   0     0   0   0   182 171 138   205 195 170   167 160 133   113 106  78   132 126  93   173 168 131   181 176 138   168 164 118   169 166 112   184 183 120   162 162  92   142 143  67   113 114  32    85  88   6   136 136  51   157 159  68     0   0   0     0   0   0     0   0   0     0   0   0   154 159  68   150 154  67   160 163  83   145 146  75   179 178 119   176 175 120   162 161 106   185 182 132   203 198 156   215 211 164   165 163 101   157 158  75   161 167  56   158 167  43   151 158  43   166 173  62   168 174  61   165 172  58     0   0   0     0   0   0     0   0   0     0   0   0     0   0   0     0   0   0  
   0   0   0     0   0   0     0   0   0     0   0   0     0   0   0     0   0   0   205 195 160   157 149 113   141 134  87    99  94  39   141 137  76   161 156  98   170 164 111   164 157 114   167 158 127   179 172 137   213 211 155   185 186 111   152 155  64   129 135  34   168 173  73   191 197  98     0   0   0     0   0   0     0   0   0     0   0   0     0   0   0   186 194 119   199 201 156   228 228 201   241 237 220   239 236 220   240 236 212   235 229 208   227 219 208   231 224 205   232 229 181   182 185 106   172 180  68   175 187  58   188 199  76   187 199  78   181 193  72   175 189  67     0   0   0     0   0   0     0   0   0     0   0   0     0   0   0     0   0   0  
   0   0   0     0   0   0     0   0   0     0   0   0     0   0   0     0   0   0   137 127  91   139 131  92   160 155 105   204 200 143   210 207 144   191 188 126   147 143  86   145 139  93   149 140 112   175 169 141   203 199 157   204 205 143   196 201 109   193 200  98   185 191  97     0   0   0     0   0   0     0   0   0     0   0   0     0   0   0     0   0   0   195 201 150   219 218 192   227 225 209   206 202 187   218 214 197   215 208 194   200 194 180   177 170 160   193 189 167   228 227 180   193 198 120   166 176  62   169 186  51   176 193  58   182 198  64   187 204  71   182 199  67   180 196  61     0   0   0     0   0   0     0   0   0     0   0   0     0   0   0  
   0   0   0     0   0   0     0   0   0     0   0   0     0   0   0     0   0   0   142 133  92   158 153 107   171 168 119   196 194 142   132 131  75    89  88  38   116 115  59   131 130  77   152 149 103   162 159 119   180 177 140   202 201 151   203 207 129   146 152  64     0   0   0     0   0   0     0   0   0     0   0   0     0   0   0     0   0   0     0   0   0     0   0   0   180 176 150   184 181 151   177 174 137   139 136  99   158 152 125   175 169 143   165 161 131   169 167 124   201 204 144   200 209 123   179 193  76   181 201  62   172 193  49   170 191  46   173 192  51   177 196  56   173 190  50     0   0   0     0   0   0     0   0   0     0   0   0     0   0   0  
   0   0   0     0   0   0     0   0   0     0   0   0     0   0   0     0   0   0     0   0   0   114 116  45   157 159  84   204 208 135    96 101  35    45  48   1    80  83  23   137 141  79   178 183 117   157 161  97   181 184 127   197 199 146   196 199 143     0   0   0     0   0   0     0   0   0     0   0   0     0   0   0     0   0   0     0   0   0     0   0   0     0   0   0     0   0   0   184 181 133   113 109  63    87  84  38   169 166 118   170 168 116   170 172 111   178 182 108   181 190  98   192 205  98   183 198  81   183 202  75   182 202  72   181 201  68   184 202  66   179 196  57   177 194  55   177 194  55     0   0   0     0   0   0     0   0   0     0   0   0  
   0   0   0     0   0   0     0   0   0     0   0   0     0   0   0     0   0   0     0   0   0   165 168  89   180 185 100   205 212 132   158 163  96    92  97  40    81  85  33   130 135  76   180 189 111   170 178  99   193 197 136   211 213 165     0   0   0     0   0   0     0   0   0     0   0   0     0   0   0     0   0   0     0   0   0     0   0   0     0   0   0     0   0   0     0   0   0   194 190 127    80  76  20   119 117  61   222 221 156   131 134  59   145 150  69   200 207 115   179 190  87   167 180  73   170 182  82   167 181  84   164 179  79   161 177  69   171 187  64   166 181  52   172 187  59   169 184  54     0   0   0     0   0   0     0   0   0     0   0   0  
   0   0   0     0   0   0     0   0   0     0   0   0     0   0   0     0   0   0     0   0   0   188 187 132   158 157 105   178 180 128   153 155 106   163 166 124   223 223 196   215 217 178   215 222 146   147 154  79   158 158 120   214 211 191     0   0   0     0   0   0     0   0   0     0   0   0     0   0   0     0   0   0     0   0   0     0   0   0     0   0   0     0   0   0     0   0   0     0   0   0   135 135  64   153 153  80   188 189 110   122 126  42   123 128  44   195 200 119   202 207 136   188 194 131   193 198 141   208 212 159   202 207 151   168 175 104   143 152  55   146 159  46   154 164  53   144 154  43   143 153  42     0   0   0     0   0   0     0   0   0  
   0   0   0     0   0   0     0   0   0     0   0   0     0   0   0     0   0   0     0   0   0   174 168 129   143 140  97   156 154 115   119 117  85   185 185 156   206 204 176   163 163 126   134 137  77   174 177 122   203 198 175     0   0   0     0   0   0     0   0   0     0   0   0     0   0   0     0   0   0     0   0   0     0   0   0     0   0   0     0   0   0     0   0   0     0   0   0     0   0   0   153 156  69   141 146  57   133 138  49    91  96  10   120 124  43   200 202 135   235 233 191   226 223 196   227 224 201   221 218 193   223 221 188   202 203 150   127 134  49   122 132  30   132 140  39   128 135  36   132 140  43     0   0   0     0   0   0     0   0   0  
   0   0   0     0   0   0     0   0   0     0   0   0     0   0   0     0   0   0   175 163 135   115 106  70    90  84  40   109 104  66   142 137 115   202 199 177   168 166 126    66  64  19    96  93  54   176 172 142     0   0   0     0   0   0     0   0   0     0   0   0     0   0   0     0   0   0     0   0   0     0   0   0     0   0   0     0   0   0     0   0   0     0   0   0     0   0   0     0   0   0     0   0   0   132 140  42   114 121  26   103 109  21   135 138  61   166 165 108   221 216 185   225 217 205   179 169 163   124 115 104   185 179 152   205 203 153   140 145  62   126 134  35   135 142  46   134 141  46   130 137  44     0   0   0     0   0   0     0   0   0  
   0   0   0     0   0   0     0   0   0     0   0   0     0   0   0     0   0   0   164 152 126   155 144 113    93  86  45    74  68  32   153 146 125   192 186 164   179 174 136   129 124  84   157 151 123     0   0   0     0   0   0     0   0   0     0   0   0     0   0   0     0   0   0     0   0   0     0   0   0     0   0   0     0   0   0     0   0   0     0   0   0     0   0   0     0   0   0     0   0   0     0   0   0     0   0   0   109 118  27   120 127  41   133 138  57   143 145  78   164 162 113   168 162 132   116 107  92    94  85  67   146 138 104   195 193 135   148 153  65   123 131  29   123 131  31   133 140  42   125 133  37     0   0   0     0   0   0     0   0   0  
   0   0   0     0   0   0     0   0   0     0   0   0     0   0   0     0   0   0    95  85  50   105  97  59   118 111  68   122 114  76   149 143 112   166 160 131   188 182 146   221 215 179   182 175 147     0   0   0     0   0   0     0   0   0     0   0   0     0   0   0     0   0   0     0   0   0     0   0   0     0   0   0     0   0   0     0   0   0     0   0   0     0   0   0     0   0   0     0   0   0     0   0   0     0   0   0   112 121  37   141 148  67   146 153  72   144 148  74   121 122  62    98  95  50   134 128 102   170 162 137   175 170 128   137 135  72   143 148  56   126 133  29   133 141  41   131 139  40   122 129  33     0   0   0     0   0   0     0   0   0  
   0   0   0     0   0   0     0   0   0     0   0   0     0   0   0   112 105  51    99  92  36   101  96  37   103  98  42   148 145  91   135 129  79   139 131  87   182 174 137   199 191 154     0   0   0     0   0   0     0   0   0     0   0   0     0   0   0     0   0   0     0   0   0     0   0   0     0   0   0     0   0   0     0   0   0     0   0   0     0   0   0     0   0   0     0   0   0     0   0   0     0   0   0     0   0   0     0   0   0   150 157  87   147 155  78   136 141  74   130 131  88   139 135 108   160 155 135   195 189 166   212 209 172   151 150  94   132 136  52   140 146  47   134 140  45   133 137  44   131 138  46     0   0   0     0   0   0     0   0   0  
   0   0   0     0   0   0     0   0   0     0   0   0     0   0   0    96  91  32   135 131  67   130 129  66   118 115  62   121 118  70   118 112  66   150 142 100   144 137 102     0   0   0     0   0   0     0   0   0     0   0   0     0   0   0     0   0   0     0   0   0     0   0   0     0   0   0     0   0   0     0   0   0     0   0   0     0   0   0     0   0   0     0   0   0     0   0   0     0   0   0     0   0   0     0   0   0     0   0   0     0   0   0   106 115  40   127 133  76   157 158 129   211 208 194   208 204 195   220 217 203   235 234 207   231 231 184   156 159  85   130 134  48   139 143  59   134 137  56   146 150  72     0   0   0     0   0   0     0   0   0  
   0   0   0     0   0   0     0   0   0     0   0   0   129 122  75    87  83  28   105 103  39   119 118  57   138 136  90   119 116  80   123 117  83     0   0   0     0   0   0     0   0   0     0   0   0     0   0   0     0   0   0     0   0   0     0   0   0     0   0   0     0   0   0     0   0   0     0   0   0     0   0   0     0   0   0     0   0   0     0   0   0     0   0   0     0   0   0     0   0   0     0   0   0     0   0   0     0   0   0     0   0   0   102 111  43   151 156 112   203 205 185   210 209 201   209 207 201   203 202 192   218 218 199   232 233 197   185 184 125   121 121  50   141 142  71   138 139  68   137 139  71     0   0   0     0   0   0     0   0   0  
   0   0   0     0   0   0     0   0   0     0   0   0   134 130  80    99  97  36   101 102  32    77  79  10   119 121  66   135 134  89     0   0   0     0   0   0     0   0   0     0   0   0     0   0   0     0   0   0     0   0   0     0   0   0     0   0   0     0   0   0     0   0   0     0   0   0     0   0   0     0   0   0     0   0   0     0   0   0     0   0   0     0   0   0     0   0   0     0   0   0     0   0   0     0   0   0     0   0   0     0   0   0     0   0   0   216 217 189   212 211 194   213 212 196   152 152 130   134 134 111   192 192 172   199 198 169   190 188 142   123 122  61   138 138  68   129 130  53    93  95  17     0   0   0     0   0   0     0   0   0  
   0   0   0     0   0   0     0   0   0     0   0   0   124 121  66   134 135  67    94  99  20    63  69   1    48  55   5     0   0   0     0   0   0     0   0   0     0   0   0     0   0   0     0   0   0     0   0   0     0   0   0     0   0   0     0   0   0     0   0   0     0   0   0     0   0   0     0   0   0     0   0   0     0   0   0     0   0   0     0   0   0     0   0   0     0   0   0     0   0   0     0   0   0     0   0   0     0   0   0     0   0   0     0   0   0   206 206 179   191 192 160   177 178 140   103 107  59   108 111  66   173 174 143   185 184 154   230 227 184   165 163 107   123 123  53   146 147  69   118 120  37     0   0   0     0   0   0     0   0   0  
   0   0   0     0   0   0     0   0   0   124 124  71    97  97  36   124 129  54   104 109  25     0   0   0     0   0   0     0   0   0     0   0   0     0   0   0     0   0   0     0   0   0     0   0   0     0   0   0     0   0   0     0   0   0     0   0   0     0   0   0     0   0   0     0   0   0     0   0   0     0   0   0     0   0   0     0   0   0     0   0   0     0   0   0     0   0   0     0   0   0     0   0   0     0   0   0     0   0   0     0   0   0     0   0   0     0   0   0     0   0   0     0   0   0   119 129  57   127 136  71   113 120  68   175 178 130   214 214 163   146 145  89   125 125  64   135 136  71   120 121  52     0   0   0     0   0   0     0   0   0  
   0   0   0     0   0   0     0   0   0    81  88  15    71  75   6    96 104  21     0   0   0     0   0   0     0   0   0     0   0   0     0   0   0     0   0   0     0   0   0     0   0   0     0   0   0     0   0   0     0   0   0     0   0   0     0   0   0     0   0   0     0   0   0     0   0   0     0   0   0     0   0   0     0   0   0     0   0   0     0   0   0     0   0   0     0   0   0     0   0   0     0   0   0     0   0   0     0   0   0     0   0   0     0   0   0     0   0   0     0   0   0     0   0   0     0   0   0     0   0   0     0   0   0     0   0   0     0   0   0     0   0   0   115 115  60    91  92  36    90  91  27     0   0   0     0   0   0     0   0   0  
   0   0   0    73  85   1    87  99   6    89 101   9    78  88   7     0   0   0     0   0   0     0   0   0     0   0   0     0   0   0     0   0   0     0   0   0     0   0   0     0   0   0     0   0   0     0   0   0     0   0   0     0   0   0     0   0   0     0   0   0     0   0   0     0   0   0     0   0   0     0   0   0     0   0   0     0   0   0     0   0   0     0   0   0     0   0   0     0   0   0     0   0   0     0   0   0     0   0   0     0   0   0     0   0   0     0   0   0     0   0   0     0   0   0     0   0   0     0   0   0     0   0   0     0   0   0     0   0   0     0   0   0     0   0   0     0   0   0     0   0   0   104 111  35   102 108  28     0   0   0  
  96 107  25    70  83   1    68  83   1     0   0   0     0   0   0     0   0   0     0   0   0     0   0   0     0   0   0     0   0   0     0   0   0     0   0   0     0   0   0     0   0   0     0   0   0     0   0   0     0   0   0     0   0   0     0   0   0     0   0   0     0   0   0     0   0   0     0   0   0     0   0   0     0   0   0     0   0   0     0   0   0     0   0   0     0   0   0     0   0   0     0   0   0     0   0   0     0   0   0     0   0   0     0   0   0     0   0   0     0   0   0     0   0   0     0   0   0     0   0   0     0   0   0     0   0   0     0   0   0     0   0   0     0   0   0     0   0   0     0   0   0   105 114  31   103 112  27   128 138  52  
  54  64   3    56  67   1     0   0   0     0   0   0     0   0   0     0   0   0     0   0   0     0   0   0     0   0   0     0   0   0     0   0   0     0   0   0     0   0   0     0   0   0     0   0   0     0   0   0     0   0   0     0   0   0     0   0   0     0   0   0     0   0   0     0   0   0     0   0   0     0   0   0     0   0   0     0   0   0     0   0   0     0   0   0     0   0   0     0   0   0     0   0   0     0   0   0     0   0   0     0   0   0     0   0   0     0   0   0     0   0   0     0   0   0     0   0   0     0   0   0     0   0   0     0   0   0     0   0   0     0   0   0     0   0   0     0   0   0     0   0   0     0   0   0    68  75   5   103 110  38  
