P3
62 50
255
 181 199  96   186 205  97     0   0   0     0   0   0     0   0   0     0   0   0     0   0   0     0   0   0     0   0   0     0   0   0     0   0   0     0   0   0     0   0   0     0   0   0     0   0   0     0   0   0     0   0   0     0   0   0     0   0   0     0   0   0     0   0   0     0   0   0     0   0   0     0   0   0     0   0   0     0   0   0     0   0   0     0   0   0     0   0   0     0   0   0     0   0   0     0   0   0     0   0   0     0   0   0     0   0   0     0   0   0     0   0   0     0   0   0     0   0   0     0   0   0     0   0   0     0   0   0     0   0   0     0   0   0     0   0   0     0   0   0     0   0   0   128 142  65   127 142  60   113 129  41     0   0   0     0   0   0     0   0   0     0   0   0     0   0   0     0   0   0     0   0   0     0   0   0     0   0   0     0   0   0     0   0   0     0   0   0  
 175 194  91   172 191  83   174 195  86     0   0   0     0   0   0     0   0   0     0   0   0     0   0   0     0   0   0     0   0   0     0   0   0     0   0   0     0   0   0     0   0   0     0   0   0     0   0   0     0   0   0     0   0   0     0   0   0     0   0   0     0   0   0     0   0   0     0   0   0     0   0   0     0   0   0     0   0   0     0   0   0     0   0   0     0   0   0     0   0   0     0   0   0     0   0   0     0   0   0     0   0   0     0   0   0     0   0   0     0   0   0     0   0   0     0   0   0     0   0   0     0   0   0     0   0   0     0   0   0     0   0   0     0   0   0   128 140  68   127 139  66   129 142  65   127 142  60   105 121  34     0   0   0     0   0   0     0   0   0     0   0   0     0   0   0     0   0   0     0   0   0     0   0   0     0   0   0     0   0   0     0   0   0     0   0   0  
   0   0   0   166 188  77   170 193  77     0   0   0     0   0   0     0   0   0     0   0   0     0   0   0     0   0   0     0   0   0     0   0   0     0   0   0     0   0   0     0   0   0     0   0   0     0   0   0     0   0   0     0   0   0     0   0   0     0   0   0     0   0   0     0   0   0     0   0   0     0   0   0     0   0   0     0   0   0     0   0   0     0   0   0     0   0   0     0   0   0     0   0   0     0   0   0     0   0   0     0   0   0     0   0   0     0   0   0     0   0   0     0   0   0     0   0   0     0   0   0     0   0   0     0   0   0     0   0   0     0   0   0   119 135  60   119 132  60   125 136  66   130 142  69   123 135  57   113 126  42   126 142  53     0   0   0     0   0   0     0   0   0     0   0   0     0   0   0     0   0   0     0   0   0     0   0   0     0   0   0     0   0   0     0   0   0  
   0   0   0   171 193  80   163 186  68   156 181  62   159 184  71     0   0   0     0   0   0     0   0   0     0   0   0     0   0   0     0   0   0     0   0   0     0   0   0     0   0   0     0   0   0     0   0   0     0   0   0     0   0   0     0   0   0     0   0   0     0   0   0     0   0   0     0   0   0     0   0   0     0   0   0     0   0   0     0   0   0     0   0   0     0   0   0     0   0   0     0   0   0     0   0   0     0   0   0     0   0   0     0   0   0     0   0   0     0   0   0     0   0   0     0   0   0     0   0   0     0   0   0     0   0   0     0   0   0   129 147  72   120 138  63   121 137  64   126 138  68   130 141  70   119 131  54   111 125  41   130 146  58     0   0   0     0   0   0     0   0   0     0   0   0     0   0   0     0   0   0     0   0   0     0   0   0     0   0   0     0   0   0     0   0   0  
   0   0   0   182 204  92   180 203  85   177 202  82   191 214  98   192 210 103   184 202  90   167 185  58     0   0   0     0   0   0     0   0   0     0   0   0     0   0   0     0   0   0     0   0   0     0   0   0     0   0   0     0   0   0     0   0   0     0   0   0     0   0   0     0   0   0     0   0   0     0   0   0     0   0   0     0   0   0     0   0   0     0   0   0     0   0   0     0   0   0     0   0   0     0   0   0     0   0   0     0   0   0     0   0   0     0   0   0     0   0   0     0   0   0     0   0   0     0   0   0     0   0   0   127 145  71   136 151  82   132 149  76   127 143  68   121 134  62   123 136  65   129 141  68   117 130  51   115 129  44   115 131  43   104 122  34     0   0   0     0   0   0     0   0   0     0   0   0     0   0   0     0   0   0     0   0   0     0   0   0     0   0   0     0   0   0  
   0   0   0   177 199  86   179 203  84   178 202  82   179 203  85   170 190  79   178 196  80   154 173  41   144 163  13   160 178  19     0   0   0     0   0   0     0   0   0     0   0   0     0   0   0     0   0   0     0   0   0     0   0   0     0   0   0     0   0   0     0   0   0     0   0   0     0   0   0   116 132  16   112 125   8   114 125   7   115 127   6     0   0   0     0   0   0     0   0   0     0   0   0     0   0   0     0   0   0     0   0   0     0   0   0     0   0   0     0   0   0     0   0   0     0   0   0     0   0   0   121 139  63   121 139  65   130 145  76   129 147  74   120 138  64   114 130  57   128 141  69   134 146  72   115 128  49   116 131  47   109 128  39    96 115  25     0   0   0     0   0   0     0   0   0     0   0   0     0   0   0     0   0   0     0   0   0     0   0   0     0   0   0     0   0   0  
   0   0   0   161 184  71   170 194  76   166 190  70   164 188  68   171 191  78   165 184  64   152 171  36   155 175  23   155 173   9   142 158   2   154 169  16   147 162  16     0   0   0     0   0   0     0   0   0     0   0   0   109 123   2   114 129   9   116 134  15   106 125   9   106 124   8   108 124   8   113 127   9   110 124   3   115 126   6   117 129   9   110 124   3   103 118   1    95 112   1    97 112  10     0   0   0     0   0   0     0   0   0     0   0   0     0   0   0     0   0   0     0   0   0     0   0   0   137 154  84   123 141  65   124 141  67   144 159  90   149 165  95   127 145  72   114 130  56   124 137  62   118 130  55    96 110  31   112 127  44   114 133  44    94 113  23     0   0   0     0   0   0     0   0   0     0   0   0     0   0   0     0   0   0     0   0   0     0   0   0     0   0   0     0   0   0  
   0   0   0   172 194  82   174 197  80   173 197  78   162 186  66   164 184  68   160 180  55   142 161  23   148 165  12   156 174  10   159 175  15   147 163   7   147 163  14   136 153  10   120 136   3   118 134   9   111 126   5   113 127   6   115 130  10   113 131  13   103 122   6   101 120   6    99 116   1   108 123   2   107 121   1   114 125   3   116 128   5   108 122   1   103 119   1    99 116   1   106 123  20   109 125  34   113 130  46   133 151  69   127 145  63     0   0   0     0   0   0   150 166  99   144 161  94   125 142  72   119 137  61   117 135  61   145 160  91   138 155  84   112 130  56   111 128  52   126 142  65   114 128  50    93 108  28   116 134  50   114 133  44    98 118  27     0   0   0     0   0   0     0   0   0     0   0   0     0   0   0     0   0   0     0   0   0     0   0   0     0   0   0     0   0   0  
   0   0   0     0   0   0   171 194  79   173 196  80   178 201  84   173 194  76   155 175  48   140 159  19   148 166  10   154 171   8   157 171  14   159 173  18   155 170  19   135 150   7   128 142   4   118 133   8   120 134  13   117 131  11   115 129  11   118 133  15   104 120   5    96 113   1    97 113   3   108 121   3   106 117   1   113 124   2   116 128   6   109 123   2   105 120   1   101 118   4   103 120  19   113 129  40   126 142  61   124 141  61   109 127  46   120 139  59   128 147  73   146 165  99   141 158  93   128 145  77   126 143  69   118 135  63   142 157  88   139 156  85   113 131  57   114 130  55   126 142  64   113 127  49    99 113  33   120 138  54   114 133  46   103 123  33   111 131  41     0   0   0     0   0   0     0   0   0     0   0   0     0   0   0     0   0   0     0   0   0     0   0   0     0   0   0  
   0   0   0     0   0   0   180 203  90   167 190  74   167 190  74   182 202  85   157 178  51   148 168  25   147 165   9   155 171  10   152 166   9   151 165  12   146 160  10   136 151   5   123 137   1   118 133   7   118 130  13   119 132  15   124 138  21   113 127  13    97 114   1   103 120   6   103 119   4   107 120   3   104 115   1   113 124   2   118 130   8   110 124   3   106 120   1   100 116   4   102 119  21   107 126  38   113 130  50   122 140  60   113 132  51   119 138  59   131 149  77   142 162  95   136 153  88   128 145  77   126 144  70   118 135  62   140 155  86   142 158  88   118 136  62   121 138  60   133 149  69   122 137  57   105 122  40   114 133  51   108 128  41    95 115  26   106 127  37     0   0   0     0   0   0     0   0   0     0   0   0     0   0   0     0   0   0     0   0   0     0   0   0     0   0   0  
   0   0   0     0   0   0   190 212 102   177 200  89   186 209  96   180 200  84   170 190  63   142 162  19   145 162   7   136 152   1   161 175  21   153 167  16   140 155   6   127 142   1   122 136   1   121 136  11   119 132  14   123 136  21   134 148  34   113 127  14   102 119   5   103 120   6   105 119   5   105 118   3   106 118   1   118 127   8   118 127   9   106 118   1   109 123   6    99 116   3   102 120  22   107 125  39   115 132  54   120 139  61   123 142  63   119 140  63   128 146  76   136 152  88   131 147  82   124 141  73   129 145  72   126 141  69   139 151  84   144 158  90   113 129  56   123 137  59   146 161  80   123 138  57    98 114  34   123 140  60   114 134  49   101 121  33   112 132  42     0   0   0     0   0   0     0   0   0     0   0   0     0   0   0     0   0   0     0   0   0     0   0   0     0   0   0  
   0   0   0     0   0   0   187 209 100   179 202  94   185 209  99   174 197  80   165 187  57   158 179  34   154 172  16   145 161   4   140 154   2   144 156   8   137 151   3   130 145   1   132 147   9   129 144  20   123 135  20   121 134  20   128 142  29   112 126  13   103 120   8   107 123  11   106 120   7   106 120   4   104 115   1   113 122   3   117 127   8   106 118   2   107 122   6   109 125  15   107 124  29   116 134  50   123 142  64   129 147  70   133 152  74   124 145  68   130 149  79   141 157  93   133 148  84   125 142  73   124 139  67   124 139  68   142 155  86   140 155  86   118 134  61   127 141  61   142 157  74   119 134  51    96 112  31   119 136  58   114 133  50   104 125  36   113 133  43     0   0   0     0   0   0     0   0   0     0   0   0     0   0   0     0   0   0     0   0   0     0   0   0     0   0   0  
   0   0   0     0   0   0   188 209 103   183 205 100   184 207  99   169 192  77   159 181  50   145 165  19   146 164   9   147 162   7   140 154   5   145 159  12   138 152   5   134 149   3   133 147   9   125 139  17   123 135  20   124 135  23   126 139  28   115 129  18   108 125  13   111 127  15   106 120   6   111 122   7   108 119   2   114 123   4   125 135  16   111 122   6   106 119   4   115 131  21   114 131  37   126 144  62   128 146  71   133 151  75   145 163  87   136 154  79   135 151  82   136 152  88   130 145  81   132 147  78   122 135  63   120 133  60   135 146  77   141 153  85   131 144  72   134 147  66   138 152  67   120 134  50    99 113  33   117 133  55   115 134  52   107 126  40   112 131  43   104 119  39     0   0   0     0   0   0     0   0   0     0   0   0     0   0   0     0   0   0     0   0   0     0   0   0  
   0   0   0     0   0   0   186 208 103   181 206 102   188 214 107   171 195  80   158 182  51   141 164  17   136 157   1   148 165  11   142 156  10   144 158  12   136 150   3   131 146   1   126 140   3   119 133  11   124 136  21   126 137  24   123 136  24   118 133  21   112 129  17   114 130  16   104 118   5   105 118   2   108 119   1   116 124   6   127 137  18   110 121   6    99 111   1   107 123  13   114 131  38   126 144  63   123 140  67   128 145  72   149 167  91   146 164  89   139 156  87   131 147  83   128 143  79   136 151  83   125 139  64   121 134  60   129 140  72   141 154  85   136 149  77   129 142  61   128 142  55   117 131  45    99 113  33   115 129  53   114 132  53   106 125  42   111 127  42   109 122  43     0   0   0     0   0   0     0   0   0     0   0   0     0   0   0     0   0   0     0   0   0     0   0   0  
   0   0   0     0   0   0   184 205 103   180 202 101   182 208 102   169 193  78   153 177  45   156 179  31   138 159   4   148 165  11   155 168  22   158 172  26   145 159  12   133 148   2   130 144   6   123 137  14   123 135  20   122 132  19   115 126  14   113 127  14   110 127  13   113 129  15   106 120   6   100 112   1   104 114   1   112 122   1   121 131  10   107 118   4    96 108   1   100 113   5   103 120  27   120 138  57   117 134  61   124 142  69   150 167  93   146 164  89   141 157  88   138 153  89   133 146  83   140 153  85   132 144  69   131 143  68   137 147  77   141 152  83   134 146  74   123 135  53   117 130  42   108 121  35    96 110  30   115 130  54   112 129  53   110 127  45   113 129  45   112 125  48     0   0   0     0   0   0     0   0   0     0   0   0     0   0   0     0   0   0     0   0   0     0   0   0  
   0   0   0     0   0   0     0   0   0   176 200  99   172 198  91   165 190  71   145 170  35   142 167  16   139 161   4   145 164  10   158 174  26   167 181  36   153 168  21   134 150   3   133 149   9   129 143  19   118 130  14   111 123   8   102 116   2   104 119   5   105 122   8   108 125   9   107 122   4   102 117   1   106 119   1   116 126   3   122 132   9   112 123   3   109 121   4   110 123  14    93 110  18   116 133  53   119 136  63   128 146  73   149 167  93   140 158  82   136 152  83   141 156  92   137 150  86   139 152  82   136 148  72   136 148  73   137 147  77   134 145  77   131 143  71   126 138  55   112 125  37   101 113  27    99 111  32   122 135  63   115 132  58   114 131  51   115 132  48   118 131  56     0   0   0     0   0   0     0   0   0     0   0   0     0   0   0     0   0   0     0   0   0     0   0   0  
   0   0   0     0   0   0     0   0   0   180 204 103   176 202  95   164 189  71   142 167  32   136 161  10   140 161   5   151 170  16   143 159  12   148 164  17   144 160  10   129 145   1   128 144   4   132 147  23   121 133  17   110 120   6   103 116   2   106 120   6   108 125   9   105 122   4   105 119   1   108 121   1   110 122   1   119 129   4   125 136  11   116 128   5   118 131  10   116 130  18   101 118  25   121 139  59   124 140  67   131 147  75   147 163  90   137 153  79   135 150  81   141 153  90   137 148  84   128 139  70   130 141  65   132 141  67   131 138  69   130 138  71   134 144  74   134 146  63   112 125  36   101 113  26   105 117  38   121 134  64   123 139  68   119 134  57   117 131  50   120 131  58   127 130  76     0   0   0     0   0   0     0   0   0     0   0   0     0   0   0     0   0   0     0   0   0  
   0   0   0     0   0   0     0   0   0     0   0   0   181 205  96   157 181  58   136 159  22   159 182  33   136 158   7   150 170  13   151 170  19   143 160  11   144 162  11   131 149   3   120 138   1   128 145  18   125 140  22   110 123   7   109 124   7   114 132  14   115 133  13   103 121   2    98 115   1   103 118   1   103 115   1   112 124   1   120 131   6   109 120   1   110 123   4   105 120   8   116 133  40   130 148  68   126 142  68   129 145  72   143 159  85   138 154  79   138 154  84   143 156  93   135 147  82   113 124  55   117 129  55   123 135  61   127 137  67   127 137  69   134 145  76   135 148  67   110 124  36   100 114  28   106 119  40   111 124  51   127 143  70   122 138  61   115 129  49   114 123  51   128 132  76     0   0   0     0   0   0     0   0   0     0   0   0     0   0   0     0   0   0     0   0   0  
   0   0   0     0   0   0     0   0   0     0   0   0   179 200  80   149 170  40   146 168  30   163 185  40   158 179  24   148 169  10   135 155   1   143 161   9   130 149   3   128 147   5   128 146   8   122 138  14   113 128  10   111 124   8   110 125   5   106 125   1   113 131  10   113 131  12    98 114   3    93 107   1   104 115   1   109 120   1   118 130   6   113 124   4   107 120   2   119 134  26   118 132  45   117 131  52   124 138  61   135 151  74   151 167  91   133 151  77   134 151  81   144 160  93   140 155  90   116 128  62   113 126  56   124 136  64   127 140  68   120 134  64   133 149  78   155 169  91   117 132  50    96 111  29   113 127  49   125 138  65   123 139  66   122 137  61   110 122  45   129 136  66   119 120  62     0   0   0     0   0   0     0   0   0     0   0   0     0   0   0     0   0   0     0   0   0  
   0   0   0     0   0   0     0   0   0     0   0   0     0   0   0   147 168  33   147 168  28   157 178  35   156 178  26   155 177  16   147 167   7   131 151   1   125 145   3   124 143   2   123 141   4   120 138  13   117 131  13   111 125   9   106 124   2   104 123   1   106 126   1   102 121   1    90 107   1    94 109   1   109 122   8   118 129   8   123 134  12   114 126   5   108 123   5   118 133  27   110 124  38   109 123  44   128 142  63   134 150  72   138 154  78   132 150  76   142 159  90   149 166  98   141 157  91   120 135  68   115 130  61   126 141  69   132 147  74   121 138  67   147 164  94   165 181 105   121 137  57    98 113  32   115 130  52   118 132  57   113 129  54   122 139  60   121 133  57   128 135  67   106 106  48     0   0   0     0   0   0     0   0   0     0   0   0     0   0   0     0   0   0     0   0   0  
   0   0   0     0   0   0     0   0   0     0   0   0     0   0   0   126 147  10   135 155  14   146 165  23   146 166  14   145 167   7   163 183  23   145 165  12   149 168  24   140 159  17   134 152  15   127 142  18   120 135  17   113 126  10   108 124   2   109 127   2   109 129   4   103 122   2    99 114   1   101 114   2   109 122   8   113 124   3   120 132  10   117 131   9   111 125   9   109 124  18    98 112  26   121 135  56   126 140  61   133 149  70   135 151  78   120 137  66   144 161  91   153 169 103   144 160  95   122 137  70   116 131  62   124 139  68   119 132  60   113 128  58   138 155  85   137 153  78   124 140  60   115 130  49   108 123  44   114 128  51   118 135  57   129 143  65   119 131  55   123 130  64    93  94  38     0   0   0     0   0   0     0   0   0     0   0   0     0   0   0     0   0   0     0   0   0  
   0   0   0     0   0   0     0   0   0     0   0   0     0   0   0     0   0   0   134 155  14   139 158  16   141 161   9   152 174  14   153 173  13   158 178  24   159 179  34   142 161  19   139 158  19   124 140  13   120 134  16   111 125   8   101 119   1   107 126   1   110 130   5   103 123   2   100 117   2    98 113   1   107 120   4   111 122   2   116 128   6   115 129   8   111 125   9   105 120  16   115 129  43   119 133  54   107 121  43   128 144  68   146 162  89   126 143  73   144 161  94   158 174 109   146 161  96   126 141  76   106 122  54   109 124  53   123 138  65   123 140  69   128 144  74   117 134  58   118 135  53   112 127  44   119 133  53   119 133  56   120 137  59   130 146  68   112 124  48   128 135  70    89  89  36     0   0   0     0   0   0     0   0   0     0   0   0     0   0   0     0   0   0     0   0   0  
   0   0   0     0   0   0     0   0   0     0   0   0     0   0   0     0   0   0   154 175  33   161 180  38   145 164  13   141 161   2   145 165   5   160 179  25   150 168  22   137 155  11   140 158  20   123 140  12   128 143  22   113 126  10   102 117   1   104 122   1   109 129   7   104 123   4    98 113   1    96 109   1   109 122   7   118 129   9   115 127   5   107 121   1   107 121   8   109 124  22   115 129  45   106 121  43   114 130  54   134 150  75   147 163  92   144 161  91   147 164  97   142 158  95   135 149  87   121 136  71   115 128  61   122 135  65   122 135  65   123 137  69   151 168  98   132 148  72   111 128  46   109 124  41   112 127  45   110 124  45   114 131  51   124 138  60   108 119  45   129 136  73    86  86  37    52  48  13     0   0   0     0   0   0     0   0   0     0   0   0     0   0   0     0   0   0  
   0   0   0     0   0   0     0   0   0     0   0   0     0   0   0     0   0   0     0   0   0   149 168  26   140 159   8   145 165   7   149 169   9   151 171  17   138 156  10   137 156  12   134 153  12   113 130   2   118 134  13   110 123   7   102 117   1    99 118   1   106 126   3   108 127   8   102 118   4   103 116   3   110 123   6   112 123   1   110 122   1   106 121   2   105 121  10   102 118  18   115 130  48   120 135  59   116 132  57   127 144  70   152 168  97   153 170 100   143 159  95   142 158  96   130 145  83   126 140  78   122 134  70   120 133  64   130 144  74   142 159  90   152 169 100   135 152  74   114 131  48   105 120  35   112 127  43   105 120  39   109 127  45   115 131  52   110 122  49   121 127  66    71  71  25    55  50  20     0   0   0     0   0   0     0   0   0     0   0   0     0   0   0     0   0   0  
   0   0   0     0   0   0     0   0   0     0   0   0     0   0   0     0   0   0     0   0   0   148 167  26   143 162  13   143 163   4   163 183  23   152 172  17   150 168  20   152 171  25   142 161  19   123 140  11   112 127   7   109 122   6   106 121   3    97 113   1    97 115   1   106 123   7   104 118   5   105 119   5   110 121   3   104 115   1   106 119   1   108 122   5   112 127  18   108 123  24   125 140  58   129 144  70   110 126  53   134 150  78   167 182 112   144 161  94   127 143  80   142 158  97   138 153  92   137 151  89   140 152  88   130 143  74   122 135  65   139 153  84   148 164  94   130 147  69   130 147  62   130 146  58   105 121  36   108 123  42   107 125  43   114 130  51   115 128  55   121 128  68    57  56  14    30  25   1     0   0   0     0   0   0     0   0   0     0   0   0     0   0   0     0   0   0  
   0   0   0     0   0   0     0   0   0     0   0   0     0   0   0     0   0   0     0   0   0   146 165  24   145 165  16   146 166   9   159 179  21   143 163   8   150 168  20   150 169  23   142 161  20   136 153  24   115 130   9   126 139  23   125 139  21   105 121   2    94 112   1   104 121   5   104 118   5    98 112   1   109 120   3   114 126   2   109 125   1   105 120   3   117 132  24   129 144  48   133 148  67   119 135  60   118 134  61   138 154  83   145 160  91   141 157  92   134 150  88   130 145  86   133 147  87   137 151  89   136 148  84   117 130  61   115 128  58   119 134  64   137 154  83   133 151  70   126 144  58   127 143  55   102 117  31   103 118  35   115 133  51   117 132  53   111 123  51   126 133  73    67  66  25    30  24   1    43  39  11     0   0   0     0   0   0     0   0   0     0   0   0     0   0   0  
   0   0   0     0   0   0     0   0   0     0   0   0     0   0   0     0   0   0     0   0   0   142 161  20   134 152   6   142 161   7   156 176  17   139 159   3   142 161  11   143 161  15   144 161  20   137 154  25   114 129   9   132 145  29   124 139  21   115 130  11   115 133  16   112 128  13   108 121   8   106 116   2   112 123   4   113 125   1   112 124   2   107 120   5   109 123  17   128 143  49   119 133  55   111 127  54   124 140  67   123 140  68   156 173 105   157 173 110   133 149  88   129 144  86   128 142  84   135 149  88   123 135  71   118 130  61   117 129  59   120 134  65   126 142  72   136 150  71   121 136  50   113 129  40   107 122  36   105 120  37   123 141  59   119 135  57   118 130  60   105 111  54    54  53  13    43  36  13    37  33   7     0   0   0     0   0   0     0   0   0     0   0   0     0   0   0  
   0   0   0     0   0   0     0   0   0     0   0   0     0   0   0     0   0   0     0   0   0   158 177  36   137 156  10   127 146   1   150 170  11   140 159   4   135 153   4   140 158  12   149 166  26   132 148  19   107 122   3   106 119   5   103 117   3   107 122   4   122 139  22   120 136  21   113 126  14   112 122   8   117 128   9   114 126   2   111 126   3   115 131  16   113 130  25   112 128  38   122 139  59   106 122  49   116 132  60   136 153  83   171 188 120   158 174 111   133 148  87   138 153  95   135 149  91   148 162 102   133 145  80   113 125  56   121 133  63   130 146  74   139 155  82   137 152  70   129 144  58   110 126  37    99 115  27   108 123  39   132 149  68   122 138  59   109 121  51   103 109  52    55  56  15    39  33  10    48  44  19    63  63  31     0   0   0     0   0   0     0   0   0     0   0   0  
   0   0   0     0   0   0     0   0   0     0   0   0     0   0   0     0   0   0     0   0   0   163 180  42   148 166  22   142 161  10   159 176  21   141 159   6   127 145   1   139 157  13   148 165  24   119 134   7   112 125   8   107 120   6   107 121   5   109 124   5   110 125   8   101 115   1   101 113   1   100 111   1   110 121   1   118 130   4   119 134  11   121 137  23   123 139  37   130 146  57   126 142  65   112 128  55   116 133  62   138 154  84   161 177 112   155 170 108   134 148  90   135 148  92   135 147  90   139 150  91   123 133  70   115 126  57   123 135  62   127 140  67   125 142  64   126 141  58   117 133  45   106 120  32    91 106  20   105 120  37   120 138  56   130 146  69   125 137  67   109 118  60    46  48   6    24  18   2    48  44  20    62  61  33     0   0   0     0   0   0     0   0   0     0   0   0  
   0   0   0     0   0   0     0   0   0     0   0   0     0   0   0     0   0   0     0   0   0   154 171  34   142 160  18   135 154   4   151 168  12   162 179  25   150 169  19   144 162  15   144 161  21   116 130   4   119 132  15   111 124   9   110 124   8   112 127  10   102 116   3   101 114   4   112 124  13   106 117   4   109 120   1     0   0   0   121 136  13   112 129  14   114 132  29   135 153  66   123 140  62   123 140  66   132 149  77   141 158  88   154 170 104   158 174 111   139 154  93   136 149  92   136 148  90   136 147  87   117 127  63   111 122  53   108 121  47   116 132  55   118 135  55   119 135  49   113 128  39   113 127  38    97 112  26   106 121  39   120 137  57   125 142  64   123 135  65   105 114  56    49  51   8    30  26   2    59  53  29    85  82  55    78  76  50     0   0   0     0   0   0     0   0   0  
   0   0   0     0   0   0     0   0   0     0   0   0     0   0   0     0   0   0   155 174  30   155 171  37   142 157  19   142 157  10   151 168  14   171 188  35   151 167  19   130 148   1   148 165  24   130 145  19   123 136  19   110 123   9    98 112   1   106 121   4    96 110   1    99 113   3   103 115   5   108 119   4     0   0   0     0   0   0     0   0   0   110 126  12   108 126  25   122 139  52   130 147  69   123 141  67   125 143  70   125 142  72   147 163  98   165 181 119   144 158 100   136 149  93   132 144  87   151 162 102   126 137  71   109 120  50   107 119  44   116 130  52   128 146  62   120 137  48   117 134  42   115 130  40   100 115  31   105 120  39   111 128  48   115 131  54   120 133  61    97 106  46    52  54  10    56  52  23    64  59  33    74  71  41    84  81  52     0   0   0     0   0   0     0   0   0  
   0   0   0     0   0   0     0   0   0     0   0   0     0   0   0     0   0   0   157 176  33   172 188  54   158 173  35   150 166  19   150 166  15   164 181  28   160 176  27   141 159  12   141 158  17   134 149  23   133 146  29   108 121   8   102 117   2   116 130  16   102 116   3   105 118   6     0   0   0     0   0   0     0   0   0     0   0   0     0   0   0     0   0   0   118 135  37   125 143  58   117 136  57   121 139  63   128 146  73   121 138  68   148 164  98   171 187 124   148 164 103   132 146  88   129 140  83   139 150  90   116 127  61   111 122  52   115 127  51   113 128  48   123 141  56   128 143  54   115 132  40   111 125  36   101 115  31   103 117  38   116 133  55   118 133  59   118 130  60    86  95  35    42  44   2    70  67  36    83  78  47    83  80  45    83  79  48    94  90  64     0   0   0     0   0   0  
   0   0   0     0   0   0     0   0   0     0   0   0     0   0   0     0   0   0   147 166  23   160 176  42   146 161  24   147 162  17   156 172  21   146 162  12   145 161  14   139 156  10   121 138   1   117 132   8   124 137  19   107 120   6   106 120   5   113 127  13    99 113   1     0   0   0     0   0   0     0   0   0     0   0   0     0   0   0     0   0   0     0   0   0   117 134  36   133 151  65   139 158  79   145 163  87   144 161  89   120 137  67   140 156  91   159 175 113   151 165 107   137 150  94   127 138  81   117 129  67   100 112  45   105 116  45   108 120  42   111 126  44   118 137  48   132 150  57   114 131  38   110 124  35   104 118  34   106 120  41   118 135  57   120 135  61   117 129  59   102 111  49    48  50   4    58  55  22    70  65  30    90  87  46    76  72  39    81  75  53     0   0   0     0   0   0  
   0   0   0     0   0   0     0   0   0     0   0   0     0   0   0     0   0   0   147 166  21   156 173  33   139 154  14   140 155  10   157 173  23   165 181  32   160 175  29   145 161  19   124 140   4   117 132   5   117 130  11   114 127  12   102 116   2   101 115   1     0   0   0     0   0   0     0   0   0     0   0   0     0   0   0     0   0   0     0   0   0     0   0   0     0   0   0   135 153  66   132 149  69   137 153  78   137 154  81   123 140  69   145 161  96   155 171 108   152 168 107   135 149  90   114 129  68   114 127  65   114 125  59   104 115  44   106 118  41   117 131  48   123 139  50   124 141  49   115 132  38   104 120  30    97 112  27    96 113  32   108 125  47   124 140  63   118 130  59   110 117  57    42  44   5    47  45   6    61  58  18    75  72  29    90  85  55    94  87  68    77  71  54     0   0   0  
   0   0   0     0   0   0     0   0   0     0   0   0     0   0   0     0   0   0   174 192  46   154 173  21   138 154   4   134 150   2   156 171  26   169 184  39   147 164  20   142 158  23   136 151  21   116 133   4   122 136  12   118 129  14   109 121   7     0   0   0     0   0   0     0   0   0     0   0   0     0   0   0     0   0   0     0   0   0     0   0   0     0   0   0     0   0   0     0   0   0   122 137  54   122 136  58   138 153  79   130 147  76   147 163  97   162 181 117   143 160  98   137 152  90   119 133  72   130 142  78   117 128  60    96 107  37   109 119  43   118 131  46   121 136  44   117 132  39   113 130  37    96 114  24    93 111  28   108 125  47   112 129  49   123 136  58   118 129  57   107 113  55    52  54   5    57  57   7    64  62  13    64  62  19    89  85  60    89  82  71   112 104  90     0   0   0  
   0   0   0     0   0   0     0   0   0     0   0   0     0   0   0     0   0   0   177 196  48   149 169  12   136 154   1   143 159   9   167 182  37   151 167  21   132 149   5   144 159  26   157 172  45   134 151  19   115 132   4   113 125   7     0   0   0     0   0   0     0   0   0     0   0   0     0   0   0     0   0   0     0   0   0     0   0   0     0   0   0     0   0   0     0   0   0     0   0   0     0   0   0   125 138  60   130 145  70   131 148  77   153 170 104   164 183 119   146 164 102   133 149  86   125 141  76   136 151  84   126 139  70   104 115  43   117 127  51   109 121  35   119 134  39   142 157  64   119 137  43    95 114  23    93 112  30    99 118  41   120 137  57   116 131  50   114 124  50   105 109  52    57  57  10    59  58   4    74  73  18    71  71  22    99  95  66   122 116 101    79  72  53   107 103  70  
   0   0   0     0   0   0     0   0   0     0   0   0     0   0   0     0   0   0   144 163  12   141 161   2   144 162   4   152 168  17   171 187  38   155 172  24   145 163  17   147 163  28   145 160  33   126 143  12     0   0   0     0   0   0     0   0   0     0   0   0     0   0   0     0   0   0     0   0   0     0   0   0     0   0   0     0   0   0     0   0   0     0   0   0     0   0   0     0   0   0     0   0   0   134 147  69   125 138  64   142 156  86   169 185 119   164 180 117   151 167 105   136 152  90   137 152  90   138 150  85   125 136  67   103 114  42   103 113  37   102 115  30   121 136  44   135 150  57   116 134  41    92 111  21    97 115  32    97 116  37   120 138  56   119 134  53   118 128  54   108 111  56    40  39   5    55  53   3    76  75  15    82  83  20   112 109  64   127 123  93    80  73  43     0   0   0  
   0   0   0     0   0   0     0   0   0     0   0   0     0   0   0   161 179  31   152 171  17   147 168   6   149 167   8   158 175  21   164 180  30   154 171  21   151 170  22   154 171  35   142 157  28     0   0   0     0   0   0     0   0   0     0   0   0     0   0   0     0   0   0     0   0   0     0   0   0     0   0   0     0   0   0     0   0   0     0   0   0     0   0   0     0   0   0     0   0   0     0   0   0     0   0   0   126 139  66   150 164  94   170 186 120   157 173 110   152 167 106   141 157  95   131 146  82   139 154  87   129 142  71   110 122  49   112 123  46    96 109  24   103 119  28   131 149  57   113 132  40    99 118  28   107 126  43   105 124  44   118 135  53   107 122  40   127 137  63   109 113  57    54  51   7    50  46   1    70  68   9    76  77  10    87  85  34   125 121  83     0   0   0     0   0   0  
   0   0   0     0   0   0     0   0   0     0   0   0     0   0   0   155 174  23   150 170  13   153 174  10   151 170   8   143 160   4   169 185  34   145 162  13   133 151   6   159 176  39     0   0   0     0   0   0     0   0   0     0   0   0     0   0   0     0   0   0     0   0   0     0   0   0     0   0   0     0   0   0     0   0   0     0   0   0     0   0   0     0   0   0     0   0   0     0   0   0     0   0   0     0   0   0     0   0   0   131 145  77   141 156  91   145 161  98   157 173 111   139 155  92   128 143  79   133 145  79   122 133  63   116 128  55   116 127  50   107 120  36   107 123  34   135 152  62   113 132  40    90 110  18   101 120  36   116 135  54   117 135  51   100 112  32   114 122  49   102 102  49    46  43   4    58  53   9    47  42   1    69  67  14    82  78  33     0   0   0     0   0   0     0   0   0  
   0   0   0     0   0   0     0   0   0     0   0   0     0   0   0   161 180  26   152 172  14   151 172   9   149 168   7   140 157   1   159 176  22   147 164  13   136 155   7     0   0   0     0   0   0     0   0   0     0   0   0     0   0   0     0   0   0     0   0   0     0   0   0     0   0   0     0   0   0     0   0   0     0   0   0     0   0   0     0   0   0     0   0   0     0   0   0     0   0   0     0   0   0     0   0   0     0   0   0     0   0   0   150 165 100   152 168 105   154 170 108   147 163 100   127 142  76   128 143  74   114 127  55   104 116  42   109 121  43   113 128  44   114 133  43   122 141  51   104 124  33    82 103  11    95 115  28   116 134  52   124 139  56   100 112  31   114 122  49    77  78  26    36  33   1    49  44   4    53  48   1    76  72  22     0   0   0     0   0   0     0   0   0     0   0   0  
   0   0   0     0   0   0     0   0   0     0   0   0     0   0   0   154 174  17   143 163   6   141 161   3   146 164   5   140 157   1   140 157   3     0   0   0     0   0   0     0   0   0     0   0   0     0   0   0     0   0   0     0   0   0     0   0   0     0   0   0     0   0   0     0   0   0     0   0   0     0   0   0     0   0   0     0   0   0     0   0   0     0   0   0     0   0   0     0   0   0     0   0   0     0   0   0     0   0   0     0   0   0     0   0   0   156 173 111   146 162 100   143 157  95   130 144  79   125 138  70   124 137  64   119 131  56   111 124  46   105 120  36   102 121  32   125 145  55    99 120  29    95 116  24   105 124  38   109 127  45   113 128  43   107 120  37   119 127  56    82  83  33    34  28   2    64  56  20    65  57  17     0   0   0     0   0   0     0   0   0     0   0   0     0   0   0  
   0   0   0     0   0   0     0   0   0     0   0   0   134 156   1   146 166   9   142 162   5   150 170  11   160 178  20   147 164   8     0   0   0     0   0   0     0   0   0     0   0   0     0   0   0     0   0   0     0   0   0     0   0   0     0   0   0     0   0   0     0   0   0     0   0   0     0   0   0     0   0   0     0   0   0     0   0   0     0   0   0     0   0   0     0   0   0     0   0   0     0   0   0     0   0   0     0   0   0     0   0   0     0   0   0   155 171 108   142 157  95   135 149  86   121 136  70   117 130  60   133 146  73   127 139  62   111 125  45   102 119  36   120 138  52   137 157  68   102 123  31    91 112  20   104 123  37   111 129  47   110 125  40   101 114  31   116 124  53    88  88  40    43  38   7    47  41   7    55  48  11     0   0   0     0   0   0     0   0   0     0   0   0     0   0   0  
   0   0   0     0   0   0     0   0   0     0   0   0   138 159   3   145 165   8   149 168  12   154 173  19   157 175  19     0   0   0     0   0   0     0   0   0     0   0   0     0   0   0     0   0   0     0   0   0     0   0   0     0   0   0     0   0   0     0   0   0     0   0   0     0   0   0     0   0   0     0   0   0     0   0   0     0   0   0     0   0   0     0   0   0     0   0   0     0   0   0     0   0   0     0   0   0     0   0   0     0   0   0     0   0   0     0   0   0   154 168 106   136 150  87   114 127  61   126 139  69   122 135  63   117 131  55   110 123  45   102 119  36   113 133  48   133 153  66   104 124  35    91 112  21   104 123  37   122 140  58   112 127  44    99 111  31   118 126  57    81  81  35    59  54  24    47  41   9     0   0   0     0   0   0     0   0   0     0   0   0     0   0   0     0   0   0  
   0   0   0     0   0   0     0   0   0     0   0   0   144 165   8   151 171  14   148 167  14   147 166  14     0   0   0     0   0   0     0   0   0     0   0   0     0   0   0     0   0   0     0   0   0     0   0   0     0   0   0     0   0   0     0   0   0     0   0   0     0   0   0     0   0   0     0   0   0     0   0   0     0   0   0     0   0   0     0   0   0     0   0   0     0   0   0     0   0   0     0   0   0     0   0   0     0   0   0     0   0   0     0   0   0     0   0   0     0   0   0   129 144  78   125 139  70   120 134  64   122 135  62   113 127  49   110 124  44    93 110  27   103 123  38   132 152  65   109 130  40    92 113  23   106 125  41   138 152  73   117 130  49   100 112  34   109 116  49    68  68  23    68  63  33     0   0   0     0   0   0     0   0   0     0   0   0     0   0   0     0   0   0     0   0   0  
   0   0   0     0   0   0     0   0   0     0   0   0   142 164   9   145 164   8   154 173  20     0   0   0     0   0   0     0   0   0     0   0   0     0   0   0     0   0   0     0   0   0     0   0   0     0   0   0     0   0   0     0   0   0     0   0   0     0   0   0     0   0   0     0   0   0     0   0   0     0   0   0     0   0   0     0   0   0     0   0   0     0   0   0     0   0   0     0   0   0     0   0   0     0   0   0     0   0   0     0   0   0     0   0   0     0   0   0     0   0   0     0   0   0     0   0   0   127 140  70   119 132  60   128 142  67   117 131  53    98 115  34   106 126  42   129 149  62   111 131  41    98 117  28   104 120  38   118 132  54   112 125  45   104 114  38   109 115  50    60  58  17     0   0   0     0   0   0     0   0   0     0   0   0     0   0   0     0   0   0     0   0   0     0   0   0  
   0   0   0     0   0   0     0   0   0   135 158  11   150 171  16     0   0   0     0   0   0     0   0   0     0   0   0     0   0   0     0   0   0     0   0   0     0   0   0     0   0   0     0   0   0     0   0   0     0   0   0     0   0   0     0   0   0     0   0   0     0   0   0     0   0   0     0   0   0     0   0   0     0   0   0     0   0   0     0   0   0     0   0   0     0   0   0     0   0   0     0   0   0     0   0   0     0   0   0     0   0   0     0   0   0     0   0   0     0   0   0     0   0   0     0   0   0     0   0   0     0   0   0   125 139  63   104 118  40   105 122  40   123 143  56   131 151  64   102 121  34    96 114  27   104 119  39   100 114  39   107 120  41   106 117  43   103 111  46     0   0   0     0   0   0     0   0   0     0   0   0     0   0   0     0   0   0     0   0   0     0   0   0     0   0   0  
   0   0   0     0   0   0     0   0   0   139 162  15     0   0   0     0   0   0     0   0   0     0   0   0     0   0   0     0   0   0     0   0   0     0   0   0     0   0   0     0   0   0     0   0   0     0   0   0     0   0   0     0   0   0     0   0   0     0   0   0     0   0   0     0   0   0     0   0   0     0   0   0     0   0   0     0   0   0     0   0   0     0   0   0     0   0   0     0   0   0     0   0   0     0   0   0     0   0   0     0   0   0     0   0   0     0   0   0     0   0   0     0   0   0     0   0   0     0   0   0     0   0   0     0   0   0     0   0   0   101 118  35   125 143  57   137 156  70   111 129  42   101 119  33   107 123  45   103 117  44   100 112  38   115 124  53     0   0   0     0   0   0     0   0   0     0   0   0     0   0   0     0   0   0     0   0   0     0   0   0     0   0   0     0   0   0  
   0   0   0   163 184  66   146 170  29     0   0   0     0   0   0     0   0   0     0   0   0     0   0   0     0   0   0     0   0   0     0   0   0     0   0   0     0   0   0     0   0   0     0   0   0     0   0   0     0   0   0     0   0   0     0   0   0     0   0   0     0   0   0     0   0   0     0   0   0     0   0   0     0   0   0     0   0   0     0   0   0     0   0   0     0   0   0     0   0   0     0   0   0     0   0   0     0   0   0     0   0   0     0   0   0     0   0   0     0   0   0     0   0   0     0   0   0     0   0   0     0   0   0     0   0   0     0   0   0     0   0   0     0   0   0   126 145  56   114 132  45   108 126  40   109 124  46   104 118  47   104 116  44     0   0   0     0   0   0     0   0   0     0   0   0     0   0   0     0   0   0     0   0   0     0   0   0     0   0   0     0   0   0     0   0   0  
 159 175  75   164 183  64   157 181  36     0   0   0     0   0   0     0   0   0     0   0   0     0   0   0     0   0   0     0   0   0     0   0   0     0   0   0     0   0   0     0   0   0     0   0   0     0   0   0     0   0   0     0   0   0     0   0   0     0   0   0     0   0   0     0   0   0     0   0   0     0   0   0     0   0   0     0   0   0     0   0   0     0   0   0     0   0   0     0   0   0     0   0   0     0   0   0     0   0   0     0   0   0     0   0   0     0   0   0     0   0   0     0   0   0     0   0   0     0   0   0     0   0   0     0   0   0     0   0   0     0   0   0     0   0   0     0   0   0     0   0   0   107 123  37   111 125  50   106 120  50     0   0   0     0   0   0     0   0   0     0   0   0     0   0   0     0   0   0     0   0   0     0   0   0     0   0   0     0   0   0     0   0   0     0   0   0  
 150 167  60   166 186  61     0   0   0     0   0   0     0   0   0     0   0   0     0   0   0     0   0   0     0   0   0     0   0   0     0   0   0     0   0   0     0   0   0     0   0   0     0   0   0     0   0   0     0   0   0     0   0   0     0   0   0     0   0   0     0   0   0     0   0   0     0   0   0     0   0   0     0   0   0     0   0   0     0   0   0     0   0   0     0   0   0     0   0   0     0   0   0     0   0   0     0   0   0     0   0   0     0   0   0     0   0   0     0   0   0     0   0   0     0   0   0     0   0   0     0   0   0     0   0   0     0   0   0     0   0   0     0   0   0     0   0   0     0   0   0     0   0   0   115 128  53   105 116  47     0   0   0     0   0   0     0   0   0     0   0   0     0   0   0     0   0   0     0   0   0     0   0   0     0   0   0     0   0   0     0   0   0     0   0   0  
