P3
63 50
255
   0   0   0     0   0   0     0   0   0     0   0   0     0   0   0     0   0   0     0   0   0     0   0   0     0   0   0     0   0   0     0   0   0     0   0   0     0   0   0     1 119 187     1 119 187     0   0   0     0   0   0     0   0   0     0   0   0     0   0   0     0   0   0     0   0   0     0   0   0     0   0   0     0   0   0     0   0   0     0   0   0     0   0   0     0   0   0     0   0   0     0   0   0     0   0   0     0   0   0     0   0   0     0   0   0     0   0   0     0   0   0     0   0   0     0   0   0     0   0   0     0   0   0     0   0   0     0   0   0     0   0   0     0   0   0     0   0   0     0   0   0     0   0   0     0   0   0     0   0   0     0   0   0     0   0   0     0   0   0     0   0   0     0   0   0     0   0   0     0   0   0     0   0   0     0   0   0     0   0   0     1 114 184     1 114 184     1 114 184  
   0   0   0     0   0   0     0   0   0     0   0   0     0   0   0     0   0   0     0   0   0     0   0   0     0   0   0     0   0   0     0   0   0     0   0   0     0   0   0     1 119 187     1 119 187     1 119 187     0   0   0     0   0   0     0   0   0     0   0   0     0   0   0     0   0   0     0   0   0     0   0   0     0   0   0     0   0   0     0   0   0     0   0   0     0   0   0     0   0   0     0   0   0     0   0   0     0   0   0     0   0   0     0   0   0     0   0   0     0   0   0     0   0   0     0   0   0     0   0   0     0   0   0     0   0   0     0   0   0     0   0   0     0   0   0     0   0   0     0   0   0     0   0   0     0   0   0     0   0   0     0   0   0     0   0   0     0   0   0     0   0   0     0   0   0     0   0   0     0   0   0     0   0   0     1 114 184     1 114 184     1 114 184     1 114 184     1 114 184  
   0   0   0     0   0   0     0   0   0     0   0   0     0   0   0     0   0   0     0   0   0     0   0   0     0   0   0     0   0   0     0   0   0     0   0   0     0   0   0     1 119 187     1 119 187     1 119 187     1 120 188     1 120 188     0   0   0     0   0   0     0   0   0     0   0   0     0   0   0     0   0   0     0   0   0     0   0   0     0   0   0     0   0   0     0   0   0     0   0   0     0   0   0     0   0   0     0   0   0     0   0   0     0   0   0     0   0   0     0   0   0     0   0   0     0   0   0     0   0   0     0   0   0     0   0   0     0   0   0     0   0   0     0   0   0     0   0   0     0   0   0     0   0   0     0   0   0     0   0   0     0   0   0     0   0   0     0   0   0     0   0   0     0   0   0     0   0   0     0   0   0     1 114 184     1 114 184     1 114 184     1 114 184     1 114 184     1 114 184  
   0   0   0     0   0   0     0   0   0     0   0   0     0   0   0     0   0   0     0   0   0     0   0   0     0   0   0     0   0   0     0   0   0     0   0   0     1 119 187     1 119 187     1 119 187     1 119 187     1 120 188     1 120 188     1 120 188     1 119 187     0   0   0     0   0   0     0   0   0     0   0   0     0   0   0     0   0   0     0   0   0     0   0   0     0   0   0     0   0   0     0   0   0     0   0   0     0   0   0     0   0   0     0   0   0     0   0   0     0   0   0     0   0   0     0   0   0     0   0   0     0   0   0     0   0   0     0   0   0     0   0   0     0   0   0     0   0   0     0   0   0     0   0   0     0   0   0     0   0   0     0   0   0     0   0   0     0   0   0     0   0   0     0   0   0     0   0   0     1 114 184     1 114 184     1 114 184     1 114 184     1 114 184     1 114 184     1 114 184  
   0   0   0     0   0   0     0   0   0     0   0   0     0   0   0     0   0   0     0   0   0     0   0   0     0   0   0     0   0   0     0   0   0     1 119 187     1 119 187     1 119 187     1 119 187     1 119 187     1 120 188     1 120 188     1 120 188     1 119 187     1 119 187     1 119 187     0   0   0     0   0   0     0   0   0     0   0   0     0   0   0     0   0   0     0   0   0     0   0   0     0   0   0     0   0   0     0   0   0     0   0   0     0   0   0     0   0   0     0   0   0     0   0   0     0   0   0     0   0   0     0   0   0     0   0   0     0   0   0     0   0   0     0   0   0     0   0   0     0   0   0     0   0   0     0   0   0     0   0   0     0   0   0     0   0   0     0   0   0     0   0   0     1 114 184     1 114 184     1 114 184     1 114 184     1 114 184     1 114 184     1 114 184     1 114 184     1 114 184  
   0   0   0     0   0   0     0   0   0     0   0   0     0   0   0     0   0   0     0   0   0     0   0   0     0   0   0     1 120 186     1 119 187     1 119 187     1 119 187     1 119 187     1 119 187     1 119 187     1 119 187     1 119 187     1 119 187     1 119 187     1 119 187     1 119 187     1 119 187     1 119 185     0   0   0     0   0   0     0   0   0     0   0   0     0   0   0     0   0   0     0   0   0     0   0   0     0   0   0     0   0   0     0   0   0     0   0   0     1 117 185     1 117 186     1 117 186     1 117 186     0   0   0     0   0   0     0   0   0     0   0   0     0   0   0     0   0   0     0   0   0     0   0   0     0   0   0     0   0   0     0   0   0     0   0   0     0   0   0     1 114 184     1 114 184     1 114 184     1 114 184     1 114 184     1 114 184     1 114 184     1 114 184     1 114 184     1 114 184  
   0   0   0     0   0   0     0   0   0     0   0   0     0   0   0     0   0   0     0   0   0     0   0   0     1 120 186     1 120 186     1 119 187     1 119 187     1 119 187     1 119 187     1 119 187     1 119 187     1 119 187     1 119 187     1 119 187     1 119 187     1 119 187     1 119 187     1 119 187     1 119 185     1 119 185     1 119 185     0   0   0     0   0   0     0   0   0     0   0   0     1 119 185     1 119 185     1 119 185     1 119 185     1 119 185     1 119 185     1 117 185     1 117 186     1 117 186     1 117 186     1 117 186     1 117 186     1 117 186     1 116 185     0   0   0     0   0   0     0   0   0     0   0   0     0   0   0     0   0   0     0   0   0     0   0   0     1 114 184     1 114 184     1 114 184     1 114 184     1 114 184     1 114 184     1 114 184     1 114 184     1 114 184     1 114 184     1 114 184  
   0   0   0     0   0   0     0   0   0     0   0   0     0   0   0     0   0   0     0   0   0     1 120 186     1 120 186     1 120 186     1 119 187     1 119 187     1 119 187     1 119 187     1 119 187     1 119 187     1 119 187     1 119 187     1 119 187     1 119 187     1 120 188     1 120 188     1 120 188     1 120 186     1 120 186     1 120 186     1 120 186     1 120 186     1 120 186     1 120 185     1 119 185     1 119 185     1 119 185     1 119 185     1 119 185     1 119 185     1 117 185     1 117 186     1 117 186     1 117 186     1 117 186     1 117 186     1 117 186     1 116 185     1 116 185     1 116 185     1 116 185     1 116 185     0   0   0     0   0   0     1 114 184     1 114 184     1 114 184     1 114 184     1 114 184     1 114 184     1 114 184     1 114 184     1 114 184     1 114 184     1 114 184     1 114 184     1 114 184  
   0   0   0     0   0   0     0   0   0     0   0   0     0   0   0     0   0   0     1 121 187     1 120 186     1 120 186     1 120 186     1 119 187     1 119 187     1 119 187     1 119 187     1 119 187     1 119 187     1 118 186     1 118 186     1 119 187     1 119 187     1 120 188     1 120 188     1 120 188     1 120 186     1 120 186     1 120 186     1 120 186     1 120 186     1 120 186     1 120 185     1 119 185     1 119 185     1 119 185     1 119 185     1 119 185     1 119 185     1 117 185     1 117 186     1 117 186     1 117 186     1 117 186     1 117 186     1 117 186     1 116 185     1 116 185     1 116 185     1 116 185     1 116 185     1 116 185     1 115 185     1 114 184     1 114 184     1 114 184     1 114 184     1 114 184     1 114 184     1 114 184     1 114 184     1 114 184     1 114 184     1 114 184     1 114 184     1 114 184  
   0   0   0     0   0   0     0   0   0     0   0   0     0   0   0     1 122 187     1 121 187     1 120 186     1 120 186     1 120 186     1 119 187     1 119 187     1 119 187     1 119 187     1 119 187     1 119 187     1 118 186     1 118 186     1 119 187     1 119 187     1 120 188     1 120 188     1 120 188     1 120 186     1 120 186     1 120 186     1 120 186     1 120 186     1 120 186     1 120 185     1 119 185     1 119 185     1 119 185     1 119 185     1 119 185     1 119 185     1 117 185     1 117 186     1 117 186     1 117 186     1 117 186     1 117 186     1 117 186     1 116 185     1 116 185     1 116 185     1 116 185     1 116 185     1 116 185     1 115 185     1 114 184     1 114 184     1 114 184     1 114 184     1 114 184     1 114 184     1 114 184     1 114 184     1 114 184     1 114 184     1 114 184     1 114 184     1 114 184  
   0   0   0     0   0   0     0   0   0     1 123 188     1 123 188     1 123 188     1 122 187     1 122 187     1 122 187     1 122 187     1 121 186     1 121 186     1 121 186     1 121 186     1 121 186     1 121 186     1 120 185     1 120 185     1 120 185     1 120 185     1 120 185     1 120 185     1 120 185     1 119 185     1 119 185     1 119 185     1 119 185     1 119 185     1 119 185     1 119 185     1 119 185     1 119 185     1 119 185     1 119 185     1 119 185     1 119 185     1 117 184     1 117 184     1 117 184     1 117 184     1 117 184     1 117 184     1 117 184     1 116 183     1 116 183     1 116 183     1 116 183     1 116 183     1 116 183     1 115 183     1 115 182     1 115 182     1 115 182     1 115 182     1 115 182     1 115 182     1 115 182     1 115 182     1 115 182     1 115 182     1 115 182     1 115 182     1 115 182  
   0   0   0     0   0   0     1 122 187     1 123 188     1 123 188     1 123 188     1 122 187     1 122 187     1 122 187     1 122 187     1 121 186     1 121 186     1 121 186     1 121 186     1 121 186     1 121 186     1 120 185     1 120 185     1 120 185     1 120 185     1 120 185     1 120 185     1 120 185     1 119 185     1 119 185     1 119 185     1 119 185     1 119 185     1 119 185     1 119 185     1 119 185     1 119 185     1 119 185     1 119 185     1 119 185     1 119 185     1 117 184     1 117 184     1 117 184     1 117 184     1 117 184     1 117 184     1 117 184     1 116 183     1 116 183     1 116 183     1 116 183     1 116 183     1 116 183     1 115 183     1 115 182     1 115 182     1 115 182     1 115 182     1 115 182     1 115 182     1 115 182     1 115 182     1 115 182     1 115 182     1 115 182     1 115 182     1 115 182  
   0   0   0     1 123 188     1 122 187     1 123 188     1 123 188     1 123 188     1 122 187     1 122 187     1 122 187     1 122 187     1 121 186     1 121 186     1 121 186     1 121 186     1 121 186     1 121 186     1 120 185     1 120 185     1 120 185     1 120 185     1 120 185     1 120 185     1 120 185     1 119 185     1 119 185     1 119 185     1 119 185     1 119 185     1 119 185     1 119 185     1 119 185     1 119 185     1 119 185     1 119 185     1 119 185     1 119 185     1 117 184     1 117 184     1 117 184     1 117 184     1 117 184     1 117 184     1 117 184     1 116 183     1 116 183     1 116 183     1 116 183     1 116 183     1 116 183     1 115 183     1 115 182     1 115 182     1 115 182     1 115 182     1 115 182     1 115 182     1 115 182     1 115 182     1 115 182     1 115 182     1 115 182     1 115 182     1 115 182  
   1 123 188     1 123 188     1 122 187     1 123 188     1 123 188     1 123 188     1 122 187     1 122 187     1 122 187     1 122 187     1 121 186     1 121 186     1 121 186     1 121 186     1 121 186     1 121 186     1 120 185     1 120 185     1 120 185     1 120 185     1 120 185     1 120 185     1 120 185     1 119 185     1 119 185     1 119 185     1 119 185     1 119 185     1 119 185     1 119 185     1 119 185     1 119 185     1 119 185     1 119 185     1 119 185     1 119 185     1 117 184     1 117 184     1 117 184     1 117 184     1 117 184     1 117 184     1 117 184     1 116 183     1 116 183     1 116 183     1 116 183     1 116 183     1 116 183     1 115 183     1 115 182     1 115 182     1 115 182     1 115 182     1 115 182     1 115 182     1 115 182     1 115 182     1 115 182     1 115 182     1 115 182     1 115 182     1 115 182  
   1 123 188     1 123 188     1 122 187     1 123 188     1 123 188     1 123 188     1 122 187     1 122 187     1 122 187     1 122 187     1 121 186     1 121 186     1 121 186     1 121 186     1 121 186     1 121 186     1 120 185     1 120 185     1 120 185     1 120 185     1 120 185     1 120 185     1 120 185     1 119 185     1 119 185     1 119 185     1 119 185     1 119 185     1 119 185     1 119 185     1 119 185     1 119 185     1 119 185     1 119 185     1 119 185     1 119 185     1 117 184     1 117 184     1 117 184     1 117 184     1 117 184     1 117 184     1 117 184     1 116 183     1 116 183     1 116 183     1 116 183     1 116 183     1 116 183     1 115 183     1 115 182     1 115 182     1 115 182     1 115 182     1 115 182     1 115 182     1 115 182     1 115 182     1 115 182     1 115 182     1 115 182     1 115 182     1 115 182  
   0   0   0     1 123 188     1 122 187     1 123 188     1 123 188     1 123 188     1 122 187     1 122 187     1 122 187     1 122 187     1 121 186     1 121 186     1 121 186     1 121 186     1 121 186     1 121 186     1 120 185     1 120 185     1 120 185     1 120 185     1 120 185     1 120 185     1 120 185     1 119 185     1 119 185     1 119 185     1 119 185     1 119 185     1 119 185     1 119 185     1 119 185     1 119 185     1 119 185     1 119 185     1 119 185     1 119 185     1 117 184     1 117 184     1 117 184     1 117 184     1 117 184     1 117 184     1 117 184     1 116 183     1 116 183     1 116 183     1 116 183     1 116 183     1 116 183     1 115 183     1 115 182     1 115 182     1 115 182     1 115 182     1 115 182     1 115 182     1 115 183     1 116 183     1 116 183     1 116 183     1 116 183     1 116 183     1 116 183  
   0   0   0     1 123 188     1 122 187     1 123 188     1 123 188     1 123 188     1 122 187     1 122 187     1 122 187     1 122 187     1 121 186     1 121 186     1 121 186     1 121 186     1 121 186     1 121 186     1 120 185     1 120 185     1 120 185     1 120 185     1 120 185     1 120 185     1 120 185     1 119 185     1 119 185     1 119 185     1 119 185     1 119 185     1 119 185     1 119 185     1 119 185     1 119 185     1 119 185     1 119 185     1 119 185     1 119 185     1 117 184     1 117 184     1 117 184     1 117 184     1 117 184     1 117 184     1 117 184     1 116 183     1 116 183     1 116 183     1 116 183     1 116 183     1 116 183     1 115 183     1 115 182     1 115 182     1 115 182     1 115 182     1 115 182     1 115 182     1 115 183     1 116 183     1 116 183     1 116 183     1 116 183     1 116 183     1 116 183  
   0   0   0     1 123 188     1 122 187     1 123 188     1 123 188     1 123 188     1 122 187     1 122 187     1 122 187     1 122 187     1 121 186     1 121 186     1 121 186     1 121 186     1 121 186     1 121 186     1 120 185     1 120 185     1 120 185     1 120 185     1 120 185     1 120 185     1 120 185     1 119 185     1 119 185     1 119 185     1 119 185     1 119 185     1 119 185     1 119 185     1 119 185     1 119 185     1 119 185     1 119 185     1 119 185     1 119 185     1 117 184     1 117 184     1 117 184     1 117 184     1 117 184     1 117 184     1 117 184     1 116 183     1 116 183     1 116 183     1 116 183     1 116 183     1 116 183     1 115 183     1 115 182     1 115 182     1 115 182     1 115 182     1 115 182     1 115 182     1 115 183     1 116 183     1 116 183     1 116 183     1 116 183     1 116 183     1 116 183  
   0   0   0     1 123 188     1 122 187     1 122 187     1 122 187     1 122 187     1 122 187     1 122 187     1 122 187     1 122 187     1 121 186     1 121 186     1 121 186     1 121 186     1 121 186     1 121 186     1 120 185     1 120 185     1 120 185     1 120 185     1 120 185     1 120 185     1 120 185     1 119 185     1 119 185     1 119 185     1 119 185     1 119 185     1 119 185     1 119 185     1 119 185     1 119 185     1 119 185     1 119 185     1 119 185     1 119 185     1 118 185     1 118 185     1 118 185     1 118 185     1 118 185     1 118 185     1 118 185     1 116 183     1 116 183     1 116 183     1 116 183     1 116 183     1 116 183     1 116 183     1 116 183     1 116 183     1 116 183     1 116 183     1 116 183     1 116 183     1 115 182     1 115 182     1 115 182     1 115 182     1 115 182     1 115 182     1 115 182  
   0   0   0     0   0   0     1 122 187     1 122 187     1 122 187     1 122 187     1 122 187     1 122 187     1 122 187     1 122 187     1 121 186     1 121 186     1 121 186     1 121 186     1 121 186     1 121 186     1 120 185     1 120 185     1 120 185     1 120 185     1 120 185     1 120 185     1 120 185     1 119 185     1 119 185     1 119 185     1 119 185     1 119 185     1 119 185     1 119 185     1 119 185     1 119 185     1 119 185     1 119 185     1 119 185     1 119 185     1 118 185     1 118 185     1 118 185     1 118 185     1 118 185     1 118 185     1 118 185     1 116 183     1 116 183     1 116 183     1 116 183     1 116 183     1 116 183     1 116 183     1 116 183     1 116 183     1 116 183     1 116 183     1 116 183     1 116 183     1 115 182     1 115 182     1 115 182     1 115 182     1 115 182     1 115 182     1 115 182  
   0   0   0     0   0   0     1 122 187     1 122 187     1 122 187     1 122 187     1 122 187     1 122 187     1 122 187     1 122 187     1 121 186     1 121 186     1 121 186     1 121 186     1 121 186     1 121 186     1 120 185     1 120 185     1 120 185     1 120 185     1 120 185     1 120 185     1 120 185     1 119 185     1 119 185     1 119 185     1 119 185     1 119 185     1 119 185     1 119 185     1 119 185     1 119 185     1 119 185     1 119 185     1 119 185     1 119 185     1 118 185     1 118 185     1 118 185     1 118 185     1 118 185     1 118 185     1 118 185     1 116 183     1 116 183     1 116 183     1 116 183     1 116 183     1 116 183     1 116 183     1 116 183     1 116 183     1 116 183     1 116 183     1 116 183     1 116 183     1 115 182     1 115 182     1 115 182     1 115 182     1 115 182     1 115 182     1 115 182  
   0   0   0     0   0   0     1 122 187     1 122 187     1 122 187     1 122 187     1 122 187     1 122 187     1 122 187     1 122 187     1 121 186     1 121 186     1 121 186     1 121 186     1 121 186     1 121 186     1 120 185     1 120 185     1 120 185     1 120 185     1 120 185     1 120 185     1 120 185     1 119 185     1 119 185     1 119 185     1 119 185     1 119 185     1 119 185     1 119 185     1 119 185     1 119 185     1 119 185     1 119 185     1 119 185     1 119 185     1 118 185     1 118 185     1 118 185     1 118 185     1 118 185     1 118 185     1 118 185     1 116 183     1 116 183     1 116 183     1 116 183     1 116 183     1 116 183     1 116 183     1 116 183     1 116 183     1 116 183     1 116 183     1 116 183     1 116 183     1 115 182     1 115 182     1 115 182     1 115 182     1 115 182     1 115 182     1 115 182  
   0   0   0     0   0   0     1 122 187     1 122 187     1 122 187     1 122 187     1 122 187     1 122 187     1 122 187     1 122 187     1 121 186     1 121 186     1 121 186     1 121 186     1 121 186     1 121 186     1 120 185     1 120 185     1 120 185     1 120 185     1 120 185     1 120 185     1 120 185     1 119 185     1 119 185     1 119 185     1 119 185     1 119 185     1 119 185     1 119 185     1 118 184     1 118 184     1 118 184     1 118 184     1 118 184     1 118 184     1 118 185     1 118 185     1 118 185     1 118 185     1 118 185     1 118 185     1 118 185     1 116 183     1 116 183     1 116 183     1 116 183     1 116 183     1 116 183     1 116 183     1 116 183     1 116 183     1 116 183     1 116 183     1 116 183     1 116 183     1 115 182     1 115 182     1 115 182     1 115 182     1 115 182     1 115 182     1 115 182  
   0   0   0     0   0   0     0   0   0     1 122 187     1 122 187     1 122 187     1 122 187     1 122 187     1 122 187     1 122 187     1 121 186     1 121 186     1 121 186     1 121 186     1 121 186     1 121 186     1 120 185     1 120 185     1 120 185     1 120 185     1 120 185     1 120 185     1 120 185     1 119 185     1 119 185     1 119 185     1 119 185     1 119 185     1 119 185     1 119 185     1 118 184     1 118 184     1 118 184     1 118 184     1 118 184     1 118 184     1 118 185     1 118 185     1 118 185     1 118 185     1 118 185     1 118 185     1 118 185     1 116 183     1 116 183     1 116 183     1 116 183     1 116 183     1 116 183     1 116 183     1 116 183     1 116 183     1 116 183     1 116 183     1 116 183     1 116 183     1 115 182     1 115 182     1 115 182     1 115 182     1 115 182     1 115 182     1 115 182  
   0   0   0     0   0   0     0   0   0     1 122 187     1 122 187     1 122 187     1 122 187     1 122 187     1 122 187     1 122 187     1 121 186     1 121 186     1 121 186     1 121 186     1 121 186     1 121 186     1 120 185     1 120 185     1 120 185     1 120 185     1 120 185     1 120 185     1 120 185     1 119 185     1 119 185     1 119 185     1 119 185     1 119 185     1 119 185     1 119 185     1 118 184     1 118 184     1 118 184     1 118 184     1 118 184     1 118 184     1 118 185     1 118 185     1 118 185     1 118 185     1 118 185     1 118 185     1 118 185     1 116 183     1 116 183     1 116 183     1 116 183     1 116 183     1 116 183     1 116 183     1 116 183     1 116 183     1 116 183     1 116 183     1 116 183     1 116 183     1 115 182     1 115 182     1 115 182     1 115 182     1 115 182     1 115 182     1 115 182  
   0   0   0     0   0   0     0   0   0     1 122 187     1 122 187     1 122 187     1 122 187     1 122 187     1 122 187     1 122 187     1 121 186     1 121 186     1 121 186     1 121 186     1 121 186     1 121 186     1 120 185     1 120 185     1 120 185     1 120 185     1 120 185     1 120 185     1 120 185     1 119 185     1 119 185     1 119 185     1 119 185     1 119 185     1 119 185     1 119 185     1 118 184     1 118 184     1 118 184     1 118 184     1 118 184     1 118 184     1 118 185     1 118 185     1 118 185     1 118 185     1 118 185     1 118 185     1 118 185     1 116 183     1 116 183     1 116 183     1 116 183     1 116 183     1 116 183     1 116 183     1 116 183     1 116 183     1 116 183     1 116 183     1 116 183     1 116 183     1 115 182     1 115 182     1 115 182     1 115 182     1 115 182     1 115 182     1 115 182  
   0   0   0     0   0   0     0   0   0     1 123 188     1 123 188     1 122 187     1 121 187     1 120 186     1 120 186     1 120 186     1 121 186     1 121 186     1 121 186     1 121 186     1 121 186     1 121 186     1 121 186     1 121 186     1 121 186     1 121 186     1 121 186     1 121 186     1 121 186     1 120 186     1 120 186     1 120 186     1 120 186     1 120 186     1 120 186     1 120 185     1 119 185     1 119 185     1 119 185     1 119 185     1 119 185     1 119 185     1 117 184     2 117 184     2 117 184     2 117 184     2 117 184     2 117 184     2 117 184     1 116 183     1 116 183     1 116 183     1 116 183     1 116 183     1 116 183     1 116 183     1 116 183     1 116 183     1 115 182     1 115 182     1 115 182     1 115 182     1 115 182     1 115 182     1 115 182     1 115 182     1 115 182     1 115 182     1 115 182  
   0   0   0     0   0   0     0   0   0     1 123 188     1 123 188     1 122 187     1 121 187     1 120 186     1 120 186     1 120 186     1 121 186     1 121 186     1 121 186     1 121 186     1 121 186     1 121 186     1 121 186     1 121 186     1 121 186     1 121 186     1 121 186     1 121 186     1 121 186     1 120 186     1 120 186     1 120 186     1 120 186     1 120 186     1 120 186     1 120 185     1 119 185     1 119 185     1 119 185     1 119 185     1 119 185     1 119 185     1 117 184     2 117 184     2 117 184     2 117 184     2 117 184     2 117 184     2 117 184     1 116 183     1 116 183     1 116 183     1 116 183     1 116 183     1 116 183     1 116 183     1 116 183     1 116 183     1 115 182     1 115 182     1 115 182     1 115 182     1 115 182     1 115 182     1 115 182     1 115 182     1 115 182     1 115 182     1 115 182  
   0   0   0     0   0   0     0   0   0     1 123 188     1 123 188     1 122 187     1 121 187     1 120 186     1 120 186     1 120 186     1 121 186     1 121 186     1 121 186     1 121 186     1 121 186     1 121 186     1 121 186     1 121 186     1 121 186     1 121 186     1 121 186     1 121 186     1 121 186     1 120 186     1 120 186     1 120 186     1 120 186     1 120 186     1 120 186     1 120 185     1 119 185     1 119 185     1 119 185     1 119 185     1 119 185     1 119 185     2 117 184     2 117 184     2 117 184     2 117 184     2 117 184     2 117 184     2 117 184     1 116 183     1 116 183     1 116 183     1 116 183     1 116 183     1 116 183     1 116 183     1 116 183     1 116 183     1 115 182     1 115 182     1 115 182     1 115 182     1 115 182     1 115 182     1 115 182     1 115 182     1 115 182     1 115 182     1 115 182  
   0   0   0     0   0   0     0   0   0     1 123 188     1 123 188     1 122 187     1 121 187     1 120 186     1 120 186     1 120 186     1 121 186     1 121 186     1 121 186     1 121 186     1 121 186     1 121 186     1 121 186     1 121 186     1 121 186     1 121 186     1 121 186     1 121 186     1 121 186     1 120 186     1 120 186     1 120 186     1 120 186     1 120 186     1 120 186     1 120 185     1 119 185     1 119 185     1 119 185     1 119 185     1 119 185     1 119 185     1 117 184     2 117 184     2 117 184     2 117 184     2 117 184     2 117 184     2 117 184     1 116 183     1 116 183     1 116 183     1 116 183     1 116 183     1 116 183     1 116 183     1 116 183     1 116 183     1 115 182     1 115 182     1 115 182     1 115 182     1 115 182     1 115 182     1 115 182     1 115 182     1 115 182     1 115 182     1 115 182  
   0   0   0     0   0   0     1 123 187     1 123 188     1 123 188     1 122 187     1 121 187     1 120 186     1 120 186     1 120 186     1 121 186     1 121 186     1 121 186     1 121 186     1 121 186     1 121 186     1 121 186     1 121 186     1 121 186     1 121 186     1 121 186     1 121 186     1 121 186     1 120 186     1 120 186     1 120 186     1 120 186     1 120 186     1 120 186     1 120 185     1 119 185     1 119 185     1 119 185     1 119 185     1 119 185     1 119 185     2 117 184     2 117 184     2 117 184     2 117 184     2 117 184     2 117 184     2 117 184     1 116 183     1 116 183     1 116 183     1 116 183     1 116 183     1 116 183     1 116 183     1 116 183     1 116 183     1 115 182     1 115 182     1 115 182     1 115 182     1 115 182     1 115 182     1 115 182     1 115 182     1 115 182     1 115 182     1 115 182  
   0   0   0     0   0   0     1 123 187     1 123 188     1 123 188     1 122 187     1 121 187     1 120 186     1 120 186     1 120 186     1 121 186     1 121 186     1 121 186     1 121 186     1 121 186     1 121 186     1 121 186     1 121 186     1 121 186     1 121 186     1 121 186     1 121 186     1 121 186     1 120 186     1 120 186     1 120 186     1 120 186     1 120 186     1 120 186     1 120 185     1 119 185     1 119 185     1 119 185     1 119 185     1 119 185     1 119 185     1 117 184     2 117 184     2 117 184     2 117 184     2 117 184     2 117 184     2 117 184     1 116 183     1 116 183     1 116 183     1 116 183     1 116 183     1 116 183     1 116 183     1 116 183     1 116 183     1 115 182     1 115 182     1 115 182     1 115 182     1 115 182     1 115 182     1 115 182     1 115 182     1 115 182     1 115 182     1 115 182  
   0   0   0     0   0   0     1 123 187     1 123 188     1 123 188     1 122 187     1 121 187     1 120 186     1 120 186     1 120 186     1 121 186     1 121 186     1 121 186     1 121 186     1 121 186     1 121 186     1 121 186     1 121 186     1 121 186     1 121 186     1 121 186     1 121 186     1 121 186     1 120 186     1 120 186     1 120 186     1 120 186     1 120 186     1 120 186     1 120 185     1 119 185     1 119 185     1 119 185     1 119 185     1 119 185     1 119 185     2 117 184     2 117 184     2 117 184     2 117 184     2 117 184     2 117 184     2 117 184     1 116 183     1 116 183     1 116 183     1 116 183     1 116 183     1 116 183     1 116 183     1 116 183     1 116 183     1 115 182     1 115 182     1 115 182     1 115 182     1 115 182     1 115 182     1 115 182     1 115 182     1 115 182     1 115 182     1 115 182  
   0   0   0     0   0   0     1 123 187     1 123 188     1 123 188     1 122 187     1 121 187     1 120 186     1 120 186     1 120 186     1 121 186     1 121 186     1 121 186     1 121 186     1 121 186     1 121 186     1 121 186     1 121 186     1 121 186     1 121 186     1 121 186     1 121 186     1 121 186     1 120 186     1 120 186     1 120 186     1 120 186     1 120 186     1 120 186     1 120 185     1 119 185     1 119 185     1 119 185     1 119 185     1 119 185     1 119 185     1 117 184     2 117 184     2 117 184     2 117 184     2 117 184     2 117 184     2 117 184     1 116 183     1 116 183     1 116 183     1 116 183     1 116 183     1 116 183     1 116 183     1 116 183     1 116 183     1 115 182     1 115 182     1 115 182     1 115 182     1 115 182     1 115 182     1 115 182     1 115 182     1 115 182     1 115 182     1 115 182  
   0   0   0     0   0   0     1 123 187     1 122 187     1 122 187     1 122 187     1 121 187     2 121 187     2 121 187     1 121 187     1 121 186     1 121 186     1 121 186     1 121 186     1 121 186     1 121 186     1 120 185     1 120 185     1 120 185     1 120 185     1 120 185     1 120 185     1 120 185     1 120 186     1 120 186     1 120 186     1 120 186     1 120 186     1 120 186     1 120 185     1 119 185     1 119 185     1 119 185     1 119 185     1 119 185     1 119 185     2 117 184     2 117 184     2 117 184     2 117 184     2 117 184     2 117 184     2 117 184     2 117 184     2 117 184     2 117 184     1 116 183     1 116 183     1 115 182     1 115 182     1 115 182     1 115 182     1 115 182     1 115 182     1 115 182     1 115 182     1 115 182     1 115 182     1 115 182     1 115 182     1 115 182     1 115 182     1 115 182  
   0   0   0     0   0   0     1 123 187     1 122 187     1 122 187     1 122 187     1 121 187     2 121 187     2 121 187     1 121 187     1 121 186     1 121 186     1 121 186     1 121 186     1 121 186     1 121 186     1 120 185     1 120 185     1 120 185     1 120 185     1 120 185     1 120 185     1 120 185     1 120 186     1 120 186     1 120 186     1 120 186     1 120 186     1 120 186     1 120 185     1 119 185     1 119 185     1 119 185     1 119 185     1 119 185     1 119 185     1 117 184     2 117 184     2 117 184     2 117 184     2 117 184     2 117 184     2 117 184     2 117 184     2 117 184     2 117 184     1 116 183     1 116 183     1 115 182     1 115 182     1 115 182     1 115 182     1 115 182     1 115 182     1 115 182     1 115 182     1 115 182     1 115 182     1 115 182     1 115 182     1 115 182     1 115 182     1 115 182  
   0   0   0     0   0   0     0   0   0     1 122 187     1 122 187     1 122 187     1 121 187     2 121 187     2 121 187     1 121 187     1 121 186     1 121 186     1 121 186     1 121 186     1 121 186     1 121 186     1 120 185     1 120 185     1 120 185     1 120 185     1 120 185     1 120 185     1 120 185     1 120 186     1 120 186     1 120 186     1 120 186     1 120 186     1 120 186     1 120 185     1 119 185     1 119 185     1 119 185     1 119 185     1 119 185     1 119 185     0   0   0     0   0   0     0   0   0     0   0   0     2 117 184     2 117 184     2 117 184     2 117 184     2 117 184     2 117 184     1 116 183     1 116 183     1 115 182     1 115 182     1 115 182     1 115 182     1 115 182     1 115 182     1 115 182     1 115 182     1 115 182     1 115 182     1 115 182     1 115 182     1 115 182     1 115 182     1 115 182  
   0   0   0     0   0   0     0   0   0     1 122 187     1 122 187     1 122 187     1 121 187     2 121 187     2 121 187     1 121 187     1 121 186     1 121 186     1 121 186     1 121 186     1 121 186     1 121 186     1 120 185     1 120 185     1 120 185     1 120 185     1 120 185     1 120 185     1 120 185     1 119 185     1 119 185     1 119 185     1 119 185     1 119 185     1 119 185     1 119 185     0   0   0     0   0   0     0   0   0     0   0   0     0   0   0     0   0   0     0   0   0     0   0   0     0   0   0     0   0   0     0   0   0     0   0   0     0   0   0     2 117 184     2 117 184     2 117 184     1 116 183     1 116 183     1 115 182     1 115 182     1 115 182     1 115 182     1 115 182     1 115 182     1 115 182     1 115 182     1 115 182     1 115 182     1 115 182     1 115 182     1 115 182     1 115 182     1 115 182  
   0   0   0     0   0   0     0   0   0     0   0   0     1 122 187     1 122 187     1 121 187     2 121 187     2 121 187     1 121 187     1 121 186     1 121 186     1 121 186     1 121 186     1 121 186     1 121 186     1 120 185     1 120 185     1 120 185     1 120 185     1 120 185     1 120 185     1 120 185     1 119 185     1 119 185     1 119 185     1 119 185     0   0   0     0   0   0     0   0   0     0   0   0     0   0   0     0   0   0     0   0   0     0   0   0     0   0   0     0   0   0     0   0   0     0   0   0     0   0   0     0   0   0     0   0   0     0   0   0     0   0   0     0   0   0     2 117 184     1 116 183     1 116 183     1 115 182     1 115 182     1 115 182     1 115 182     1 115 182     1 115 182     1 115 182     1 115 182     1 115 182     1 115 182     1 115 182     1 115 182     1 115 182     1 115 182     1 115 182  
   0   0   0     0   0   0     0   0   0     0   0   0     0   0   0     1 122 187     1 121 187     2 121 187     2 121 187     1 121 187     1 121 186     1 121 186     1 121 186     1 121 186     1 121 186     1 121 186     1 120 185     1 120 185     1 120 185     1 120 185     1 120 185     1 120 185     1 120 185     1 119 185     1 119 185     1 119 185     0   0   0     0   0   0     0   0   0     0   0   0     0   0   0     0   0   0     0   0   0     0   0   0     0   0   0     0   0   0     0   0   0     0   0   0     0   0   0     0   0   0     0   0   0     0   0   0     0   0   0     0   0   0     0   0   0     0   0   0     0   0   0     0   0   0     1 115 182     1 115 182     1 115 182     1 115 182     1 115 182     1 115 182     1 115 182     1 115 182     1 115 182     1 115 182     1 115 182     1 115 182     1 115 182     1 115 182     1 115 182  
   0   0   0     0   0   0     0   0   0     0   0   0     0   0   0     0   0   0     1 121 187     2 121 187     2 121 187     1 121 187     1 121 186     1 121 186     1 121 186     1 121 186     1 121 186     1 121 186     1 120 185     1 120 185     1 120 185     1 120 185     1 120 185     1 120 185     1 120 185     1 119 185     1 119 185     0   0   0     0   0   0     0   0   0     0   0   0     0   0   0     0   0   0     0   0   0     0   0   0     0   0   0     0   0   0     0   0   0     0   0   0     0   0   0     0   0   0     0   0   0     0   0   0     0   0   0     0   0   0     0   0   0     0   0   0     0   0   0     0   0   0     0   0   0     0   0   0     0   0   0     1 115 182     1 115 182     1 115 182     1 115 182     1 115 182     1 115 182     1 115 182     1 115 182     1 115 182     1 115 182     1 115 182     1 115 182     1 115 182  
   0   0   0     0   0   0     0   0   0     0   0   0     0   0   0     0   0   0     1 121 187     2 121 187     2 121 187     1 121 187     1 121 186     1 121 186     1 121 186     1 121 186     1 121 186     1 121 186     1 120 185     1 120 185     1 120 185     1 120 185     1 120 185     1 120 185     1 120 185     1 119 185     0   0   0     0   0   0     0   0   0     0   0   0     0   0   0     0   0   0     0   0   0     0   0   0     0   0   0     0   0   0     0   0   0     0   0   0     0   0   0     0   0   0     0   0   0     0   0   0     0   0   0     0   0   0     0   0   0     0   0   0     0   0   0     0   0   0     0   0   0     0   0   0     0   0   0     0   0   0     0   0   0     1 115 182     1 115 182     1 115 182     1 115 182     1 115 182     1 115 182     1 115 182     1 115 182     1 115 182     1 115 182     1 115 182     1 115 182  
   0   0   0     0   0   0     0   0   0     0   0   0     0   0   0     0   0   0     0   0   0     1 121 186     1 121 186     1 121 186     1 121 186     1 121 186     1 121 186     1 121 186     1 121 186     1 121 186     1 121 186     1 121 186     1 121 186     1 121 186     1 121 186     1 121 186     1 121 186     0   0   0     0   0   0     0   0   0     0   0   0     0   0   0     0   0   0     0   0   0     0   0   0     0   0   0     0   0   0     0   0   0     0   0   0     0   0   0     0   0   0     0   0   0     0   0   0     0   0   0     0   0   0     0   0   0     0   0   0     0   0   0     0   0   0     0   0   0     0   0   0     0   0   0     0   0   0     0   0   0     0   0   0     0   0   0     0   0   0     1 114 182     1 114 182     1 114 182     1 114 182     1 114 182     1 114 182     1 114 182     1 113 181     1 113 181     1 113 181  
   0   0   0     0   0   0     0   0   0     0   0   0     0   0   0     0   0   0     0   0   0     0   0   0     1 121 186     1 121 186     1 121 186     1 121 186     1 121 186     1 121 186     1 121 186     1 121 186     1 121 186     1 121 186     1 121 186     1 121 186     1 121 186     0   0   0     0   0   0     0   0   0     0   0   0     0   0   0     0   0   0     0   0   0     0   0   0     0   0   0     0   0   0     0   0   0     0   0   0     0   0   0     0   0   0     0   0   0     0   0   0     0   0   0     0   0   0     0   0   0     0   0   0     0   0   0     0   0   0     0   0   0     0   0   0     0   0   0     0   0   0     0   0   0     0   0   0     0   0   0     0   0   0     0   0   0     0   0   0     0   0   0     1 114 182     1 114 182     1 114 182     1 114 182     1 114 182     1 114 182     1 113 181     1 113 181     1 113 181  
   0   0   0     0   0   0     0   0   0     0   0   0     0   0   0     0   0   0     0   0   0     0   0   0     0   0   0     1 121 186     1 121 186     1 121 186     1 121 186     1 121 186     1 121 186     1 121 186     1 121 186     1 121 186     1 121 186     1 121 186     0   0   0     0   0   0     0   0   0     0   0   0     0   0   0     0   0   0     0   0   0     0   0   0     0   0   0     0   0   0     0   0   0     0   0   0     0   0   0     0   0   0     0   0   0     0   0   0     0   0   0     0   0   0     0   0   0     0   0   0     0   0   0     0   0   0     0   0   0     0   0   0     0   0   0     0   0   0     0   0   0     0   0   0     0   0   0     0   0   0     0   0   0     0   0   0     0   0   0     0   0   0     0   0   0     1 114 182     1 114 182     1 114 182     1 114 182     1 114 182     1 113 181     1 113 181     1 113 181  
   0   0   0     0   0   0     0   0   0     0   0   0     0   0   0     0   0   0     0   0   0     0   0   0     0   0   0     1 121 186     1 121 186     1 121 186     1 121 186     1 121 186     1 121 186     1 121 186     1 121 186     1 121 186     1 121 186     0   0   0     0   0   0     0   0   0     0   0   0     0   0   0     0   0   0     0   0   0     0   0   0     0   0   0     0   0   0     0   0   0     0   0   0     0   0   0     0   0   0     0   0   0     0   0   0     0   0   0     0   0   0     0   0   0     0   0   0     0   0   0     0   0   0     0   0   0     0   0   0     0   0   0     0   0   0     0   0   0     0   0   0     0   0   0     0   0   0     0   0   0     0   0   0     0   0   0     0   0   0     0   0   0     0   0   0     0   0   0     1 114 182     1 114 182     1 114 182     1 114 182     1 113 181     1 113 181     1 113 181  
   0   0   0     0   0   0     0   0   0     0   0   0     0   0   0     0   0   0     0   0   0     0   0   0     0   0   0     0   0   0     1 121 186     1 121 186     1 121 186     1 121 186     1 121 186     1 121 186     1 121 186     1 121 186     0   0   0     0   0   0     0   0   0     0   0   0     0   0   0     0   0   0     0   0   0     0   0   0     0   0   0     0   0   0     0   0   0     0   0   0     0   0   0     0   0   0     0   0   0     0   0   0     0   0   0     0   0   0     0   0   0     0   0   0     0   0   0     0   0   0     0   0   0     0   0   0     0   0   0     0   0   0     0   0   0     0   0   0     0   0   0     0   0   0     0   0   0     0   0   0     0   0   0     0   0   0     0   0   0     0   0   0     0   0   0     0   0   0     0   0   0     1 114 182     1 114 182     1 114 182     1 113 181     1 113 181     1 113 181  
   0   0   0     0   0   0     0   0   0     0   0   0     0   0   0     0   0   0     0   0   0     0   0   0     0   0   0     0   0   0     0   0   0     0   0   0     1 121 186     1 121 186     1 121 186     1 121 186     1 121 186     0   0   0     0   0   0     0   0   0     0   0   0     0   0   0     0   0   0     0   0   0     0   0   0     0   0   0     0   0   0     0   0   0     0   0   0     0   0   0     0   0   0     0   0   0     0   0   0     0   0   0     0   0   0     0   0   0     0   0   0     0   0   0     0   0   0     0   0   0     0   0   0     0   0   0     0   0   0     0   0   0     0   0   0     0   0   0     0   0   0     0   0   0     0   0   0     0   0   0     0   0   0     0   0   0     0   0   0     0   0   0     0   0   0     0   0   0     0   0   0     0   0   0     0   0   0     1 114 182     1 113 181     1 113 181     1 113 181  
   0   0   0     0   0   0     0   0   0     0   0   0     0   0   0     0   0   0     0   0   0     0   0   0     0   0   0     0   0   0     0   0   0     0   0   0     0   0   0     1 121 186     1 121 186     1 121 186     0   0   0     0   0   0     0   0   0     0   0   0     0   0   0     0   0   0     0   0   0     0   0   0     0   0   0     0   0   0     0   0   0     0   0   0     0   0   0     0   0   0     0   0   0     0   0   0     0   0   0     0   0   0     0   0   0     0   0   0     0   0   0     0   0   0     0   0   0     0   0   0     0   0   0     0   0   0     0   0   0     0   0   0     0   0   0     0   0   0     0   0   0     0   0   0     0   0   0     0   0   0     0   0   0     0   0   0     0   0   0     0   0   0     0   0   0     0   0   0     0   0   0     0   0   0     0   0   0     0   0   0     1 113 181     1 113 181     1 113 181  
   0   0   0     0   0   0     0   0   0     0   0   0     0   0   0     0   0   0     0   0   0     0   0   0     0   0   0     0   0   0     0   0   0     0   0   0     0   0   0     1 121 186     1 121 186     0   0   0     0   0   0     0   0   0     0   0   0     0   0   0     0   0   0     0   0   0     0   0   0     0   0   0     0   0   0     0   0   0     0   0   0     0   0   0     0   0   0     0   0   0     0   0   0     0   0   0     0   0   0     0   0   0     0   0   0     0   0   0     0   0   0     0   0   0     0   0   0     0   0   0     0   0   0     0   0   0     0   0   0     0   0   0     0   0   0     0   0   0     0   0   0     0   0   0     0   0   0     0   0   0     0   0   0     0   0   0     0   0   0     0   0   0     0   0   0     0   0   0     0   0   0     0   0   0     0   0   0     0   0   0     0   0   0     1 113 181     1 113 181  
