P3
59 60
255
   0   0   0     0   0   0     0   0   0     0   0   0     0   0   0     0   0   0     0   0   0     0   0   0     0   0   0    55  71  71    34  47  48    55  64  66    52  58  61    43  45  49    49  49  51    48  48  48    42  42  41    47  47  45    41  43  40    40  42  39    50  51  49    51  51  49    44  45  41    38  38  33    41  40  35    50  48  43    58  55  48    56  52  44    75  70  62    72  65  57    57  50  41    67  60  50    62  57  48    77  74  65    70  67  58    63  59  50    75  71  62    60  56  46    75  72  60    69  62  52    69  62  52    63  57  45   106  98  87    93  85  74    71  63  52    84  74  60    84  72  54   105  93  71   112  97  76   125 109  85   138 119  95   126 105  80   122 100  76   154 131 107   143 121  98   142 120 100   149 126 108   129 108  89   116  94  73  
   0   0   0     0   0   0     0   0   0     0   0   0     0   0   0     0   0   0     0   0   0     0   0   0     0   0   0    71  91  90    31  48  48    46  58  60    54  60  63    52  54  58    56  56  58    55  53  54    50  50  48    56  58  55    53  55  52    40  42  39    55  56  53    60  60  58    50  51  47    38  39  34    45  44  39    69  67  62    84  81  74    65  61  52    71  67  58    70  63  55    50  43  35    56  50  40    62  59  49    82  79  70    68  64  56    58  55  46    60  56  47    50  46  35    70  66  55    92  85  75    64  57  46    55  49  37   111 104  93   103  95  84    75  67  56    90  82  67   108  98  79   112 100  79   103  91  70   103  88  64   118 102  76   140 121  96   141 119  95   144 122  98   126 104  81   135 113  91   149 128 108   138 117  98   111  90  67  
   0   0   0     0   0   0     0   0   0     0   0   0     0   0   0     0   0   0     0   0   0     0   0   0     0   0   0    96 117 118    32  51  52    35  49  50    47  54  58    50  51  55    52  50  53    50  46  49    45  44  44    50  52  47    46  51  47    44  45  43    52  54  52    59  59  57    55  55  53    42  42  40    46  46  41    72  70  66    85  82  77    58  53  48    48  43  37    57  50  42    47  40  32    63  56  48    76  70  63    86  82  76    56  53  46    56  53  46    57  53  44    53  49  40    69  65  56    85  78  68    57  50  40    51  44  34    84  75  66    67  58  49    67  59  48   114 103  90   136 125 108   113 101  82   115 100  79   112  95  72   101  82  59   120 100  76   138 117  93   136 114  90   121  99  75   136 114  91   147 127 104   143 122 101   112  92  68  
   0   0   0     0   0   0     0   0   0     0   0   0     0   0   0     0   0   0     0   0   0     0   0   0     0   0   0   126 150 150    46  69  69    35  52  52    44  52  55    43  45  49    44  42  44    43  39  39    38  37  35    38  41  37    34  39  33    45  47  45    42  44  42    48  48  46    55  55  53    49  49  47    44  43  39    56  54  50    65  62  57    60  56  50    47  42  36    61  54  46    58  51  43    63  58  49    80  76  69    82  79  72    40  37  30    59  56  48    68  64  55    70  66  57    73  69  60    69  63  53    69  62  52    86  79  69   107  99  89    88  80  70    92  84  73   126 118 104   129 119 101   115 102  85   126 113  94   124 109  88    95  79  55   105  86  62   127 106  82   136 114  90   133 111  87   144 122  98   143 123  99   137 118  95     0   0   0  
   0   0   0     0   0   0     0   0   0     0   0   0     0   0   0     0   0   0     0   0   0     0   0   0   181 206 203   154 180 179    75  97  98    44  61  63    49  56  60    46  45  51    49  44  50    49  45  48    46  45  45    43  47  42    37  44  37    42  46  43    39  40  40    43  43  43    53  53  51    49  49  47    42  41  37    46  45  40    54  51  46    75  70  64    66  61  56    85  78  70    76  70  61    49  42  34    66  60  54    71  68  61    36  33  26    58  55  48    70  65  59    76  72  64    74  70  61    87  80  72    66  59  51    68  61  51    89  81  71    96  87  78    82  73  64    83  74  62    99  89  73   117 105  89   121 105  89   120 103  83   117  98  75   129 109  85   127 107  83   140 120  95   138 118  91   142 122  97   138 118  93     0   0   0     0   0   0  
   0   0   0     0   0   0     0   0   0     0   0   0     0   0   0     0   0   0     0   0   0     0   0   0   175 200 197   162 191 189    96 121 120    45  63  65    47  55  58    47  46  52    51  46  52    56  50  51    56  55  52    50  55  48    46  53  46    38  42  39    45  46  46    49  49  49    49  49  47    44  44  42    44  43  39    49  47  43    50  47  42    65  61  55    56  51  46    81  74  66    86  79  71    49  44  35    55  51  44    64  61  54    45  43  35    54  50  44    58  53  47    67  63  55    69  65  56    56  49  41    47  40  31    62  55  45    87  78  69   114 105  96    97  88  79    74  66  54    84  75  61   105  94  79   102  89  72   130 114  95   147 129 109   128 109  86   124 104  79   142 122  97   132 112  85   133 113  86     0   0   0     0   0   0     0   0   0  
   0   0   0     0   0   0     0   0   0     0   0   0     0   0   0     0   0   0     0   0   0     0   0   0   174 199 196   165 195 193   116 143 142    51  70  72    44  52  58    50  50  56    52  45  52    54  49  52    56  54  54    50  55  49    47  54  47    37  42  38    49  50  50    49  49  49    46  46  45    46  46  44    46  45  41    49  48  43    50  47  42    54  49  44    44  39  33    59  52  46    74  67  60    60  53  45    66  60  54    69  66  59    61  58  51    52  49  42    55  50  44    64  59  51    64  60  51    73  66  58    60  53  45    63  56  46    58  50  41    84  75  66    96  87  78    85  76  65    77  67  55    81  69  56   100  87  71   143 127 111   139 122 101   115  97  74   120 100  76   137 117  90   133 113  86     0   0   0     0   0   0     0   0   0     0   0   0  
   0   0   0     0   0   0     0   0   0     0   0   0     0   0   0     0   0   0     0   0   0   194 212 210   185 210 207   177 206 202   140 168 167    66  87  88    47  59  63    56  59  66    52  51  55    52  50  52    55  54  53    49  52  48    47  52  46    42  46  43    47  49  48    42  43  43    44  44  43    51  51  49    47  46  44    44  44  39    56  54  49    66  63  57    63  58  52    53  49  40    58  51  42    55  49  39    77  73  63    77  74  65    69  66  57    55  50  44    64  59  53    70  66  58    63  59  50   106  99  91    76  69  61    67  60  50    50  41  32    71  62  53    84  75  65    72  64  53    59  50  39    62  52  38   109  98  82   130 117  99   100  84  63   128 112  87   128 109  82     0   0   0     0   0   0     0   0   0     0   0   0     0   0   0     0   0   0  
   0   0   0     0   0   0     0   0   0     0   0   0     0   0   0     0   0   0     0   0   0   193 208 202   200 218 214   181 203 202   161 185 186    98 121 124    38  57  63    34  47  53    47  55  60    44  48  51    49  49  50    47  46  44    46  45  41    40  42  40    38  40  39    45  47  46    52  53  53    53  53  53    43  43  42    43  42  39    92  90  85    85  83  76    70  66  58    59  55  44    68  64  51    77  74  59    75  71  59    71  64  54    72  65  55    87  80  72    69  62  54    56  49  42    51  44  38    57  50  44    66  59  53    75  68  60    68  61  51    60  53  43    98  92  80    81  75  63    56  50  37    60  53  38    99  90  73   128 115  98   122 107  85   129 112  89     0   0   0     0   0   0     0   0   0     0   0   0     0   0   0     0   0   0     0   0   0  
   0   0   0     0   0   0     0   0   0     0   0   0     0   0   0     0   0   0   199 210 201   197 209 202   200 216 213   190 209 207   175 197 198   125 149 152    41  63  68    36  55  59    40  54  56    42  51  53    50  52  54    53  50  49    49  45  44    44  46  45    43  46  45    49  51  50    48  48  48    43  43  43    37  37  37    39  39  36    86  85  80    76  74  67    78  75  66    63  58  47    74  71  58    72  69  54    59  54  41    60  54  42    79  72  62   101  94  84    64  57  49    57  50  44    50  43  37    61  54  48    77  70  63    70  63  55    72  65  55    94  87  77   103  97  85    60  55  42    72  68  56    79  73  60    83  74  58   107  96  77   133 118  96     0   0   0     0   0   0     0   0   0     0   0   0     0   0   0     0   0   0     0   0   0     0   0   0  
   0   0   0     0   0   0     0   0   0     0   0   0     0   0   0     0   0   0   197 206 198   197 209 202   196 211 208   194 213 211   188 208 210   158 179 182    58  78  81    35  53  57    32  46  49    38  46  49    47  49  51    47  46  45    41  40  38    44  46  45    45  48  47    49  51  50    42  43  43    35  35  35    34  34  34    38  38  37    67  66  63    56  54  48    58  55  46    55  51  40    76  72  59    89  86  71    58  53  40    67  61  49    77  70  60    72  64  55    58  51  43    93  86  79    65  58  52    73  66  59    56  49  43    60  53  45    81  74  65    75  68  58    65  59  47    55  50  37    74  69  57    72  64  51    81  72  57   120 108  92     0   0   0     0   0   0     0   0   0     0   0   0     0   0   0     0   0   0     0   0   0     0   0   0     0   0   0  
   0   0   0     0   0   0     0   0   0     0   0   0     0   0   0     0   0   0   190 199 191   195 207 200   191 208 202   193 212 210   190 210 210   175 196 198    94 115 118    33  52  56    34  48  51    38  47  49    47  50  52    45  44  45    41  40  38    41  43  42    41  44  43    45  47  46    39  40  39    35  35  35    37  37  37    38  38  35    48  47  43    51  49  42    35  32  23    49  45  34    65  61  48    93  90  75   104  99  87    83  76  65    62  55  45    69  62  52    57  50  42    78  71  65    77  71  64    63  56  50    67  60  54    61  54  46    60  53  44    57  50  40    47  41  29    49  44  32    69  64  52    80  73  60    85  76  61     0   0   0     0   0   0     0   0   0     0   0   0     0   0   0     0   0   0     0   0   0     0   0   0     0   0   0     0   0   0  
   0   0   0     0   0   0     0   0   0     0   0   0     0   0   0   175 178 171   185 192 185   195 206 199   193 208 203   193 210 209   187 208 207   180 201 202   138 159 161    37  57  60    39  54  57    43  52  54    54  57  59    51  51  52    50  50  50    41  44  40    37  41  38    40  42  41    38  39  39    39  39  39    39  39  39    37  36  36    46  45  42    60  58  53    40  37  29    53  49  38    57  54  41    79  76  61    94  89  76    94  89  77    67  60  50    69  62  53    74  67  59    74  67  61    73  66  60    69  62  56    84  77  70    73  66  58    63  57  47    81  74  64    65  59  47    69  63  51    80  74  62    83  76  63     0   0   0     0   0   0     0   0   0     0   0   0     0   0   0     0   0   0     0   0   0     0   0   0     0   0   0     0   0   0     0   0   0  
   0   0   0     0   0   0     0   0   0     0   0   0     0   0   0   173 177 170   178 186 178   193 204 197   197 212 206   194 211 208   188 209 207   183 204 204   164 185 186    51  71  74    33  48  51    37  47  51    51  57  60    52  53  55    52  52  52    45  47  44    38  42  39    40  42  41    40  41  41    42  42  42    39  39  39    35  35  34    51  50  47    55  52  48    51  48  41    64  60  51    67  63  52    85  81  69    76  71  59   120 114 102    94  86  76    58  51  42    68  61  53    67  60  53    46  39  33    78  70  65    78  71  65    73  66  58    78  71  62   122 115 105    91  85  73    75  69  57    81  75  63     0   0   0     0   0   0     0   0   0     0   0   0     0   0   0     0   0   0     0   0   0     0   0   0     0   0   0     0   0   0     0   0   0     0   0   0  
   0   0   0     0   0   0     0   0   0     0   0   0     0   0   0   172 175 170   169 175 169   187 196 190   200 212 208   194 210 207   192 211 209   187 207 207   173 194 195    89 109 110    26  44  46    33  43  47    48  54  57    53  54  58    48  48  50    44  47  45    40  44  41    43  45  44    43  44  43    43  43  43    40  40  40    37  36  36    49  48  45    45  42  38    65  62  55    91  87  78    69  65  54    83  79  68    69  64  52    81  75  63    64  57  47    71  64  55    63  56  48    58  51  45    73  66  60    61  54  48    76  69  63    62  55  47    58  51  41   143 136 126   115 109  97    61  54  42     0   0   0     0   0   0     0   0   0     0   0   0     0   0   0     0   0   0     0   0   0     0   0   0     0   0   0     0   0   0     0   0   0     0   0   0     0   0   0  
   0   0   0     0   0   0     0   0   0     0   0   0    90  92  87   172 173 168   161 165 159   180 188 182   198 210 203   191 208 203   193 213 209   190 211 209   181 203 203   131 151 152    32  49  51    37  49  52    53  60  63    59  61  65    48  49  51    39  43  42    40  44  41    46  48  47    46  46  46    44  44  44    42  42  42    39  38  38    43  42  40    49  46  43    87  84  79   126 121 115    52  49  39    54  50  39    54  48  36    54  47  35    48  41  31    75  68  59    64  57  49    66  59  53    68  61  55    67  60  53    53  45  39    59  52  44    60  53  43   115 108  98   104  98  86    90  84  72     0   0   0     0   0   0     0   0   0     0   0   0     0   0   0     0   0   0     0   0   0     0   0   0     0   0   0     0   0   0     0   0   0     0   0   0     0   0   0  
   0   0   0     0   0   0     0   0   0     0   0   0    68  69  64   154 155 150   167 168 163   181 186 182   197 208 204   190 205 202   193 212 209   186 207 205   175 197 197   167 187 188    62  80  82    29  42  46    48  57  62    50  54  60    55  59  62    39  43  42    44  48  45    48  50  49    48  48  48    46  46  46    42  42  44    40  39  41    46  45  44    46  43  41    74  71  66    89  84  78    49  44  37    52  48  38    65  59  47    55  49  37    70  63  53    77  70  61   104  97  89    75  69  62    59  52  46    56  49  43    53  47  40    59  52  44    85  78  69    67  61  51    58  52  40     0   0   0     0   0   0     0   0   0     0   0   0     0   0   0     0   0   0     0   0   0     0   0   0     0   0   0     0   0   0     0   0   0     0   0   0     0   0   0     0   0   0  
   0   0   0     0   0   0     0   0   0    49  50  45    53  54  49   134 135 130   178 180 175   183 187 183   192 201 196   196 211 206   195 215 210   193 215 211   185 207 205   173 194 195   105 125 126    37  51  54    44  54  59    45  51  57    48  52  56    40  45  43    46  50  47    49  51  50    46  47  47    43  43  43    39  39  42    38  38  39    41  39  40    38  35  34    56  52  49    60  55  51    51  46  39    58  54  45    51  45  35    58  52  40    59  51  41    79  71  62    89  82  74    80  73  66    75  68  62    56  49  43    51  44  38    67  60  52   104  97  87    91  84  74    74  67  56     0   0   0     0   0   0     0   0   0     0   0   0     0   0   0     0   0   0     0   0   0     0   0   0     0   0   0     0   0   0     0   0   0     0   0   0     0   0   0     0   0   0  
   0   0   0     0   0   0     0   0   0    46  46  44    38  38  36   101 101  98   176 176 171   180 182 178   181 186 182   195 208 204   190 208 204   193 214 210   192 214 211   178 198 197   155 173 175    55  69  73    40  51  58    43  49  57    42  47  52    40  45  43    46  50  46    48  50  47    46  46  45    43  43  43    40  40  42    39  39  41    39  37  38    39  36  36    55  51  48    51  46  42    67  62  57    69  65  57    61  55  45    81  75  63    61  53  43    98  91  82    93  86  78    82  74  68    65  58  52    68  61  55    62  55  48    64  57  49    84  77  67    83  76  66     0   0   0     0   0   0     0   0   0     0   0   0     0   0   0     0   0   0     0   0   0     0   0   0     0   0   0     0   0   0     0   0   0     0   0   0     0   0   0     0   0   0     0   0   0  
   0   0   0     0   0   0    48  48  46    52  52  50    38  38  36    71  71  68   155 155 151   182 184 180   175 180 176   193 207 200   188 207 201   192 214 208   192 215 210   178 200 198   176 196 197    79  95  98    40  52  58    44  52  59    44  49  55    41  45  44    46  50  46    48  50  47    46  46  45    44  44  44    43  43  45    44  44  45    45  43  44    42  39  39    54  50  49    51  46  44    74  69  64    77  73  65    63  57  47    85  79  67    71  64  54    95  88  78    67  60  52    57  50  43    58  50  45    68  61  55    76  69  63    64  57  49    53  46  37    60  53  43     0   0   0     0   0   0     0   0   0     0   0   0     0   0   0     0   0   0     0   0   0     0   0   0     0   0   0     0   0   0     0   0   0     0   0   0     0   0   0     0   0   0     0   0   0  
   0   0   0     0   0   0    45  45  43    56  56  54    48  48  48    53  53  50   129 128 124   188 189 184   182 187 183   193 205 199   196 212 207   196 217 212   192 215 210   180 202 200   173 193 194   109 126 129    46  58  64    45  53  62    44  50  56    49  53  52    50  54  49    49  51  48    46  46  45    44  44  44    42  42  44    45  44  47    52  50  53    39  36  37    41  37  37    48  43  40    61  56  52    67  62  57    77  71  62    73  67  55    55  48  38    75  68  58    69  62  54    59  52  45    57  50  44    61  54  48    77  70  63    73  66  58    57  50  40     0   0   0     0   0   0     0   0   0     0   0   0     0   0   0     0   0   0     0   0   0     0   0   0     0   0   0     0   0   0     0   0   0     0   0   0     0   0   0     0   0   0     0   0   0     0   0   0  
   0   0   0    45  45  43    42  42  41    53  53  51    56  56  56    45  43  41    97  94  91   173 174 169   179 183 177   182 194 187   194 210 203   193 214 208   191 215 210   185 210 207   168 190 188   139 156 159    62  75  80    42  52  60    40  48  54    57  63  60    54  58  53    49  51  48    45  45  44    43  43  43    38  38  40    38  38  40    50  48  51    45  41  43    50  46  45    60  55  52    52  47  44    47  42  37    68  62  53    70  64  52    77  70  60    82  75  66    71  64  56    56  49  42    63  56  50    79  72  67    73  67  60    67  60  52    61  54  45     0   0   0     0   0   0     0   0   0     0   0   0     0   0   0     0   0   0     0   0   0     0   0   0     0   0   0     0   0   0     0   0   0     0   0   0     0   0   0     0   0   0     0   0   0     0   0   0  
   0   0   0    57  57  57    46  46  46    46  46  46    60  59  59    47  45  45    76  72  70   147 146 142   167 172 166   169 180 174   190 206 199   190 210 204   190 212 208   193 215 213   175 195 196   162 179 182    84  97 104    43  51  62    42  49  57    57  63  61    51  55  50    45  47  44    43  44  43    44  44  44    38  38  40    34  33  35    44  42  45    48  45  46    55  51  52    63  57  57    56  51  48    46  41  36    64  58  49    61  55  44    62  55  45    75  68  59    76  69  61    64  57  51    57  50  44    88  82  76    70  63  56    53  46  38     0   0   0     0   0   0     0   0   0     0   0   0     0   0   0     0   0   0     0   0   0     0   0   0     0   0   0     0   0   0     0   0   0     0   0   0     0   0   0     0   0   0     0   0   0     0   0   0     0   0   0  
  57  57  56    69  69  69    51  51  51    41  41  41    61  61  61    53  53  51    72  71  67   130 130 126   164 169 163   169 179 171   194 208 201   196 213 206   190 211 206   194 214 212   185 205 205   173 191 196    99 115 123    41  55  64    44  55  61    54  59  59    47  49  47    40  42  41    42  43  42    47  47  47    41  41  41    35  35  35    42  41  42    38  37  38    33  31  32    39  35  34    56  52  51    60  56  52    66  62  53    65  60  48    54  47  37    65  58  49    72  65  57    92  85  77   105  98  92    64  57  51    63  56  49    51  44  36     0   0   0     0   0   0     0   0   0     0   0   0     0   0   0     0   0   0     0   0   0     0   0   0     0   0   0     0   0   0     0   0   0     0   0   0     0   0   0     0   0   0     0   0   0     0   0   0     0   0   0  
  55  55  53    62  62  60    52  52  50    49  49  47    61  61  59    60  60  57    59  60  55    93  96  89   173 176 169   178 183 176   191 199 192   195 205 198   195 208 205   194 210 209   193 211 212   175 194 199   138 157 164    57  77  86    47  64  72    56  60  64    54  53  57    44  44  46    40  40  41    44  44  44    40  42  41    37  39  38    44  45  44    48  48  48    43  43  43    42  40  41    50  48  50    55  53  54    71  68  63    75  71  60    70  66  55    61  57  46    47  43  32    94  88  77   125 118 110    54  47  39    58  51  43     0   0   0     0   0   0     0   0   0     0   0   0     0   0   0     0   0   0     0   0   0     0   0   0     0   0   0     0   0   0     0   0   0     0   0   0     0   0   0     0   0   0     0   0   0     0   0   0     0   0   0     0   0   0  
   0   0   0    50  50  48    41  41  38    43  43  41    56  56  54    56  58  52    54  57  50    68  71  64   140 143 136   176 179 172   179 184 177   195 203 197   200 210 206   198 212 211   196 213 213   181 201 205   150 173 178    69  96 102    37  57  64    55  59  65    51  50  56    45  44  48    51  51  52    50  50  50    38  39  37    39  41  38    46  48  45    45  47  45    40  43  41    41  41  43    49  48  51    59  57  60    63  60  56    62  58  47    61  57  46    64  60  49    50  46  35    77  70  60   101  93  83    70  63  55    68  60  52   112 103  96     0   0   0     0   0   0     0   0   0     0   0   0     0   0   0     0   0   0     0   0   0     0   0   0     0   0   0     0   0   0     0   0   0     0   0   0     0   0   0     0   0   0     0   0   0     0   0   0     0   0   0  
   0   0   0    44  44  42    38  38  36    42  42  40    52  52  50    50  51  48    50  52  46    47  50  43   103 106  98   176 179 172   170 174 167   190 197 191   198 209 204   198 210 210   197 213 214   188 208 212   170 192 198   101 126 132    36  56  63    49  55  61    46  47  52    40  41  45    51  52  54    46  48  47    30  31  28    41  43  40    48  50  47    42  43  42    39  39  39    40  40  41    46  46  49    60  59  62    75  73  68    71  69  57    63  59  48    71  67  56    56  52  41    52  48  39    66  62  53   128 121 113    80  73  65    89  82  74    66  57  50    47  38  31     0   0   0     0   0   0     0   0   0     0   0   0     0   0   0     0   0   0     0   0   0     0   0   0     0   0   0     0   0   0     0   0   0     0   0   0     0   0   0     0   0   0     0   0   0  
   0   0   0     0   0   0    49  49  47    49  49  47    49  49  47    45  46  43    48  50  44    47  50  43    76  79  72   175 179 172   175 179 172   184 189 184   193 201 198   193 205 203   195 212 212   192 212 214   184 206 212   134 158 163    53  73  80    46  54  59    52  56  60    42  45  48    47  48  50    42  44  43    30  32  29    45  47  44    46  48  45    39  40  39    40  40  40    39  39  41    41  41  44    53  53  55    84  84  78    78  76  64    57  53  42    68  64  53    63  59  48    43  39  29    51  47  38    95  88  80   108 100  93    88  81  73    68  60  53    72  63  56    81  72  65     0   0   0     0   0   0     0   0   0     0   0   0     0   0   0     0   0   0     0   0   0     0   0   0     0   0   0     0   0   0     0   0   0     0   0   0     0   0   0     0   0   0  
   0   0   0     0   0   0     0   0   0    53  53  51    48  48  46    46  46  43    45  47  42    55  57  51    55  58  51   155 158 151   184 187 181   183 188 183   190 198 195   194 204 202   197 211 212   193 211 214   188 210 214   158 181 187    83 102 108    40  49  56    61  64  70    53  57  61    49  53  55    45  49  50    40  43  42    48  50  48    44  46  43    39  39  38    41  41  41    40  40  42    37  37  39    44  43  44    72  69  64    62  59  50    45  42  33    61  58  49    70  66  57    50  46  37    55  51  42    82  75  67    68  61  53    68  61  53    50  43  35    58  51  43    85  76  69    88  80  72    74  67  57     0   0   0     0   0   0     0   0   0     0   0   0     0   0   0     0   0   0     0   0   0     0   0   0     0   0   0     0   0   0     0   0   0     0   0   0  
   0   0   0     0   0   0     0   0   0    52  52  50    49  49  47    49  50  47    44  46  41    55  58  51    40  43  36   113 116 109   178 181 175   185 190 184   191 197 192   197 208 204   198 212 212   195 212 212   187 208 210   173 194 198   115 135 141    32  43  49    48  55  60    52  59  62    51  56  60    47  51  53    40  44  43    43  45  43    43  45  42    41  42  41    43  43  43    41  41  43    37  37  38    36  36  37    58  58  54    60  57  48    60  57  48    67  64  55    76  72  63    59  55  46    58  54  45   111 104  96    40  33  25    52  45  37    65  58  50    45  38  30    61  52  45    82  74  66    82  75  65    73  66  57     0   0   0     0   0   0     0   0   0     0   0   0     0   0   0     0   0   0     0   0   0     0   0   0     0   0   0     0   0   0     0   0   0  
   0   0   0     0   0   0     0   0   0     0   0   0    52  52  50    52  52  50    47  47  45    52  52  48    43  44  39    76  77  72   157 158 153   181 185 179   186 192 188   198 206 203   197 209 208   197 212 213   189 207 210   182 202 205   147 166 170    49  62  68    34  43  49    42  51  55    52  58  61    47  51  52    39  43  42    39  41  39    44  45  42    45  45  44    44  44  44    43  43  43    41  41  42    38  37  38    54  51  48    65  62  55    82  79  72    71  68  61    70  67  60    64  60  54    66  61  55    37  34  24    41  37  28    57  50  42    69  62  54    50  43  35    48  41  33    65  58  50    60  53  43    64  57  48    69  63  54    72  68  59     0   0   0     0   0   0     0   0   0     0   0   0     0   0   0     0   0   0     0   0   0     0   0   0     0   0   0  
   0   0   0     0   0   0     0   0   0     0   0   0    54  54  52    53  53  50    52  52  50    49  50  45    55  56  51    56  57  52   137 138 133   173 175 170   181 185 181   195 204 199   196 207 203   201 215 213   194 211 212   190 210 211   167 187 190    84  98 104    33  45  51    40  50  54    56  65  68    50  55  58    45  49  50    42  45  43    45  46  44    48  48  48    45  45  45    44  44  44    46  46  47    41  41  42    38  38  34    54  51  44    83  80  73    61  58  51    59  56  49    70  65  59    81  76  70    54  50  41    39  34  26    60  53  45    80  73  65    60  53  45    57  50  42    79  72  63    87  80  70    69  62  53    62  55  47    66  62  53    54  50  40     0   0   0     0   0   0     0   0   0     0   0   0     0   0   0     0   0   0     0   0   0     0   0   0  
   0   0   0     0   0   0     0   0   0     0   0   0     0   0   0    47  47  46    59  59  59    52  52  51    56  56  54    52  53  48    97  98  93   160 162 157   175 179 174   189 195 191   201 210 208   194 207 206   196 211 211   188 205 205   172 190 192   114 132 136    31  48  54    44  59  63    58  69  71    53  61  63    42  47  47    41  42  43    44  44  44    43  43  43    41  41  41    40  40  40    41  41  42    45  46  47    39  38  35    58  57  52    67  66  61    58  56  51    67  64  59    68  65  59    53  50  43    47  42  36    53  49  42    64  60  51    75  71  62    72  68  59    66  59  49    74  67  57    70  63  53    82  75  66    97  89  82    73  69  60    61  57  47    65  61  50     0   0   0     0   0   0     0   0   0     0   0   0     0   0   0     0   0   0     0   0   0  
   0   0   0     0   0   0     0   0   0     0   0   0     0   0   0     0   0   0    51  51  51    48  48  46    47  47  45    46  47  42    71  72  67   144 146 141   177 181 175   184 191 184   200 209 204   200 211 208   198 211 210   192 208 207   180 198 198   150 169 173    57  76  82    40  56  62    52  64  68    57  65  68    40  45  48    47  51  51    47  48  47    46  46  46    43  43  43    39  39  39    38  38  39    40  41  42    41  43  39    49  48  43    51  50  45    54  52  47    64  61  56    62  59  53    57  54  47    58  53  47    48  43  36    63  59  50    63  59  50    71  66  58    82  75  65    80  73  63    59  52  42    53  46  38    89  82  74    94  90  81    64  60  50    69  65  54    99  94  82   112 107  93     0   0   0     0   0   0     0   0   0     0   0   0     0   0   0  
   0   0   0     0   0   0     0   0   0     0   0   0     0   0   0     0   0   0    55  55  56    55  55  55    52  52  50    55  53  50    55  55  50   129 130 125   181 182 177   180 185 179   195 201 197   201 212 208   195 209 205   194 210 207   188 205 205   172 193 198    82 104 110    30  48  53    40  55  58    54  65  67    33  37  40    50  50  52    47  47  47    47  46  46    45  43  44    41  41  41    39  39  40    39  39  40    45  44  43    41  40  36    40  39  35    57  56  52    64  63  59    59  56  52    63  60  55    51  48  41    48  44  37    65  61  52    60  56  46    59  55  44    74  70  59    82  77  66    58  51  41    50  43  35    74  67  59    93  89  80    74  70  61    77  73  62    88  82  70    95  87  76   108  98  86     0   0   0     0   0   0     0   0   0     0   0   0  
   0   0   0     0   0   0     0   0   0     0   0   0     0   0   0     0   0   0     0   0   0    60  60  61    57  57  57    63  63  60    55  54  50   104 105 100   174 176 171   179 183 178   186 193 186   199 208 203   194 205 200   196 210 205   191 208 208   172 196 200   108 131 138    34  53  60    39  53  59    53  63  66    37  41  44    43  47  47    45  46  45    46  45  45    47  45  46    45  45  45    43  44  44    42  43  44    43  44  42    42  41  39    47  46  42    65  63  60    67  66  62    62  60  55    73  70  65    43  40  33    50  46  39    53  49  40    60  56  46    52  48  37    81  77  66   103  98  87    55  48  38    74  67  59    71  64  56    77  73  64    88  84  74    71  67  56    68  62  51    75  69  55   111 104  88   122 112  95   119 107  89     0   0   0     0   0   0  
   0   0   0     0   0   0     0   0   0     0   0   0     0   0   0     0   0   0     0   0   0    51  49  50    52  50  51    59  58  56    55  54  51    68  67  63   154 155 149   184 186 181   181 187 181   196 205 200   195 207 202   200 212 207   194 210 208   174 198 203   138 164 171    55  76  82    42  58  63    49  60  65    50  55  59    45  46  49    47  47  48    48  46  47    49  47  48    48  48  48    46  47  46    43  45  44    42  42  41    48  48  46    56  55  53    60  59  56    59  58  54    63  63  58    79  78  73    52  50  42    34  31  23    28  25  16    46  43  32    46  42  31   104 100  89   111 106  96    45  38  28    76  69  61    79  72  64    69  65  56    88  84  75    63  59  48    62  56  45    68  60  49   107  97  84   115 103  87   111  98  80     0   0   0     0   0   0  
   0   0   0     0   0   0     0   0   0     0   0   0     0   0   0     0   0   0     0   0   0    44  42  43    47  45  46    54  53  51    55  55  52    45  44  40   127 127 122   185 188 181   182 187 181   195 203 195   200 210 203   203 215 208   195 211 209   179 204 209   157 185 191    79 102 107    36  55  59    40  51  55    49  56  59    42  45  46    49  50  50    50  48  49    50  48  49    48  48  48    46  46  46    42  44  43    42  43  41    50  50  48    52  51  49    46  45  42    46  45  41    58  57  53    79  78  73    92  89  82    47  44  36    55  52  43    64  60  50    65  60  50   114 110  99    88  83  73    47  40  30    53  46  37    70  63  55    59  55  46    78  74  64    77  73  62    63  58  46    57  51  37    91  84  68    92  83  66    96  84  66     0   0   0     0   0   0  
   0   0   0     0   0   0     0   0   0     0   0   0     0   0   0     0   0   0     0   0   0    48  46  50    49  47  48    55  54  52    55  54  52    48  47  43    98  98  93   177 179 173   180 186 179   191 199 191   200 210 203   202 214 208   195 210 209   184 209 213   166 194 200   107 130 135    38  57  61    39  51  55    38  45  48    40  43  46    48  49  50    47  46  46    47  45  46    47  47  47    46  47  46    43  45  44    44  45  44    44  44  44    40  40  40    40  40  39    44  43  40    49  48  44    64  63  58   105 102  95    76  73  66   101  98  89    90  88  77    87  85  73    97  93  82    67  62  51    56  49  39    60  53  45    64  58  49    54  51  41    78  74  64    94  90  79    75  70  58    59  51  40    89  78  66    81  69  52    84  71  53     0   0   0     0   0   0  
   0   0   0     0   0   0     0   0   0     0   0   0     0   0   0     0   0   0     0   0   0    50  49  52    49  47  48    54  53  51    50  49  45    55  54  49    78  78  73   165 168 161   178 183 176   186 194 186   197 207 199   197 209 202   193 208 205   191 216 216   174 201 205   134 156 161    52  70  76    52  65  73    33  41  46    41  45  49    42  45  45    42  42  41    44  44  42    47  47  47    48  48  48    48  48  50    46  46  46    35  35  35    31  31  31    45  45  43    50  49  46    42  41  37    49  49  41    58  55  46    62  59  50    87  84  75    67  65  54    71  69  57    59  55  44    53  48  37    56  49  39    96  89  80    78  71  63    62  58  49    91  87  77    92  88  77    74  69  57    53  46  34    79  71  58    71  61  45    85  74  57     0   0   0     0   0   0  
   0   0   0     0   0   0     0   0   0     0   0   0     0   0   0     0   0   0     0   0   0    55  55  58    52  52  53    46  46  44    50  50  45    53  53  46    51  51  43   117 117 110   174 177 170   174 182 174   193 203 195   198 211 203   199 214 207   192 213 207   181 201 200   173 192 196    89 104 114    30  43  54    42  52  62    38  47  52    44  50  49    44  47  42    51  52  47    54  54  53    51  48  51    48  43  50    36  34  39    42  40  41    39  37  37    40  39  37    49  48  44    52  50  42    65  62  53    54  53  41    42  40  28    67  65  53    79  76  66    98  94  85    42  38  29    39  35  26    41  37  28    66  62  53    92  88  79    99  92  84    72  65  56    93  86  76   107  99  89    64  56  45    51  43  32    77  69  56   100  90  78     0   0   0     0   0   0  
   0   0   0     0   0   0     0   0   0     0   0   0     0   0   0     0   0   0     0   0   0    53  55  55    55  57  54    54  55  50    57  58  53    57  56  50    53  54  46    85  88  79   171 176 169   176 184 176   186 197 189   195 207 200   197 212 205   195 213 203   191 209 205   181 196 200   115 130 141    38  52  65    44  56  68    40  50  57    44  53  51    44  50  44    50  54  47    53  53  49    49  46  50    45  40  48    45  41  48    44  42  43    40  39  37    41  40  36    43  43  36    44  42  33    52  50  38    67  65  52    47  45  32    46  44  32    73  70  60    90  86  77    45  40  34    47  43  36    53  49  40    62  58  49   101  97  88    91  84  76    55  48  40    54  47  37    82  73  64    70  60  52    62  54  43    66  58  47     0   0   0     0   0   0     0   0   0  
   0   0   0     0   0   0     0   0   0     0   0   0     0   0   0     0   0   0     0   0   0    51  54  53    56  58  57    59  59  57    62  63  58    57  58  52    55  56  48    52  53  45   160 163 156   179 186 178   181 191 183   193 204 197   197 210 203   194 210 201   198 214 210   185 200 204   148 162 172    54  68  81    42  54  65    43  53  59    48  58  57    48  54  49    52  54  49    52  51  50    48  45  50    46  41  48    45  42  48    47  45  48    45  43  44    38  37  34    42  41  35    53  51  42    50  48  38    57  55  43    92  90  78    80  78  66    82  78  68    76  72  63    49  44  38    47  42  35    42  38  29    63  59  50    91  87  78    65  58  50    81  74  65    85  78  68    73  65  55    62  54  44    67  59  48    77  69  58     0   0   0     0   0   0     0   0   0  
   0   0   0     0   0   0     0   0   0     0   0   0     0   0   0     0   0   0     0   0   0    51  54  54    54  56  53    55  56  51    58  59  53    54  55  49    54  55  48    39  41  33   128 133 126   176 182 175   181 190 182   192 203 197   197 209 202   193 209 199   195 212 207   188 203 207   171 185 195    81  95 106    32  45  53    41  53  60    49  60  59    49  57  51    49  54  48    52  52  50    50  47  51    48  43  50    40  37  41    47  45  46    51  50  48    35  34  31    46  45  40    76  74  67    69  66  58    49  47  36   120 118 106   100  98  86    70  67  57    61  58  49    47  42  36    46  41  34    48  44  35    79  75  66   142 138 129    98  91  83    85  78  70   115 108  98    92  84  75    59  50  41    61  53  42    96  88  77     0   0   0     0   0   0     0   0   0  
   0   0   0     0   0   0     0   0   0     0   0   0     0   0   0     0   0   0     0   0   0    56  59  58    54  56  55    48  48  46    50  51  46    52  53  47    53  55  48    48  50  44    91  96  89   162 167 160   182 189 182   193 202 195   198 209 201   196 209 203   193 208 204   193 209 211   183 197 205   117 131 141    32  46  55    43  55  62    44  55  55    45  52  49    45  50  46    47  47  47    49  46  50    50  45  51    42  39  43    42  40  42    49  48  46    39  38  36    46  45  41    79  77  70    89  86  79    66  63  54    86  83  74    58  55  46    38  35  26    58  54  45    42  37  31    44  39  33    53  49  40    72  68  59   111 107  99    78  71  63    70  63  55    99  92  82   114 105  96    88  78  69    57  49  38    72  64  53     0   0   0     0   0   0     0   0   0  
   0   0   0     0   0   0     0   0   0     0   0   0     0   0   0     0   0   0     0   0   0    60  63  62    55  57  54    46  46  44    49  50  44    53  54  48    51  54  47    58  61  54    60  65  58   132 138 131   174 181 174   190 197 190   198 207 199   201 214 207   193 209 205   198 213 214   189 204 210   152 166 175    57  71  80    46  61  67    38  51  52    39  49  47    39  43  42    41  43  42    46  45  48    48  44  50    51  48  52    41  39  40    43  42  40    48  47  44    42  41  37    58  55  51    88  85  78    74  71  62    51  48  39    42  39  30    43  39  30    64  60  51    50  45  40    72  67  60    70  66  57    70  66  57    51  47  38    56  49  41    99  91  83   101  94  84    87  79  69    80  70  62    53  45  34    50  43  32     0   0   0     0   0   0     0   0   0  
   0   0   0     0   0   0     0   0   0     0   0   0     0   0   0     0   0   0     0   0   0    56  58  57    51  53  50    45  47  44    50  52  48    52  54  49    50  52  47    56  58  53    48  51  43   100 103  96   161 166 159   183 188 181   198 204 198   201 212 207   197 210 206   198 212 211   191 206 210   174 189 196    94 111 118    52  66  73    40  52  57    41  50  52    38  44  45    41  42  44    48  45  48    51  46  50    52  49  51    47  45  45    42  41  39    47  46  43    43  42  38    46  43  39    70  67  62    62  59  52    47  44  37    57  54  47    64  61  52    70  66  57    60  56  47    91  88  79    57  53  44    50  46  37    51  47  38    69  62  54    85  78  70    77  70  60    75  67  57    83  74  65    74  66  55    68  59  49     0   0   0     0   0   0     0   0   0  
   0   0   0     0   0   0     0   0   0     0   0   0     0   0   0     0   0   0     0   0   0     0   0   0     0   0   0    46  48  45    51  53  50    50  52  47    49  51  46    49  51  46    44  47  40    76  80  73   149 153 146   176 181 174   196 202 196   197 208 202   198 210 207   194 208 207   191 205 207   180 198 202   122 139 146    54  70  77    44  58  65    45  56  61    43  49  53    44  45  49    50  50  51    54  51  52    46  44  45    55  53  53    47  46  44    39  38  36    49  48  44    51  48  45    54  51  47    56  53  48    45  42  35    45  42  35    60  57  48    73  69  60    60  56  47    80  76  66    50  46  37    60  56  47    53  49  40    63  57  48    94  87  78    93  86  76    81  73  64    72  63  54    67  59  48    69  61  50    81  73  62    63  54  44     0   0   0  
   0   0   0     0   0   0     0   0   0     0   0   0     0   0   0     0   0   0     0   0   0     0   0   0     0   0   0    56  58  55    59  61  58    54  56  53    52  54  50    42  44  39    51  53  48    71  73  68   130 132 125   173 174 168   182 186 181   195 204 199   196 209 205   196 211 209   194 210 210   191 209 211   147 165 169    79  97 103    49  65  72    41  53  59    37  44  50    52  55  60    46  46  47    45  44  42    41  39  39    48  46  47    49  48  46    38  37  35    36  35  33    42  39  37    45  41  38    70  66  63    55  52  46    53  50  43    48  44  36    69  65  56    69  65  56    68  64  56    47  43  34    47  43  34    45  41  32    54  47  39    90  83  74   105  98  88    89  81  72    81  72  63    60  52  41    44  36  25    67  59  48    65  55  45    62  50  39  
   0   0   0     0   0   0     0   0   0     0   0   0     0   0   0     0   0   0     0   0   0     0   0   0     0   0   0    47  49  46    50  52  49    55  57  54    55  57  53    44  46  41    62  64  59    64  66  60   107 108 102   174 175 169   189 190 185   198 204 200   198 210 206   197 211 207   194 210 208   196 214 213   163 182 186    98 117 123    47  63  71    43  55  64    41  48  58    46  49  54    50  51  52    49  49  46    43  42  39    48  46  47    49  48  46    42  41  39    41  40  38    46  43  42    48  44  43    53  49  46    52  49  45    52  49  43    52  48  40    54  51  42    62  58  49    56  52  43    63  59  50    63  59  50    53  49  40    49  42  34    66  60  51   108 101  91    89  81  71    74  65  56    75  67  56    55  47  36    74  66  55    99  89  79    95  85  73  
   0   0   0     0   0   0     0   0   0     0   0   0     0   0   0     0   0   0     0   0   0     0   0   0     0   0   0     0   0   0     0   0   0    44  48  47    53  56  54    44  46  43    69  70  65    56  56  51    81  80  75   166 165 158   181 182 175   193 200 195   195 206 202   195 209 204   191 208 202   196 215 213   181 201 202   123 141 148    45  63  73    39  53  64    44  53  64    40  45  50    54  55  55    54  54  49    45  44  41    47  46  44    49  47  48    45  44  45    47  45  46    51  48  49    50  46  47    44  40  39    53  49  46    55  52  46    63  59  51    52  48  39    60  56  45    51  47  37    94  90  81    82  78  69    53  49  40    47  40  32    64  57  48   125 118 108   116 108  98    78  69  60    74  66  55     0   0   0     0   0   0     0   0   0     0   0   0  
   0   0   0     0   0   0     0   0   0     0   0   0     0   0   0     0   0   0     0   0   0     0   0   0     0   0   0     0   0   0     0   0   0     0   0   0    52  55  52    42  44  41    63  63  58    51  51  46    65  63  57   141 138 131   170 169 163   183 189 185   190 199 195   194 207 200   189 205 197   192 213 208   185 206 207   140 160 167    53  71  82    32  45  59    48  57  70    39  44  50    53  54  53    55  55  50    48  47  43    48  47  44    48  46  47    47  45  46    49  47  48    50  46  47    47  43  44    49  45  44    61  56  55    68  64  60    71  66  61    61  57  48    61  57  46    49  45  35    73  69  60    58  54  45    43  39  30    48  41  33    58  51  43    84  77  67     0   0   0     0   0   0     0   0   0     0   0   0     0   0   0     0   0   0     0   0   0  
   0   0   0     0   0   0     0   0   0     0   0   0     0   0   0     0   0   0     0   0   0     0   0   0     0   0   0     0   0   0     0   0   0     0   0   0     0   0   0    44  46  43    55  56  51    49  49  44    54  52  46   110 106 100   175 172 165   175 181 177   185 195 191   195 208 202   189 208 199   189 210 205   183 204 205   151 172 179    72  91 104    27  41  58    47  56  71    44  48  56    48  49  48    52  53  46    50  49  44    48  47  44    47  45  46    46  44  46    47  45  48    45  41  45    42  37  41    49  45  45    65  61  59    79  76  72    65  61  55    60  56  47    57  53  42    64  60  50    75  71  62    84  80  71    89  85  76    48  41  33     0   0   0     0   0   0     0   0   0     0   0   0     0   0   0     0   0   0     0   0   0     0   0   0     0   0   0  
   0   0   0     0   0   0     0   0   0     0   0   0     0   0   0     0   0   0     0   0   0     0   0   0     0   0   0     0   0   0     0   0   0     0   0   0     0   0   0     0   0   0     0   0   0    51  49  45    48  44  39    84  78  70   177 174 167   176 179 176   184 193 187   197 210 201   193 212 201   191 214 205   182 207 205   161 183 190   103 121 136    36  50  67    43  53  68    49  55  62    45  45  45    50  50  43    51  51  46    49  48  46    47  45  46    46  44  46    44  42  45    42  38  42    40  35  39    37  33  34    59  55  54    78  75  71    54  49  44    50  46  38    52  48  37    76  71  61    67  63  54     0   0   0     0   0   0     0   0   0     0   0   0     0   0   0     0   0   0     0   0   0     0   0   0     0   0   0     0   0   0     0   0   0     0   0   0  
   0   0   0     0   0   0     0   0   0     0   0   0     0   0   0     0   0   0     0   0   0     0   0   0     0   0   0     0   0   0     0   0   0     0   0   0     0   0   0     0   0   0     0   0   0     0   0   0    52  48  42    64  57  50   145 140 134   178 180 177   181 190 184   193 206 197   192 211 200   194 214 207   188 211 209   171 195 201   133 153 168    56  72  90    39  49  66    52  59  66    45  48  46    50  51  42    51  51  45    50  49  47    50  48  49    47  45  47    44  42  45    43  38  42    43  38  42    34  30  31    50  46  46    63  59  57    56  51  47    54  49  43    57  53  44     0   0   0     0   0   0     0   0   0     0   0   0     0   0   0     0   0   0     0   0   0     0   0   0     0   0   0     0   0   0     0   0   0     0   0   0     0   0   0     0   0   0  
   0   0   0     0   0   0     0   0   0     0   0   0     0   0   0     0   0   0     0   0   0     0   0   0     0   0   0     0   0   0     0   0   0     0   0   0     0   0   0     0   0   0     0   0   0     0   0   0     0   0   0     0   0   0   100  96  91   179 180 178   179 185 180   188 199 191   190 206 196   194 213 207   193 214 212   180 201 205   155 175 185    74  91 104    35  48  60    51  60  64    47  51  50    51  53  47    52  52  47    52  51  49    52  51  49    50  48  49    45  43  45    44  40  44    47  42  46    41  37  38    42  38  38    46  42  40    67  62  58     0   0   0     0   0   0     0   0   0     0   0   0     0   0   0     0   0   0     0   0   0     0   0   0     0   0   0     0   0   0     0   0   0     0   0   0     0   0   0     0   0   0     0   0   0     0   0   0  
   0   0   0     0   0   0     0   0   0     0   0   0     0   0   0     0   0   0     0   0   0     0   0   0     0   0   0     0   0   0     0   0   0     0   0   0     0   0   0     0   0   0     0   0   0     0   0   0     0   0   0     0   0   0     0   0   0     0   0   0   185 184 182   196 200 197   195 204 199   205 220 215   192 208 205   188 207 206   175 195 197   119 137 141    42  56  59    65  74  76    64  71  72    53  57  57    50  50  49    43  43  41    43  43  42    49  49  49    47  45  46    41  39  41    43  41  44    35  33  36    44  41  42     0   0   0     0   0   0     0   0   0     0   0   0     0   0   0     0   0   0     0   0   0     0   0   0     0   0   0     0   0   0     0   0   0     0   0   0     0   0   0     0   0   0     0   0   0     0   0   0     0   0   0     0   0   0  
   0   0   0     0   0   0     0   0   0     0   0   0     0   0   0     0   0   0     0   0   0     0   0   0     0   0   0     0   0   0     0   0   0     0   0   0     0   0   0     0   0   0     0   0   0     0   0   0     0   0   0     0   0   0     0   0   0     0   0   0     0   0   0   188 188 186   198 205 200   197 209 205   197 212 209   192 209 207   181 200 198   144 161 160    61  75  75    48  60  60    52  61  63    49  55  57    53  56  54    48  49  45    47  47  45    50  49  48    47  45  46    42  40  42    43  41  44     0   0   0     0   0   0     0   0   0     0   0   0     0   0   0     0   0   0     0   0   0     0   0   0     0   0   0     0   0   0     0   0   0     0   0   0     0   0   0     0   0   0     0   0   0     0   0   0     0   0   0     0   0   0     0   0   0     0   0   0  
   0   0   0     0   0   0     0   0   0     0   0   0     0   0   0     0   0   0     0   0   0     0   0   0     0   0   0     0   0   0     0   0   0     0   0   0     0   0   0     0   0   0     0   0   0     0   0   0     0   0   0     0   0   0     0   0   0     0   0   0     0   0   0     0   0   0     0   0   0   189 199 195   200 215 212   194 211 208   185 204 202   168 185 184    92 106 107    44  55  57    48  57  60    46  52  55    54  57  56    52  53  48    51  51  49    50  50  49    47  47  47     0   0   0     0   0   0     0   0   0     0   0   0     0   0   0     0   0   0     0   0   0     0   0   0     0   0   0     0   0   0     0   0   0     0   0   0     0   0   0     0   0   0     0   0   0     0   0   0     0   0   0     0   0   0     0   0   0     0   0   0     0   0   0     0   0   0  
   0   0   0     0   0   0     0   0   0     0   0   0     0   0   0     0   0   0     0   0   0     0   0   0     0   0   0     0   0   0     0   0   0     0   0   0     0   0   0     0   0   0     0   0   0     0   0   0     0   0   0     0   0   0     0   0   0     0   0   0     0   0   0     0   0   0     0   0   0     0   0   0     0   0   0     0   0   0     0   0   0     0   0   0     0   0   0    55  69  70    47  58  62    42  49  53    47  49  50    52  54  49    55  55  53     0   0   0     0   0   0     0   0   0     0   0   0     0   0   0     0   0   0     0   0   0     0   0   0     0   0   0     0   0   0     0   0   0     0   0   0     0   0   0     0   0   0     0   0   0     0   0   0     0   0   0     0   0   0     0   0   0     0   0   0     0   0   0     0   0   0     0   0   0     0   0   0  
