P3
50 50
255
   1 113 176     1 113 176     0   0   0     0   0   0     0   0   0     0   0   0     0   0   0     0   0   0     0   0   0     0   0   0     0   0   0     0   0   0     0   0   0     0   0   0     0   0   0     0   0   0     0   0   0     0   0   0     0   0   0     0   0   0     0   0   0     0   0   0     0   0   0     0   0   0     0   0   0     0   0   0     0   0   0     0   0   0     0   0   0     0   0   0     0   0   0     0   0   0     0   0   0     0   0   0     0   0   0     0   0   0     0   0   0     0   0   0     0   0   0     0   0   0     0   0   0     0   0   0     0   0   0     0   0   0     0   0   0     0   0   0     0   0   0     0   0   0     1 124 184     1 124 184  
   1 112 175     1 112 175     1 113 176     0   0   0     0   0   0     0   0   0     0   0   0     0   0   0     0   0   0     0   0   0     0   0   0     0   0   0     0   0   0     0   0   0     0   0   0     0   0   0     0   0   0     0   0   0     0   0   0     0   0   0     0   0   0     0   0   0     0   0   0     0   0   0     0   0   0     0   0   0     0   0   0     0   0   0     0   0   0     0   0   0     0   0   0     0   0   0     0   0   0     0   0   0     0   0   0     0   0   0     0   0   0     0   0   0     0   0   0     0   0   0     0   0   0     0   0   0     0   0   0     0   0   0     0   0   0     0   0   0     0   0   0     1 124 184     1 124 184     1 124 184  
   1 112 175     1 112 175     1 113 176     1 113 176     0   0   0     0   0   0     0   0   0     0   0   0     0   0   0     0   0   0     0   0   0     0   0   0     0   0   0     0   0   0     0   0   0     0   0   0     0   0   0     0   0   0     0   0   0     0   0   0     0   0   0     0   0   0     0   0   0     0   0   0     0   0   0     0   0   0     0   0   0     0   0   0     0   0   0     0   0   0     0   0   0     0   0   0     0   0   0     0   0   0     0   0   0     0   0   0     0   0   0     0   0   0     0   0   0     0   0   0     0   0   0     0   0   0     0   0   0     0   0   0     0   0   0     0   0   0     1 121 182     1 124 184     1 124 184     0   0   0  
   1 112 175     1 112 175     1 112 175     1 113 175     1 113 176     0   0   0     0   0   0     0   0   0     0   0   0     0   0   0     0   0   0     0   0   0     0   0   0     0   0   0     0   0   0     0   0   0     0   0   0     0   0   0     0   0   0     0   0   0     0   0   0     0   0   0     0   0   0     0   0   0     0   0   0     0   0   0     0   0   0     0   0   0     0   0   0     0   0   0     0   0   0     0   0   0     0   0   0     0   0   0     0   0   0     0   0   0     0   0   0     0   0   0     0   0   0     0   0   0     0   0   0     0   0   0     0   0   0     0   0   0     1 121 182     1 121 182     1 121 182     1 124 184     0   0   0     0   0   0  
   1 112 175     1 112 175     1 112 175     1 113 175     1 113 176     1 113 176     0   0   0     0   0   0     0   0   0     0   0   0     0   0   0     0   0   0     0   0   0     0   0   0     0   0   0     0   0   0     0   0   0     0   0   0     0   0   0     0   0   0     0   0   0     0   0   0     0   0   0     0   0   0     0   0   0     0   0   0     0   0   0     0   0   0     0   0   0     0   0   0     0   0   0     0   0   0     0   0   0     0   0   0     0   0   0     0   0   0     0   0   0     0   0   0     0   0   0     0   0   0     0   0   0     0   0   0     1 120 181     1 120 181     1 121 182     1 121 182     1 121 182     1 124 184     0   0   0     0   0   0  
   1 110 174     1 111 175     1 111 175     1 111 175     1 112 176     1 112 176     1 112 176     0   0   0     0   0   0     0   0   0     0   0   0     0   0   0     0   0   0     0   0   0     0   0   0     0   0   0     0   0   0     0   0   0     0   0   0     0   0   0     0   0   0     0   0   0     0   0   0     0   0   0     0   0   0     0   0   0     0   0   0     0   0   0     0   0   0     0   0   0     0   0   0     0   0   0     0   0   0     0   0   0     0   0   0     0   0   0     0   0   0     0   0   0     0   0   0     0   0   0     1 118 180     1 119 181     1 120 181     1 120 181     1 121 182     1 121 182     1 121 182     0   0   0     0   0   0     0   0   0  
   1 110 176     1 111 177     1 111 177     1 111 177     1 112 178     1 112 178     1 112 178     1 113 179     0   0   0     0   0   0     0   0   0     0   0   0     0   0   0     0   0   0     0   0   0     0   0   0     0   0   0     0   0   0     0   0   0     0   0   0     0   0   0     0   0   0     0   0   0     0   0   0     0   0   0     0   0   0     0   0   0     0   0   0     0   0   0     0   0   0     0   0   0     0   0   0     0   0   0     0   0   0     0   0   0     0   0   0     0   0   0     0   0   0     1 119 181     1 119 181     1 118 180     1 119 181     1 120 181     1 120 181     1 121 182     1 121 182     1 121 182     0   0   0     0   0   0     0   0   0  
   1 109 176     1 110 177     1 110 177     1 110 177     2 111 178     2 111 178     2 111 178     3 112 179     3 112 179     0   0   0     0   0   0     0   0   0     0   0   0     0   0   0     0   0   0     0   0   0     0   0   0     0   0   0     0   0   0     0   0   0     0   0   0     0   0   0     0   0   0     0   0   0     0   0   0     0   0   0     0   0   0     0   0   0     0   0   0     0   0   0     0   0   0     0   0   0     0   0   0     0   0   0     0   0   0     0   0   0     1 119 181     1 119 181     1 119 181     1 119 181     1 118 180     1 119 181     1 120 181     1 120 181     1 121 182     1 121 182     1 121 182     0   0   0     0   0   0     0   0   0  
   1 109 176     1 110 177     1 110 177     1 110 177     2 111 178     2 111 178     2 111 178     2 111 178     3 112 179     3 112 179     0   0   0     0   0   0     0   0   0     0   0   0     0   0   0     0   0   0     0   0   0     0   0   0     0   0   0     0   0   0     0   0   0     0   0   0     0   0   0     0   0   0     0   0   0     0   0   0     0   0   0     0   0   0     0   0   0     0   0   0     0   0   0     0   0   0     0   0   0     0   0   0     0   0   0     1 119 181     1 119 181     1 119 181     1 119 181     1 119 181     1 118 180     1 119 181     1 120 181     1 120 181     1 121 182     1 121 182     1 121 182     0   0   0     0   0   0     0   0   0  
   1 109 176     1 110 177     1 110 177     1 110 177     2 111 178     2 111 178     2 111 178     2 111 178     2 111 178     3 112 179     3 112 179     0   0   0     0   0   0     0   0   0     0   0   0     0   0   0     0   0   0     0   0   0     0   0   0     0   0   0     0   0   0     0   0   0     0   0   0     0   0   0     0   0   0     0   0   0     0   0   0     0   0   0     0   0   0     0   0   0     0   0   0     0   0   0     0   0   0     0   0   0     1 119 181     1 119 181     1 119 181     1 119 181     1 119 181     1 119 181     1 118 180     1 119 181     1 120 181     1 120 181     1 121 182     1 121 182     0   0   0     0   0   0     0   0   0     0   0   0  
   1 109 176     1 110 177     1 110 177     1 110 177     2 111 178     2 111 178     2 111 178     2 111 178     2 111 178     2 111 178     3 112 179     3 112 179     0   0   0     0   0   0     0   0   0     0   0   0     0   0   0     0   0   0     0   0   0     0   0   0     0   0   0     0   0   0     0   0   0     0   0   0     0   0   0     0   0   0     0   0   0     0   0   0     0   0   0     0   0   0     0   0   0     0   0   0     0   0   0     1 118 180     1 119 181     1 119 181     1 119 181     1 119 181     1 119 181     1 119 181     1 118 180     1 119 181     1 120 181     1 120 181     1 121 182     1 121 182     0   0   0     0   0   0     0   0   0     0   0   0  
   1 109 176     1 110 177     1 110 177     1 110 177     2 111 178     2 111 178     2 110 178     2 111 178     2 111 178     2 111 178     3 112 179     3 112 179     2 113 179     0   0   0     0   0   0     0   0   0     0   0   0     0   0   0     0   0   0     0   0   0     0   0   0     0   0   0     0   0   0     0   0   0     0   0   0     0   0   0     0   0   0     0   0   0     0   0   0     0   0   0     0   0   0     0   0   0     1 117 179     1 118 180     1 119 181     1 119 181     1 119 181     1 119 181     1 119 181     1 119 181     1 118 180     1 119 181     1 120 181     1 120 181     1 121 182     1 121 182     0   0   0     0   0   0     0   0   0     0   0   0  
   1 109 176     1 110 177     1 110 177     1 110 177     2 111 178     2 111 178     2 110 178     1 110 177     2 110 178     2 111 178     2 111 178     3 112 179     2 113 179     1 114 177     0   0   0     0   0   0     0   0   0     0   0   0     0   0   0     0   0   0     0   0   0     0   0   0     0   0   0     0   0   0     0   0   0     0   0   0     0   0   0     0   0   0     0   0   0     0   0   0     0   0   0     1 117 179     1 117 179     1 118 180     1 119 181     1 119 181     1 119 181     1 119 181     1 119 181     1 119 181     1 118 180     1 119 181     1 120 181     1 120 181     1 121 182     1 121 182     0   0   0     0   0   0     0   0   0     0   0   0  
   1 109 176     1 110 177     1 110 177     1 110 177     2 111 178     2 111 178     2 110 178     1 110 177     2 110 178     2 111 178     2 111 178     3 112 179     3 112 179     1 113 177     1 114 177     1 114 177     0   0   0     0   0   0     0   0   0     0   0   0     0   0   0     0   0   0     0   0   0     0   0   0     0   0   0     0   0   0     0   0   0     0   0   0     0   0   0     1 117 179     1 117 179     1 117 179     1 117 179     1 118 180     1 119 181     1 119 181     1 119 181     1 119 181     1 119 181     1 119 181     1 118 180     1 119 181     1 120 181     1 120 181     1 121 182     0   0   0     0   0   0     0   0   0     0   0   0     0   0   0  
   1 110 177     1 110 177     1 110 177     1 110 177     1 110 177     1 110 177     1 110 177     2 111 178     2 111 178     2 111 178     2 111 178     2 111 178     1 112 178     1 113 176     1 113 176     1 113 176     1 114 177     1 114 177     0   0   0     0   0   0     0   0   0     0   0   0     0   0   0     0   0   0     0   0   0     0   0   0     0   0   0     0   0   0     1 117 179     1 117 179     1 117 179     1 118 180     1 118 180     1 118 180     1 118 180     1 118 180     1 118 180     1 119 181     1 119 181     1 119 181     1 119 181     1 119 181     1 120 181     1 120 181     1 120 181     0   0   0     0   0   0     0   0   0     0   0   0     0   0   0  
   1 110 177     1 110 177     1 110 177     1 110 177     1 110 177     1 110 177     1 110 177     2 111 178     2 111 178     2 111 178     2 111 178     2 111 178     2 111 178     1 112 176     1 113 176     1 113 176     1 113 176     1 114 177     1 114 177     1 114 177     0   0   0     0   0   0     0   0   0     0   0   0     0   0   0     0   0   0     0   0   0     1 116 178     1 117 179     1 117 179     1 117 179     1 118 180     1 118 180     1 118 180     1 118 180     1 118 180     1 118 180     1 119 181     1 119 181     1 119 181     1 119 181     1 119 181     1 120 181     0   0   0     0   0   0     0   0   0     0   0   0     0   0   0     0   0   0     0   0   0  
   1 110 177     1 110 177     1 110 177     1 110 177     1 110 177     1 110 177     1 110 177     2 111 178     2 111 178     2 111 178     2 111 178     2 111 178     2 111 178     1 112 176     1 112 176     1 112 176     1 112 176     1 113 177     1 113 177     1 113 177     2 114 178     2 114 178     0   0   0     0   0   0     0   0   0     0   0   0     1 115 178     1 116 178     1 117 179     1 117 179     1 117 179     1 118 180     1 118 180     1 118 180     1 118 180     1 118 180     1 118 180     1 119 181     1 119 181     1 119 181     1 119 181     1 119 181     0   0   0     0   0   0     0   0   0     0   0   0     0   0   0     0   0   0     0   0   0     0   0   0  
   1 110 177     1 110 177     1 110 177     1 110 177     1 110 177     1 110 177     1 110 177     1 110 177     1 110 177     1 110 177     1 110 177     1 110 177     1 110 177     1 110 176     1 111 175     1 112 176     1 112 176     1 113 177     1 113 177     1 113 177     2 114 178     2 114 178     2 114 178     2 114 178     0   0   0     2 114 178     1 115 178     1 116 178     1 117 179     1 117 179     1 117 179     1 118 180     1 118 180     1 118 180     1 118 180     1 118 180     1 118 180     1 119 181     1 119 181     1 119 181     0   0   0     0   0   0     0   0   0     0   0   0     0   0   0     0   0   0     0   0   0     0   0   0     0   0   0     0   0   0  
   1 110 177     1 110 177     1 110 177     1 110 177     1 110 177     1 110 177     1 110 177     1 110 177     1 110 177     1 110 177     1 110 177     1 110 177     1 110 177     1 110 176     1 111 175     1 111 175     1 112 176     1 112 176     1 113 177     1 113 177     2 114 178     2 114 178     2 114 178     2 114 178     2 114 178     2 114 178     1 115 178     1 116 178     1 117 179     1 117 179     1 117 179     1 118 180     1 118 180     1 118 180     1 118 180     1 118 180     1 118 180     1 119 181     1 119 181     0   0   0     0   0   0     0   0   0     0   0   0     0   0   0     0   0   0     0   0   0     0   0   0     0   0   0     0   0   0     0   0   0  
   1 110 177     1 110 177     1 110 177     1 110 177     1 110 177     1 110 177     1 110 177     1 110 177     1 110 177     1 110 177     1 110 177     1 110 177     1 110 177     1 110 176     1 111 175     1 111 175     1 111 175     1 112 176     1 112 176     1 112 176     2 114 178     2 114 178     2 114 178     2 114 178     2 114 178     2 114 178     1 115 178     1 116 178     1 117 179     1 117 179     1 117 179     1 118 180     1 118 180     1 118 180     1 118 180     1 118 180     1 118 180     0   0   0     0   0   0     0   0   0     0   0   0     0   0   0     0   0   0     0   0   0     0   0   0     0   0   0     0   0   0     0   0   0     0   0   0     0   0   0  
   1 110 177     1 110 177     1 110 177     1 110 177     1 110 177     1 110 177     1 110 177     1 110 177     1 110 177     1 110 177     1 110 177     1 110 177     1 110 177     1 110 176     1 111 175     1 111 175     1 111 175     1 112 176     1 112 176     1 112 176     2 114 178     2 114 178     2 114 178     2 114 178     2 114 178     2 114 178     1 115 178     1 116 178     1 117 179     1 117 179     1 117 179     1 118 180     1 118 180     1 118 180     1 118 180     0   0   0     0   0   0     0   0   0     0   0   0     0   0   0     0   0   0     0   0   0     0   0   0     0   0   0     0   0   0     0   0   0     0   0   0     0   0   0     0   0   0     0   0   0  
   1 110 177     1 110 177     1 110 177     1 110 177     1 110 177     1 110 177     1 110 177     1 110 177     1 110 177     1 110 177     1 110 177     1 110 177     1 110 177     1 110 175     1 111 175     1 111 175     1 111 175     1 112 176     1 112 176     1 112 176     2 114 178     2 114 178     2 114 178     2 114 178     2 114 178     2 114 178     1 115 178     1 115 178     1 115 179     1 116 179     1 116 179     1 118 180     1 118 180     1 118 180     0   0   0     0   0   0     0   0   0     0   0   0     0   0   0     0   0   0     0   0   0     0   0   0     0   0   0     0   0   0     0   0   0     0   0   0     0   0   0     0   0   0     0   0   0     0   0   0  
   1 110 177     1 110 177     1 110 177     1 110 177     1 110 177     1 110 177     1 110 177     1 109 176     1 109 176     1 109 176     1 109 176     1 109 176     1 109 176     1 110 177     1 111 177     1 112 178     1 112 178     1 113 179     1 113 179     1 113 179     2 114 180     2 114 180     2 114 180     2 114 180     2 114 180     2 114 180     1 114 179     1 115 178     1 115 178     1 115 178     1 115 178     1 116 179     0   0   0     0   0   0     0   0   0     0   0   0     0   0   0     0   0   0     0   0   0     0   0   0     0   0   0     0   0   0     0   0   0     0   0   0     0   0   0     0   0   0     0   0   0     0   0   0     0   0   0     0   0   0  
   1 110 177     1 110 177     1 110 177     1 110 177     1 110 177     1 110 177     1 110 177     1 109 176     1 109 176     1 109 176     1 109 176     1 109 176     1 109 176     1 110 177     1 111 177     1 112 178     1 112 178     1 113 179     1 113 179     1 113 179     2 114 180     2 114 180     2 114 180     2 114 180     2 114 180     2 114 180     1 114 179     1 115 178     1 115 178     1 115 178     1 115 178     0   0   0     0   0   0     0   0   0     0   0   0     0   0   0     0   0   0     0   0   0     0   0   0     0   0   0     0   0   0     0   0   0     0   0   0     0   0   0     0   0   0     0   0   0     0   0   0     0   0   0     0   0   0     0   0   0  
   1 110 177     1 110 177     1 110 177     1 110 177     1 110 177     1 110 177     1 110 177     1 109 176     1 109 176     1 109 176     1 109 176     1 109 176     1 109 176     1 110 177     1 111 177     1 112 178     1 112 178     1 113 179     1 113 179     1 113 179     2 114 180     2 114 180     2 114 180     2 114 180     2 114 180     2 114 180     1 114 179     1 115 178     1 115 178     0   0   0     0   0   0     0   0   0     0   0   0     0   0   0     0   0   0     0   0   0     0   0   0     0   0   0     0   0   0     0   0   0     0   0   0     0   0   0     0   0   0     0   0   0     0   0   0     0   0   0     0   0   0     0   0   0     0   0   0     0   0   0  
   1 110 177     1 110 177     1 110 177     1 110 177     1 110 177     1 110 177     1 110 177     1 109 176     1 109 176     1 109 176     1 109 176     1 109 176     1 109 176     1 110 177     1 111 177     1 112 178     1 112 178     1 113 179     1 113 179     1 113 179     2 114 180     2 114 180     2 114 180     2 114 180     2 114 180     2 114 180     1 114 179     1 115 178     0   0   0     0   0   0     0   0   0     0   0   0     0   0   0     0   0   0     0   0   0     0   0   0     0   0   0     0   0   0     0   0   0     0   0   0     0   0   0     0   0   0     0   0   0     0   0   0     0   0   0     0   0   0     0   0   0     0   0   0     0   0   0     0   0   0  
   1 110 177     1 110 177     1 110 177     1 110 177     1 110 177     1 110 177     1 110 177     1 110 177     1 110 177     1 110 177     1 110 177     1 110 177     1 110 177     1 110 177     1 111 177     1 112 178     1 112 178     1 113 179     1 113 179     1 113 179     1 113 179     1 113 179     1 113 179     1 113 179     1 113 179     1 113 179     1 113 178     1 115 178     1 115 178     0   0   0     0   0   0     0   0   0     0   0   0     0   0   0     0   0   0     0   0   0     0   0   0     0   0   0     0   0   0     0   0   0     0   0   0     0   0   0     0   0   0     0   0   0     0   0   0     0   0   0     0   0   0     0   0   0     0   0   0     0   0   0  
   1 110 177     1 110 177     1 110 177     1 110 177     1 110 177     1 110 177     1 110 177     1 110 177     1 110 177     1 110 177     1 110 177     1 110 177     1 110 177     1 110 177     1 111 177     1 112 178     1 112 178     1 113 179     1 113 179     1 113 179     1 113 179     1 113 179     1 113 179     1 113 179     1 113 179     1 113 179     1 113 178     1 115 178     1 115 178     1 115 178     1 115 178     0   0   0     0   0   0     0   0   0     0   0   0     0   0   0     0   0   0     0   0   0     0   0   0     0   0   0     0   0   0     0   0   0     0   0   0     0   0   0     0   0   0     0   0   0     0   0   0     0   0   0     0   0   0     0   0   0  
   1 110 177     1 110 177     1 110 177     1 110 177     1 110 177     1 110 177     1 110 177     1 110 177     1 110 177     1 110 177     1 110 177     1 110 177     1 110 177     1 110 177     1 111 177     1 112 178     1 112 178     1 113 179     1 113 179     1 113 179     1 113 179     1 113 179     1 113 179     1 113 179     1 113 179     1 113 179     1 113 178     1 115 178     1 115 178     1 115 178     1 115 178     2 116 179     1 116 179     0   0   0     0   0   0     0   0   0     0   0   0     0   0   0     0   0   0     0   0   0     0   0   0     0   0   0     0   0   0     0   0   0     0   0   0     0   0   0     0   0   0     0   0   0     0   0   0     0   0   0  
   1 110 177     1 110 177     1 110 177     1 110 177     1 110 177     1 110 177     1 110 177     1 110 177     1 110 177     1 110 177     1 110 177     1 110 177     1 110 177     1 110 177     1 111 177     1 112 178     1 112 178     1 113 179     1 113 179     1 113 179     1 113 179     1 113 179     1 113 179     1 113 179     1 113 179     1 113 179     1 113 178     1 115 178     1 115 178     1 115 178     1 115 178     2 116 179     1 116 179     2 117 180     0   0   0     0   0   0     0   0   0     0   0   0     0   0   0     0   0   0     0   0   0     0   0   0     0   0   0     0   0   0     0   0   0     0   0   0     0   0   0     0   0   0     0   0   0     0   0   0  
   1 110 177     1 110 177     1 110 177     1 110 177     1 110 177     1 110 177     1 110 177     1 110 177     1 110 177     1 110 177     1 110 177     2 111 178     2 111 178     1 112 178     1 112 178     1 112 178     1 112 178     1 112 178     1 112 178     1 112 178     1 112 178     1 112 178     1 113 179     1 113 179     1 113 179     2 114 180     1 114 179     1 115 178     1 115 178     1 115 178     1 115 178     2 116 179     1 116 179     1 116 179     1 116 179     1 117 179     0   0   0     0   0   0     0   0   0     0   0   0     0   0   0     0   0   0     0   0   0     0   0   0     0   0   0     0   0   0     0   0   0     0   0   0     0   0   0     0   0   0  
   1 110 177     1 110 177     1 110 177     1 110 177     1 110 177     1 110 177     1 110 177     1 110 177     1 110 177     1 110 177     1 110 177     2 111 178     2 111 178     1 112 178     1 112 178     1 112 178     1 112 178     1 112 178     1 112 178     1 112 178     1 112 178     1 112 178     1 113 179     1 113 179     1 113 179     2 114 180     1 114 179     1 115 178     1 115 178     1 115 178     1 115 178     2 116 179     1 116 179     1 116 179     1 116 179     1 117 179     1 117 179     0   0   0     0   0   0     0   0   0     0   0   0     0   0   0     0   0   0     0   0   0     0   0   0     0   0   0     0   0   0     0   0   0     0   0   0     0   0   0  
   1 110 177     1 110 177     1 110 177     1 110 177     1 110 177     1 110 177     1 110 177     1 110 177     1 110 177     1 110 177     1 110 177     2 111 178     2 111 178     1 112 178     1 112 178     1 112 178     1 112 178     1 112 178     1 112 178     1 112 178     1 112 178     1 112 178     1 113 179     1 113 179     1 113 179     2 114 180     1 114 179     1 115 178     1 115 178     1 115 178     1 115 178     2 116 179     1 116 179     1 116 179     1 116 179     1 117 179     1 117 179     1 118 180     1 118 180     0   0   0     0   0   0     0   0   0     0   0   0     0   0   0     0   0   0     0   0   0     0   0   0     0   0   0     0   0   0     0   0   0  
   1 110 177     1 110 177     1 110 177     1 110 177     1 110 177     1 110 177     1 110 177     1 110 177     1 110 177     1 110 177     1 110 177     2 111 178     2 111 178     1 112 178     1 112 178     1 112 178     1 112 178     1 112 178     1 112 178     1 112 178     1 112 178     1 112 178     1 113 179     1 113 179     1 113 179     2 114 180     1 114 179     1 115 178     1 115 178     1 115 178     1 115 178     2 116 179     1 116 179     1 115 178     1 115 178     1 117 179     1 117 179     1 118 180     1 118 180     1 118 180     1 119 180     0   0   0     0   0   0     0   0   0     0   0   0     0   0   0     0   0   0     0   0   0     0   0   0     0   0   0  
   1 110 177     1 110 177     1 110 177     1 110 177     1 110 177     1 110 177     1 110 177     1 110 177     1 110 177     1 110 177     1 110 177     2 111 178     2 111 178     1 112 178     1 112 178     1 112 178     1 112 178     1 112 178     1 112 178     1 112 178     1 112 178     1 112 178     1 113 179     1 113 179     1 113 179     2 114 180     1 114 179     1 115 178     1 115 178     1 115 178     1 115 178     2 116 179     1 116 179     1 115 178     1 115 178     1 116 178     1 117 179     1 117 179     1 118 180     1 118 180     1 118 179     1 119 180     0   0   0     0   0   0     0   0   0     0   0   0     0   0   0     0   0   0     0   0   0     0   0   0  
   1 110 177     1 110 177     1 110 177     1 110 177     1 110 177     1 110 177     1 110 177     1 110 177     1 110 177     1 110 177     1 110 177     2 111 178     2 111 178     1 112 178     1 112 178     1 112 178     1 112 178     1 112 178     1 112 178     1 112 178     1 112 178     1 112 178     1 113 179     1 113 179     1 113 179     2 114 180     1 114 179     1 115 178     1 115 178     1 115 178     1 115 178     2 116 179     1 116 179     1 115 178     1 115 178     1 116 178     1 116 178     1 117 179     1 117 179     1 117 179     1 118 179     1 118 179     1 119 180     1 119 180     0   0   0     0   0   0     0   0   0     0   0   0     0   0   0     0   0   0  
   1 110 177     1 110 177     1 110 177     1 110 177     1 110 177     1 110 177     1 110 177     1 110 177     1 110 177     1 110 177     1 110 177     2 111 178     2 111 178     1 112 178     1 112 178     1 112 178     1 112 178     1 112 178     1 112 178     1 112 178     1 112 178     1 112 178     1 113 179     1 113 179     1 113 179     2 114 180     1 114 179     1 115 178     1 115 178     1 115 178     1 115 178     2 116 179     1 116 179     1 115 178     1 115 178     1 116 178     1 116 178     1 117 179     1 117 179     1 117 179     1 118 179     1 118 179     1 119 180     1 119 180     1 119 180     1 120 181     0   0   0     0   0   0     0   0   0     0   0   0  
   1 110 177     1 110 177     1 110 177     1 110 177     1 110 177     1 110 177     1 110 177     1 110 177     1 110 177     1 110 177     1 110 177     2 111 178     1 112 178     1 112 178     1 112 178     1 112 178     1 112 178     1 112 178     1 112 178     1 112 178     1 112 178     1 112 178     1 113 179     1 113 179     1 113 179     2 114 180     1 114 179     1 115 178     1 115 178     1 115 178     1 115 178     2 116 179     1 116 179     1 115 177     1 115 178     1 116 178     1 116 178     1 117 179     1 117 179     1 117 179     1 118 179     1 118 179     1 119 180     1 119 180     1 119 180     1 120 181     0   0   0     0   0   0     0   0   0     0   0   0  
   1 108 176     1 108 176     1 108 176     1 109 176     1 109 176     1 109 176     1 109 176     1 111 177     1 111 177     1 111 177     1 111 177     1 112 178     1 112 178     1 113 176     1 113 176     1 113 176     1 113 176     1 113 176     1 113 176     1 113 176     1 113 176     1 113 176     1 114 177     1 114 177     1 114 177     1 115 178     1 115 178     1 115 180     1 115 180     1 115 180     1 115 180     1 115 180     1 115 180     1 115 180     1 115 180     1 115 180     1 115 180     1 115 180     1 115 180     1 116 180     1 118 179     1 118 179     1 119 180     1 119 180     1 119 180     1 120 181     1 120 180     0   0   0     0   0   0     0   0   0  
   1 108 176     1 108 176     1 108 176     1 109 176     1 109 176     1 109 176     1 109 176     1 111 177     1 111 177     1 111 177     1 111 177     1 112 178     1 112 178     1 113 176     1 113 176     1 113 176     1 113 176     1 113 176     1 113 176     1 113 176     1 113 176     1 113 176     1 114 177     1 114 177     1 114 177     1 115 178     1 115 178     1 115 180     1 115 180     1 115 180     1 115 180     1 115 180     1 115 180     1 115 180     1 115 180     1 115 180     1 115 180     1 115 180     1 115 180     1 115 180     1 117 179     1 118 179     1 119 180     1 119 180     1 119 180     1 120 181     1 120 180     0   0   0     0   0   0     0   0   0  
   1 108 176     1 108 176     1 108 176     1 109 176     1 109 176     1 109 176     1 109 176     1 111 177     1 111 177     1 111 177     1 111 177     1 112 178     1 112 178     1 113 176     1 113 176     1 113 176     1 113 176     1 113 176     1 113 176     1 113 176     1 113 176     1 113 176     1 114 177     1 114 177     1 114 177     1 115 178     1 115 178     1 115 180     1 115 180     1 115 180     1 115 180     1 115 180     1 115 180     1 115 180     1 115 180     1 115 180     1 115 180     1 115 180     1 115 180     1 116 180     1 118 179     1 118 179     1 119 180     1 119 180     1 119 180     1 120 181     1 120 180     0   0   0     0   0   0     0   0   0  
   1 108 176     1 108 176     1 108 176     1 109 176     1 109 176     1 109 176     1 109 176     1 111 177     1 111 177     1 111 177     1 111 177     1 112 178     1 112 178     1 113 176     1 113 176     1 113 176     1 113 176     1 113 176     1 113 176     1 113 176     1 113 176     1 113 176     1 114 177     1 114 177     1 114 177     1 115 178     1 115 178     1 115 180     1 115 180     1 115 180     1 115 180     1 115 180     1 115 180     1 115 180     1 115 180     1 115 180     1 115 180     1 115 180     1 115 180     1 115 180     1 117 179     1 118 179     1 119 180     1 119 180     1 119 180     1 120 181     1 120 180     0   0   0     0   0   0     0   0   0  
   1 108 176     1 108 176     1 108 176     1 109 176     1 109 176     1 109 176     1 109 176     1 111 177     1 111 177     1 111 177     1 111 177     1 112 178     1 112 178     1 113 176     1 113 176     1 113 176     1 113 176     1 113 176     1 113 176     1 113 176     1 113 176     1 113 176     1 114 177     1 114 177     1 114 177     1 115 178     1 115 178     1 115 180     1 115 180     1 115 180     1 115 180     1 115 180     1 115 180     1 115 180     1 115 180     1 115 180     1 115 180     1 115 180     1 115 180     1 116 180     1 118 179     1 118 179     1 119 180     1 119 180     1 119 180     1 120 181     1 120 180     1 120 181     0   0   0     0   0   0  
   1 108 176     1 108 176     1 108 176     1 109 176     1 109 176     1 109 176     1 109 176     1 111 177     1 111 177     1 111 177     1 111 177     1 112 178     1 112 178     1 113 176     1 113 176     1 113 176     1 113 176     1 113 176     1 113 176     1 113 176     1 113 176     1 113 176     1 114 177     1 114 177     1 114 177     1 115 178     1 115 178     1 115 180     1 115 180     1 115 180     1 115 180     1 115 180     1 115 180     1 115 180     1 115 180     1 115 180     1 115 180     1 115 180     1 115 180     1 115 180     1 117 179     1 118 179     1 119 180     1 119 180     1 119 180     1 120 181     1 120 180     1 120 181     0   0   0     0   0   0  
   1 108 176     1 108 176     1 108 176     1 109 176     1 109 176     1 109 176     1 109 176     1 111 177     1 111 177     1 111 177     1 111 177     1 112 178     1 112 178     1 113 176     1 113 176     1 113 176     1 113 176     1 113 176     1 113 176     1 113 176     1 113 176     1 113 176     1 114 177     1 114 177     1 114 177     1 115 178     1 115 178     1 115 180     1 115 180     1 115 180     1 115 180     1 115 180     1 115 180     1 115 180     1 115 180     1 115 180     1 115 180     1 115 180     1 115 180     1 116 180     1 118 179     1 118 179     1 119 180     1 119 180     1 119 180     1 120 181     1 120 180     1 120 181     0   0   0     0   0   0  
   1 108 176     1 108 176     1 108 176     1 109 176     1 109 176     1 109 176     1 109 176     1 111 177     1 111 177     1 111 177     1 111 177     1 112 178     1 112 178     1 113 176     1 113 176     1 113 176     1 113 176     1 113 176     1 113 176     1 113 176     1 113 176     1 113 176     1 114 177     1 114 177     1 114 177     1 115 178     1 115 178     1 115 180     1 115 180     1 115 180     1 115 180     1 115 180     1 115 180     1 115 180     0   0   0     0   0   0     0   0   0     1 115 180     1 115 180     1 115 180     1 117 179     1 118 179     1 119 180     1 119 180     1 119 180     1 120 181     1 120 180     1 120 181     0   0   0     0   0   0  
   1 108 176     1 108 176     1 108 176     1 109 177     1 110 177     1 110 177     1 110 177     1 111 177     1 111 177     1 111 177     1 111 177     1 112 178     1 112 178     1 113 176     1 113 176     1 113 176     1 113 176     1 113 176     1 113 176     1 113 176     1 113 176     1 113 176     1 114 177     1 114 177     1 114 177     1 115 178     1 115 178     1 115 180     1 115 180     1 115 180     0   0   0     0   0   0     0   0   0     0   0   0     0   0   0     0   0   0     0   0   0     0   0   0     0   0   0     0   0   0     0   0   0     1 118 179     1 119 180     1 119 180     1 119 180     1 120 181     1 120 180     1 119 180     1 120 180     0   0   0  
   1 108 176     1 108 176     1 108 176     1 109 177     1 110 177     1 110 177     1 110 177     1 111 177     1 111 177     1 111 177     1 111 177     1 112 178     1 112 178     1 113 176     1 113 176     1 113 176     1 113 176     1 113 176     1 113 176     1 113 176     1 113 176     1 113 176     1 114 177     1 114 177     1 114 177     1 115 178     0   0   0     0   0   0     0   0   0     0   0   0     0   0   0     0   0   0     0   0   0     0   0   0     0   0   0     0   0   0     0   0   0     0   0   0     0   0   0     0   0   0     0   0   0     0   0   0     0   0   0     0   0   0     0   0   0     1 120 181     1 120 180     1 119 180     1 120 180     0   0   0  
   1 108 176     1 108 176     1 108 176     1 109 177     1 110 177     1 110 177     1 110 177     1 111 177     1 111 177     1 111 177     1 111 177     0   0   0     0   0   0     0   0   0     0   0   0     0   0   0     0   0   0     0   0   0     0   0   0     0   0   0     0   0   0     0   0   0     0   0   0     0   0   0     0   0   0     0   0   0     0   0   0     0   0   0     0   0   0     0   0   0     0   0   0     0   0   0     0   0   0     0   0   0     0   0   0     0   0   0     0   0   0     0   0   0     0   0   0     0   0   0     0   0   0     0   0   0     0   0   0     0   0   0     0   0   0     0   0   0     0   0   0     1 119 180     1 119 180     1 120 181  
   1 108 176     1 108 176     1 108 176     1 109 177     1 110 177     0   0   0     0   0   0     0   0   0     0   0   0     0   0   0     0   0   0     0   0   0     0   0   0     0   0   0     0   0   0     0   0   0     0   0   0     0   0   0     0   0   0     0   0   0     0   0   0     0   0   0     0   0   0     0   0   0     0   0   0     0   0   0     0   0   0     0   0   0     0   0   0     0   0   0     0   0   0     0   0   0     0   0   0     0   0   0     0   0   0     0   0   0     0   0   0     0   0   0     0   0   0     0   0   0     0   0   0     0   0   0     0   0   0     0   0   0     0   0   0     0   0   0     0   0   0     0   0   0     1 119 180     1 119 180  
