P3
50 71
255
  43  44  42    38  40  37    35  37  34    32  34  31    29  31  28    60  62  59    57  59  56   101 103 100    89  92  89     0   0   0     0   0   0     0   0   0     0   0   0     0   0   0     0   0   0     0   0   0     0   0   0     0   0   0     0   0   0     0   0   0     0   0   0     0   0   0     0   0   0     0   0   0     0   0   0     0   0   0     0   0   0     0   0   0     0   0   0     0   0   0     0   0   0     0   0   0     0   0   0     0   0   0     0   0   0     0   0   0     0   0   0     0   0   0     0   0   0     0   0   0     0   0   0     0   0   0    69  71  68    64  66  63    51  53  50    41  43  38    40  42  37    62  64  59    80  82  77    65  67  62  
  36  40  39    35  39  38    32  36  35    53  57  56    59  61  60    92  94  93    74  76  75    56  58  57    41  43  42    38  41  38     0   0   0     0   0   0     0   0   0     0   0   0     0   0   0     0   0   0     0   0   0     0   0   0     0   0   0     0   0   0     0   0   0     0   0   0     0   0   0     0   0   0     0   0   0     0   0   0     0   0   0     0   0   0     0   0   0     0   0   0     0   0   0     0   0   0     0   0   0     0   0   0     0   0   0     0   0   0     0   0   0     0   0   0     0   0   0     0   0   0     0   0   0    41  43  41    42  44  41    33  35  32    25  26  23    39  41  38    49  51  48    51  53  50    62  64  61    54  59  53  
  70  76  74    58  65  63    74  80  78    88  94  92    94 100  99   115 121 119    81  85  83    29  33  32    46  50  49    36  40  39    54  56  55     0   0   0     0   0   0     0   0   0     0   0   0     0   0   0     0   0   0     0   0   0     0   0   0     0   0   0     0   0   0     0   0   0     0   0   0     0   0   0     0   0   0     0   0   0     0   0   0     0   0   0     0   0   0     0   0   0     0   0   0     0   0   0     0   0   0     0   0   0     0   0   0     0   0   0     0   0   0     0   0   0     0   0   0     0   0   0     0   0   0    62  68  66    51  57  55    25  31  29    19  25  23    45  51  49    59  65  61    46  52  48    40  46  42    37  42  38  
 152 161 160   164 173 172   168 177 176   143 150 150    85  91  91   110 116 116    75  81  81    67  71  72   113 117 118   122 126 127   110 112 111    87  89  88     0   0   0     0   0   0     0   0   0     0   0   0     0   0   0     0   0   0     0   0   0     0   0   0     0   0   0     0   0   0     0   0   0     0   0   0     0   0   0     0   0   0     0   0   0     0   0   0     0   0   0     0   0   0     0   0   0     0   0   0     0   0   0     0   0   0     0   0   0     0   0   0     0   0   0     0   0   0     0   0   0     0   0   0    62  68  66    72  78  77    71  77  75    46  52  50    58  64  62    64  70  68    62  68  66    55  61  59    42  48  46    52  58  56  
 139 148 147   138 147 146   109 118 117    81  87  87    79  85  85   149 155 155    91  97  97    68  72  73   137 141 142   170 173 175   128 132 131   113 117 116    89  93  92     0   0   0     0   0   0     0   0   0     0   0   0     0   0   0     0   0   0     0   0   0     0   0   0     0   0   0     0   0   0     0   0   0     0   0   0   117 122 118     0   0   0     0   0   0     0   0   0     0   0   0     0   0   0     0   0   0     0   0   0     0   0   0     0   0   0     0   0   0     0   0   0     0   0   0     0   0   0   105 111 109    97 103 101    77  84  82    65  71  69   107 113 111   133 139 137   131 137 135   131 137 135   119 125 123    98 104 102   107 113 111  
 109 118 117    76  85  84    54  63  62    62  69  69    80  86  86   107 113 113    87  92  92    41  45  46    67  71  72   108 112 113   145 149 148    98 103 102    51  55  54   126 130 129   147 151 150     0   0   0     0   0   0     0   0   0     0   0   0     0   0   0     0   0   0     0   0   0     0   0   0    80  85  82    85  90  86   155 160 156   145 150 147     0   0   0     0   0   0     0   0   0     0   0   0     0   0   0     0   0   0     0   0   0     0   0   0     0   0   0     0   0   0     0   0   0     0   0   0    96 102 100   104 110 108    70  76  74    56  62  60   126 132 130   129 135 133   141 147 145   155 161 160   128 134 132   105 111 109   101 107 105  
  85  94  93    57  66  65    39  48  47    41  48  48    77  83  83    81  87  87    76  81  82    73  77  78    68  72  73    81  85  86   141 145 144    72  76  75    68  72  71   153 157 156   116 120 119    69  73  72     0   0   0     0   0   0     0   0   0     0   0   0     0   0   0   115 119 118    91  95  94    62  66  63    63  68  64   173 178 174   119 124 120    66  71  67     0   0   0     0   0   0     0   0   0     0   0   0     0   0   0     0   0   0     0   0   0     0   0   0     0   0   0     0   0   0    71  77  75    85  91  89    91  96  94    56  62  60    68  74  72   104 109 108   104 110 108   121 127 125   125 131 129    97 103 101    80  86  84    73  78  76  
  44  53  52    39  48  47    43  52  51    49  56  55    61  67  67    99 105 105    99 104 105    98 102 103    79  83  84   135 139 140    94  98  97    41  45  44   114 118 117   118 122 121    69  73  72   119 123 122    88  92  91     0   0   0     0   0   0   113 117 116   113 118 117   104 108 107    78  82  81    31  35  34   113 118 114   150 155 151    63  68  64    54  59  55    60  65  60     0   0   0     0   0   0     0   0   0     0   0   0     0   0   0     0   0   0     0   0   0     0   0   0    67  73  71    54  60  59   104 110 108    90  96  94    46  52  50    64  70  68    71  77  75    96 102 100    95 101  99    72  79  77    61  67  65    51  57  55    56  62  60  
  46  55  54    47  56  55    42  51  50    45  52  52    43  49  49    80  86  86    62  68  68    85  89  90   127 131 132   162 166 167    66  70  71    50  54  55   142 146 147   101 105 106    33  37  38    58  62  63    90  94  95    73  77  78    59  63  64    98 102 103    98 102 103    84  88  89    58  62  62    58  62  61   170 174 173    97 101 100    36  40  39    60  64  63    54  58  57     0   0   0     0   0   0     0   0   0     0   0   0     0   0   0     0   0   0     0   0   0     0   0   0    58  64  63    82  88  88   122 128 128    82  88  88    41  47  47    49  55  55    86  92  92   104 110 110    80  86  86    61  67  67    57  63  63    50  56  56    59  65  63  
  51  60  59    46  55  54    51  60  59    56  63  63    47  53  53    80  86  86    77  83  83    72  76  77   137 141 142   135 139 140    41  45  46    62  66  67   160 164 165    80  84  85    49  53  54    53  57  58    65  69  70    76  80  81   100 104 105    85  89  90    77  81  82    55  59  60    42  46  47   108 113 112   154 158 157    37  41  40    66  70  69    91  95  94    65  69  68    65  69  68     0   0   0     0   0   0     0   0   0     0   0   0     0   0   0     0   0   0    65  70  69    84  90  90   143 149 149   117 123 123    53  59  59    39  45  45    50  56  56   121 127 127    90  96  96    57  63  63    63  69  69    54  60  60    47  53  53    47  53  53  
  53  62  61    51  60  59    58  67  66    59  66  65    35  40  40   122 128 128    67  73  73    90  94  95   109 113 114    95  99 100    38  44  44    91  97  97   159 165 165    80  86  86    46  52  52    47  53  53    63  69  69    98 104 104   110 116 116    70  76  76    68  74  74    50  56  56    73  79  79   158 164 163    74  80  78    50  56  54    63  69  67   121 127 125   103 109 107    58  64  62   116 122 120     0   0   0     0   0   0     0   0   0     0   0   0    61  67  65    91  97  96   116 122 122   113 119 119    52  58  58    42  48  48    45  51  51    98 104 104   107 113 113    40  47  47    57  63  63    59  65  65    57  63  63    63  69  69    51  57  57  
 101 110 110   105 114 113    89  98  97    57  64  64    77  83  83   156 162 162    71  76  76    84  88  89    71  75  76    70  74  75    77  83  83   138 143 143   127 133 133    71  77  77    67  73  73    71  77  77    80  87  87   119 125 125    79  84  84    79  85  85    92  98  98    69  75  75   143 149 149   128 134 134    67  73  72    78  84  82    57  63  61    90  96  94   146 152 150    91  97  95   122 128 126   118 124 122     0   0   0     0   0   0     0   0   0    77  83  81   102 108 108   121 127 127    74  80  80    56  62  62    36  42  42    61  67  67   115 121 121    61  67  67    49  55  55    76  82  82    53  58  58    55  61  61    69  75  75    53  59  59  
 160 169 168   123 132 131    88  97  96    59  66  66    91  98  98   159 165 165    63  68  68    90  94  95    87  91  92   120 124 125   171 176 179   149 154 157   104 109 112   106 111 115   109 114 117   121 126 129   108 113 115    91  96  99    95 100 103   115 120 122   111 116 119   134 139 142   160 166 167    82  88  88   109 115 115   129 135 135   127 133 133   135 141 141   138 145 145    87  93  93   140 146 146   140 146 146    74  80  80     0   0   0    85  90  90    80  86  86   130 136 136   123 128 130   100 105 108   106 111 114    91  96  99   131 136 139   138 143 146   105 110 113   106 111 114   106 111 114   102 107 110    94  99 102    88  93  96   114 120 120  
 109 118 117    78  87  86    45  54  53    47  53  53    61  67  67   145 151 151    63  68  68    74  78  79    66  70  71   110 114 115   179 184 187    85  90  93    70  75  78    73  78  81    83  88  91   100 105 108    93  98 101    78  83  86    96 101 104    83  88  91   117 122 125   174 179 182   117 122 125    85  91  92   139 145 145   112 118 118   118 124 124   102 108 108    70  76  76    97 103 103   141 147 147   159 165 165    89  95  95    72  78  78    65  71  71   116 122 122   150 156 157    95 100 103   106 111 115    90  95  98    91  96  99   127 132 135   115 120 123   141 146 149   134 139 142    99 104 107   128 133 136   132 137 140   101 106 109   136 141 144  
   0   0   0    59  68  67    32  41  40    20  27  27    19  25  25   122 128 128    55  60  60    46  50  51    49  53  54   143 147 148   131 136 139    56  64  66    64  72  74    23  32  33    68  76  78    64  72  74    62  70  72    77  85  87    46  54  56    64  72  74   151 159 161   126 134 136    52  60  62    54  63  63    59  68  67    45  54  53    36  45  44    30  39  38    76  85  84   146 155 154   110 119 117   127 136 135    96 105 104    49  58  57    64  73  72   113 122 121    70  78  78    50  55  58    65  70  73    45  50  53    49  54  57    45  50  53    46  51  54    64  69  73    77  82  85    38  43  46    59  64  67   101 106 109    73  78  81    53  58  61  
   0   0   0     0   0   0     0   0   0    17  24  23    51  57  57   147 153 153    63  69  69    32  36  37    34  38  39   165 169 170    86  92  95    31  39  41    49  57  59    42  50  52    97 105 107    47  55  57    48  56  58    62  70  72    52  60  62   136 144 146   149 157 159    58  66  68    26  34  36    18  27  27    27  36  35    48  57  56    53  61  61    96 105 104   143 152 151   136 145 144   109 117 116   119 128 127    73  82  81    47  56  55    96 105 104    79  88  88    23  31  31    44  49  52    50  55  58    38  43  46    34  39  42    15  20  23    20  25  28    39  44  47    50  55  58    21  26  29    29  34  38    73  78  81    52  57  60    23  28  31  
   0   0   0     0   0   0     0   0   0     0   0   0     0   0   0     0   0   0    36  41  42    17  21  22    53  58  58   168 174 174    56  64  66    30  38  40    52  60  62   101 109 111   109 117 119    61  69  71    82  90  92    97 105 107   120 128 130   152 160 162    80  89  90    39  47  49    56  64  66    66  75  75    83  92  91    73  82  81   105 113 113   152 161 160   119 128 127    58  67  66    88  97  96   126 135 134    69  78  77   102 111 110   107 116 115    54  62  61    35  43  43    55  60  63    45  50  53    25  30  33    24  29  32    34  39  42    49  54  57    58  63  66    30  35  37    20  25  28    32  37  40    50  55  58    29  34  37    25  30  33  
   0   0   0     0   0   0     0   0   0     0   0   0     0   0   0     0   0   0     0   0   0     0   0   0     0   0   0   147 153 153    13  21  23    56  64  66    76  84  86   113 121 123    68  76  78    68  76  78   113 121 123   159 167 169   166 174 176    93 101 103    49  57  59    58  65  68    79  87  89    97 105 105    75  84  83    48  57  56   110 119 118   112 119 119    42  48  48     8  14  14   102 108 108   138 144 144    84  92  91   125 134 133    46  55  54    44  53  52    37  45  45    36  42  45    30  35  38    29  34  37    43  48  50    48  53  56    68  73  76    55  60  63    20  25  28    40  45  48    50  55  58    63  68  71    46  51  54    33  41  43  
   0   0   0     0   0   0     0   0   0     0   0   0     0   0   0     0   0   0     0   0   0     0   0   0     0   0   0     0   0   0     0   0   0    62  71  70   108 117 116    94 103 102    44  53  52   126 135 134   117 126 125   154 163 162   149 158 157    81  90  89    67  76  75    63  72  71    61  70  69    57  67  66    74  84  83    51  60  59    65  74  73    51  56  56    28  29  31    23  24  26   143 144 146   139 141 142   112 117 117    71  79  78    54  63  62    56  66  65    41  51  50    34  44  45    29  39  40    41  51  52    55  65  66    58  68  69    56  66  67    39  49  50    18  28  29    29  39  40    60  70  71    52  62  63    33  43  44    50  60  61  
   0   0   0     0   0   0     0   0   0     0   0   0     0   0   0     0   0   0     0   0   0     0   0   0     0   0   0     0   0   0     0   0   0     0   0   0     0   0   0    66  75  74   116 125 124    68  77  76   132 141 140   125 134 133    95 104 103    52  61  60    61  70  69    41  50  49    39  48  47    61  70  69    80  90  89    53  61  60    46  51  51    32  36  37    20  22  24    46  46  48   172 172 174    96  98 100    73  77  78    63  68  68   108 117 116    76  86  85    58  68  67    33  43  44    30  40  41    33  43  44    35  45  46    38  48  49    42  52  53    39  49  50    34  44  45    45  55  56    59  69  70    37  47  48    23  33  34    59  69  70  
   0   0   0     0   0   0     0   0   0     0   0   0     0   0   0     0   0   0     0   0   0     0   0   0     0   0   0     0   0   0     0   0   0     0   0   0   120 129 128    83  92  91    85  94  93    64  73  72   154 164 163   101 110 109   107 116 115    37  46  45    16  25  24    15  24  23    41  50  49    50  60  58    49  59  58    23  32  31    23  29  29    22  26  27    14  16  18    72  73  75   170 171 173    49  50  52    63  67  68    36  41  41   111 120 119    77  87  86    49  59  59    40  50  51    37  47  48    28  38  39    18  28  29    16  26  27    22  32  33    17  27  28    13  23  24    37  47  48    42  52  53    30  40  41    53  63  64    85  95  95  
   0   0   0     0   0   0     0   0   0     0   0   0     0   0   0     0   0   0     0   0   0     0   0   0     0   0   0     0   0   0     0   0   0   171 180 179   118 127 126    81  90  89    81  90  89   157 166 165   102 110 109    61  70  69    84  93  92    23  32  31    18  27  26    34  43  43    56  65  64    27  36  35    21  30  29    26  32  32    40  45  46    38  42  43    39  41  42   133 134 136   129 130 132    67  69  71   102 106 107    42  47  48    81  87  87    74  83  81    40  50  50    35  45  46    34  44  45    28  38  40    22  32  33    22  32  33    26  36  37    23  33  34    12  22  23    43  53  54    42  52  53    33  43  44    66  76  76    52  62  63  
   0   0   0     0   0   0     0   0   0     0   0   0     0   0   0     0   0   0     0   0   0     0   0   0     0   0   0     0   0   0     0   0   0   141 147 147   129 135 135    81  87  87   150 156 156   158 164 164    56  62  62    84  90  90    92  98  98    77  83  83    91  97  97    82  88  88    92 100  99    83  92  91    92 101 100   107 112 112   102 108 108    91  95  96   106 108 110   192 194 196    67  68  70    92  94  95   108 112 113    62  67  67    71  77  77   103 112 110    65  73  73    66  74  76    68  76  78    76  84  86    84  92  94    89  97  99    93 101 103    86  94  96    70  78  80    87  95  97    94 101 104    81  89  91    82  90  92    64  72  74  
   0   0   0     0   0   0     0   0   0     0   0   0     0   0   0     0   0   0     0   0   0     0   0   0     0   0   0     0   0   0   108 116 116    86  93  93   132 138 138    74  80  80   177 183 183    99 105 105    64  70  70    99 105 105    76  82  82    55  61  61    82  88  88    89  95  95    76  82  82    91  99  98    89  98  97    83  89  89    87  92  93   110 114 115   145 147 149   158 159 161    39  40  42    65  67  69    82  86  87    54  60  60    80  86  86   168 177 176    70  79  79    56  64  66    55  63  65    65  73  75    72  80  82    73  81  83    83  91  93    96 104 106    83  91  93    67  75  77    80  88  90    74  82  84    65  73  75   105 113 115  
   0   0   0     0   0   0     0   0   0     0   0   0     0   0   0     0   0   0     0   0   0     0   0   0     0   0   0    78  88  87    77  86  85    39  45  45    98 104 104   122 128 128   166 172 172    53  59  59    43  49  49    56  62  62    56  62  62    24  30  30    22  28  28    52  58  58    60  66  66    54  60  60    23  30  30    25  31  31    73  78  78   115 119 120   158 162 163   117 121 122    42  46  47    51  55  56    62  66  67    34  40  40    75  81  81   169 175 175    58  64  64    27  36  35    23  32  30    28  37  36    22  31  30    22  31  30    50  59  58    86  95  94    71  80  79    44  53  52    49  58  57    44  53  52    55  64  63   117 126 125  
   0   0   0     0   0   0     0   0   0     0   0   0     0   0   0     0   0   0     0   0   0     0   0   0     0   0   0     0   0   0    33  39  39    61  67  67    82  88  88   145 151 151   109 115 115    11  17  17    22  28  28    34  40  40    25  31  31    31  37  37    28  34  34    26  32  32    26  32  32    23  29  29     7  14  14    45  51  51   100 106 106    89  93  94   117 121 122    80  84  85    28  32  33    65  69  70    37  41  42    11  17  17    41  47  47    80  86  86    37  43  43    16  24  23    15  24  23    22  31  30    12  21  20    18  27  26    67  76  75    66  75  74    30  39  38    32  41  40    35  44  43    32  41  40    66  75  74    94 103 102  
   0   0   0     0   0   0     0   0   0     0   0   0     0   0   0     0   0   0     0   0   0     0   0   0     0   0   0     0   0   0     0   0   0    87  91  92   118 122 123   147 151 152    37  41  42    24  28  29    25  29  30    35  39  40    30  34  35    30  34  35    34  38  39    25  29  30    18  22  23    16  20  21    39  43  44    98 102 103    94  98  99    84  90  90   117 123 123    39  45  45    77  83  83    50  56  56    25  31  31    35  40  40    20  24  25    29  33  34    24  30  30    25  31  31    22  28  28    23  29  29    26  33  33     0   0   0     0   0   0     0   0   0     0   0   0     0   0   0     0   0   0     0   0   0     0   0   0     0   0   0  
   0   0   0     0   0   0     0   0   0     0   0   0     0   0   0     0   0   0     0   0   0     0   0   0     0   0   0     0   0   0     0   0   0    96 100 101   139 143 144   111 115 116    33  37  38    26  30  31    40  44  45    41  45  46    22  26  27    35  39  40    36  40  41    28  32  33    29  33  34    69  73  74   111 115 116    90  94  95    66  70  71   130 136 136   129 135 135    37  44  44    47  53  53     0   0   0     0   0   0     0   0   0     0   0   0     0   0   0     0   0   0     0   0   0     0   0   0     0   0   0     0   0   0     0   0   0     0   0   0     0   0   0     0   0   0     0   0   0     0   0   0     0   0   0     0   0   0     0   0   0  
   0   0   0     0   0   0     0   0   0     0   0   0     0   0   0     0   0   0     0   0   0     0   0   0     0   0   0     0   0   0     0   0   0     0   0   0   153 157 158    60  63  65    23  27  28    20  24  25    51  55  56    51  55  56    24  28  29    23  27  28    25  29  30    29  33  34    90  94  95   121 123 124    69  70  72    37  41  42    66  70  71   129 135 135    70  78  78    37  46  45     0   0   0     0   0   0     0   0   0     0   0   0     0   0   0     0   0   0     0   0   0     0   0   0     0   0   0     0   0   0     0   0   0     0   0   0     0   0   0     0   0   0     0   0   0     0   0   0     0   0   0     0   0   0     0   0   0     0   0   0  
   0   0   0     0   0   0     0   0   0     0   0   0     0   0   0     0   0   0     0   0   0     0   0   0     0   0   0     0   0   0     0   0   0     0   0   0     0   0   0    46  50  51    33  37  38    12  16  17    40  44  45    37  41  42    30  34  35    30  34  35    31  35  36   112 116 117   119 123 124    55  57  59    24  25  26    36  40  41    69  73  74   113 119 119    44  52  51    31  40  39     0   0   0     0   0   0     0   0   0     0   0   0     0   0   0     0   0   0     0   0   0     0   0   0     0   0   0     0   0   0     0   0   0     0   0   0     0   0   0     0   0   0     0   0   0     0   0   0     0   0   0     0   0   0     0   0   0     0   0   0  
   0   0   0     0   0   0     0   0   0     0   0   0     0   0   0     0   0   0     0   0   0     0   0   0     0   0   0     0   0   0     0   0   0   126 130 131    98 102 103    33  37  38    36  40  41    30  34  35    43  47  48    31  35  36    27  31  32    60  64  65   114 118 119   148 152 153    70  74  75    12  14  16    42  43  45    53  57  58    96 101 101    99 105 105    43  51  50    36  46  45    27  37  36    40  48  48    41  47  47    29  34  34    29  34  34     0   0   0     0   0   0     0   0   0     0   0   0     0   0   0     0   0   0     0   0   0     0   0   0     0   0   0     0   0   0     0   0   0     0   0   0     0   0   0     0   0   0     0   0   0  
   0   0   0     0   0   0     0   0   0     0   0   0     0   0   0     0   0   0     0   0   0     0   0   0     0   0   0   109 115 115    67  71  72   135 139 140    67  71  72    46  50  51    35  39  40    36  40  41    30  34  35    43  47  48   114 118 119   131 135 136    70  74  75   120 124 125   132 134 136   102 103 105    59  60  62    70  73  75   149 153 154    69  77  76    43  53  52    47  57  56    37  47  46    45  55  54    36  44  43    41  46  47    43  47  48    37  38  40    45  46  47    45  49  48    53  57  56    59  64  63    38  42  41    36  40  39    39  43  42     0   0   0     0   0   0     0   0   0     0   0   0     0   0   0     0   0   0     0   0   0  
   0   0   0     0   0   0     0   0   0     0   0   0     0   0   0     0   0   0    52  57  58    72  78  78    79  87  87    87  94  94   136 140 141   112 114 116    53  54  56    52  53  55    39  40  42    60  61  63    71  72  74    88  89  91   100 101 103    81  82  84    35  36  38    39  40  42    91  92  94   119 120 122    86  87  89   149 153 154   148 153 153    53  60  60    66  76  74    48  58  57    55  65  64    51  60  59    40  47  47    47  52  52    51  55  56    36  37  39    39  41  42    38  42  41    39  43  42    40  44  43    42  46  45    43  47  45    42  46  45    51  55  54    50  54  53    64  67  67   100 104 103     0   0   0     0   0   0     0   0   0  
   0   0   0     0   0   0     0   0   0    76  77  79    50  54  55    59  63  64    57  62  63    56  62  62    79  87  86   132 138 138   168 172 173    62  63  65    57  58  60    71  72  74    61  62  64    85  86  88    98 102 103    67  71  72    42  46  47    37  41  42    52  56  57    47  51  52    43  46  46    48  48  48    99  97  97   215 215 215   110 113 112    52  57  55    51  58  56    56  64  62    53  62  59    51  59  56    59  65  63    55  59  58    69  71  70    62  62  62    39  40  40    40  43  41    41  46  42    36  41  37    52  57  53    52  57  53    54  59  55    55  60  56    52  57  53    76  81  77   101 106 102     0   0   0     0   0   0     0   0   0  
   0   0   0    98 104 104   133 139 139    92  98  97    82  88  86    99 105 103    97 103 101   103 109 107   110 116 114   155 162 160    98 102 101    62  64  63   107 109 108   126 130 128   105 109 108   109 113 112   102 108 106    93  99  97    79  85  83    94 100  96    86  93  88    92  98  94    78  82  79    71  67  66   179 171 171   163 158 158    67  64  63    98  97  95   123 125 122   105 107 104    93  98  94   109 113 109    93  95  92    60  61  59    42  41  40    66  65  63    70  70  65    75  77  72    72  74  69    85  87  82    91  93  88   100 102  97    97  99  94    72  74  69    69  71  66     0   0   0     0   0   0     0   0   0     0   0   0     0   0   0  
  58  64  64   145 151 151   115 121 121   112 118 117   160 165 163   158 165 163   149 155 153   140 146 144   150 156 153   156 161 158    54  56  55   114 116 115   144 146 145   121 125 124   140 144 143   155 161 159   121 127 125   140 147 145   174 183 179   155 164 159   143 152 147   161 170 165   100 105 101   138 135 132   196 189 186   118 113 110   100  96  93   154 151 148   175 176 171   172 174 169   174 179 173   153 157 151   148 150 145    51  53  48    49  50  45   107 106 102   123 124 119   176 179 173   179 182 175   167 170 163   174 177 170   174 177 170   173 176 169     0   0   0     0   0   0     0   0   0     0   0   0     0   0   0     0   0   0     0   0   0  
  29  33  34   150 153 155   103 107 108    75  79  79    91  95  94    89  92  92    68  72  70    91  96  92   148 153 149   104 109 105    91  93  92   123 126 125   100 104 103    65  69  68    99 103 102   124 129 127    87  93  91    66  72  68    89  95  91    79  85  81    92  97  94   103 110 106    99 103  99   188 188 186   171 167 166    48  47  45   100 101  98   121 125 121   107 113 109   114 120 116   125 131 127   114 121 117   119 125 121    45  51  47    87  92  88   106 108 105    92  95  89   128 133 127   137 142 136   122 127 121   129 134 128   130 135 129   129 134 128   123 128 122   158 163 157     0   0   0     0   0   0     0   0   0     0   0   0     0   0   0  
  17  21  22   141 145 146    80  84  85    41  45  44    38  42  41    46  50  49    40  45  43   117 122 118   143 148 144    78  83  79   127 129 128   116 118 117    71  75  74    43  48  47    53  57  56    55  59  58    44  48  46    41  46  42    36  41  38    58  63  59    71  76  72    49  54  50   117 120 117   178 178 176   100 100  98    19  22  19   108 111 108    74  79  75    31  39  34    36  47  41    90 102  95   123 134 128    70  80  75    44  53  48    97 104  99    69  75  71    55  61  56    45  50  44    50  55  49    54  59  54    51  56  50    56  61  55    53  58  52    92  97  91   123 128 122    74  79  73    46  51  45    61  66  60     0   0   0     0   0   0  
  27  29  28   147 149 148    74  76  75    39  41  39    49  51  48    39  41  38    66  68  65   135 137 134    86  88  84    55  56  51    81  86  82   107 112 108    74  79  75    39  42  39    44  46  43    43  45  42    38  40  37    59  62  59    52  57  53    63  68  65    47  51  47    68  70  67   156 158 155   149 153 149    52  57  53    31  37  33   117 124 120    63  73  68    29  40  34    24  37  30   107 120 113   131 144 137    49  61  55    76  88  81    96 107 101    50  61  55    38  46  42    45  50  46    40  45  42    46  51  47    40  45  41    35  40  36    48  53  49   107 112 108    88  93  89    40  45  42    41  46  42    57  62  58    60  65  61    57  62  58  
  63  65  64   159 161 160    69  71  70    45  47  44    48  50  47    54  56  53   106 108 105   108 110 107    62  64  60    50  52  47    47  52  47    71  76  72    55  60  56    36  39  36    39  41  38    47  49  46    59  59  57    81  81  79    69  69  67    63  63  61    29  29  27   108 110 107   180 182 179   131 135 131    45  51  47    36  45  40    92 101  96    62  72  67    53  64  58    36  49  42    40  53  46    73  86  79    58  70  64    83  95  88    50  61  55    50  61  55    43  50  46    48  53  49    42  47  43    36  41  37    42  47  43    32  37  33    72  77  73    91  96  92    42  47  43    34  39  35    56  61  57    60  65  61    57  62  58    32  37  32  
 134 134 132   148 148 146    51  51  49    48  49  45    62  63  58    96  97  92   119 120 115   103 104  99    88  89  84    55  57  52    50  55  49    56  61  54    62  67  60    61  65  58    49  50  45    44  45  40    54  53  49    55  54  50    51  50  46    54  55  50    73  73  71   162 162 160   174 175 172   102 106 103    53  59  55    39  45  41    65  71  67    64  71  67    71  80  75    58  69  63    41  52  46    42  53  47    45  55  49    58  68  63    44  53  48    54  63  58    49  54  50    52  56  52    51  53  50    42  44  41    53  55  52    54  56  53   102 104 101    88  90  87    71  73  70    93  95  92    86  88  85    55  57  54    52  53  50    56  58  55  
 165 164 162    95  94  92    56  55  53    85  84  80   124 123 119   116 115 111    58  57  53    96  95  91    90  89  85    66  67  61    51  55  47    77  82  75    76  80  73    52  53  47    48  47  42    55  54  50    59  55  52    61  57  54    58  54  51    22  21  17    94  93  91   173 173 171   120 120 118    66  67  64    67  72  68    50  55  51    55  60  56    55  60  56    57  62  58    53  58  54    66  71  67    70  75  71    54  59  55    52  57  53    69  74  70    52  57  53    64  66  63    65  67  64    62  64  61    59  61  58    57  59  56    70  72  69   104 106 103    93  95  92    81  83  80    69  71  68    67  69  66    71  73  70    61  64  60    50  52  49  
 154 153 149    97  96  92   101 100  96   127 126 122   122 121 117    92  91  86    93  92  87   122 121 116    88  87  82    63  62  57    48  51  42    57  60  51    50  52  43    60  61  53    70  68  61    65  60  57    70  65  61    74  69  65    74  69  66    56  52  49   134 133 129   149 149 144   103 104  99    66  66  63    70  70  68    61  61  58    50  50  48    54  53  51    51  50  48    58  58  56    49  49  46    56  56  54    35  34  32    38  37  35    47  46  44    49  48  46    52  52  49    51  52  47    48  49  44    62  63  58    51  52  47    80  81  76   111 112 107    93  94  89    81  83  78    57  58  53    62  63  58    65  66  61    63  64  59    66  67  62  
 125 121 118   149 145 142   195 191 188   161 157 154   186 182 179   197 194 189   208 205 200   181 178 173   164 161 156   169 165 159   160 162 151   155 157 146   165 166 157   198 196 189   212 208 202   208 200 197   206 196 194   202 193 190   206 200 197   188 183 180   185 182 178   150 150 146   126 127 122   169 169 165   180 176 175   184 180 179   183 178 177   177 171 171   182 176 176   178 172 172   162 156 156   144 138 138   117 111 111   116 110 110   138 132 132   153 147 147   149 146 143   149 148 144   139 138 134   142 141 137   113 112 108   104 103  99   110 109 105    87  86  82    86  85  81    86  85  81    93  92  88    87  86  82    88  87  83    92  93  88  
  98  93  90   198 193 190   222 217 213   202 197 193   223 218 214   214 209 203   210 205 199   185 180 174   196 191 185   209 206 199   211 211 200   200 199 187   218 215 205   239 233 224   231 222 215   225 216 211   226 217 212   216 207 202   235 227 223   233 229 225   168 168 163   122 122 118   125 126 121   199 197 193   215 210 206   221 216 213   225 219 215   222 213 210   228 218 217   227 216 214   243 233 231   227 217 215   216 205 203   211 200 198   227 217 215   235 227 224   223 216 213   224 222 216   228 228 219   243 243 235   215 215 207   169 169 161   146 146 138   161 161 153   180 180 172   196 196 189   208 208 200   198 198 190   198 198 190   191 190 185  
 124 119 116   215 210 207   216 211 207   210 205 202   213 208 204   213 208 202   186 181 176   176 171 165   180 175 169   198 194 185   188 186 174   193 191 179   217 212 201   217 208 200   201 190 184   214 203 199   226 215 211   203 193 189   221 213 209   222 219 214   133 133 128   112 114 109   108 110 105   152 150 145   188 183 179   198 190 187   196 188 185   204 194 192   209 195 194   221 207 206   215 201 200   220 206 205   222 208 207   212 200 198   213 202 200   205 195 193   199 192 186   201 196 190   203 198 192   225 220 214   223 218 212   200 195 189   199 194 188   206 201 195   206 201 195   219 214 208   234 229 223   228 223 217   225 220 214   198 195 188  
 153 145 142   229 221 218   226 219 213   219 212 206   203 196 190   192 185 179   197 190 183   193 186 178   183 176 168   209 202 194   179 175 163   193 186 174   211 202 191   212 200 191   215 202 194   234 221 215   240 227 222   212 200 196   225 216 213   205 202 197   119 120 115   124 127 122    95  99  93   105 106  98   160 158 149   192 187 178   191 183 175   201 192 185   212 201 195   224 211 205   212 197 192   218 204 198   211 198 192   204 192 186   206 195 189   183 175 168   197 189 182   212 205 196   206 198 188   210 203 193   211 203 193   196 189 179   202 195 185   205 198 188   198 191 181   203 196 186   215 208 198   213 206 196   214 207 197   185 181 172  
 164 157 154   239 231 227   206 199 193   216 209 203   210 203 197   166 159 153   200 193 187   169 162 154   175 168 160   230 223 213   190 184 172   191 182 170   193 182 172   207 192 185   227 212 205   226 211 206   221 206 202   217 205 201   224 215 212   176 173 168   116 117 112   122 127 121    97 103  96    83  86  76   127 125 115   180 177 168   184 179 171   189 181 173   214 203 197   213 200 194   214 201 195   213 200 194   204 192 186   207 196 190   213 204 197   173 164 157   182 173 164   195 186 177   199 190 181   201 192 183   194 185 176   185 176 167   181 172 163   187 178 169   194 185 176   198 189 180   201 192 183   199 190 181   207 199 190   196 189 179  
 167 157 155   224 214 211   204 195 190   206 197 192   219 210 205   201 192 185   208 199 192   127 118 111   154 145 138   238 229 221   188 180 169   196 186 174   196 185 173   214 201 191   232 215 207   219 203 196   219 204 200   242 229 226   224 215 211   150 146 141   127 130 125   108 115 108   123 131 123   101 105  95   117 119 105   154 155 141   163 160 148   168 163 151   192 185 174   197 187 177   212 202 192   208 198 188   212 203 193   216 207 197   222 215 204   176 170 158   174 168 156   187 178 167   192 182 171   180 170 158   165 155 143   173 163 151   171 161 149   170 160 148   186 176 164   187 177 164   183 173 161   181 171 159   190 180 168   188 180 169  
 183 175 172   217 209 206   221 214 208   222 215 209   210 203 197   206 199 193   178 171 165   112 105  99   158 151 145   228 221 213   179 170 160   206 196 186   209 199 189   212 200 191   204 191 183   191 178 170   206 194 188   231 221 216   187 181 176   106 103  98   127 128 122    92  95  89   151 156 150   132 138 127   136 140 126   133 135 122   141 140 128   157 154 142   168 162 152   193 185 176   212 203 194   205 195 186   218 208 199   209 200 191   216 207 198   185 176 167   168 159 150   151 143 132   176 168 156   173 165 154   161 153 141   173 165 154   162 154 143   162 154 143   183 175 164   175 167 156   170 161 151   171 163 152   173 165 154   170 162 151  
   0   0   0     0   0   0     0   0   0     0   0   0     0   0   0     0   0   0     0   0   0     0   0   0     0   0   0     0   0   0     0   0   0     0   0   0     0   0   0     0   0   0   189 182 174   176 171 163   198 193 187   227 223 216   167 164 157   136 133 126   105 102  95   142 139 132   176 174 167   147 149 140   126 129 120   135 138 129   139 141 133   155 156 148   167 164 157   183 178 172   186 176 172   195 184 180   203 191 187   234 220 217   214 200 197     0   0   0     0   0   0     0   0   0     0   0   0     0   0   0     0   0   0     0   0   0     0   0   0     0   0   0     0   0   0     0   0   0     0   0   0     0   0   0     0   0   0     0   0   0  
   0   0   0     0   0   0     0   0   0     0   0   0     0   0   0     0   0   0     0   0   0     0   0   0     0   0   0     0   0   0     0   0   0     0   0   0     0   0   0     0   0   0   172 169 162   155 155 147   180 180 172   197 197 189   137 135 128   148 145 138   117 112 106   186 179 173   173 167 161   153 152 147   140 143 136   146 149 142   145 146 140   151 151 145   144 142 137   149 145 141   171 163 160   195 184 182   191 179 177   210 195 195   226 210 210     0   0   0     0   0   0     0   0   0     0   0   0     0   0   0     0   0   0     0   0   0     0   0   0     0   0   0     0   0   0     0   0   0     0   0   0     0   0   0     0   0   0     0   0   0  
   0   0   0     0   0   0     0   0   0     0   0   0     0   0   0     0   0   0     0   0   0     0   0   0     0   0   0     0   0   0     0   0   0     0   0   0     0   0   0     0   0   0     0   0   0   151 151 143   175 175 167   162 162 154   110 108 100   140 137 130   126 121 115   202 195 189   165 159 153   161 159 154   154 155 149   149 150 144   135 136 130   139 139 133   141 138 133   149 144 140   167 159 156   200 190 188   208 197 195   213 199 198     0   0   0     0   0   0     0   0   0     0   0   0     0   0   0     0   0   0     0   0   0     0   0   0     0   0   0     0   0   0     0   0   0     0   0   0     0   0   0     0   0   0     0   0   0     0   0   0  
   0   0   0     0   0   0     0   0   0     0   0   0     0   0   0     0   0   0     0   0   0     0   0   0     0   0   0     0   0   0     0   0   0     0   0   0     0   0   0     0   0   0     0   0   0   167 164 157   187 187 179   152 150 143   129 126 119   114 109 103   134 127 121   173 164 159   153 145 140   162 157 152   159 158 153   161 160 155   150 149 144   156 154 149   182 178 173   187 182 178   164 156 153   174 166 163   209 198 196   204 193 191     0   0   0     0   0   0     0   0   0     0   0   0     0   0   0     0   0   0     0   0   0     0   0   0     0   0   0     0   0   0     0   0   0     0   0   0     0   0   0     0   0   0     0   0   0     0   0   0  
   0   0   0     0   0   0     0   0   0     0   0   0     0   0   0     0   0   0     0   0   0     0   0   0     0   0   0     0   0   0     0   0   0     0   0   0     0   0   0     0   0   0     0   0   0   168 165 160   179 176 171   130 127 122   161 158 153    98  93  89   163 155 152   182 172 170   184 174 172   168 161 158   157 156 151   185 184 179   191 188 183   193 189 184   224 219 215   205 200 196   202 194 191   172 163 161   202 193 190   179 169 167     0   0   0     0   0   0     0   0   0     0   0   0     0   0   0     0   0   0     0   0   0     0   0   0     0   0   0     0   0   0     0   0   0     0   0   0     0   0   0     0   0   0     0   0   0     0   0   0  
   0   0   0     0   0   0     0   0   0     0   0   0     0   0   0     0   0   0     0   0   0     0   0   0     0   0   0     0   0   0     0   0   0     0   0   0     0   0   0     0   0   0     0   0   0     0   0   0   154 151 146   124 120 115   185 180 176   116 108 105   195 185 183   215 205 203   220 209 207   180 174 170   161 156 152   186 181 177   194 189 185   199 194 190   227 222 218   188 183 179   205 197 194   177 169 166   203 195 192     0   0   0     0   0   0     0   0   0     0   0   0     0   0   0     0   0   0     0   0   0     0   0   0     0   0   0     0   0   0     0   0   0     0   0   0     0   0   0     0   0   0     0   0   0     0   0   0     0   0   0  
   0   0   0     0   0   0     0   0   0     0   0   0     0   0   0     0   0   0     0   0   0     0   0   0     0   0   0     0   0   0     0   0   0     0   0   0     0   0   0     0   0   0     0   0   0     0   0   0   143 138 135   156 151 147   187 182 178   143 135 132   198 188 185   206 196 193   217 206 204   186 178 175   166 161 157   159 154 150   169 161 158   192 184 181   214 206 203   170 162 159   147 142 138   162 157 153   199 194 190     0   0   0     0   0   0     0   0   0     0   0   0     0   0   0     0   0   0     0   0   0     0   0   0     0   0   0     0   0   0     0   0   0     0   0   0     0   0   0     0   0   0     0   0   0     0   0   0     0   0   0  
   0   0   0     0   0   0     0   0   0     0   0   0     0   0   0     0   0   0     0   0   0     0   0   0     0   0   0     0   0   0     0   0   0     0   0   0     0   0   0     0   0   0     0   0   0     0   0   0   139 134 130   162 157 153   155 148 144   149 141 138   188 178 176   190 180 178   228 217 215   190 180 178   175 167 164   147 139 136   158 150 147   199 191 188   210 202 199   163 155 152   151 146 142   188 183 179   220 215 211     0   0   0     0   0   0     0   0   0     0   0   0     0   0   0     0   0   0     0   0   0     0   0   0     0   0   0     0   0   0     0   0   0     0   0   0     0   0   0     0   0   0     0   0   0     0   0   0     0   0   0  
   0   0   0     0   0   0     0   0   0     0   0   0     0   0   0     0   0   0     0   0   0     0   0   0     0   0   0     0   0   0     0   0   0     0   0   0     0   0   0     0   0   0     0   0   0     0   0   0     0   0   0   173 169 166   190 185 182   149 142 140   184 174 173   179 169 168   212 200 200   191 180 179   171 161 159   155 145 143   161 151 149   204 196 193   152 143 141   179 171 168   180 175 171   210 205 201     0   0   0     0   0   0     0   0   0     0   0   0     0   0   0     0   0   0     0   0   0     0   0   0     0   0   0     0   0   0     0   0   0     0   0   0     0   0   0     0   0   0     0   0   0     0   0   0     0   0   0     0   0   0  
   0   0   0     0   0   0     0   0   0     0   0   0     0   0   0     0   0   0     0   0   0     0   0   0     0   0   0     0   0   0     0   0   0     0   0   0     0   0   0     0   0   0     0   0   0     0   0   0     0   0   0   157 153 150   209 205 201   160 155 152   168 160 158   196 186 185   204 194 193   198 188 187   197 187 185   147 137 135   172 163 161   210 202 199   143 135 132   144 136 133   190 185 181   219 214 210     0   0   0     0   0   0     0   0   0     0   0   0     0   0   0     0   0   0     0   0   0     0   0   0     0   0   0     0   0   0     0   0   0     0   0   0     0   0   0     0   0   0     0   0   0     0   0   0     0   0   0     0   0   0  
   0   0   0     0   0   0     0   0   0     0   0   0     0   0   0     0   0   0     0   0   0     0   0   0     0   0   0     0   0   0     0   0   0     0   0   0     0   0   0     0   0   0     0   0   0     0   0   0     0   0   0   126 125 121   214 211 208   175 170 167    97  92  89   178 170 168   217 209 207   203 195 192   200 192 189   143 135 132   190 182 179   213 205 202   168 160 157   150 142 139   196 191 187   229 224 220     0   0   0     0   0   0     0   0   0     0   0   0     0   0   0     0   0   0     0   0   0     0   0   0     0   0   0     0   0   0     0   0   0     0   0   0     0   0   0     0   0   0     0   0   0     0   0   0     0   0   0     0   0   0  
   0   0   0     0   0   0     0   0   0     0   0   0     0   0   0     0   0   0     0   0   0     0   0   0     0   0   0     0   0   0     0   0   0     0   0   0     0   0   0     0   0   0     0   0   0     0   0   0     0   0   0   135 134 130   204 203 199   197 193 191   123 119 116   186 180 177   211 203 201   202 194 191   191 183 180   169 161 158   210 202 199   209 201 198   206 198 195   193 185 182   187 182 178   232 227 223     0   0   0     0   0   0     0   0   0     0   0   0     0   0   0     0   0   0     0   0   0     0   0   0     0   0   0     0   0   0     0   0   0     0   0   0     0   0   0     0   0   0     0   0   0     0   0   0     0   0   0     0   0   0  
   0   0   0     0   0   0     0   0   0     0   0   0     0   0   0     0   0   0     0   0   0     0   0   0     0   0   0     0   0   0     0   0   0     0   0   0     0   0   0     0   0   0     0   0   0     0   0   0     0   0   0     0   0   0   203 204 199   203 202 198   182 178 175   197 193 190   207 202 199   210 205 201   194 189 185   201 196 192   214 209 205   205 200 196   209 204 200   214 209 205   173 165 162     0   0   0     0   0   0     0   0   0     0   0   0     0   0   0     0   0   0     0   0   0     0   0   0     0   0   0     0   0   0     0   0   0     0   0   0     0   0   0     0   0   0     0   0   0     0   0   0     0   0   0     0   0   0     0   0   0  
   0   0   0     0   0   0     0   0   0     0   0   0     0   0   0     0   0   0     0   0   0     0   0   0     0   0   0     0   0   0     0   0   0     0   0   0     0   0   0     0   0   0     0   0   0     0   0   0     0   0   0     0   0   0   159 161 156   181 182 177   163 162 158   188 184 181   197 192 189   189 184 181   189 184 180   198 193 189   196 191 187   201 196 192   186 181 177   205 200 196   194 186 183     0   0   0     0   0   0     0   0   0     0   0   0     0   0   0     0   0   0     0   0   0     0   0   0     0   0   0     0   0   0     0   0   0     0   0   0     0   0   0     0   0   0     0   0   0     0   0   0     0   0   0     0   0   0     0   0   0  
   0   0   0     0   0   0     0   0   0     0   0   0     0   0   0     0   0   0     0   0   0     0   0   0     0   0   0     0   0   0     0   0   0     0   0   0     0   0   0     0   0   0     0   0   0     0   0   0     0   0   0     0   0   0   111 113 110   157 157 155   160 160 158   178 177 175   150 147 145   134 131 127   161 158 153   167 164 159   158 155 150   170 165 161   153 148 144   173 168 164   202 194 191     0   0   0     0   0   0     0   0   0     0   0   0     0   0   0     0   0   0     0   0   0     0   0   0     0   0   0     0   0   0     0   0   0     0   0   0     0   0   0     0   0   0     0   0   0     0   0   0     0   0   0     0   0   0     0   0   0  
   0   0   0     0   0   0     0   0   0     0   0   0     0   0   0     0   0   0     0   0   0     0   0   0     0   0   0     0   0   0     0   0   0     0   0   0     0   0   0     0   0   0     0   0   0     0   0   0     0   0   0     0   0   0     0   0   0   142 147 143   171 172 170   149 150 147   133 133 131   113 114 110   140 139 135   143 142 138   128 127 123   123 122 118   121 120 116   134 131 128     0   0   0     0   0   0     0   0   0     0   0   0     0   0   0     0   0   0     0   0   0     0   0   0     0   0   0     0   0   0     0   0   0     0   0   0     0   0   0     0   0   0     0   0   0     0   0   0     0   0   0     0   0   0     0   0   0     0   0   0  
   0   0   0     0   0   0     0   0   0     0   0   0     0   0   0     0   0   0     0   0   0     0   0   0     0   0   0     0   0   0     0   0   0     0   0   0     0   0   0     0   0   0     0   0   0     0   0   0     0   0   0     0   0   0     0   0   0   121 130 127   108 117 112   116 124 119   140 146 142   130 136 132    98 105 100    97 102  98    90  95  91    85  90  86    86  91  86    87  89  86     0   0   0     0   0   0     0   0   0     0   0   0     0   0   0     0   0   0     0   0   0     0   0   0     0   0   0     0   0   0     0   0   0     0   0   0     0   0   0     0   0   0     0   0   0     0   0   0     0   0   0     0   0   0     0   0   0     0   0   0  
   0   0   0     0   0   0     0   0   0     0   0   0     0   0   0     0   0   0     0   0   0     0   0   0     0   0   0     0   0   0     0   0   0     0   0   0     0   0   0     0   0   0     0   0   0     0   0   0     0   0   0     0   0   0     0   0   0     0   0   0   131 142 136   149 159 154   152 161 156   129 138 134    88  97  94    79  87  84    71  80  77    68  77  74    83  90  87     0   0   0     0   0   0     0   0   0     0   0   0     0   0   0     0   0   0     0   0   0     0   0   0     0   0   0     0   0   0     0   0   0     0   0   0     0   0   0     0   0   0     0   0   0     0   0   0     0   0   0     0   0   0     0   0   0     0   0   0     0   0   0  
   0   0   0     0   0   0     0   0   0     0   0   0     0   0   0     0   0   0     0   0   0     0   0   0     0   0   0     0   0   0     0   0   0     0   0   0     0   0   0     0   0   0     0   0   0     0   0   0     0   0   0     0   0   0     0   0   0     0   0   0     0   0   0   141 150 145   124 133 128   145 152 149    99 105 103    80  85  84    86  92  90    89  95  93     0   0   0     0   0   0     0   0   0     0   0   0     0   0   0     0   0   0     0   0   0     0   0   0     0   0   0     0   0   0     0   0   0     0   0   0     0   0   0     0   0   0     0   0   0     0   0   0     0   0   0     0   0   0     0   0   0     0   0   0     0   0   0     0   0   0  
   0   0   0     0   0   0     0   0   0     0   0   0     0   0   0     0   0   0     0   0   0     0   0   0     0   0   0     0   0   0     0   0   0     0   0   0     0   0   0     0   0   0     0   0   0     0   0   0     0   0   0     0   0   0     0   0   0     0   0   0     0   0   0     0   0   0     0   0   0   152 158 155   105 110 109    83  89  87     0   0   0     0   0   0     0   0   0     0   0   0     0   0   0     0   0   0     0   0   0     0   0   0     0   0   0     0   0   0     0   0   0     0   0   0     0   0   0     0   0   0     0   0   0     0   0   0     0   0   0     0   0   0     0   0   0     0   0   0     0   0   0     0   0   0     0   0   0     0   0   0  
   0   0   0     0   0   0     0   0   0     0   0   0     0   0   0     0   0   0     0   0   0     0   0   0     0   0   0     0   0   0     0   0   0     0   0   0     0   0   0     0   0   0     0   0   0     0   0   0     0   0   0     0   0   0     0   0   0     0   0   0     0   0   0     0   0   0     0   0   0     0   0   0    88  93  89     0   0   0     0   0   0     0   0   0     0   0   0     0   0   0     0   0   0     0   0   0     0   0   0     0   0   0     0   0   0     0   0   0     0   0   0     0   0   0     0   0   0     0   0   0     0   0   0     0   0   0     0   0   0     0   0   0     0   0   0     0   0   0     0   0   0     0   0   0     0   0   0     0   0   0  
