P3
50 50
255
  20  22  19    21  23  20    22  24  21    20  21  18    15  17  14    10  12   9     8  10   7    10  12   9    12  14  11    14  16  13    11  13  10    10  12   9    15  17  14    16  18  16    12  14  11    14  16  13    14  16  13    13  15  12     0   0   0     0   0   0     0   0   0     0   0   0     0   0   0     0   0   0     0   0   0     0   0   0     0   0   0     0   0   0     0   0   0     0   0   0     0   0   0     0   0   0     0   0   0     0   0   0     0   0   0     0   0   0    10  12   9    11  13  10    11  13  10    10  12   9     8  10   9    10  11  11    12  14  13    11  13  12    10  12  11    10  12  11    10  12  11     8  10   9     6   8   7     6   8   7  
  17  19  16    18  20  17    18  20  17    15  17  14    10  12   9     8  10   7     8  10   7     9  11   8     9  10   8    12  14  11    11  13   9     9  11   8    16  18  15    15  17  14    10  12   9    13  15  12    15  17  14    14  16  13     0   0   0     0   0   0     0   0   0     0   0   0     0   0   0     0   0   0     0   0   0     0   0   0     0   0   0     0   0   0     0   0   0     0   0   0     0   0   0     0   0   0     0   0   0     0   0   0     0   0   0     8  10   7     7   9   6     7   9   6     7   9   6     6   8   5     9  11  10    10  12  11    11  13  12    10  12  11     9  11  10     9  11  10     9  11  10    11  13  12    10  11  11     7   9   8  
  11  13  10    12  14  11    12  14  11    11  13  10    12  14  11    15  17  14    16  18  15    11  13  10     7  10   6     9  11   8    10  12   9    11  12  10    14  16  13    12  14  11     9  11   8    13  15  12    14  16  13    13  15  12     0   0   0     0   0   0     0   0   0     0   0   0     0   0   0     0   0   0     0   0   0     0   0   0     0   0   0     0   0   0     0   0   0     0   0   0     0   0   0     0   0   0     0   0   0     0   0   0     0   0   0     9  11   8     8  10   7     7   9   6     6   8   5     6   8   5    11  13  12    11  13  12    11  13  12    10  12  11     9  11  10     7   9   8     8  10   9    12  14  13    11  13  12     8  10   9  
   5   7   4     7  10   6    10  12   9    11  13  10    15  17  14    23  25  22    25  27  24    17  19  16    13  15  12     8  10   7     8  10   7    11  13  11    13  15  12    11  12  10    10  12   9    14  16  13    15  17  14    12  14  11     0   0   0     0   0   0     0   0   0     0   0   0     0   0   0     0   0   0     0   0   0     0   0   0     0   0   0     0   0   0     0   0   0     0   0   0     0   0   0     0   0   0     0   0   0     0   0   0    11  13  10    12  14  11    11  13  10    10  12   9     9  11   8    10  12   9    11  13  12    10  12  11    10  12  11    10  12  11    10  12  11     8  10   9     6   8   7     9  11  10    10  12  11     8  10   9  
   6   8   5     9  11   8    11  13  10    11  13  10    13  15  12    18  20  17    22  24  20    24  26  23    24  26  23    12  14  11     6   8   5    12  14  11    13  15  12    11  13  10    12  14  11    18  20  17    15  18  14    10  12   9     0   0   0     0   0   0     0   0   0     0   0   0     0   0   0     0   0   0     0   0   0     0   0   0     0   0   0     0   0   0     0   0   0     0   0   0     0   0   0     0   0   0     0   0   0     0   0   0    11  13   9    13  15  12    12  14  11    11  13  10    10  13  10    12  14  11     9  11  10     8  10   9     9  11  10    11  13  12    12  14  13    11  13  12     8  10   9     8  10   9    10  12  10     9  11  10  
   9  11  10    12  15  11    13  15  12     9  11   8     5   7   4     6   8   5    12  14  11    28  30  27    32  35  31    16  18  15     5   6   3    12  14  11    14  16  13    11  15  11    12  17  13    18  23  19    14  19  15     8  12   8     0   0   0     0   0   0     0   0   0     0   0   0     0   0   0     0   0   0     0   0   0     0   0   0     0   0   0     0   0   0     0   0   0     0   0   0     0   0   0     0   0   0     0   0   0     6   7   5     8   9   7    11  13  10    10  13  10    10  12   9    10  12   9    11  13  12     6   8   7     6   8   7     8  10   9    12  14  13    14  16  15    13  15  14    11  13  12    10  12  11    12  14  13    10  12  11  
  15  19  18     9  13  14    12  16  17    13  17  18     9  13  14     1   2   3    10  14  15    19  23  24    35  39  40    21  25  26    21  25  26    12  16  17    14  18  18    11  17  15     9  15  13    16  22  20    18  23  22    13  17  16     0   0   0     0   0   0     0   0   0     0   0   0     0   0   0     0   0   0     0   0   0     0   0   0     0   0   0     0   0   0     0   0   0     0   0   0     0   0   0     0   0   0     0   0   0     8  10  11     8   9  11    12  13  15    17  18  20    14  14  16    11  11  13    14  15  17    16  17  19     9  13  14     3   7   8    10  14  15     5   9  10     8  12  13     6  10  11     7  11  12    12  16  17    13  17  18  
   6  10  11    17  21  22    35  39  40    22  26  27    19  24  24    23  27  28     2   4   5    12  16  17    39  43  44    45  49  50    31  35  36     6  10  11    14  18  19    10  15  14     8  17  14    21  27  25    23  28  27    15  21  19     0   0   0     0   0   0     0   0   0     0   0   0     0   0   0     0   0   0     0   0   0     0   0   0     0   0   0     0   0   0     0   0   0     0   0   0     0   0   0     0   0   0     9  13  14    13  15  16    11  12  14    10  11  13    11  11  13    12  12  14    11  11  12     6   7   9    20  24  25    34  39  39    46  50  51    15  19  20     9  12  14     7  11  12     3   7   8     6  10  11     9  13  14    10  14  15  
  16  20  21    27  31  32    58  62  63    34  38  39    26  30  31    42  46  47    11  15  16    18  22  23    28  32  33    36  40  41    19  22  23     1   3   4     7  11  12     8  13  12    12  18  16    25  29  28    23  27  26    14  18  17    13  17  16     0   0   0     0   0   0     0   0   0     0   0   0     0   0   0     0   0   0     0   0   0     0   0   0     0   0   0     0   0   0     0   0   0     0   0   0     0   0   0     1   4   5     9  11  12    18  19  21    17  18  20     8   9  11     7   8  10    10  10  13     7   7   9    28  29  31    40  43  45    70  74  75    18  22  23     9  13  14     6  10  11     7  11  12    11  15  16    12  16  17    14  18  19  
  19  25  25    12  16  17    39  43  44    27  31  32    23  27  28    17  21  22    17  21  22    24  28  29    18  22  23    13  17  18     9  13  14    15  19  20    20  24  25    11  15  15    17  21  20    24  27  27    17  21  20     8  12  11     9  13  12     0   0   0     0   0   0     0   0   0     0   0   0     0   0   0     0   0   0     0   0   0     0   0   0     0   0   0     0   0   0     0   0   0     0   0   0     0   0   0    29  33  34     8  10  12    21  22  24    25  26  28     9  10  12     3   4   6    10  10  13    13  14  16    24  28  29    17  21  22    47  51  52    20  24  25     4   8   9     5   9  10    13  17  18    12  16  17    13  17  18    17  21  22  
  20  26  26     5  11  11    15  21  21    34  40  40    56  62  62     1   6   6    13  19  19    23  29  29    37  43  43    19  25  25    16  22  22    45  51  51    52  57  57    16  20  20    17  19  18    24  25  24    18  19  18     9  11  10     5   9   8     0   0   0     0   0   0     0   0   0     0   0   0     0   0   0     0   0   0     0   0   0     0   0   0     0   0   0     0   0   0     0   0   0     0   0   0    80  85  85    95  99 100    15  17  18     9  13  14    16  17  19     8   8  10     3   4   6     7   8  10    12  13  14    12  16  17     7  11  12    19  23  24    22  26  27     5   9  10     6  10  11    10  14  15     8  12  13    10  14  15    12  16  17  
   0   0   0     0   0   0    12  18  18    49  55  55    97 103 103    22  28  28    18  24  24    36  42  42    64  71  71    29  35  35     7  13  13    36  42  42    58  63  63    17  20  19    13  15  14    21  23  22    21  23  22    15  17  16     5   8   7     0   0   0     0   0   0     0   0   0     0   0   0     0   0   0     0   0   0     0   0   0     0   0   0     0   0   0     0   0   0     0   0   0     0   0   0   142 147 148   132 136 137    20  22  23     1   1   2     2   3   5    11  12  15    11  12  14     6   7  10     9   9  12     6  10  11    19  23  24    15  19  20    26  30  31    16  19  21     7  11  12     6  10  11    14  18  19    15  19  20    11  15  16  
   0   0   0     0   0   0     0   0   0     0   0   0    65  70  73    49  54  57    35  40  43    35  40  43    50  55  58    24  29  32     9  14  18    14  19  22    30  35  38    12  14  16    12  12  14    16  16  18    19  19  21    20  21  23    11  14  15     0   0   0     0   0   0     0   0   0     0   0   0     0   0   0     0   0   0     0   0   0     0   0   0     0   0   0     0   0   0     0   0   0    68  74  74   119 126 126    95 101 101    15  20  20     1   1   2     9  13  14    30  33  34    22  23  25    11  12  15    24  25  27    16  20  21    18  22  23    16  20  21    30  34  35    29  33  34     3   7   8     9  13  14    18  22  23    19  23  24    10  14  15  
   0   0   0     0   0   0     0   0   0     0   0   0     0   0   0     0   0   0    59  64  66     8  13  16    12  17  21    22  27  30    41  46  49    19  24  27     9  14  17     9  12  14    14  15  17     9   9  11    11  12  14    21  22  24    18  21  23     0   0   0     0   0   0     0   0   0     0   0   0    27  36  35     0   0   0     0   0   0     0   0   0     0   0   0     0   0   0     0   0   0    38  44  44    27  33  33    16  22  22     6  11  11     5   9  10    31  35  36    53  56  57    31  32  34    18  19  21    48  49  51    32  36  37     2   6   7    11  15  16    31  35  36    37  41  42     2   3   4    15  19  20    11  15  16    12  16  17     1   5   6  
   0   0   0     0   0   0     0   0   0     0   0   0     0   0   0     0   0   0     0   0   0     0   0   0    21  29  31    29  37  39    44  52  54    12  19  21     6  11  14    12  14  16     7   8  10    12  13  15    13  14  16    14  16  18    39  43  44     0   0   0     0   0   0     0   0   0    30  39  38    39  48  48    19  29  28     0   0   0     0   0   0     0   0   0     0   0   0    76  85  84    39  47  46     3   7   6     9  15  15    10  16  16    63  69  69    51  55  56    10  14  15     4   6   7    12  15  16    18  22  23    13  17  18    12  16  17     9  13  14    11  15  16    16  19  21    23  27  28    27  31  32    15  19  20    13  17  18     7  11  12  
   0   0   0     0   0   0     0   0   0     0   0   0     0   0   0     0   0   0     0   0   0     0   0   0     0   0   0     0   0   0    22  30  32    13  21  23    72  78  81    72  76  78    11  13  15     1   2   4     5   9  10    18  22  23    19  23  24     0   0   0     0   0   0     3   7   7    28  37  36    26  35  34     2  10   9    26  36  35     0   0   0     0   0   0     0   0   0   124 133 132    69  78  77     4  11  10     4   9   9    32  38  38    65  71  71    13  17  18     7   9  10    20  24  25    10  14  15    11  14  16    13  17  18    14  18  19    11  15  16    14  18  19    21  25  26    28  32  33    26  30  31     6  10  11     8  12  13    14  17  19  
   0   0   0     0   0   0     0   0   0     0   0   0     0   0   0     0   0   0     0   0   0     0   0   0     0   0   0     0   0   0     0   0   0     0   0   0   138 144 147   106 110 114    19  23  26     6  10  13     9  14  17    10  15  18     9  14  17     0   0   0    35  40  43    33  39  42    20  28  30    41  49  51    26  34  36    18  26  28    61  69  71     0   0   0    68  77  76    82  91  90    40  49  48     6  15  14     5  13  12    33  40  40    37  43  43     2   8   8    18  23  24    21  25  26    11  15  16    10  14  15     5   9  10     7  11  12     2   6   7     4   8   9    13  17  18    17  21  22    15  19  20     7  11  12     9  13  14    17  21  22  
   0   0   0     0   0   0     0   0   0     0   0   0     0   0   0     0   0   0     0   0   0     0   0   0     0   0   0     0   0   0     0   0   0     0   0   0     0   0   0    82  88  91    18  23  26    14  19  22     9  14  18    11  16  19    28  33  36    42  47  50   109 114 117    98 103 106    38  46  48   104 112 114   111 119 121    35  43  45    67  75  76    45  55  54    16  25  24    17  25  24     1   9   8     4  13  12     4  13  12    10  17  17     4  10  10     4   6   6    38  44  44    17  19  20     1   2   3    12  15  16    12  16  17    15  19  20     6  10  11     5   9  10    13  17  18    14  18  19     9  13  14     2   6   7     3   7   8     7  11  12  
   0   0   0     0   0   0     0   0   0     0   0   0     0   0   0     0   0   0     0   0   0     0   0   0     0   0   0     0   0   0     0   0   0     0   0   0   125 135 137    89  98 100    31  39  41    53  61  63    19  27  29    48  56  58    62  70  72    20  28  30   107 112 115    67  72  76    21  26  29    55  60  63    74  79  82    32  37  40    22  31  32     7  16  15     7  16  15     1   8   7     1   4   3     3  13  12    15  24  23    16  23  23    13  19  19    18  24  24    73  79  79    34  40  40     2   5   5    20  23  24    13  17  18    14  18  19     5   9  10     4   8   9    10  14  15    12  16  17    16  20  21    27  31  32     0   0   0     0   0   0  
   0   0   0     0   0   0     0   0   0     0   0   0     0   0   0     0   0   0     0   0   0     0   0   0     0   0   0     0   0   0     0   0   0    40  50  52   122 132 134    87  97  99    43  53  54   105 115 116    30  38  40    60  68  70    58  66  68     8  16  18     1   1   4     1   6   9     4   9  12     3   8  11     3   8  11     2   6   9     1   3   5    19  27  26    44  54  53     9  19  18    18  27  26    11  20  19    15  24  23    21  28  27    10  16  16    74  80  80   125 130 130    28  34  34    10  15  15    10  14  15     6  10  11     5   9  10     1   4   5     1   4   5     0   0   0     0   0   0     0   0   0     0   0   0     0   0   0     0   0   0  
   0   0   0     0   0   0     0   0   0     0   0   0     0   0   0     0   0   0     0   0   0     0   0   0     0   0   0     0   0   0    90 100 102    26  36  38    45  55  57    23  35  35    26  38  38    78  90  90    21  31  32    33  43  44    22  30  32     2  10  12     5  10  14     9  14  18     2   7  10     8  12  15    13  17  20     7  11  14     5  11  13    26  35  34    54  64  63    24  34  33    42  52  51    11  21  20     1   6   5     6  13  12     1   6   5    83  89  89   122 128 128    11  15  15     9  14  14     1   4   4    14  19  19     0   0   0     0   0   0     0   0   0     0   0   0     0   0   0     0   0   0     0   0   0     0   0   0     0   0   0  
   0   0   0     0   0   0     0   0   0     0   0   0     0   0   0     0   0   0     0   0   0     0   0   0     0   0   0    52  62  64    49  59  61    15  23  25     7  13  15     1   3   4    22  32  33    17  27  28    24  33  35    35  43  45    24  30  33     8  13  16     8  12  15     8  12  15    10  14  17     5   9  12     6   9  13     7  11  14     1   6   7    13  22  21    29  38  37    16  25  24    22  30  29     2   7   6    10  19  18    21  30  29    35  41  41    46  52  52    83  89  89    18  24  24     4  10  10    27  32  32    14  18  19     9  13  14     7  11  12     0   0   0     0   0   0     0   0   0     0   0   0     0   0   0     0   0   0     0   0   0  
   0   0   0     0   0   0     0   0   0     0   0   0     0   0   0     0   0   0     0   0   0     0   0   0    50  58  61     2   5   8    28  35  39    30  35  39    29  34  38     8  13  16    32  40  40    56  62  62    50  55  55    40  43  44    11  11  13    18  18  20    12  12  14    15  15  17     6   7   9    12  15  16    15  19  20    11  17  17     6  12  13     6  11  14    11  15  18    27  32  35    15  20  23     9  14  17    15  19  22    41  45  48    52  56  59    36  40  43    44  48  51    17  20  23    19  22  25    84  88  90    30  34  35     7  11  10    20  24  23     6  11  10     4   9   7     0   0   0     0   0   0     0   0   0     0   0   0     0   0   0  
   0   0   0     0   0   0     0   0   0     0   0   0     0   0   0     0   0   0     0   0   0    69  79  81    62  70  73    11  19  22     6  11  15    20  24  29    67  70  75    82  86  90    77  83  83    65  69  70    29  32  34    10  11  13    16  16  18     3   2   4     6   4   7     9   9  10    11  12  14    13  16  18     5   9  10     8  14  14    17  23  24    20  24  27    18  22  25    28  32  35    12  16  19    12  16  19    19  23  26    26  30  33    43  47  50    48  52  55    33  37  40    19  23  26    22  25  28    32  36  39    22  26  27    10  14  13    19  23  22     7  11  10     8  12  11     6  10   9     0   0   0     0   0   0     0   0   0     0   0   0  
   0   0   0     0   0   0     0   0   0     0   0   0     0   0   0     0   0   0     0   0   0    85  95  97    89  98 101    14  22  25     3   4   8    30  34  39    60  63  68   117 121 125   129 134 137    47  51  54     1   4   7     5   5   9    11  10  15     4   3   8    14  14  19    11  11  16    15  15  19    12  16  19     9  13  16    11  16  19    14  19  22    16  20  23     8  12  15    12  16  19     6  10  13    41  45  48    85  89  92    36  40  43     4   8  11    28  32  35    33  37  40    16  20  23    14  18  21    15  19  22     9  15  15    11  17  17    16  22  22     7  13  13     9  14  14     4  10  10     0   0   0     0   0   0     0   0   0     0   0   0  
   0   0   0     0   0   0     0   0   0     0   0   0     0   0   0     0   0   0     0   0   0     0   0   0    27  35  38     2   6   9    13  18  22    17  21  25    60  63  68   151 156 159   145 150 153    27  31  34     6   8  11    16  18  22    10  11  15     7   6  11     8   7  12     5   6  10     8  11  14     1   5   8    13  16  19    13  18  21     2   7  10     5   9  12     2   6   8     4   7  10     3   4   7    49  53  56   113 117 120    57  61  64     6  10  13    27  31  34    49  53  56    16  20  23    17  21  24    16  20  24     6  12  12    10  16  16     0   0   0     0   0   0     0   0   0     0   0   0     0   0   0     0   0   0     0   0   0     0   0   0  
   0   0   0     0   0   0     0   0   0     0   0   0     0   0   0     0   0   0     0   0   0     0   0   0     9  17  19     1   8  10    29  34  37    22  27  30    82  86  89   183 188 190   119 124 127    20  25  28    25  29  32    12  15  18    15  15  20     2   2   6     1   1   5    12  13  17    36  38  42    13  17  19     7  12  15    13  18  21     8  12  15     5   9  12     6  11  14    10  15  18     1   6   9    16  21  24    50  55  58    40  45  48    22  27  30    13  18  21    28  33  36    22  27  30    56  61  64     0   0   0     0   0   0     0   0   0     0   0   0     0   0   0     0   0   0     0   0   0     0   0   0     0   0   0     0   0   0     0   0   0  
   0   0   0     0   0   0     0   0   0     0   0   0     0   0   0     0   0   0     0   0   0     0   0   0     5  14  15     1   7   9    37  42  45    33  38  41    52  56  59   129 133 136    76  81  84    15  20  23    30  34  37    11  14  17     4   7  10     8  12  15     5   9  12    29  33  36    72  76  79    29  33  37     1   2   5     1   4   7     6  11  14     5  10  13     4   9  12     7  12  15    10  15  18     5  10  13    24  29  32    36  41  45    21  26  29    24  29  32     0   0   0     0   0   0     0   0   0     0   0   0     0   0   0     0   0   0     0   0   0     0   0   0     0   0   0     0   0   0     0   0   0     0   0   0     0   0   0     0   0   0  
   0   0   0     0   0   0     0   0   0     0   0   0     0   0   0     0   0   0     0   0   0     0   0   0     0   0   0    39  46  48    58  63  66    13  16  19     7  10  13    40  44  48    36  41  44    40  45  48    46  51  54    16  19  22     1   1   4    13  17  20     3   7  10    22  27  30    60  65  68    25  30  33    27  32  35    21  25  28     1   5   8     2   6   9     2   6   9     1   4   7    12  17  20    16  21  24    64  69  72    87  92  95     0   0   0     0   0   0     0   0   0     0   0   0     0   0   0     0   0   0     0   0   0     0   0   0     0   0   0     0   0   0     0   0   0     0   0   0     0   0   0     0   0   0     0   0   0     0   0   0  
   0   0   0     0   0   0     0   0   0     0   0   0     0   0   0     0   0   0     0   0   0     0   0   0     0   0   0    31  39  41    28  33  36     2   7  10     6  10  13     5  10  13     9  14  17    95 100 103    87  92  96    20  25  28    12  17  20     1   3   6     3   8  11    15  20  23    39  44  47     0   0   0   108 113 116    95 100 103    20  25  28     4   9  12    13  18  21     3   8  11     7  12  15    11  16  19    85  90  93   132 137 140   118 123 126   146 151 154   120 125 129   131 136 139    57  62  65     3   7  10     4  12  15     9  18  20    15  25  27     0   0   0     0   0   0     0   0   0     0   0   0     0   0   0     0   0   0     0   0   0  
   0   0   0     0   0   0     0   0   0     0   0   0     0   0   0     0   0   0     0   0   0     0   0   0     4  10  12     1   3   5     1   6   9    11  16  19    14  18  21    16  21  24    32  40  43   101 109 112   110 118 121    17  23  26     4  11  14     1   9  12     5  13  16    37  45  48    61  69  72     0   0   0   185 193 196   130 138 141    45  53  56    45  53  55    16  25  26     6  14  16    23  31  33    27  35  37    84  92  94   108 116 118   110 118 120    84  92  94    32  40  42   113 121 123   108 117 118     9  15  17     1   3   6    16  22  25    19  28  31    34  45  47    36  47  49    21  35  36    96 110 111    61  75  76    46  58  60   103 114 116  
   0   0   0     0   0   0     0   0   0     0   0   0     0   0   0     0   0   0     5  14  15     3  11  13    30  38  40    41  49  51    39  44  47    14  19  22    33  37  40    45  52  55    49  57  60    64  72  75    69  78  80    23  31  34    14  22  25     1   9  11    53  62  65   122 130 133   118 126 129     0   0   0     0   0   0   103 111 114    36  44  47    27  35  37    34  43  44    36  44  46    11  19  21    25  32  35    72  80  82    76  84  86    42  50  52    13  21  23    37  45  47   139 147 149   141 148 151    71  79  81    18  23  27    61  66  70    39  45  49    27  36  38    76  87  89    98 112 113   113 127 128    30  44  45    33  45  47    62  72  74  
   0   0   0     0   0   0     0   0   0     0   0   0     0   0   0     1   3   3     4  10  10    16  25  24    65  74  72   121 130 129   115 121 121    24  29  29    14  17  19    33  40  43    33  41  44    13  21  24    29  38  41    26  36  38    22  32  34    21  31  33    67  77  79   126 136 138     0   0   0     0   0   0     0   0   0    49  57  60    31  38  41    20  28  30    34  43  44    50  58  60     1   7   9     4   9  11    14  22  24    23  31  33    23  31  33    32  40  42    83  91  93   127 135 137   129 137 139   138 143 146   112 116 119    68  72  75    19  23  25    23  31  32   127 139 139   109 123 123    25  39  39    20  34  34    49  62  62    61  71  72  
   0   0   0     0   0   0     0   0   0     0   0   0     5   9  10     5  11  11     7  14  14     5  14  13    61  69  68   147 156 155   180 186 186    71  77  77     3   8  10    15  22  25    17  25  28    10  18  21    43  53  55    50  60  62    57  68  70    95 106 108    52  64  66    76  87  89     0   0   0     0   0   0     0   0   0     0   0   0   140 148 150    74  82  84    21  29  31    24  32  34     4  12  14     1   5   7     4  12  14    45  53  55    89  97  99    98 106 108   101 109 111    79  87  89    96 104 106   159 164 167   175 176 180    86  88  91    21  25  28    19  26  29    48  58  59    19  30  30    14  21  21    95 108 108   156 166 167    97 105 107  
   0   0   0     0   0   0    54  50  54     6   5   8     2   3   5     3   7   8    11  16  15     3  10   9    47  56  55    97 106 105   164 171 171   140 146 146    60  66  67    12  19  22     8  15  20    18  27  32    40  49  54    46  56  61    77  88  92   133 147 150    33  47  50    30  41  45     0   0   0     0   0   0     0   0   0     0   0   0   176 184 187   115 125 126    21  31  32    15  25  26    35  45  46    13  23  24    42  52  53   124 134 135   148 158 159    78  88  89    44  54  55    63  73  74   121 131 132   163 169 172   180 181 183   152 152 154    50  52  54    18  26  25    12  22  21     5  10   8    74  86  84   155 167 165   173 183 182   110 119 118  
   0   0   0   155 150 154    32  29  32    10  10  12     3   4   6     1   1   2     2   9   9    13  22  21    48  58  57    46  56  54   110 116 116   182 188 188   129 134 136    35  42  45    24  31  37    31  40  45    27  36  41    38  50  54    78  92  95   115 129 132    22  36  39     8  22  25     0   0   0     0   0   0     0   0   0     0   0   0     0   0   0   158 168 169    66  76  77    26  36  37    44  54  55    35  45  46   107 117 118   174 184 185   156 166 167    39  48  49    13  18  19    88  98  99   167 177 178   163 168 171   152 152 154   180 179 182   125 127 129    60  65  65    20  30  29    47  59  57   126 138 136   156 168 166   121 132 130    70  76  76  
 197 192 196   122 116 120    15  12  15    10  10  12    10  11  13    24  28  29    25  32  32    18  27  26    53  62  60    73  82  81   118 124 124   186 192 192   128 134 135    22  29  32    13  21  26    18  26  31    12  22  27    27  40  43    42  56  59    47  62  65     6  21  24     0   0   0     0   0   0     0   0   0     0   0   0     0   0   0     0   0   0   172 182 183   138 148 149    83  93  94    72  82  83    83  93  94   144 154 155   171 181 182   152 162 163    59  69  70    23  33  34    94 104 105   141 151 152   113 118 121   119 118 120   135 133 134   175 176 175   151 156 154    46  54  52    45  56  52   110 122 118    96 107 103    71  80  77    89  96  93  
 198 193 196   132 128 132    30  28  31    11  10  13     9  10  12    65  69  70    83  89  89    40  47  47    70  79  78   143 152 151   165 171 171   155 161 161    59  62  64     1   2   5     8  15  18    20  30  32    35  45  48    48  59  61    27  38  40    17  30  32    59  72  74     0   0   0     0   0   0     0   0   0     0   0   0     0   0   0     0   0   0   154 164 165   162 172 173   101 111 112    75  83  85   121 128 131   158 166 168   167 175 177   161 169 171    97 105 107    50  59  58    73  82  81    72  81  79    33  40  40    49  48  48   137 133 134   166 166 166   184 187 186   102 111 108    28  39  36    58  69  65    68  79  75   121 131 127   151 156 155  
 168 168 170   114 115 119    27  27  31    25  26  30    50  54  57    94  98 101   144 149 151    76  81  84    70  75  78   134 139 142   126 134 136   100 108 110    30  36  38     1   2   5     3  10  13    31  39  42    78  86  89    65  73  76    61  69  71   106 111 115   156 161 165     0   0   0     0   0   0     0   0   0     0   0   0     0   0   0     0   0   0    73  83  84   143 153 154   141 149 151    87  92  95   129 133 136   176 179 180   176 176 178   190 191 193   124 125 127    90  92  94   104 108 109    88  94  94    43  47  46    88  86  87   157 154 155   183 182 182   193 194 193    90  94  93    17  23  21    78  84  82   107 113 111   149 154 152   145 147 146  
  64  66  68    30  35  38    12  17  20    49  53  56    87  91  94    60  65  68   110 115 118    58  63  66     2   7  10    37  42  45    33  41  43    52  59  62    80  88  90    39  47  49    14  22  24   111 119 121   110 117 120     0   0   0   143 148 151   180 184 187   185 189 192     0   0   0     0   0   0     0   0   0     0   0   0     0   0   0     0   0   0     0   0   0   112 120 122   139 144 147   132 136 139   111 112 115   150 150 152   171 170 173   181 179 183   155 155 155   158 159 158   165 167 166   143 147 146   114 117 115   151 149 150   181 177 178   183 182 183   160 161 160    60  62  61    20  24  23    95  99  98   131 135 134   150 152 151   153 155 154  
   1   1   2     1   2   5    21  24  27    99 104 107   169 174 177    28  33  36    32  37  40    41  46  49     5  10  13    70  75  78    91  96  99    99 104 108   144 149 152   108 115 117    48  56  58   119 127 129   117 124 126     0   0   0     0   0   0   176 181 184     0   0   0     0   0   0     0   0   0     0   0   0     0   0   0     0   0   0     0   0   0     0   0   0   128 136 138   110 116 119   152 155 158   138 139 142   137 136 139   170 166 170   186 181 185   178 176 177   176 175 175   166 166 166   160 161 160   159 159 159   171 168 169   187 183 185   191 189 190   170 170 170   115 117 116   102 106 105   147 151 150   174 178 177   182 185 184   195 195 195  
   3   8  11    23  31  33    45  53  55   137 145 147   181 186 189    28  33  36     7  12  15     8  13  16    28  33  36   105 110 113   133 138 141   137 142 144   172 177 180   153 160 162    59  67  69    54  62  64     0   0   0     0   0   0     0   0   0     0   0   0     0   0   0     0   0   0     0   0   0     0   0   0     0   0   0     0   0   0     0   0   0     0   0   0   150 155 158    67  72  75   115 115 120   156 155 159   140 138 141   159 155 159   178 173 177   188 186 187   182 180 181   178 178 178   188 189 189   187 188 187   184 182 183   195 192 193   186 185 185   183 185 184   194 196 195   186 190 189   172 176 175   160 164 163   162 165 164   162 164 163  
   3   8  10    35  45  45    79  89  90   124 134 135    83  91  93     6  14  16    12  19  22    44  49  52    98 103 106   141 145 148   153 157 160   165 169 172   179 183 186    99 104 105    28  37  36    86  95  95     0   0   0     0   0   0     0   0   0     0   0   0     0   0   0     0   0   0     0   0   0     0   0   0     0   0   0     0   0   0     0   0   0     0   0   0   166 170 173    79  81  84    85  84  89   127 125 129   147 144 147   180 175 180   182 177 181   187 183 184   184 180 181   192 190 191   202 201 202   190 190 190   188 185 187   187 185 186   156 154 155   146 145 146   143 145 144    95  97  96    52  54  53    38  40  39    42  45  44    50  51  50  
   5  15  16    36  47  47    61  72  72    42  52  53    25  35  36    52  60  62    56  63  65   108 113 116   156 160 163   181 185 188   189 193 196   175 176 180   117 120 122    47  52  53    75  84  83   157 165 165     0   0   0     0   0   0     0   0   0     0   0   0     0   0   0     0   0   0     0   0   0     0   0   0     0   0   0     0   0   0     0   0   0     0   0   0     0   0   0   117 117 121   102 100 105   129 126 131   168 163 167   204 199 202   188 183 187   185 181 182   186 183 184   177 175 176   132 131 131    81  79  80    77  75  76    61  59  60    30  29  29    28  28  28    25  27  26     2   4   3     1   2   1     2   4   3     2   4   3     8   9   8  
  29  41  39    28  40  38    46  58  56    64  74  73   121 131 130    97 106 105    71  79  78   152 158 158   172 177 177   190 191 193   189 190 192   162 162 164   110 110 112    95  98  99   149 154 153   167 173 171     0   0   0     0   0   0     0   0   0     0   0   0     0   0   0     0   0   0     0   0   0     0   0   0     0   0   0     0   0   0     0   0   0     0   0   0     0   0   0   176 174 179   176 174 179   176 171 176   172 167 171   178 173 177   196 191 195   199 195 196   124 120 121    55  51  52    14  10  11    10   8   9    14  12  13    11  11  11    10  10  10    19  19  19    18  18  18    14  14  14    21  21  21    22  22  22    21  21  21    20  20  20  
  22  34  32    60  71  70   115 127 125   110 120 119   101 110 109    28  37  36    82  88  88   148 153 153   175 177 179   191 192 194   157 157 159   144 144 146   176 176 178   180 183 183   163 169 167     0   0   0     0   0   0     0   0   0     0   0   0     0   0   0     0   0   0     0   0   0     0   0   0     0   0   0     0   0   0     0   0   0     0   0   0     0   0   0     0   0   0   191 189 194   192 187 193   121 116 121    58  53  57    55  50  54    84  79  83    80  76  77    19  15  16    15  11  12    21  17  18    17  15  16    11  11  11    17  17  17    22  22  22    18  18  18    19  19  19    20  20  20    13  13  13    14  14  14    18  18  18    19  19  19  
  68  78  77   126 136 135   127 137 136    53  63  62    16  26  25    69  74  75   124 128 129   159 162 163   173 174 176   156 156 158   157 155 158   187 185 188   187 185 188   178 179 179   167 169 168     0   0   0     0   0   0     0   0   0     0   0   0     0   0   0     0   0   0     0   0   0     0   0   0     0   0   0     0   0   0     0   0   0     0   0   0     0   0   0     0   0   0   128 123 129    99  94 100    37  33  38    18  16  19    12  10  13    12  10  13     9   7   8    17  15  16    32  30  31    30  26  27    21  17  18    21  19  20    23  23  23    20  20  20    18  18  18    22  22  22    21  21  21    15  15  15    16  16  16    15  15  15    19  19  19  
 132 141 140   137 146 145    96 105 104    53  60  59    82  88  88   147 150 151   170 171 173   162 163 165   158 158 160   162 161 164   181 179 182   168 165 168   128 123 126   143 141 142   169 169 169     0   0   0     0   0   0     0   0   0     0   0   0     0   0   0     0   0   0     0   0   0     0   0   0     0   0   0     0   0   0     0   0   0     0   0   0     0   0   0     0   0   0     0   0   0    31  26  32    13  11  15     9   7  10    13  11  14    16  14  17    24  22  22    22  20  21    17  15  16    17  15  16    23  21  22    18  18  18    20  20  20    18  18  18    15  15  15    17  17  17    18  18  18    14  14  14    13  13  13    13  13  13    15  15  15  
 177 183 182   174 179 178   124 128 127    85  89  88   129 132 131   172 174 173   167 167 167   162 161 162   159 157 158   153 149 150   129 125 126    84  79  81    79  74  75   146 142 142     0   0   0     0   0   0     0   0   0     0   0   0     0   0   0     0   0   0     0   0   0     0   0   0     0   0   0     0   0   0     0   0   0     0   0   0     0   0   0     0   0   0     0   0   0     0   0   0    10   8  13     8   7  11    26  25  28    48  48  50    21  21  23    15  15  15    20  20  20    24  23  24    24  23  23    22  20  21    17  17  17    17  19  18    18  19  18    15  15  15    14  12  13    17  15  16    19  17  18    18  16  17    16  15  16    12  12  12  
 186 188 186   197 199 198   168 168 168   137 137 137   153 153 153   148 146 147   126 124 125   159 156 157   176 172 173   152 148 149    96  93  93    63  59  60   123 117 119   185 179 180     0   0   0     0   0   0     0   0   0     0   0   0     0   0   0     0   0   0     0   0   0     0   0   0     0   0   0     0   0   0     0   0   0     0   0   0     0   0   0     0   0   0     0   0   0     0   0   0    34  33  38    26  26  30    62  62  64    95  96  98    40  41  43    16  18  17    19  19  19    23  23  23    19  19  19     8   8   8    17  19  18    15  17  16    16  18  17    16  16  16    16  14  15    18  16  17    24  22  23    26  24  25    23  21  22    15  15  15  
