P3
71 50
255
   0   0   0     0   0   0     0   0   0     0   0   0     0   0   0     0   0   0     0   0   0     0   0   0     0   0   0     0   0   0     0   0   0     0   0   0     0   0   0     0   0   0     0   0   0     0   0   0     0   0   0     0   0   0     0   0   0     0   0   0     0   0   0     9   9   9     8   8   8     6   6   6     6   6   6     9   9   9     8   8   8     8   8   8     8   8   8     7   7   7     0   0   0     0   0   0     0   0   0     0   0   0     0   0   0     0   0   0     0   0   0     0   0   0     0   0   0     0   0   0     0   0   0     0   0   0     0   0   0     0   0   0     0   0   0     0   0   0     0   0   0     0   0   0     0   0   0     0   0   0     0   0   0     0   0   0     0   0   0     0   0   0     0   0   0     0   0   0     0   0   0     0   0   0     0   0   0     0   0   0     0   0   0     0   0   0     0   0   0     8  10   9     7   9   8     7   9   8     6   8   7     5   7   6     6   8   7     7   9   8     7   9   8  
   0   0   0     0   0   0     0   0   0     0   0   0     0   0   0     0   0   0     0   0   0     0   0   0     0   0   0     0   0   0     0   0   0     0   0   0     0   0   0     0   0   0     0   0   0     0   0   0     0   0   0     0   0   0     0   0   0     0   0   0     0   0   0     5   5   5     8   8   8    15  15  15     9   9   9     8   8   8     8   8   8     8   8   8     7   7   7     7   7   7     7   7   7     0   0   0     0   0   0     0   0   0     0   0   0     0   0   0     0   0   0     0   0   0     0   0   0     0   0   0     0   0   0     0   0   0     0   0   0     0   0   0     0   0   0     0   0   0     0   0   0     0   0   0     0   0   0     0   0   0     0   0   0     0   0   0     0   0   0     0   0   0     0   0   0     0   0   0     0   0   0     0   0   0     0   0   0     0   0   0     0   0   0     0   0   0     6   8   7     6   8   7     7   9   8     7   9   8     6   8   7     5   7   6     6   8   7     6   8   7     7   9   8  
   0   0   0     0   0   0     0   0   0     0   0   0     0   0   0     0   0   0     0   0   0     0   0   0     0   0   0     0   0   0     0   0   0     0   0   0     0   0   0     0   0   0     0   0   0     0   0   0     0   0   0     0   0   0     0   0   0     0   0   0     0   0   0     7   7   7     7   7   7     7   7   7    10  10  10     8   8   8     7   7   7     7   7   7     7   7   7     5   5   5     6   6   6     5   7   6     0   0   0     0   0   0     0   0   0     0   0   0     0   0   0     0   0   0     0   0   0     0   0   0     0   0   0     0   0   0     0   0   0     0   0   0     0   0   0     0   0   0     0   0   0     0   0   0     0   0   0     0   0   0     0   0   0     0   0   0     0   0   0     0   0   0     0   0   0     0   0   0     0   0   0     0   0   0     0   0   0     0   0   0     0   0   0     0   0   0     6   8   7     6   8   7     7   9   8     8  10   9     8  10   9     7   9   8     7   9   8     6   8   7     6   8   7  
   0   0   0     0   0   0     0   0   0     0   0   0     0   0   0     0   0   0     0   0   0     0   0   0     0   0   0     0   0   0     0   0   0     0   0   0     0   0   0     0   0   0     0   0   0     0   0   0     0   0   0     0   0   0     0   0   0     0   0   0     0   0   0     9   9   9     9   9   9     9   9   9    10  10  10     8   8   8     6   6   6     6   6   6     6   6   6     6   6   6     7   7   7     5   7   6     5   7   6     0   0   0     0   0   0     0   0   0     0   0   0     0   0   0     0   0   0     0   0   0     0   0   0     0   0   0     0   0   0     0   0   0     0   0   0     0   0   0     0   0   0     0   0   0     0   0   0     0   0   0     0   0   0     0   0   0     0   0   0     0   0   0     0   0   0     0   0   0     0   0   0     0   0   0     0   0   0     0   0   0     0   0   0     6   8   7     6   8   7     7   9   8     8  10   9     8  10   9     7   9   8     7   9   8     7   9   8     6   8   7     6   8   7  
   0   0   0     0   0   0     0   0   0     0   0   0     0   0   0     0   0   0     0   0   0     0   0   0     0   0   0     0   0   0     0   0   0     0   0   0     0   0   0     0   0   0     0   0   0     0   0   0     0   0   0     0   0   0     0   0   0     0   0   0     0   0   0    10  10  10    10  10  10    10  10  10     8   8   8     7   7   7     7   7   7     5   5   5     6   6   6     7   7   7     7   7   7     5   7   6     5   7   6     5   7   6     0   0   0     0   0   0     0   0   0     0   0   0     0   0   0     0   0   0     0   0   0     0   0   0     0   0   0     0   0   0     0   0   0     0   0   0     5   7   6     0   0   0     0   0   0     0   0   0     0   0   0     0   0   0     0   0   0     0   0   0     0   0   0     0   0   0     0   0   0     0   0   0     0   0   0     0   0   0     6   8   7     7   9   8     7   9   8     7   9   8     7   9   8     7   9   8     7   9   8     7   9   8     6   8   7     6   8   7     6   8   7  
   0   0   0     0   0   0     0   0   0     0   0   0     0   0   0     0   0   0     0   0   0     0   0   0     0   0   0     0   0   0     0   0   0     0   0   0     0   0   0     0   0   0     0   0   0     0   0   0     0   0   0     0   0   0     0   0   0     0   0   0     0   0   0    10  10  10    10  10  10    10  10  10     7   7   7     8   8   8     7   7   7     5   5   5     6   6   6     7   7   7     7   7   7     5   7   6     5   7   6     5   7   6     5   7   6     5   7   6     0   0   0     0   0   0     0   0   0     0   0   0     0   0   0     0   0   0     0   0   0     0   0   0     5   7   6     5   7   6     5   7   6     5   7   6     0   0   0     0   0   0     0   0   0     0   0   0     0   0   0     0   0   0     0   0   0     0   0   0     0   0   0     0   0   0     0   0   0     0   0   0     7   9   8     7   9   8     7   9   8     8  10   9     7   9   8     7   9   8     7   9   8     6   8   7     6   8   7     6   8   7     6   8   7  
   0   0   0     0   0   0     0   0   0     0   0   0     0   0   0     0   0   0     0   0   0     0   0   0     0   0   0     0   0   0     0   0   0     0   0   0     0   0   0     0   0   0     0   0   0     0   0   0     0   0   0     0   0   0     0   0   0     0   0   0     0   0   0     9   9   9     9   9   9     9   9   9     7   7   7     9   9   9     9   9   9     5   5   5     5   5   5     7   7   7     7   7   7     6   8   7     6   8   7     6   8   7     6   8   7     6   8   7     6   8   7     0   0   0     0   0   0     0   0   0     0   0   0     0   0   0     5   7   6     6   8   7     6   8   7     6   8   7     7   9   8     7   9   8     5   7   6     0   0   0     0   0   0     0   0   0     0   0   0     0   0   0     0   0   0     0   0   0     0   0   0     0   0   0     0   0   0     6   8   7     7   9   8     7   9   8     7   9   8     8  10   9     6   8   7     6   8   7     6   8   7     6   8   7     6   8   7     6   8   7     6   8   7  
   0   0   0     0   0   0     0   0   0     0   0   0     0   0   0     0   0   0     0   0   0     0   0   0     0   0   0     0   0   0     0   0   0     0   0   0     0   0   0     0   0   0     0   0   0     0   0   0     0   0   0     0   0   0     0   0   0     0   0   0     0   0   0     8   8   8     8   8   8     8   8   8     7   7   7    11  11  11    11  11  11     5   5   5     5   5   5     7   7   7     6   6   6     6   8   7     6   8   7     6   8   7     6   8   7     6   8   7     6   8   7     6   8   7     0   0   0     0   0   0     5   7   6     5   7   6     5   7   6     6   8   7     7   9   8     7   9   8     8  10   9     9  10  10     6   8   7     4   6   5     0   0   0     0   0   0     0   0   0     0   0   0     0   0   0     0   0   0     0   0   0     0   0   0     6   8   7     6   8   7     6   8   7     7   9   8     7   9   8     7   9   8     6   7   6     5   7   6     5   7   6     6   8   7     6   8   7     6   8   7     7   9   8  
   0   0   0     0   0   0     0   0   0     0   0   0     0   0   0     0   0   0     0   0   0     0   0   0     0   0   0     0   0   0     0   0   0     0   0   0     0   0   0     0   0   0     0   0   0     0   0   0     0   0   0     0   0   0     0   0   0     0   0   0     8   8   8     8   8   8     8   8   8     8   8   8     8   8   8    13  13  13    13  13  13     6   6   6     5   5   5     7   7   7     6   6   6     6   8   7     6   8   7     6   8   7     6   8   7     6   8   7     6   8   7     6   8   7     7   9   8     5   7   6     5   7   6     5   7   6     5   7   6     7   9   8     7   9   8     7   9   8     8  10   9     9  11  10     6   8   7     3   5   4     0   0   0     0   0   0     0   0   0     0   0   0     0   0   0     0   0   0     0   0   0     0   0   0     5   7   6     5   7   6     6   8   7     6   8   7     6   8   7     7   9   8     6   7   6     5   7   6     5   7   6     5   7   6     6   8   7     7   9   8     7   9   8  
   0   0   0     0   0   0     0   0   0     0   0   0     0   0   0     0   0   0     0   0   0     0   0   0     0   0   0     0   0   0     0   0   0     0   0   0     0   0   0     0   0   0     0   0   0     0   0   0     0   0   0     0   0   0     9   9   9     9   9   9     9   9   9     9   9   9     9   9   9     9   9   9     9   9   9    15  15  15    15  15  15     6   6   6     4   4   4     6   6   6     5   5   5     6   8   7     6   8   7     6   8   7     6   8   7     6   8   7     6   8   7     6   8   7     8  10   9     6   8   7     5   7   6     5   7   6     5   7   6     7   9   8     7   9   6     6   8   5     7   9   6     9  11   8     5   7   4     2   4   1     5   7   4     0   0   0     0   0   0     0   0   0     0   0   0     0   0   0     0   0   0    13  15  13     5   7   6     5   7   6     5   7   6     6   8   7     6   8   7     6   8   7     5   6   6     5   7   6     5   7   6     5   7   6     6   8   7     7   9   8     7   9   8  
   0   0   0     0   0   0     0   0   0     0   0   0     0   0   0     0   0   0     0   0   0     0   0   0     0   0   0     0   0   0     0   0   0     0   0   0     0   0   0     0   0   0     0   0   0     0   0   0     7   6   4     7   6   5     8   6   7     8   6   7     8   6   7     8   6   7     8   6   7     7   7   7     8   8   8     8   8   8     7   9   8     6   8   7     6   8   7     5   7   6     5   7   6     7   9   8     7   9   8     6   8   7     5   7   6     5   7   6     4   6   5     5   6   6     6   8   7     6   8   7     6   8   7     6   8   7     6   8   7     6   8   6     8   9   5     8   9   4     8   9   4     8   9   4     7   8   3     6   7   2     6   7   2     6   7   2     0   0   0     0   0   0     0   0   0     0   0   0    10  11   6    12  13   9     8  10   7     6   7   5     5   7   4     8  10   7     9  10   8     7   9   6     6   8   5     6   8   5     6   8   5     6   8   5     6   8   5     6   8   5     6   8   5  
   0   0   0     0   0   0     0   0   0     0   0   0     0   0   0     0   0   0     0   0   0     0   0   0     0   0   0     0   0   0     0   0   0     0   0   0     0   0   0     0   0   0     9   8   6     8   7   5     8   7   5     7   6   5     9   7   8     9   7   8     9   7   8     9   7   8     9   7   8     8   8   8     9   9   9     9   9   9     7   9   8     7   9   8     7   9   8     6   8   7     6   8   7     6   8   7     6   8   7     6   8   7     5   7   6     5   7   6     4   6   5     5   6   6     6   8   7     6   8   7     6   8   7     6   8   7     6   8   7     6   8   6     7   9   4     8   9   3     8   9   3     8   9   3     7   8   2     7   8   2     6   7   1     5   6   1     7   8   2     0   0   0     0   0   0     0   0   0     9  10   4    11  13   8     9  11   8     6   8   6     5   7   4     6   8   5     7   9   6     8  10   7     7   9   6     7   9   6     7   9   6     7   9   6     7   9   6     7   9   6     7   9   6  
   0   0   0     0   0   0     0   0   0     0   0   0     0   0   0     0   0   0     0   0   0     0   0   0     0   0   0     0   0   0     0   0   0     0   0   0     8   8   8     8   8   8     8   8   8     8   8   8     7   7   7     8   7   7    10   8   9    10   8   9    10   8   9    10   8   9    10   8   9     9   9   9     9   9   9     9   9   9     8  10   9     8  10   9     7   9   8     7   9   8     7   9   8     6   8   7     6   8   7     6   8   7     5   7   6     5   7   6     5   7   6     6   7   6     7   9   8     7   9   8     7   9   8     7   9   8     7   9   8     7   9   7     8   9   5     8   9   4     8   9   4     8   9   4     7   8   3     7   8   3     7   8   3     5   6   1     6   7   2     7   8   3     0   0   0     7   8   3     8   9   4    10  11   7    10  12   9     8  11   7     6   8   5     4   6   3     6   7   5     8  10   7     8  10   7     8  10   7     8  10   7     8  10   7     0   0   0     0   0   0     0   0   0  
   0   0   0     0   0   0     0   0   0     0   0   0     0   0   0     0   0   0     0   0   0     0   0   0     0   0   0     0   0   0     8  10   9     7   7   7     7   7   7     8   8   8     8   8   8     8   8   8     8   8   8     8   8   8    10   8   9    10   8   9    10   8   9    10   8   9    10   8   9     9   9   9     9   9   9     9   9   9     7   9   8     7   9   8     7   9   8     6   8   7     6   8   7     6   8   7     5   8   7     5   7   6     5   7   6     5   7   6     5   7   6     6   7   6     7   9   8     7   9   8     7   9   8     7   9   8     7   9   8     7   9   8     8   8   6     8   8   6     8   8   6     8   8   6     8   8   6     8   8   6     8   8   6     5   5   3     6   6   4     6   6   4     6   6   4     7   7   5     8   8   6     8   8   6     9  11   8    10  12   9     9  11   8     6   8   5     0   0   0     0   0   0     0   0   0     0   0   0     0   0   0     0   0   0     0   0   0     0   0   0     0   0   0  
   0   0   0     0   0   0     0   0   0     0   0   0     0   0   0     0   0   0     0   0   0     0   0   0     9  11  10     8  10   9     8  10   9     7   9   8     7   9   8     7   9   8     7   9   8     8  10   9     8  10   9     9   8   9     9   7   8     9   7   8     9   7   8     9   7   8     9   7   8     8   8   8     8   8   8     8   8   8     6   8   7     6   8   7     6   8   7     5   7   6     5   7   6     6   8   7     6   8   7     6   8   7     6   8   7     6   8   7     6   8   7     6   8   7     7   9   8     7   9   8     7   9   8     7   9   8     7   9   8     7   9   8     8   8   8     8   8   6     8   8   6     8   8   6     8   8   6     8   8   6     8   8   6     6   6   4     6   6   4     6   6   4     7   7   5     7   7   5     7   7   5     6   7   5     0   0   0     0   0   0     0   0   0     0   0   0     0   0   0     0   0   0     0   0   0     0   0   0     0   0   0     0   0   0     0   0   0     0   0   0     0   0   0  
   0   0   0     0   0   0     0   0   0     0   0   0     0   0   0     0   0   0     0   0   0    10  13  12    10  12  11     9  11  10     8  10   9     9  11  10     9  10  10     8  10   9     8  10   9     8  10   9     8  10   9     8   9   9     9   8   8     9   7   8     9   7   8     9   7   8     9   7   8     8   8   8     8   8   8     8   8   8     7   9   8     6   8   7     6   8   7     5   7   6     5   7   6     6   8   7     6   8   7     7   9   8     7   9   8     7   9   8     7   9   8     7   9   8     7   9   8     7   9   8     7   9   8     7   9   8     7   9   8     7   9   8     8   8   8     8   8   8     8   8   8     8   8   8     9   9   9     9   9   9     9   9   9     7   7   7     6   6   6     7   7   7     8   8   8     8   8   8     7   7   7     5   6   5     6   8   5     0   0   0     0   0   0     0   0   0     0   0   0     0   0   0     0   0   0     0   0   0     0   0   0     0   0   0     0   0   0     0   0   0     0   0   0  
   0   0   0     0   0   0     0   0   0     0   0   0     0   0   0     0   0   0    12  14  13    12  14  13    11  13  12    10  12  11     9  11  10    11  13  12     9  12  11     8  12  11     7  11  10     6  10   9     6  10   9     8  10   8    10   9   7    10   9   7    10   9   7    10   9   7    10   9   7     9   9   7    10  10   8     9   9   7     8  10   7     8  10   7     7   9   6     7   9   6     7   9   6     7   9   6     7   9   6     7   9   6     8  10   7     8  10   7     9  11   8     9  10   8     8  10   7     8  10   7     8  10   7     8  10   7     8  10   7     8  10   8     8   8   8     8   8  10     8   8  10     8   8  10     9   9  11     9   9  11    10  10  12     8   8  10     7   7   9     8   8  10     9   9  10     9   9  11     7   7   9     6   6   5     7   9   6     7   9   5     8  10   7     0   0   0     0   0   0     0   0   0     0   0   0     0   0   0     0   0   0     0   0   0     0   0   0     0   0   0     0   0   0  
   0   0   0     0   0   0     0   0   0     0   0   0     0   0   0    13  13  13    13  13  13    14  14  14    12  13  13    10  12  11     9  11  10    12  14  13    11  14  13     9  13  12     7  11  10     7  11  10     6  10   9     8  10   9    11  10   8    11  10   8    11  10   8    11  10   8    10  10   8    10  10   8    10  10   9    11  11   9    10  12   9     9  11   8     9  11   8     8  10   7     8  10   7     7   9   6     7   9   6     8  10   7     9  10   8     9  11   8     9  11   8     9  11   8     8  10   7     8  10   7     8  10   7     8  10   7     8  10   7     8  10   8     7   8   9     8   8  10     8   8  10     8   8  10     9   9  11    10  10  12    10  10  12     9   9  11     7   7   9     8   8  10     9   9  11    10  10  12     7   7   9     6   7   8     9  11   9     5   7   4     5   7   4     8  10   7    11  13  10     0   0   0     0   0   0     0   0   0     0   0   0     0   0   0     0   0   0     0   0   0     0   0   0  
   0   0   0     0   0   0     0   0   0     0   0   0     8   6   4     3   2   1     1   1   1     5   5   3     9   9   7    10  10   8     8   8   6    18  20  17     5   7   4     6   8   6     6  10   6    14  19  15     9  14  10    10  11   9    11  10   8    24  23  21     9   8   6    12  11   9    11  11   9    11  11   9     9   9   7    17  17  15    11  13  10    13  15  12    15  17  14     6   8   5    19  21  18     9  12   9     8  10   7    11  13  10     9  11   8     8  10   7     8  10   7     5   7   4     4   6   3     2   4   1     7   9   6    10  12   9     1   1   1     7   9   7     8   9   8    11  11  13     1   1   3    11  11  13    10  10  12    11  11  13    10  10  12     8   8  10     4   4   6     9   9  11     5   5   7    10  10  12     3   3   5    13  14  13    16  18  15     5   6   5     1   3   1    20  22  19    86  88  85    59  61  58    33  34  32     0   0   0     0   0   0     0   0   0     0   0   0     0   0   0     0   0   0  
   0   0   0     0   0   0     0   0   0    56  48  46    46  41  39    46  42  41    41  37  36    35  31  30    18  16  14     4   3   2    10  10   8     1   1   1    11  13  10    12  14  11     4   5   3     1   2   1     4   9   5     5   6   3     4   4   3     2   1   1     5   4   3     4   4   2     1   1   1     6   6   5     3   3   3     1   1   1     1   1   1     1   2   1     8  10   7     9  11   8     1   2   1     1   2   1     9  10   8     7   9   6     5   6   3     4   6   3     8  10   7     4   6   3    12  14  11    17  20  16     2   4   2     2   4   1    15  17  14    10  12   9     9  10   9    18  18  20    15  15  17     6   6   8     7   7   9     9   9  11    11  11  13    16  16  18    10  10  12     5   5   7     7   7   9    14  14  16    15  15  16     3   4   3     1   3   1     9  11   8    11  13  10    18  20  17   123 125 122   120 122 119    36  38  35    10  12   9     0   0   0     0   0   0     0   0   0     0   0   0     0   0   0  
   0   0   0     0   0   0   204 194 192   205 196 193   212 204 202   210 205 202   196 191 188   167 162 159   126 122 119    97  93  90   101 100  96   121 120 116   157 158 153   160 161 156   118 119 114    32  35  30    51  53  48    67  69  64    66  66  62    62  61  57    46  45  41    46  45  41    89  89  84    80  81  76    58  59  54    45  45  40    34  36  31    26  28  23    21  23  18    15  17  12     7   9   4     8  10   5     5   7   3     3   5   2    15  17  12     2   3   2     1   2   1     1   3   1     2   3   1     1   1   1     1   1   1     1   2   1     5   7   2     6   8   4     2   3   2     4   4   4    18  18  18     7   7   7     7   7   7     3   3   3     6   6   6     3   3   3    15  15  15    12  12  12     5   5   5     1   1   1    16  16  16     8   8   7     8  10   7    12  14  11     2   4   2     7   8   7    94  96  92   114 116 113    29  30  28    21  23  20     6   8   5     0   0   0     0   0   0     0   0   0     0   0   0  
   0   0   0   181 171 169   166 156 154   196 186 184   226 216 214   217 207 206   213 203 203   192 184 182   158 151 149   143 138 135   144 140 137   143 140 136   161 160 156   195 195 191   210 211 206   107 108 103   113 114 109   141 142 137   148 147 143   152 151 147   126 125 121   135 134 130   215 215 211   208 209 204   185 186 181   151 152 147   125 127 122   143 145 140   143 145 140   111 113 108    97  99  94   130 132 127   130 132 127    59  61  56    31  33  28    49  51  46    67  69  64    42  44  39    46  48  43    70  72  67    79  81  76    44  46  41    19  21  16    12  14   9    12  13  10     2   2   2     1   1   1     3   3   3     4   4   4     3   3   3     3   3   3     5   5   5     1   1   1     1   1   1     3   3   3     4   4   4     7   7   7     2   3   2     5   7   4     1   2   1     2   4   1     1   2   1    19  21  18    23  25  22     2   3   2     7   9   6     8  10   7     0   0   0     0   0   0     0   0   0     0   0   0  
 202 193 188   183 174 169   177 166 162   204 193 189   195 184 180   162 153 148   188 179 174   177 168 163   150 142 137   155 148 142   149 144 138   123 119 112   138 135 128   177 176 168   209 209 201   106 106  98    99  99  92   134 133 129   128 127 123   142 141 137   129 128 124   134 133 129   183 183 179   196 197 192   205 206 201   156 158 153   126 128 123   138 140 135   138 140 135   135 137 132   132 134 129   140 142 137   119 121 116    75  77  72    91  93  88   127 129 124   134 136 131   115 117 112   154 156 151   198 200 195   167 169 164   112 114 109   106 108 103    94  96  91    64  65  60    71  72  67    75  76  71   128 129 124   135 136 131   124 125 120    82  83  78     8   9   4    34  36  31    57  58  53    45  46  41    18  19  14    20  21  16    48  48  46    46  48  45    28  30  27    46  48  45    52  54  51    38  40  37    18  20  17    31  32  30     7   8   5     0   0   0     0   0   0     0   0   0     0   0   0     0   0   0  
   0   0   0   208 197 193   197 185 182   196 182 179   174 160 156   152 138 135   200 186 183   188 177 173   163 153 149   174 165 160   168 161 155   175 168 162   175 170 164   179 175 169   209 206 199   153 153 145   110 110 101   125 125 117   137 136 132   164 163 159   119 118 114   129 128 124   164 164 159   184 185 180   176 176 171   112 113 108    95  97  92   107 109 104   122 124 119   150 152 147   122 124 119    68  70  65    50  52  47    93  95  90   142 143 138   131 133 128   115 117 112   135 137 132   159 161 156   164 166 161   153 155 150   145 147 142   128 130 125    97  99  94    89  91  86   122 124 119   128 129 124   192 193 188   198 199 194   191 192 187   132 133 128    47  49  44   155 156 151   210 211 206   180 182 177   105 106 101   110 110 105   164 166 161   169 171 168   144 146 143   157 160 157   151 153 150   136 138 135     0   0   0     0   0   0     0   0   0     0   0   0     0   0   0     0   0   0     0   0   0     0   0   0  
   0   0   0     0   0   0   202 188 184   194 180 177   196 182 177   189 176 169   217 204 196   185 172 164   158 147 138   148 138 129   136 127 118   171 164 154   205 201 190   196 193 181   193 191 179   175 173 161   127 125 113   153 151 143   167 166 161   195 194 190   123 123 118   168 167 163   185 184 180   175 176 171   124 125 120    84  85  80    97  99  94   130 132 127   143 145 140   121 124 119    60  62  57    58  60  55   119 121 116   159 161 156   127 130 125   134 136 131   150 151 146   154 155 150   121 123 118   122 124 119   168 170 165   183 186 181   108 110 105    61  63  58    98 100  94   128 128 123   136 137 131   185 186 180   160 161 155   139 140 134   109 110 104    37  38  32   152 152 147   184 185 179   196 197 191   129 130 124   134 135 129   148 149 145   152 154 151     0   0   0     0   0   0     0   0   0     0   0   0     0   0   0     0   0   0     0   0   0     0   0   0     0   0   0     0   0   0     0   0   0     0   0   0  
   0   0   0     0   0   0     0   0   0   199 186 181   222 209 203   218 205 198   220 207 199   180 167 159   169 157 149   149 139 130   136 126 117   175 166 157   225 218 208   213 207 197   197 192 182   195 191 180   138 134 123   179 176 168   186 184 180   190 189 185   136 134 131   200 199 195   143 142 138    91  90  86   108 107 103   172 172 167   204 205 200   183 184 179   115 116 111    49  50  44    61  64  57    91  94  89   141 146 140   156 160 154   109 112 107   156 158 153   157 159 154   116 118 113    89  91  86   133 135 130   172 174 169   161 163 158    94  96  91    90  92  87   141 142 136   126 127 121   131 132 126   172 174 167   135 136 130   126 127 121   164 165 159    60  61  55   158 160 153   142 143 137   176 177 171   136 137 131     0   0   0     0   0   0     0   0   0     0   0   0     0   0   0     0   0   0     0   0   0     0   0   0     0   0   0     0   0   0     0   0   0     0   0   0     0   0   0     0   0   0     0   0   0  
   0   0   0     0   0   0     0   0   0     0   0   0   216 204 198   216 205 199   202 191 185   201 190 184   171 161 154   155 146 139   185 176 169   186 178 171   210 201 194   217 209 202   207 200 192   199 192 184   149 142 134   180 175 169   194 190 186   180 176 173   145 141 138   117 114 109    74  71  66   129 127 122   206 205 200   230 230 222   181 181 173   105 105  98    78  78  70   106 106  98   119 120 112   115 120 113   113 120 113   121 128 121   101 108 101   133 138 132   129 134 128   108 112 106   107 109 104   143 145 140   167 169 164   136 137 132   150 151 146   160 161 156   163 165 160   145 147 142   153 155 150   142 144 139   101 103  98   161 163 158   123 125 120    63  65  60   145 147 142   167 169 164     0   0   0     0   0   0     0   0   0     0   0   0     0   0   0     0   0   0     0   0   0     0   0   0     0   0   0     0   0   0     0   0   0     0   0   0     0   0   0     0   0   0     0   0   0     0   0   0     0   0   0  
   0   0   0     0   0   0     0   0   0     0   0   0     0   0   0     0   0   0   214 205 198   187 178 171   169 160 153   157 148 141   173 163 156   167 158 151   209 200 193   194 185 178   191 182 175   199 190 183   162 153 146   171 165 159   162 157 154   150 146 143   116 112 109   120 117 112   167 164 159   221 218 213   221 219 212   219 217 209    78  75  68    97  94  87   174 171 164   173 170 162   147 148 140   128 134 127   132 141 134   146 153 146    87  94  87    51  58  51   134 139 133   169 173 167   150 152 147   145 148 143   156 158 153   142 143 138   151 152 147   138 139 134   153 155 150   181 183 178   154 156 151    90  92  87   109 111 106   160 162 157    63  65  60   113 116 111   154 156 151   167 169 164   168 170 165   148 150 145     0   0   0     0   0   0     0   0   0     0   0   0     0   0   0     0   0   0     0   0   0     0   0   0     0   0   0     0   0   0     0   0   0     0   0   0     0   0   0     0   0   0     0   0   0  
   0   0   0     0   0   0     0   0   0     0   0   0     0   0   0     0   0   0     0   0   0   188 181 175   168 161 155   148 141 135   156 149 143   165 158 152   195 188 182   189 182 176   188 181 175   178 171 165   174 168 162   160 156 150   122 120 116   141 140 136   131 130 126   221 220 216   218 217 212   229 228 223   208 207 202    79  78  73    93  93  85   207 207 199   205 205 197   168 168 160   159 160 152   110 116 109   123 130 123   123 130 123    61  68  61    54  62  54   130 135 130   166 170 165   118 120 115   124 126 121   157 159 154   132 132 127   123 124 119   127 128 123   156 158 153   180 185 179   140 145 139    96 101  95   143 148 142   146 151 145    77  82  76   149 154 148   112 117 111   132 137 131   143 148 142   134 139 133   136 141 135   141 146 140   150 155 148   153 157 150     0   0   0     0   0   0     0   0   0     0   0   0     0   0   0     0   0   0     0   0   0     0   0   0     0   0   0     0   0   0     0   0   0  
   0   0   0     0   0   0     0   0   0     0   0   0     0   0   0     0   0   0     0   0   0     0   0   0   176 169 163   152 145 139   169 162 156   164 157 151   180 173 167   199 192 186   198 190 184   182 175 169   168 161 156   116 111 108   112 109 106   175 174 170   151 150 146   231 230 226   233 232 228   208 207 202   102 101  96    69  68  63   200 200 192   220 220 213   194 194 186   193 193 185   174 175 169   124 129 123    84  91  84    86  93  86    70  77  70    87  94  87    96 101  95   173 177 172   125 127 122    93  95  90   137 139 134   130 131 126   143 144 139   164 166 161   167 171 165   159 164 158   134 139 133   136 141 136   143 148 142    92  97  91   112 117 110   180 185 179    76  81  75   104 109 103   122 127 121   122 127 121   156 161 155   157 162 156   147 152 145   136 139 132   175 178 171   186 189 181   188 191 184   149 151 145     0   0   0     0   0   0     0   0   0     0   0   0     0   0   0     0   0   0     0   0   0  
   0   0   0     0   0   0     0   0   0     0   0   0     0   0   0     0   0   0     0   0   0     0   0   0     0   0   0   161 156 152   179 174 170   143 138 134   177 172 168   203 198 194   198 193 189   186 181 177   130 125 121   109 104 101   196 194 191   191 190 188   146 145 143   233 232 228   199 198 194    94  93  89    66  65  60   157 155 150   209 209 204   199 198 193   192 191 186   197 196 191   160 161 155   118 123 117   110 117 110   123 130 123   112 118 111    92  97  91   100 105  99   148 153 147   167 172 166   119 122 117   134 136 131   118 120 115   155 157 152   171 173 168   148 152 146   138 143 137   143 148 142   168 173 167   124 129 123    60  65  59   128 133 127   182 187 181    72  77  71    96 101  95   128 133 127   119 124 119   135 140 134   141 145 139   130 132 127   131 133 128   182 184 179   184 185 180   187 188 183   138 139 134   132 133 128   152 152 148   165 164 160   150 149 145     0   0   0     0   0   0     0   0   0  
   0   0   0     0   0   0     0   0   0     0   0   0     0   0   0     0   0   0     0   0   0     0   0   0     0   0   0     0   0   0     0   0   0   148 143 140   183 178 174   209 204 200   189 184 179   130 125 121   106 101  97   163 160 157   219 218 216   213 212 210   154 153 151   165 164 162   101 100  96    96  95  91   171 170 166   197 196 191   190 189 184   184 183 178   180 179 174   158 157 152   108 109 103   116 121 115   147 154 147   153 160 153   139 144 138    80  85  80   155 160 154   118 123 117   185 190 184   152 155 149   124 126 121   102 104  99   150 152 147   134 136 131   109 113 107   100 105  99   151 156 150   209 214 208   118 123 117    49  54  47   114 119 113   175 180 174    93  98  92    89  94  88   136 141 135   123 128 122   109 114 107   125 129 124   116 118 113   149 151 146   190 191 186   168 169 164   180 181 176   161 162 157   137 137 132   154 153 149   172 171 167   172 171 167    99  98  94   102  99  96   182 178 175  
   0   0   0     0   0   0     0   0   0     0   0   0     0   0   0     0   0   0     0   0   0     0   0   0     0   0   0     0   0   0     0   0   0     0   0   0     0   0   0   195 194 190   160 158 155    87  86  82   146 145 141   221 220 217   202 201 200   192 192 192   114 114 112    78  78  76    87  87  86   179 179 176   211 212 207   194 195 190   177 178 173   167 168 163   156 157 152   121 122 117   148 149 143   168 173 167   134 139 135   132 137 133   157 162 158    72  77  73   160 165 161   150 155 151   186 191 187   192 197 193   131 136 132    98 100  97   139 141 138   147 149 146   153 157 154   106 111 107   129 134 130   159 164 160    65  70  66    67  72  68   144 149 146   198 203 199   126 131 127   100 105 101   137 142 138   125 130 126    97 102  98   115 119 115   142 144 141   180 183 179   173 175 172   119 119 117   149 149 147   181 181 179   152 152 149   140 139 137   150 150 148   168 167 165   128 127 125    63  60  59   193 192 188  
   0   0   0     0   0   0     0   0   0     0   0   0     0   0   0     0   0   0     0   0   0     0   0   0     0   0   0     0   0   0     0   0   0     0   0   0     0   0   0     0   0   0   128 127 125   116 115 113   217 216 214   212 212 210   177 177 177    98  98  98    75  75  75   203 203 203   151 151 149   150 150 148   146 146 145   190 191 186   193 194 189   192 193 188   134 135 130   142 143 138   173 175 170   174 176 173   138 143 140   140 145 141   178 183 179   110 115 111   121 126 122   165 170 166   182 187 183   197 202 198   152 157 152   153 155 152   162 164 161   147 149 146   156 160 157   119 124 120   136 141 137   125 130 126    62  67  63   137 142 138   187 192 188   204 209 205   134 139 135   120 125 121   144 149 145   135 140 136   112 117 114   102 106 102   139 141 138   176 178 175   135 138 135    71  71  69   121 121 119   190 190 188   171 171 169   165 164 162   165 164 162   171 169 168   171 170 168    80  77  76   188 186 184  
   0   0   0     0   0   0     0   0   0     0   0   0     0   0   0     0   0   0     0   0   0     0   0   0     0   0   0     0   0   0     0   0   0     0   0   0     0   0   0     0   0   0     0   0   0     0   0   0   217 219 217   155 157 156    87  88  89    51  52  54   171 173 172   222 224 223   160 162 161    98 100  98   123 125 122   162 164 161   207 209 206   203 205 202   157 159 155   138 140 135   159 161 156   159 161 158   172 173 171   180 182 179   166 170 166   121 126 122   110 115 111   147 152 149   180 185 181   190 195 192   169 174 170   154 159 155   162 167 163   160 165 161   134 139 135   115 121 117   147 154 149    90  96  91   108 114 110   168 174 170   172 178 174   178 184 180   127 133 129   106 112 108   132 138 134   119 125 121   125 131 127   108 113 110   130 134 133   134 138 137    90  94  93    75  77  76   122 124 123   190 192 191   182 183 183   170 170 170   195 195 195   168 168 168   170 170 170    90  89  89   137 136 134  
   0   0   0     0   0   0     0   0   0     0   0   0     0   0   0     0   0   0     0   0   0     0   0   0     0   0   0     0   0   0     0   0   0     0   0   0     0   0   0     0   0   0     0   0   0     0   0   0     0   0   0     0   0   0    78  79  81   102 103 105   161 162 164   158 159 161   153 155 154    90  92  91    72  74  73   111 113 110   149 152 149   139 141 138   123 125 122   131 133 129   140 142 139   146 148 145   155 157 154   164 166 163   155 159 155   115 120 116   100 105 101   129 134 130   154 159 155   158 163 159   143 148 144   131 136 132   138 143 139   142 147 143   132 138 134   103 109 105    71  77  73    71  77  73   114 120 116   136 142 138   111 117 113   146 152 148   114 120 116   112 118 114   136 143 139   118 124 120   130 136 132   121 127 125   127 132 130   122 126 125   112 115 115   122 125 124   132 134 133   158 160 159   152 154 153   131 131 131   159 159 159   158 158 158   173 173 173   102 102 102    79  79  79  
   0   0   0     0   0   0     0   0   0     0   0   0     0   0   0     0   0   0     0   0   0     0   0   0     0   0   0     0   0   0     0   0   0     0   0   0     0   0   0     0   0   0     0   0   0     0   0   0     0   0   0     0   0   0     0   0   0     0   0   0    64  68  69    75  79  80   118 122 123    95  99  99    68  72  71    70  74  73    69  73  73    55  60  58    60  65  61    75  80  76    74  79  75    86  88  85    85  87  86    91  93  92    95  97  96    79  81  80    75  79  78    94  98  97    95  99  98    97 100 100    95  99  98    89  96  94    87  93  91    91  97  95   102 108 106   108 114 112    45  51  50    61  67  65    84  90  88   105 111 109   138 144 142   144 150 148   103 109 107    98 104 102   119 125 123   103 109 107   119 125 123   122 128 126   128 134 133   116 123 123   107 113 113   128 133 133   121 127 127   133 138 138   119 123 124    84  88  89   105 109 110   112 113 115   133 134 136   110 111 113    54  54  54  
   0   0   0     0   0   0     0   0   0     0   0   0     0   0   0     0   0   0     0   0   0     0   0   0     0   0   0     0   0   0     0   0   0     0   0   0     0   0   0     0   0   0     0   0   0     0   0   0     0   0   0     0   0   0     0   0   0     0   0   0     0   0   0    59  63  64    83  87  88   109 113 114   119 123 123    72  76  74    28  32  31    24  29  27    30  35  31    33  38  34    32  37  33    21  23  22    21  23  22    34  36  35    49  51  50    43  45  44    33  37  36    41  45  44    40  44  43    43  47  46    56  60  59    54  60  58    42  48  46    40  46  44    85  91  89   102 108 106    26  32  30    37  43  41    46  52  50    57  63  61   109 115 113   167 173 171    85  91  89    52  58  56    67  73  71    62  68  66    77  83  81    76  85  82    88  97  96    91 100  99    61  70  69    68  77  76    70  76  76    92  98  98    81  87  87    63  67  68    91  95  96    89  93  94    93  95  97   112 113 115    77  79  80  
   0   0   0     0   0   0     0   0   0     0   0   0     0   0   0     0   0   0     0   0   0     0   0   0     0   0   0     0   0   0     0   0   0     0   0   0     0   0   0     0   0   0     0   0   0     0   0   0     0   0   0     0   0   0     0   0   0     0   0   0     0   0   0    38  43  46    56  61  63    95 101 101   111 117 117    56  63  63    15  20  18    23  29  27    28  34  32    25  31  28    28  33  32    38  40  39    26  26  26    21  21  21    25  26  25    24  26  25    22  24  23    25  27  26    20  24  23    21  27  25    36  41  39    37  43  41    24  30  28    21  27  25    53  61  58    53  62  59    13  22  19    21  30  27    31  40  37    23  32  29    50  59  56   158 167 164    57  66  63    12  21  18    20  29  26    21  30  27    28  37  34    27  36  33    41  51  50    58  68  67    37  47  46    43  53  52    34  44  44    48  57  56    53  62  60    47  55  55    60  68  67    48  54  54    44  50  50    84  90  90    94  98  99  
   0   0   0     0   0   0     0   0   0     0   0   0     0   0   0     0   0   0     0   0   0     0   0   0     0   0   0     0   0   0     0   0   0     0   0   0     0   0   0     0   0   0     0   0   0     0   0   0     0   0   0     0   0   0     0   0   0     0   0   0     0   0   0    33  38  41    31  36  39    37  43  43    48  54  54    33  39  39    21  27  25    26  32  30    32  38  36    32  38  36    30  34  33    39  41  40    36  36  36    37  37  37    37  39  38    32  34  33    23  25  24    21  23  22    23  27  26    21  26  25    25  31  29    27  33  31    24  30  28    25  31  29    23  31  28    20  29  26    31  40  37    23  32  29    20  29  26    17  26  23    46  55  52   120 130 127    41  50  47    13  22  19    18  27  24    18  27  24    17  27  24    18  29  25    26  38  36    30  42  40    32  44  42    54  64  63    39  49  48    36  46  45    26  36  35    22  31  30    43  52  51    39  48  47    35  43  42    46  52  52    49  55  55  
   0   0   0     0   0   0     0   0   0     0   0   0     0   0   0     0   0   0     0   0   0     0   0   0     0   0   0     0   0   0     0   0   0     0   0   0     0   0   0     0   0   0     0   0   0     0   0   0     0   0   0     0   0   0     0   0   0     0   0   0     0   0   0    38  43  46    27  32  35    31  36  39    30  36  36    31  37  37    35  41  41    37  43  43    43  49  49    46  52  51    35  39  38    37  39  38    35  35  35    35  35  35    32  33  32    34  37  35    39  41  40    35  38  37    31  35  34    31  36  34    27  33  31    28  34  32    33  40  38    34  43  40    37  46  43    33  42  39    38  47  44    28  37  34    24  33  30    19  28  25    36  45  42    91 100  97    36  45  42    26  35  32    30  39  36    31  40  37    28  37  34    27  39  35    22  35  34    15  29  29    15  29  29    44  56  56    45  58  58    39  51  51    36  48  48    36  46  47    62  72  73    47  57  58    43  53  54    43  53  54    49  58  57  
   0   0   0     0   0   0     0   0   0     0   0   0     0   0   0     0   0   0     0   0   0     0   0   0     0   0   0     0   0   0     0   0   0     0   0   0     0   0   0     0   0   0     0   0   0     0   0   0     0   0   0     0   0   0     0   0   0     0   0   0     0   0   0    57  62  65    58  63  66    40  45  48    26  32  33    21  27  27    23  30  30    32  38  38    43  49  49    46  52  50    33  39  37    37  39  38    43  43  43    46  47  47    41  43  42    41  43  42    44  46  44    39  41  40    39  43  42    45  51  49    40  45  44    41  47  45    50  56  53    46  54  51    42  51  48    47  56  53    52  61  58    54  63  60    46  55  52    41  50  47    55  64  61    80  89  87    30  39  36    23  32  29    26  35  32    32  42  39    32  41  38    29  38  37    26  37  37    35  47  47    22  34  34    39  49  50    60  70  71    55  65  66    43  53  54    48  58  59    92 102 103    62  70  72    50  58  60    48  56  58    60  69  68  
   0   0   0     0   0   0     0   0   0     0   0   0     0   0   0     0   0   0     0   0   0     0   0   0     0   0   0     0   0   0     0   0   0     0   0   0     0   0   0     0   0   0     0   0   0     0   0   0     0   0   0     0   0   0     0   0   0     0   0   0     0   0   0   106 116 115   113 123 122   121 131 130   101 111 110    47  57  56    44  54  53    80  90  89   103 113 112   107 117 116   105 114 111   137 142 137   113 118 112   114 119 113   117 122 116   118 123 117   130 135 129   131 136 130   118 123 117   119 124 118   123 128 122   147 152 146   140 145 139   120 125 120   122 130 126    89  98  93    63  72  67   124 133 128    81  90  85    75  84  81   110 118 115   144 153 150    98 107 105    57  66  65    42  51  50    74  83  82    95 104 103    78  87  86    83  92  90    95 104 101   107 116 113   109 119 116   104 112 110    65  74  71    87  96  93   113 122 119   126 135 132    95 104 101    73  82  79    84  93  90    92  99  97  
   0   0   0     0   0   0     0   0   0     0   0   0     0   0   0     0   0   0     0   0   0     0   0   0     0   0   0     0   0   0     0   0   0     0   0   0     0   0   0     0   0   0     0   0   0     0   0   0     0   0   0     0   0   0     0   0   0     0   0   0     0   0   0   134 144 144   137 147 146   148 158 157   124 134 133   125 135 134   127 137 136   130 140 139   137 147 146   142 152 151   153 162 159   168 174 170   166 171 165   149 154 148   141 146 140   147 152 146   150 155 149   160 165 160   182 187 181   168 173 167   149 154 148   151 156 150   174 179 173   168 174 167   184 192 187    92 101  96    40  49  44   156 165 160   148 157 152    68  78  74   116 125 122   167 176 173   131 140 138    80  89  88    94 103 101   132 141 140   135 144 143   149 157 156   160 166 164   144 150 148   146 152 150   159 165 163   131 137 135    87  93  91   139 145 143   142 148 146   143 149 147   125 131 129   109 115 113   122 128 126   111 117 116  
   0   0   0     0   0   0     0   0   0     0   0   0     0   0   0     0   0   0     0   0   0     0   0   0     0   0   0     0   0   0     0   0   0     0   0   0     0   0   0     0   0   0     0   0   0     0   0   0     0   0   0     0   0   0     0   0   0     0   0   0     0   0   0    80  90  89   118 128 128   147 157 156   113 123 122   141 151 150   107 117 116    80  90  89    91 101 100   101 111 110   103 112 109    99 105 101   147 153 149   132 138 134   113 120 116   112 118 114    88  94  90    98 104 100   145 151 147   125 131 127   103 109 105   121 127 123   165 171 167   153 159 155   158 166 161    68  77  72    29  38  33   116 125 120   187 196 191   129 138 134    76  85  82   182 190 187   112 121 118    59  68  67    88  97  96   111 120 119   106 115 114   120 129 127   105 114 111    90  98  96    79  88  85   117 126 123   141 150 147    78  87  84    93 102  99    80  89  86   103 112 109   122 131 128   103 112 109    99 108 105    82  91  88  
   0   0   0     0   0   0     0   0   0     0   0   0     0   0   0     0   0   0     0   0   0     0   0   0     0   0   0     0   0   0     0   0   0     0   0   0     0   0   0     0   0   0     0   0   0     0   0   0     0   0   0     0   0   0     0   0   0     0   0   0     0   0   0   110 120 119   148 158 156   134 144 143   102 112 111   140 150 149    78  88  87    40  50  49    58  68  67    84  94  93    84  93  92   110 119 116   159 164 163   112 118 116    70  76  74    64  70  68    51  57  55    71  77  75   116 122 120   109 115 113    86  93  91    96 102 100   131 137 135   131 137 134   120 128 123    38  47  42    59  68  63   104 113 108   147 156 151   182 191 188   162 172 168   187 196 193    96 105 102    88  97  96   104 113 112    73  82  81    45  54  53    41  50  48    53  62  59    61  70  67    59  68  65    65  74  71   119 128 125    72  81  78    50  59  56    39  48  45    68  77  74    89  98  95    56  65  62    44  53  50    52  61  58  
   0   0   0     0   0   0     0   0   0     0   0   0     0   0   0     0   0   0     0   0   0     0   0   0     0   0   0     0   0   0     0   0   0     0   0   0     0   0   0     0   0   0     0   0   0     0   0   0     0   0   0     0   0   0     0   0   0     0   0   0     0   0   0   142 151 151   156 165 164   125 134 133   107 116 115   145 154 153   110 118 117    88  97  96    95 104 103   126 135 134   130 140 139   136 144 143   158 167 164   108 117 114    77  86  83    85  94  91    90  99  96   112 121 118   133 142 139   135 143 141   110 119 116    61  70  67    86  95  92   119 128 125   135 142 138    91  97  93   116 122 118   147 153 149   130 136 132   165 171 169   187 193 191   173 178 176   118 123 122   145 151 151   151 157 157   118 124 124   108 114 114   103 112 111   106 116 113    86  97  93   115 126 122   122 133 129   138 149 145    90 101  97    69  80  76    87  98  94    89 100  96    73  84  80    46  57  53    48  59  55    75  84  81  
   0   0   0     0   0   0     0   0   0     0   0   0     0   0   0     0   0   0     0   0   0     0   0   0     0   0   0     0   0   0     0   0   0     0   0   0     0   0   0     0   0   0     0   0   0     0   0   0     0   0   0     0   0   0     0   0   0     0   0   0     0   0   0   148 157 156   153 162 161   135 144 143   122 131 131   126 135 134   114 123 122   129 139 138   139 148 147   143 152 151   123 132 131   124 133 132   139 148 147   131 140 139   135 144 143   147 156 155   146 155 154   149 158 157   142 151 150   131 140 139   133 142 141    79  88  87   109 118 117   131 140 139   140 147 145   156 162 158   118 124 120   134 140 136   147 153 149   150 156 154   160 166 164   139 144 143   139 145 144   153 159 159   149 154 154   135 141 141   146 152 152   151 158 157   139 149 145   135 146 142   151 162 158   155 166 162   149 160 156   106 117 113    72  83  79   112 124 119   126 138 133   113 124 120   118 129 125   126 137 133   130 139 136  
   0   0   0     0   0   0     0   0   0     0   0   0     0   0   0     0   0   0     0   0   0     0   0   0     0   0   0     0   0   0     0   0   0     0   0   0     0   0   0     0   0   0     0   0   0     0   0   0     0   0   0     0   0   0     0   0   0     0   0   0     0   0   0   155 164 161   167 176 173   134 143 140   117 126 123    92 101  98    76  85  82   109 117 115   134 143 140   124 133 130   102 111 110   112 122 121   112 122 123   113 123 124   104 114 115   104 114 114   110 120 121   110 120 121   113 123 124    89  99 100    99 109 110    88  98  99   110 120 121    99 108 108   106 113 111   145 151 147   121 127 123   147 153 149   146 152 148   105 111 108   109 116 113    62  68  67    92  98  97   117 123 123   137 143 143   129 135 135   119 126 126   127 136 135   120 131 127   135 146 142   138 149 145   144 155 151   149 160 156    98 109 105    27  37  33    42  52  48    77  88  84   102 113 109   118 129 125   121 132 128   110 121 117  
   0   0   0     0   0   0     0   0   0     0   0   0     0   0   0     0   0   0     0   0   0     0   0   0     0   0   0     0   0   0     0   0   0     0   0   0     0   0   0     0   0   0     0   0   0     0   0   0     0   0   0     0   0   0     0   0   0     0   0   0     0   0   0   159 168 165   185 194 191   111 120 117    66  75  72    41  50  47    26  35  32    45  54  51    75  84  81    84  93  90   105 114 112    88  98  99    88  98  99    91 101 102    55  65  66    40  50  51    60  70  72    70  80  81   114 124 125    92 102 103    70  80  81    70  80  81    66  76  77    53  62  62    72  79  77    85  92  88    90  96  92   122 128 124   126 132 128    92  99  96    58  64  62    60  67  64    61  67  66    93  99  99   133 139 139   121 127 127    97 103 103    98 105 104    64  74  71   100 111 107   142 153 149   125 136 132   127 138 134   115 126 122    60  71  67    22  33  29    41  52  48    78  89  85    78  89  85    82  93  89    95 104 101  
