P3
50 54
255
   0   0   0     0   0   0     0   0   0     0   0   0     0   0   0     0   0   0     0   0   0     0   0   0     0   0   0     0   0   0    82  89  86    79  85  83    72  79  74    66  73  69    61  67  63    47  53  49    55  60  57    88  90  87   106 106 105    92  92  91    75  74  70    70  69  65    86  87  82    97  99  94    99 101  98    87  89  86    84  85  85    98  98 100   108 108 111   106 105 110    98  98 103    77  75  80    76  75  80    91  87  93    61  59  63     0   0   0     0   0   0     0   0   0     0   0   0     0   0   0     0   0   0     0   0   0     0   0   0     0   0   0     0   0   0     0   0   0     0   0   0     0   0   0     0   0   0     0   0   0  
   0   0   0     0   0   0     0   0   0     0   0   0     0   0   0     0   0   0     0   0   0     0   0   0     0   0   0     0   0   0    55  65  58    49  58  53    46  55  50    37  46  41    40  48  43    61  67  63    91  95  94   108 110 109    92  93  93    68  67  67    67  65  65    82  80  80   118 119 114   121 123 118   108 110 107    92  94  92    96  98  98   110 111 114   114 115 120   113 114 120   109 109 116   114 113 121   119 118 125   116 114 122    83  82  89     0   0   0     0   0   0     0   0   0     0   0   0     0   0   0     0   0   0     0   0   0     0   0   0     0   0   0     0   0   0     0   0   0     0   0   0     0   0   0     0   0   0     0   0   0  
   0   0   0     0   0   0     0   0   0     0   0   0     0   0   0     0   0   0     0   0   0     0   0   0     0   0   0     0   0   0    30  40  32    27  37  29    34  45  39    35  44  39    40  49  45    67  73  71    87  91  90    79  81  80    51  52  53    37  35  38    44  42  45    57  55  56    58  59  54    56  58  53    46  48  46    58  60  59    94  95  97   111 112 116    97  99 104    84  87  94    98 100 109   102 103 114    81  83  92    61  61  70    53  55  64     0   0   0     0   0   0     0   0   0     0   0   0     0   0   0     0   0   0     0   0   0     0   0   0     0   0   0     0   0   0     0   0   0     0   0   0     0   0   0     0   0   0     0   0   0  
   0   0   0     0   0   0     0   0   0     0   0   0     0   0   0     0   0   0     0   0   0     0   0   0     0   0   0     0   0   0    32  39  32    31  38  31    36  42  38    33  40  35    34  40  38    38  42  41    38  42  41    46  48  47    73  73  75   100 100 102   100  98 101    81  79  81    75  75  75    83  83  81    75  77  76    70  72  71    74  75  77    60  61  65    39  42  47    39  43  48    47  50  57    48  51  60    31  34  43    38  41  50    58  61  70     0   0   0     0   0   0     0   0   0     0   0   0     0   0   0     0   0   0     0   0   0     0   0   0     0   0   0     0   0   0     0   0   0     0   0   0     0   0   0     0   0   0     0   0   0  
  67  72  68    69  71  66    72  74  69    64  66  61    57  58  53    61  63  58    57  62  56    54  61  54    40  45  39    37  42  36    53  55  50    47  49  46    36  38  35    44  44  42    42  42  42    45  44  44    61  61  63    68  68  70    88  88  90   113 113 115   119 118 123   125 124 129   119 118 124   131 128 135   127 126 131   101 100 105   107 107 110    87  87  89    61  62  64    38  39  41    32  33  35    44  45  49    78  82  84   111 114 119   112 117 121    99 104 110    98 103 109   105 108 115   107 111 114   115 116 120   122 126 129   109 113 116    86  92  94    99 105 105   123 132 131   128 137 136    83  93  89    45  56  50    29  39  30    35  45  36  
  37  38  34    52  52  48    65  66  62    57  57  53    45  47  43    52  53  49    53  57  52    39  43  38    43  48  42    61  62  57    65  65  63    64  63  61    58  57  56    46  44  43    52  48  48    51  47  48    61  59  62    64  62  65    77  77  79    96  97  99    97  99 102   104 105 110   112 111 119   116 113 122   124 124 130   119 118 124   127 127 131   108 108 111    92  95  94    73  76  76    73  76  75   100 102 103   113 118 118   112 116 119   112 117 121   117 122 126   115 120 126   113 118 124   120 123 128   121 124 127   121 126 129   110 114 117    97 105 105   111 119 118   120 131 127   109 119 116    86  97  91    59  68  63    37  47  39    38  45  37  
  90  90  88   104 102 101    96  95  93    66  63  63    41  41  39    43  42  40    42  43  40    37  38  33    49  51  46    56  56  53    42  42  40    45  44  42    55  52  53    48  44  45    47  43  44    51  48  49    71  69  72    79  78  81    91  91  93   101 103 105    94  98  99    97  99 103   107 109 114   106 107 115   124 126 131   121 123 128   118 121 124   109 111 115   120 124 125   115 119 120    99 103 104   118 122 123   110 114 116    95  99 102   103 108 112   108 113 117   101 106 112   104 108 113    93  95  99    92  93  97    88  91  94    78  82  85    67  72  73    66  72  72    62  71  68    52  61  58    69  78  73    61  68  64    44  53  45    42  48  41  
 123 120 120   118 112 115    90  87  87    57  52  55    40  37  37    45  42  42    40  39  37    48  48  45    46  46  43    43  42  40    52  51  48    59  56  56    53  49  50    46  42  43    67  64  65    71  69  70    92  92  94   101 102 104   109 112 113   113 119 119   105 110 111   108 112 115   100 105 109    89  94 100    97 101 105    92  96 101   101 106 109   106 111 114   111 116 118    84  89  91    72  77  79    91  96  98    74  79  82    49  53  56    52  57  61    52  57  61    46  49  56    52  55  60    56  56  60    43  44  46    36  37  39    38  40  42    37  41  41    33  37  36    34  41  38    43  50  48    43  50  46    52  58  54    46  53  46    45  50  44  
 125 120 124   110 105 109    88  84  87    64  59  63    53  48  51    59  54  58    72  71  71    78  77  75    62  61  59    62  59  58    92  89  89   102  98  99    94  90  91    99  95  96    94  92  93    90  88  89    97  98 100    96 100 101   100 106 106   110 115 115   109 117 117   121 128 131    79  88  90    67  76  81    65  74  77    59  67  70    88  97  98   110 118 120   116 123 126    87  95  97    92  99 101    88  93  96    82  87  90    82  87  90    72  77  81    48  53  57    61  64  71   110 112 117   111 111 116    77  75  78    41  41  43    38  38  40    46  49  48    39  43  42    37  41  39    51  55  54    46  52  48    56  61  57    57  62  56    54  56  51  
 124 122 127   125 123 128   113 111 116    81  79  84    67  65  70    80  78  81   112 110 111    84  80  81    67  63  64    83  79  80   102  97  99   104  98 101   110 105 109   125 120 125    95  93  96    89  87  90    97  98 100    96  99 101    97 103 103   101 110 109   100 110 109   112 122 123   118 129 131   109 121 125    97 108 110    81  91  93   107 118 119   120 130 132   132 142 143   130 138 141   129 137 140   114 122 125   126 131 135   148 153 156   133 136 141    91  94  99    86  89  96   116 117 122   113 111 116    90  85  89    48  46  47    32  32  32    44  44  44    44  46  45    38  40  37    45  47  44    59  64  60    58  60  57    59  61  56    57  58  53  
 107 109 113   117 119 122   107 109 113    86  88  92    88  90  93   110 110 114   112 110 113    58  54  55    41  37  38    73  69  71    94  88  91    90  84  87    87  82  86    87  82  86    97  95  98    99  97 100   110 111 113   109 113 114   105 111 111    98 107 106    87  97  96    89  99 100    92 106 107    83  97  99    73  84  86    70  81  84   101 112 114   109 120 123   110 120 123   106 115 118    99 107 111    89  96 100    77  82  87    72  77  82    85  88  94   102 105 111   103 106 112    90  91  96    93  90  94    88  83  86    57  54  55    49  47  48    62  62  62    50  50  50    37  39  36    46  48  45    57  58  55    48  50  47    50  50  46    51  52  48  
  70  75  78    69  73  76    55  60  63    57  61  64    68  72  75    71  74  77    71  69  74    64  59  64    46  41  45    47  42  46    75  70  74    96  90  94    93  88  92    86  81  85   106 104 107   102 100 103    96  97  99    88  92  93    77  83  83    67  76  75    70  80  79    78  88  88    76  89  90    75  87  89    73  84  88    80  90  95    99 110 114   115 125 130   108 117 122    91  99 105    54  61  67    46  53  59    41  46  52    60  65  71    99 102 109   116 119 126   107 110 115    99 100 105   100  95  99    93  87  89    70  66  67    89  87  88   111 111 111    83  83  83    59  61  58    63  65  62    55  57  54    54  56  53    54  54  52    55  55  53  
  59  67  67    53  61  62    49  57  57    46  54  54    48  55  55    55  59  62    78  77  82    88  84  91    70  67  72    53  48  54    74  69  75   110 105 111   118 113 118   106 101 107   102 100 103    83  81  84    70  71  73    75  79  80    79  85  85    75  82  81    73  82  80    79  89  88    81  91  92    84  94  96    90  99 104   101 109 115   113 122 129   116 123 131    96 104 111    73  80  88    78  85  92    96 101 109   105 109 117   104 109 117   108 112 118   106 110 116   103 106 111   108 109 113   104 101 103   106 102 102    96  95  93    96  95  94    93  93  91    93  93  92    93  95  92    70  72  69    56  58  55    57  59  55    57  57  55    56  56  54  
  49  55  53    40  46  46    53  59  57    55  61  61    52  58  56    59  63  64    76  75  81    99  95 102   105 103 108   104 102 107   117 115 120   130 125 131   120 115 121   105 100 106    89  87  90    98  96  99    98  99 101    89  90  92    80  84  85    83  89  89    91  98  96    95 101 101    95 101 104   103 109 113   110 116 122   110 115 121   101 106 115    92  96 105    82  86  95    75  79  88   113 117 126   125 129 138   119 123 132   102 106 115    95 100 106    94  99 105    96  99 104   103 104 108   118 116 117   109 105 104    95  94  92    95  94  92    83  83  81    76  76  74    80  81  79    63  65  63    54  56  53    57  59  56    61  62  59    65  65  63  
  55  57  54    43  44  43    44  46  43    40  41  40    35  37  34    46  46  48    58  60  65   100  99 107   122 121 127   122 119 126   127 124 131   128 125 132   106 102 107    79  74  80   110 105 111   114 112 117   109 107 110    93  93  95    86  86  88    92  96  97   102 105 105   104 108 109   112 116 119   107 109 114    97  99 106    84  86  93    72  75  84    71  74  83    83  85  97    97  99 111   102 104 116    96  98 110    81  84  93    79  82  91    96 101 108   106 111 117    94  99 103    84  88  91    83  83  83    80  79  77    63  63  62    80  80  78    99 101  98    87  89  86    71  76  72    61  66  62    72  77  74    71  73  70    68  70  67    68  68  66  
  86  84  82    66  64  61    41  39  37    34  32  29    51  49  47    73  72  72    99 100 105   112 113 120   120 122 127   120 119 126   107 106 112    84  81  88    74  72  77    86  81  87   118 113 119   105 100 106    96  93  97   104 102 105   114 114 115   115 115 117   109 112 111   108 109 111   112 112 117   104 102 108    97  97 105    99  99 107   102 101 111   101 100 112    99 100 112   103 104 117   106 107 120    92  93 106    72  74  84    72  75  84    85  90  96    83  88  94    64  69  73    54  58  61    59  59  59    69  69  66    54  54  52    49  50  48    55  58  55    58  61  58    64  70  66    62  68  64    61  66  62    69  74  70    81  86  83    91  94  91  
 103  98  96    93  87  86    66  61  58    66  60  59    93  88  85   110 106 107   117 117 122   123 125 131   120 122 128   105 105 112    77  76  81    52  49  55    61  59  64    95  93  98   114 110 116   115 112 117   112 110 113   106 105 107   104 104 105   109 110 111   112 114 113   112 113 115   104 104 108   103 101 107   110 109 116   122 121 128   122 121 131   110 109 120    98 100 110    98  99 110   101 102 114   106 107 118   106 109 119   108 112 119   100 105 110    78  83  88    66  71  75    75  79  80    99 101  98    75  76  72    53  55  52    48  50  47    37  40  37    51  56  52    76  82  78    62  68  64    45  51  47    64  69  65    85  90  87    95  99  96  
  99  95  96    94  91  92   104 102  99   120 117 118   129 126 124   127 125 126   117 116 118   106 104 106    85  81  86    64  60  65    49  45  49    42  40  44    68  66  70   110 107 111   124 122 125   120 119 122   116 115 118   115 116 117   113 114 116   101 104 107    81  85  85    65  69  70    69  73  74    63  67  68    83  87  88   111 115 117   109 113 116    92  96 101    95 100 105   111 116 121   110 115 119   121 125 130   127 131 136   121 129 130   114 122 123   108 116 117   109 116 116   114 119 118   109 111 109    71  71  70    48  48  47    55  56  55    55  56  54    53  55  52    61  64  59    64  67  62    63  68  62    74  78  72    86  90  84    82  86  78  
 130 130 130   130 129 129   142 141 141   139 139 139   116 116 116    97  95  96    77  74  73    65  60  60    54  48  50    57  51  53    60  56  58    57  53  55    73  71  73   107 105 106   110 110 112   117 117 119   119 120 122   111 112 114    95  99 102    82  86  89    69  74  77    60  65  68    66  74  72    65  73  71    84  93  90   107 115 113   106 114 112    98 106 104   107 115 113   122 130 128   114 122 120   101 110 107    88  97  94    76  85  82    57  66  64    39  48  46    40  48  46    53  59  57    46  46  46    47  46  47    44  43  43    41  39  40    47  46  44    63  63  61    76  77  72    81  82  77    78  79  73    66  67  61     0   0   0     0   0   0  
  84  84  82    71  70  68    74  73  71    73  71  69    62  61  59    58  56  54    52  47  49    51  45  47    59  53  55    83  76  79    98  94  95    91  87  88    89  86  87   106 104 105   102 102 105    98  98 100    79  79  82    59  60  62    60  64  67    85  89  92   103 108 110   107 112 114   104 110 108    98 103 102    89  95  93    84  90  88    80  86  84    73  79  77    65  71  69    57  63  61    49  55  53    32  37  36    22  28  26    32  38  36    44  50  48    47  53  51    54  60  58    66  70  69    53  51  54    52  47  51    37  33  34    26  22  23    45  41  40    77  72  71    81  77  74    63  58  56    52  49  44    44  40  36     0   0   0     0   0   0  
  43  42  39    40  38  35    45  43  41    46  42  41    44  42  38    52  48  46    53  49  50    56  51  53    68  63  65    95  89  91   112 108 109   104 101 102    97  95  96   107 106 107    79  79  81    59  60  61    40  41  44    44  45  48    72  76  79   102 106 109   108 113 116    99 104 105    83  88  86    87  90  88    75  81  78    61  65  63    54  59  57    50  54  52    46  52  49    51  54  52    69  75  72    76  79  78    71  77  74    55  59  57    40  46  43    49  52  50    71  77  74    96  97  97    55  50  54    54  47  52    57  50  53    70  63  66    82  75  76    81  72  74    62  54  52    44  35  34    51  43  40    46  37  35     0   0   0     0   0   0  
  48  44  41    54  50  47    59  55  51    54  49  45    54  50  46    70  65  62    72  68  67    67  63  64    65  61  62    78  74  75    89  87  88    84  82  83    81  81  83    94  94  96    90  91  93    86  87  89    93  94  98   112 113 117   125 129 132   125 129 132   114 118 121   103 107 108    78  81  80    92  93  90    79  82  79    60  61  58    52  56  52    48  49  46    46  50  46    60  61  59    79  82  79    73  74  71    74  78  74    90  91  89    94  98  94    80  81  79    57  60  57    46  46  45    73  68  72    93  86  90   113 106 110   118 109 114   100  91  94    77  66  70    64  54  55    63  52  53    71  60  60    71  60  59     0   0   0     0   0   0  
  55  50  46    64  59  55    64  59  54    53  46  41    55  49  43    77  72  68    82  78  77    67  64  65    54  51  52    63  61  62    84  83  85    94  93  95   102 102 104   119 119 121   118 119 123   120 121 124   118 122 125   115 118 121   109 112 117   106 109 114   108 111 116   113 115 118    83  83  82   101 100  97    80  81  77    49  49  45    48  49  45    50  49  46    39  40  36    38  38  34    43  44  40    34  33  30    49  51  46    92  91  88   118 119 115   113 113 109   102 104  99   104 104 101   113 110 113   120 114 120   119 113 119   109 103 108   101  95  99   104  97 101   114 105 107   122 110 114   111  99 103   124 112 114     0   0   0     0   0   0  
  50  45  41    54  49  45    55  48  42    48  40  35    64  57  51    96  91  87   122 118 117    95  93  94    67  65  66    68  66  67    88  88  90    98  98 100   104 104 106   114 114 116   109 109 114   103 104 108    84  88  91    69  73  76    68  71  76    73  76  81    66  69  74    52  53  57    65  65  63   116 115 111   109 108 104    57  56  52    36  35  31    38  37  33    39  38  34    45  44  40    42  41  37    43  42  38    47  46  42    54  53  49    60  59  55    72  71  67    92  91  87   109 108 106    88  88  90    87  85  90    96  94  99   114 112 117   125 124 126   125 122 126   124 118 122   125 119 121   130 123 126   130 120 123     0   0   0     0   0   0  
  73  68  64    59  54  50    52  45  39    53  46  40    82  75  69   123 118 114   115 113 114   111 111 113   130 130 132   116 116 119   123 124 126   105 106 108    37  39  42    42  43  47    56  57  61    43  44  48    62  65  70   100 103 108   107 110 115    92  95 100    88  92  97    97  98 102    98  98  98   124 123 121   135 134 132   102 101  99    55  54  52    40  39  37    42  41  39    39  38  36    32  32  29    43  42  40    38  37  35    43  42  40    44  43  41    37  36  34    49  49  47    60  60  60    47  52  53    75  80  83   109 115 118   119 124 127   112 117 120   119 120 124   124 126 129   119 119 121   118 116 119   127 122 126     0   0   0     0   0   0  
  83  78  75    58  53  50    56  51  45    75  68  63    83  76  71    77  72  68    70  68  69    78  79  80    86  87  89    82  82  84   103 104 107   106 107 110    69  71  75    66  68  71    50  52  56    44  46  50    61  63  68    92  94  99   108 111 116   112 115 120   113 116 122   112 113 117   128 128 128   116 115 114   121 119 118   121 120 119    90  88  87    57  56  55    58  57  56    75  74  73    89  88  86   117 115 114    98  96  95    60  58  57    39  38  37    39  37  36    45  43  42    32  32  33    36  43  43    44  54  55    75  85  87   106 115 117   114 123 125   115 122 125   117 123 126   117 122 125   119 121 125   118 120 124     0   0   0     0   0   0  
   0   0   0     0   0   0     0   0   0     0   0   0     0   0   0     0   0   0     0   0   0     0   0   0    85  86  88    95  96  98   111 112 116    98  99 103    83  87  90    82  86  89    78  81  86    87  90  95   107 110 115   118 121 126   113 116 121   111 114 119   113 116 123   112 113 118   109 109 111   106 104 106   104 103 104    95  93  95    81  80  80    83  81  83    94  93  93    98  96  98    96  95  95    98  96  98    79  78  79    72  70  72    64  63  63    47  45  47    49  48  49    53  54  56    40  49  51    35  46  48    60  73  74    98 109 111   110 121 123   107 117 119   108 118 120   112 121 123   109 116 119   108 115 118     0   0   0     0   0   0  
   0   0   0     0   0   0     0   0   0     0   0   0     0   0   0     0   0   0     0   0   0     0   0   0   112 116 118   131 134 137   122 125 129    84  87  90    83  86  91    88  92  96    90  93  98    90  93  98   103 106 111   115 119 124   114 117 124   110 113 120   110 111 119   106 107 112   105 106 110   103 102 106   104 105 106    97  96 100    75  75  77    62  61  65    60  61  62    59  58  63    70  71  73    93  92  96    99  99 101   109 108 112   103 103 105    87  85  90    92  92  94   101 104 107    98 106 109    92 101 105   101 113 116   114 124 128   108 118 122   101 110 115   101 111 115   103 111 116   107 115 120   107 114 119     0   0   0     0   0   0  
   0   0   0     0   0   0     0   0   0     0   0   0     0   0   0     0   0   0     0   0   0     0   0   0   100 104 107   100 104 107    79  83  86    66  70  73    98 101 106   112 116 121   121 124 129   111 114 119   112 115 120   118 121 126   115 118 125   111 114 121   112 112 120   107 107 114   111 112 117   101 102 106   103 104 108   102 103 107    79  80  84    53  54  58    45  46  50    47  47  51    85  86  90    99 100 104    88  89  92    83  84  88    88  89  93    93  94  98   109 110 114   112 115 120   119 124 130   114 121 127   114 121 127   106 114 119    94 101 106    95 102 108   101 108 114   100 107 113    99 106 112    93 100 106     0   0   0     0   0   0  
   0   0   0     0   0   0     0   0   0     0   0   0     0   0   0     0   0   0     0   0   0     0   0   0    69  74  77    49  54  57    38  42  44    53  57  60    90  93  98   103 106 111   106 109 113   108 111 115   111 114 121   107 110 117   100 103 110   104 107 114   103 103 111    90  90  97    77  78  84    76  77  82    73  74  79    67  68  73    67  68  73    84  86  91    88  89  94    73  74  79    78  79  84    59  60  65    40  41  46    75  76  81   117 119 124   123 125 130   119 120 125   111 112 117   108 110 118    94  97 104    85  90  96    82  86  93    81  86  92    90  95 101   100 104 110    97 102 108   103 107 115   103 107 115     0   0   0     0   0   0  
   0   0   0     0   0   0     0   0   0     0   0   0     0   0   0     0   0   0     0   0   0     0   0   0    43  45  46    40  43  46    53  56  57    77  80  82    97 100 103   104 108 110    97 101 103    97 102 104    95  99 102    93  96  99    95  98 101    94  96  99    77  78  81    53  54  59    79  79  88    73  73  82    77  78  86    81  82  90    91  93  99   109 111 116   110 111 116    91  94  99   103 107 111    89  93  97    60  63  68    72  75  79   105 110 114   115 120 124   109 113 117    91  95 100    59  60  68    46  46  54    39  42  49    52  54  61    78  81  88    94  97 104    96  99 105   107 110 116   102 107 113   110 115 121     0   0   0     0   0   0  
   0   0   0     0   0   0     0   0   0     0   0   0     0   0   0     0   0   0     0   0   0     0   0   0    46  45  45    47  47  48    61  63  62    82  84  84    91  95  95    88  92  92    79  85  84    86  92  91    92  96  95    92  96  95    82  86  83    59  61  60    57  59  57    80  81  84    88  88  98    85  85  98   101 104 114   106 108 117    93  96 103    87  90  95    80  83  87    74  79  82   101 106 109   112 117 120    94  99 102    69  74  77    57  65  67    70  78  81    81  89  92    62  67  71    52  55  62    51  51  59    48  48  56    56  56  64    92  95 102    94  97 104    69  72  77    99 102 107   109 114 118   105 110 114     0   0   0     0   0   0  
   0   0   0     0   0   0     0   0   0     0   0   0     0   0   0     0   0   0     0   0   0     0   0   0    99  98  98    91  91  91    88  90  89    87  89  88    70  74  73    55  60  59    36  42  40    34  40  38    46  51  50    69  73  74    87  91  89    98 100 101   102 104 102   103 104 107    95  95 105   102 101 114   104 105 115    95  93 104    75  76  83    63  65  70    71  73  76    89  91  94   104 109 110   104 108 110   109 114 115    95 100 103    59  64  66    78  83  86   119 124 128    97 101 105    55  56  63    71  71  79    89  89  97    93  93 101    98 101 107    90  93  98    74  77  82    92  95 100   112 117 121   101 106 110     0   0   0     0   0   0  
   0   0   0     0   0   0     0   0   0     0   0   0     0   0   0     0   0   0     0   0   0     0   0   0   113 113 113    73  73  73    52  54  53    52  56  55    63  69  67    84  90  88    84  90  88    66  72  72    65  71  71    84  89  91   108 112 113   132 136 139   133 134 136   109 109 114   111 109 120   120 118 131   103 101 112    83  82  90    67  66  72    52  51  57    70  69  74    99  99 104    82  82  84    59  60  62    61  61  63    76  76  78    73  72  77   104 104 108   132 132 138    95  94 100    52  52  59    82  82  90   121 121 129   130 130 138   117 120 125   109 112 117   107 110 115   112 115 120    99 104 108    92  97 101     0   0   0     0   0   0  
   0   0   0     0   0   0     0   0   0     0   0   0     0   0   0     0   0   0     0   0   0     0   0   0    65  65  65    36  36  36    44  46  45    64  68  67    87  93  93   116 122 122   116 126 125    97 105 107    80  85  88    60  65  69    52  56  59    75  78  83    97 101 104    94  96 101    93  91 102   109 107 118    97  96 104    98  97 105    88  85  92    54  52  57    48  46  49    52  50  53    44  42  43    47  46  46    46  45  47    59  56  59    65  63  67    62  60  65    61  58  65    43  40  47    38  38  46    40  43  50    53  56  61    73  76  81    86  89  94   100 103 108   107 110 115    93  96 101    98 103 106    99 104 106     0   0   0     0   0   0  
   0   0   0     0   0   0     0   0   0     0   0   0     0   0   0     0   0   0     0   0   0     0   0   0    83  83  83    77  77  77    90  94  93    99 103 102    86  92  92    76  82  82    87  96  97    86  94  96    83  88  92    78  83  87    83  86  92    97 100 105   103 106 111    98 101 108   108 109 117   113 113 120    92  93 100   101 100 106    90  90  94    62  62  64    67  67  68    62  61  61    63  64  63    76  75  75    64  62  63    70  66  70    79  78  81    68  64  70    68  64  70    78  76  82    80  82  87    82  85  92    81  84  89    94  97 102    99 102 107   101 104 109   109 112 117    99 103 107   106 111 114   107 112 115     0   0   0     0   0   0  
   0   0   0     0   0   0     0   0   0     0   0   0     0   0   0     0   0   0     0   0   0     0   0   0   114 114 114   101 101 101    85  88  87    82  86  85    81  87  87    72  81  80    98 106 108   107 115 117   108 113 117   110 115 119   123 126 132   124 127 134   115 118 125   114 117 124   108 112 117   107 110 114    91  95  99   108 112 114    97 101 101    80  84  81   107 110 108   103 106 103   107 111 107   106 108 106    93  94  93   108 108 109   122 123 124   115 114 118   120 119 122   126 126 131   113 115 120   119 122 127   106 109 114   109 112 117   103 106 111    87  90  95    95 100 103    97 102 105    94  99 102    82  87  90     0   0   0     0   0   0  
   0   0   0     0   0   0     0   0   0     0   0   0     0   0   0     0   0   0     0   0   0     0   0   0    75  74  75    82  82  82    76  78  77    73  77  76    93  99  99   104 111 110   114 119 122    85  91  94    75  80  83    91  96 100   112 115 120   121 123 129   115 116 122    98 101 106    85  92  94    77  85  86    93 100 100   110 118 116    86  95  91    75  81  75   101 107 101   110 116 110   117 123 117   102 108 104   109 114 111   124 129 127   118 123 121   117 122 122   118 121 123    98 101 104   101 105 109   104 108 112    98 103 107   100 105 109   103 107 111    99 104 107   100 105 108    97 102 106    86  91  92    70  76  77    62  66  67    64  69  69  
   0   0   0     0   0   0     0   0   0     0   0   0     0   0   0     0   0   0     0   0   0     0   0   0    44  40  41    55  53  54    78  79  79   102 104 103   118 123 124   111 115 116    93  99 100    69  73  76    72  78  78   101 105 108   111 114 118   108 109 114    94  95 100    76  77  81    90  99  98    78  87  84   111 122 118   143 152 147   108 118 110    65  74  66    65  75  67    79  89  81    89  99  91    86  95  88   103 113 105   113 121 117    99 107 104    98 107 104   103 111 110    92  97  98    84  89  92    97 102 106   106 111 115   106 111 115   107 112 115   110 115 119   108 113 116   101 106 109    84  90  90    96 102 102   110 114 115   113 117 118  
   0   0   0     0   0   0     0   0   0     0   0   0     0   0   0     0   0   0     0   0   0     0   0   0    58  54  55    60  58  59    86  84  85   102 101 101    96  98  97    69  71  70    60  64  63    55  56  57    65  69  67    84  85  86    79  80  81    62  61  63    48  48  50    39  39  38    38  44  40    51  57  52    84  92  87   101 108 101    75  82  75    53  60  52    50  59  50    47  57  48    39  49  39    42  52  44    44  55  47    42  53  47    37  48  44    40  51  47    49  59  58    58  67  66    48  56  58    78  86  88   107 116 117   117 125 127   118 123 126   115 120 123   107 113 113    97 103 103    78  82  83    71  76  76    77  81  80    96 100  99  
   0   0   0     0   0   0     0   0   0     0   0   0     0   0   0     0   0   0     0   0   0     0   0   0    60  53  56    67  63  64    76  72  73    63  60  61    52  52  51    39  39  38    45  46  45    47  46  44    48  49  46    47  47  44    41  41  38    38  36  33    37  36  33    37  36  33    38  39  34    52  53  48    75  75  70    76  80  73    58  62  55    47  52  42    46  52  42    42  49  38    41  47  37    55  61  53    57  66  57    59  68  61    67  75  71    56  67  63    42  53  49    44  54  53    42  50  52    54  62  64    70  78  80    82  90  92    87  93  95    87  93  95    90  96  96    94 100 100    89  93  94    72  76  76    53  57  56    48  52  51  
   0   0   0     0   0   0     0   0   0     0   0   0     0   0   0     0   0   0     0   0   0     0   0   0    82  72  76    71  64  66    57  49  52    40  35  37    46  44  42    47  46  43    44  44  41    47  46  41    43  43  38    44  42  37    50  48  42    52  48  41    49  45  38    52  47  41    48  42  37    53  47  43    68  62  57    79  75  68    71  67  59    53  51  41    45  44  34    48  48  39    52  54  44    63  66  58    56  61  54    49  53  47    53  58  53    46  53  50    44  52  49    59  67  66   107 115 116    84  92  94    63  71  73    55  63  65    53  62  61    56  65  64    70  76  76    85  91  91   109 113 112   110 114 113    92  96  95    58  62  61  
   0   0   0     0   0   0     0   0   0     0   0   0     0   0   0     0   0   0     0   0   0     0   0   0   115 102 109   116 105 111    96  87  90    68  62  64    60  54  54    47  44  40    50  47  43    39  37  30    35  32  26    55  51  43    72  68  60    57  50  41    41  35  26    53  45  37    82  69  66    84  70  68    74  61  56    61  50  44    58  46  40    56  47  40    53  45  36    50  44  36    62  59  50    69  67  60    62  62  57    51  51  47    46  48  43    42  45  41    45  50  49    61  65  66    97 106 105    82  91  93    68  76  78    65  73  75    75  84  83    87  96  95    94 100 100    94 100 100   104 108 107    92  96  95    68  72  71    47  51  49  
  96 100 105   112 115 120   128 131 138   118 121 130   102 105 114   103 101 112   115 108 116   117 106 114   115 105 113   131 121 129   123 116 120   100  94  97   101  97  98   107 103 102    99  95  92    69  66  61    64  59  54   103  98  92   130 123 117   101  94  88    86  79  71   116 107 100   138 124 123   112  96  96    82  66  65    69  56  52    68  54  51    59  49  44    63  52  46    80  71  64    78  71  63    71  66  60    60  56  50    50  48  43    44  44  40    41  40  38    38  38  36    36  38  37    39  45  43    48  57  56    54  63  61    61  67  65    78  87  84    99 105 103    91  97  96    67  73  71    59  63  62    53  57  56    48  52  51    50  54  53  
 108 109 114   120 121 126   124 127 134   119 122 131   115 119 130   119 122 133   124 124 134   104 104 112   129 129 137   114 113 121    97  97 103   122 121 127   122 121 126   126 125 128   140 138 141   138 135 136   135 129 131   143 137 138   142 136 136   111 105 105   100  92  90   124 115 117   111 101 105    82  72  76    67  57  61    67  58  59    59  51  49    53  45  43    61  53  50    70  63  57    66  61  55    96  91  85    81  76  70    48  43  39    46  42  37    45  41  38    41  36  33    51  50  46    69  74  67    76  83  76    69  76  68    64  69  62    69  76  69    65  70  64    61  66  62    74  79  74    64  68  67    61  65  65    66  70  71    71  75  76  
 102 103 107    90  90  98    88  91  98    98 101 110   108 112 123   112 115 127   113 117 126   106 109 118   109 112 121   116 119 128   114 116 124   114 114 122   114 115 120   111 110 116   103 102 107    89  87  92    69  65  68    60  55  59    57  51  55    44  38  42    48  42  44    75  67  72   110 104 110    95  89  96    83  77  81    70  65  69    55  50  52    55  49  49    65  61  58    70  65  62    80  75  70   100  96  90    95  91  85    63  58  54    43  39  35    48  43  40    54  50  46    54  52  47    85  88  80    74  80  71    67  73  64    82  87  80    91  96  89    65  70  64    51  56  50    73  78  74   103 108 107   107 111 112   100 104 105   103 107 108  
  90  91  96    91  91  98    96  99 106   102 105 114   103 107 117   104 108 119    95  99 108   114 118 127   108 112 121   103 107 116   104 108 114    97  99 106    96  98 103    98  98 104    94  94  99    95  93  98    86  85  88    75  71  75    64  60  64    58  53  57    70  65  66    92  86  90   116 111 118   111 106 113   111 107 114   114 109 114   112 109 111   118 114 114   118 115 113   109 105 102   106 104 100   108 104 100   117 115 110   100  96  92    50  48  44    34  30  27    43  40  37    40  39  35    43  45  39    38  43  37    40  45  39    71  76  71   107 112 106    98 103  98    72  77  72    70  75  72    86  90  90    87  91  93    97 101 103    84  88  91  
  72  73  78    93  94  99   110 113 120   111 114 123   105 109 118   104 108 118    97 104 112   110 116 124    89  95 103    45  49  58    67  72  78   107 110 117    98 101 106   101 102 107   115 116 120   118 117 122   114 114 116    98  97  99    80  79  81    80  77  81    96  93  94   110 107 111   114 110 117    99  96 104    96  95 103   106 102 109   109 108 112   116 113 115   120 119 119   119 117 115   119 118 116   109 107 105   123 124 119   121 119 117    74  74  71    56  54  52    58  57  55    45  44  42    43  47  43    56  62  57    64  69  65    84  90  87   116 121 117   113 119 117    80  85  83    58  64  63    51  56  57    58  62  66    58  63  66    60  64  68  
  83  84  89    86  88  93    96  99 106   108 111 119   112 117 123   109 113 122   114 121 129   124 131 139   112 119 127    52  59  67    78  83  89   136 140 147   119 122 127   119 122 127   121 125 128   110 111 115    99 100 102    88  88  90    75  75  77    79  79  81    89  89  89    89  88  91    84  83  91    76  74  85    79  79  87    84  82  90    72  73  78    73  72  76    92  93  95   113 113 112   117 119 116   117 117 115   121 123 120   120 120 118   114 116 113   126 125 125   120 122 121    94  96  95    86  90  89    73  79  77    62  68  66    80  87  86   110 115 113    99 104 104    68  74  74    60  65  67    89  94  97    75  80  84    84  89  93   115 120 126  
  94  95 100    91  92  97    95  98 103   107 110 115   112 117 121   112 117 122   101 108 116   119 126 134   123 130 138    99 106 114   104 109 115   116 121 128   104 109 114   110 114 118   101 105 108    94  98 101   103 107 108   109 110 112    97  97 100    92  93  95    93  94  94    84  85  87    74  74  82    87  87  99   105 108 117   106 106 114    86  89  94    85  86  90   100 104 105   113 114 116    97 102 101   112 114 113   109 113 112   111 113 112   116 120 119   109 111 112    98 102 103   103 107 109   109 115 115    93  99  99    83  89  89    98 103 106   104 110 111    68  73  76    42  47  50    55  60  64    79  84  88   100 105 109   115 120 124    86  91  97  
  83  84  89    98  99 104   112 115 120   115 118 122   111 116 120   110 115 119    99 106 112    99 105 113    97 103 112   104 110 118   108 113 119   102 107 113   101 106 110     0   0   0     0   0   0     0   0   0     0   0   0     0   0   0     0   0   0     0   0   0     0   0   0     0   0   0     0   0   0     0   0   0     0   0   0     0   0   0     0   0   0     0   0   0    79  83  87    81  85  87    76  80  80    87  92  91    87  92  91    85  89  88    72  77  77    39  43  44    36  41  42    75  79  82   116 122 125   107 113 116    92  98 101    72  78  81    46  52  55    30  36  39    56  62  66   102 108 111   101 106 111   109 114 119    95 100 106    82  88  94  
 120 121 126   133 134 139   125 129 132   114 118 121   111 116 119   113 118 122    94  99 105    80  84  93    92  96 105    94  98 107    88  93  99    98 103 109    99 104 108     0   0   0     0   0   0     0   0   0     0   0   0     0   0   0     0   0   0     0   0   0     0   0   0     0   0   0     0   0   0     0   0   0     0   0   0     0   0   0     0   0   0     0   0   0    84  89  92    89  94  97    83  89  89    75  81  81    58  64  64    43  49  49    46  52  52    69  75  75    93  98 101   106 111 114   110 118 121    96 104 107    81  89  92    63  71  74    54  62  65    75  83  86   106 114 117   117 125 128   117 124 130   110 117 123   103 110 116   101 108 114  
 118 119 124   108 109 114    79  83  86    80  84  86   106 112 113   123 128 131   114 117 124    93  97 106   102 105 114   105 108 117    97 101 108    97 101 107    93  97 102     0   0   0     0   0   0     0   0   0     0   0   0     0   0   0     0   0   0     0   0   0     0   0   0     0   0   0     0   0   0     0   0   0     0   0   0     0   0   0     0   0   0     0   0   0    95 100 103    85  91  92    71  77  75    62  68  67    55  61  60    66  72  71    97 103 103   122 128 128   120 126 127   104 109 112    86  94  97    99 107 110   105 113 116   103 111 114   107 115 118   114 122 125   113 121 124   108 116 119   106 113 117    99 107 111    96 104 108    99 106 110  
  71  72  77    45  46  50    35  39  40    68  72  73    90  96  94    75  80  81   104 107 114   103 103 113   117 120 129   121 121 131   113 116 123   116 116 124   115 118 123     0   0   0     0   0   0     0   0   0     0   0   0     0   0   0     0   0   0     0   0   0     0   0   0     0   0   0     0   0   0     0   0   0     0   0   0     0   0   0     0   0   0     0   0   0    56  62  62    35  41  41    44  50  48    41  47  45    59  65  63    95 101  99   110 116 114    90  96  96    65  70  70    53  59  59    63  71  73    84  92  95    87  95  97    80  88  91    83  91  93    77  85  88    72  80  83    80  88  91    81  89  92    98 106 109   118 127 130   123 131 134  
