P3
60 54
255
   0   0   0     0   0   0     0   0   0     0   0   0     0   0   0     0   0   0     0   0   0     0   0   0    50  55  48    39  44  38    81  86  79   158 163 157   143 148 142   113 118 112    84  89  83    98 103  97    82  87  81    42  47  41    29  34  28    31  36  30    55  60  53   111 116 110   115 122 115     0   0   0     0   0   0     0   0   0     0   0   0     0   0   0     0   0   0     0   0   0     0   0   0     0   0   0     0   0   0     0   0   0     0   0   0     0   0   0     0   0   0     0   0   0     0   0   0     0   0   0     0   0   0     0   0   0     0   0   0     0   0   0     0   0   0     0   0   0     0   0   0     0   0   0    97 104  97   118 125 118   142 152 144   152 162 154    78  88  80    43  53  45    55  62  55    46  53  46    36  43  36    36  43  36     0   0   0     0   0   0  
   0   0   0     0   0   0     0   0   0     0   0   0     0   0   0     0   0   0     0   0   0     0   0   0    51  56  50    37  42  36    69  74  68   126 131 125   134 139 133   129 134 127   104 109 103    66  71  64    37  42  37    36  41  35    41  46  40    59  64  58    99 104  98   129 134 128   124 131 124     0   0   0     0   0   0     0   0   0     0   0   0     0   0   0     0   0   0     0   0   0     0   0   0     0   0   0     0   0   0     0   0   0     0   0   0     0   0   0     0   0   0     0   0   0     0   0   0     0   0   0     0   0   0     0   0   0     0   0   0     0   0   0     0   0   0     0   0   0     0   0   0     0   0   0   115 122 115   117 124 117   128 138 130   134 144 135    53  63  55    38  48  40    52  59  52    57  64  57    53  60  53    53  60  53     0   0   0     0   0   0  
   0   0   0     0   0   0     0   0   0     0   0   0     0   0   0     0   0   0     0   0   0     0   0   0    41  46  40    41  46  40    73  78  72    75  80  74    69  74  68    79  84  78    71  76  70    37  42  36    34  39  33    41  46  40    47  52  46    65  70  64    78  83  77    92  97  91    90  97  90     0   0   0     0   0   0     0   0   0     0   0   0     0   0   0     0   0   0     0   0   0     0   0   0     0   0   0     0   0   0     0   0   0     0   0   0     0   0   0     0   0   0     0   0   0     0   0   0     0   0   0     0   0   0     0   0   0     0   0   0     0   0   0     0   0   0     0   0   0     0   0   0     0   0   0   101 108 101   120 127 120   129 139 131   122 132 124    36  46  38    47  57  49    62  69  62    74  81  74    71  78  71    67  74  67     0   0   0     0   0   0  
   0   0   0     0   0   0     0   0   0     0   0   0     0   0   0     0   0   0     0   0   0     0   0   0    38  43  37    45  50  44    41  46  40    64  69  63   125 130 124   129 134 128    52  57  51    30  35  29    85  90  84    87  92  86    57  62  56    53  58  52    59  64  58    73  78  72    68  75  68     0   0   0     0   0   0     0   0   0     0   0   0     0   0   0     0   0   0     0   0   0     0   0   0     0   0   0     0   0   0     0   0   0     0   0   0     0   0   0     0   0   0     0   0   0     0   0   0     0   0   0     0   0   0     0   0   0     0   0   0     0   0   0     0   0   0     0   0   0     0   0   0     0   0   0   100 107 100   133 140 133   117 127 119    70  80  72    42  52  44    63  73  65    70  77  70    67  74  67    51  58  51    48  55  48     0   0   0     0   0   0  
   0   0   0     0   0   0     0   0   0     0   0   0     0   0   0     0   0   0     0   0   0     0   0   0    39  44  39    35  40  34    65  70  64   136 141 135   151 156 150    99 104  98    32  37  32    80  85  79   134 139 133    83  88  82    59  64  58    53  58  52    49  54  48    83  88  82    66  73  66    55  62  55    40  47  40    36  43  36    41  48  41    39  46  39    44  51  44    59  66  59    78  85  78    94 101  94    86  94  86    57  64  57    52  59  52    45  52  45    45  52  45    53  60  53    68  70  65    58  60  55    57  62  56    59  64  58    66  71  65    75  80  74    66  71  65    57  62  56    74  81  74    71  78  71    69  76  69    91  98  91    84  94  86    56  66  58    63  73  65    71  81  73    52  59  52    48  55  48    37  44  37    33  40  33     0   0   0     0   0   0  
   0   0   0     0   0   0     0   0   0     0   0   0     0   0   0     0   0   0     0   0   0     0   0   0    58  63  57    31  36  30    81  86  80   146 151 145    82  87  81    29  34  28    33  38  32    93  98  92   115 120 114    67  72  66   140 145 139   170 175 169    92  97  91    42  47  41    40  47  40    41  48  41    40  47  40    38  45  38    33  40  33    28  35  28    45  52  45    78  85  78    92  99  92    82  89  82    97 104  97    57  64  57    51  58  51    39  46  39    39  46  39    48  55  48    44  47  42    43  45  40    49  54  48    54  59  53    85  90  84   101 106 100    74  79  73    74  79  73    94 101  94    92  99  92    77  84  77    73  80  73    67  77  69    61  71  63    67  77  70    64  74  66    54  61  54    42  49  42    45  51  45    53  60  53     0   0   0     0   0   0  
   0   0   0     0   0   0     0   0   0     0   0   0     0   0   0     0   0   0     0   0   0     0   0   0    75  80  74    43  48  42    53  58  52    60  65  59    26  31  25    56  61  55   108 113 107   144 149 142   152 157 151    86  91  85   140 145 138   155 160 154    88  93  87    45  50  44    40  47  40    36  43  36    38  45  38    44  51  44    37  44  37    32  39  32    76  83  76   142 149 142   149 156 149   144 151 144   155 163 155    64  71  64    47  54  47    60  67  60    66  72  66    52  59  52    46  49  44    51  54  49    47  52  46    46  51  45   100 105  99   135 140 134   102 107 100    99 104  98   108 115 108    98 105  98    85  92  85    76  84  76    62  72  64    48  58  50    45  55  47    49  59  51    63  70  63    49  56  49    57  64  57    70  77  70     0   0   0     0   0   0  
   0   0   0     0   0   0     0   0   0     0   0   0     0   0   0     0   0   0     0   0   0     0   0   0    61  66  60    45  50  44    39  44  38    33  38  32    56  61  55   120 125 119   146 151 145   158 163 157   142 147 141    77  82  76   144 149 143   121 126 120    45  50  44    39  44  38    45  52  45    42  49  42    36  43  36    36  43  36    41  48  41    53  60  53    87  94  87   130 137 130   147 154 147   141 148 141   135 142 135    45  52  45    44  51  44    76  83  76    78  85  78    51  58  51    64  66  61    60  62  57    46  51  45    69  74  68   129 134 128   137 142 136    99 104  98    97 102  96   100 107 100    85  92  85    87  94  87    87  94  87    68  78  70    43  53  45    34  44  36    53  63  55    77  84  77    63  70  63    60  67  60    59  66  59     0   0   0     0   0   0  
   0   0   0     0   0   0     0   0   0     0   0   0     0   0   0     0   0   0     0   0   0     0   0   0    39  44  38    33  38  32    42  47  41    65  70  64    97 102  96   122 127 121   124 129 123   142 147 141   131 136 130    56  61  55   118 123 117    82  87  81    23  28  22    46  51  45    52  59  52    56  63  56    48  55  48    42  49  42    55  62  55    68  74  68    70  77  70    71  78  71    89  97  89    99 106  99    86  93  86    34  41  34    37  45  37    55  63  55    63  70  63    58  65  58    62  64  59    56  58  53    43  48  42   102 107 101   160 165 159   140 145 139   117 122 116   116 121 115   104 111 104    97 103  97   103 110 103    87  94  87    63  73  65    45  55  47    29  39  32    42  52  44    56  63  56    52  59  52    45  52  45    43  50  43     0   0   0     0   0   0  
   0   0   0     0   0   0     0   0   0     0   0   0     0   0   0     0   0   0     0   0   0     0   0   0    35  40  34    31  36  30    47  52  47    91  96  90   105 110 104    97 102  96   114 119 113   127 132 126   148 153 147    57  62  56    67  72  66    52  57  51    43  48  42    50  55  49    57  64  57    52  59  52    38  45  38    34  41  34    44  51  44    52  59  52    60  67  60    71  78  71    65  72  65    88  95  88    62  69  62    33  40  33    34  41  34    41  48  41    47  54  47    52  59  52    53  57  51    58  62  56    35  40  35    93  98  91   138 143 137   116 121 115   115 120 114   103 108 102   110 117 110   116 123 116   119 126 119    80  87  80    56  66  58    60  70  62    43  53  46    40  47  40    39  46  39    58  65  58    57  64  57    49  56  49     0   0   0     0   0   0  
   0   0   0     0   0   0     0   0   0     0   0   0     0   0   0     0   0   0     0   0   0     0   0   0    39  46  39    37  44  37    47  54  47    81  88  81   108 115 108    99 106  99   113 120 113   122 129 122    99 106  99    69  76  69    61  68  61    46  53  46    33  40  33    43  50  43    50  57  50    36  43  36    48  55  48   105 112 105   102 109 102    46  53  46    40  47  40    54  61  54    71  78  71    90  97  90    61  68  61    42  49  42    45  52  45    45  52  45    50  58  50    39  46  39    47  55  47    51  58  50    38  45  37    73  80  72    75  82  75    80  87  80    91  98  91    97 104  97   108 115 108   127 134 127   127 133 129    94 100  96    56  62  58    45  51  47    51  57  53    55  61  57    45  50  44    56  61  55    64  69  63    64  69  63     0   0   0     0   0   0  
  54  59  53    81  86  80    46  51  45    52  57  51    40  45  39    38  43  37    38  45  38    33  40  33    40  47  40    37  44  37    42  49  42    69  76  69    89  95  89    97 104  97    95 102  95   104 111 104    92  99  92    67  75  67    52  59  52    40  47  40    32  39  32    35  42  35    28  35  28    41  48  41   115 123 115   171 178 171   161 168 161   120 127 120    84  91  84    74  81  74    78  85  78    74  81  74    48  55  48    41  48  41    45  52  45    52  59  52    62  69  62    48  55  48    68  75  68    40  47  39    41  48  40   107 114 106   114 121 114    98 105  98    99 106  99   108 115 108   118 125 118   105 112 105   100 106 102    87  93  89    61  67  64    50  56  52    47  53  49    37  43  39    51  53  48    61  63  58    67  72  66    65  70  64     0   0   0     0   0   0  
  39  44  38    78  83  77    59  64  58    50  55  49    45  50  44    39  44  38    39  46  39    27  34  27    48  55  48    42  49  42    46  53  46    71  78  71    74  81  74    89  96  89   111 118 111    94 101  94    68  75  68    46  53  46    37  44  37    41  48  41    42  49  42    36  43  36    43  50  43    90  97  90   154 161 154   153 160 153   138 145 138   144 151 144   132 139 132   126 133 126    75  82  75    55  62  55    47  54  47    52  59  52    45  52  45    55  62  55    73  80  73    61  68  61    49  56  48    34  41  33    61  68  60   113 120 112   105 112 105    97 104  97   111 118 111   115 122 115   109 116 109    78  85  78    75  81  77    78  84  80    61  67  63    62  68  64    70  76  72    57  63  59    54  56  51    59  61  56    61  66  60    60  65  59     0   0   0     0   0   0  
  32  37  31    72  77  71    63  68  62    43  48  42    39  44  38    33  38  32    38  45  38    26  33  26    50  56  50    39  46  39    47  54  47    81  88  81    77  83  77    83  91  83   114 121 114    81  88  81    51  58  51    37  44  37    35  42  35    39  46  39    36  43  36    24  31  24    64  71  64   137 144 137   152 159 152   129 136 129   131 138 131   136 143 136   134 141 134   137 144 137    82  90  82    45  52  45    42  49  42    46  53  46    30  37  30    38  45  38    54  61  54    42  49  42    41  48  40    27  34  26    73  80  72   117 125 116   104 111 104    85  92  85    92  99  92    92  99  92    83  90  83    69  76  69    83  89  85    85  91  87    55  61  57    54  60  56    66  72  68    54  60  56    63  65  60    60  62  57    57  62  56    59  64  58     0   0   0     0   0   0  
  33  38  32    54  59  54    54  59  53    39  44  38    39  44  39    46  51  45    44  51  44    33  40  33    42  49  42    29  36  29    39  46  39    77  84  77    81  88  81    80  87  80    72  79  72    52  60  52    39  46  39    38  45  38    36  43  36    30  37  30    37  44  37    52  59  52   126 133 126   150 157 150   110 117 110   109 116 109   137 144 137   117 124 117   121 128 121   149 156 149   109 116 109    53  60  53    41  48  41    39  46  39    29  37  29    46  53  46    52  59  52    39  46  39    39  46  38    44  51  43    95 102  94   108 115 107    91  98  91    79  86  79    89  95  89    90  97  90    78  85  78    81  88  81   100 106 102    94 101  96    57  63  59    47  53  49    59  65  61    55  61  57    61  63  58    55  57  52    50  55  49    55  60  53     0   0   0     0   0   0  
  38  43  37    39  44  38    43  48  42    40  45  39    42  47  41    64  69  63    60  67  60    49  56  49    42  49  42    36  43  36    36  43  36    52  59  52    63  70  63    61  68  61    44  51  44    39  45  39    33  40  33    39  46  39    41  49  41    32  39  32    59  66  59   116 123 116   142 148 142   119 126 119    99 106  99   115 122 115   128 135 128   105 112 105   102 109 102   134 141 134    90  97  90    46  53  46    40  47  40    34  41  34    28  35  28    47  54  47    49  56  49    45  52  45    18  25  17    61  68  60   134 141 133   131 138 130   116 123 116   102 109 102    98 105  98    95 102  95   106 113 106    93 100  93    90  95  92    84  90  86    58  64  60    38  44  40    38  44  40    43  49  45    52  54  49    48  50  45    46  51  45    51  56  50     0   0   0     0   0   0  
  41  46  40    34  39  33    34  39  33    35  40  34    35  40  33    53  58  52    64  72  64    56  63  56    51  59  51    51  58  51    41  48  41    38  45  38    46  52  46    44  51  44    47  54  47    48  55  48    45  52  45    52  59  52    51  59  51    42  49  42    81  88  81   130 137 130   117 124 117   103 110 103   115 121 115   120 127 120   105 112 105   104 111 104   101 108 101   112 118 112    67  74  67    46  53  46    52  58  52    44  51  44    33  39  33    41  48  41    43  50  43    46  52  46    35  42  34    59  66  58   114 121 113   119 126 118   108 115 108    81  88  81    74  81  74    83  90  83    84  90  84    64  71  64    57  63  59    61  67  63    53  59  55    37  43  39    39  45  41    52  58  54    51  53  48    51  53  48    55  60  54    59  64  58     0   0   0     0   0   0  
  36  41  35    38  43  37    33  38  32    39  44  38    48  53  47    49  54  48    46  53  46    47  54  47    61  68  61    52  59  52    42  49  42    51  58  51    54  61  54    58  65  58    59  66  59    59  66  59    56  63  56    48  55  48    36  43  36    60  67  60   114 121 114   116 123 116    96 103  96   107 114 107   102 109 102   112 119 112   100 107 100   106 113 106   105 112 105    86  93  86    53  60  53    47  54  47    49  56  49    50  57  50    42  49  42    39  46  39    43  50  43    44  51  44    40  47  39    71  78  70    93 100  92    82  89  81    62  69  62    60  67  60    66  73  66    67  74  67    49  56  49    68  75  68    94 100  96    90  96  92    59  65  61    37  43  39    41  47  43    45  51  47    48  50  45    49  51  46    52  57  51    56  61  55    54  59  53    48  53  47  
  36  41  35    37  42  36    33  38  32    39  44  38    50  55  49    52  57  51    53  60  53    57  64  57    66  73  66    51  58  51    48  55  48    64  71  64    64  71  64    65  72  65    70  77  70    63  70  63    51  58  51    34  41  34    47  54  47   111 117 111   115 123 115   109 116 109   105 112 105   100 107 100    93 100  93    96 103  96    96 103  96    99 106  99   106 113 106    80  87  80    48  55  48    48  55  48    53  60  53    54  61  54    48  55  48    42  49  42    42  50  42    45  52  45    32  39  31    62  69  61    73  79  72    66  72  64    72  79  72    81  88  81    77  84  77    71  78  71    54  61  54    63  70  63    86  92  88    89  95  91    53  59  55    31  36  32    32  38  34    38  43  39    44  45  40    44  46  41    44  49  43    48  53  47    53  58  52    57  62  56  
  39  44  38    38  43  37    31  36  30    33  38  32    41  46  40    40  45  39    67  74  67    66  73  66    63  70  63    49  56  49    63  71  63    86  93  86    71  78  71    57  64  57    65  72  65    66  73  66    42  49  42    32  39  32   102 109 102   150 157 150   110 118 110   101 108 101   105 112 105   109 116 109   115 122 115    98 105  98    95 102  95   103 109 103   124 131 124    89  96  89    54  61  54    46  53  46    41  48  41    50  56  50    62  69  62    57  64  57    43  50  43    33  40  33    34  41  33    94 101  93   117 124 116    97 104  96    89  96  89    84  91  84    83  90  83    95 102  95    92  99  92    64  71  64    58  64  60    70  76  72    45  51  48    37  43  39    34  41  37    35  40  36    31  33  28    44  46  41    50  55  49    48  53  47    45  50  45    50  55  49  
  38  43  37    39  44  37    36  41  35    44  49  43    56  61  55    58  63  57    57  64  57    59  66  59    52  59  52    39  46  39    64  71  64    91  98  91    79  86  79    71  78  71    59  66  59    71  78  71    41  48  41    37  44  37   154 161 154   147 154 147   101 108 101    97 104  97   111 118 111    97 104  97   109 116 109   117 124 117   122 129 122   116 123 116   124 131 124    80  87  80    43  50  43    38  45  38    30  37  30    42  49  42    67  74  67    67  74  67    49  55  49    40  47  40    58  65  57    97 104  96    99 106  98    77  84  75    79  86  79    88  95  88    95 102  95   110 117 110   109 116 109   113 120 113   114 120 116   101 107 104    50  56  53    62  68  64    61  67  63    40  46  42    48  50  45    56  58  53    53  58  53    45  50  44    39  44  38    41  46  40  
  35  40  34    35  40  34    33  38  32    44  49  43    61  66  60    66  71  65    59  66  59    68  75  68    61  68  61    41  48  41    54  60  54    71  77  71    67  74  67    80  87  80    63  70  63    72  78  72    63  70  63    42  49  42   134 140 134   126 133 126   102 109 102    91  98  91   100 107 100   102 109 102   113 121 113   121 128 121   124 131 124   144 151 144   137 144 137    60  67  60    34  41  34    43  50  43    40  47  40    43  51  43    59  66  59    54  61  54    43  50  43    53  60  53    61  68  60    84  91  83    91  99  90    88  95  87    96 102  96   101 108 101    97 104  97    96 103  96   100 107 100    96 103  96   106 112 108   116 122 118    55  61  57    57  63  59    62  68  64    61  67  63    61  63  58    54  55  50    42  47  41    38  43  38    41  46  40    46  51  45  
  36  41  35    36  41  35    31  36  30    37  42  36    47  52  46    48  53  47    44  50  44    56  63  56    54  61  54    41  48  41    57  64  57    66  73  66    59  66  59    79  86  79    62  69  62    60  67  60    94 101  94    49  56  49    75  82  75   120 127 120   113 120 113    83  90  83    94 101  94   123 130 123   138 145 138   123 130 123    78  85  78   102 109 102   112 119 112    57  64  57    33  40  33    49  56  49    45  52  45    43  50  43    55  62  55    47  54  47    41  48  41    60  67  60    74  81  73    87  94  86   101 108 100   102 109 101    96 103  96    96 103  96    99 106  99    99 106  99    99 106  99    84  91  84    96 102  98   123 129 125    52  58  54    41  47  43    44  50  46    55  61  57    65  68  63    59  62  57    56  61  55    58  63  57    58  63  57    54  59  53  
  37  40  36    39  41  38    37  40  36    37  40  36    41  44  40    43  48  42    35  40  34    39  44  37    45  51  44    46  52  45    47  53  46    49  54  47    50  57  49    56  64  56    55  62  54    65  72  64    96 105  96    67  76  67    35  44  36    84  93  85   102 111 103    89  99  90    95 102  94   111 118 110   122 129 121   123 130 122    57  64  56    80  87  80   112 119 111    55  62  54    33  40  33    53  60  52    53  60  52    39  46  38    47  54  46    46  53  46    37  43  36    55  62  54    93 100  92    96 103  95    90  97  89    91  98  90    99 107  99    93 100  93    87  94  87    97 104  97    89  96  89    81  88  81    93  99  95    97 103  99    51  56  52    40  46  42    44  50  46    39  45  41    43  49  44    62  67  63    68  74  67    66  72  66    68  75  68    65  71  64  
  36  38  35    38  40  37    39  41  38    38  40  37    42  44  41    47  50  45    44  49  43    39  44  38    43  48  41    46  51  44    43  48  41    44  49  42    40  48  40    31  39  31    66  73  65    89  96  88   103 113 105   106 116 107    48  58  49    50  60  51    93 103  94   106 116 108   116 122 115   151 158 149   141 149 141    98 105  97    26  33  25    71  79  71   112 119 111    37  44  36    47  54  46    51  58  50    49  56  48    41  48  39    47  54  47    39  46  38    28  35  28    60  67  59   123 130 122   101 108 100    80  87  79    81  88  80    92  99  92    89  96  89    84  91  84    89  96  89    89  96  89    89  96  89   101 107 103    85  91  87    40  46  42    30  36  32    44  50  46    40  46  42    47  53  49    49  55  51    49  56  49    56  63  56    68  75  68    68  75  68  
  36  38  35    38  40  37    38  40  37    38  40  37    42  44  41    47  49  44    35  40  34    36  41  35    43  48  41    46  51  44    50  55  48    63  68  61    71  78  70    64  71  63    93  99  92    90  97  89    68  75  67    88  95  87    52  62  53    50  60  51   101 111 102   108 118 109    90  97  89    72  79  71    64  71  63    93 100  92    65  72  64    46  53  45    62  70  62    56  63  55    44  51  43    48  55  46    46  53  45    42  49  41    53  60  52    45  52  44    39  46  38    75  82  74    94 101  93    69  76  68    76  83  75    89  95  88    72  79  72    64  71  64    73  80  73    73  80  73    97 104  97   106 113 106   118 124 121    91  96  93    37  43  39    32  38  34    56  62  58    59  65  61    49  55  51    35  41  37    37  44  37    47  54  47    41  48  41    34  41  34  
  36  38  35    39  41  38    39  41  38    37  39  35    38  40  37    41  43  38    47  51  45    53  57  51    58  63  55    49  53  46    37  42  35    47  52  45    63  69  61    65  72  64    87  94  86    95 102  94    90  97  89    97 104  96    56  65  56    48  57  48    63  73  64    61  71  62    70  77  69    78  85  77    90  97  89   116 123 115    96 103  95    46  53  45    43  50  42    61  69  60    38  45  37    55  62  54    57  64  56    43  51  42    50  57  49    51  58  50    50  57  49    82  89  81    89  95  88    82  89  81   123 130 122   143 150 142    96 103  96    69  76  69    80  87  80    78  85  78    86  93  86    91  98  91   100 106 102    76  82  78    36  43  39    42  48  44    65  71  67    59  65  61    46  51  47    31  37  33    37  44  37    44  50  44    33  40  33    34  41  34  
  37  39  36    40  42  39    39  41  38    36  38  35    36  38  35    39  41  36    49  51  46    50  53  46    53  56  49    46  49  42    33  38  31    38  43  36    50  55  48    53  58  51    73  80  72    63  70  62    68  75  67    81  88  80    64  71  63    65  72  64    46  56  47    45  55  46   108 115 107   116 123 115   111 118 110   109 116 108   112 119 111    73  80  72    45  52  44    43  50  42    48  55  47    54  61  53    54  61  53    44  51  43    46  53  45    39  46  38    45  52  44    94 101  93    94 101  93    80  87  79   105 112 104   125 132 124   102 109 102    88  95  88    92  99  92    82  89  82    89  96  89    83  90  83    87  93  89    75  81  77    54  60  56    66  72  68    79  85  81    62  68  64    46  52  48    40  46  42    43  50  43    44  51  44    43  50  43    54  61  54  
   0   0   0     0   0   0     0   0   0     0   0   0     0   0   0     0   0   0     0   0   0     0   0   0    51  54  47    52  54  48    43  47  40    45  48  41    55  60  53    61  66  59    64  70  62    73  78  71    80  87  79    97 104  96    83  90  82    77  84  75    57  65  57    53  60  52    87  94  86   117 124 116   124 131 123    99 106  98   105 112 104    75  82  74    46  53  45    37  44  36    48  55  47    42  49  41    39  46  38    41  48  40    48  55  47    36  43  35    44  51  43   103 110 102   121 129 121    99 106  98    81  88  81    82  89  81    89  96  89    92  99  92    91  98  91    86  93  86    94 100  94    82  89  82    87  93  89    80  85  82    57  63  59    62  68  64    72  78  74    57  63  59    50  56  52    62  68  64    61  68  61    48  55  48    40  47  40    42  49  42  
   0   0   0     0   0   0     0   0   0     0   0   0     0   0   0     0   0   0     0   0   0     0   0   0    51  54  47    51  54  47    38  41  34    40  43  35    64  69  62    90  95  88    89  94  87   122 127 120    97 104  96    97 104  96    82  89  81    83  90  82    80  87  79    43  50  42    60  67  59    96 103  95   122 129 121    98 105  97    99 106  98    64  71  63    43  50  42    51  58  49    41  48  40    44  51  43    43  50  42    39  46  38    52  59  51    49  56  48    47  54  46    87  94  86    89  96  88    90  97  89    66  73  65    51  57  50    66  73  66    76  84  76    86  93  86   110 117 110   100 107 100    91  98  91    98 104 100    88  94  90    52  58  54    46  52  48    58  64  60    52  58  54    76  82  78    81  86  83    65  72  65    51  58  51    54  61  54    51  58  51  
   0   0   0     0   0   0     0   0   0     0   0   0     0   0   0     0   0   0     0   0   0     0   0   0    55  57  50    58  59  53    41  44  37    32  35  28    80  83  76    92  95  88    67  72  65    87  92  85    84  89  82    87  92  85    80  87  79    94 101  93    90  97  89    72  79  71    58  66  58    68  75  67    64  71  63    89  96  88   104 111 103    61  68  60    36  43  35    52  59  51    44  51  43    50  57  49    45  52  44    53  60  52    57  65  57    55  62  54    54  61  53    40  47  39    47  54  46    51  58  50    61  68  61    68  75  67    73  80  73    81  88  81    74  81  74    52  59  52    56  63  56    59  66  59    66  72  68    64  70  66    59  65  61    67  73  69    70  76  72    59  65  61    66  72  68    68  74  70    68  75  68    64  71  64    63  69  63    60  67  60  
   0   0   0     0   0   0     0   0   0     0   0   0     0   0   0     0   0   0     0   0   0     0   0   0    60  61  55    60  61  55    46  49  42    35  37  31    88  90  84   119 122 115    48  53  46    62  66  59    98 103  96   112 117 110    94 101  93    92  98  91    92  98  90    94 100  93    45  52  44    68  75  67    72  79  71    73  80  72    91  98  90    66  73  65    28  35  27    45  52  44    37  44  36    35  42  34    48  55  47    44  51  43    34  41  33    32  39  31    32  39  31    53  60  52    50  57  49    45  52  44    56  63  55    66  73  65    53  60  53    38  45  38    39  46  39    44  51  44    51  58  51    49  57  49    50  56  52    43  49  45    36  41  38    41  48  44    45  51  47    36  42  38    38  44  40    49  55  51    57  64  57    54  61  54    48  54  48    44  51  44  
   0   0   0     0   0   0     0   0   0     0   0   0     0   0   0     0   0   0     0   0   0     0   0   0    51  52  46    54  55  49    56  57  51    42  43  37    84  87  80   117 120 113    64  67  60    53  56  49   100 105  98   109 114 107   101 106  99   107 112 105    92  97  90    77  82  75    55  62  54    90  97  89   113 120 112    78  85  77    66  73  65    65  72  64    35  42  34    47  54  46    44  51  43    33  40  32    42  49  41    38  45  37    33  40  32    40  47  39    52  59  51    85  92  84    83  90  82    78  85  77    93 100  92   110 117 109    97 104  97    76  83  76    73  80  73    79  86  79    91  98  91    86  93  86    82  88  84    70  76  72    55  61  57    53  59  55    52  58  54    42  48  44    40  46  42    43  49  45    44  51  44    42  49  42    41  48  41    42  49  42  
   0   0   0     0   0   0     0   0   0     0   0   0     0   0   0     0   0   0     0   0   0     0   0   0    44  45  39    47  48  42    59  60  54    48  49  43    82  84  77   108 110 103    74  77  70    28  31  24    72  75  68    98 102  95    85  90  83    78  83  76    69  74  67    86  91  84    87  94  86    62  69  61   107 114 106   117 124 116    87  94  86    65  73  65    37  45  36    46  53  45    45  52  44    50  57  49    37  44  36    41  48  40    40  48  39    39  46  38    62  69  61    65  72  64    86  93  85    89  96  88    97 104  97    97 104  96    90  97  90    93 100  93    98 105  98    93 100  93    90  97  90    89  96  89    91  97  93    85  91  87    70  76  72    64  70  66    63  69  65    55  61  57    45  51  47    40  46  42    36  43  36    36  43  36    39  46  39    41  48  41  
   0   0   0     0   0   0     0   0   0     0   0   0     0   0   0     0   0   0     0   0   0     0   0   0    46  47  41    40  41  35    44  46  39    43  45  38    90  91  85   114 115 109    88  91  83    40  43  36    53  56  49    86  89  82    67  72  65    71  76  69    71  76  69   104 109 102   100 107  99    43  50  42    81  88  80   114 121 114    77  84  76    50  57  49    40  47  39    43  50  42    52  59  51    75  82  74    45  52  44    51  58  50    46  53  44    39  47  39    86  93  85    81  88  80    70  77  69    88  94  87    95 102  94    78  85  76    64  71  64    79  86  79    89  96  89    78  85  78    77  84  77    79  86  79    85  92  88    79  85  81    59  66  61    49  55  51    48  54  50    44  50  46    32  38  34    36  42  38    42  49  42    44  51  44    40  47  40    35  41  35  
   0   0   0     0   0   0     0   0   0     0   0   0     0   0   0     0   0   0     0   0   0     0   0   0    45  46  40    36  37  31    35  35  30    46  47  41    98 100  93   106 108 101   116 119 112    85  89  82    45  48  41    71  74  67    66  71  64   106 111 104    90  95  88    85  90  83   101 108 100    79  86  79    74  81  73    60  67  59    33  40  32    36  43  35    51  58  50    46  53  45    50  57  49    60  67  58    37  44  36    43  50  42    41  48  40    43  50  42    91  97  90   105 112 104    70  77  69    76  83  75    85  92  84    83  90  82    75  82  75    78  85  78    80  87  80    72  79  72    92  98  92    92  99  92    95 101  96    82  88  83    53  59  55    38  44  40    41  47  43    44  50  46    39  45  41    40  46  42    45  52  45    47  54  47    42  49  42    36  43  36  
   0   0   0     0   0   0     0   0   0     0   0   0     0   0   0     0   0   0     0   0   0     0   0   0    42  43  39    36  38  32    42  43  39    57  58  53   100 102  96    93  96  90   117 121 114   101 105  98    33  37  30    60  65  58    78  83  76   110 116 108    92  97  90    90  96  88   108 115 107    99 105  98    53  60  52    38  45  37    43  49  42    43  50  42    56  62  55    52  58  51    59  65  58    54  60  52    46  52  45    51  58  50    53  60  51    59  65  57    79  86  77    85  92  84    88  94  86    71  77  69    65  69  62    75  82  74    87  92  85    81  88  81    79  83  77    83  89  82    87  92  85    84  90  83    86  90  84    75  81  74    55  59  55    44  50  43    53  57  53    61  67  60    56  60  56    47  53  46    41  46  39    40  46  40     0   0   0     0   0   0  
   0   0   0     0   0   0     0   0   0     0   0   0     0   0   0     0   0   0     0   0   0     0   0   0    40  42  39    33  35  31    43  45  42    53  55  51    92  95  90    96 101  95   110 115 109   125 130 124    47  52  46    47  52  46   102 108 100   117 124 116   109 116 108   114 121 113   120 125 120    87  92  87    36  41  35    46  51  45    59  64  58    43  48  42    54  59  53    62  67  61    73  78  71    72  77  70    69  74  67    63  68  61    57  63  53    77  83  73   101 107  97    92  98  88   108 112 105    95  99  92    71  74  67    73  77  70    97 100  93    86  90  83    69  72  65    79  83  76    81  84  77    74  78  71    74  77  70    74  78  71    63  66  60    48  52  45    48  51  45    57  61  54    54  57  51    48  52  45    44  47  40    42  46  39     0   0   0     0   0   0  
   0   0   0     0   0   0     0   0   0     0   0   0     0   0   0     0   0   0     0   0   0     0   0   0    38  40  37    35  38  35    37  39  36    47  49  46    92  97  91    95 100  94    93  98  92   103 108 102    45  50  44    48  53  47   110 117 109   115 122 114   108 115 107   112 119 111    98 103  99    42  47  43    46  51  45    56  61  55    49  54  48    46  51  45    42  47  41    61  66  60    60  65  58    68  73  66    77  82  75    71  76  69    57  63  53    67  73  63    89  95  85    96 102  92   114 118 111   101 106  99    72  76  69    63  67  60    80  84  77    82  86  79    75  79  72    83  87  80    87  92  85    85  89  82    94  99  92    98 102  95    74  78  71    48  52  45    45  49  42    55  59  52    43  46  38    40  43  36    38  41  34    39  42  35     0   0   0     0   0   0  
   0   0   0     0   0   0     0   0   0     0   0   0     0   0   0     0   0   0     0   0   0     0   0   0    38  40  37    36  38  35    35  37  34    54  56  53   101 106 100    88  93  88    63  68  62    87  92  86    53  58  53    38  43  37   101 108 100   111 118 110   102 109 101    85  92  84    32  37  33    37  42  38    79  84  78    56  61  55    34  39  33    53  58  52    42  47  41    43  48  42    39  44  37    43  48  41    63  68  61    73  78  71    76  82  72    78  83  73    70  76  66    67  73  63    82  87  80    81  86  79    67  72  65    59  64  58    65  70  63    66  71  64    76  81  74    97 102  95    96 101  94    91  96  89   104 109 102   106 111 104    72  77  70    40  45  38    38  43  36    45  50  43    43  46  39    42  44  37    41  44  37    44  47  40     0   0   0     0   0   0  
   0   0   0     0   0   0     0   0   0     0   0   0     0   0   0     0   0   0     0   0   0     0   0   0    44  46  43    37  39  36    39  41  38    64  66  63   102 107 101    73  78  72    71  76  70   114 119 113    85  90  85    34  39  33    84  91  83   118 125 117   105 112 104    62  69  61    33  38  34    51  56  52    52  57  51    43  48  41    52  57  51    57  62  56    42  47  41    37  42  36    40  45  38    36  41  34    53  58  51    67  72  65    89  96  86    99 105  95    73  80  70    65  71  61    67  72  65    68  73  66    76  81  74    91  96  89    93  98  91    83  88  81    90  95  88   111 116 109    99 104  98    87  92  85    97 102  94    95 100  93    61  66  59    40  45  38    44  49  41    44  49  42    52  55  48    50  53  46    50  53  46    52  55  48     0   0   0     0   0   0  
   0   0   0     0   0   0     0   0   0     0   0   0     0   0   0     0   0   0     0   0   0     0   0   0    41  43  40    33  35  32    38  40  37    52  54  51    79  84  79    57  62  56    73  78  72   118 123 117    88  93  87    29  34  28    61  68  60   113 120 112    96 103  95    52  59  51    39  44  40    63  68  64    43  48  42    34  39  33    44  49  43    44  49  43    46  51  45    40  45  39    43  48  41    38  43  36    47  52  45    46  51  44    74  80  70    99 105  95    79  85  75    81  87  77    82  87  80    66  71  64    67  72  65    84  89  82    91  96  89    84  89  82    88  93  86   100 105  98    92  97  90    81  86  79    91  96  89    87  92  85    54  59  52    47  52  45    58  63  56    51  56  49    57  60  53    54  57  50    52  55  48    53  55  49     0   0   0     0   0   0  
   0   0   0     0   0   0     0   0   0     0   0   0     0   0   0     0   0   0     0   0   0     0   0   0    37  39  36    35  37  34    41  43  40    36  38  35    61  66  60    62  67  61    69  74  68   103 108 102    76  81  75    38  43  37    53  60  52    95 102  94    64  71  63    34  41  33    33  38  34    55  60  56    68  73  67    61  66  60    43  48  42    40  45  39    48  53  47    38  43  37    43  48  41    40  45  38    48  53  46    41  46  39    75  81  71   108 114 104    82  88  78    83  89  79    79  84  77    70  75  68    72  77  70    79  84  77    76  81  74    72  77  70    73  78  71    73  78  71    82  87  80    78  83  76    93  98  91    84  89  82    48  53  46    49  54  47    64  69  62    50  55  48    55  58  51    52  55  48    50  53  46    51  54  47     0   0   0     0   0   0  
   0   0   0     0   0   0     0   0   0     0   0   0     0   0   0     0   0   0     0   0   0     0   0   0    38  40  37    30  32  29    39  41  38    38  40  37    47  52  46    78  83  77    71  76  70    63  68  62    67  72  66    44  49  43    56  63  55    92  99  91    46  53  45    29  36  28    32  37  33    77  82  78   105 110 103    70  75  69    40  45  39    45  50  44    43  48  42    35  40  34    40  45  38    43  48  41    42  47  40    47  52  45    91  97  87   115 121 111    89  95  85    83  89  79    80  86  79    74  80  73    70  77  69    72  79  71    77  84  76    80  86  79    73  80  72    61  68  60    76  83  75    73  80  72    83  90  82    74  80  72    60  66  58    57  63  55    45  51  44    46  52  45    52  56  49    46  51  44    47  51  44    53  58  51     0   0   0     0   0   0  
   0   0   0     0   0   0     0   0   0     0   0   0     0   0   0     0   0   0     0   0   0     0   0   0    35  37  34    31  33  30    38  40  37    36  38  35    47  52  45    99 104  98    89  94  88    74  79  73    92  97  91    59  64  58    45  52  44    60  67  58    31  38  30    45  52  44    79  84  80   105 110 106   104 109 103    53  58  52    29  34  28    40  45  40    41  46  40    46  51  45    42  47  39    45  50  43    36  41  34    45  50  43    88  94  84   102 108  98    80  86  76    73  79  69    77  84  75    81  88  80    82  89  81    78  86  78    77  84  76    80  87  79    83  90  82    82  90  82    75  82  74    75  82  74    79  86  78    56  63  55    59  66  58    60  67  59    42  49  41    44  51  43    54  59  52    54  59  52    58  63  56    66  71  64     0   0   0     0   0   0  
   0   0   0     0   0   0     0   0   0     0   0   0     0   0   0     0   0   0     0   0   0     0   0   0    34  36  33    37  39  36    39  41  38    31  33  30    46  51  45   107 112 106    99 104  98    87  92  85    98 103  97    60  65  59    34  42  34    36  43  35    36  43  35    68  75  66   111 116 112   106 111 108    91  96  90    55  60  54    42  47  41    45  50  44    37  42  36    44  49  42    47  52  45    48  53  45    38  43  36    53  58  51    90  95  85   101 107  97    88  94  84    83  89  79    80  87  79    93  99  92   101 108 100    96 103  95    85  92  84    80  87  79    85  92  84    90  97  89    89  96  88    95 101  93    95 102  94    55  61  53    67  74  66    59  67  59    49  56  48    42  49  40    48  53  46    49  54  47    48  53  46    44  49  43     0   0   0     0   0   0  
   0   0   0     0   0   0     0   0   0     0   0   0     0   0   0     0   0   0     0   0   0     0   0   0    38  40  37    39  41  38    38  40  37    31  33  30    38  43  37    80  85  79    90  95  89    99 104  98   111 116 110    61  66  60    32  39  30    31  38  30    57  64  56    86  93  85    95 100  96    91  96  92    81  86  80    57  62  56    50  55  49    50  55  49    37  42  36    42  47  41    57  62  55    55  60  53    44  49  42    64  69  62    93  99  89    96 102  92    95 101  91    92  98  88    80  87  79    85  93  85    91  99  91    92 100  92    88  96  88    83  91  83    82  90  82    83  91  82    90  98  89    95 103  94    93 101  93    58  66  58    80  88  79    53  61  53    51  59  51    53  61  52    37  42  35    43  49  41    44  49  42    38  43  36     0   0   0     0   0   0  
   0   0   0     0   0   0     0   0   0     0   0   0     0   0   0     0   0   0     0   0   0     0   0   0    41  43  40    37  39  36    37  39  36    38  40  37    34  39  33    47  52  46    79  84  78   116 121 115   127 132 126    64  69  63    33  40  32    33  40  32    78  85  77    89  96  88    75  80  76    79  84  80    74  79  73    48  53  47    42  47  41    49  54  48    41  46  40    46  51  45    60  65  58    55  60  53    43  48  41    69  74  67    86  92  82    79  85  75    88  94  84    85  92  82    73  80  72    74  84  75    78  88  79    78  88  79    75  85  76    73  83  74    78  88  79    84  94  85    85  95  86    82  92  83    69  79  70    55  65  56    83  93  84    45  55  46    48  58  49    69  79  70    42  49  41    48  55  47    51  58  50    50  57  49     0   0   0     0   0   0  
   0   0   0     0   0   0     0   0   0     0   0   0     0   0   0     0   0   0     0   0   0     0   0   0    41  43  40    36  38  35    35  36  33    42  44  40    34  39  33    32  37  31    66  71  65   106 111 105   105 110 104    45  50  44    34  41  33    41  48  40    93 100  92    81  88  80    70  75  71    73  78  74    71  76  70    50  55  49    47  52  45    50  55  49    38  43  37    41  46  40    51  56  48    45  50  43    36  41  34    73  78  71    86  92  82    76  82  72    96 102  92    95 103  92    77  84  76    78  88  79    82  92  83    82  92  82    75  85  76    69  79  70    72  82  73    79  89  80    91 101  92    83  93  84    53  63  53    59  69  60    90 100  91    51  61  52    43  53  44    67  77  68    54  61  53    46  53  45    38  45  37    37  44  36     0   0   0     0   0   0  
   0   0   0     0   0   0     0   0   0     0   0   0     0   0   0     0   0   0     0   0   0     0   0   0    41  43  40    38  40  37    33  35  32    39  41  38    33  38  34    34  39  33    50  55  51    95 100  94    94  99  93    36  41  35    27  32  26    29  36  28    98 103  96    91  96  89    86  91  85    74  79  73    63  68  62    47  52  46    50  55  49    52  57  51    40  45  39    47  52  46    47  52  45    42  47  40    36  41  34    79  84  77    92  97  87    79  86  76   107 113 103   108 114 104    80  87  79    80  90  81    87  97  89    98 108  98    99 109 100    89  99  90    77  87  78    72  82  73    84  94  85    81  91  82    43  53  44    67  77  68   103 113 104    68  78  69    42  52  43    54  64  55    58  65  57    43  50  42    34  41  33    37  44  36     0   0   0     0   0   0  
   0   0   0     0   0   0     0   0   0     0   0   0     0   0   0     0   0   0     0   0   0     0   0   0     0   0   0     0   0   0     0   0   0     0   0   0     0   0   0     0   0   0     0   0   0     0   0   0     0   0   0     0   0   0     0   0   0     0   0   0     0   0   0     0   0   0     0   0   0     0   0   0     0   0   0     0   0   0     0   0   0     0   0   0     0   0   0     0   0   0    51  56  49    56  61  54    49  54  47    89  94  87   115 120 113    92  97  90    90  95  88    91  96  89    75  82  75    87  94  87    89  96  89    84  91  84    86  93  86    85  92  85    83  90  83     0   0   0     0   0   0     0   0   0     0   0   0     0   0   0     0   0   0     0   0   0     0   0   0     0   0   0     0   0   0     0   0   0     0   0   0     0   0   0     0   0   0     0   0   0  
   0   0   0     0   0   0     0   0   0     0   0   0     0   0   0     0   0   0     0   0   0     0   0   0     0   0   0     0   0   0     0   0   0     0   0   0     0   0   0     0   0   0     0   0   0     0   0   0     0   0   0     0   0   0     0   0   0     0   0   0     0   0   0     0   0   0     0   0   0     0   0   0     0   0   0     0   0   0     0   0   0     0   0   0     0   0   0     0   0   0    53  58  51    50  55  48    50  55  48   102 107 100   124 129 122    98 103  96    95 100  93    91  96  89    73  80  73    83  90  83    84  91  84    84  91  84    91  98  91    91  98  91    84  91  84     0   0   0     0   0   0     0   0   0     0   0   0     0   0   0     0   0   0     0   0   0     0   0   0     0   0   0     0   0   0     0   0   0     0   0   0     0   0   0     0   0   0     0   0   0  
   0   0   0     0   0   0     0   0   0     0   0   0     0   0   0     0   0   0     0   0   0     0   0   0     0   0   0     0   0   0     0   0   0     0   0   0     0   0   0     0   0   0     0   0   0     0   0   0     0   0   0     0   0   0     0   0   0     0   0   0     0   0   0     0   0   0     0   0   0     0   0   0     0   0   0     0   0   0     0   0   0     0   0   0     0   0   0     0   0   0    45  50  43    31  36  29    39  44  37   100 105  98   115 120 113    89  94  87    94  99  92    90  95  88    88  95  88    90  97  90    83  90  83    80  87  80    87  94  87    88  95  88    84  91  84     0   0   0     0   0   0     0   0   0     0   0   0     0   0   0     0   0   0     0   0   0     0   0   0     0   0   0     0   0   0     0   0   0     0   0   0     0   0   0     0   0   0     0   0   0  
   0   0   0     0   0   0     0   0   0     0   0   0     0   0   0     0   0   0     0   0   0     0   0   0     0   0   0     0   0   0     0   0   0     0   0   0     0   0   0     0   0   0     0   0   0     0   0   0     0   0   0     0   0   0     0   0   0     0   0   0     0   0   0     0   0   0     0   0   0     0   0   0     0   0   0     0   0   0     0   0   0     0   0   0     0   0   0     0   0   0    52  57  49    37  42  35    47  52  45   105 110 103   111 116 108    79  84  77    87  92  85    84  89  82    91  98  91    90  96  90    77  85  77    70  77  70    74  81  74    77  84  77    80  87  80     0   0   0     0   0   0     0   0   0     0   0   0     0   0   0     0   0   0     0   0   0     0   0   0     0   0   0     0   0   0     0   0   0     0   0   0     0   0   0     0   0   0     0   0   0  
