P3
60 58
255
   0   0   0     0   0   0     0   0   0     0   0   0     0   0   0     0   0   0     0   0   0     0   0   0     0   0   0     0   0   0     0   0   0     0   0   0     0   0   0     0   0   0     0   0   0     0   0   0     0   0   0     0   0   0     0   0   0     0   0   0   128 129 135   120 120 128   117 117 124    95  96 104    93  96 102   110 114 120   115 121 127   114 121 127   115 124 129   116 126 128   121 133 132   122 134 131   123 134 130   122 131 127   118 124 120   109 113 108   104 106 101     0   0   0     0   0   0     0   0   0     0   0   0     0   0   0     0   0   0     0   0   0     0   0   0     0   0   0     0   0   0     0   0   0     0   0   0     0   0   0     0   0   0     0   0   0     0   0   0     0   0   0     0   0   0     0   0   0     0   0   0     0   0   0     0   0   0     0   0   0  
   0   0   0     0   0   0     0   0   0     0   0   0     0   0   0     0   0   0     0   0   0     0   0   0     0   0   0     0   0   0     0   0   0     0   0   0     0   0   0     0   0   0     0   0   0     0   0   0     0   0   0     0   0   0     0   0   0     0   0   0   122 122 130   116 116 125   112 112 120    99  99 107    96  99 106   106 109 116   110 115 121   110 115 121   104 112 118    96 106 108    87  99  98    86  98  96   104 114 112   118 127 123   116 122 119   118 120 119   127 129 125     0   0   0     0   0   0     0   0   0     0   0   0     0   0   0     0   0   0     0   0   0     0   0   0     0   0   0     0   0   0     0   0   0     0   0   0     0   0   0     0   0   0     0   0   0     0   0   0     0   0   0     0   0   0     0   0   0     0   0   0     0   0   0     0   0   0     0   0   0  
   0   0   0     0   0   0     0   0   0     0   0   0     0   0   0     0   0   0     0   0   0     0   0   0     0   0   0     0   0   0     0   0   0     0   0   0     0   0   0     0   0   0     0   0   0     0   0   0     0   0   0     0   0   0     0   0   0     0   0   0   127 127 135   110 110 118   106 106 114   100 100 109   101 104 111   107 110 117   112 117 123   120 125 131   111 118 124    92  99 105    56  67  69    52  64  64    77  87  88   101 109 110   103 109 109   108 112 113   100 101 102     0   0   0     0   0   0     0   0   0     0   0   0     0   0   0     0   0   0     0   0   0     0   0   0     0   0   0     0   0   0     0   0   0     0   0   0     0   0   0     0   0   0     0   0   0     0   0   0     0   0   0     0   0   0     0   0   0     0   0   0     0   0   0     0   0   0     0   0   0  
   0   0   0     0   0   0     0   0   0     0   0   0     0   0   0     0   0   0     0   0   0     0   0   0     0   0   0     0   0   0    88  83  90    98  90 101   124 117 125   141 135 145   133 136 143   128 132 139   125 130 136   117 119 126   103 106 113   105 105 113   111 111 119   108 107 115    98  97 105   114 113 121   130 130 138   128 128 136   115 118 125   120 123 130   126 131 137   119 126 132   108 117 122    99 110 112   104 114 116   104 112 115   103 108 111   119 123 126   112 114 118    71  70  75    43  43  45    50  49  54    55  54  59    61  60  66    90  90  98   121 121 131   125 125 135   124 123 131   125 119 125   142 134 139   128 119 122    94  85  88    72  63  64    61  51  52    56  46  45    62  52  51    80  67  67    85  73  73    86  72  72    76  61  64    68  52  56    71  56  61  
   0   0   0     0   0   0     0   0   0     0   0   0     0   0   0     0   0   0     0   0   0     0   0   0     0   0   0     0   0   0    61  59  68    99  94 105   121 116 127   113 110 119    89  89  97    92  94 102    93  95 103    76  76  84    51  51  59    59  58  66    91  90  98   113 111 120   107 105 113   114 113 121   124 123 131   123 122 130   114 116 123   119 121 128   123 127 133   114 119 125   120 129 135   121 130 136   123 129 136   114 121 128   113 118 125   129 134 139   135 138 143   119 120 126    96  97 102    89  88  94    89  89  94    76  76  82    83  83  91   114 114 122   124 124 134   128 127 135   125 121 127   132 128 132   125 119 122   118 111 114   110 102 103    79  70  71    56  46  46    66  54  55    98  84  85   112  97 100   122 107 110   119 103 108   111  95 100   110  94 101  
   0   0   0     0   0   0     0   0   0     0   0   0     0   0   0     0   0   0     0   0   0     0   0   0     0   0   0     0   0   0   109 108 119   126 124 135   121 119 131    97  95 107    66  68  75    65  68  75    71  74  81    77  77  85    80  80  88    99  98 106   117 116 124   122 119 128   125 122 131   123 120 129   125 124 132   125 124 132   120 120 128   124 124 132   125 128 135   115 120 126   110 116 124   111 118 127   112 119 127   114 121 129   119 123 132   121 126 133   123 127 133   127 130 137   118 121 127   104 106 112   126 128 133   127 128 133   115 115 123   120 120 128   111 111 119   103 103 110   104 104 109   113 112 117   102 100 103   104 102 105   133 129 130   130 123 125    96  86  87    79  68  69    81  68  70   100  86  90   120 106 110   130 116 122   132 118 124   133 119 127  
   0   0   0     0   0   0     0   0   0     0   0   0     0   0   0     0   0   0     0   0   0     0   0   0     0   0   0     0   0   0   119 119 131   125 123 136   125 122 136   118 116 129   120 123 130   116 119 126   113 116 123   116 116 124   118 118 126   125 124 132   127 126 133   124 122 131   124 122 131   125 123 131   122 122 130   115 115 123   116 118 125   110 112 119   105 109 116   127 132 138   116 120 129   113 118 127   116 121 129   107 112 121   113 120 128   111 115 124   117 121 129   116 120 128   124 128 134   116 121 127   122 127 133   118 120 127   109 112 118   117 120 125   120 122 128   114 117 122   117 120 125   109 113 117    67  71  74    66  69  71    96  96  98   109 106 108   120 114 115   122 115 116    87  77  79    93  83  86   113 103 106   125 115 121   121 113 118   122 113 121  
   0   0   0     0   0   0     0   0   0     0   0   0     0   0   0     0   0   0     0   0   0     0   0   0     0   0   0     0   0   0   111 113 125   116 115 128   121 120 133   125 125 137   119 123 129   120 125 131   122 126 133   125 128 135   125 128 135   126 126 134   124 124 132   124 123 131   120 119 127   120 119 127   121 121 129   109 109 117    98 101 108    79  82  89    65  70  76    93  98 104   103 108 115   114 119 125   133 138 145   123 127 136   127 134 142   126 133 141   127 134 142   105 109 118   102 109 115   120 125 130   127 132 139   122 127 133   118 122 126   121 124 129   120 123 128   114 119 123   120 129 131   120 129 132   102 112 113    79  87  89    71  75  75    63  64  66    70  68  69   102  97  98    92  87  88    94  88  92   113 107 111   125 119 125   119 116 121   122 118 125  
   0   0   0     0   0   0     0   0   0     0   0   0     0   0   0     0   0   0     0   0   0     0   0   0     0   0   0     0   0   0   113 117 126   114 117 126   118 120 132   123 125 137   119 125 130   120 125 131   122 127 133   123 127 134   122 125 132   123 124 131   121 122 129   120 120 128   123 123 131   111 111 119   113 116 123   113 116 123   111 116 122    97 103 109    64  71  77    53  59  64    86  91  95   103 106 110   125 130 133   113 118 124   105 112 117   113 121 127   121 128 136    95 102 110    47  56  63    88  95 103   102 109 115    97 102 108   108 113 117   122 127 131   122 126 129   122 127 130   119 130 133   110 125 128   119 130 132   114 124 126   129 134 137   120 124 127    72  74  75    68  68  70    96  96  98    98  96  99   109 109 111   118 117 122   116 117 121   118 120 125  
   0   0   0     0   0   0     0   0   0     0   0   0     0   0   0     0   0   0     0   0   0     0   0   0     0   0   0     0   0   0   107 111 119   111 115 124   115 119 128   115 119 128   120 128 134   120 127 133   118 125 131   118 124 130   117 122 128   117 120 127   115 119 125   117 118 125   118 122 128   110 113 120   118 121 128   115 120 126   120 125 131   120 127 133    81  89  95    43  52  55    42  46  48    42  45  45    52  56  58    52  57  59    46  53  56    61  69  74    76  85  90    67  76  83    61  71  77   108 117 123   104 113 118    70  77  83    79  84  89   104 109 113   107 111 114   103 108 112   111 121 125   118 132 136   118 128 131   112 122 124   125 130 132   126 129 133   118 118 120   127 126 128   111 111 113   112 112 114   114 115 119   116 118 121   115 118 123   115 120 126  
   0   0   0     0   0   0     0   0   0     0   0   0     0   0   0     0   0   0     0   0   0     0   0   0     0   0   0     0   0   0    71  78  84    93  98 106   111 116 123   114 120 128   114 124 128   115 125 130   118 128 133   120 128 133   119 127 133   117 123 129   113 119 125   112 116 122   113 118 124   116 121 127   121 127 133   106 113 119   108 116 122   119 128 133    93 103 108    65  74  76    56  61  58    42  44  40    43  47  44    75  80  78    86  95  95    87  95  97    72  82  84    67  76  80    99 110 114   136 146 151   123 132 137    78  86  92    75  81  85    90  95  99    83  87  90    68  73  77   102 110 116   124 134 141   108 116 121   110 115 120   122 125 129   119 119 124   128 127 129   127 123 127   129 125 129   129 128 132   124 124 129   120 123 127   122 127 132   119 126 132  
   0   0   0     0   0   0     0   0   0     0   0   0     0   0   0     0   0   0     0   0   0     0   0   0     0   0   0     0   0   0    68  76  80    93 100 106   112 118 124   119 126 133   113 124 128   115 126 130   118 129 133   120 129 134   119 128 133   116 123 129   112 119 125   110 116 122   117 123 129   113 120 126   108 117 122   101 109 115   113 124 128   117 128 132    90 103 106    84  94  95    85  90  84    73  75  67    58  63  57    95 100  95   107 116 114    92 100 100    60  70  72    72  82  84   118 129 133   130 141 145   127 136 141   113 122 127   114 122 125   121 126 130   114 118 121   103 106 111   113 119 125   130 135 144   113 117 124   106 107 115   118 118 124   126 122 129   134 128 134   135 129 135   131 124 131   135 131 136   126 124 129   121 121 126   126 130 137   121 128 134  
   0   0   0     0   0   0     0   0   0     0   0   0     0   0   0     0   0   0     0   0   0     0   0   0     0   0   0     0   0   0   125 129 133   125 126 132   113 116 121   110 115 119   105 115 117   103 114 116   102 113 115   104 114 116   107 115 118   112 120 123   118 124 128   122 127 131   113 118 122   114 119 123   114 119 122   110 115 119   104 112 115    72  80  82    40  48  50    60  69  68    93  98  92    90  93  86    58  61  55    64  69  63    63  69  65    53  59  57    50  60  59   106 116 117   140 150 151   120 130 132   116 126 128   129 139 142   132 142 144   126 136 138   127 136 138   131 139 142   119 126 133   125 131 140   124 128 137    97  99 106   105 105 113   122 121 129   112 109 116   127 121 129   125 121 128   131 128 135   123 122 128   121 120 128   130 134 140   126 132 138  
   0   0   0     0   0   0     0   0   0     0   0   0     0   0   0     0   0   0     0   0   0     0   0   0     0   0   0     0   0   0   112 106 110   110 100 107   108 101 108    84  79  85    81  85  88    83  91  93    86  91  94    82  87  89    70  74  75    66  70  70    94  95  94   133 133 132   132 132 132   120 118 118   130 128 126   129 127 125    86  85  83    53  51  49    52  50  47    57  56  54   111 113 113    90  91  91    64  66  65    44  45  45    56  58  55    56  57  54    52  56  52   104 109 107   132 137 135   118 127 126   107 117 116   109 121 121   109 125 125   107 125 125   105 123 123   105 123 125   108 121 127   122 132 141   126 136 145   105 114 121    77  84  92    80  87  95   105 109 118   119 124 133   127 130 137   122 125 132   121 124 131   124 125 135   120 124 133   125 128 136  
   0   0   0     0   0   0     0   0   0     0   0   0     0   0   0     0   0   0     0   0   0     0   0   0     0   0   0     0   0   0   116 107 112    95  85  91    75  65  70    57  52  56    72  73  75   102 108 109   102 106 108    80  84  86    66  70  70    49  51  50    63  63  63   114 113 112   118 117 116   131 127 124   123 119 116   100  95  92    77  72  68    60  56  52    65  61  57    87  83  81   125 124 127   109 108 113    94  93  96    65  62  66    53  51  49    54  52  51    50  50  46    66  67  63    58  61  58    77  82  80    81  88  86    66  77  78    64  78  78    85 100 101   102 120 122   105 121 124   115 129 133   114 124 132   115 127 133   122 132 140   117 127 133   103 112 121   114 123 129   142 151 157   118 125 133   121 128 135   122 126 135   123 127 136   130 133 142   130 133 142  
   0   0   0     0   0   0     0   0   0     0   0   0     0   0   0     0   0   0     0   0   0     0   0   0     0   0   0     0   0   0    76  72  75    81  77  80    88  81  86    88  85  89    90  93  96   120 125 129   111 116 119    87  92  95    85  89  91    75  78  79    81  81  83   118 117 118   120 119 120   118 115 115    94  92  90    74  70  69    68  64  62    61  57  54    78  74  71   120 116 115   127 124 127   115 112 117   121 118 121   102  97 100    62  57  58    53  48  48    57  53  52    53  50  49    47  45  43    57  57  57    69  71  71    71  76  78    65  72  74    66  74  77    81  92  95   101 111 116   115 124 128   126 134 139   118 128 131   110 118 123   104 113 117    83  92  97    72  81  85    90  97 103   106 113 119   119 126 132   119 124 131   118 122 131   127 131 140   116 119 128  
   0   0   0     0   0   0     0   0   0     0   0   0     0   0   0     0   0   0     0   0   0     0   0   0     0   0   0     0   0   0    39  39  42    68  69  72   108 107 111   111 111 115   109 112 117   111 116 121   106 111 114    97 102 106   100 104 108   111 115 117   117 120 123   118 118 122   110 111 112    86  86  87    79  79  78    91  89  89    92  89  89    88  86  83    99  97  95   118 114 113   132 127 131   119 114 118   137 132 134   137 131 133    81  75  77    53  45  47    71  63  63    79  74  73    60  55  56    59  54  56    87  83  87   121 120 123   104 105 109    55  58  62    45  48  53    72  76  81    95 100 103   122 128 131   103 109 112    59  65  68    42  48  51    38  44  47    34  40  43    45  50  55    81  87  91    99 105 111    97 104 110    97 103 110   109 115 122    95 101 108  
   0   0   0     0   0   0     0   0   0     0   0   0     0   0   0     0   0   0     0   0   0     0   0   0     0   0   0     0   0   0    52  56  60    72  77  80   114 119 122   111 116 119   112 117 123   102 107 113   113 118 124   117 122 128   108 113 119   120 124 129   127 132 135   108 111 115   116 120 123    98  99 101   106 107 109   122 122 122   120 120 120   124 122 123   119 118 118    94  92  93   108 104 106   117 111 115   144 139 141   166 160 162   125 119 121    77  70  72    82  76  76    98  90  93    85  80  82    71  65  67    79  74  79   112 107 111   117 115 120    86  84  89    54  51  58    45  44  49    51  52  54    77  78  80    69  71  71    40  45  46    37  41  42    49  53  54    62  68  69    79  84  87    99 104 107   109 114 118   104 112 116   103 110 116     0   0   0     0   0   0  
  81  88  94    99 106 112    99 106 112    97 104 110    98 105 111    96 104 107   103 112 114   111 120 123   128 136 139   121 129 132    95 105 107   101 111 113   118 129 130   117 125 128   114 121 129   115 118 128   121 125 134   123 128 137   116 123 131   115 122 129   115 122 128   109 114 118   116 121 125   112 116 119   113 117 120   121 122 124   119 120 122   106 106 108    85  85  87    69  67  68    98  96  97   118 114 115    99  97  98    93  90  91    87  84  85    73  69  70    86  82  83   101  95  97   101  97  98    81  77  80    59  54  58    60  56  59    89  84  90   109 104 110    86  81  88    48  45  50    44  42  43    49  49  49    49  49  47    49  51  50    70  72  71   101 102 104   117 120 122   117 120 123   119 124 127   119 124 128   115 123 126   113 120 123     0   0   0     0   0   0  
 102 109 116   115 122 129   114 122 127   118 125 131   114 123 128   100 109 114    82  92  94    98 108 110   105 116 117   116 127 128   120 132 133   116 127 129   116 127 129   107 116 120   116 121 130   121 125 136   117 120 130   115 119 129   119 126 134   117 124 132   110 118 123   112 119 125   109 116 119   107 112 116   107 112 115   118 123 126   126 127 130    96  97 100    66  66  69    71  71  73    78  79  79    96  98  96    62  63  63    40  41  41    51  52  52    55  56  56    61  60  61    65  64  66    90  89  92   106 105 108    99  97 101    81  79  82    90  89  94   112 108 114   104 102 108    84  80  85    81  79  80    74  72  70    51  50  48    38  38  35    66  65  66   114 114 114   133 134 136   122 125 126   114 119 119   111 116 119   115 122 124   119 127 130     0   0   0     0   0   0  
 123 130 138   124 131 139   116 125 130   102 111 116    87  96 101    80  89  94    97 107 109    97 107 109    79  90  91   103 114 115   114 126 126   107 118 118   121 133 132   106 115 118   117 121 130   120 121 133   119 120 132   116 119 131   113 119 127   113 120 128   113 122 127   115 123 129   120 128 131   106 113 116    95 100 103    74  78  81    67  68  72    70  70  74    58  58  60    57  57  58    57  62  59    60  65  61    55  60  57    54  59  58    64  69  67    61  66  65    54  57  58    57  60  61    57  60  63    99 101 105   118 120 124   109 109 114   106 106 111   110 108 113    99  98 103    86  84  87    99  95  96   104  99 100    80  76  75    55  53  52    68  66  67    92  91  91   103 104 104   112 114 114   103 107 108    89  93  95    91  96  99   112 119 121     0   0   0     0   0   0  
 116 123 129   119 126 133    92  99 105    49  57  62    35  44  47    48  56  60    91  99 102    75  84  86    43  52  52    70  79  79   101 112 111    99 108 108   107 119 115   109 115 118    97  98 108    79  77  90    66  64  76    64  64  75    58  62  71    51  56  65    61  68  74    80  88  93   105 113 116   122 130 133   125 130 133    77  81  84    43  44  47    47  47  50    46  46  48    46  46  46    41  46  42    44  50  46    54  60  55    67  73  71    76  84  81    79  87  87    71  79  78    60  64  67    61  68  70    73  78  81   101 106 109   118 121 124   117 118 121   123 124 127   116 116 119    85  85  87    85  80  83   106 100 103   113 109 109   112 107 110   109 107 109   100  98 101    93  93  94    98  99 100    90  92  94    63  65  67    56  60  62    83  89  90     0   0   0     0   0   0  
 113 120 126   120 127 133    94 101 107    50  57  63    39  47  50    61  66  69    70  75  78    57  63  63    27  33  33    50  56  54    79  85  83    60  66  64    53  60  58    66  70  71    77  74  84    58  55  69    55  52  63    74  73  84    82  85  94    70  75  82    57  64  70    57  64  70    66  73  76    91  98 102   122 127 130   108 112 115    78  79  81    61  59  62    46  44  47    52  50  51    45  45  43    35  38  33    51  56  52    79  83  82    89  95  93    96 102 102    99 104 107    90  95  98    91  96  99    74  79  82    77  82  85    90  94  97    99 100 102   113 113 115   120 120 122   110 109 112   118 113 119   118 112 118   115 110 115   115 110 116   115 114 118   109 107 111    96  95  99    89  89  91    80  81  83    60  62  64    51  55  56    61  66  66     0   0   0     0   0   0  
 118 123 127   125 130 134   111 116 120    79  84  88    56  60  63    50  54  57    60  64  65    68  72  71    65  66  65    77  79  76    84  86  83    53  55  52    40  40  38    59  57  58    98  92 102   100  91 105   110 104 114   131 128 137   147 146 154   143 145 150   124 129 133   106 115 118   103 111 113   102 109 111   117 123 123   116 117 119   102 102 102    86  84  85    70  66  67    73  69  70    76  71  70    46  41  39    46  44  43    67  66  67    69  71  70    68  68  71    75  79  82    83  86  91    87  90  95    89  91  96    77  81  84    70  70  75    67  66  68    58  56  59    70  68  69   107 102 106   125 120 127   119 113 123   113 108 116   113 108 115   118 115 122   127 124 131   120 117 124   102 100 105   100 100 105    84  83  88    64  65  66    58  59  61     0   0   0     0   0   0  
 114 119 123   113 118 122   113 118 121   107 110 115    90  94  96    75  76  78    74  75  74    83  82  83    80  80  78    73  71  69    70  68  66    68  66  62    79  77  73   104  99 100   110 100 109   119 109 122   125 117 127   125 119 128   124 123 129   127 129 134   123 128 132   118 125 128   124 131 132   121 127 129   122 126 126   109 110 111   109 109 108   124 120 120   117 111 112   115 106 107   103  94  92    71  62  61    52  45  45    61  53  56    66  63  64    64  60  66    68  66  71    79  77  83    80  81  86   106 105 111   114 114 119   105 102 108    81  78  81    51  44  49    56  51  52    99  92  97   121 114 125   121 115 128   125 119 132   114 109 121    96  93 103   102  98 108   118 116 123   123 120 127   109 108 113   106 105 110    88  89  91    62  63  65     0   0   0     0   0   0  
 117 122 126   112 116 120   113 117 120   116 119 122   109 109 112    96  95  97    73  72  73    76  74  75    77  75  73    62  58  56    62  58  55    87  83  79   106 101  98   115 108 109   115 107 115   121 113 123   123 118 127   123 120 127   120 120 127   119 121 126   116 121 125   114 119 122   112 119 120   117 123 123   123 127 127   107 108 107   100  99  98   111 108 108   109 105 105   114 106 107   107  97  96    90  79  79    65  55  56    67  56  60    91  83  87   102  93 100    95  87  95    92  87  94    91  89  95    97  94 101   116 114 119   123 120 125   102  96 100    83  76  80    93  84  87   109  99 107   128 121 134   126 121 135   131 128 142   114 111 124    70  68  79    61  58  69    97  96 104   129 128 134   115 115 119   121 121 125   121 122 124   108 109 111     0   0   0     0   0   0  
 117 121 127   110 110 117   105 106 111   110 108 114   105 102 109    96  92  97    73  69  74    80  76  79    72  70  71    70  67  69    93  91  92   109 108 109   108 107 106   111 110 112   114 115 122   114 115 125   114 116 125   113 116 125   112 117 125   114 120 126   120 126 131   123 131 134   126 136 138   121 128 129   130 137 138   119 126 125   115 120 120   119 122 123   106 109 110   112 113 112   105 106 101   112 110 106    90  84  84    81  70  75   106  92  99   121 106 115   114  99 110    99  88  99    88  84  93    86  85  93   100 102 107   110 113 118    96  97 101    82  80  84    97  91  94   118 112 118   124 122 131   122 119 131   131 130 141   131 132 143   112 114 122   102 105 112   110 116 120   119 125 129   115 120 123   119 125 128   127 130 133   132 136 137     0   0   0     0   0   0  
 115 118 125   112 112 120   110 109 115   116 113 120   116 113 120   111 106 113   119 114 120   115 110 116    93  92  96    88  87  92   112 113 117   126 126 130   122 126 127   124 129 132   116 123 131   116 122 132   113 122 130   117 123 133   122 130 138   125 132 139   115 123 128   103 110 116    83  93  95   105 113 116   125 134 135   112 120 122    98 107 108   105 113 115   112 122 121   126 134 131   125 133 128   138 142 138   126 124 124   116 106 111   120 103 111   115  95 106   110  92 104   110  98 110    98  94 103    91  94 101   100 107 110   112 120 123   104 108 112    88  89  93   101  98 102   131 126 132   121 120 128   113 113 123   112 114 122   119 122 130   120 125 131   114 120 126   110 120 123   112 122 124   117 129 129   115 125 126   110 118 120   108 113 116     0   0   0     0   0   0  
 118 121 128   120 120 128   117 116 122   117 115 122   116 114 120   112 109 117   122 121 126   116 114 119   106 105 110   103 102 107   110 111 115   119 123 126   121 127 127   119 124 127   119 124 130   121 125 134   116 123 131   113 117 126   115 122 128   116 121 127    97 104 107    74  79  83    70  77  79   102 107 110   102 111 110    83  89  89    68  77  76    83  89  89   111 119 116   118 124 121   119 124 120   109 111 108    94  90  91    91  82  87   103  89  96   110  94 104   114 101 111   125 115 124   107 106 115    98 101 108   101 109 112   114 122 125   115 120 123   110 111 115   120 115 119   139 133 139   116 115 121   105 105 113    96  99 106   108 111 118   120 125 131   111 117 123   104 112 115   113 121 124    94 104 105    84  91  93    64  72  74    50  55  58     0   0   0     0   0   0  
 118 123 129   118 121 128   115 117 122   114 113 119   111 111 116   110 107 114   109 108 113   109 109 113   115 115 120   119 120 124   116 120 123   117 121 124   112 119 118   101 106 109    95 100 105   101 105 113    93  98 103    75  80  85    72  77  83    88  93  97    99 103 107    96 101 104   113 117 120   108 113 113    68  74  74    54  59  59    56  61  59    66  71  69    88  93  91    77  81  78    72  74  71    67  66  64    65  60  61    62  53  58    88  78  84   128 118 126   135 128 136   133 130 137   119 120 127   114 120 125   108 117 120   106 114 117   113 116 120   123 120 126   127 120 125   124 116 123   121 118 125   120 120 127   117 119 126   116 118 125   105 109 115    89  94  99    97 102 106   126 130 135   112 119 121   104 109 112    86  91  94    68  72  75     0   0   0     0   0   0  
 113 118 124   112 116 123   111 115 120   111 113 118   110 112 117   110 111 117   108 111 114   100 102 106    96  98 102   101 105 108   113 118 121   119 124 127   105 114 113    89  94  96    90  94  98    97  99 105    92  95 100    81  83  88    82  85  89   100 103 106   112 116 118   114 117 118    90  94  94    74  77  76    43  48  45    45  48  46    47  52  48    44  47  43    56  61  56    59  61  57    70  68  67    74  69  70    84  77  79    65  58  62    81  74  79   125 121 127   117 116 122    93  96 101    96 103 106    97 106 109    83  93  95    66  73  76    75  75  79    99  93  99   102  92 100    86  75  84    74  70  77    85  84  92   111 111 119   129 129 137   119 121 126   100 103 108    96  99 104   102 105 110   120 124 127   119 123 126   114 118 121   107 110 113     0   0   0     0   0   0  
 107 113 120   107 114 120   106 113 116   104 108 112   104 109 113   107 112 116   109 114 117   101 106 109    82  86  89    77  84  87    97 104 106   102 110 112    87  97  96    79  85  85    89  91  95   100 100 105   110 112 116   118 117 122   121 123 125   122 123 125   111 114 113   100 100 101    68  70  68    62  63  61    72  75  70    88  90  85    89  92  87    82  83  77    82  86  79   101 101  97   121 114 114    98  88  92   101  92  95    84  78  82    96  93  97   131 131 135   107 111 114    79  87  89    84  95  96    80  91  92    61  71  73    44  49  53    54  53  59    85  78  86   100  88  98    93  81  91    78  73  80    59  58  65    71  70  77    90  89  95    93  92  98   105 107 112   116 117 122   102 104 109   121 123 128   122 124 128   120 122 126   117 117 122     0   0   0     0   0   0  
 102 109 115   108 115 121   106 114 117   101 109 112   103 111 114   110 118 121   102 110 112   112 120 122    94 102 104    75  83  85    74  82  84    58  66  68    39  48  47    43  49  49    51  52  56    63  62  67    79  78  83    93  92  97   103 103 105   109 109 111   112 112 112   114 114 114    87  87  85    78  78  76   105 106 101   125 127 122   140 141 135   142 143 137   125 126 120   138 135 132   112 102 102    80  69  73   106  97 102   117 112 116   123 123 126   137 142 143   117 126 128   118 130 130   107 120 120    90 102 102    66  74  77    52  55  60    61  58  65    88  81  89   111  99 109   120 108 118   125 122 129   106 105 111   112 110 117    94  93  99    51  50  56    64  63  69   103 104 109   103 104 109    86  87  92    99 100 105   114 113 118   122 121 126     0   0   0     0   0   0  
  86  93  99    99 106 112   112 122 124   100 110 112    78  88  90    74  84  86    88  98  99    95 105 106    96 106 107   108 118 120    78  86  88    58  66  68    36  45  44    44  50  50    43  44  46    38  38  40    43  43  45    40  40  41    49  49  49    54  54  54    61  61  59   106 106 104   115 115 113   102 102 100    95  96  91   100 101  96    99 100  94    85  86  80    78  79  73    83  79  76    75  64  68    57  44  51    98  92  96   139 137 140   132 137 137   124 133 132   124 136 134   123 135 133   111 124 123    80  90  91    77  82  85    83  84  88    93  88  95   106  99 107   117 105 115   130 120 129   123 121 126   121 122 126   127 126 131   118 117 122    99  98 103    98  97 102   117 116 122   132 130 137    63  62  68    64  63  69    94  93  99   124 123 129     0   0   0     0   0   0  
 108 114 120   112 119 125   113 123 125   101 111 113    81  91  93    67  77  79   108 118 119   118 128 129   111 121 122   117 127 128   116 124 126   120 127 129    85  93  92    61  66  67    95  97  99    90  89  92    84  84  87    67  66  69    56  56  57    42  42  43    35  35  34    71  71  70   120 120 118   112 112 110   111 112 107   115 116 111   111 112 106    89  91  84    60  61  55    42  39  35    76  66  70    79  68  75   103  98 101   134 135 137   127 134 134   114 125 124   125 138 135   127 139 137   119 130 128    98 105 107   114 114 119   133 130 136   139 134 141   134 127 135   122 113 122   121 115 122   124 124 128   118 120 124   121 123 127   125 124 129   124 124 128   131 131 135   135 133 139   128 127 132   112 110 117   110 109 115   118 118 123   120 119 125     0   0   0     0   0   0  
 115 120 126   115 121 127   108 117 120   114 124 126   123 133 135   122 132 134   122 132 133   125 135 136   115 125 126   115 124 126   116 122 125   113 118 121    98 104 104   101 105 106   133 134 138   141 140 145   141 140 145   127 126 131   109 109 111    80  80  82    67  67  67    94  94  94   130 130 128   125 125 123   119 120 115   120 121 116   123 124 118   117 118 112    97  98  92    77  76  72   100  92  97   123 115 122   118 117 119   133 138 138   128 137 136   107 119 117   122 136 131   125 136 133    99 106 106    86  88  89   101  98 103   116 110 117   122 117 124   129 125 133   126 123 132   130 128 136   131 134 137   130 134 137   128 132 135   120 122 126   110 113 116   120 121 125   131 131 136   128 127 132   140 139 145   133 132 138   127 128 133   121 122 127     0   0   0     0   0   0  
 119 123 129   117 122 128    98 106 110    99 107 110   110 120 122   109 119 121   115 125 126   104 114 115    86  95  97    78  86  88    74  79  82    54  59  62    64  69  69   108 110 111   125 126 130   124 124 129   116 117 122   128 128 133   146 147 150   136 136 140   123 124 125   130 130 132   130 132 130   123 125 123   108 110 106    97  99  95   101 103  98   115 116 111   118 120 115   114 113 111   121 118 121   141 138 143   104 106 109    95 103 103    92 103 101    73  85  81    92 103  99    98 105 102    84  85  86    57  53  56    48  40  47    51  42  50    78  73  80   117 115 124   117 118 126   104 107 114    97 102 105    93  98  99    87  92  93    77  81  83    72  76  79    91  92  96   109 110 114   111 112 116   126 126 132   121 122 127   123 125 132   133 136 142   136 140 146   126 131 137  
 108 111 118   112 115 122   107 112 116   105 113 116   103 113 115    96 106 108    92 102 103    80  88  90    55  63  65    50  55  58    85  90  92    89  91  95    95  96  98   116 117 121   125 126 131   124 125 130   104 105 110   109 111 116   126 127 131   120 121 125   121 123 125   132 133 135   132 134 132   123 125 124   101 103 100    76  77  74    60  62  57    56  58  53    54  56  51    50  51  48    66  66  68    79  79  83    50  55  58    42  52  53    45  57  53    32  44  40    41  50  47    44  48  47    44  40  41    39  31  35    50  39  45    56  46  55    81  76  83   119 119 127   117 123 131   101 110 115    60  70  71    58  67  66    57  66  65    52  58  58    40  44  47    45  49  52    62  63  67    69  70  74    74  75  80    68  68  73    61  65  71    67  71  77    69  74  80    60  66  72  
  98  98 105    90  93 100    92  97 101    87  92  96    78  85  88    77  85  88    84  91  93    78  86  88    56  64  66    55  60  63   120 124 127   134 135 139   121 122 124   111 112 116    96  96 101    91  94 101    63  65  70    69  72  77    84  87  92    66  69  74    53  56  59    44  47  50    46  50  51    46  50  51    45  48  47    43  46  45    41  46  42    42  46  42    43  48  44    46  48  47    31  31  35    38  40  45    41  49  51    49  58  59    52  64  60    43  54  50    35  43  38    37  38  36    47  41  43    48  35  42    76  63  70   104  92 102   128 123 130   145 147 155   126 136 142   106 120 123    88 101 100    78  88  87    76  84  83    71  77  77    55  59  62    53  57  60    72  73  77    87  88  92    87  88  93    80  81  86    61  64  71    56  59  66    61  66  72    59  66  72  
 105 110 114    98 102 106    92  97 101    76  80  84    60  64  67    60  64  67    87  90  93    82  85  87    68  71  74    69  71  74   112 113 116   106 106 110    85  85  87    74  73  78    46  47  52    74  74  82    81  81  87    91  91  96    87  87  92    60  60  65    50  47  52    44  42  44    46  44  46    48  46  46    59  56  56    60  58  56    56  54  50    68  67  62    82  81  77    81  78  76    53  48  51    53  48  52    64  62  64    66  66  67    60  61  60    55  55  54    58  55  54    72  67  66    89  79  83    98  86  90   127 116 122   139 131 138   130 127 134   122 124 130   115 122 127   120 130 132   119 130 127    96 106 101    76  85  81    78  84  83    94  98  99   111 115 118   127 128 132   136 137 142   127 128 133   124 124 132   119 122 129   120 125 132   127 134 140   124 131 137  
   0   0   0     0   0   0     0   0   0     0   0   0     0   0   0     0   0   0     0   0   0     0   0   0     0   0   0     0   0   0   106 105 109   103 102 106    91  91  94    84  83  88    88  87  93    98  97 105   104 103 109   105 102 109   107 103 109   105  99 106    91  84  88    74  65  70    84  74  77    91  81  82   115 105 104   104  95  93    70  61  58    86  77  75   114 106 103   102  93  90    72  59  60    84  70  73   101  87  89    97  84  86    79  66  68    83  70  72   113 100 102   136 123 126   139 128 132   138 128 132   136 129 134   130 127 131   124 123 128   120 121 125   116 121 124   116 123 124   112 120 114   107 116 108    82  89  83    71  77  74    98 103 103   120 124 126   120 122 126   116 118 123   113 115 121   100 102 109   112 116 124   117 123 131   116 123 129   113 121 127  
   0   0   0     0   0   0     0   0   0     0   0   0     0   0   0     0   0   0     0   0   0     0   0   0     0   0   0     0   0   0   107 106 112   106 105 110   105 105 110   109 110 115   108 108 113   106 105 111   103 102 108   105 103 109   113 108 114   119 112 119   118 109 114   114 103 109   126 114 118   128 117 119   141 130 131   130 120 118    89  79  78    65  57  54    64  55  53    59  51  49    63  52  53    82  69  72    97  84  86    91  78  82    83  70  74   101  88  92   124 111 115   129 117 123   120 110 115   116 110 113   114 109 113   113 111 114   115 114 119   114 115 119   110 113 117   105 111 111   111 120 113   107 116 107    78  87  80    59  65  61    78  84  82   107 112 112   118 123 126   121 125 129   122 126 132   111 117 123   114 120 127   115 123 129   122 132 135   115 128 130  
   0   0   0     0   0   0     0   0   0     0   0   0     0   0   0     0   0   0     0   0   0     0   0   0     0   0   0     0   0   0   104 102 113    98  98 107    99  99 108   105 105 113    93  94  99   100 100 105   109 109 114   116 115 121   116 113 119   114 109 115   117 110 117   125 115 121   120 111 116   124 115 120   128 119 121   126 117 119   110 103 105    90  84  86    86  81  80    97  90  92    81  75  77    65  56  60    67  58  63    87  77  82    99  90  95   105  96 101   114 105 110   118 108 113   119 112 116   115 110 114   112 110 113   113 113 115   115 116 120   115 119 122   112 117 120   107 116 115   110 120 112   104 116 106    77  87  79    43  52  47    44  50  46    74  80  80   102 108 108   115 120 123   114 122 125   117 126 131   121 131 133   117 127 130   125 139 139   124 139 139  
   0   0   0     0   0   0     0   0   0     0   0   0     0   0   0     0   0   0     0   0   0     0   0   0     0   0   0     0   0   0   107 107 119    99 101 113    96  98 110    97 100 109    99 102 109    96  97 102    96  97 102   103 102 108   108 105 112   111 106 113   110 105 112   113 106 113   115 108 115   122 115 122   119 112 119   117 111 118   127 122 128   131 126 132   131 129 132   138 137 142   129 127 132    94  91  98    84  83  88   105 104 109   115 110 116   107 103 109   107 102 108   111 107 113   116 112 118   116 114 119   116 115 120   117 118 122   116 120 123   117 122 125   118 124 127   117 127 125   103 113 105    96 106  97    78  88  80    57  65  60    57  63  59    79  85  85    97 106 105   100 108 110    89  99 100   104 114 116   121 133 133   116 130 130   110 126 125    84 103 101  
   0   0   0     0   0   0     0   0   0     0   0   0     0   0   0     0   0   0     0   0   0     0   0   0     0   0   0     0   0   0   108 110 121   109 111 124   109 112 123   109 112 123   107 110 116   111 115 119   116 117 122   113 114 119   112 111 117   113 110 117   116 113 120   119 114 122   121 116 124   126 122 129   120 117 125   113 111 120   117 116 125   121 120 129   118 119 125   114 116 122   122 126 134   111 116 123   109 113 120   111 112 120   105 105 114   106 106 113   112 111 118   109 109 115   117 116 123   118 118 123   120 121 125   119 123 127   118 123 126   115 120 123   110 118 120   108 117 116    88  97  89    72  79  71    63  69  62    62  67  63    69  73  69    92  96  95   114 119 120   116 121 123   114 121 123   101 110 111    95 106 106    76  89  88    56  72  70    40  58  56  
   0   0   0     0   0   0     0   0   0     0   0   0     0   0   0     0   0   0     0   0   0     0   0   0     0   0   0     0   0   0   115 118 126   116 119 128   116 119 127   114 117 125   111 115 119   113 117 120   109 110 114   101 102 106   104 103 109   114 112 119   116 113 122   110 107 116   116 114 123   116 115 124   119 119 128   117 117 129   112 113 124   112 114 124   113 116 126   109 115 124   109 117 126   108 117 125   112 121 129   112 119 128   109 114 123   118 121 129   125 127 134   119 121 128   130 132 139   126 129 135   124 128 132   121 126 130   115 122 124   102 110 112    84  94  95    73  82  81    61  66  60    53  56  50    60  61  56    63  63  61    50  50  49    57  57  58    84  86  88   100 102 104   103 106 109    89  93  96    93 101 101    77  87  86    46  59  57    36  50  47  
   0   0   0     0   0   0     0   0   0     0   0   0     0   0   0     0   0   0     0   0   0     0   0   0     0   0   0     0   0   0   117 121 125   116 120 124   102 106 110    96 100 104    85  89  92    69  73  76    60  62  65    49  50  54    72  71  77   106 105 111   100  99 107    89  88  96   104 104 113   111 111 121   114 116 126   109 113 124   104 108 119   106 111 123   110 117 128   107 116 126   103 115 124   108 121 130   106 119 127   107 117 126   112 120 129   103 109 118    83  88  96    73  77  85    78  83  89    90  94 100    83  88  92    65  70  74    59  67  70    63  71  74    59  69  70    55  62  61    58  59  56    55  52  49    64  61  57    71  68  67    56  52  53    43  38  42    62  58  62    91  88  92    94  93  97    92  92  97   109 112 113   118 123 124    99 107 105    70  80  77  
   0   0   0     0   0   0     0   0   0     0   0   0     0   0   0     0   0   0     0   0   0     0   0   0     0   0   0     0   0   0    77  81  81    86  90  91    82  86  86    85  87  89    67  71  74    64  65  69    61  62  66    42  41  46    62  61  67   109 108 114   116 115 123   112 111 119    99  99 109    96  96 106   102 106 115   114 118 129   106 112 122    87  95 106    86  95 106    97 110 119   111 124 133   116 129 137   108 121 129   100 110 119    94 103 112    70  77  87    45  49  58    42  46  55    51  56  62    76  81  87    85  90  94    76  81  85    73  81  84    81  89  91    89  99 100   103 109 109    99  98  96    95  90  89    91  85  85    83  78  79    67  61  65    58  48  56    66  59  66    85  78  85   114 109 115   125 120 126   129 127 132   124 125 126   119 121 123   111 115 114  
   0   0   0     0   0   0     0   0   0     0   0   0     0   0   0     0   0   0     0   0   0     0   0   0     0   0   0     0   0   0    71  76  71    78  80  79    82  83  80    84  84  84    88  89  91   100 100 105    96  95 100    59  58  63    54  53  59    89  86  93   104 104 112   106 105 113   110 110 118   106 106 116   110 114 123   110 117 127    86  95 104    58  68  77    68  78  87    98 111 119   104 117 124   110 121 127   116 127 133   126 134 141   126 132 140   110 114 123   103 108 113   117 119 126   127 130 137   128 132 138   121 124 129   114 119 123   115 123 126   113 121 124   111 119 122   118 123 126   117 117 117   125 121 122   122 119 120   109 104 108    95  89  93    87  80  87    81  71  79    73  63  72    84  77  85    86  81  88    79  74  82    73  71  76    88  88  90   112 113 115  
   0   0   0     0   0   0     0   0   0     0   0   0     0   0   0     0   0   0     0   0   0     0   0   0     0   0   0     0   0   0    90  92  89    90  90  90    92  92  91    93  92  93    94  93  96   106 105 110   102 101 106    80  77  83    72  68  75    88  85  92   102 101 108   106 105 112   111 111 118   117 117 124   115 120 125   104 111 118    93 102 109    92 102 110    97 110 115   104 116 122   102 112 117    90  98 103    88  96 100    97 102 108    94  99 104    77  80  86    73  75  81    85  84  92    96  98 105   108 110 116   109 111 117   108 110 116   114 119 123   113 120 124   107 114 118   106 112 116   109 112 114   115 116 119   117 118 121   116 115 120   115 114 119   116 112 120   110 104 113   101  94 106    76  72  79    54  50  57    40  36  44    49  46  53    70  69  74    82  82  85  
   0   0   0     0   0   0     0   0   0     0   0   0     0   0   0     0   0   0     0   0   0     0   0   0     0   0   0     0   0   0    94  94  96    94  93  96    99  98 101   107 103 108    99  97 102   106 103 108   102  99 104   102  97 103    99  94 101    98  93 100   103 100 107   101  99 106    95  95 101   102 103 108   104 108 113   103 111 115   107 116 120   112 123 128   110 124 126   108 119 122    95 103 105    65  70  73    47  52  54    50  52  57    46  48  53    40  40  45    44  44  49    53  52  58    70  70  76   100 100 106   116 116 124   113 115 122   114 118 124   114 119 125   105 112 118   100 107 112    86  96  98    83  91  94    86  93  95    95  99 104   102 106 111   106 107 116   110 110 119   115 113 124   118 116 126    98  97 106    86  85  93    91  91  98    98  99 104    90  93  96  
   0   0   0     0   0   0     0   0   0     0   0   0     0   0   0     0   0   0     0   0   0     0   0   0     0   0   0     0   0   0    91  90  96    83  80  86    79  75  81    86  79  87    94  89  96   106  99 107   103  96 104   112 105 113   113 107 114   109 102 109   115 110 117   106 103 109    97  96 102   101 102 107   105 109 112   100 108 110    87  97  98    74  85  88    75  89  90    88  99 100    71  75  77    52  53  56    53  54  55    71  70  73    76  75  78    83  81  86    98  96 101   104 102 108   114 111 118   122 120 127   118 117 124   113 113 119   119 122 129   120 123 130   108 113 119    97 106 111    85  98 100    84  98 100    90 103 106    98 109 116   101 111 117    99 107 115   100 105 115   105 110 120   116 119 129   116 118 129   115 117 125   114 116 123   115 120 124   113 117 121  
   0   0   0     0   0   0     0   0   0     0   0   0     0   0   0     0   0   0     0   0   0     0   0   0     0   0   0     0   0   0   103 101 109    89  88  96    72  69  77    70  67  76    94  89  96   118 112 119   115 109 116   116 112 119   115 112 118   116 113 118   127 126 131   114 113 118   119 120 124   115 118 121   109 114 117   101 109 111    91 101 102    75  85  86    51  64  64    37  46  45    34  35  37    44  42  45    82  80  82   117 115 118   121 119 122   121 119 124   126 124 129   122 120 126   118 118 123   118 118 124   112 115 120   114 117 122   118 123 129   110 115 121   101 108 114   104 114 116   101 117 118   101 119 121   103 118 121    98 111 117    92 105 111    94 103 110    96 105 112   100 107 115   101 105 114   100 104 114   101 106 113   105 110 116   107 115 118   109 116 119  
   0   0   0     0   0   0     0   0   0     0   0   0     0   0   0     0   0   0     0   0   0     0   0   0     0   0   0     0   0   0     0   0   0     0   0   0     0   0   0     0   0   0     0   0   0     0   0   0     0   0   0     0   0   0     0   0   0     0   0   0     0   0   0     0   0   0     0   0   0     0   0   0     0   0   0     0   0   0     0   0   0     0   0   0    42  48  48    37  41  42    39  39  41    62  60  65    90  89  94   110 110 115   117 118 123   113 116 123   112 117 123   112 120 125   110 120 125   113 123 128   109 119 123   108 117 122   113 124 126   110 121 123   104 114 116   104 116 116   100 114 114   110 124 124     0   0   0     0   0   0     0   0   0     0   0   0     0   0   0     0   0   0     0   0   0     0   0   0     0   0   0     0   0   0     0   0   0     0   0   0  
   0   0   0     0   0   0     0   0   0     0   0   0     0   0   0     0   0   0     0   0   0     0   0   0     0   0   0     0   0   0     0   0   0     0   0   0     0   0   0     0   0   0     0   0   0     0   0   0     0   0   0     0   0   0     0   0   0     0   0   0     0   0   0     0   0   0     0   0   0     0   0   0     0   0   0     0   0   0     0   0   0     0   0   0    40  44  42    53  55  54    85  82  86   101  99 104   111 109 114   115 116 121   117 120 127   107 114 120   101 110 117   106 116 123   102 114 120   105 117 124   100 113 116    99 112 115   107 120 121   108 119 121   104 116 116   107 119 118   108 119 117    89 100  98     0   0   0     0   0   0     0   0   0     0   0   0     0   0   0     0   0   0     0   0   0     0   0   0     0   0   0     0   0   0     0   0   0     0   0   0  
   0   0   0     0   0   0     0   0   0     0   0   0     0   0   0     0   0   0     0   0   0     0   0   0     0   0   0     0   0   0     0   0   0     0   0   0     0   0   0     0   0   0     0   0   0     0   0   0     0   0   0     0   0   0     0   0   0     0   0   0     0   0   0     0   0   0     0   0   0     0   0   0     0   0   0     0   0   0     0   0   0     0   0   0    66  70  66    84  85  83   117 116 117   127 126 129   117 117 122   107 109 113   107 111 117    91  98 104    72  80  87    72  81  88    88  98 105    97 107 113    98 109 113   102 113 116   110 121 122   111 120 121   107 117 116   112 120 120   114 122 119    90  98  96     0   0   0     0   0   0     0   0   0     0   0   0     0   0   0     0   0   0     0   0   0     0   0   0     0   0   0     0   0   0     0   0   0     0   0   0  
   0   0   0     0   0   0     0   0   0     0   0   0     0   0   0     0   0   0     0   0   0     0   0   0     0   0   0     0   0   0     0   0   0     0   0   0     0   0   0     0   0   0     0   0   0     0   0   0     0   0   0     0   0   0     0   0   0     0   0   0     0   0   0     0   0   0     0   0   0     0   0   0     0   0   0     0   0   0     0   0   0     0   0   0    80  81  77    91  91  89    81  83  82    89  90  92    82  85  88    78  82  85    86  91  94    74  81  87    51  58  64    41  49  55    63  70  76    73  80  87    76  86  89    81  90  92    87  96  97    87  92  95    82  89  89    88  93  92    74  77  74    66  69  66     0   0   0     0   0   0     0   0   0     0   0   0     0   0   0     0   0   0     0   0   0     0   0   0     0   0   0     0   0   0     0   0   0     0   0   0  
   0   0   0     0   0   0     0   0   0     0   0   0     0   0   0     0   0   0     0   0   0     0   0   0     0   0   0     0   0   0     0   0   0     0   0   0     0   0   0     0   0   0     0   0   0     0   0   0     0   0   0     0   0   0     0   0   0     0   0   0     0   0   0     0   0   0     0   0   0     0   0   0     0   0   0     0   0   0     0   0   0     0   0   0    55  54  50    47  47  45    59  63  62    66  70  71    74  79  80    80  85  88    84  89  92    82  90  93    70  78  81    54  61  67    48  55  60    49  54  60    40  45  49    37  42  46    45  50  53    46  51  53    42  47  48    47  49  48    39  40  35    58  57  53     0   0   0     0   0   0     0   0   0     0   0   0     0   0   0     0   0   0     0   0   0     0   0   0     0   0   0     0   0   0     0   0   0     0   0   0  
