P3
50 50
255
  37  38  30    44  44  36    49  49  41    50  50  42    50  50  42    47  47  39    43  43  35    41  42  35    39  40  34    40  41  35    39  39  34    35  37  30    36  37  31    35  36  30    30  31  25    30  31  25    36  37  31    35  36  30    34  35  29    40  41  35    41  44  37    36  40  32    40  43  36    40  43  36    47  50  43    51  54  47    47  50  43    50  53  46    44  47  40    45  48  41    50  53  46    48  50  44    50  53  46    51  54  47    53  56  49    46  49  42    46  49  42    44  47  40    36  40  32    53  56  49    59  62  55    51  54  47    48  51  44    61  64  57    59  62  55    51  52  46    58  58  52    54  53  48    52  51  46    44  43  38  
  39  40  32    45  46  38    48  48  40    45  45  37    43  43  35    41  41  33    41  41  33    41  42  36    38  39  33    40  41  35    39  39  34    34  35  29    32  33  27    34  35  29    32  33  27    34  35  29    39  40  34    39  40  34    39  40  34    45  46  40    38  41  34    35  38  31    39  42  35    44  47  40    49  52  44    50  53  46    50  53  46    49  52  45    45  48  41    44  47  40    49  52  45    47  50  43    48  51  44    54  58  50    60  64  57    58  61  54    58  61  54    51  54  47    37  40  33    46  48  42    55  58  51    51  54  47    52  55  48    66  69  62    64  67  60    56  57  51    62  62  57    53  52  47    47  46  41    40  39  34  
  38  39  33    42  43  37    43  42  37    39  38  31    38  38  30    39  39  31    39  39  31    37  38  32    36  37  31    39  39  34    39  41  34    36  37  31    32  33  27    41  42  36    42  43  37    41  42  36    41  42  36    37  38  32    33  34  28    37  37  32    36  39  32    36  39  32    39  42  35    49  52  45    46  50  43    43  46  39    53  56  49    53  56  49    53  56  49    49  52  45    53  56  49    53  56  49    51  54  47    57  62  55    63  68  61    60  65  58    60  65  58    54  57  50    40  43  36    45  48  41    53  56  49    51  53  47    53  54  48    66  67  61    65  65  60    56  58  51    59  59  53    49  48  43    42  41  36    42  41  36  
  39  40  34    38  39  33    36  35  30    36  36  29    40  40  32    42  42  34    38  38  31    33  34  28    34  35  29    39  40  34    43  44  38    40  41  35    36  37  31    40  41  35    40  41  35    40  41  35    38  39  33    33  34  28    30  32  25    34  34  29    37  40  33    39  42  35    39  42  35    50  53  46    42  45  38    34  37  30    51  53  46    55  58  51    55  58  51    48  51  45    51  54  47    54  57  50    53  56  49    57  61  54    58  63  56    53  58  51    54  58  51    53  56  49    47  50  43    54  57  50    55  58  51    49  52  45    47  48  42    57  58  52    59  60  54    50  51  45    49  49  43    44  43  38    41  40  35    49  48  43  
  44  45  39    37  38  32    34  33  28    37  37  30    44  44  36    42  42  34    36  37  29    34  35  29    37  38  33    43  44  39    44  46  41    41  42  37    39  40  35    32  33  28    31  32  27    34  35  30    35  36  31    35  36  31    38  39  34    44  45  40    35  38  31    40  43  36    40  43  36    49  52  45    38  41  34    31  34  27    48  51  45    52  55  48    49  52  45    43  46  39    45  48  41    48  51  44    51  54  47    53  57  50    51  56  49    48  53  46    51  56  49    52  57  50    52  56  49    57  60  53    58  61  54    47  49  42    41  42  36    49  49  44    56  54  49    49  49  44    46  46  41    46  45  40    44  43  38    50  49  44  
  49  50  44    42  43  37    37  36  31    39  39  32    44  44  37    41  41  33    36  35  30    40  41  36    44  45  40    47  48  43    43  44  39    37  38  33    37  38  33    38  39  34    40  41  36    39  41  36    36  37  32    34  35  30    37  38  33    42  43  38    32  35  28    37  40  33    40  43  36    45  48  41    38  41  34    35  38  31    50  53  46    54  57  50    52  55  48    49  52  45    51  54  47    51  53  46    56  59  52    54  58  51    49  54  47    50  55  48    56  61  53    57  62  55    55  59  52    53  56  49    56  59  52    48  50  43    41  42  36    45  45  40    53  52  47    53  52  47    49  48  43    49  48  43    47  46  41    46  45  40  
  47  48  42    45  45  40    42  41  36    40  40  35    43  42  37    40  40  32    37  38  30    42  43  37    47  48  43    49  50  45    41  42  37    34  35  30    36  37  32    44  45  40    48  49  44    44  45  40    35  36  31    31  32  27    33  34  29    37  39  34    34  37  30    39  42  35    44  47  40    41  44  37    37  40  33    40  43  36    48  51  43    53  56  49    52  55  48    56  59  52    59  62  55    52  55  48    58  61  54    57  62  55    50  56  48    48  55  47    52  59  51    54  59  52    54  57  51    50  53  46    52  53  47    52  53  47    48  49  43    43  42  37    46  45  40    51  49  44    48  47  42    48  47  42    50  49  44    47  46  41  
  40  41  35    43  45  38    45  45  39    42  41  36    42  41  36    43  43  35    40  41  35    39  40  35    47  48  43    48  49  44    39  40  35    33  35  30    39  39  34    38  37  33    38  39  34    37  38  33    32  33  28    32  33  28    40  41  36    47  49  44    40  43  36    43  46  39    48  51  44    39  42  35    37  40  33    43  46  39    41  44  37    42  45  38    43  46  39    54  57  50    56  59  52    44  47  40    48  52  45    56  61  54    50  55  48    44  49  42    44  49  42    48  53  46    53  57  50    52  55  48    49  50  44    56  57  51    54  55  49    39  40  34    37  36  31    43  42  37    41  40  35    42  41  36    53  52  47    52  51  46  
  47  50  43    42  46  38    46  49  42    47  50  43    45  48  41    46  49  42    43  46  39    39  42  35    42  45  38    44  45  39    44  44  38    39  38  33    41  40  35    44  43  38    36  35  30    33  32  27    34  35  29    34  36  29    38  41  34    40  45  38    42  47  40    45  50  43    41  46  39    36  41  34    33  38  31    36  41  34    43  48  41    39  44  37    41  46  39    50  55  48    45  50  43    43  48  41    42  47  40    41  46  39    42  47  40    35  40  33    40  43  36    43  46  39    39  42  35    45  48  41    45  48  41    46  48  41    49  52  45    52  55  48    52  55  48    48  50  44    43  44  38    41  39  34    43  40  35    46  43  38  
  46  49  42    40  43  36    36  39  32    35  39  32    39  42  35    43  46  39    38  42  34    34  39  32    39  42  35    45  47  40    54  53  48    55  54  49    58  55  50    51  49  44    40  37  32    34  33  28    33  33  27    33  35  28    39  43  36    45  50  43    42  47  40    44  49  42    40  45  38    38  43  36    35  40  33    37  42  35    44  49  42    42  47  40    38  43  36    42  47  40    38  43  36    43  48  41    49  54  47    47  50  43    46  49  42    47  50  43    50  53  46    47  50  43    42  45  38    42  45  38    49  52  45    50  53  46    52  55  48    53  56  49    52  55  48    50  53  46    45  45  39    46  44  39    61  58  53    54  51  46  
  41  44  37    42  45  38    36  39  32    33  35  29    40  43  36    41  44  37    33  37  30    31  36  29    34  38  30    42  45  38    60  60  55    66  65  60    68  65  60    54  51  46    42  39  34    37  36  31    33  34  28    33  36  29    42  46  39    51  56  49    42  47  40    42  47  40    40  45  38    40  45  38    39  44  37    38  43  36    45  50  43    44  49  42    37  42  35    38  43  36    33  38  31    41  46  39    49  54  47    46  50  43    44  47  40    55  59  52    59  62  55    51  54  47    49  52  45    43  45  39    51  54  47    51  54  47    51  54  47    52  55  48    51  54  47    50  53  46    46  47  41    53  52  47    68  67  62    54  53  48  
  40  43  36    53  56  49    49  52  45    41  45  37    44  47  40    40  43  36    33  36  29    32  37  30    31  35  28    38  39  33    58  57  52    65  63  58    62  59  54    49  46  41    42  39  34    40  39  34    37  37  32    36  38  32    45  49  42    53  58  51    43  48  41    40  45  38    39  44  37    43  48  41    42  47  40    38  43  36    43  48  41    42  47  40    38  43  36    38  43  36    32  37  30    38  43  36    43  48  41    42  45  38    38  41  34    55  58  51    58  61  54    49  52  45    54  57  50    48  51  44    48  51  44    45  48  41    45  48  41    48  51  44    51  54  47    47  50  44    47  49  42    59  59  53    61  60  55    50  49  44  
  51  54  47    69  72  65    61  64  57    45  48  41    41  44  37    37  39  32    33  37  30    34  39  32    31  34  27    33  36  29    50  51  45    58  56  51    53  50  45    43  41  36    41  38  33    43  42  37    40  42  36    40  43  36    47  51  44    52  57  49    42  47  40    38  43  36    39  44  37    44  49  42    42  47  40    38  43  36    44  49  42    44  49  42    40  45  38    39  44  37    34  39  32    43  48  41    48  53  46    43  47  40    37  40  33    49  52  45    49  52  45    43  46  39    52  56  49    49  52  45    46  49  42     0   0   0     0   0   0     0   0   0     0   0   0     0   0   0     0   0   0     0   0   0     0   0   0     0   0   0  
  61  64  57    75  78  71    58  61  54    38  41  34    32  35  28    31  34  27    34  38  31    36  41  34    33  37  30    32  33  27    46  45  40    53  51  46    49  46  41    42  39  34    41  38  33    44  43  38    43  43  37    43  45  39    48  53  46    49  54  47    42  47  40    38  43  36    39  44  37    44  49  42    40  45  38    38  43  35    46  51  44    49  54  47    42  47  40    37  42  35    34  39  32    48  53  46    58  63  56    48  52  45    41  44  37    47  50  43    43  47  39    40  43  36    47  50  43    44  47  40    46  49  42     0   0   0     0   0   0     0   0   0     0   0   0     0   0   0     0   0   0     0   0   0     0   0   0     0   0   0  
  55  58  51    64  67  60    49  52  45    36  39  32    33  36  29    30  34  27    36  40  33    36  41  34    36  39  32    30  33  26    40  40  35    46  44  39    45  42  37    43  40  35    42  39  34    42  41  36    40  42  35    43  46  39    50  54  47    48  53  46    45  48  41    40  43  36    41  44  37    45  48  41    40  43  35    38  41  34    49  52  45    52  55  48    45  48  41    39  42  35    35  38  31    49  51  44    56  59  52    44  47  40    44  47  40    48  51  44    46  49  42    47  50  43    45  48  41    40  43  36    44  47  40     0   0   0     0   0   0     0   0   0     0   0   0     0   0   0     0   0   0     0   0   0     0   0   0     0   0   0  
  41  44  37    50  53  46    42  45  38    41  44  37    41  44  37    34  37  30    37  41  34    37  42  35    37  40  33    30  32  25    34  33  28    39  38  33    39  36  31    43  40  35    43  40  35    40  39  34    38  37  32    43  45  38    50  55  48    48  53  46    45  48  41    40  43  36    41  44  37    44  47  40    38  41  34    37  40  33    47  50  43    49  52  45    47  50  43    42  45  38    35  38  30    41  44  37    41  44  37    35  38  31    45  48  41    49  52  45    51  54  47    56  59  52    47  50  43    41  44  37    40  43  36     0   0   0     0   0   0     0   0   0     0   0   0     0   0   0     0   0   0     0   0   0     0   0   0     0   0   0  
   0   0   0     0   0   0     0   0   0     0   0   0    34  37  30    35  38  31    37  40  33    37  42  35    34  38  31    31  34  27    36  37  31    49  47  42    47  44  39    42  39  34    43  40  35    44  43  38    43  45  38    41  44  37    41  46  39    48  53  46    40  44  37    37  40  33    40  43  36    44  47  40    41  44  37    39  42  35    41  44  37    46  49  42    42  45  38    33  36  29    35  38  31    39  42  35    41  44  37    47  49  43    50  53  46    45  48  41    47  50  43    52  55  48    45  48  41    36  40  33    38  41  34     0   0   0     0   0   0     0   0   0     0   0   0     0   0   0     0   0   0     0   0   0     0   0   0     0   0   0  
   0   0   0     0   0   0     0   0   0     0   0   0    36  39  32    36  39  32    36  40  33    34  39  32    34  37  30    34  35  29    41  40  35    57  55  50    62  59  54    48  45  40    43  40  35    41  40  35    41  41  35    39  41  35    39  43  36    42  47  40    45  49  42    42  45  38    43  46  39    45  48  41    45  48  41    45  48  41    47  50  43    50  53  46    44  47  40    35  39  32    35  38  31    34  37  30    38  41  34    48  51  44    54  57  50    54  57  49    51  55  47    52  55  48    45  48  41    40  43  36    43  46  39     0   0   0     0   0   0     0   0   0     0   0   0     0   0   0     0   0   0     0   0   0     0   0   0     0   0   0  
   0   0   0     0   0   0     0   0   0     0   0   0    39  42  35    38  41  34    36  40  33    34  39  32    36  40  33    36  39  32    42  43  37    60  58  53    69  66  61    53  50  45    43  40  35    40  39  34    40  41  35    39  42  35    37  42  35    39  44  37    49  52  45    46  47  41    45  46  40    46  47  41    48  49  43    51  52  46    56  57  51    58  59  53    48  50  43    41  42  36    38  39  33    34  35  29    39  40  34    44  46  39    51  54  47    52  55  49    48  51  44    46  49  42    41  44  37    42  45  38    45  48  40     0   0   0     0   0   0     0   0   0     0   0   0     0   0   0     0   0   0     0   0   0     0   0   0     0   0   0  
   0   0   0     0   0   0     0   0   0     0   0   0    41  44  37    39  43  36    37  40  33    37  42  35    40  44  37    41  42  36    40  39  34    50  48  43    59  56  51    49  46  41    44  41  36    43  42  37    42  42  36    39  41  34    38  42  35    43  47  39    52  52  47    47  48  42    43  44  38    43  44  38    47  48  42    53  54  48    60  61  55    63  64  58    49  50  44    46  47  41    47  48  42    41  42  36    45  46  40    46  49  42    50  53  46    48  51  44    44  47  40    45  48  41    44  47  40    47  49  43    51  54  47     0   0   0     0   0   0     0   0   0     0   0   0     0   0   0     0   0   0     0   0   0     0   0   0     0   0   0  
   0   0   0     0   0   0     0   0   0     0   0   0    43  46  39    39  42  35    35  39  32    35  40  33    41  44  37    41  44  37    34  35  29    38  36  31    43  40  35    40  37  32    42  39  34    44  43  38    42  44  38    37  40  33    36  41  34    43  48  41    52  54  48    50  51  45    46  47  41    44  45  39    48  49  43    54  55  49    61  63  56    63  64  58    48  49  43    49  49  44    57  59  52    53  54  48    53  54  48    58  60  54    59  62  55    50  53  46    46  49  42    51  54  47    51  54  47    52  55  48    55  58  51     0   0   0     0   0   0     0   0   0     0   0   0     0   0   0     0   0   0     0   0   0     0   0   0     0   0   0  
   0   0   0     0   0   0     0   0   0     0   0   0    43  46  39    38  41  34    33  36  29    31  36  29    38  41  34    42  43  37    34  34  29    33  32  27    37  34  29    36  32  27    39  35  30    43  42  37    44  43  38    39  41  34    35  40  33    41  44  37    54  55  49    54  55  49    51  52  46    48  49  43    52  52  47    56  57  51    59  60  54    59  60  54    47  48  42    47  49  42    58  59  53    57  58  52    55  56  50    60  62  55    57  60  53    45  48  41    43  46  39    49  52  45    48  51  44    44  47  40    48  51  44     0   0   0     0   0   0     0   0   0     0   0   0     0   0   0     0   0   0     0   0   0     0   0   0     0   0   0  
   0   0   0     0   0   0     0   0   0     0   0   0    42  45  38    37  40  33    30  34  27    31  36  29    37  40  33    41  44  37    37  38  32    38  36  31    43  40  35    42  39  34    42  39  34    43  43  37    47  48  42    44  47  40    38  42  35    35  40  33    50  53  46    55  56  50    54  55  49    51  51  46    52  53  47    53  54  48    52  53  47    52  53  47    47  48  42    44  45  39    50  51  45    50  51  45    47  48  42    47  49  43    46  49  42    38  41  34    38  41  34    45  48  41    42  45  38    37  40  33    43  46  39     0   0   0     0   0   0     0   0   0     0   0   0     0   0   0     0   0   0     0   0   0     0   0   0     0   0   0  
   0   0   0     0   0   0     0   0   0     0   0   0    43  44  38    37  38  32    32  33  27    36  39  32    38  41  34    43  44  38    40  39  34    43  41  36    49  46  41    50  48  43    47  44  39    45  45  40    53  53  47    54  56  49    45  48  41    35  38  31    45  48  41    52  53  47    53  54  48    49  50  44    49  50  44    48  49  43    45  46  40    47  48  42    47  48  42    40  42  35    41  42  36    41  40  35    40  40  34    37  39  32    39  42  34    37  40  33    41  44  37    49  52  45    46  49  42    41  44  37    52  55  48     0   0   0     0   0   0     0   0   0     0   0   0     0   0   0     0   0   0     0   0   0     0   0   0     0   0   0  
   0   0   0     0   0   0     0   0   0     0   0   0    44  44  36    42  42  34    45  46  38    45  46  40    45  45  40    49  48  43    48  47  42    50  48  43    63  62  57    65  64  59    56  55  50    50  49  44    51  50  45    48  48  43    42  43  37    39  40  34    47  50  43    48  53  46    43  47  40    38  41  35    43  46  39    49  50  44    46  47  41    44  45  39    44  43  38    39  38  33    33  32  27    35  34  29    42  41  36    41  42  36    36  39  32    40  44  37    47  50  43    47  50  43    48  50  44    45  48  41    49  52  45     0   0   0     0   0   0     0   0   0     0   0   0     0   0   0     0   0   0     0   0   0     0   0   0     0   0   0  
   0   0   0     0   0   0     0   0   0     0   0   0    48  48  40    48  45  38    51  49  42    52  51  46    53  52  47    50  49  44    50  49  44    54  53  48    56  55  50    55  53  48    50  49  44    47  46  41    46  45  40    44  43  38    42  41  36    44  45  39    43  46  39    45  50  43    45  50  43    42  46  39    43  46  39    45  46  40    44  45  39    41  42  36    40  40  34    39  38  33    41  38  33    41  38  33    40  38  33    38  39  33    37  40  33    40  43  36    43  46  40    47  50  43    50  53  45    47  50  43    35  38  31     0   0   0     0   0   0     0   0   0     0   0   0     0   0   0     0   0   0     0   0   0     0   0   0     0   0   0  
   0   0   0     0   0   0     0   0   0     0   0   0    49  49  41    48  48  40    53  53  46    55  54  49    55  54  49    46  45  40    48  47  42    57  56  51    53  52  47    48  47  42    47  46  41    47  46  41    44  43  38    41  40  35    43  42  37    49  50  44    39  42  35    41  45  38    48  51  44    46  49  42    40  43  36    40  41  35    41  42  36    37  38  32    36  36  30    39  39  34    44  43  38    43  41  36    37  35  30    35  35  30    39  41  34    41  44  37    41  44  37    47  50  43    50  54  47    46  49  42    35  38  31     0   0   0     0   0   0     0   0   0     0   0   0     0   0   0     0   0   0     0   0   0     0   0   0     0   0   0  
   0   0   0     0   0   0     0   0   0     0   0   0    46  46  38    45  45  37    52  51  44    55  54  49    50  49  44    43  43  38    45  45  40    53  52  47    55  54  49    50  49  44    49  48  43    49  48  43    46  45  40    43  42  37    44  43  38    48  48  42    37  40  33    37  41  34    45  48  41    46  49  42    38  41  34    36  38  31    40  41  35    37  38  32    37  36  31    39  39  34    43  42  37    41  39  34    36  34  29    34  34  29    41  44  37    43  46  39    42  45  38    48  51  44    48  51  44    41  45  38    44  47  40     0   0   0     0   0   0     0   0   0     0   0   0     0   0   0     0   0   0     0   0   0     0   0   0     0   0   0  
   0   0   0     0   0   0     0   0   0     0   0   0    45  44  39    43  42  37    50  49  44    53  52  47    49  48  43    53  52  47    52  51  46    46  46  41    53  52  47    52  51  46    50  49  44    49  48  43    46  45  40    45  44  39    42  41  36    40  41  35    38  41  34    37  40  33    42  45  38    43  46  40    37  40  33    37  38  32    41  42  36    39  40  34    40  40  35    40  39  34    38  37  32    37  36  31    37  36  31    36  37  31    44  47  40    46  49  42    45  48  41    49  52  45    43  46  39    36  39  32    42  45  38     0   0   0     0   0   0     0   0   0     0   0   0     0   0   0     0   0   0     0   0   0     0   0   0     0   0   0  
   0   0   0     0   0   0     0   0   0     0   0   0    48  47  42    44  43  38    49  48  43    50  49  44    50  49  44    63  63  58    59  58  53    44  43  38    46  45  40    47  46  41    47  46  41    45  44  39    43  42  37    43  42  37    41  41  36    37  38  32    41  42  36    38  41  34    41  44  37    43  46  39    42  45  38    41  42  36    40  41  35    41  42  36    43  42  37    39  38  33    34  33  28    35  34  29    42  42  36    41  42  36    46  49  42    47  50  43    49  52  45    50  53  46    39  41  34    36  39  32    40  43  36     0   0   0     0   0   0     0   0   0     0   0   0     0   0   0     0   0   0     0   0   0     0   0   0     0   0   0  
   0   0   0     0   0   0     0   0   0     0   0   0    48  49  43    44  43  38    45  45  40    44  45  39    44  45  39    52  53  47    52  53  47    42  43  37    40  41  35    40  41  35    43  44  38    42  43  37    38  39  33    39  40  34    44  45  39    47  48  42    43  44  38    43  44  38    44  45  39    48  49  43    52  53  47    46  47  41    39  40  34    39  40  34    40  42  35    38  39  33    35  36  30    38  39  33    46  47  41    46  47  41    48  49  43    44  45  39    50  51  45    51  52  46    38  39  33    42  43  37    46  47  41     0   0   0     0   0   0     0   0   0     0   0   0     0   0   0     0   0   0     0   0   0     0   0   0     0   0   0  
   0   0   0     0   0   0     0   0   0     0   0   0    47  48  42    42  41  36    40  40  35    38  39  33    33  34  28    32  33  27    38  40  33    44  45  39    41  42  36    37  38  32    42  43  37    43  44  38    37  38  32    39  40  34    51  52  46    60  61  55    44  45  39    46  47  41    47  48  42    52  53  47    58  59  53    49  51  44    37  38  32    37  38  32    39  40  34    38  39  33    38  39  33    42  43  37    49  50  44    50  51  45    48  49  43    41  42  36    49  50  44    50  51  45    38  39  33    48  49  43    47  48  42     0   0   0     0   0   0     0   0   0     0   0   0     0   0   0     0   0   0     0   0   0     0   0   0     0   0   0  
   0   0   0     0   0   0     0   0   0     0   0   0    42  43  38    42  43  38    43  44  38    39  40  34    33  34  28    36  37  31    39  39  34    36  37  31    38  39  33    40  40  35    42  43  37    45  46  40    45  46  40    42  43  37    49  50  44    66  66  61    47  48  42    51  52  46    66  67  61    59  60  54    47  48  42    42  43  37    35  36  30    43  44  38    45  46  40    43  44  38    43  44  38    45  46  40    56  57  51    59  60  54    54  55  49    51  52  46    47  48  42    42  43  37    44  45  39    54  55  49    52  53  47     0   0   0     0   0   0     0   0   0     0   0   0     0   0   0     0   0   0     0   0   0     0   0   0     0   0   0  
   0   0   0     0   0   0     0   0   0     0   0   0    36  37  32    36  37  32    36  37  32    34  35  29    35  35  30    37  38  32    36  37  31    35  36  30    37  38  32    38  39  33    42  43  37    48  49  43    46  47  41    44  45  39    50  52  45    62  63  57    53  54  48    48  49  43    55  56  50    48  49  43    43  44  38    44  45  39    39  40  34    47  48  42    52  53  47    54  55  49    53  54  48    49  50  44    52  53  47    51  52  46    51  52  46    45  46  40    37  38  32    42  43  37    53  54  48    59  59  54    58  59  53     0   0   0     0   0   0     0   0   0     0   0   0     0   0   0     0   0   0     0   0   0     0   0   0     0   0   0  
   0   0   0     0   0   0     0   0   0     0   0   0    30  32  27    32  33  28    33  34  29    32  35  28    38  41  34    36  39  32    34  37  30    37  41  33    39  42  35    34  37  30    43  46  39    51  54  47    47  50  43    47  50  43    51  54  47    56  57  51    58  58  53    48  47  42    49  48  43    47  46  41    47  46  41    47  48  42    43  44  38    49  50  44    52  54  47    54  58  51    55  58  51    49  52  45    48  50  44    46  47  41    50  49  44    45  44  39    37  36  31    47  46  41    57  56  51    52  50  45    51  50  45     0   0   0     0   0   0     0   0   0     0   0   0     0   0   0     0   0   0     0   0   0     0   0   0     0   0   0  
   0   0   0     0   0   0     0   0   0     0   0   0    30  32  27    33  34  29    34  36  30    36  39  32    40  44  37    35  38  30    35  38  31    44  47  40    43  46  39    34  37  30    44  48  41    54  57  49    49  52  45    50  53  46    53  55  49    49  50  44    58  57  52    49  48  43    52  51  46    55  54  49    54  53  48    49  50  44    42  43  37    45  46  40    43  45  38    44  47  40    49  52  45    46  49  42    47  50  43    47  49  43    50  50  44    49  49  44    48  47  42    52  51  46    50  49  44    39  38  33    42  41  36     0   0   0     0   0   0     0   0   0     0   0   0     0   0   0     0   0   0     0   0   0     0   0   0     0   0   0  
   0   0   0     0   0   0     0   0   0     0   0   0    34  36  31    35  37  32    37  39  34    39  42  35    38  41  34    30  33  26    35  38  31    48  51  45    45  48  41    36  39  32    46  48  42    54  57  50    50  54  47    52  55  48    52  56  48    47  49  43    56  55  50    51  48  43    51  50  45    55  54  49    55  54  49    47  48  42    40  41  35    38  39  33    36  38  31    39  42  34    46  49  42    46  50  43    47  51  44    50  52  46    46  45  40    48  47  42    56  55  50    54  53  48    47  46  41    45  44  39    48  47  42     0   0   0     0   0   0     0   0   0     0   0   0     0   0   0     0   0   0     0   0   0     0   0   0     0   0   0  
   0   0   0     0   0   0     0   0   0     0   0   0    38  40  35    37  39  34    38  40  35    40  43  36    36  39  32    28  31  25    36  39  32    48  51  44    44  47  40    40  43  35    47  50  43    53  56  49    52  55  48    52  55  48    51  55  47    48  49  43    57  55  50    50  48  43    45  44  39    47  46  41    47  46  41    45  46  40    42  43  37    38  39  33    40  42  35    44  47  40    52  55  48    49  53  46    49  53  46    50  51  45    42  41  36    43  42  37    53  52  47    52  51  46    51  50  45    63  62  57    55  54  49     0   0   0     0   0   0     0   0   0     0   0   0     0   0   0     0   0   0     0   0   0     0   0   0     0   0   0  
  44  49  45    37  41  37    37  39  36    41  43  40    44  46  43    41  43  39    40  42  36    42  45  38    40  43  36    37  40  33    43  45  39    49  52  45     0   0   0     0   0   0     0   0   0     0   0   0     0   0   0     0   0   0     0   0   0     0   0   0     0   0   0     0   0   0     0   0   0     0   0   0     0   0   0     0   0   0     0   0   0    47  48  42    47  50  43    49  52  45    51  56  49    49  54  47    52  56  49    47  49  43    44  43  38    47  46  41    50  49  44    48  47  42    53  52  47    65  64  59    52  50  45     0   0   0     0   0   0     0   0   0     0   0   0     0   0   0     0   0   0     0   0   0     0   0   0     0   0   0  
  48  50  47    39  41  38    39  41  38    46  48  45    50  52  49    47  49  45    43  45  41    44  46  40    47  50  43    48  51  44    50  53  46    50  54  47     0   0   0     0   0   0     0   0   0     0   0   0     0   0   0     0   0   0     0   0   0     0   0   0     0   0   0     0   0   0     0   0   0     0   0   0     0   0   0     0   0   0     0   0   0    59  60  54    52  55  48    46  49  42    47  50  43    48  51  44    56  59  52    45  47  41    51  50  45    58  57  52    51  50  45    46  45  40    49  48  43    53  52  47    49  48  43    46  45  40    60  59  54    58  57  52    51  50  45    57  56  51    55  54  48    50  51  43    45  46  37    49  49  41  
  41  43  40    35  35  34    38  38  36    43  43  41    43  43  41    45  45  43    49  50  45    47  48  42    45  46  40    47  48  42    49  50  44    51  51  46     0   0   0     0   0   0     0   0   0     0   0   0     0   0   0     0   0   0     0   0   0     0   0   0     0   0   0     0   0   0     0   0   0     0   0   0     0   0   0     0   0   0     0   0   0    55  56  50    55  56  50    51  52  46    53  54  48    53  55  49    54  56  49    42  43  37    43  44  38    61  62  56    54  55  49    54  55  49    49  50  44    39  40  34    48  49  43    46  47  41    56  57  51    63  64  58    71  72  66    75  76  70    65  66  60    56  55  50    45  44  39    34  33  28  
  44  44  42    41  41  39    43  43  41    44  44  42    40  40  38    45  45  43    53  54  49    53  54  48    45  46  40    44  45  39    47  48  42    47  48  42     0   0   0     0   0   0     0   0   0     0   0   0     0   0   0     0   0   0     0   0   0     0   0   0     0   0   0     0   0   0     0   0   0     0   0   0     0   0   0     0   0   0     0   0   0    57  58  52    53  54  48    46  47  41    48  49  43    51  51  46    54  55  49    52  53  47    47  48  42    63  64  58    61  62  56    54  55  49    44  44  39    40  41  35    49  50  44    50  51  45    54  55  49    55  56  50    63  64  58    56  57  51    40  40  35    46  44  39    41  39  34    41  39  34  
  43  44  39    42  43  38    45  46  41    41  42  37    37  38  33    42  43  38    55  56  51    62  63  57    51  52  46    48  49  43    52  53  47    52  53  47     0   0   0     0   0   0     0   0   0     0   0   0     0   0   0     0   0   0     0   0   0     0   0   0     0   0   0     0   0   0     0   0   0     0   0   0     0   0   0     0   0   0     0   0   0    55  56  50    52  53  47    47  48  42    49  50  44    49  50  44    50  51  45    50  51  45    42  43  37    58  59  53    63  64  58    57  58  52    47  48  42    52  53  47    61  62  56    57  58  52    47  48  42    44  45  39    59  60  54    58  59  53    41  42  36    42  41  36    40  39  34    48  47  42  
  41  42  37    40  41  36    41  42  37    39  40  35    36  37  32    40  41  36    51  52  47    60  61  55    52  53  47    50  51  45    53  54  48    54  55  49     0   0   0     0   0   0     0   0   0     0   0   0     0   0   0     0   0   0     0   0   0     0   0   0     0   0   0     0   0   0     0   0   0     0   0   0     0   0   0     0   0   0     0   0   0    51  52  46    54  55  49    55  56  50    56  57  51    48  49  43    43  44  38    46  47  41    40  42  35    55  56  50    57  58  52    53  54  48    48  49  43    52  53  47    43  44  38    39  40  34    34  35  29    36  37  31    50  51  45    53  54  48    49  49  43    51  50  45    48  47  42    52  51  46  
  43  44  39    40  40  35    39  40  35    40  41  36    41  42  37    43  44  39    46  47  42    49  50  44    47  48  42    46  47  41    46  47  41    46  47  41     0   0   0     0   0   0     0   0   0     0   0   0     0   0   0     0   0   0     0   0   0     0   0   0     0   0   0     0   0   0     0   0   0     0   0   0     0   0   0     0   0   0     0   0   0    52  53  47    54  55  49    57  58  52    58  59  53    48  49  43    44  45  39    47  48  42    48  49  43    57  58  52    46  47  41    44  45  39    43  44  38    40  41  35    32  33  27    36  37  31    48  49  43    56  57  51    50  51  45    44  45  39    51  51  46    58  57  52    52  51  46    53  52  47  
  48  49  44    44  45  40    43  44  39    44  45  40    48  49  44    48  49  44    48  49  44    50  51  45    50  52  45    51  52  46    47  49  42    45  46  40     0   0   0     0   0   0     0   0   0     0   0   0     0   0   0     0   0   0     0   0   0     0   0   0     0   0   0     0   0   0     0   0   0     0   0   0     0   0   0     0   0   0     0   0   0    57  58  52    53  54  48    52  53  47    52  53  47    47  48  42    49  50  44    42  43  37    41  42  36    51  52  46    40  41  35    45  46  40    51  52  46    49  50  44    57  58  52    55  56  50    62  63  57    66  67  61    50  51  45    44  45  39    57  58  52    55  54  49    49  48  43    52  51  46  
  50  51  46    50  50  45    48  49  44    46  47  42    47  48  43    49  50  45    51  51  46    54  53  48    56  55  50    59  58  53    57  55  50    52  51  46     0   0   0     0   0   0     0   0   0     0   0   0     0   0   0     0   0   0     0   0   0     0   0   0     0   0   0     0   0   0     0   0   0     0   0   0     0   0   0     0   0   0     0   0   0    57  58  52    51  52  46    50  51  45    51  52  46    47  48  42    50  51  45    42  43  37    34  35  29    45  46  40    43  44  38    50  51  45    58  59  53    65  66  60    64  65  59    56  57  51    49  50  44    49  50  44    44  45  39    46  47  41    60  62  55    53  54  48    45  46  40    50  51  45  
  49  50  45    52  53  48    50  51  46    43  44  39    42  43  38    46  47  42    49  49  44    49  48  43    50  49  44    56  55  50    59  57  52    53  52  47     0   0   0     0   0   0     0   0   0     0   0   0     0   0   0     0   0   0     0   0   0     0   0   0     0   0   0     0   0   0     0   0   0     0   0   0     0   0   0     0   0   0     0   0   0    52  53  47    50  51  45    53  54  48    54  55  49    47  48  42    47  48  42    54  55  49    43  44  38    50  51  45    50  51  45    48  49  43    50  50  45    62  63  57    55  56  50    55  57  50    49  50  44    53  53  48    58  59  53    59  60  54    65  66  60    58  59  53    47  48  42    51  52  46  
  50  52  45    48  49  43    51  52  46    43  45  38    42  43  37    48  49  43    46  47  41    47  46  41    54  52  47    68  68  63    67  66  61    56  55  50     0   0   0     0   0   0     0   0   0     0   0   0     0   0   0     0   0   0     0   0   0     0   0   0     0   0   0     0   0   0     0   0   0     0   0   0     0   0   0     0   0   0     0   0   0    49  50  44    54  55  49    55  56  50    53  54  48    51  52  46    55  56  50    49  50  44    54  55  49    59  60  54    54  55  49    48  49  43    50  51  45    54  55  49    47  49  42    45  46  40    53  54  48    61  62  56    59  60  54    57  58  52    57  58  52    47  50  43    45  47  41    48  49  43  
  52  53  47    48  49  43    45  46  40    44  45  39    47  48  42    50  51  45    52  52  46    53  52  47    56  55  50    63  62  57    56  55  50    47  46  41     0   0   0     0   0   0     0   0   0     0   0   0     0   0   0     0   0   0     0   0   0     0   0   0     0   0   0     0   0   0     0   0   0     0   0   0     0   0   0     0   0   0     0   0   0    53  54  48    51  52  46    47  48  42    47  48  42    50  51  45    51  52  46    48  50  43    53  54  48    57  57  52    52  53  47    49  50  44    48  49  43    49  50  44    46  47  41    52  53  47    58  59  53    61  62  56    62  63  57    55  56  50    49  51  44    49  52  45    50  52  45    49  50  44  
