P3
54 60
255
   0   0   0     0   0   0     0   0   0     0   0   0     0   0   0     0   0   0     0   0   0     0   0   0     0   0   0     0   0   0     0   0   0     0   0   0     0   0   0     0   0   0     0   0   0     0   0   0     0   0   0    52  57  50    48  53  46    59  64  57    60  65  59    54  59  52    46  51  44    45  50  43    58  63  56    64  69  61    35  40  33    41  46  39    49  54  47    60  65  58    51  56  49    58  63  56    58  63  56    36  41  34    44  49  42    54  59  52     0   0   0     0   0   0     0   0   0     0   0   0     0   0   0     0   0   0     0   0   0     0   0   0     0   0   0     0   0   0     0   0   0     0   0   0     0   0   0     0   0   0     0   0   0     0   0   0     0   0   0     0   0   0  
   0   0   0     0   0   0     0   0   0     0   0   0     0   0   0     0   0   0     0   0   0     0   0   0     0   0   0     0   0   0     0   0   0     0   0   0     0   0   0     0   0   0     0   0   0     0   0   0     0   0   0    48  53  46    40  45  38    55  60  53    59  64  57    52  57  50    44  49  42    44  49  42    51  56  49    61  66  59    43  48  41    47  52  45    49  54  47    56  61  54    52  57  50    56  61  54    59  64  57    59  64  57    58  63  56    63  68  61     0   0   0     0   0   0     0   0   0     0   0   0     0   0   0     0   0   0     0   0   0     0   0   0     0   0   0     0   0   0     0   0   0     0   0   0     0   0   0     0   0   0     0   0   0     0   0   0     0   0   0     0   0   0  
  39  46  38    53  59  51    60  67  59    49  56  48    42  49  41    49  56  48    53  58  50    51  53  47    50  51  45    60  61  55    66  69  62    62  66  59    48  51  44    50  55  48    62  67  60    51  56  49    56  61  54    49  56  48    42  49  40    50  57  49    58  63  56    53  58  51    49  54  47    50  55  48    47  52  45    58  63  56    56  61  54    58  63  56    56  61  54    62  67  60    62  67  60    60  65  58    66  71  64    63  68  61    53  58  51    61  66  59    70  75  68    68  73  66    69  74  67    65  70  63    70  75  68    67  72  65    65  70  63    76  81  74    76  81  74    69  74  68    59  64  57    73  80  72    76  83  75    50  57  49     0   0   0     0   0   0     0   0   0     0   0   0  
  42  49  41    56  63  55    59  66  58    45  52  44    42  49  41    49  56  48    53  58  51    55  57  50    48  49  43    57  58  52    68  71  64    66  69  62    48  51  44    48  52  45    64  69  63    53  58  51    53  59  52    56  63  55    52  59  51    51  58  50    58  63  56    55  60  53    54  59  52    57  62  55    45  50  43    55  60  53    65  70  63    68  73  66    67  72  65    71  76  69    74  79  72    66  71  64    75  80  73    66  71  64    57  62  55    63  68  61    64  69  62    65  70  63    67  72  65    43  48  41    52  57  50    65  70  64    65  70  63    65  70  63    75  80  73    85  90  83    65  70  63    63  70  62    61  69  60    43  50  41     0   0   0     0   0   0     0   0   0     0   0   0  
  50  57  49    54  61  53    63  70  62    54  61  53    45  52  44    51  58  50    56  60  53    58  61  54    51  54  47    56  59  52    66  69  62    62  65  58    46  51  44    49  54  47    65  70  63    63  70  62    64  71  63    45  52  44    49  56  48    57  64  56    57  62  55    60  65  58    62  67  60    63  68  61    45  50  43    52  57  50    62  67  59    67  72  65    68  73  66    68  73  66    61  66  59    69  74  67    74  79  72    47  52  45    67  72  65    82  87  80    71  76  69    69  74  67    69  74  67    65  70  63    59  64  57    73  78  71    75  80  73    68  73  66    64  69  62    62  67  60    60  66  58    55  62  54    63  70  62    57  64  56     0   0   0     0   0   0     0   0   0     0   0   0  
  46  53  45    46  53  45    53  60  52    46  53  45    45  52  44    58  64  56    63  68  60    61  64  57    54  57  50    54  57  50    63  66  60    66  70  63    54  59  52    46  51  45    51  56  49    48  55  47    56  63  55    46  53  45    56  63  54    65  72  64    53  58  51    61  66  59    68  73  66    66  71  64    41  46  39    51  56  49    67  72  65    70  75  68    68  73  66    69  74  68    58  63  56    54  59  53    57  62  55    45  50  43    67  72  65    80  85  78    69  74  67    67  72  65    69  74  67    71  76  69    64  69  62    70  75  68    69  74  67    64  69  62    59  64  57    60  65  58    59  65  57    50  57  49    58  65  57    54  60  53     0   0   0     0   0   0     0   0   0     0   0   0  
  42  49  41    42  49  41    50  57  49    45  52  43    44  52  44    58  65  57    63  69  62    64  68  61    58  61  53    50  53  46    58  63  56    69  74  67    62  67  60    55  62  54    50  58  50    44  51  43    49  56  48    40  47  39    45  54  45    57  64  56    54  59  52    60  65  57    68  73  66    68  73  67    42  47  40    47  52  46    65  70  63    70  75  68    72  77  70    68  73  65    67  72  65    67  72  65    45  50  43    46  51  44    69  74  67    78  83  76    67  72  65    66  71  64    70  75  68    76  81  74    67  72  65    67  72  66    71  76  69    69  74  67    60  65  58    57  62  55    61  66  59    65  72  64    68  75  67    60  67  59     0   0   0     0   0   0     0   0   0     0   0   0  
  45  52  44    47  53  46    55  62  54    51  58  50    47  54  46    53  60  52    56  62  54    65  69  62    61  64  57    49  52  45    54  59  51    68  73  66    61  66  59    58  64  57    52  59  51    48  55  47    49  56  48    39  46  38    39  48  39    50  57  49    62  67  60    58  63  56    60  65  58    66  71  63    45  50  43    46  51  44    58  63  56    65  70  63    75  80  73    62  67  60    83  88  81   101 106  99    47  52  45    52  57  50    73  78  71    74  79  72    68  73  65    68  73  66    72  77  70    78  83  76    68  73  66    67  72  65    78  83  76    80  85  78    66  71  64    57  62  55    56  62  54    61  68  60    66  73  65    63  70  62     0   0   0     0   0   0     0   0   0     0   0   0  
  57  64  55    55  62  54    61  68  60    55  62  54    49  56  48    53  60  52    53  60  52    63  68  61    62  67  60    48  53  46    51  56  49    63  69  61    54  61  53    46  52  45    42  49  41    52  59  51    54  62  54    46  56  47    47  57  48    58  68  59    63  70  62    60  65  58    56  61  54    56  61  54    40  45  38    47  52  45    59  64  57    62  67  60    72  77  70    56  61  54    81  86  79   101 106  99    52  57  50    64  69  62    76  81  74    71  76  69    69  74  67    72  77  70    73  78  70    77  82  74    69  74  67    66  71  64    78  83  76    80  85  78    68  73  66    59  64  58    57  63  56    58  65  57    63  70  63    65  72  64     0   0   0     0   0   0     0   0   0     0   0   0  
  67  74  66    59  66  58    60  67  59    53  60  52    52  59  51    59  66  58    59  65  57    63  68  61    64  69  62    52  57  50    51  56  49    58  64  56    50  57  49    44  50  43    46  53  45    65  72  64    62  70  62    55  65  56    51  61  52    56  64  55    59  64  57    64  69  62    55  60  53    46  51  43    36  41  34    53  58  51    66  71  64    62  67  60    65  70  63    55  60  53    60  65  58    63  68  61    52  57  50    72  77  70    74  79  72    68  73  66    71  76  69    74  79  72    71  76  70    75  80  73    73  78  71    65  70  63    72  77  70    69  74  67    64  69  62    68  73  66    65  71  63    62  69  61    61  68  60    61  68  60     0   0   0     0   0   0     0   0   0     0   0   0  
  68  75  67    59  66  58    60  67  59    54  61  53    54  61  53    62  69  61    61  67  60    64  69  62    66  71  63    56  61  54    52  57  50    56  62  55    51  58  50    54  61  53    59  67  59    76  86  77    64  74  65    61  71  62    51  61  52    40  50  41    57  64  56    61  66  59    47  52  45    42  47  40    45  50  44    63  68  61    65  70  63    61  66  59    63  68  61    57  62  55    48  53  46    40  45  38    52  57  50    70  75  68    69  74  67    67  72  65    73  78  71    73  78  71    68  73  66    77  82  75    72  77  70    67  72  65    71  76  69    64  69  62    65  70  63    75  80  74    68  74  67    55  62  54    50  57  49    52  59  51     0   0   0     0   0   0     0   0   0     0   0   0  
  64  71  63    59  66  58    63  70  62    59  66  58    56  63  55    58  65  57    57  63  55    66  71  64    66  71  65    58  63  56    54  59  52    57  62  55    54  61  53    57  64  56    61  68  60    80  87  78    67  74  66    70  77  69    59  67  58    41  48  40    62  67  60    56  61  54    37  42  35    43  48  41    62  67  60    72  77  70    58  63  56    58  63  56    65  70  63    58  63  56    50  55  48    45  50  43    55  60  53    63  68  61    64  69  62    68  73  65    74  79  72    71  76  69    66  71  64    78  83  76    70  75  68    70  75  68    76  81  74    68  73  66    71  76  69    80  85  78    74  79  72    69  76  68    55  62  54    50  57  49     0   0   0     0   0   0     0   0   0     0   0   0  
   0   0   0     0   0   0     0   0   0     0   0   0    57  67  58    59  68  60    54  60  53    66  71  64    63  68  61    59  64  57    58  63  56    57  62  55    68  73  66    63  68  61    67  72  65    65  70  63    58  65  57    63  70  62    60  67  59    50  55  48    66  71  64    52  57  50    45  50  43    45  50  43    65  70  63    68  73  66    66  71  64    63  68  61    57  62  55    62  67  60    56  61  54    52  57  50    60  65  58    67  70  63    74  77  69    64  67  59    63  66  59    66  69  62    57  60  53    61  64  57    74  79  72    66  71  64    79  84  77    87  94  86    70  77  69    62  69  61    72  79  71    76  83  75    58  66  57    45  53  45     0   0   0     0   0   0     0   0   0     0   0   0  
   0   0   0     0   0   0     0   0   0     0   0   0    54  64  55    62  72  63    58  65  57    66  71  64    65  70  63    59  64  57    52  57  50    47  52  45    55  60  53    62  67  60    67  72  64    63  68  61    60  65  58    63  68  61    63  68  61    64  69  62    43  48  40    51  56  49    56  61  54    54  59  52    62  67  60    57  62  55    68  73  66    80  85  78    69  74  66    64  69  62    54  59  52    52  57  50    64  69  62    75  78  71    71  74  67    65  68  61    61  64  57    55  58  51    51  54  47    52  55  48    73  78  71    69  74  67    78  83  76    81  88  80    70  77  69    69  76  68    75  82  74    68  75  67    55  61  54    42  49  41     0   0   0     0   0   0     0   0   0     0   0   0  
   0   0   0     0   0   0     0   0   0     0   0   0    53  63  54    63  73  64    58  67  59    60  66  59    64  69  62    62  67  60    57  62  55    52  57  50    58  63  56    61  66  58    60  65  58    61  66  60    68  73  66    67  72  65    61  66  60    69  74  67    42  47  40    55  60  53    52  57  50    52  57  50    60  65  58    51  56  49    65  70  63    74  79  72    66  71  64    64  69  62    56  61  54    61  66  59    76  81  74    82  86  79    69  71  65    67  70  63    67  70  63    55  58  51    50  53  46    45  48  40    60  65  58    63  68  61    69  74  67    68  75  67    62  69  61    65  73  65    68  75  67    65  72  64    57  64  56    42  49  41     0   0   0     0   0   0     0   0   0     0   0   0  
   0   0   0     0   0   0     0   0   0     0   0   0    54  64  55    63  72  63    59  66  58    60  65  58    63  68  60    62  67  60    62  67  60    57  62  55    55  60  53    55  60  52    52  57  50    62  67  60    80  85  78    75  80  73    58  63  55    60  65  58    58  63  55    60  65  57    45  50  43    54  59  52    69  74  67    48  53  46    53  58  51    60  65  58    60  65  58    62  67  59    56  61  54    61  66  59    74  79  72    79  82  75    70  73  66    68  71  64    75  78  71    72  75  68    59  62  55    50  53  46    54  59  52    61  66  59    64  69  62    61  67  60    60  67  59    59  65  57    58  65  57    70  77  69    65  72  64    47  54  46    55  62  54    63  70  62    62  69  61    67  74  66  
   0   0   0     0   0   0     0   0   0     0   0   0    55  62  54    64  71  63    63  69  61    67  72  65    63  68  61    59  64  57    60  65  58    53  58  51    44  49  42    52  57  50    53  58  51    64  69  62    85  90  83    80  85  78    57  62  55    54  59  52    59  64  57    62  67  60    50  55  48    64  69  62    80  85  78    49  54  47    49  54  47    63  68  61    62  67  60    59  64  57    50  55  48    53  58  51    60  65  58    69  72  65    73  76  69    58  61  54    69  72  65    83  86  79    68  71  64    67  70  63    66  71  64    69  74  67    64  69  62    59  65  58    64  71  63    61  68  60    56  63  55    70  77  69    68  75  67    52  59  51    56  63  55    66  72  65    67  74  66    70  77  69  
   0   0   0     0   0   0     0   0   0     0   0   0    53  60  52    65  72  64    65  71  63    66  71  64    62  67  60    58  63  56    65  70  63    63  68  60    55  60  53    61  66  59    64  69  62    67  72  65    77  82  75    76  81  74    61  66  59    57  62  55    60  65  58    64  69  62    54  59  52    58  63  56    76  81  74    62  67  60    63  68  60    65  70  63    62  67  60    56  61  54    50  55  48    58  63  56    65  70  63    66  69  62    75  78  71    50  53  46    51  54  47    75  78  71    68  70  64    76  79  73    76  81  74    72  77  70    61  66  59    55  62  54    65  72  64    65  72  64    57  65  56    63  70  62    65  72  64    56  63  55    56  63  55    62  70  61    65  72  64    57  64  56  
   0   0   0     0   0   0     0   0   0     0   0   0    53  60  52    64  71  63    61  68  60    62  67  60    60  65  58    55  60  53    59  64  57    62  67  60    61  66  59    60  65  59    68  73  66    70  75  69    67  72  65    66  71  64    60  65  58    59  64  57    64  69  62    64  69  62    53  58  51    49  54  47    70  75  68    72  77  70    69  74  67    63  68  61    63  68  61    60  65  58    60  65  58    69  74  66    71  76  69    63  67  60    73  76  69    54  57  50    43  46  39    58  61  54    59  62  55    65  68  61    72  77  70    73  78  71    67  72  65    64  70  62    70  77  69    69  76  68    61  68  60    60  67  59    65  72  64    63  70  62    59  66  58    55  63  55    55  62  54    39  47  38  
   0   0   0     0   0   0     0   0   0     0   0   0    55  63  55    60  67  59    58  64  56    64  69  62    61  66  59    47  52  45    41  46  39    39  44  37    39  44  37    46  51  44    66  71  64    72  77  70    60  65  58    58  63  56    57  62  55    55  60  53    61  66  59    60  65  58    58  63  56    55  60  53    74  79  72    68  73  66    60  65  58    71  76  69    73  78  71    71  76  69    67  72  65    67  72  66    59  64  57    55  58  52    71  73  66    66  69  62    47  50  43    48  51  44    52  55  48    48  51  44    67  72  65    78  83  76    83  88  81    82  89  81    83  90  82    78  85  77    68  75  67    63  70  62    70  77  69    72  79  71    62  69  61    49  56  48    45  52  44    34  41  33  
   0   0   0     0   0   0     0   0   0     0   0   0    66  71  64    64  69  62    66  71  64    56  61  54    57  62  55    66  71  64    67  72  65    62  67  60    64  69  62    61  66  59    59  64  57    55  60  53    57  62  55    52  57  50    61  66  59    59  64  57    55  60  53    58  63  56    56  61  54    61  66  59    60  65  58    73  78  71    61  66  59    61  66  59    61  66  59    66  71  64    62  67  60    71  76  69    69  74  67    68  72  65    70  73  66    75  78  71    65  69  61    52  55  48    52  55  48    41  44  37    37  42  35    49  54  47    65  70  63    68  74  67    79  86  78    85  92  84    78  85  77    74  81  73    58  65  57    52  59  51    54  61  53    47  54  46    43  50  42    43  50  42  
   0   0   0     0   0   0     0   0   0     0   0   0    75  80  73    62  67  60    53  58  51    49  54  47    61  66  60    72  77  70    72  77  70    68  73  66    70  75  68    74  79  72    67  72  65    57  62  55    65  70  63    68  73  66    74  79  72    63  68  61    59  64  57    63  68  60    61  66  59    62  67  61    59  64  57    70  75  68    59  64  57    59  64  57    61  66  59    67  72  64    68  73  66    72  77  70    69  74  67    70  74  67    77  79  72    82  84  78    76  79  72    69  72  65    63  66  59    52  55  48    36  41  34    35  40  33    42  47  40    44  50  43    55  62  54    75  82  74    86  93  85    84  91  83    64  71  63    57  64  56    61  68  60    51  58  50    42  49  41    52  60  51  
   0   0   0     0   0   0     0   0   0     0   0   0    79  84  77    61  66  59    44  49  42    40  45  38    63  68  61    69  74  67    63  68  61    62  67  60    62  67  60    73  78  71    68  73  66    53  58  51    60  65  58    64  69  62    72  77  70    68  73  66    63  68  60    67  72  65    67  72  65    63  68  61    57  62  55    66  71  64    60  65  58    62  67  60    61  66  58    64  69  62    72  77  70    70  75  68    70  75  68    66  70  63    72  75  68    76  79  72    76  79  72    77  80  73    69  72  65    61  64  57    37  42  35    27  32  25    31  36  29    33  40  32    36  43  34    50  57  49    64  71  63    70  77  69    51  58  50    48  55  47    59  66  58    52  59  51    41  48  40    55  62  54  
   0   0   0     0   0   0     0   0   0     0   0   0    66  71  64    56  61  54    50  55  48    62  67  60    81  86  79    75  80  73    65  70  63    68  73  66    63  68  61    66  71  64    66  71  64    55  60  53    54  59  52    48  53  46    57  62  55    71  76  69    62  67  60    67  72  65    69  74  67    63  68  61    56  61  54    62  67  59    62  67  60    68  73  66    60  65  58    57  62  55    69  74  67    65  70  63    70  75  68    65  69  62    70  73  66    67  69  63    68  71  64    79  82  75    73  77  70    72  75  68    56  61  54    41  46  39    27  32  25    24  31  23    38  45  37    62  69  61    67  74  66    49  56  48    39  46  38    43  50  42    58  65  57    59  66  58    54  61  53    52  59  51  
   0   0   0     0   0   0     0   0   0     0   0   0    45  50  44    50  55  48    63  68  61    81  86  79    91  96  89    74  79  72    66  71  64    74  79  72    66  71  64    64  69  62    68  73  66    62  67  60    63  68  61    50  55  48    52  57  50    67  72  65    58  63  56    62  67  60    68  73  66    61  66  59    57  62  55    58  63  56    62  67  60    67  72  65    62  67  60    58  63  56    67  72  65    62  67  60    62  67  60    74  77  70    81  84  77    69  72  65    67  70  63    79  82  75    79  82  75    82  84  77    86  91  84   100 105  98    85  90  83    56  63  55    49  56  48    53  60  52    47  55  47    40  47  39    39  46  38    42  49  42    52  59  51    54  60  53    55  62  54    51  58  50  
   0   0   0     0   0   0     0   0   0     0   0   0    33  38  31    53  58  51    72  77  70    81  86  79    86  91  84    68  73  66    64  69  62    77  82  75    69  74  67    65  70  63    63  68  61    57  62  55    71  76  69    64  69  62    52  57  50    52  57  50    54  59  53    56  61  54    66  71  64    60  65  58    58  63  56    55  60  53    60  65  58    62  67  60    64  69  62    64  69  62    69  74  67    62  67  60    53  58  51    76  80  73    86  89  82    73  76  69    65  68  61    72  75  68    75  79  72    77  80  73    74  79  72   128 133 126   134 139 132    96 102  94    66  73  65    50  57  49    46  53  45    58  65  57    59  66  58    55  62  54    54  62  54    52  59  51    55  62  54    57  64  56  
   0   0   0     0   0   0     0   0   0     0   0   0    37  40  33    55  58  51    69  73  66    77  82  75    87  92  84    75  80  73    76  81  74    88  93  86    80  85  78    72  77  70    62  67  60    48  53  46    67  72  65    68  73  66    55  60  53    52  57  50    55  60  53    53  58  51    65  70  63    60  65  58    61  66  59    53  58  50    59  64  57    60  65  58    65  70  63    64  69  62    62  67  60    64  69  62    53  58  51    70  74  67    76  79  72    70  73  66    64  67  60    66  69  62    72  75  68    68  70  63    84  89  82   118 123 116   107 112 105    67  74  66    46  53  45    46  53  45    58  65  57    76  83  75    77  85  76    71  78  70    67  74  66    64  71  63    68  75  67    66  73  65  
   0   0   0     0   0   0     0   0   0     0   0   0    43  45  39    47  50  43    52  55  48    62  67  60    77  82  75    73  78  71    74  79  72    83  88  82    75  80  73    78  83  76    70  75  68    48  53  46    64  69  62    67  72  65    62  67  60    70  75  68    56  61  54    53  58  51    65  70  63    60  65  58    62  67  59    51  56  49    60  65  58    64  69  62    65  70  63    59  64  57    52  57  50    66  71  64    60  65  58    64  69  62    67  70  63    72  75  68    70  73  66    69  72  65    76  79  72    68  71  64    64  69  62    72  77  70    56  61  54    40  45  38    40  45  38    49  54  47    59  64  58    58  63  56    60  65  58    56  61  54    56  61  54    58  63  56    63  68  61    65  70  62  
   0   0   0     0   0   0     0   0   0     0   0   0    39  42  35    46  49  42    66  70  62    58  65  54    56  64  53    62  69  59    66  74  63    66  74  63    69  77  66    74  82  71    71  79  68    64  72  61    54  62  51    56  64  53    67  74  63    66  74  63    53  58  51    54  59  52    62  67  60    63  68  61    62  67  60    63  68  61    61  66  60    67  72  65    72  77  70    59  64  57    52  57  51    68  73  66    62  67  60    53  58  49    60  68  57    58  66  55    65  71  61    65  71  61    70  76  66    68  74  64    55  58  49    46  49  40    37  40  31    39  42  33    43  48  39    51  57  47    57  63  54    47  52  45    50  55  48    54  59  52    55  60  53    52  57  50    47  52  45    44  49  42  
   0   0   0     0   0   0     0   0   0     0   0   0    48  51  45    55  58  51    62  66  58    59  66  55    58  67  55    64  72  61    64  72  61    58  67  55    58  66  55    65  73  62    61  69  58    60  68  57    58  66  55    62  70  59    70  78  67    72  80  69    62  67  60    55  60  53    57  62  55    59  64  57    60  65  58    59  64  57    54  59  52    55  60  53    67  72  65    65  70  63    62  67  60    70  75  68    60  65  58    63  70  60    72  80  69    66  74  63    68  75  65    68  74  64    73  78  68    70  75  65    48  51  42    42  45  36    37  40  31    41  44  35    43  46  37    48  51  42    52  55  47    43  46  39    44  47  40    47  50  43    49  52  45    46  49  42    43  46  39    41  44  37  
   0   0   0     0   0   0     0   0   0     0   0   0    68  72  65    73  77  70    63  69  61    67  75  64    70  78  67    72  80  69    66  74  63    57  65  54    53  61  50    56  64  53    49  57  46    51  59  48    58  66  56    61  69  58    65  73  62    68  76  65    73  78  71    59  64  57    56  61  54    60  65  58    64  69  62    63  68  61    58  63  55    61  66  59    72  77  70    78  83  76    76  81  74    78  83  76    69  74  67    69  76  67    73  81  70    61  69  58    60  68  57    60  66  56    62  68  58    58  64  54    40  43  34    37  40  31    37  40  31    41  44  35    41  44  35    40  44  35    45  48  39    40  43  36    39  42  35    40  43  36     0   0   0     0   0   0     0   0   0     0   0   0  
   0   0   0     0   0   0     0   0   0     0   0   0    92  95  88    96  99  92    76  79  72    65  72  62    68  76  65    68  76  65    60  68  57    52  60  49    49  57  46    49  57  46    37  45  34    41  49  38    55  62  51    54  62  51    51  59  48    54  62  51    66  71  63    52  57  50    50  55  48    54  59  52    59  64  57    59  64  57    54  59  52    52  57  50    53  58  51    56  61  54    55  60  53    54  59  52    52  57  50    52  59  50    54  62  51    41  49  38    42  50  39    42  48  38    43  49  39    36  42  32    35  38  29    34  37  28    36  39  30    41  44  35    39  42  33    36  39  30    41  45  36    42  45  38    40  42  36    38  41  34     0   0   0     0   0   0     0   0   0     0   0   0  
   0   0   0     0   0   0     0   0   0     0   0   0    73  76  68    76  78  72    59  63  56    46  51  44    49  54  48    47  52  45    42  47  40    38  43  36    39  44  37    42  47  40    32  37  30    37  42  35    50  55  48    48  53  46    43  48  41    46  51  44    44  49  42    38  43  35    39  44  37    39  44  37    39  44  37    40  45  38    38  43  36    38  43  36    35  40  32    35  40  33    34  39  33    32  37  30    34  39  32    35  42  34    38  44  37    28  35  27    32  38  31    34  39  32    34  39  32    26  31  24    36  39  32    34  37  30    35  38  31    40  43  36    38  41  34    36  39  32    42  45  38    43  46  39    40  43  36    38  41  34     0   0   0     0   0   0     0   0   0     0   0   0  
   0   0   0     0   0   0     0   0   0     0   0   0    38  41  34    40  43  36    36  40  32    34  39  32    35  40  33    33  38  31    31  36  29    33  38  31    35  40  33    37  42  36    30  35  28    36  41  34    47  52  45    44  49  42    42  47  40    47  52  44    37  42  34    35  40  33    38  43  36    35  40  33    30  35  28    30  35  28    30  35  28    36  41  34    36  41  34    39  44  37    42  47  39    38  43  36    38  43  36    33  40  32    35  42  34    29  36  28    35  41  34    37  42  35    39  44  37    32  37  30    38  41  34    35  38  31    35  38  31    39  42  35    38  41  34    36  40  33    42  45  38    41  44  37    38  41  35    37  40  33     0   0   0     0   0   0     0   0   0     0   0   0  
   0   0   0     0   0   0     0   0   0     0   0   0    37  40  33    39  43  36    37  41  33    34  39  32    35  40  33    33  38  31    33  38  31    36  41  34    36  41  34    36  41  34    32  37  30    38  43  35    43  48  41    39  44  37    42  47  40    47  52  45    39  44  38    38  43  36    42  47  40    39  44  37    34  39  32    33  38  31    30  35  28    32  37  30    34  39  32    34  39  32    40  45  38    38  43  36    37  42  35    35  41  33    39  46  38    33  40  32    36  43  35    37  42  35    41  46  39    38  43  35    37  40  33    35  38  31    36  39  32    41  44  37    38  41  34    36  39  32    40  43  36    39  42  35    38  41  34    38  41  34     0   0   0     0   0   0     0   0   0     0   0   0  
   0   0   0     0   0   0     0   0   0     0   0   0    39  42  34    40  44  37    37  41  33    34  39  32    35  40  33    34  39  32    35  40  33    38  43  35    34  39  32    35  40  33    34  39  32    39  44  37    38  43  36    34  39  32    39  44  37    44  49  42    37  42  34    34  39  32    38  43  36    38  43  36    36  41  34    36  41  34    33  38  31    37  42  35    36  41  34    29  34  27    36  41  34    37  42  35    39  44  37    36  42  35    38  45  37    31  38  30    32  38  30    31  36  29    37  42  35    36  41  34    36  39  32    35  38  30    37  40  33    42  45  38    39  42  35    35  38  31    39  42  35    39  42  35    40  43  35    41  44  37     0   0   0     0   0   0     0   0   0     0   0   0  
   0   0   0     0   0   0     0   0   0     0   0   0    37  39  33    40  43  36    35  39  32    36  41  35    34  39  33    39  44  38    40  45  39    35  40  34    36  41  35    35  40  34    33  38  32    39  44  38    41  46  40    37  42  36    37  42  36    38  43  37    46  51  44    35  40  33    35  40  33    39  44  37    35  40  33    33  38  31    37  42  35    36  41  34    33  38  31    36  41  34    36  41  34    35  40  32    39  44  37    44  50  43    39  45  39    31  38  31    31  37  31    36  41  35    37  42  36    35  40  34    35  37  32    38  40  35    38  40  35    37  39  34    39  42  37    37  39  34    33  35  30    36  39  32    41  44  37    41  44  37     0   0   0     0   0   0     0   0   0     0   0   0  
  39  42  35    39  42  35    41  44  37    35  38  31    35  38  31    39  42  35    36  39  33    36  41  35    33  38  32    37  42  36    39  44  38    36  41  35    38  43  37    38  43  37    33  38  32    38  43  36    42  47  41    38  43  37    35  40  34    38  43  37    44  49  42    41  46  39    42  47  40    40  45  38    34  39  32    33  38  31    37  42  35    37  42  35    35  40  33    34  39  32    35  40  33    36  41  35    39  44  37    44  50  43    40  48  40    33  40  33    31  38  31    34  39  33    34  39  33    33  38  32    37  39  34    39  41  36    38  40  35    37  39  34    39  41  36    38  39  34    35  37  32    38  41  34    40  43  35    38  41  34     0   0   0     0   0   0     0   0   0     0   0   0  
  38  41  34    40  43  36    42  45  38    37  40  33    39  42  34    45  48  41    44  46  40    39  41  36    35  37  32    37  39  34    38  40  35    38  40  35    44  46  41    44  46  41    37  39  34    38  40  35    45  47  42    40  42  37    33  36  31    37  39  34    39  44  37    46  51  44    47  52  45    39  44  37    34  39  32    35  40  33    37  42  35    39  44  37    37  42  35    32  37  30    35  40  33    40  45  38    39  44  37    43  50  42    42  49  42    35  42  35    32  38  32    32  37  31    32  37  31    32  37  31    39  41  36    40  42  37    38  40  35    36  38  33    38  40  35    38  40  35    37  40  34    38  41  34    37  40  33    35  38  31     0   0   0     0   0   0     0   0   0     0   0   0  
  36  39  32    40  43  36    42  45  38    40  42  36    44  47  40    53  56  49    53  56  49    42  44  39    38  40  35    36  38  33    35  37  32    37  39  34    44  46  41    46  48  43    38  40  35    36  38  33    45  47  42    42  44  39    32  34  29    36  38  33    34  39  32    46  51  44    47  52  45    39  44  37    39  44  37    37  42  35    35  40  33    39  44  37    37  42  35    30  35  28    35  40  33    44  49  42    42  47  40    42  48  42    41  48  41    37  44  37    32  39  32    31  36  30    32  37  30    33  38  32    41  43  38    40  42  37    38  40  35    36  37  32    37  39  34    39  41  36    39  42  36    38  41  34    36  38  31    35  38  31     0   0   0     0   0   0     0   0   0     0   0   0  
  35  38  31    40  43  36    40  43  36    40  43  35    44  47  40    53  55  48    55  57  51    46  48  43    42  44  39    38  40  35    35  37  32    36  38  33    43  45  40    45  48  43    40  42  37    34  36  31    44  46  41    45  47  42    33  36  31    36  38  33    32  37  30    41  46  39    41  46  39    39  44  37    43  48  41    41  46  39    33  38  31    36  41  34    36  41  34    30  35  28    35  40  33    46  51  44    45  50  43    42  48  41    40  47  40    36  43  36    33  39  32    32  37  31    33  38  32    34  39  33    40  42  37    39  40  35    38  40  35    36  37  32    36  38  33    39  41  36    40  42  37    36  39  32    36  39  32    37  40  33     0   0   0     0   0   0     0   0   0     0   0   0  
  37  40  33    41  44  37    36  39  32    37  40  33    41  44  37    43  46  39    47  49  43    47  49  44    46  48  43    42  44  39    38  40  35    37  40  35    41  43  38    43  45  40    41  43  38    33  35  30    42  44  39    49  51  46    38  40  35    37  39  34    33  38  31    37  42  35    36  41  34    38  43  36    45  50  43    42  47  40    34  39  32    35  40  33    35  40  33    31  36  29    35  40  33    42  47  40    46  51  44    43  50  43    40  47  40    36  43  36    33  40  33    35  40  34    34  39  33    34  39  33    38  40  35    37  39  34    38  40  35    36  38  33    35  37  32    39  41  36    40  42  37    34  37  30    37  40  33    39  42  35     0   0   0     0   0   0     0   0   0     0   0   0  
  40  43  36    42  45  38    36  39  32    38  41  34    41  44  37    39  42  35    42  45  38    45  47  43    48  50  47    47  49  46    42  44  41    40  42  39    40  42  39    40  42  39    43  44  42    33  35  32    39  41  38    52  54  51    44  45  43    37  39  34    37  42  35    36  41  34    35  40  33    38  43  36    43  48  41    41  46  39    37  42  35    37  42  35    36  41  34    34  39  32    33  38  31    37  42  35    45  50  43    47  53  46    42  48  44    36  42  38    35  40  36    36  41  37    35  40  36    31  36  32    35  37  34    35  36  33    37  39  36    37  39  36    35  37  34    40  42  38    42  44  39    35  38  31    39  42  35    39  42  35     0   0   0     0   0   0     0   0   0     0   0   0  
  42  45  38    43  47  39    37  40  33    41  44  37    47  49  43    42  45  38    42  45  39    42  44  40    48  50  47    49  51  48    46  48  44    42  44  41    41  43  40    38  41  37    43  45  42    34  36  33    38  40  36    54  56  53    47  49  46    38  40  35    41  46  39    37  42  35    36  41  34    37  42  35    40  45  38    41  46  39    40  45  38    38  43  36    37  42  35    37  42  35    33  38  31    33  38  31    42  47  41    49  55  50    45  50  46    37  43  39    35  41  36    37  42  38    34  39  35    28  33  29    33  35  32    33  36  32    37  39  36    37  39  36    35  37  34    40  42  39    42  45  41    37  39  34    40  42  37    38  40  35     0   0   0     0   0   0     0   0   0     0   0   0  
  36  39  32    36  39  32    38  41  34    42  45  38    46  49  42    40  43  36    34  38  30    36  41  34    41  46  39    38  43  36    34  39  32    38  43  36    47  52  45    49  54  47    37  42  35    33  38  31    35  40  32    43  48  41    50  55  48    30  35  28    38  43  36    37  42  35    36  41  34    40  45  38    48  53  46    45  50  43    38  43  36    39  44  37    36  41  33    34  39  32    33  38  31    34  39  32    38  43  36    50  55  48    47  52  48    39  44  41    36  41  37    35  40  36    37  42  38    34  39  35    33  38  34    32  37  33    33  38  34    32  37  33    37  42  38    42  47  42    38  43  39    38  44  38    38  45  38    34  40  33     0   0   0     0   0   0     0   0   0     0   0   0  
  41  44  37    39  42  35    40  43  36    45  48  41    49  53  46    43  46  39    36  40  33    40  45  38    40  45  38    37  42  35    33  38  31    37  42  35    47  52  45    47  52  45    40  45  38    40  45  38    37  42  35    43  48  41    53  58  51    38  43  36    36  41  34    37  42  35    37  42  35    41  46  39    47  52  45    43  48  41    36  41  35    37  42  35    33  38  31    33  38  31    32  37  30    33  38  31    37  42  35    48  53  47    48  53  49    49  54  49    43  48  44    34  39  35    32  37  33    32  37  33    37  42  38    35  40  36    35  40  36    32  37  33    31  36  32    29  34  31    30  35  31    37  43  39    33  39  35    32  38  34     0   0   0     0   0   0     0   0   0     0   0   0  
  42  45  38    39  42  35    40  43  36    46  49  42    52  55  48    48  51  44    42  45  39    38  43  36    34  39  32    36  41  34    35  40  33    35  40  33    42  47  40    40  45  38    39  44  37    42  47  39    36  41  34    39  44  37    49  54  47    40  45  38    36  41  34    37  42  35    39  44  37    43  48  41    47  52  44    43  48  41    38  43  36    37  42  35    33  38  31    33  38  31    33  38  31    34  39  32    38  43  36    49  54  48    48  53  47    47  52  46    45  50  44    35  40  34    31  36  30    32  37  31    35  40  34    34  39  33    37  42  36    38  43  37    36  41  35    35  40  34    37  42  36    37  44  37    32  39  32    31  38  31     0   0   0     0   0   0     0   0   0     0   0   0  
  40  43  36    38  41  34    38  41  34    42  45  38    50  53  46    55  58  51    50  54  47    38  43  36    32  37  31    37  42  35    39  44  37    36  41  34    39  44  37    38  43  36    39  44  37    41  46  39    37  42  35    40  45  38    49  54  47    44  49  42    39  44  37    37  42  35    39  44  37    43  48  41    45  50  43    45  50  43    44  49  42    41  46  39    36  41  34    35  40  33    35  40  33    35  40  33    38  43  36    51  56  50    44  49  43    38  43  37    40  45  40    39  44  38    36  41  35    34  39  33    33  38  32    33  38  32    35  40  34    37  42  36    35  40  34    34  39  33    36  42  35    31  38  31    31  38  31    28  35  28     0   0   0     0   0   0     0   0   0     0   0   0  
  40  43  36    40  44  37    38  41  34    37  40  33    44  47  40    55  58  51    58  61  54    47  52  45    36  41  34    35  40  33    36  41  34    34  39  32    37  42  35    40  45  38    37  42  35    36  41  34    39  44  37    45  50  43    52  57  50    51  56  49    40  45  38    35  40  34    37  42  35    39  44  37    40  45  38    43  48  41    47  52  45    42  47  40    36  41  34    34  39  32    35  40  33    35  40  33    36  41  34    43  48  42    41  46  40    42  47  41    44  49  43    41  46  40    38  43  37    34  39  33    33  38  32    36  41  35    31  36  30    30  35  29    26  31  25    25  30  23    29  35  29    30  37  30    33  40  33    34  41  34     0   0   0     0   0   0     0   0   0     0   0   0  
  43  46  39    44  47  40    41  44  37    38  41  34    44  47  40    54  57  50    57  61  54    49  54  47    36  41  34    28  33  25    27  32  25    31  36  29    34  39  32    44  49  42    36  41  34    29  34  27    37  42  35    42  47  40    43  48  41    50  55  48    45  50  43    38  43  36    39  44  37    39  44  37    36  41  34    40  45  38    46  51  44    41  46  39    35  40  33    34  39  32    36  41  34    37  42  35    38  43  36    36  41  35    44  49  43    57  62  56    54  59  53    45  50  44    41  46  41    35  40  35    31  36  30    43  48  42    39  44  38    39  44  38    44  49  44    44  49  43    47  53  47    46  53  46    48  55  48    56  63  56     0   0   0     0   0   0     0   0   0     0   0   0  
  42  45  38    43  46  39    44  47  40    47  50  43    54  57  50    59  62  55    55  59  52    51  56  49    50  55  48    45  50  43    47  52  45    52  57  50    48  53  46    66  71  64    55  60  53    42  47  40    48  53  46    43  48  41    36  41  34    49  54  47    56  61  54    50  55  48    51  56  49    49  54  47    39  44  37    40  45  38    46  51  44    43  48  41    38  43  36    39  44  37    43  48  41    46  51  44    48  53  46    43  48  41    50  55  49    59  64  57    54  59  53    56  61  55    57  62  56    43  48  42    38  43  37    61  66  60    58  63  57    60  65  59    72  77  71    70  75  69    67  72  66    61  68  61    60  68  60    67  74  67     0   0   0     0   0   0     0   0   0     0   0   0  
  38  41  34    40  42  36    45  48  41    56  59  52    67  70  63    65  68  61    58  61  54    60  65  58    75  80  72    81  86  79    86  91  84    88  93  86    75  80  73    99 104  97    89  94  87    69  74  67    70  75  68    54  59  52    39  44  37    58  63  56    67  72  65    62  67  60    64  69  62    61  66  59    46  51  44    42  47  40    49  54  47    47  52  45    42  47  40    44  49  42    52  57  50    56  61  55    59  64  57    56  61  55    54  59  53    48  53  47    46  51  45    67  72  66    75  80  74    52  57  51    55  60  54    81  86  80    74  79  73    69  74  68    76  81  75    67  72  66    60  65  59    59  66  59    59  66  59    57  64  57     0   0   0     0   0   0     0   0   0     0   0   0  
   0   0   0     0   0   0     0   0   0     0   0   0     0   0   0     0   0   0     0   0   0     0   0   0     0   0   0     0   0   0     0   0   0    57  62  55    58  63  56    72  77  70    80  85  78    69  74  67    59  64  57    55  60  53    58  63  57    78  83  76    70  75  68    77  82  75    68  73  66    49  54  47    55  60  53    72  77  70    72  77  70    65  70  63     0   0   0     0   0   0     0   0   0     0   0   0     0   0   0     0   0   0     0   0   0     0   0   0     0   0   0     0   0   0     0   0   0     0   0   0     0   0   0     0   0   0     0   0   0     0   0   0     0   0   0     0   0   0     0   0   0     0   0   0     0   0   0     0   0   0     0   0   0     0   0   0     0   0   0     0   0   0  
   0   0   0     0   0   0     0   0   0     0   0   0     0   0   0     0   0   0     0   0   0     0   0   0     0   0   0     0   0   0     0   0   0    36  41  34    41  46  39    55  60  52    49  54  47    37  42  35    57  62  55    81  86  79    76  81  74    67  72  65    69  74  67    74  79  72    66  71  64    52  57  50    58  63  56    71  76  69    77  82  75    91  96  89     0   0   0     0   0   0     0   0   0     0   0   0     0   0   0     0   0   0     0   0   0     0   0   0     0   0   0     0   0   0     0   0   0     0   0   0     0   0   0     0   0   0     0   0   0     0   0   0     0   0   0     0   0   0     0   0   0     0   0   0     0   0   0     0   0   0     0   0   0     0   0   0     0   0   0     0   0   0  
   0   0   0     0   0   0     0   0   0     0   0   0     0   0   0     0   0   0     0   0   0     0   0   0     0   0   0     0   0   0     0   0   0    28  33  26    36  41  34    35  40  33    33  38  31    35  40  33    48  53  46    59  64  57    54  59  52    50  55  48    58  63  55    62  67  60    55  60  53    50  55  48    59  64  57    67  72  65    62  67  60    61  66  59     0   0   0     0   0   0     0   0   0     0   0   0     0   0   0     0   0   0     0   0   0     0   0   0     0   0   0     0   0   0     0   0   0     0   0   0     0   0   0     0   0   0     0   0   0     0   0   0     0   0   0     0   0   0     0   0   0     0   0   0     0   0   0     0   0   0     0   0   0     0   0   0     0   0   0     0   0   0  
   0   0   0     0   0   0     0   0   0     0   0   0     0   0   0     0   0   0     0   0   0     0   0   0     0   0   0     0   0   0     0   0   0    36  41  34    44  49  42    37  42  35    39  44  37    42  47  40    35  40  33    28  33  26    31  36  29    42  47  40    41  46  39    44  49  42    40  45  38    43  48  41    55  60  53    57  62  54    51  56  49    56  61  54     0   0   0     0   0   0     0   0   0     0   0   0     0   0   0     0   0   0     0   0   0     0   0   0     0   0   0     0   0   0     0   0   0     0   0   0     0   0   0     0   0   0     0   0   0     0   0   0     0   0   0     0   0   0     0   0   0     0   0   0     0   0   0     0   0   0     0   0   0     0   0   0     0   0   0     0   0   0  
   0   0   0     0   0   0     0   0   0     0   0   0     0   0   0     0   0   0     0   0   0     0   0   0     0   0   0     0   0   0     0   0   0    41  46  39    46  51  44    49  54  47    42  47  40    33  38  31    32  37  30    39  44  37    44  49  42    42  47  40    33  38  31    36  41  34    32  37  30    37  42  36    47  52  45    44  49  42    43  48  41    59  64  57     0   0   0     0   0   0     0   0   0     0   0   0     0   0   0     0   0   0     0   0   0     0   0   0     0   0   0     0   0   0     0   0   0     0   0   0     0   0   0     0   0   0     0   0   0     0   0   0     0   0   0     0   0   0     0   0   0     0   0   0     0   0   0     0   0   0     0   0   0     0   0   0     0   0   0     0   0   0  
   0   0   0     0   0   0     0   0   0     0   0   0     0   0   0     0   0   0     0   0   0     0   0   0     0   0   0     0   0   0     0   0   0    43  48  41    47  52  45    47  52  45    42  47  40    37  42  35    36  41  34    40  45  38    45  50  43    41  46  39    35  40  34    40  45  38    34  39  32    37  42  35    41  46  39    34  39  32    32  37  30    38  43  36     0   0   0     0   0   0     0   0   0     0   0   0     0   0   0     0   0   0     0   0   0     0   0   0     0   0   0     0   0   0     0   0   0     0   0   0     0   0   0     0   0   0     0   0   0     0   0   0     0   0   0     0   0   0     0   0   0     0   0   0     0   0   0     0   0   0     0   0   0     0   0   0     0   0   0     0   0   0  
   0   0   0     0   0   0     0   0   0     0   0   0     0   0   0     0   0   0     0   0   0     0   0   0     0   0   0     0   0   0     0   0   0    42  47  40    49  54  47    40  45  38    42  47  40    52  57  50    40  45  38    28  33  26    36  41  34    44  49  42    37  42  35    44  49  42    37  42  35    39  44  37    39  44  37    31  36  29    35  40  33    44  49  42     0   0   0     0   0   0     0   0   0     0   0   0     0   0   0     0   0   0     0   0   0     0   0   0     0   0   0     0   0   0     0   0   0     0   0   0     0   0   0     0   0   0     0   0   0     0   0   0     0   0   0     0   0   0     0   0   0     0   0   0     0   0   0     0   0   0     0   0   0     0   0   0     0   0   0     0   0   0  
   0   0   0     0   0   0     0   0   0     0   0   0     0   0   0     0   0   0     0   0   0     0   0   0     0   0   0     0   0   0     0   0   0    35  40  33    46  51  44    41  46  39    41  46  39    49  54  47    42  47  40    38  43  36    50  55  48    54  59  52    32  37  30    42  47  40    38  43  36    39  44  37    39  44  37    34  39  32    38  43  36    41  46  39     0   0   0     0   0   0     0   0   0     0   0   0     0   0   0     0   0   0     0   0   0     0   0   0     0   0   0     0   0   0     0   0   0     0   0   0     0   0   0     0   0   0     0   0   0     0   0   0     0   0   0     0   0   0     0   0   0     0   0   0     0   0   0     0   0   0     0   0   0     0   0   0     0   0   0     0   0   0  
