P3
54 54
255
  39  46  39    67  74  67    55  61  55    36  41  35    40  45  41    45  50  46    42  45  45    37  38  40    39  40  44    35  35  40    80  81  85   122 126 130   106 109 113   116 120 120   126 131 125   120 125 119   115 120 114    91  96  90    97 102  96    87  92  86   100 105  99    91  96  89    93  98  92   118 123 117     0   0   0     0   0   0     0   0   0     0   0   0     0   0   0     0   0   0     0   0   0     0   0   0     0   0   0     0   0   0     0   0   0     0   0   0    88  94  92    67  73  71    59  65  63    39  45  43    42  48  44    60  66  62    49  55  51    79  85  81    92  98  94    45  51  47    39  45  41    70  76  72    76  82  78    97 103  99     0   0   0     0   0   0     0   0   0     0   0   0  
  51  58  51    80  87  80    59  66  59    32  38  33    40  45  41    42  46  45    34  37  37    37  38  40    39  40  44    32  33  37    70  71  75   123 124 128   113 114 118    94  97  96   107 112 106   113 118 112   108 113 107    94  99  93   114 119 113   102 107 101    86  91  85    90  95  89    92  97  91    85  90  84     0   0   0     0   0   0     0   0   0     0   0   0     0   0   0     0   0   0     0   0   0     0   0   0     0   0   0     0   0   0     0   0   0     0   0   0    58  64  63    35  41  41    45  51  51    47  53  51    61  67  63    98 104 100    63  69  65    95 101  97   110 116 112    48  54  49    53  59  55    83  89  85    81  86  83    58  64  60     0   0   0     0   0   0     0   0   0     0   0   0  
  58  65  58    84  91  84    59  66  59    29  34  29    42  47  43    45  49  48    34  37  37    38  39  41    40  41  45    29  30  34    55  56  60   118 119 123   118 119 124    97 101  99   105 110 104   113 118 112   113 118 112    93  98  92   100 105  99    84  89  83    88  93  87    83  88  82    77  82  76    59  64  59     0   0   0     0   0   0     0   0   0     0   0   0     0   0   0     0   0   0     0   0   0     0   0   0     0   0   0     0   0   0     0   0   0     0   0   0    38  44  40    39  45  43    55  61  59    64  70  68   109 115 111   142 148 144    69  75  71    49  55  51    59  64  61    40  47  42    73  79  75    90  96  92    68  74  70    38  44  40     0   0   0     0   0   0     0   0   0     0   0   0  
  85  92  85    97 104  97    68  75  68    37  42  37    43  48  44    48  52  51    38  41  41    38  39  41    42  43  47    32  33  37    44  45  49   106 107 112   118 119 123   115 119 117   110 115 109   109 114 108   121 126 120    86  91  85    75  80  74    68  73  67   111 116 110    79  84  78    69  74  68    78  83  77     0   0   0     0   0   0     0   0   0     0   0   0     0   0   0     0   0   0     0   0   0     0   0   0     0   0   0     0   0   0     0   0   0     0   0   0    35  41  38    50  56  54    54  60  58    71  77  75   126 132 128   129 135 131    77  83  79    38  44  40    45  51  47    50  56  52    57  63  59    59  65  61    43  49  45    60  66  62     0   0   0     0   0   0     0   0   0     0   0   0  
 116 123 115   111 118 110    82  89  82    48  54  47    37  42  36    41  46  42    38  42  39    38  40  39    42  44  45    37  38  40    38  39  43    90  91  95   111 112 115   113 117 115   104 109 104    96 101  96   103 108 102    72  77  71    84  89  83   103 108 102   112 117 111    80  85  79    83  88  82   114 119 113     0   0   0     0   0   0     0   0   0     0   0   0     0   0   0     0   0   0     0   0   0     0   0   0     0   0   0     0   0   0     0   0   0     0   0   0    69  76  70    76  82  78    75  81  77    98 104 100   132 138 134   122 129 125    98 104 100    51  57  53    37  43  39    54  60  56    53  59  55    46  52  48    42  48  44    67  73  69     0   0   0     0   0   0     0   0   0     0   0   0  
 101 108 100    94 101  93    77  84  77    48  54  48    34  39  33    39  44  40    41  45  42    39  41  40    40  42  43    42  43  45    37  38  42    70  71  75   105 106 109   106 110 107   104 109 103    90  95  89    78  83  77    61  66  60   103 108 102   134 139 133    78  83  77    77  82  76    93  98  92   114 119 113     0   0   0     0   0   0     0   0   0     0   0   0     0   0   0     0   0   0     0   0   0     0   0   0     0   0   0     0   0   0     0   0   0     0   0   0    75  82  76    95 101  97    97 103  99    91  98  93   143 149 145    96 102  98    53  59  55    43  49  45    44  50  46    39  45  41    45  51  47    54  60  56    34  40  36    33  39  35     0   0   0     0   0   0     0   0   0     0   0   0  
  72  79  71    78  85  77    73  80  72    49  54  48    38  43  37    44  49  45    41  45  42    39  41  40    36  37  38    43  44  46    39  40  42    54  55  57   102 103 106   111 114 112   105 110 104    93  98  92    86  91  85    71  76  70    98 103  97   106 111 105    61  66  60    76  81  75    88  93  87    87  92  86    76  81  75    83  88  82    79  85  78    71  78  69    54  62  51    45  53  42    48  55  47    61  68  60    69  76  68    66  73  66    62  69  62    56  63  56    88  95  88   105 112 105    97 104  97    67  74  67    63  69  65    50  56  52    32  38  34    46  52  48    47  53  49    32  38  34    43  49  45    43  49  45    30  36  32    36  42  38     0   0   0     0   0   0     0   0   0     0   0   0  
  76  82  74    92  99  91    88  95  87    58  64  57    46  51  45    46  51  47    36  40  37    39  41  40    31  33  33    42  43  45    40  41  43    44  45  48   101 102 105   117 121 119    97 102  96    91  96  90   113 118 112    95 100  94    84  89  83    63  68  62    77  82  76    86  91  85    82  87  81    69  74  68    78  83  77   112 117 111    82  88  81    63  71  61    55  63  52    60  68  57    79  87  79    67  74  66    45  52  44    55  62  55    59  66  59    68  75  68    95 102  95    71  78  71    46  53  46    29  36  29    30  36  32    34  40  36    38  44  40    55  61  57    55  61  58    37  43  39    37  43  39    49  55  51    72  78  74    98 104 100     0   0   0     0   0   0     0   0   0     0   0   0  
  79  87  75    83  91  81    75  82  74    63  69  62    45  50  44    38  43  37    44  48  42    37  39  36    37  39  38    37  39  38    44  45  47    38  39  40    81  82  83   127 131 128   101 106 101   108 113 107   133 138 132   116 121 115    63  68  62    76  81  75   109 114 108   112 117 111   123 128 122    81  86  80    66  71  65    74  79  73    61  67  60    54  61  53    53  61  52    84  91  82    88  95  87    51  58  50    42  49  41    52  59  52    54  61  54    50  57  50    42  49  43    30  36  32    30  37  33    47  53  49    48  54  50    51  57  52    43  49  45    45  51  47    47  53  49    44  50  46    33  39  35    84  90  86   137 143 139   119 125 121     0   0   0     0   0   0     0   0   0     0   0   0  
  70  78  67    92 100  90    92  99  91    76  82  75    57  62  56    41  46  40    37  41  35    37  39  36    38  40  38    36  38  37    44  45  47    39  40  42    72  73  74   129 133 130   119 124 119   120 125 119   132 137 131   117 122 116    61  66  60    48  53  47    84  89  83    90  95  89   124 129 123    96 101  95    61  66  60    60  65  59    68  74  67    82  89  81    74  80  73    80  87  79    69  76  68    45  52  44    54  61  54    48  55  48    42  49  42    44  51  44    44  50  46    37  43  39    34  40  36    44  50  46    50  56  52    44  50  46    30  36  32    39  45  41    85  91  88    86  92  88    55  61  57    57  63  59    64  70  66    83  89  85     0   0   0     0   0   0     0   0   0     0   0   0  
 106 114 103   123 130 120   108 116 105    78  84  76    63  68  61    52  57  51    39  43  38    38  40  37    39  41  39    35  37  36    44  47  45    40  42  42    58  60  60   112 116 113   108 113 107   107 112 106   118 123 117   102 107 101    51  56  50    41  46  39    48  53  48    49  54  47    87  92  86    82  87  81    64  69  63    70  75  69    80  85  79    82  89  82    72  79  72    64  71  64    50  57  50    37  44  37    50  57  51    54  60  56    54  60  56    55  62  58    48  54  52    33  39  37    28  34  32    37  43  41    48  54  50    44  50  46    80  86  82    93  99  95   106 112 108   112 119 114   117 123 119    79  85  81    54  60  56    46  52  48    64  70  66    67  73  69    44  50  46    28  32  30  
 114 122 111   115 123 112    95 103  92    62  68  60    53  58  51    52  57  51    40  44  39    38  40  37    39  41  40    35  37  36    44  46  45    43  45  45    45  47  47    89  93  90    90  95  90    99 104  98   116 121 115    89  94  88    58  63  57    82  87  81    80  85  79    56  61  56    56  61  55    46  51  45    53  58  52    58  63  57    55  60  54    54  60  55    51  57  53    50  56  52    48  54  50    40  46  42    39  45  42    41  47  45    47  53  51    50  56  54    39  45  45    30  36  36    40  46  46    61  67  65    79  85  81    92  98  94   119 125 121    93  99  95   101 107 103   109 115 111   121 127 123   119 125 121   123 129 125    85  91  87    41  47  43    30  36  32    35  40  36    38  41  39  
  89  97  87    87  95  84    86  94  83    71  77  69    63  68  61    60  65  59    44  49  43    38  40  37    40  42  39    35  38  35    43  45  43    44  46  46    37  39  39    77  81  78   103 108 102   123 128 122   125 130 124    85  90  84    72  77  71   109 114 108   104 109 103    71  76  70    54  59  53    40  45  38    43  48  42    38  43  37    34  39  34    37  43  39    43  49  45    44  50  46    47  53  49    43  49  48    39  45  43    37  43  41    39  45  45    44  50  50    50  56  56    67  73  73    93  99  99   113 119 119    83  89  87    82  88  84   108 114 110    99 105 101   107 113 109    86  92  88    90  96  92   115 121 117   127 133 129    99 105 101    63  69  65    47  54  50    31  37  33    43  48  46  
  90  98  87    84  92  81    91  99  88    78  83  75    69  74  67    68  73  67    48  52  47    38  40  37    39  41  38    37  39  36    40  43  42    44  46  45    36  37  38    62  66  63   106 111 106   125 130 124   103 108 101    63  68  62    58  63  57    71  76  70    58  63  57    42  47  41    51  56  50    53  58  52    45  50  44    32  37  31    37  42  39    36  42  40    43  49  48    38  44  42    34  40  38    38  44  44    46  52  52    65  71  71    63  68  70    55  60  64    68  73  77    96 101 104   110 115 118   106 112 113    91  97  95    86  92  88   120 126 122   126 132 128   100 107 102    62  68  64    77  83  79    98 104 100    90  96  92    74  80  76    62  68  64    52  58  54    37  42  39    36  38  39  
  94 102  89    91  99  86    89  97  86    62  67  59    57  62  54    63  68  61    43  47  41    38  40  35    38  40  37    40  42  39    40  42  40    44  46  45    38  40  39    43  47  44    74  79  73    77  82  76    61  66  59    41  46  40    42  47  41    30  35  29    31  36  30    30  35  29    44  49  43    51  56  50    48  53  47    31  36  30    34  40  36    37  43  42    42  48  48    38  44  44    39  45  45    44  50  50    53  59  60    80  85  88    76  81  84    60  65  68    64  69  73    85  90  94    88  93  97    71  76  79    74  80  78   116 122 118   124 130 126   109 115 111   104 110 106   100 106 102   102 108 105   103 109 105   103 109 105    89  95  91    68  73  70    50  56  52    36  42  38    38  42  40  
  89  95  85    99 105  95   100 106  97    66  71  64    65  70  63    74  79  72    47  51  45    38  40  36    39  41  38    41  43  42    38  40  39    43  45  44    41  43  42    38  42  39    41  46  42    30  35  31    39  44  40    43  48  44    49  54  50    32  37  33    37  42  38    38  43  37    33  38  32    39  44  38    63  68  62    51  56  50    40  45  41    37  43  41    41  47  45    48  54  52    62  68  66    65  71  71    61  67  68    74  79  82    73  78  81    64  69  72    67  72  76    88  93  97   100 105 109    94  99 102    73  79  77   109 115 111   122 128 124   122 128 124    92  99  92    86  92  86   105 112 105   118 125 118   118 126 118    87  93  89    58  64  60    48  54  50    35  41  38    44  48  47  
 116 122 112   117 122 115   109 113 106    75  78  71    70  72  67    83  85  80    44  46  43    38  40  38    37  39  38    41  43  42    37  39  38    47  48  50    45  46  48    37  38  40    43  44  46    48  49  51    42  43  44    41  43  42    44  45  45    36  38  35    43  48  44    37  42  38    35  40  36    29  35  29    48  55  48    62  69  62    32  39  32    67  73  69    80  86  82    69  75  71    73  79  75    64  70  67    63  69  67    81  87  85    87  93  93    61  67  67    43  48  51    59  64  67    84  89  92   109 114 117   101 107 105   101 107 104   115 121 117   102 109 103    83  90  82    57  64  56    87  93  86    95 102  94    68  74  67    57  64  57    72  78  74    42  48  45    39  45  43    37  41  40  
 110 113 106   123 126 118   119 122 115    77  79  73    62  64  59    74  76  74    45  46  44    42  44  43    40  42  41    41  43  42    35  37  39    44  45  47    43  44  46    36  37  40    41  42  46    45  46  50    40  41  44    41  42  44    46  48  48    39  41  40    32  36  35    24  29  27    36  41  37    71  77  71    78  85  78    59  66  59    50  57  50    66  73  66    54  61  54    75  82  75    76  81  77    91  97  94    69  75  73    64  70  68    60  66  64    43  49  49    51  57  58    87  92  95   106 111 114    92  97 100   107 114 113   102 108 105    96 102  98    72  79  73    57  64  56    58  66  56    96 105  94   119 127 116    91  98  89    43  49  42    47  53  49    39  45  42    28  34  32    38  43  42  
  85  90  84   100 105  99   104 109 103    75  80  74    71  76  70    92  97  93    61  66  62    41  46  42    39  43  41    38  42  41    33  38  38    41  45  46    42  46  47    37  39  42    39  39  44    42  42  44    38  39  41    44  45  47    53  55  55    47  49  48    51  55  54    71  75  73    94  99  95   122 128 124   100 106 102    59  66  59    60  67  60    90  97  90    73  79  74    82  88  84    55  61  57   102 108 105    94 100  98    67  73  71    70  76  74    82  88  88    82  88  88    99 105 105   130 135 137   113 119 120   129 134 133   115 121 119    84  91  85    66  73  65    80  87  79   106 114 104   119 127 116   112 120 109    78  85  77    50  56  49    53  60  53    36  42  39    40  46  44    77  81  80  
 111 116 110   103 108 102    90  95  89    66  71  65    67  72  66    82  87  83    50  55  51    36  41  37    35  40  38    36  40  39    35  39  40    43  47  48    49  53  54    42  44  47    41  42  46    41  42  44    39  40  42    49  50  52    59  61  61    54  56  55    75  79  78   111 115 113   105 110 106    89  95  91    80  86  83    79  86  79    69  76  69    74  81  74    96 102  97    95 101  98    58  64  60    97 103  99    89  95  93    74  80  78    87  93  91   109 115 115    82  88  88    73  79  79   122 127 130   121 127 128   122 128 126   110 116 113    81  87  83    82  88  82   104 111 103   112 119 111    87  95  84    78  86  76    58  65  57    54  62  54    57  64  60    35  41  38    45  51  49   127 132 131  
  57  62  56    44  49  42    35  40  34    28  33  28    44  49  45    63  68  64    38  43  39    33  38  34    33  38  36    35  39  38    35  39  38    43  47  46    52  56  55    50  52  53    49  50  52    46  47  49    42  43  45    49  50  52    58  60  60    52  54  53    94  98  97   123 127 125    83  88  84    72  77  73    84  90  86    80  87  82    61  67  63    42  48  44    81  87  83    93  99  95    62  68  64    80  86  82    76  82  80    87  93  91    92  98  96    94 100 100    64  70  70    64  70  70   115 121 121   107 113 113    80  86  84    80  86  84    87  93  89    99 106 100    93 100  92    80  87  78    56  63  55    60  67  59    66  73  65    44  51  44    35  41  37    35  41  37    35  41  39    73  77  76  
  33  38  32    32  37  31    34  39  33    32  37  32    44  49  45    65  70  66    45  50  46    35  40  36    35  39  37    36  40  39    35  39  38    39  43  42    49  53  52    54  56  57    56  57  59    52  53  55    44  45  47    45  46  48    50  52  52    42  44  43    97 102 101   108 112 111    72  77  73   109 115 111   122 128 124    76  82  78    61  67  63    50  56  52    93  99  95   114 120 116    55  61  57    56  62  59    80  86  84    92  98  96    92  98  96    87  93  93    61  67  67    69  75  75   110 116 116   106 112 112    81  87  85    73  79  76    89  95  91    84  91  85    52  58  52    49  56  48    62  69  61    62  69  61    68  75  68    52  59  52    31  37  33    33  39  35    57  63  61    52  56  55  
  30  35  31    34  39  35    39  44  40    35  40  36    40  45  41    57  62  58    41  46  42    35  40  36    36  41  37    36  41  37    36  41  37    36  40  37    46  50  49    50  52  51    52  54  53    52  54  53    42  44  43    40  42  41    44  46  45    37  39  38    66  70  69    71  75  74    70  74  73   108 113 111   116 122 120    94 100  98    75  81  79    59  65  63   107 113 111   122 128 126    63  69  67    56  62  60    71  77  75    76  82  80    86  92  90    80  86  84    55  61  59    60  66  64    83  89  87    89  95  93    98 104 100    78  84  80    72  78  74    48  54  50    42  49  43    41  48  41    58  65  58    62  69  62    64  71  64    63  69  64    37  43  39    42  48  44   100 106 102   119 124 122  
  39  44  40    36  41  37    37  42  38    35  40  36    38  43  39    50  55  51    34  39  35    34  39  35    35  40  37    36  41  37    36  41  37    35  40  37    46  50  49    42  45  44    43  45  44    47  49  48    39  41  40    38  40  39    43  45  44    37  39  38    39  43  41    68  72  71   115 119 118   103 109 107    83  89  87    93  99  97    64  70  68    59  65  63    74  81  78    57  63  61    51  57  55    75  81  79    69  75  73    81  87  85    90  96  94    68  74  72    51  57  55    65  71  69    68  74  72    60  67  65    67  73  69    61  67  63    54  60  56    49  55  51   105 111 107    91  97  93    62  69  65    59  65  61    75  81  77    51  57  53    22  28  24    58  64  60   119 125 121   115 119 117  
  34  40  38    32  38  35    36  42  38    38  44  40    40  47  42    63  69  65    64  70  66    76  82  78    84  90  86    56  62  58    38  44  40    35  42  38    35  41  37    36  38  37    37  39  39    36  38  37    38  40  39    35  37  36    45  47  46    40  42  41    32  36  35    49  53  52    85  89  88    97 103 101    87  93  91    76  82  80    74  80  78    76  82  80    35  41  39    45  51  49    83  89  87    91  97  95    81  87  85    79  85  83    93  99  97   119 125 123    60  66  64    56  62  60    67  73  71    88  94  92    81  87  83    60  66  62    58  64  60    79  85  83   146 152 150    98 104 102    41  47  43    77  83  80    80  86  85    42  48  46    35  41  37    66  72  68   120 126 122   113 118 116  
  36  42  40    44  50  48    68  74  70    96 102  98    82  88  84    64  70  66    89  95  91    99 105 101    81  88  84    62  68  64    52  57  54    44  50  46    37  43  39    38  41  39    39  41  40    36  38  38    41  43  42    41  43  42    52  54  53    46  48  47    35  39  39    35  39  38    58  62  61    85  91  89    76  82  81    63  69  67    77  83  81    75  81  79    60  65  64    93  99  97   101 107 105    91  97  95    76  82  80    76  82  80    93 100  98    86  92  90    75  81  79    79  85  83    67  73  71    70  76  74    86  91  88    73  80  76    75  81  77    84  90  87    90  96  94    50  56  54    35  41  39    66  72  70    62  68  66    33  39  37    31  37  33    86  92  88   132 138 134   111 116 114  
  86  92  90    53  60  57    72  78  76   118 124 122   125 131 130    73  79  75    78  84  79    76  82  78    42  48  44    38  44  40    48  55  48    55  63  55    47  54  47    39  45  40    38  40  37    35  36  33    39  41  38    38  40  37    47  49  47    39  41  40    35  39  38    34  38  38    43  47  48    79  84  85    86  92  92    74  80  80    85  91  91    65  71  71    50  56  56    95 101 101   126 132 132   113 119 119    87  93  91   103 109 107   127 133 131    84  90  86   115 121 117   120 126 122    86  93  89    72  78  74    66  72  68    69  75  71    85  91  87    91  97  95    47  53  51    41  47  47    77  83  83   101 107 107    72  78  77    36  42  40    30  36  32    98 104 100   133 139 135   122 126 124  
  95 101  99    70  76  74   101 107 105   107 113 111   117 123 121    76  82  78    46  52  48    34  40  36    61  67  63    79  85  81    65  72  65    61  67  61    46  53  46    40  45  40    40  42  39    36  38  35    39  41  38    35  37  34    40  42  41    32  34  33    36  40  39    45  49  48    38  42  43    49  54  55    63  69  69    52  58  58    55  61  61    66  72  72    40  46  46    50  56  56    98 104 104    91  97  97    74  80  78    96 102 100   115 121 119    70  76  72    98 104 100    95 101  97    62  68  64    50  56  52    61  67  63    68  74  70    87  93  89    90  96  93    42  49  48    79  85  85   127 133 133   142 148 148    87  93  93    41  47  45    29  35  31    94 100  96   127 133 129   134 139 137  
  98 107 106    81  90  89   106 115 114    85  94  92    85  94  91    61  70  65    42  51  46    44  53  48    78  88  81    96 106  98    99 109 101   108 118 110    73  82  74    46  51  45    42  44  39    39  40  38    43  45  42    39  41  38    46  47  46    40  42  41    32  35  35    39  43  42    37  41  42    31  36  36    42  48  48    51  56  59    52  57  61    75  80  83    62  67  68    32  38  38    34  40  40    38  44  43    44  50  48    44  50  48    54  60  58    46  52  48    52  58  54    55  61  57    52  58  52    63  71  63    99 107  99    92  99  92    87  93  89    73  79  76    50  56  56   110 116 116   125 130 133   133 139 140    73  79  79    34  40  38    31  37  33    88  94  89   122 129 123   121 126 124  
  54  63  62    61  70  69    95 104 103    95 104 101    77  86  84    42  51  46    50  59  54    86  95  90    98 108 101    86  96  88    75  85  77    85  95  87    66  74  67    52  57  51    43  45  40    32  34  31    39  41  38    41  43  40    50  52  51    45  47  46    36  40  39    31  35  34    41  45  46    39  45  45    44  50  50    74  79  82    83  88  91    70  75  78    68  73  74    49  55  55    27  33  33    57  63  62    66  72  70    57  63  61    72  78  76    85  91  87    66  72  68    71  77  73    75  82  76    97 104  97   130 137 130   107 113 107    77  83  80    52  58  57    61  67  67   121 126 129   108 113 116   116 121 124    61  66  67    33  39  39    38  44  42    94 101  96   118 125 119   135 140 138  
  68  77  76    83  92  91    91 100  99    57  66  63    31  40  37    42  51  48    56  65  61    70  79  74    78  88  81    90 100  92    88  98  89    67  77  68    50  58  50    76  81  75    64  67  62    34  36  31    38  40  36    45  47  44    54  56  55    43  45  44    43  47  46    36  40  40    37  41  42    37  41  44    33  38  41    52  57  60    73  78  81    67  72  75    66  71  74    65  70  73    56  62  62   100 106 106   110 116 114   104 110 108   126 132 130   119 125 121    92  99  94    91  98  91    69  76  69    73  81  73   121 128 121    94 101  95    58  64  60    42  48  45    72  78  78   121 126 129   112 117 121   121 126 130    64  70  71    39  45  43    42  48  44   115 121 117   121 128 121   130 136 131  
  74  83  82    67  76  75    63  72  71    31  40  39    54  63  62   111 120 119    79  88  87    64  73  70    93 102  97   125 134 129   100 110 102    52  62  54    70  78  71   122 128 121    97 102  96    49  54  47    47  52  46    55  58  54    61  63  60    42  47  43    30  35  31    39  43  42    29  33  33    32  37  40    38  43  46    39  44  46    60  65  68    81  86  89    86  91  94    74  79  82    56  62  62    88  93  93   117 123 121    93  99  97   109 115 111    89  95  91    89  96  89   105 112 105    69  76  69    60  67  60   104 110 106    80  86  83    46  52  50    43  49  48    76  82  82   114 119 122   120 125 128   125 131 132    63  69  69    35  41  40    38  44  42   135 141 137   131 137 133   102 107 103  
  68  74  70    48  54  52    37  43  42    41  47  47   108 113 116   119 124 127    85  90  93    68  73  76    93  99 100   130 136 136    86  92  90    64  71  67    92  98  94   104 110 106    74  80  76    48  55  48    51  58  51    56  63  56    60  67  60    51  56  50    38  43  37    35  40  36    36  40  39    34  38  38    30  34  37    39  43  46    55  59  63    80  85  88    91  96 100    85  90  93    62  68  68    51  57  56    88  94  92    92  98  95    73  80  74    99 106  99   102 109 101   111 118 109    85  93  82    62  69  62   122 130 128    92 101 102    41  50  49    84  93  90   100 109 106   120 126 124   116 122 119   133 139 135    58  63  59    28  32  31    57  61  60   133 137 136   134 138 136   117 123 117  
  55  61  57    45  51  47    46  52  50    78  84  83   134 139 142   118 123 127    84  89  93    63  68  72    65  70  74   108 113 114    66  72  70    80  85  83   125 131 127    83  91  86    48  57  52    85  95  87    78  87  80    67  74  66    56  63  55    55  62  54    34  39  34    32  37  31    34  38  36    36  40  41    36  40  41    39  40  44    45  47  52    51  56  59    71  76  79   106 111 114    92  98  98    46  52  52    89  95  93   120 126 122    74  80  74    91  99  91   103 110 102    99 106  97    99 107  96    68  75  68    93 101 101    68  76  78    48  56  58    93 102 102   119 128 125   130 137 132   122 128 124    98 105  98    47  53  48    34  39  35    54  58  57   138 142 141   134 138 136   125 131 125  
  40  48  40    49  56  50    59  65  62    83  89  88   106 112 112    98 103 106    94  99 102    57  62  65    60  66  67    66  72  72    55  61  59   107 113 108   123 130 123    66  74  69    57  66  61   117 127 119    66  75  67    65  72  65    49  56  48    39  46  38    42  47  41    35  40  35    32  37  34    36  40  40    41  44  46    39  40  44    35  40  43    33  38  41    47  52  55    86  91  95    93  99  99    59  65  64    85  91  89   130 136 132    86  93  86   105 112 105   126 133 125   107 114 106   120 127 117    64  71  63    62  71  70    52  60  62    55  63  64    84  91  90   119 125 123   126 132 128   121 128 123    90  97  90    43  49  44    38  43  39    52  55  54   139 143 142   123 128 125   122 128 122  
  53  60  53    64  71  65    82  88  84    93  99  97    81  87  87    77  83  84    91  96  99    72  78  79    79  85  85    52  58  56    82  89  84   117 123 118    95 102  95    49  57  52    52  62  57    99 108 103    62  71  63    77  84  77    52  59  52    54  61  53    55  60  54    45  50  44    35  39  37    34  38  38    39  43  44    40  41  45    35  37  41    34  38  41    40  45  47    49  54  57    69  75  75    87  93  92    73  79  77    76  82  79    75  81  77    96 103  96   124 131 124   119 126 118   139 147 137    77  84  76    44  53  52    54  62  65    65  73  75    77  84  85   107 113 111   127 132 129   123 130 125    98 105  98    51  57  52    36  41  37     0   0   0     0   0   0     0   0   0     0   0   0  
  82  89  81    56  63  56    67  74  68    86  92  88    73  79  76    74  80  78    76  82  80    71  77  75    65  71  69    57  63  59    91  97  93    78  84  77    72  79  71    48  56  51    47  56  51    93 102  97    98 106 100    77  84  77    49  56  48    67  75  67    57  62  56    49  54  49    40  45  41    37  41  39    38  42  43    38  40  44    32  36  38    39  45  45    50  56  56    54  59  59    57  63  61    96 102 100    75  81  79    39  45  42    81  87  83    86  93  86    97 104  97   103 110 102   114 121 112    65  73  65    41  50  50    59  66  69    87  92  94   104 110 108   101 107 105   134 140 136   141 147 143   111 116 110    43  48  43    29  34  30     0   0   0     0   0   0     0   0   0     0   0   0  
  71  77  70    50  57  49    69  76  69    91  97  92    70  76  72    72  78  74    70  76  74    53  59  56    55  61  57    65  71  67    70  77  70    63  70  62    74  81  73    50  59  53    66  75  71   107 116 111    86  95  89    47  54  47    62  69  61    61  68  60    55  60  54    48  53  48    45  50  46    43  47  45    36  40  41    35  36  40    38  40  43    53  58  58    58  64  64    72  78  78    50  55  54    74  80  78    95 101  99    55  61  58   106 112 108   109 116 109   111 118 111   100 107  99    75  82  74    45  51  47    57  65  67    61  68  71   104 109 112   133 139 140    95 101  99   114 120 116   131 137 132    88  93  87    34  39  34    31  36  32     0   0   0     0   0   0     0   0   0     0   0   0  
  63  70  61    71  78  70   100 107  99   130 137 130    92  99  92    69  76  69    69  76  69    58  65  58    82  89  82    77  84  77    74  80  72   109 116 108    93 100  92    48  57  51    75  84  81    85  95  90    42  50  45    44  51  44    90  97  89    82  89  81    73  78  72    56  61  55    48  53  49    44  48  46    34  38  37    34  36  38    45  50  51    63  69  69    56  62  60    62  68  66    41  47  45    50  57  54    84  90  86    63  69  65    86  91  87   109 116 109   135 142 135   104 111 104    62  69  62    60  67  62    69  74  77    62  67  70   103 109 110   135 141 140   104 110 108    95 100  96   107 112 107    53  58  52    40  43  39    40  41  38     0   0   0     0   0   0     0   0   0     0   0   0  
 108 114 106    84  91  83    74  81  73   116 123 116    99 106  99    70  77  70    63  70  63    66  73  66    92  99  92    71  78  71    84  91  83   139 146 138    89  96  89    59  68  64    82  91  88    53  62  59    40  48  43    71  77  72    79  86  79    98 105  97    99 104  98    66  71  66    48  53  49    42  47  45    32  36  35    36  37  39    51  53  54    60  65  65    51  57  56    40  46  44    41  47  45    45  51  48    45  51  47    61  67  63    54  60  56    83  90  83   127 134 127    78  85  78    40  47  40    68  74  69    64  69  72    58  63  66    94  99 102   124 130 131   131 137 135   105 110 106   124 129 125    75  80  74    34  37  33    30  32  29     0   0   0     0   0   0     0   0   0     0   0   0  
 119 126 119    63  70  63    59  66  59    55  62  54    61  68  60    70  77  69    61  68  60    53  60  52    83  90  82    64  71  63    98 105  98    95 102  95    69  76  69    71  79  75    59  68  65    43  52  49    80  88  83    72  78  73    48  55  48    82  89  82    60  65  58    98 103  96    87  92  86    42  47  42    39  44  40    49  51  50    57  61  60    60  66  64    41  47  45    33  39  37    50  56  54    57  63  61    38  44  40    52  58  54    89  95  91    84  90  86   110 116 112    57  64  57    53  60  53    57  63  59    59  64  67    71  76  80    93  99 100   115 120 119   135 139 138   124 129 124    87  91  87    56  58  53    38  40  36    47  49  46     0   0   0     0   0   0     0   0   0     0   0   0  
 103 109 105    68  75  68    63  70  63    89  95  89    79  86  79    68  76  68    48  55  47    48  55  47    94 101  93    79  86  79    92  99  92    82  89  82    62  69  63    59  67  66    45  54  53    86  95  94   126 134 131    79  85  81    62  69  63    72  79  72    42  47  40    90  95  88   100 105  99    61  66  62    41  46  42    50  52  51    62  65  64    55  60  59    55  61  58    50  56  54    52  58  56    53  58  56    41  47  43    49  55  51    72  78  74    59  64  60    53  59  54    45  52  45    52  60  52    60  66  62    58  63  67    58  63  67   109 114 117   132 137 138   112 116 115    68  73  69    40  44  39    39  41  36    39  41  37    59  61  58     0   0   0     0   0   0     0   0   0     0   0   0  
 118 124 120    95 100  97    78  85  79   124 130 124    96 103  96    65  72  64    48  55  47    57  64  56    87  94  87    75  82  75    84  90  84    76  82  78    64  70  67    58  66  65    30  39  38    72  81  80   108 116 113    76  82  78   110 117 111   149 156 149    78  83  76    66  71  64    56  61  55    55  60  55    56  61  57    56  58  57    47  51  49    35  41  37    42  48  44    42  48  44    40  46  42    41  47  43    40  46  42    41  47  43    54  61  56    54  60  56    35  41  37    79  85  81    88  94  90    75  81  78    63  67  70    69  72  77   119 123 125   101 105 104    49  53  52    34  36  33    29  31  27    37  39  34    36  36  34    70  70  68     0   0   0     0   0   0     0   0   0     0   0   0  
 111 117 117    88  94  92    74  80  77   115 121 117    89  96  89    55  62  55    58  66  57    70  77  70    65  72  65    69  75  71    87  93  89    75  81  79    57  63  62    42  49  51    33  41  43    73  82  81   122 130 129   107 113 110   106 113 107   129 136 129    94  99  92    90  95  89    75  80  74    59  64  59    47  52  48    62  64  63    65  68  66    47  52  48    42  48  44    36  42  38    34  40  36    38  44  40    42  48  44    38  44  40    44  50  46    55  61  57    40  46  42    94 100  96   102 108 104    68  74  72    54  58  62    55  59  63    78  82  85    67  71  73    56  60  59    89  91  88    51  53  49    41  43  38    33  33  30    91  91  89     0   0   0     0   0   0     0   0   0     0   0   0  
  71  78  78    59  65  65    71  77  76    99 105 102    87  94  87    62  69  62    78  85  78    77  84  77    60  67  60    81  87  83    85  92  90    56  62  62    37  42  44    52  59  61    64  72  74    83  92  91   124 132 129   110 116 112    77  84  78    83  90  83    70  75  68   110 115 109   113 118 112    78  83  77    42  47  41    54  57  54    61  67  63    63  69  65    50  56  53    39  45  41    32  38  34    31  37  33    36  42  38    49  55  51    56  62  58    65  71  67    49  55  51    69  75  71    91  97  94    67  74  73    55  59  62    71  75  79    87  91  93    95  98  97    99 101 100   150 152 150    69  70  67    36  37  32    41  41  38   114 114 112     0   0   0     0   0   0     0   0   0     0   0   0  
  51  56  59    52  57  60    80  86  87    93  99  98    82  88  84    64  70  65    85  91  85    91  98  92    69  75  71    83  89  87    57  63  63    32  37  40    39  44  47    78  85  87    85  93  95    86  95  94   108 116 115    89  95  92    69  76  70    78  85  78    87  92  86   101 106  99    86  91  85    76  81  75    65  70  64    68  70  67    51  54  50    54  60  56    48  54  50    45  51  47    39  45  42    37  43  39    45  51  47    50  56  52    54  60  57    72  78  74    64  70  66    53  59  55    81  87  85    85  90  90    56  60  63    82  85  90   101 105 108   110 112 114    99 100 100   141 143 140    58  59  56    33  34  29    47  47  45   105 105 103     0   0   0     0   0   0     0   0   0     0   0   0  
  60  65  68    66  71  75    73  79  80    76  82  81    58  64  60    56  62  58    81  87  82   103 109 105    70  76  72    69  75  73    40  46  46    44  49  52    66  71  74   103 110 113   102 110 112    84  93  92    90  98  97    74  80  77    65  72  66    83  90  83   112 117 110   103 108 101    74  79  72    75  80  74    81  86  80   100 102  99    76  82  77    58  65  58    48  55  50    52  58  54    59  65  61    58  64  60    60  66  62    43  49  45    31  37  33    50  56  54    54  60  58    47  53  51    62  68  66    78  84  83    81  85  88    85  88  92   100 104 106   122 125 124   139 141 140   146 148 145    63  65  61    36  37  32    43  43  40    87  87  85     0   0   0     0   0   0     0   0   0     0   0   0  
  84  90  90    88  94  94    66  72  71    70  76  74    51  57  53    74  80  76    92  98  94   101 107 104    62  68  65    60  66  66    52  57  60    78  83  86    86  91  95    91  96  99    97 102 103    78  84  84    95 101  99    92  98  95    68  74  68    83  90  83   100 105  98    93  98  91    78  83  76    91  96  90    91  96  90   102 105 102    83  88  84    73  79  72    43  49  45    42  48  44    56  62  58    52  59  55    41  47  43    51  57  53    32  38  34    30  36  34    33  38  37    45  51  49    46  52  50    61  67  65    63  67  70    82  86  89    97 101 103    92  94  94   122 124 123   114 116 113    54  56  53    34  35  32    34  34  32    87  87  85     0   0   0     0   0   0     0   0   0     0   0   0  
  97 102  96    92  97  91    84  89  83    82  87  81    70  75  71   100 105 100   104 109 106    87  91  90    50  54  53    52  56  56    63  67  70    86  90  93    74  77  81    56  60  60    53  59  55    70  76  72   104 109 105   108 113 108    78  83  77    87  92  86    81  86  80    76  81  75    90  95  89   111 116 110    87  92  87   104 109 102    73  78  72    58  63  59    61  66  62    55  60  56    33  38  34    39  44  40    38  43  39    49  54  50    52  57  53    41  46  42    31  36  32    37  42  38    49  54  50    54  58  57    62  66  66    73  77  78    82  86  86    70  74  73    84  88  87   110 114 113    39  43  42    31  35  34    55  59  58   129 133 132     0   0   0     0   0   0     0   0   0     0   0   0  
  85  91  81    81  87  78    73  78  71    69  74  68    70  75  69    78  83  79    67  71  68    61  65  64    57  61  61    48  53  53    63  67  70    84  88  91    81  84  88    59  64  62    47  52  46    55  60  54    91  96  90    90  95  89    92  97  90    94  99  93    90  95  89    77  82  76   103 108 102   115 120 114    97 102  96    82  87  81    67  72  66    75  80  76   102 107 103    88  93  89    47  52  48    39  44  40    38  43  39    45  50  47    47  52  48    40  45  41    33  38  35    40  45  41    49  54  50    51  56  52    56  60  59    77  81  80    79  83  82   105 109 107   128 132 131    99 103 102    40  45  44    34  38  37    59  63  62   128 133 132     0   0   0     0   0   0     0   0   0     0   0   0  
   0   0   0     0   0   0     0   0   0     0   0   0     0   0   0     0   0   0     0   0   0     0   0   0     0   0   0     0   0   0     0   0   0     0   0   0     0   0   0     0   0   0     0   0   0     0   0   0   109 114 108    95 100  94    99 104  98    92  97  91    69  74  68    78  83  78   127 132 126   121 126 120   102 107 101    73  78  72    89  94  89   117 122 118   115 120 115    66  71  67    60  65  61    45  50  46     0   0   0     0   0   0     0   0   0     0   0   0     0   0   0     0   0   0     0   0   0     0   0   0     0   0   0     0   0   0     0   0   0     0   0   0     0   0   0     0   0   0     0   0   0     0   0   0     0   0   0     0   0   0     0   0   0     0   0   0     0   0   0     0   0   0  
   0   0   0     0   0   0     0   0   0     0   0   0     0   0   0     0   0   0     0   0   0     0   0   0     0   0   0     0   0   0     0   0   0     0   0   0     0   0   0     0   0   0     0   0   0     0   0   0    95 100  94    79  84  78    80  85  79    85  90  84    75  80  74    88  93  87   124 129 123   109 114 108   102 107 101    80  85  79    85  90  84   105 110 106   104 109 105    70  75  71   115 120 116    73  78  74     0   0   0     0   0   0     0   0   0     0   0   0     0   0   0     0   0   0     0   0   0     0   0   0     0   0   0     0   0   0     0   0   0     0   0   0     0   0   0     0   0   0     0   0   0     0   0   0     0   0   0     0   0   0     0   0   0     0   0   0     0   0   0     0   0   0  
   0   0   0     0   0   0     0   0   0     0   0   0     0   0   0     0   0   0     0   0   0     0   0   0     0   0   0     0   0   0     0   0   0     0   0   0     0   0   0     0   0   0     0   0   0     0   0   0    80  85  79    78  83  77   105 110 104   129 134 128   104 109 104   103 108 102    99 104  98    87  92  86    91  96  90    78  83  77    57  62  57    87  92  88   100 105 101   100 105 101   134 139 135    79  84  80     0   0   0     0   0   0     0   0   0     0   0   0     0   0   0     0   0   0     0   0   0     0   0   0     0   0   0     0   0   0     0   0   0     0   0   0     0   0   0     0   0   0     0   0   0     0   0   0     0   0   0     0   0   0     0   0   0     0   0   0     0   0   0     0   0   0  
   0   0   0     0   0   0     0   0   0     0   0   0     0   0   0     0   0   0     0   0   0     0   0   0     0   0   0     0   0   0     0   0   0     0   0   0     0   0   0     0   0   0     0   0   0     0   0   0    87  92  86    87  92  86   126 131 125   137 142 136   103 108 102   128 133 127   126 131 125   110 115 109    98 103  97    98 103  97    82  87  82    99 104 100    87  92  88   104 109 105   121 126 122   104 109 105     0   0   0     0   0   0     0   0   0     0   0   0     0   0   0     0   0   0     0   0   0     0   0   0     0   0   0     0   0   0     0   0   0     0   0   0     0   0   0     0   0   0     0   0   0     0   0   0     0   0   0     0   0   0     0   0   0     0   0   0     0   0   0     0   0   0  
