P3
54 50
255
  64  69  62    59  64  57    66  71  64    69  74  67    71  76  69    60  65  58    52  57  50    67  72  65    75  80  73    61  66  59    55  57  52     0   0   0     0   0   0     0   0   0     0   0   0     0   0   0     0   0   0     0   0   0     0   0   0     0   0   0     0   0   0     0   0   0     0   0   0     0   0   0     0   0   0     0   0   0     0   0   0     0   0   0    43  50  42    46  53  45    34  41  34    34  41  34    37  44  37    51  58  51    59  67  59    47  53  49    38  44  39    40  45  39    42  47  41    48  53  47    52  57  50    45  50  44    36  38  33    35  37  32    36  38  33    37  38  33    35  35  30    35  36  31    36  37  32    39  41  36     0   0   0     0   0   0     0   0   0     0   0   0  
  60  65  58    58  63  56    65  70  63    72  77  70    74  79  72    72  77  70    58  63  55    60  65  58    76  81  74    69  74  68    47  49  46     0   0   0     0   0   0     0   0   0     0   0   0     0   0   0     0   0   0     0   0   0     0   0   0     0   0   0     0   0   0     0   0   0     0   0   0     0   0   0     0   0   0     0   0   0     0   0   0     0   0   0    45  52  44    49  57  49    37  44  37    29  36  29    35  42  35    48  55  48    54  62  54    41  47  43    39  45  40    40  45  39    38  43  37    42  47  40    43  48  42    44  48  42    41  43  38    36  38  33    35  37  32    35  36  31    34  35  30    35  36  31    37  38  33    40  41  36     0   0   0     0   0   0     0   0   0     0   0   0  
  48  53  45    58  63  56    67  72  65    68  73  66    68  73  66    77  82  75    67  72  64    53  58  51    65  70  64    74  79  72    53  55  51     0   0   0     0   0   0     0   0   0     0   0   0     0   0   0     0   0   0     0   0   0     0   0   0     0   0   0     0   0   0     0   0   0     0   0   0     0   0   0     0   0   0     0   0   0     0   0   0     0   0   0    46  53  45    50  57  49    38  45  38    28  35  28    45  52  45    54  61  54    50  56  50    32  38  34    38  43  39    36  41  35    38  43  37    41  46  40    39  41  36    41  43  38    43  45  40    36  37  32    34  35  30    34  35  30    34  35  30    35  36  31    38  39  34    42  43  38     0   0   0     0   0   0     0   0   0     0   0   0  
  49  54  47    69  74  67    77  82  75    68  73  66    65  70  63    79  84  77    77  82  74    56  61  54    60  65  58    76  81  75    53  55  52     0   0   0     0   0   0     0   0   0     0   0   0     0   0   0     0   0   0     0   0   0     0   0   0     0   0   0     0   0   0     0   0   0     0   0   0     0   0   0     0   0   0     0   0   0     0   0   0     0   0   0    35  41  33    37  44  36    33  40  33    32  39  32    58  65  58    60  67  60    52  59  52    30  36  32    35  41  36    32  37  31    40  45  39    47  52  47    39  41  36    38  40  35    39  41  36    35  36  31    35  36  31    35  36  31    34  35  30    35  36  31    38  39  34    41  42  37     0   0   0     0   0   0     0   0   0     0   0   0  
  59  64  57    74  79  72    78  83  76    66  71  64    63  68  61    71  76  69    72  77  70    58  63  56    51  56  49    58  63  56    40  43  38     0   0   0     0   0   0     0   0   0     0   0   0     0   0   0     0   0   0     0   0   0     0   0   0     0   0   0     0   0   0     0   0   0     0   0   0     0   0   0     0   0   0     0   0   0     0   0   0     0   0   0    39  46  38    45  52  44    34  42  34    41  48  41    62  69  62    53  60  53    56  63  56    36  42  38    37  43  39    35  40  36    42  47  42    48  53  49    38  40  37    38  40  37    40  42  39    38  38  36    37  37  35    37  37  35    35  35  33    34  34  32    36  35  33    39  39  37     0   0   0     0   0   0     0   0   0     0   0   0  
  60  65  58    65  70  62    62  67  60    55  60  53    55  60  53    54  59  52    53  58  50    47  52  45    34  39  32    29  34  28    32  34  29     0   0   0     0   0   0     0   0   0     0   0   0     0   0   0     0   0   0     0   0   0     0   0   0     0   0   0     0   0   0     0   0   0     0   0   0     0   0   0     0   0   0     0   0   0     0   0   0     0   0   0    40  45  38    49  54  47    43  48  42    51  56  50    59  64  58    41  46  40    59  64  57    44  49  44    41  46  42    42  47  43    41  46  42    44  49  45    34  36  33    38  41  38    43  45  42    40  42  39    40  40  38    39  39  37    35  35  33    33  33  31    34  34  32    36  36  34     0   0   0     0   0   0     0   0   0     0   0   0  
  41  43  38    34  36  31    32  34  29    35  37  32    32  34  29    33  35  30    38  41  36    39  41  36    36  37  32    36  38  33    39  41  36     0   0   0     0   0   0     0   0   0     0   0   0     0   0   0     0   0   0     0   0   0     0   0   0     0   0   0     0   0   0     0   0   0     0   0   0     0   0   0     0   0   0     0   0   0     0   0   0     0   0   0    42  47  40    42  47  40    46  51  44    60  65  57    56  61  54    47  52  45    46  51  44    43  48  41    39  44  37    34  39  32    44  49  42    48  53  46    38  43  35    45  50  43    45  50  43    40  45  38    39  44  37    34  39  33    32  37  30    36  40  33    38  41  34    36  39  32     0   0   0     0   0   0     0   0   0     0   0   0  
  37  39  34    33  35  30    33  35  30    34  36  31    34  36  31    34  36  31    36  37  32    37  39  34    36  38  33    35  37  32    38  41  34     0   0   0     0   0   0     0   0   0     0   0   0     0   0   0     0   0   0     0   0   0     0   0   0     0   0   0     0   0   0     0   0   0     0   0   0     0   0   0     0   0   0     0   0   0     0   0   0     0   0   0    42  45  38    44  47  40    50  53  46    57  60  53    47  50  43    36  39  32    39  42  34    43  46  39    42  46  39    35  40  33    40  45  38    46  51  44    41  46  39    49  54  47    46  51  44    40  45  39    40  45  38    37  42  34    34  39  32    34  39  32    34  39  32    34  39  32     0   0   0     0   0   0     0   0   0     0   0   0  
  32  34  29    32  35  30    34  36  31    35  37  32    37  39  34    36  38  33    33  35  30    37  39  34    39  41  36    34  36  31    36  39  32    39  42  35    33  36  29    33  36  29    39  42  35    34  37  30    30  33  26    34  37  30    32  36  28    32  35  28    37  40  33    41  44  37    35  38  31    35  38  31    40  44  37    39  42  35    34  37  30    36  39  32    41  44  37    45  48  41    47  50  43    52  55  48    42  45  38    32  35  28    35  38  31    41  44  37    43  47  40    36  41  34    37  42  35    41  46  39    40  45  38    46  51  45    42  47  40    38  43  36    40  45  38    39  44  37    35  40  33    32  37  30    32  37  30    35  40  33     0   0   0     0   0   0     0   0   0     0   0   0  
  32  34  29    35  36  31    35  37  32    35  37  32    39  42  37    38  40  35    32  34  29    37  39  34    41  43  38    35  37  32    35  38  31    36  39  32    31  34  27    34  37  30    39  42  35    34  37  30    31  34  27    34  37  30    32  35  28    33  36  29    38  41  34    41  44  37    37  40  33    34  37  30    38  41  34    37  39  33    34  37  30    36  39  32    42  45  38    47  49  43    40  43  36    50  53  46    47  50  43    41  45  37    41  44  37    42  45  38    43  47  40    37  42  35    35  40  34    35  40  33    33  38  31    37  42  35    32  37  30    33  38  31    38  43  36    40  45  38    37  42  35    33  38  31    33  38  31    38  43  36     0   0   0     0   0   0     0   0   0     0   0   0  
  35  37  32    36  38  33    34  36  31    35  37  32    41  43  38    39  41  36    33  35  30    38  40  35    42  44  39    35  38  33    35  38  31    39  42  35    35  38  31    35  38  31    38  41  34    35  38  31    34  37  30    34  37  30    35  39  32    37  40  33    38  41  34    40  43  35    39  42  35    34  37  30    34  37  30    35  38  31    34  37  30    37  40  33    42  45  38    47  50  44    35  38  31    47  50  43    49  52  45    46  49  42    45  48  41    44  47  40    43  47  40    37  42  35    36  41  34    34  39  32    30  35  28    31  36  29    31  36  29    31  36  29    34  39  33    39  44  37    39  44  37    35  40  33    35  40  33    42  47  40    34  37  30    39  42  35    40  43  36    34  37  30  
  38  40  35    35  38  33    34  36  31    36  38  33    40  42  37    39  40  35    35  37  32    38  40  35    40  42  37    35  37  32    35  38  31    40  43  35    38  41  34    37  40  33    37  40  33    36  39  32    37  40  33    36  39  32    39  42  35    40  43  36    38  41  34    36  39  32    38  41  34    33  36  29    34  37  29    36  39  32    36  39  32    37  40  33    41  44  37    45  49  42    37  40  33    45  48  41    44  47  40    40  43  36    40  43  36    43  45  38    45  48  42    38  43  36    36  41  35    34  39  32    33  38  31    34  39  32    37  42  35    33  38  31    33  38  31    39  44  37    42  47  40    38  43  36    37  42  35    45  50  43    39  42  35    39  42  35    38  41  34    35  38  31  
  37  39  34    34  35  30    34  36  31    36  38  33    36  38  33    36  38  33    36  38  33    37  39  34    35  37  32    34  36  31    34  37  30    37  40  33    36  39  32    39  42  35    40  43  36    39  42  35    40  43  36    38  41  34    39  42  35    40  43  36    37  39  33    34  37  30    35  38  31    35  37  31    36  39  32    38  41  34    39  42  35    37  40  33    37  40  33    41  44  37    40  43  35    45  48  40    42  45  38    37  40  33    35  38  31    39  42  35    44  47  40    42  45  38    37  40  33    34  37  30    38  41  34    38  41  34    39  42  35    37  40  33    36  39  32    41  44  37    45  49  42    42  45  38    40  43  36    46  49  42    43  46  39    39  42  35    36  39  32    36  39  32  
   0   0   0     0   0   0     0   0   0     0   0   0    33  35  30    33  35  30    37  39  34    35  37  32    31  33  28    32  34  29    33  36  29    34  37  30    34  37  30    39  43  35    44  47  40    42  45  38    42  45  38    39  42  35    38  41  34    38  41  34    37  39  33    33  36  29    32  35  28    35  38  31    38  41  34    41  44  37    41  44  37    37  40  33    35  38  31    37  40  33    40  43  36    47  50  43    45  48  41    40  43  36    35  38  31    34  37  30    42  45  38    45  48  41    34  37  30    30  33  26    37  40  33    36  39  32    33  36  29    37  40  33    37  40  33    41  45  38    47  50  43    43  46  39    40  43  36    45  48  41    44  47  40    38  41  34    35  38  31    37  40  33  
   0   0   0     0   0   0     0   0   0     0   0   0    34  36  31    36  38  33    36  38  33    35  37  32    32  35  30    31  33  28    38  41  34    36  39  32    34  37  30    34  37  30    37  39  33    40  43  36    41  44  37    38  41  34    38  41  34    37  40  33    36  39  32    36  39  32    36  39  32    35  37  31    39  42  35    39  43  36    37  40  33    38  41  34    36  40  32    38  41  34    34  37  30    39  42  35    41  44  37    38  41  34    35  38  31    37  40  33    40  43  36    44  47  40    42  45  38    40  43  36    39  42  35    37  40  33    36  39  32    33  36  30    35  38  31    37  40  33    39  42  35    40  43  36    37  41  33    36  39  32    35  38  31    36  39  32    42  45  38    55  58  51  
   0   0   0     0   0   0     0   0   0     0   0   0    35  37  32    37  39  34    38  40  35    37  39  34    35  36  31    33  35  30    37  40  33    35  38  31    34  37  30    34  37  30    36  39  32    38  41  34    39  42  35    38  41  34    38  41  34    37  40  33    36  39  32    36  39  32    36  39  32    36  39  32    41  44  37    41  44  37    38  41  35    40  43  36    38  41  34    39  42  35    35  38  31    38  41  34    40  43  36    37  41  33    36  39  32    37  40  33    38  41  35    40  43  36    38  41  34    37  40  33    36  39  32    35  38  30    34  37  30    34  37  30    35  38  31    36  39  32    37  40  33    37  40  33    35  37  31    33  36  29    36  39  32    36  39  32    38  41  34    44  47  40  
   0   0   0     0   0   0     0   0   0     0   0   0    36  38  33    38  40  35    39  41  36    39  41  36    37  39  34    36  38  33    36  39  32    35  38  30    34  37  30    34  37  30    35  38  31    36  39  32    36  39  32    37  40  33    37  40  33    37  40  33    37  40  33    36  39  32    36  39  32    36  39  32    41  44  37    41  44  37    40  43  36    42  45  38    40  43  36    39  42  35    36  39  32    37  40  33    38  41  34    38  41  34    37  40  33    37  40  33    37  40  33    39  40  34    38  39  33    37  38  32    36  37  31    35  37  30    35  36  30    35  37  30    36  37  31    36  37  31    35  36  30    35  36  30    33  34  28    33  34  28    35  38  31    35  39  32    35  38  31    35  38  30  
   0   0   0     0   0   0     0   0   0     0   0   0    36  38  33    37  39  34    38  40  35    39  41  36    38  40  35    38  40  35    35  38  31    35  38  31    35  38  31    35  38  31    35  38  31    35  38  31    35  37  31    36  39  32    36  39  32    37  40  33    37  40  33    37  40  33    36  39  32    37  40  33    41  44  37    39  42  35    39  42  35    43  46  39    40  43  36    38  41  34    37  40  33    36  39  32    36  39  32    37  40  33    38  41  34    37  40  33    36  38  32    39  40  34    39  40  34    38  39  33    38  39  33    38  39  33    38  39  33    36  37  31    35  36  30    34  35  29    34  35  29    34  35  29    35  35  30    35  36  30    34  37  30    37  40  33    36  39  32    33  36  29  
   0   0   0     0   0   0     0   0   0     0   0   0    35  37  32    36  38  33    37  39  34    37  39  34    37  39  34    37  39  34    36  39  32    36  39  32    37  40  33    36  39  32    36  39  32    35  38  31    35  38  31    36  39  32    35  38  31    37  40  33    39  42  35    37  40  33    35  38  31    36  39  32    39  42  35    36  39  32    37  40  33    43  46  39    40  43  36    36  39  32    37  40  33    35  39  32    35  38  31    35  39  32    37  40  33    36  39  32    36  38  31    37  38  32    37  38  32    37  38  32    37  38  32    37  38  32    37  38  32    36  36  31    34  35  29    34  35  29    34  35  29    36  37  31    37  38  32    39  40  34    34  37  30    38  41  34    38  41  34    36  38  31  
   0   0   0     0   0   0     0   0   0     0   0   0    34  36  31    34  36  31    35  37  32    35  37  32    35  37  32    35  37  32    36  39  32    36  39  32    36  39  32    36  39  32    36  39  32    36  39  32    36  39  32    36  39  32    35  38  31    38  41  34    40  43  36    39  42  35    36  39  32    35  38  31    37  40  33    33  36  29    36  38  32    43  46  39    40  43  36    35  38  31    36  39  32    35  39  32    35  38  31    35  38  31    35  38  31    36  39  32    35  38  31    34  35  29    34  35  29    34  35  29    34  35  29    33  34  28    33  34  28    34  35  29    34  35  29    34  35  29    35  36  30    37  38  32    39  40  34    41  42  36    35  38  31    38  41  34    37  40  33    35  38  31  
   0   0   0     0   0   0     0   0   0     0   0   0    35  37  32    34  36  31    34  36  31    34  36  31    34  36  31    34  36  31    34  37  30    34  37  30    34  37  30    35  38  30    36  39  32    37  40  33    37  40  33    37  40  33    36  39  32    38  41  34    41  44  37    41  44  37    37  40  33    36  39  32    37  40  33    32  35  28    36  38  32    44  47  40    41  44  37    34  37  30    34  37  30    36  39  32    36  39  32    33  36  30    33  36  29    35  38  31    37  39  32    34  35  29    34  35  29    33  34  28    33  34  28    32  33  27    32  33  27    33  34  28    34  35  29    34  35  29    35  36  30    37  38  32    38  39  33    38  39  33    35  38  31    36  39  32    35  38  31    34  37  30  
   0   0   0     0   0   0     0   0   0     0   0   0    36  38  33    35  37  32    35  37  32    34  36  31    33  35  30    33  35  30    33  36  29    32  35  28    32  35  28    33  35  29    35  38  31    36  39  32    37  40  33    37  40  33    36  39  32    39  42  34    42  45  38    42  45  38    37  40  33    37  40  33    37  40  33    32  35  28    36  39  32    45  48  41    42  45  38    35  38  31    33  36  29    36  39  32    36  39  32    33  36  29    31  34  27    35  38  31    38  41  34    37  38  32    36  37  31    35  36  30    35  36  30    34  35  29    33  34  28    34  35  29    34  35  29    35  36  30    35  36  30    35  36  30    35  36  30    35  36  30    34  37  30    34  37  30    33  36  29    33  36  29  
   0   0   0     0   0   0     0   0   0     0   0   0    35  38  31    34  37  29    33  36  29    39  42  35    38  41  34    35  38  31    39  42  35    39  42  35    38  41  34    37  40  33    38  41  34    40  43  36    40  44  37    42  45  38    43  46  39    40  43  36    39  42  35    40  44  37    39  42  35    35  39  32    38  43  36    37  42  35    33  38  31    37  42  35    39  44  37    34  39  32    34  39  32    35  40  33    34  39  32    34  39  32    36  41  34    35  40  33    33  38  31    36  39  32    36  39  32    35  38  31    35  38  31    36  39  32    35  38  31    35  38  31    36  39  32    36  39  32    35  39  32    35  38  31    34  37  30    35  38  31    34  37  30    34  37  30    34  37  30    35  38  30  
   0   0   0     0   0   0     0   0   0     0   0   0    37  39  33    36  39  32    38  41  34    42  45  38    37  40  33    36  39  32    32  35  28    31  34  27    31  34  27    33  36  29    36  39  32    35  38  31    34  37  30    38  41  34    36  40  32    33  36  29    32  35  28    33  36  29    33  36  29    35  39  32    36  41  34    34  39  32    32  37  30    36  41  34    36  41  35    31  36  29    30  35  28    32  37  30    33  38  31    31  36  29    31  36  29    31  36  29    32  36  30    35  38  31    33  36  30    32  35  28    32  35  28    32  35  28    30  33  26    34  37  30    36  39  32    35  38  31    35  38  31    36  39  32    35  38  31    35  38  31    37  40  33    37  40  33    37  40  33    37  40  33  
   0   0   0     0   0   0     0   0   0     0   0   0    32  35  28    32  35  28    38  41  34    40  43  36    33  36  29    35  39  32    34  39  32    35  40  33    35  40  33    37  42  35    41  46  39    39  44  37    37  42  35    42  47  40    40  45  37    36  41  34    36  41  34    37  42  35    39  44  37    40  45  38    37  42  35    35  40  33    37  42  35    41  46  39    40  45  37    36  41  34    34  39  32    37  42  36    39  44  37    36  41  34    33  38  31    34  39  32    37  41  34    40  43  36    38  41  34    37  40  33    38  41  34    37  40  33    36  39  32    37  40  33    36  39  32    35  38  31    36  40  32    39  42  35    37  41  33    36  39  32    39  42  35    39  42  35    38  41  34    38  41  34  
   0   0   0     0   0   0     0   0   0     0   0   0    39  42  35    36  40  33    43  46  39    42  45  38    36  40  32    45  48  41    35  40  33    38  43  35    36  41  34    34  39  32    37  42  34    39  44  37    37  42  35    37  42  35    35  40  33    37  42  35    37  42  35    36  41  34    38  43  36    39  44  37    36  41  34    37  42  35    40  45  38    39  44  37    37  42  35    38  43  36    39  44  37    38  43  36    40  45  38    39  44  37    36  41  34    36  41  34    38  42  35    41  44  37    38  41  34    40  43  36    42  45  38    42  45  38    41  44  37    39  42  35    37  40  33    35  38  31    37  40  33    40  43  36    40  42  36    37  40  33    37  40  33    37  40  33    37  40  33    37  40  33  
   0   0   0     0   0   0     0   0   0     0   0   0    63  65  58    56  59  52    54  57  50    48  51  44    46  49  42    59  63  56    48  53  46    54  59  52    49  54  47    41  46  39    44  49  42    50  55  48    49  54  47    44  49  42    43  48  40    48  53  46    47  52  45    40  45  38    40  45  38    37  42  35    39  44  37    42  47  40    40  45  38    35  40  33    31  36  29    33  38  31    38  43  36    33  38  31    34  39  32    36  41  34    35  40  33    33  38  31    34  39  32    36  39  32    31  35  27    34  37  30    38  41  34    35  39  32    35  38  31    38  41  34    37  40  33    35  38  31    36  40  32    39  42  35    38  41  34    36  39  32    35  38  31    35  38  31    36  39  32    36  39  32  
   0   0   0     0   0   0     0   0   0     0   0   0    76  79  72    67  70  63    55  58  51    46  49  42    46  49  42    62  65  58    65  70  63    70  75  68    65  70  63    56  61  54    60  65  58    66  71  64    65  70  63    59  64  57    57  62  55    64  69  62    61  66  59    48  53  46    46  51  44    46  51  45    53  58  51    57  62  55    52  57  50    46  51  44    41  46  39    35  40  33    45  50  43    39  44  37    39  44  37    42  47  40    41  46  39    41  46  39    44  49  42    42  45  38    36  40  32    39  42  35    44  47  39    40  43  36    39  42  35    40  43  36    41  44  37    41  44  37    40  44  37    40  43  36    39  42  35    39  42  35    40  43  36    40  43  35    39  42  35    39  42  35  
  57  62  54    53  58  51    55  60  53    62  67  59    70  75  68    66  71  63    49  54  47    39  44  37    43  48  41    60  65  58    56  61  54    61  66  59    58  63  56    55  60  53    61  66  59    62  67  60    58  63  56    58  63  56    55  60  53    63  68  61    61  66  58    48  53  46    48  53  46    50  55  48    60  65  58    64  69  62    61  66  59    64  69  62    60  65  58    45  50  43    54  59  52    51  56  49    52  57  50    51  56  48    47  52  45    53  58  51    60  65  58    52  57  50    46  51  45    53  58  51    60  65  58    58  63  56    58  63  56    53  58  51    52  57  50    53  58  51    50  55  48    47  52  45    47  52  45    49  54  47    50  55  48    48  53  46    46  51  44    43  48  41  
  56  61  54    52  57  50    49  54  47    52  57  50    66  71  64    67  72  65    51  56  49    43  48  41    50  55  48    68  73  66    53  58  51    57  62  55    55  60  53    59  64  57    68  73  66    64  69  62    57  62  55    63  68  61    59  64  57    68  73  66    68  73  66    58  63  55    62  67  60    48  53  46    51  56  49    57  62  55    58  63  56    70  75  68    69  74  67    47  52  45    52  57  50    54  59  52    56  61  54    50  55  48    44  49  42    56  61  54    66  71  64    54  59  52    50  55  49    61  66  59    71  76  69    73  78  71    75  80  73    66  71  64    64  69  63    67  72  64    62  67  60    57  62  55    57  62  55    61  66  59    60  65  58    57  62  55    54  59  52    49  54  47  
  53  58  51    58  63  56    53  58  51    53  58  51    51  56  49    72  77  70    45  50  42    48  53  46    65  70  63    53  58  51    52  59  51    60  67  59    62  69  61    59  66  58    69  76  68    73  80  72    63  70  62    61  68  60    62  69  61    65  72  64    66  73  65    63  70  62    59  66  58    53  58  51    39  44  37    49  54  47    68  73  66    61  66  59    53  58  51    63  68  61    51  56  49    56  61  54    59  64  57    51  56  48    49  54  47    56  61  54    53  58  51    56  61  54    67  72  65    61  66  59    63  68  61    60  65  58    61  66  59    59  64  57    50  55  49    56  61  54    57  62  56    47  52  45    47  52  45    50  55  48    60  65  58    53  58  50    46  51  44    45  50  44  
  53  58  51    65  70  63    67  72  65    60  65  58    50  55  48    48  53  47    37  42  35    51  56  49    65  70  63    50  55  48    52  59  51    58  65  57    63  70  62    66  73  65    76  83  75    72  79  71    60  67  59    63  70  62    59  66  58    47  54  46    39  46  38    45  52  44    54  61  53    56  61  54    44  49  42    42  47  40    50  55  48    54  59  52    54  59  52    51  56  49    56  61  54    58  63  56    67  72  65    57  62  55    39  44  37    46  51  44    53  58  51    49  54  47    62  67  60    64  69  62    72  77  70    67  72  65    62  67  60    69  74  67    60  65  58    54  59  53    49  54  47    41  46  39    46  51  44    53  58  51    42  47  40    47  52  45    53  58  51    55  60  54  
  52  57  50    50  55  48    56  61  54    69  74  67    68  73  65    42  47  40    38  43  36    47  52  45    53  58  51    43  48  41    54  61  53    60  67  59    64  71  63    63  70  62    67  74  66    63  71  63    56  63  55    71  78  70    73  81  72    56  63  55    38  45  37    39  46  38    47  54  46    63  69  61    61  66  59    49  54  47    48  53  47    64  69  62    74  79  72    63  68  61    63  68  61    57  62  55    71  76  69    66  71  64    39  44  37    40  45  38    52  57  50    51  56  49    62  67  60    64  69  62    73  78  71    69  74  68    64  69  62    68  73  67    59  64  57    49  54  47    43  48  41    39  44  37    44  49  43    51  56  49    44  49  42    50  55  48    55  60  53    54  59  52  
  67  72  65    45  50  43    48  53  46    64  69  62    76  81  74    48  53  46    47  52  45    44  49  42    48  53  46    54  59  53    44  51  43    50  57  49    52  59  51    44  51  43    42  49  41    44  50  42    47  53  46    69  76  68    77  84  76    64  71  63    50  57  49    54  61  53    60  67  59    62  67  60    55  60  54    46  51  44    43  48  41    56  61  54    70  75  68    68  73  65    69  74  67    56  61  54    66  71  64    70  75  68    51  56  49    41  46  39    45  50  43    53  58  51    57  62  55    53  58  51    55  60  53    53  58  51    52  57  50    51  56  50    46  51  44    44  49  42    45  50  44    45  50  43    44  49  42    44  49  42    46  51  44    43  48  41    39  44  37    39  44  37  
  59  66  58    48  55  47    44  51  43    43  51  42    56  63  55    39  45  38    47  54  46    45  52  44    50  57  49    68  74  66    44  54  45    46  56  47    52  62  53    53  63  54    53  63  54    51  61  52    48  58  49    54  64  55    56  66  57    49  59  50    49  59  50    66  76  67    79  87  79    68  73  66    55  60  54    54  59  52    51  56  49    48  53  46    56  61  54    65  70  63    66  71  64    61  66  58    64  69  62    63  68  61    54  59  52    42  47  40    36  42  34    45  52  44    49  56  48    45  51  43    37  44  36    33  40  32    35  42  34    37  44  36    39  46  38    42  49  41    48  55  47    49  56  48    43  50  42    41  48  40    37  44  35    32  39  31    33  40  32    41  48  40  
  48  55  47    56  63  55    46  53  45    39  46  38    43  49  42    32  39  30    41  48  40    43  50  42    42  49  41    53  60  52    47  57  48    41  51  42    54  64  55    71  81  72    78  88  79    68  78  68    55  65  56    53  63  54    52  62  53    51  61  52    55  65  55    61  71  61    63  71  63    71  77  70    69  74  67    71  76  69    69  74  67    53  58  51    50  55  48    63  68  62    55  60  54    63  68  61    63  68  61    50  55  48    44  49  42    40  45  38    33  39  31    40  47  39    49  57  48    51  58  50    41  48  40    35  42  34    36  43  35    38  45  37    43  50  42    44  51  43    45  52  44    47  54  46    44  51  43    45  52  44     0   0   0     0   0   0     0   0   0     0   0   0  
  63  70  62    71  78  70    65  72  64    56  63  55    43  50  42    41  48  39    38  46  37    40  47  39    33  40  32    37  44  36    39  49  40    30  40  31    38  48  39    51  61  52    56  66  57    51  61  52    47  57  48    53  63  54    50  60  51    54  64  54    54  64  55    45  55  46    37  47  38    51  59  51    53  58  50    56  61  54    58  63  56    46  51  44    40  45  38    44  49  42    44  49  42    51  56  49    52  57  50    40  45  38    38  43  36    40  45  38    36  41  34    38  45  37    45  53  44    51  58  49    44  51  43    40  47  39    41  48  40    39  46  38    43  50  42    40  47  39    38  45  37    41  48  40    41  48  40    47  54  46     0   0   0     0   0   0     0   0   0     0   0   0  
  71  78  70    67  74  66    76  83  75    64  71  63    41  49  41    52  59  51    42  49  41    42  49  41    39  46  38    48  56  48    49  59  50    40  50  42    40  50  41    36  46  37    32  42  33    40  50  40    46  56  47    41  51  42    31  41  32    33  43  34    37  47  38    35  45  36    40  48  40    37  44  36    31  36  29    35  40  33    41  46  39    42  47  40    39  44  37    33  38  31    38  43  36    35  40  33    37  42  35    37  42  35    41  46  39    43  49  42    37  44  36    33  40  32    32  39  31    35  42  34    32  39  31    33  40  32    36  43  35    31  38  30    38  45  37    36  43  35    33  40  32    37  44  36    38  45  37    46  53  45     0   0   0     0   0   0     0   0   0     0   0   0  
  53  61  50    60  67  56    59  67  56    45  53  42    49  57  46    59  67  56    60  69  58    59  67  56    53  61  50    44  52  41    63  70  62    53  61  52    81  88  80    78  85  77    54  61  53    48  55  47    46  54  46    52  59  51    40  47  39    41  48  40    37  44  36    43  50  42    39  46  38    45  51  44    50  59  52    54  64  55    48  58  50    43  53  45    41  51  43    34  44  36    34  44  36    39  49  41    37  47  39    37  47  39    43  53  45    42  52  44    35  42  34    34  41  32    40  48  37    40  48  37    49  57  46    45  53  42    37  45  34    44  52  41    38  46  35    36  44  33    43  51  41    41  49  38    32  40  29    34  42  32     0   0   0     0   0   0     0   0   0     0   0   0  
  40  48  37    43  51  40    40  48  37    35  42  31    43  51  40    51  59  48    50  58  47    52  60  49    57  65  54    58  66  55    59  66  58    51  58  50    70  77  69    70  78  69    54  61  53    53  60  52    54  61  53    54  61  53    40  47  38    37  44  36    38  45  38    46  53  45    50  57  49    41  51  43    42  52  44    50  60  52    48  58  50    40  50  42    38  48  40    35  45  37    30  40  32    36  46  38    42  52  44    37  47  39    30  40  31    39  49  41    49  58  50    45  52  43    53  61  50    60  68  57    69  77  65    62  70  59    57  65  54    54  62  51    48  56  45    51  59  48    61  69  58    60  68  57    49  57  46    42  50  39     0   0   0     0   0   0     0   0   0     0   0   0  
  45  53  42    48  56  45    44  52  41    36  44  33    44  52  41    48  56  45    40  48  38    35  43  32    38  46  35    42  50  39    52  59  51    44  51  43    53  60  52    56  63  56    49  56  48    50  58  50    54  62  53    48  55  47    45  51  43    49  56  48    54  61  53    43  50  43    40  47  39    41  50  42    35  45  37    36  46  38    42  52  44    43  53  45    48  58  50    53  63  54    37  47  39    35  45  36    40  50  42    48  58  50    51  61  53    44  54  46    38  47  37    34  42  31    39  47  36    53  61  50    64  72  61    62  70  59    66  74  63    56  65  54    52  60  49    57  65  54    64  72  61    68  76  65    61  69  58    52  60  49     0   0   0     0   0   0     0   0   0     0   0   0  
  62  70  59    68  76  65    64  72  61    49  57  46    56  64  53    63  71  60    56  64  53    47  55  44    41  49  38    36  43  35    42  49  40    37  44  36    38  45  37    42  49  41    39  46  38    42  49  41    50  57  49    51  58  50    57  64  56    68  75  67    78  85  77    60  67  59    54  61  53    56  63  56    39  49  41    34  44  36    47  57  49    54  64  56    54  64  56    52  62  54    58  68  60    60  70  63    50  60  52    52  62  54    72  82  74    62  72  64    44  51  43    42  49  40    32  40  29    42  50  39    52  60  49    51  59  48    60  68  57    54  62  51    54  62  51    59  67  56    59  67  56    64  72  61    67  75  64    62  70  59     0   0   0     0   0   0     0   0   0     0   0   0  
  62  67  60    70  75  68    64  69  62    42  47  40    46  51  44    57  62  55    61  66  59    60  65  58    55  60  53    47  52  45    38  43  36    39  44  38    38  43  37    38  43  37    37  42  36    39  44  38    45  50  44    47  52  46    44  49  43    46  51  45    61  66  59    58  63  57    68  74  67    70  77  70    59  66  59    64  71  64    76  83  76    75  82  75    67  74  67    61  68  61    67  74  67    79  86  79    62  69  62    37  44  37    45  52  45    55  62  55    57  64  57    58  64  56    39  44  37    44  49  42    49  54  47    42  47  40    43  48  41    50  55  48    63  68  61    68  73  66    62  67  60    61  66  59    65  70  63    65  70  63     0   0   0     0   0   0     0   0   0     0   0   0  
  54  59  52    58  63  56    52  57  50    34  39  32    37  42  35    46  51  44    50  55  48    54  59  52    53  58  51    47  52  45    41  46  40    47  52  46    50  55  49    44  49  43    43  48  42    47  52  46    48  53  47    46  51  45    38  43  37    31  36  30    35  40  34    36  41  35    43  48  42    47  53  47    48  55  48    58  65  58    63  70  63    61  68  61    69  76  69    82  89  82    75  82  75    74  80  74    70  77  70    60  67  60    48  55  48    43  50  43    48  54  47    50  55  48    39  44  37    53  58  51    60  65  58    53  58  51    48  53  46    47  52  45    58  63  56    65  70  63    58  63  57    52  57  50    49  54  47    48  53  46     0   0   0     0   0   0     0   0   0     0   0   0  
  53  58  51    52  57  50    51  56  49    44  49  42    50  55  48    58  63  56    58  63  55    58  63  56    58  63  56    55  60  53    46  51  45    54  59  53    64  69  63    52  57  51    52  57  51    63  68  62    58  63  57    60  65  59    62  67  61    61  66  60    54  59  53    49  54  48    38  43  37    25  32  25    24  31  24    29  36  29    28  35  28    32  39  32    48  55  48    61  68  61    69  76  69    61  68  61    70  77  70    85  92  85    78  85  78    53  61  53    42  48  41    41  46  39    42  47  40    61  66  59    68  73  66    65  70  63    62  67  60    43  48  41    40  45  38    45  50  43    42  47  40    37  42  35    34  39  32    34  39  32     0   0   0     0   0   0     0   0   0     0   0   0  
  53  58  51    50  55  48    57  62  55    39  44  38    45  50  43    61  66  59    62  67  60    62  67  60    63  68  60    63  68  61    47  52  46    56  61  55    71  76  70    55  60  54    58  63  57    76  81  75    64  69  63    59  64  58    69  74  68    77  82  75    72  77  71    74  79  73    60  65  59    45  51  45    44  51  44    46  53  46    47  54  47    46  53  46    39  46  39    23  30  23    26  33  26    36  43  36    43  50  43    47  54  47    55  62  55    53  60  53    44  51  44    36  41  34    38  43  36    48  53  46    44  49  43    42  47  40    41  46  39    35  40  33    30  35  28    27  32  25    28  33  26    31  36  29    33  38  31    37  42  34     0   0   0     0   0   0     0   0   0     0   0   0  
  58  63  57    64  69  63    58  63  57    47  52  46    48  53  47    55  60  54    59  64  58    64  69  63    65  70  64    63  68  62    54  59  53    53  58  52    50  55  49    51  56  50    64  69  63    74  79  73    72  77  71    59  64  58    61  66  60    64  69  64    65  70  64    67  72  66    61  66  60    64  69  62    76  81  75    83  88  82    84  89  83    74  79  73    56  61  55    45  50  44    38  43  37    39  44  38    32  37  31    32  37  31    39  44  38    40  45  39    40  45  39    40  45  39    36  41  35    30  35  29    29  34  28    32  37  31    33  38  32    35  40  34    30  35  30    27  32  26    33  38  32    35  40  34    32  37  31    33  38  32     0   0   0     0   0   0     0   0   0     0   0   0  
  63  68  62    79  84  78    78  83  77    54  59  53    54  59  53    64  69  63    64  69  63    60  65  59    58  63  57    58  63  57    59  64  59    55  60  54    49  54  48    50  55  49    61  66  60    66  71  65    64  69  63    62  67  61    62  67  60    62  67  61    60  65  59    60  65  59    54  59  53    50  55  49    54  59  54    54  59  54    52  57  50    48  53  47    40  45  39    39  44  38    33  38  32    34  39  33    30  35  29    34  39  33    43  48  42    45  50  44    42  47  41    40  45  39    36  41  35    31  36  30    32  37  31    35  40  34    34  39  33    33  38  32    30  35  29    29  34  28    32  37  31    33  38  32    33  38  32    37  42  36     0   0   0     0   0   0     0   0   0     0   0   0  
  56  58  53    71  73  68    70  72  67    67  69  64    80  82  77    92  94  89    87  89  84    76  78  73    71  73  68    73  75  70    60  62  59    53  54  52    46  48  45    47  49  46    53  55  52    52  54  51    46  48  45     0   0   0     0   0   0     0   0   0     0   0   0     0   0   0     0   0   0     0   0   0     0   0   0     0   0   0     0   0   0     0   0   0     0   0   0     0   0   0     0   0   0     0   0   0     0   0   0     0   0   0     0   0   0     0   0   0    40  45  39    40  42  37    37  39  34    34  36  31    37  39  34    39  41  36    36  38  33    35  37  32    34  36  31    34  36  31    35  37  32    34  36  31    36  38  33    41  43  38     0   0   0     0   0   0     0   0   0     0   0   0  
  40  42  37    45  47  42    43  45  40    44  46  41    56  58  53    65  67  62    59  61  56    49  51  46    45  47  42    47  49  44    47  49  47    42  44  41    38  40  37    38  40  37    40  42  39    37  39  37    34  35  33     0   0   0     0   0   0     0   0   0     0   0   0     0   0   0     0   0   0     0   0   0     0   0   0     0   0   0     0   0   0     0   0   0     0   0   0     0   0   0     0   0   0     0   0   0     0   0   0     0   0   0     0   0   0     0   0   0    34  38  32    36  38  33    34  36  31    34  36  31    38  40  35    40  42  37    36  38  33    34  36  31    35  37  32    35  37  32    36  38  33    36  38  33    36  38  33    37  39  34     0   0   0     0   0   0     0   0   0     0   0   0  
