P3
54 60
255
   0   0   0     0   0   0     0   0   0     0   0   0     0   0   0     0   0   0     0   0   0     0   0   0     0   0   0     0   0   0     0   0   0     0   0   0     0   0   0     0   0   0     0   0   0     0   0   0     0   0   0     0   0   0     0   0   0     0   0   0     0   0   0     0   0   0     0   0   0     0   0   0     0   0   0     0   0   0    54  59  52    52  57  50    58  63  56    51  56  48    39  44  37    37  42  35    40  45  38    47  52  44    52  57  50    51  56  49    48  53  46    49  54  47    44  49  42    50  55  48    65  70  63    67  72  65    59  64  57     0   0   0     0   0   0     0   0   0     0   0   0     0   0   0     0   0   0     0   0   0     0   0   0     0   0   0     0   0   0     0   0   0  
   0   0   0     0   0   0     0   0   0     0   0   0     0   0   0     0   0   0     0   0   0     0   0   0     0   0   0     0   0   0     0   0   0     0   0   0     0   0   0     0   0   0     0   0   0     0   0   0     0   0   0     0   0   0     0   0   0     0   0   0     0   0   0     0   0   0     0   0   0     0   0   0     0   0   0     0   0   0    48  53  46    44  49  42    47  52  45    46  51  44    42  47  40    38  43  36    36  41  34    35  40  33    38  43  35    45  50  42    53  58  51    57  62  55    50  55  48    49  54  47    57  62  55    56  61  54    44  49  42     0   0   0     0   0   0     0   0   0     0   0   0     0   0   0     0   0   0     0   0   0     0   0   0     0   0   0     0   0   0     0   0   0  
   0   0   0     0   0   0     0   0   0     0   0   0     0   0   0     0   0   0     0   0   0     0   0   0     0   0   0     0   0   0     0   0   0     0   0   0     0   0   0     0   0   0     0   0   0     0   0   0     0   0   0     0   0   0     0   0   0     0   0   0     0   0   0     0   0   0     0   0   0     0   0   0     0   0   0     0   0   0    51  56  49    51  56  50    46  51  44    42  47  39    40  45  37    36  41  34    34  39  32    35  40  33    40  45  38    47  52  46    56  61  54    61  66  59    51  56  49    38  43  36    35  40  32    37  42  35    37  42  35     0   0   0     0   0   0     0   0   0     0   0   0     0   0   0     0   0   0     0   0   0     0   0   0     0   0   0     0   0   0     0   0   0  
   0   0   0     0   0   0     0   0   0     0   0   0     0   0   0     0   0   0     0   0   0     0   0   0     0   0   0     0   0   0     0   0   0     0   0   0     0   0   0     0   0   0     0   0   0     0   0   0     0   0   0     0   0   0     0   0   0     0   0   0     0   0   0     0   0   0     0   0   0     0   0   0     0   0   0     0   0   0    47  52  45    50  55  48    47  52  45    44  49  42    41  46  39    36  41  34    43  48  41    54  59  52    63  68  61    66  71  64    64  69  62    52  57  49    41  46  39    33  38  31    30  35  27    34  39  32    38  43  36     0   0   0     0   0   0     0   0   0     0   0   0     0   0   0     0   0   0     0   0   0     0   0   0     0   0   0     0   0   0     0   0   0  
   0   0   0     0   0   0     0   0   0     0   0   0     0   0   0     0   0   0     0   0   0     0   0   0     0   0   0     0   0   0     0   0   0     0   0   0     0   0   0     0   0   0     0   0   0     0   0   0     0   0   0     0   0   0     0   0   0     0   0   0     0   0   0     0   0   0     0   0   0     0   0   0     0   0   0     0   0   0    61  66  59    52  57  50    41  46  40    45  50  43    42  47  41    48  53  47    54  59  53    66  71  65    69  74  68    59  64  58    48  53  47    38  43  37    27  32  26    37  42  36    33  38  32    45  50  44    70  75  69     0   0   0     0   0   0     0   0   0     0   0   0     0   0   0     0   0   0     0   0   0     0   0   0     0   0   0     0   0   0     0   0   0  
   0   0   0     0   0   0     0   0   0     0   0   0     0   0   0     0   0   0     0   0   0     0   0   0     0   0   0     0   0   0     0   0   0     0   0   0     0   0   0     0   0   0     0   0   0     0   0   0     0   0   0     0   0   0     0   0   0     0   0   0     0   0   0     0   0   0     0   0   0     0   0   0     0   0   0     0   0   0    57  62  55    50  55  48    53  58  51    61  66  59    57  62  56    65  70  64    56  61  55    47  52  45    43  48  42    38  43  37    32  37  31    31  36  30    37  42  36    41  46  40    70  75  69    93  98  92    66  71  65     0   0   0     0   0   0     0   0   0     0   0   0     0   0   0     0   0   0     0   0   0     0   0   0     0   0   0     0   0   0     0   0   0  
   0   0   0     0   0   0     0   0   0     0   0   0     0   0   0     0   0   0     0   0   0     0   0   0     0   0   0     0   0   0     0   0   0     0   0   0     0   0   0     0   0   0     0   0   0     0   0   0     0   0   0     0   0   0     0   0   0     0   0   0     0   0   0     0   0   0     0   0   0     0   0   0     0   0   0     0   0   0    58  63  56    47  52  45    62  67  60    80  85  78    64  69  62    37  42  36    30  35  29    23  28  22    30  35  29    40  45  38    40  45  39    39  44  38    60  65  59    68  73  67    81  86  80    72  77  71    40  45  39     0   0   0     0   0   0     0   0   0     0   0   0     0   0   0     0   0   0     0   0   0     0   0   0     0   0   0     0   0   0     0   0   0  
   0   0   0     0   0   0     0   0   0     0   0   0     0   0   0     0   0   0     0   0   0     0   0   0     0   0   0     0   0   0     0   0   0     0   0   0     0   0   0     0   0   0     0   0   0     0   0   0     0   0   0     0   0   0     0   0   0     0   0   0     0   0   0     0   0   0     0   0   0     0   0   0     0   0   0     0   0   0    52  57  50    40  45  38    47  52  45    59  64  57    48  53  46    34  39  33    39  44  38    42  47  41    51  56  50    57  62  56    49  54  48    57  62  56    57  62  55    57  62  56    52  57  51    36  41  35    37  42  37     0   0   0     0   0   0     0   0   0     0   0   0     0   0   0     0   0   0     0   0   0     0   0   0     0   0   0     0   0   0     0   0   0  
   0   0   0     0   0   0     0   0   0     0   0   0    62  67  61    45  50  44    36  41  35    35  40  35    34  39  33    32  37  31    32  37  31    36  41  35    41  46  40    41  46  40    39  44  39    35  40  34    36  41  35    42  47  40    59  64  57    62  67  59    58  63  56    51  56  49    41  46  39    61  66  59    57  62  55    53  58  51    55  60  53    50  55  48    41  46  39    35  40  33    33  38  31    37  42  36    43  48  42    49  54  47    56  61  55    60  65  59    53  58  52    45  50  44    41  46  40    47  52  46    37  42  36    33  38  32    52  57  51    52  57  50    32  37  30    48  53  46    52  57  50    46  51  44    46  51  44    48  53  46    43  48  41    49  54  47    55  60  53    59  64  57  
   0   0   0     0   0   0     0   0   0     0   0   0    31  36  30    32  37  31    37  42  36    39  44  38    35  40  34    31  36  30    30  35  29    32  37  31    38  43  37    43  48  42    51  56  50    50  55  49    49  54  48    54  59  52    63  68  61    61  66  59    55  60  53    46  51  44    48  53  46    74  79  72    63  68  61    51  56  49    50  55  48    51  56  49    43  48  41    40  45  38    47  52  46    52  57  51    47  52  46    41  46  40    39  44  38    41  46  40    43  48  42    41  46  41    53  58  53    50  55  49    42  47  41    52  57  51    56  61  55    52  57  51    48  53  46    48  53  46    50  55  48    51  56  49    45  50  43    59  64  57    65  70  63    81  86  79    73  78  71    64  69  62  
   0   0   0     0   0   0     0   0   0     0   0   0    25  30  25    33  38  32    39  44  38    40  45  39    40  45  39    39  44  38    35  40  34    34  39  33    41  46  40    47  52  46    54  59  53    55  60  54    56  61  55    58  63  56    54  59  52    53  58  51    47  52  45    39  44  37    47  52  45    70  75  68    53  58  51    44  49  42    38  43  36    40  45  38    42  47  40    42  47  40    46  51  44    46  51  45    46  51  45    52  57  51    56  61  55    61  66  60    76  81  75    74  79  73    60  65  59    33  38  32    52  57  52    80  85  79    59  64  58    47  52  46    70  75  69    65  70  63    68  73  66    68  73  66    54  59  52    69  74  67    66  71  65    68  73  66    63  68  61    52  57  50  
   0   0   0     0   0   0     0   0   0     0   0   0    38  43  37    37  42  36    33  38  32    33  38  32    40  45  39    40  45  39    38  43  38    51  56  50    58  63  57    54  59  53    45  50  44    38  43  37    43  48  42    42  47  40    37  42  35    50  55  48    56  61  54    44  49  42    39  44  37    40  45  38    42  47  40    50  55  47    51  56  49    55  60  53    57  62  55    43  48  41    34  39  33    43  48  42    51  56  50    68  73  66    71  76  70    68  73  67    79  84  78    63  68  62    40  45  39    40  45  39    73  78  72    77  82  76    55  60  54    67  72  66    63  68  61    70  75  68    74  79  72    68  73  66    49  54  47    54  59  52    36  41  34    39  44  37    47  52  45    47  52  45  
   0   0   0     0   0   0     0   0   0     0   0   0    26  31  25    30  35  29    34  39  33    40  45  39    49  54  48    54  59  53    53  58  52    49  54  48    44  49  43    44  49  43    39  44  38    33  38  32    34  39  33    43  48  41    41  46  39    47  52  45    51  56  49    52  57  50    54  59  52    47  52  45    45  50  43    44  49  42    61  66  59    59  64  57    53  58  51    61  66  59    56  61  54    55  60  54    68  73  68    80  85  79    93  98  92    73  78  72    51  56  50    39  44  38    35  40  34    56  61  55    71  76  70    64  69  63    59  64  58    57  62  56    46  51  44    50  55  48    52  57  50    49  54  47    45  50  43    44  49  42    42  47  40    41  46  39    36  41  33    45  50  43  
   0   0   0     0   0   0     0   0   0     0   0   0    40  45  39    40  45  39    39  44  38    40  45  39    44  49  43    46  51  45    45  50  44    40  45  39    36  41  35    39  44  37    42  47  41    41  46  40    44  49  43    48  53  46    45  50  43    42  47  40    45  50  43    53  58  51    60  65  58    62  67  60    60  65  58    59  64  57    61  66  59    66  71  64    68  73  66    66  71  64    67  72  65    63  68  62    57  62  56    57  62  57    79  84  78    70  75  69    46  51  45    39  44  38    46  51  45    62  67  61    58  63  57    47  52  46    48  53  47    47  52  46    32  37  30    33  38  31    38  43  36    43  48  41    47  52  45    41  46  39    37  42  35    44  49  42    45  50  43    56  61  54  
   0   0   0     0   0   0     0   0   0     0   0   0    36  41  35    40  45  39    44  49  43    43  48  42    39  44  38    32  37  32    29  34  28    29  34  28    29  34  28    31  36  30    32  37  31    33  38  32    40  45  39    44  49  43    49  54  47    47  52  45    56  61  54    67  72  65    62  67  60    62  67  60    64  69  62    64  69  62    52  57  50    62  67  60    71  76  69    61  66  59    67  72  65    80  85  79    78  83  77    59  64  58    49  54  48    43  48  42    40  45  39    37  42  36    47  52  46    59  64  58    45  50  44    37  42  36    41  46  40    31  36  30    34  39  32    28  33  26    27  32  25    35  40  33    47  52  45    48  53  46    43  48  41    43  48  41    39  44  37    46  51  44  
   0   0   0     0   0   0     0   0   0     0   0   0    28  33  27    30  35  29    34  39  33    35  40  34    32  37  31    31  36  30    34  39  33    44  49  43    47  52  46    44  49  43    38  43  37    38  43  37    45  50  44    51  56  49    62  67  60    58  63  56    65  70  63    75  80  73    60  65  58    58  63  56    72  77  70    69  74  67    58  63  56    64  69  62    73  78  71    65  70  63    61  66  60    75  80  74    82  87  81    57  62  57    32  37  31    27  32  26    35  40  34    35  40  34    40  45  39    52  57  51    48  53  47    44  49  43    43  48  42    27  32  26    35  40  33    33  38  31    32  37  30    34  39  32    42  47  40    46  51  44    42  47  40    39  44  37    35  40  33    43  48  41  
   0   0   0     0   0   0     0   0   0     0   0   0    33  38  32    28  33  27    26  31  25    26  31  25    30  35  29    42  47  41    50  55  49    48  53  47    48  53  47    47  52  46    50  55  49    54  59  53    51  56  50    62  67  60    72  77  70    59  64  57    59  64  57    68  73  66    60  65  58    63  68  61    62  67  59    58  63  56    59  64  57    54  59  52    58  63  56    57  62  55    42  47  40    43  48  42    47  52  46    40  45  40    38  43  37    37  42  36    31  36  30    33  38  32    37  42  36    50  55  49    51  56  50    41  46  40    40  45  39    35  40  34    29  34  27    40  45  38    43  48  41    37  42  35    35  40  33    35  40  33    36  41  34    46  51  44    51  56  49    66  71  63  
   0   0   0     0   0   0     0   0   0     0   0   0    33  38  32    34  39  33    40  45  39    44  49  43    42  47  41    46  51  45    48  53  47    39  44  38    37  42  36    42  47  41    60  65  59    68  73  68    55  60  54    54  59  52    62  67  60    57  62  55    58  63  57    64  69  62    58  63  56    59  64  57    46  51  44    45  50  43    53  58  51    44  49  42    41  46  39    41  46  39    27  32  26    30  35  29    42  47  41    47  52  46    41  46  40    36  41  35    32  37  31    31  36  30    34  39  33    46  51  45    39  44  38    24  29  23    29  34  28    40  45  39    46  51  44    53  58  50    46  51  44    35  40  33    38  43  36    48  53  46    55  60  53    62  67  60    62  67  60    69  74  67  
   0   0   0     0   0   0     0   0   0     0   0   0    28  33  27    36  41  35    51  56  50    55  60  54    47  52  46    42  47  41    44  49  43    49  54  48    57  62  56    61  66  60    69  74  68    73  78  72    61  66  60    44  49  42    44  49  42    50  55  48    56  61  54    57  62  55    54  59  52    51  56  49    53  58  51    56  61  54    61  66  59    56  61  54    47  52  45    43  48  41    39  44  37    37  42  36    52  57  51    58  63  57    42  47  41    30  35  29    34  39  33    32  37  31    35  40  34    44  49  44    38  43  37    35  40  34    46  51  45    48  53  47    59  64  57    54  59  52    42  47  40    40  45  38    56  61  54    71  76  69    71  76  69    63  68  61    57  62  56    57  62  55  
   0   0   0     0   0   0     0   0   0     0   0   0    36  41  35    35  40  34    40  45  39    42  47  41    37  42  36    42  47  41    48  53  47    55  60  54    77  82  76    74  79  73    57  62  56    52  57  51    49  54  48    42  47  40    36  41  34    40  45  38    41  46  39    41  46  39    51  56  49    54  59  52    55  60  54    61  66  59    60  65  58    62  67  60    52  55  48    41  44  37    48  52  45    37  42  36    30  35  30    43  48  42    48  53  47    42  47  41    35  40  34    36  41  35    44  49  43    52  57  51    54  59  53    71  76  70    83  88  82    63  68  62    41  46  40    40  47  39    41  48  40    53  60  52    74  79  72    75  80  73    61  66  59    51  56  49    53  58  51    59  64  57  
   0   0   0     0   0   0     0   0   0     0   0   0    40  45  41    33  38  34    40  45  41    55  60  56    56  61  57    45  50  46    43  48  43    46  51  45    42  47  41    44  49  43    40  45  38    31  36  29    43  48  41    47  52  45    39  44  37    43  48  40    49  54  47    57  60  53    63  66  59    58  61  54    46  49  42    48  49  43    54  55  49    48  49  43    36  37  31    33  34  28    33  34  28    35  39  33    36  41  35    38  43  37    39  44  38    43  48  42    46  51  45    56  61  55    77  82  76    87  92  86    73  78  72    63  68  62    51  56  50    34  39  33    35  42  35    40  46  42    54  60  56    67  73  69    71  77  73    78  83  79    59  65  61    43  49  45    50  55  51    59  64  60  
   0   0   0     0   0   0     0   0   0     0   0   0    34  39  35    42  47  43    54  59  55    53  58  54    38  43  39    32  37  33    32  37  33    28  33  27    31  36  30    34  39  33    39  44  37    41  46  38    45  50  43    58  63  56    63  68  61    64  69  62    58  62  55    60  63  56    65  68  60    51  54  47    43  44  38    38  39  33    42  43  37    42  43  37    41  42  36    42  41  36    42  44  38    51  54  49    53  58  52    54  59  53    55  60  54    59  64  58    63  68  62    74  79  73    80  85  79    66  71  65    42  47  41    34  39  33    37  42  36    35  42  35    37  46  41    54  63  58    58  67  62    54  63  58    62  71  66    78  84  81    62  69  65    54  60  56    58  64  60    62  67  63  
   0   0   0     0   0   0     0   0   0     0   0   0    39  44  40    29  34  30    27  32  28    31  36  32    29  34  30    25  30  26    27  32  27    42  47  41    50  55  49    51  56  50    61  66  59    68  73  66    65  70  63    63  68  61    71  76  69    71  76  69    55  59  52    54  57  50    54  57  50    35  38  31    46  47  41    36  37  31    38  39  33    43  44  38    48  49  43    52  53  47    54  56  50    62  66  60    55  60  54    50  55  49    57  62  56    65  70  63    66  71  65    58  63  58    53  58  52    44  49  43    37  42  36    44  49  43    55  60  54    60  65  59    60  66  62    69  78  73    66  75  70    57  64  59    51  57  53    59  65  61    52  58  54    60  66  62    55  60  56    55  60  56  
   0   0   0     0   0   0     0   0   0     0   0   0    33  38  34    29  34  30    33  38  34    43  48  44    50  55  51    54  59  55    54  59  54    53  58  52    58  63  57    58  63  57    62  67  60    61  66  59    59  64  57    63  68  61    71  76  69    70  75  68    60  64  57    59  62  55    55  58  51    39  42  35    45  47  40    43  44  38    46  47  41    46  46  41    48  49  43    53  54  48    53  57  50    54  59  53    50  55  49    53  58  52    68  73  67    74  79  73    66  71  65    50  55  49    41  46  40    37  42  36    41  46  40    49  54  48    50  55  48    43  50  43    39  47  42    34  43  38    43  52  47    54  61  57    39  45  41    38  44  40     0   0   0     0   0   0     0   0   0     0   0   0  
   0   0   0     0   0   0     0   0   0     0   0   0    80  85  81    65  70  66    67  72  68    85  90  86    89  94  90    61  66  62    40  45  41    44  49  43    45  50  44    49  54  48    45  50  43    35  40  34    41  46  39    57  62  55    58  63  56    55  60  53    57  62  56    56  61  54    49  52  45    44  47  40    43  45  39    52  55  48    60  61  55    50  51  45    45  46  40    52  53  47    59  61  55    71  75  69    73  78  72    71  76  70    69  74  67    61  66  60    45  50  44    42  47  41    36  41  35    27  32  26    30  35  29    38  43  37    37  42  36    30  35  30    47  54  49    42  50  45    49  55  51    58  64  60    41  47  43    39  45  41     0   0   0     0   0   0     0   0   0     0   0   0  
   0   0   0     0   0   0     0   0   0     0   0   0    77  82  78    79  84  80    76  81  77    63  68  64    45  50  46    31  36  32    28  33  28    34  39  33    35  40  34    42  47  41    40  45  38    31  36  29    42  47  40    54  59  52    51  56  49    47  52  45    53  58  51    51  56  49    43  47  40    46  49  42    53  56  49    65  68  61    72  73  67    59  60  54    52  53  47    60  61  55    65  68  62    72  77  71    71  76  70    54  59  53    36  41  34    33  38  32    35  40  34    32  37  31    35  40  34    41  46  40    48  53  47    58  63  57    61  66  60    56  61  55    76  83  79    88  96  92    76  82  78    61  67  63    52  58  54    58  64  59     0   0   0     0   0   0     0   0   0     0   0   0  
   0   0   0     0   0   0     0   0   0     0   0   0    39  44  39    34  39  35    29  34  30    26  31  27    29  34  29    31  36  32    31  36  31    31  36  30    35  40  34    40  45  39    44  49  43    42  47  41    49  54  47    59  66  58    67  74  66    64  72  64    61  67  60    59  64  57    56  61  53    63  68  61    66  69  62    67  70  63    64  67  60    53  54  48    52  53  47    58  59  53    52  53  47    40  43  38    39  44  38    32  37  30    34  39  33    48  53  47    54  59  53    41  46  40    58  63  57    80  85  79    77  82  76    73  78  72    71  76  70    65  70  64    60  66  62    79  85  81    66  72  68    54  60  56    55  61  57    66  71  67     0   0   0     0   0   0     0   0   0     0   0   0  
   0   0   0     0   0   0     0   0   0     0   0   0    30  35  31    34  39  35    34  39  35    31  36  31    33  38  34    38  43  39    42  47  42    47  52  46    54  59  53    54  59  53    61  66  60    66  71  64    63  68  61    58  65  57    73  80  72    73  80  72    59  65  57    57  62  55    61  66  59    69  74  67    68  71  64    54  57  50    41  44  37    33  34  28    37  38  32    41  42  36    35  39  32    38  43  37    44  49  43    56  61  55    75  80  73    74  79  73    46  51  45    34  39  33    65  70  64    88  93  87    73  78  72    60  65  59    61  66  60    64  69  63    58  64  60    63  69  65    55  61  57    58  64  60    51  57  53    52  57  53     0   0   0     0   0   0     0   0   0     0   0   0  
   0   0   0     0   0   0     0   0   0     0   0   0    44  49  46    42  47  43    43  48  44    50  55  51    60  65  61    72  77  73    74  79  75    65  70  64    68  73  67    66  71  65    68  73  66    69  74  67    62  67  60    56  62  54    51  58  50    49  56  48    47  54  46    40  47  39    37  42  35    41  46  39    36  41  34    37  42  35    37  40  33    36  39  32    52  55  48    66  69  62    63  67  60    70  75  69    79  84  78    78  83  77    80  85  80    80  85  79    49  54  48    48  53  47    76  81  75    74  79  73    64  69  63    65  70  64    63  68  62    76  81  74    72  78  74    55  62  58    52  58  54    59  64  60    66  71  67    66  71  67     0   0   0     0   0   0     0   0   0     0   0   0  
   0   0   0     0   0   0     0   0   0     0   0   0    50  55  51    52  57  53    59  64  60    63  68  64    63  68  64    62  67  63    66  71  67    73  78  72    69  74  68    61  66  60    52  57  50    46  51  44    41  46  39    33  40  32    34  41  33    32  39  32    28  35  27    26  33  25    27  32  25    26  31  24    31  36  29    43  47  40    54  57  50    59  62  55    73  76  68    79  82  75    72  76  69    66  71  65    65  70  64    71  76  70    72  77  71    64  69  63    49  54  48    60  65  59    74  79  73    69  74  68    71  76  70    67  72  66    50  55  49    58  63  57    73  79  75    57  63  58    53  59  55    57  63  59    62  67  64    61  66  62     0   0   0     0   0   0     0   0   0     0   0   0  
  42  48  44    44  50  46    48  54  50    54  60  56    58  63  59    55  60  56    56  61  57    58  63  59    60  65  61    63  68  64    64  69  65    56  61  55    50  55  49    48  53  47    43  48  41    40  45  37    44  49  42    46  52  45    49  59  50    51  58  50    46  53  45    50  57  49    51  58  50    45  52  44    44  49  42    54  59  52    61  66  59    60  64  57    64  67  59    63  66  59    59  63  56    68  73  67    67  72  66    67  72  66    59  64  58    57  62  56    60  65  59    69  74  68    67  72  65    64  69  62    81  86  80    77  82  76    52  57  51    59  64  58    53  58  54    46  51  47    52  57  53    62  67  63    67  72  68    65  67  64     0   0   0     0   0   0     0   0   0     0   0   0  
  54  60  56    71  77  73    65  71  68    56  63  58    62  67  63    55  60  56    49  54  50    47  52  48    48  53  49    53  58  54    52  57  53    36  41  35    31  36  30    41  46  40    47  52  45    47  52  45    56  62  55    59  68  59    56  66  57    56  63  55    59  66  58    65  72  64    65  72  64    58  65  58    57  62  55    61  66  59    62  67  60    58  62  55    63  66  59    70  73  66    68  72  65    74  79  73    79  84  78    63  68  62    50  55  49    65  70  64    73  78  72    70  75  68    63  68  63    62  67  61    78  83  77    74  79  73    55  60  54    64  69  63    50  55  51    51  56  52    64  69  65    73  78  74    72  77  73    65  67  64     0   0   0     0   0   0     0   0   0     0   0   0  
  78  84  80    96 102  98    79  85  81    57  64  59    60  65  62    56  61  57    52  57  53    46  51  47    38  43  39    33  38  34    36  41  37    39  44  38    33  38  32    45  50  43    54  59  52    51  56  50    57  62  55    57  63  56    45  55  46    41  51  42    52  61  53    61  68  60    61  67  60    60  67  59    66  73  65    63  70  62    59  64  57    51  56  49    57  62  55    68  73  66    67  72  65    67  72  66    63  68  62    53  58  52    54  59  53    72  77  71    73  78  72    65  70  64    67  72  67    67  72  66    64  69  63    58  63  57    51  56  51    61  66  60    70  75  72    68  73  69    75  80  76    75  78  74    65  67  64    53  55  52     0   0   0     0   0   0     0   0   0     0   0   0  
  63  69  65    62  68  64    49  55  51    40  46  42    52  57  54    48  53  49    44  49  45    41  46  42    40  45  41    41  46  42    45  50  46    44  49  43    40  45  40    52  57  51    60  65  58    58  63  56    62  68  60    58  67  59    50  60  50    45  55  46    51  60  52    59  66  58    63  70  62    67  74  67    67  74  66    62  69  61    59  64  57    52  57  50    54  59  52    59  64  57    58  63  56    51  56  50    38  43  37    49  54  48    65  70  64    69  74  68    63  68  62    58  63  57    68  73  67    68  73  67    59  64  58    58  63  57    63  68  62    71  76  70    63  68  64    57  62  58    56  61  57    51  54  51    45  46  43    42  44  41     0   0   0     0   0   0     0   0   0     0   0   0  
  33  39  35    29  35  31    32  38  34    38  44  40    44  49  45    39  44  40    38  43  39    40  45  41    45  50  46    53  58  55    55  60  55    45  50  44    47  52  46    56  61  55    60  65  58    63  68  61    72  77  70    64  70  63    67  77  68    63  73  64    45  55  47    45  55  46    59  67  59    64  71  63    62  69  60    58  65  57    62  67  60    65  70  63    71  76  69    74  79  72    65  70  63    48  53  47    50  55  49    67  72  66    72  77  71    65  70  64    59  64  58    60  65  59    64  69  64    64  69  62    60  65  59    62  67  61    64  69  63    64  69  63    39  44  39    35  40  36    37  42  38    35  38  34    33  35  32    36  38  35     0   0   0     0   0   0     0   0   0     0   0   0  
  57  63  59    55  61  57    55  61  57    54  60  56    41  46  42    43  48  42    49  54  48    51  56  50    45  50  45    41  46  40    42  47  41    52  57  51    57  62  56    59  64  58    55  60  53    58  63  56    70  75  68    68  75  67    88  98  89    84  94  85    44  54  45    39  48  39    58  65  57    58  65  57    67  74  66    60  66  59    58  63  56    58  63  56    61  66  59    60  65  58    51  56  49    56  61  55    86  91  85    91  96  90    71  76  70    65  70  64    62  67  61    71  76  70    68  73  67    59  64  58    56  61  55    51  56  50    39  44  38    28  33  27    37  42  38    37  42  38    42  47  43    39  42  39    33  35  31    31  33  30     0   0   0     0   0   0     0   0   0     0   0   0  
  66  71  65    50  55  49    47  52  46    44  49  43    43  48  42    48  53  47    62  67  61    48  53  47    29  34  28    39  44  38    58  63  56    66  71  64    65  70  63    74  79  72    61  66  59    58  63  56    64  69  62    62  67  61    76  81  75    63  68  62    56  61  55    71  76  70    63  68  62    60  65  59    64  69  63    61  66  60    58  63  57    57  62  56    57  62  56    53  58  52    53  58  52    77  82  76    84  89  83    69  74  68    70  75  69    70  75  69    66  71  65    74  79  72    66  71  65    52  57  51    46  51  45    39  44  38    37  42  36    45  50  44    69  71  68    59  61  58    47  49  46    38  40  37    34  36  33    34  36  33     0   0   0     0   0   0     0   0   0     0   0   0  
  46  51  45    35  40  34    40  45  39    41  46  40    49  54  47    53  58  51    49  54  47    39  44  37    50  55  48    64  69  62    62  67  60    64  69  62    71  76  69    80  85  78    62  67  60    56  61  54    64  69  62    56  61  55    61  66  60    59  64  58    63  68  62    69  74  68    60  65  58    61  66  60    44  49  43    55  60  54    57  62  56    49  54  48    48  53  47    60  65  59    69  74  68    79  84  78    89  94  88    78  83  77    77  82  76    70  75  69    60  65  59    55  60  54    49  54  48    44  49  43    40  45  40    40  45  39    42  47  41    47  52  45    51  53  50    45  47  44    39  41  38    34  36  33    32  34  31    32  34  31     0   0   0     0   0   0     0   0   0     0   0   0  
  39  44  38    38  43  37    58  63  57    70  75  69    62  67  59    54  59  52    39  44  37    37  42  35    65  70  63    80  85  78    67  72  66    59  64  57    66  71  64    75  80  73    64  69  62    60  65  58    62  67  60    56  61  55    52  57  51    61  66  60    72  77  71    69  74  68    65  70  64    72  77  71    59  64  58    53  58  52    48  53  47    53  58  52    64  69  63    68  73  67    64  69  62    65  70  64    72  77  71    63  68  62    62  67  60    54  59  53    44  49  43    40  45  39    40  45  39    39  44  39    37  42  36    40  45  39    42  47  41    42  47  41    37  39  36    34  36  33    33  35  32    32  34  31    32  34  31    31  33  30     0   0   0     0   0   0     0   0   0     0   0   0  
  52  57  51    74  79  73    89  94  88    81  86  80    64  69  62    50  55  47    41  46  39    47  52  45    64  69  62    73  78  71    69  74  67    58  63  56    54  59  52    62  67  60    66  71  64    67  72  65    59  64  57    58  63  57    52  57  51    62  67  61    71  76  70    68  73  67    72  77  71    74  79  73    74  79  73    57  62  56    45  50  44    52  57  51    62  67  61    57  62  56    44  49  43    44  49  43    46  51  45    38  43  37    38  43  37    38  43  37    35  40  34    40  45  39    47  52  45    43  48  42    36  41  35    37  42  36    37  42  36    32  37  31    36  38  35    34  36  33    33  35  32    34  35  33    35  37  34    34  36  33     0   0   0     0   0   0     0   0   0     0   0   0  
  70  75  68    74  79  73    79  84  78    70  75  69    42  47  40    46  51  45    50  55  48    57  62  55    65  70  63    67  72  65    67  72  65    67  72  65    57  62  55    56  61  54    61  66  59    65  70  63    59  64  57    57  62  56    54  59  53    65  70  63    68  73  67    66  71  65    70  75  69    58  63  57    49  54  48    50  55  49    44  49  43    36  41  35    34  39  33    38  43  37    40  45  39    38  43  37    37  42  36    32  37  31    35  40  34    37  42  35    36  41  35    43  48  42    48  53  47    43  48  42    33  38  32    32  37  31    33  38  32    28  33  27    37  39  36    35  37  34    34  36  33    35  37  34    39  41  38    40  42  39     0   0   0     0   0   0     0   0   0     0   0   0  
  64  69  63    63  68  62    61  66  60    45  50  44    24  29  22    50  55  48    56  61  54    59  64  58    73  78  71    71  76  69    68  73  65    76  81  74    71  76  69    59  64  57    52  57  50    57  62  55    61  66  59    63  68  61    63  68  62    72  77  71    73  78  72    70  75  69    66  71  65    49  54  48    33  38  32    34  39  33    33  38  32    32  37  31    36  41  35    41  46  40    42  47  41    39  44  38    38  43  37    39  44  38    40  45  39    39  44  38    35  40  34    37  42  36    39  44  38    34  39  33    29  34  28    30  35  29    32  37  31    32  37  31    33  35  32    32  34  31    33  35  32    36  38  35    39  42  39    42  44  41     0   0   0     0   0   0     0   0   0     0   0   0  
  49  54  48    66  71  65    60  65  59    23  28  22    41  46  40    58  63  56    59  64  57    63  68  61    74  79  72    71  76  69    69  74  67    78  83  76    74  79  72    56  61  55    47  52  45    53  58  51    61  66  59    67  72  66    67  72  66    70  75  69    70  75  69    61  66  60    52  57  51    49  54  48    40  45  39    34  39  33    32  37  31    38  43  37    49  54  48    50  55  49    46  51  45    42  47  41    36  41  36    39  44  38    39  44  38    39  44  38    38  43  37    36  41  35    33  38  32    31  36  30    31  36  30    31  36  30    30  35  30    34  39  33    30  35  29    31  36  30    33  38  32    35  40  34    37  42  36    36  41  35     0   0   0     0   0   0     0   0   0     0   0   0  
  55  60  54    33  38  32    39  44  38    45  50  44    76  81  74    65  70  62    60  65  58    70  75  68    67  72  65    63  68  61    73  78  70    73  78  71    65  70  64    48  53  46    48  53  46    56  61  54    59  64  57    65  70  64    60  65  59    53  58  52    52  57  51    39  44  38    31  36  30    48  53  47    41  46  40    50  55  49    48  53  47    34  39  34    31  36  30    46  51  45    56  61  55    48  53  47    37  42  36    36  41  35    37  42  36    43  48  42    48  53  47    42  47  41    35  40  34    33  38  32    36  41  35    32  37  31    27  32  26    31  36  30    33  38  32    35  40  33    37  42  36    39  44  38    36  41  35    29  34  29     0   0   0     0   0   0     0   0   0     0   0   0  
  67  72  66    35  40  34    28  33  27    43  48  43    52  57  50    43  48  41    63  68  61    73  78  71    67  72  65    72  77  70    83  88  81    81  86  79    59  64  57    44  49  42    44  49  42    60  65  58    59  64  57    32  37  31    28  33  27    46  51  45    53  58  52    48  53  47    45  50  45    46  51  45    44  49  43    46  51  45    49  54  48    43  48  42    35  40  35    44  49  43    54  59  52    44  49  43    36  41  35    35  40  34    46  51  44    42  47  41    44  49  43    43  48  42    35  40  34    28  33  27    35  40  34    37  42  36    30  35  29    32  37  32    28  33  27    39  44  38    54  59  53    61  66  60    55  60  54    44  49  43     0   0   0     0   0   0     0   0   0     0   0   0  
   0   0   0     0   0   0     0   0   0     0   0   0    50  55  48    37  42  35    47  52  45    52  57  50    45  50  43    52  57  50    58  63  56    54  59  52    54  59  52    50  55  48    41  46  39    53  58  50    60  65  58    49  54  48    46  51  45    52  57  51    52  57  51    46  51  45    45  50  45    44  49  43    40  45  39    39  44  38    38  43  37    36  41  35    36  41  35    47  52  46    50  55  49    34  39  33    30  35  29    34  39  33    44  49  43    38  43  37    35  40  34    39  44  38    33  38  33    29  34  28    33  38  32    34  39  33    31  36  30    35  40  34    40  45  39    44  49  43    48  53  47    47  52  46    43  48  42    42  47  41     0   0   0     0   0   0     0   0   0     0   0   0  
   0   0   0     0   0   0     0   0   0     0   0   0    56  61  54    42  47  40    44  49  42    40  45  38    29  34  27    29  34  27    34  39  32    38  43  36    51  56  49    52  57  50    39  44  37    45  50  44    54  59  52    57  62  56    57  62  56    56  61  54    51  56  50    50  55  49    54  59  53    51  56  50    41  46  40    47  52  46    49  54  48    47  52  46    46  51  45    41  46  40    35  40  34    31  36  30    28  33  27    32  37  31    44  49  42    38  43  37    35  40  34    40  45  39    35  40  34    30  35  29    31  36  30    31  36  30    30  35  30    35  40  34    42  47  40    50  55  49    54  59  53    50  55  49    42  47  40    38  43  37     0   0   0     0   0   0     0   0   0     0   0   0  
   0   0   0     0   0   0     0   0   0     0   0   0    32  37  29    31  36  29    42  47  40    52  57  50    53  58  51    55  60  53    55  60  53    47  52  45    50  55  48    49  54  47    39  44  37    43  48  41    44  49  42    44  49  43    43  48  42    44  49  43    45  50  43    50  55  49    56  61  55    51  56  50    45  50  45    53  58  52    56  61  55    57  62  56    58  63  57    47  52  46    36  41  35    37  42  36    32  37  31    32  37  31    45  50  44    45  50  44    47  52  46    47  52  46    36  41  35    29  34  28    31  36  30    33  38  32    35  40  34    36  41  35    43  48  42    54  59  53    59  64  58    52  57  51    44  49  43    41  46  40     0   0   0     0   0   0     0   0   0     0   0   0  
   0   0   0     0   0   0     0   0   0     0   0   0    61  66  59    58  63  56    56  61  54    55  60  53    49  54  47    41  46  39    45  50  43    56  61  54    49  54  47    43  48  41    33  38  31    40  45  38    45  50  43    33  38  32    26  31  25    32  37  31    40  45  39    46  51  45    46  51  46    39  44  38    43  48  42    42  47  41    39  44  38    42  47  41    54  59  53    56  61  55    48  53  47    41  46  40    36  41  35    36  41  35    49  54  48    53  58  52    56  61  55    50  55  49    33  38  32    27  32  26    33  38  32    41  46  40    46  51  45    40  45  40    53  60  51    58  65  57    53  60  52    41  48  40    38  45  37    45  51  43    46  53  45    40  47  39    48  55  47    52  59  51  
   0   0   0     0   0   0     0   0   0     0   0   0    66  71  64    61  66  59    49  54  47    43  48  41    41  46  39    36  41  34    40  45  38    51  56  49    49  54  47    43  48  40    29  34  27    38  43  36    54  59  52    45  50  44    34  39  33    39  44  38    51  56  51    50  55  49    40  45  39    33  38  31    36  41  35    33  38  32    30  35  29    29  34  28    34  39  33    37  42  36    36  41  35    40  45  39    38  43  37    38  43  37    51  56  50    52  57  51    51  56  50    44  49  43    29  34  28    29  34  28    37  42  36    47  52  46    54  59  53    46  51  45    48  55  47    57  64  56    55  62  54    43  50  42    37  44  36    38  45  37    39  46  38    41  48  40    45  52  44    48  55  47  
   0   0   0     0   0   0     0   0   0     0   0   0    41  46  39    43  48  40    33  38  31    34  39  33    41  46  39    40  45  38    41  46  39    46  51  44    51  56  49    51  56  49    37  42  35    42  47  40    57  62  55    56  61  55    42  47  41    46  51  45    59  64  58    51  56  50    38  43  37    36  41  35    33  38  32    32  37  31    34  39  33    32  37  31    26  31  25    25  30  24    31  36  30    42  47  41    37  42  36    34  39  33    44  49  43    45  50  44    44  49  43    41  46  40    32  37  31    37  42  36    42  47  40    45  50  44    51  56  50    44  49  43    37  44  36    53  60  52    59  66  58    51  58  50    43  50  43    36  43  35    33  41  33    43  50  42    49  56  48    54  61  53  
   0   0   0     0   0   0     0   0   0     0   0   0    29  34  27    36  41  34    31  36  29    34  39  32    41  46  39    34  39  32    37  42  35    50  55  48    54  59  52    59  64  58    50  55  48    49  54  47    52  57  50    52  57  51    36  41  35    38  43  36    52  57  51    43  48  42    31  36  30    35  40  34    34  39  32    30  35  29    31  36  30    32  37  31    33  38  32    45  50  44    55  60  54    48  53  47    37  42  36    27  32  25    34  39  33    39  44  38    42  47  41    42  47  41    38  43  37    46  51  45    45  50  44    39  44  38    44  49  43    38  43  37    41  48  40    52  59  51    54  61  53    48  55  47    47  54  46    47  54  46    42  49  41    43  50  42    56  63  55    63  69  62  
   0   0   0     0   0   0     0   0   0     0   0   0    36  41  34    41  46  39    36  41  34    30  35  28    50  55  48    52  57  50    35  40  33    48  53  46    48  53  46    45  50  43    55  60  53    60  65  58    54  59  52    45  52  45    44  51  44    39  47  39    37  44  37    36  41  35    30  35  29    30  35  29    31  33  28    37  39  34    40  42  37    37  40  35    45  47  42    70  72  67    75  77  72    43  48  41    38  43  36    28  33  26    39  44  37    39  44  37    34  39  32    35  40  33    50  55  48    60  65  58    42  47  40    38  43  36    50  55  48    45  50  43    45  50  43    50  55  48    53  58  51    47  52  45    47  52  45    48  53  46    43  48  41    45  50  43    53  58  51    41  46  39  
   0   0   0     0   0   0     0   0   0     0   0   0    31  36  29    36  41  35    35  40  33    35  40  33    56  61  54    60  65  58    45  50  44    56  61  54    55  60  53    52  57  50    60  65  58    61  66  59    53  58  51    46  53  46    42  49  42    33  40  33    33  39  32    37  42  36    34  39  33    33  38  32    36  38  33    38  40  35    43  45  40    47  49  44    47  49  44    46  48  43    44  47  41    34  39  32    28  33  26    33  38  31    41  46  39    37  42  35    36  41  34    46  51  44    48  53  46    48  53  46    40  45  38    38  43  36    43  48  41    39  44  37    34  39  32    41  46  39    43  48  41    38  43  36    46  51  44    51  56  49    44  49  42    39  44  37    37  42  35    35  40  33  
   0   0   0     0   0   0     0   0   0     0   0   0    38  43  36    36  41  34    31  36  29    34  39  32    58  63  57    72  77  70    62  67  60    57  62  55    57  62  56    55  60  53    59  64  57    54  59  53    47  52  45    40  46  39    37  44  37    33  40  33    40  47  40    49  54  48    43  48  42    35  40  34    44  46  41    38  40  35    37  39  34    40  42  37    38  40  35    32  34  29    30  33  28    29  34  27    23  28  20    38  43  36    45  50  43    38  43  36    41  46  39    52  57  50    48  53  46    50  55  48    55  60  53    51  56  49    45  50  43    40  45  38    24  29  22    36  41  34    44  49  42    44  49  42    52  57  50    52  57  50    43  48  41    41  46  39    35  40  33    41  46  39  
   0   0   0     0   0   0     0   0   0     0   0   0    39  44  38    36  41  34    36  41  34    43  48  41    59  64  57    69  74  67    60  65  58    49  54  47    54  59  52    53  58  51    50  55  48    41  46  39    39  44  37    40  46  39    44  50  44    49  56  49    61  68  61    68  73  67    58  63  57    48  53  47    42  44  39    37  39  34    34  36  31    32  34  29    31  33  28    32  34  29    35  38  32    36  41  34    31  36  29    37  42  35    49  54  47    44  49  42    47  52  45    47  52  45    40  45  38    40  45  38    44  49  42    43  48  41    43  48  41    46  51  44    41  46  39    41  46  39    48  53  46    52  57  50    54  59  53    58  63  56    59  64  57    62  67  60    63  68  61    62  67  60  
   0   0   0     0   0   0     0   0   0     0   0   0    34  39  32    35  40  33    45  50  43    55  60  53    54  59  52    47  52  45    44  49  42    44  49  42    53  58  51    55  60  53    47  52  45    37  42  35    41  46  39    54  60  53    59  66  59    57  64  57    60  66  59    64  69  63    61  66  60    61  66  60    40  42  37    38  40  35    38  40  35    38  40  35    35  37  32    32  34  29    32  35  29    45  50  43    46  51  44    30  35  28    47  52  45    50  55  48    52  57  50    57  62  55    52  57  50    40  45  38    37  42  35    47  52  45    57  62  55    60  65  58    66  71  64    48  53  46    50  55  48    55  60  53    52  57  50    66  71  65    79  84  78    79  84  77    89  94  87    73  78  71  
   0   0   0     0   0   0     0   0   0     0   0   0    42  47  40    34  39  32    37  42  35    45  50  43    38  43  36    33  38  31    42  47  40    49  54  47    55  60  53    59  64  57    53  58  51    42  47  41    51  56  49    64  71  64    60  68  60    44  51  44    33  40  33    38  43  37    45  50  44    57  62  56    58  60  55    44  46  41    35  37  32    36  38  33    37  39  34    32  34  29    29  32  26    46  51  44    56  61  53    30  35  27    41  46  39    56  61  54    58  63  56    65  70  63    67  72  65    59  64  57    60  65  59    72  77  70    68  73  67    57  62  55    62  67  60    50  55  48    63  68  61    69  74  67    57  62  55    64  69  61    73  78  71    68  73  66    77  82  75    56  61  54  
   0   0   0     0   0   0     0   0   0     0   0   0     0   0   0     0   0   0     0   0   0     0   0   0     0   0   0     0   0   0     0   0   0     0   0   0     0   0   0     0   0   0     0   0   0     0   0   0     0   0   0     0   0   0    55  63  55    39  46  39    32  39  32    38  43  37    42  47  41    48  53  47    62  64  59    48  50  45    37  39  34    33  35  30    33  35  30    34  36  31    33  36  31    42  47  40    59  64  58    44  49  42    37  42  35    63  68  61    69  74  67     0   0   0     0   0   0     0   0   0     0   0   0     0   0   0     0   0   0     0   0   0     0   0   0     0   0   0     0   0   0     0   0   0     0   0   0     0   0   0     0   0   0     0   0   0     0   0   0     0   0   0  
   0   0   0     0   0   0     0   0   0     0   0   0     0   0   0     0   0   0     0   0   0     0   0   0     0   0   0     0   0   0     0   0   0     0   0   0     0   0   0     0   0   0     0   0   0     0   0   0     0   0   0     0   0   0    57  64  57    55  62  55    62  68  62    68  73  67    59  64  58    50  55  48    40  41  36    47  49  44    52  54  49    45  47  42    33  35  30    31  33  28    35  37  32    39  44  37    60  65  58    61  66  59    37  42  36    70  75  68    80  85  78     0   0   0     0   0   0     0   0   0     0   0   0     0   0   0     0   0   0     0   0   0     0   0   0     0   0   0     0   0   0     0   0   0     0   0   0     0   0   0     0   0   0     0   0   0     0   0   0     0   0   0  
