P3
67 50
255
 155 125  91   155 125  91     0   0   0     0   0   0     0   0   0     0   0   0     0   0   0     0   0   0     0   0   0     0   0   0     0   0   0     0   0   0     0   0   0     0   0   0     0   0   0     0   0   0     0   0   0     0   0   0     0   0   0     0   0   0     0   0   0     0   0   0     0   0   0     0   0   0     0   0   0     0   0   0     0   0   0     0   0   0     0   0   0     0   0   0     0   0   0     0   0   0     0   0   0     0   0   0     0   0   0     0   0   0     0   0   0     0   0   0     0   0   0     0   0   0     0   0   0     0   0   0     0   0   0     0   0   0     0   0   0     0   0   0     0   0   0     0   0   0   148 123  92   146 123  92     0   0   0     0   0   0     0   0   0     0   0   0     0   0   0     0   0   0     0   0   0     0   0   0     0   0   0     0   0   0     0   0   0     0   0   0     0   0   0     0   0   0     0   0   0     0   0   0     0   0   0  
 153 123  89   153 123  89   152 122  88     0   0   0     0   0   0     0   0   0     0   0   0     0   0   0     0   0   0     0   0   0     0   0   0     0   0   0     0   0   0     0   0   0     0   0   0     0   0   0     0   0   0     0   0   0     0   0   0     0   0   0     0   0   0     0   0   0     0   0   0     0   0   0     0   0   0     0   0   0     0   0   0     0   0   0     0   0   0     0   0   0     0   0   0     0   0   0     0   0   0     0   0   0     0   0   0     0   0   0     0   0   0     0   0   0     0   0   0     0   0   0     0   0   0     0   0   0     0   0   0     0   0   0     0   0   0     0   0   0   149 124  90   148 123  90   147 122  91   147 121  91     0   0   0     0   0   0     0   0   0     0   0   0     0   0   0     0   0   0     0   0   0     0   0   0     0   0   0     0   0   0     0   0   0     0   0   0     0   0   0     0   0   0     0   0   0     0   0   0     0   0   0  
   0   0   0   152 122  88   151 121  87     0   0   0     0   0   0     0   0   0     0   0   0     0   0   0     0   0   0     0   0   0     0   0   0     0   0   0     0   0   0     0   0   0     0   0   0     0   0   0     0   0   0     0   0   0     0   0   0     0   0   0     0   0   0     0   0   0     0   0   0     0   0   0     0   0   0     0   0   0     0   0   0     0   0   0     0   0   0     0   0   0     0   0   0     0   0   0     0   0   0     0   0   0     0   0   0     0   0   0     0   0   0     0   0   0     0   0   0     0   0   0     0   0   0     0   0   0   148 121  91   147 120  90   146 121  90   146 120  90   145 119  86   146 120  87   147 120  90   147 120  90   146 119  89     0   0   0     0   0   0     0   0   0     0   0   0     0   0   0     0   0   0     0   0   0     0   0   0     0   0   0     0   0   0     0   0   0     0   0   0     0   0   0     0   0   0     0   0   0     0   0   0  
   0   0   0     0   0   0   150 120  86   150 120  86   149 119  85     0   0   0     0   0   0     0   0   0     0   0   0     0   0   0     0   0   0     0   0   0     0   0   0     0   0   0     0   0   0     0   0   0     0   0   0     0   0   0     0   0   0     0   0   0     0   0   0     0   0   0     0   0   0     0   0   0   147 117  83   147 117  83   147 117  83   147 117  83   148 118  84   148 117  86   148 118  87     0   0   0     0   0   0     0   0   0     0   0   0     0   0   0     0   0   0     0   0   0   148 121  91   148 121  91   147 120  90   147 120  90   146 119  89   146 119  89   145 118  88   145 118  88   143 117  86   145 117  86   145 116  86   145 116  86   144 116  86   144 116  86     0   0   0     0   0   0     0   0   0     0   0   0     0   0   0     0   0   0     0   0   0     0   0   0     0   0   0     0   0   0     0   0   0     0   0   0     0   0   0     0   0   0     0   0   0  
   0   0   0     0   0   0     0   0   0   148 118  84   148 118  84   148 118  84   150 120  86   150 120  86   149 119  85     0   0   0     0   0   0     0   0   0     0   0   0     0   0   0     0   0   0     0   0   0     0   0   0     0   0   0     0   0   0     0   0   0   149 119  85   149 119  85   147 117  83   147 117  83   147 117  83   147 117  83   147 117  83   147 117  83   147 117  83   147 116  85   147 118  88   147 118  88   148 119  89   148 119  89   148 119  89   148 119  89   147 118  88   147 118  88   146 119  89   146 119  89   145 118  88   144 117  87   144 117  87   143 116  86   142 115  85   142 115  85   143 114  84   143 114  84   143 114  84   143 114  84   143 114  84   143 114  84     0   0   0     0   0   0     0   0   0     0   0   0     0   0   0     0   0   0     0   0   0     0   0   0     0   0   0     0   0   0     0   0   0     0   0   0     0   0   0     0   0   0     0   0   0  
   0   0   0     0   0   0     0   0   0   148 118  84   148 118  84   148 118  84   149 119  85   149 119  85   148 118  84   148 118  84   148 118  84   148 118  84   149 119  85     0   0   0     0   0   0     0   0   0   148 117  86   148 117  86   148 117  86   147 116  85   147 116  85   146 115  84   146 115  84   146 115  84   146 115  84   146 115  84   146 115  84   146 115  84   146 115  84   146 115  84   145 117  87   144 117  88   144 117  88   145 118  89   145 118  89   144 117  88   144 117  88   144 117  88   144 117  88   143 116  87   142 115  86   142 115  86   140 113  84   139 113  84   139 112  83   138 111  82   140 110  82   140 110  82   140 110  82   140 110  82   140 110  82   140 110  82     0   0   0     0   0   0     0   0   0     0   0   0     0   0   0     0   0   0     0   0   0     0   0   0     0   0   0     0   0   0     0   0   0     0   0   0     0   0   0     0   0   0     0   0   0  
   0   0   0     0   0   0     0   0   0     0   0   0   147 117  83   147 117  83   149 119  85   148 118  84   148 118  84   147 117  83   147 117  83   147 117  83   148 118  84   148 118  84   145 114  83   145 115  84   147 115  85   147 115  85   147 115  85   145 115  84   145 114  83   144 113  82   145 114  83   145 114  83   145 114  83   145 114  83   145 114  83   145 114  83   145 114  83   144 115  85   141 114  84   141 115  85   142 115  86   142 116  87   142 116  87   142 115  86   142 115  85   141 114  85   141 114  85   140 114  85   140 113  84   140 113  84   138 111  82   137 110  81   137 110  80   136 109  80   139 109  81   139 109  81   138 109  81   138 109  81   138 109  81   138 109  83   138 109  81     0   0   0     0   0   0     0   0   0     0   0   0     0   0   0     0   0   0     0   0   0     0   0   0     0   0   0     0   0   0     0   0   0     0   0   0     0   0   0     0   0   0  
   0   0   0     0   0   0     0   0   0     0   0   0     0   0   0   149 119  85   150 120  86   149 119  85   148 118  84   147 117  83   147 117  83   147 117  83   147 117  83   147 117  83   145 114  83   145 114  83   146 115  84   146 115  84   146 115  84   145 114  83   144 113  82   143 112  81   144 113  82   144 113  82   144 113  82   144 113  82   144 113  82   144 113  82   144 113  82   143 114  84   140 113  83   139 114  84   140 115  85   140 115  85   140 115  85   140 115  85   140 113  84   140 113  84   139 112  83   139 112  83   139 112  83   138 111  82   138 111  82   137 110  81   136 109  80   136 109  80   138 108  82   138 108  82   136 109  82   136 108  83   136 108  83   136 108  84   135 109  83     0   0   0     0   0   0     0   0   0     0   0   0     0   0   0     0   0   0     0   0   0     0   0   0     0   0   0     0   0   0     0   0   0     0   0   0     0   0   0     0   0   0  
   0   0   0     0   0   0     0   0   0     0   0   0     0   0   0   150 120  85   150 120  87   150 120  85   149 119  85   148 118  84   147 117  83   147 117  83   147 117  83   147 117  83   145 115  84   145 114  83   145 114  83   144 113  82   144 113  82   144 113  82   144 113  82   144 113  82   143 112  81   143 112  81   143 112  81   143 112  81   143 112  81   143 112  81   143 112  81   142 113  83   137 111  81   137 112  82   137 112  82   138 113  83   138 113  83   137 112  82   137 112  82   137 111  81   136 110  81   136 110  81   136 110  81   136 109  80   136 109  80   136 109  80   136 109  80   136 109  80   135 107  80   135 106  82   134 106  82   134 106  82   133 107  82   133 107  84   132 108  84     0   0   0     0   0   0     0   0   0     0   0   0     0   0   0     0   0   0     0   0   0     0   0   0     0   0   0     0   0   0     0   0   0     0   0   0     0   0   0     0   0   0  
   0   0   0     0   0   0     0   0   0     0   0   0     0   0   0     0   0   0   151 121  87   151 121  87   149 119  85   148 118  84   148 118  84   147 117  83   147 117  83   147 117  83   147 116  85   146 115  84   144 113  82   143 112  81   143 112  81   144 113  82   145 114  83   145 114  83   142 111  80   142 111  80   142 111  80   142 111  80   142 111  80   142 111  80   142 111  80   141 112  82   137 110  80   137 110  80   137 112  81   138 111  82   137 112  81   137 112  82   136 111  81   136 111  81   133 106  77   134 107  78   134 107  78   134 107  80   135 108  81   135 108  81   135 108  81   135 108  81   132 106  81   132 106  81   132 106  81   132 106  81   132 106  83   131 107  83   131 107  83     0   0   0     0   0   0     0   0   0     0   0   0     0   0   0     0   0   0     0   0   0     0   0   0     0   0   0     0   0   0     0   0   0     0   0   0     0   0   0     0   0   0  
   0   0   0     0   0   0     0   0   0     0   0   0     0   0   0     0   0   0   152 119  84   151 118  83   149 116  81   148 115  80   146 116  80   147 117  81   148 118  84   149 119  85   147 117  83   147 117  83   146 116  82   146 116  82   145 115  81   145 115  81   144 113  82   144 113  82   143 112  81   143 112  81   143 112  83   142 111  82   141 110  81   141 110  81   141 110  81   140 109  80   140 111  79   140 111  79   138 112  79   139 110  79   137 111  78   136 109  79   136 109  80   135 108  79   136 109  82   136 109  82   135 109  82   134 108  83   133 107  82   133 107  82   133 107  82   132 106  81   131 107  81   131 107  81   131 107  81   129 106  80   129 106  80   127 105  81   127 105  81     0   0   0     0   0   0     0   0   0     0   0   0     0   0   0     0   0   0     0   0   0     0   0   0     0   0   0     0   0   0     0   0   0     0   0   0     0   0   0     0   0   0  
   0   0   0     0   0   0     0   0   0     0   0   0     0   0   0     0   0   0     0   0   0   151 118  83   149 116  81   148 115  80   146 116  80   147 117  81   148 118  84   149 119  85   145 115  82   145 115  82   145 115  81   145 115  80   144 114  80   144 114  80   143 112  81   143 112  80   143 112  81   143 112  81   143 112  83   142 111  82   141 110  81   141 110  81   141 110  81   140 109  80   139 110  78   139 110  78   138 110  78   137 109  77   137 109  77   136 108  78   135 108  79   135 108  79   134 108  80   134 107  83   133 107  82   133 107  82   132 107  83   131 106  83   131 105  83   130 105  82   128 105  82   127 105  82   127 106  80   127 105  81   126 105  79   125 104  80   125 103  80     0   0   0     0   0   0     0   0   0     0   0   0     0   0   0     0   0   0     0   0   0     0   0   0     0   0   0     0   0   0     0   0   0     0   0   0     0   0   0     0   0   0  
   0   0   0     0   0   0     0   0   0     0   0   0     0   0   0     0   0   0     0   0   0     0   0   0   150 117  82   149 116  81   147 117  81   147 117  81   148 118  84   148 118  84   146 116  82   145 115  81   145 115  81   144 114  80   144 114  80   143 113  79   143 112  81   143 112  81   143 112  81   143 112  81   143 112  83   142 111  82   141 110  81   141 110  81   141 110  81   140 109  80   138 109  78   138 109  78   136 109  78   135 108  78   135 108  78   134 107  77   134 107  78   134 107  79   133 107  81   133 107  82   132 106  82   132 106  83   130 106  82   130 106  82   129 104  82   129 104  82   126 104  82   126 104  82   126 104  81   125 103  81   125 103  80   124 102  80   124 102  80   123 101  80     0   0   0     0   0   0     0   0   0     0   0   0     0   0   0     0   0   0     0   0   0     0   0   0     0   0   0     0   0   0     0   0   0     0   0   0     0   0   0  
   0   0   0     0   0   0     0   0   0     0   0   0     0   0   0     0   0   0     0   0   0     0   0   0   150 117  82   150 117  82   147 117  81   147 117  81   147 117  83   147 117  83   147 117  83   146 116  82   145 115  82   145 115  81   145 115  80   144 114  80   144 113  82   144 113  82   143 112  81   143 112  81   143 112  83   142 111  82   141 110  81   141 110  81   141 110  81   140 109  80   137 108  78   136 108  79   134 109  79   133 108  78   133 108  78   132 106  78   132 106  78   131 105  80   131 106  80   131 106  80   130 105  81   130 105  81   127 104  81   127 104  81   126 104  81   126 103  82   124 101  83   124 101  83   124 101  83   123 101  82   122 101  81   121 100  80   121 100  80   121  99  80     0   0   0     0   0   0     0   0   0     0   0   0     0   0   0     0   0   0     0   0   0     0   0   0     0   0   0     0   0   0     0   0   0     0   0   0     0   0   0  
   0   0   0     0   0   0     0   0   0     0   0   0     0   0   0     0   0   0     0   0   0     0   0   0     0   0   0   150 117  82   148 118  82   147 117  81   147 117  83   147 117  83   147 117  83   147 117  83   147 117  83   146 116  82   146 116  82   145 115  81   145 114  83   144 113  82   143 112  81   143 112  81   143 112  83   142 111  82   141 110  81   141 110  81   141 110  81   139 110  80   135 108  79   135 108  79   134 109  79   133 107  80   133 107  80   132 106  79   132 106  81   132 106  81   130 106  80   130 106  80   129 105  81   129 105  81   126 104  81   126 104  81   125 103  80   125 103  82   124 101  83   124 101  85   123 100  84   123 100  84   121 100  83   121 100  83   120  99  80   120  99  80     0   0   0     0   0   0     0   0   0     0   0   0     0   0   0     0   0   0     0   0   0     0   0   0     0   0   0     0   0   0     0   0   0     0   0   0     0   0   0  
   0   0   0     0   0   0     0   0   0     0   0   0     0   0   0     0   0   0     0   0   0     0   0   0     0   0   0     0   0   0   148 118  82   148 118  82   147 117  83   147 117  83   146 116  82   146 116  82   146 116  82   145 115  81   145 115  81   144 114  80   144 113  82   144 113  82   143 112  81   143 112  81   143 112  83   142 111  82   141 110  81   141 110  81   141 110  81   139 110  80   136 109  80   135 109  82   134 108  81   134 108  81   133 107  80   133 107  82   131 107  81   131 107  81   130 106  82   130 106  82   128 106  82   127 105  81   127 105  82   126 104  81   126 104  81   126 104  83   124 101  85   124 101  87   123 100  86   123 100  86   122  99  83   122  99  83   121  98  80   121  98  80   122 100  79     0   0   0     0   0   0     0   0   0     0   0   0     0   0   0     0   0   0     0   0   0     0   0   0     0   0   0     0   0   0     0   0   0     0   0   0  
   0   0   0     0   0   0     0   0   0     0   0   0     0   0   0     0   0   0     0   0   0     0   0   0     0   0   0     0   0   0   148 118  82   148 118  82   147 117  83   146 116  82   145 115  81   145 115  81   145 115  81   144 114  80   144 114  80   143 113  79   143 112  81   142 111  81   143 112  80   143 112  80   143 112  83   142 111  82   141 110  81   141 110  81   141 110  81   139 109  81   137 110  81   136 109  82   135 109  82   134 108  81   134 108  83   133 107  82   132 108  82   132 108  82   131 107  82   130 106  81   128 106  81   128 105  82   127 105  81   126 104  80   126 104  80   126 104  82   124 100  84   126  99  86   124 100  85   126 100  84   124 100  83   125  99  81   125  98  80   125  99  78   124  98  75   124  99  76     0   0   0     0   0   0     0   0   0     0   0   0     0   0   0     0   0   0     0   0   0     0   0   0     0   0   0     0   0   0     0   0   0  
   0   0   0     0   0   0     0   0   0     0   0   0     0   0   0     0   0   0     0   0   0     0   0   0     0   0   0     0   0   0     0   0   0   148 118  82   148 118  84   148 118  84   145 115  81   145 115  81   145 115  81   145 115  81   145 115  81   144 114  80   144 113  82   144 113  82   142 111  80   142 111  80   142 111  82   142 111  82   142 111  82   141 110  81   141 110  81   141 110  82   138 110  81   137 110  83   136 110  83   135 109  82   134 108  83   134 108  83   134 108  83   133 107  82   132 107  81   130 106  80   130 106  80   130 106  81   128 105  80   127 104  80   126 105  79   127 104  81   129 103  85   129 101  86   127 101  84   127  99  80   126  99  80   127  99  79   128 100  77   129 101  76   126  98  71   126  98  71   126  99  69   127  99  67     0   0   0     0   0   0     0   0   0     0   0   0     0   0   0     0   0   0     0   0   0     0   0   0     0   0   0  
   0   0   0     0   0   0     0   0   0     0   0   0     0   0   0     0   0   0     0   0   0     0   0   0     0   0   0     0   0   0     0   0   0     0   0   0   148 118  84   148 118  84   145 115  81   145 115  81   145 115  81   145 115  81   145 115  81   144 114  80   144 113  82   144 113  82   143 112  80   143 112  80   142 111  82   142 111  82   142 111  82   142 110  82   141 110  81   141 110  81   139 109  81   138 109  81   138 109  83   135 109  82   135 109  82   135 108  81   135 108  81   134 108  81   133 106  80   131 106  79   130 105  78   130 105  78   130 104  77   129 104  79   127 104  76   129 103  78   131 103  82   131 100  81   126  99  76   125  96  73   125  96  71   127  97  70   130  98  71   131  99  70   131  98  65   131  99  64   132  99  63   135 102  64   140 107  66     0   0   0     0   0   0     0   0   0     0   0   0     0   0   0     0   0   0     0   0   0     0   0   0  
   0   0   0     0   0   0     0   0   0     0   0   0     0   0   0     0   0   0     0   0   0     0   0   0     0   0   0     0   0   0     0   0   0     0   0   0     0   0   0   147 117  83   145 115  81   145 115  81   145 115  81   145 115  81   145 115  81   144 114  80   144 113  82   144 113  82   143 112  81   143 112  81   143 112  83   142 111  82   142 111  82   142 111  82   142 111  82   142 111  82   141 110  82   139 109  81   139 109  81   139 109  83   138 108  80   138 108  82   135 108  79   135 108  81   133 106  77   133 106  79   133 106  77   131 105  78   131 106  76   130 105  75   130 105  75   130 103  74   125  95  70   126  96  71   128  98  70   129  99  70   130  99  69   133 100  68   134 100  65   135  99  63   137 100  61   143 104  64   151 113  70   161 121  76   169 128  81   177 135  88     0   0   0     0   0   0     0   0   0     0   0   0     0   0   0     0   0   0     0   0   0  
   0   0   0     0   0   0     0   0   0     0   0   0     0   0   0     0   0   0     0   0   0     0   0   0     0   0   0     0   0   0     0   0   0     0   0   0     0   0   0   147 117  83   145 115  81   145 115  81   145 115  81   145 115  81   145 115  81   144 114  80   144 113  82   144 113  82   143 112  81   143 112  81   143 112  83   143 112  83   143 112  83   142 111  82   142 111  82   142 111  82   141 110  81   141 110  81   140 109  80   140 109  81   139 108  79   139 108  80   138 109  79   137 107  79   136 107  77   135 105  77   135 106  76   132 105  76   132 105  75   131 104  74   131 104  74   131 104  74   131 102  70   132 101  69   131 101  67   132  99  65   134 100  63   137 102  63   141 104  61   143 104  61   158 117  71   165 123  74   179 132  83   188 140  88   195 145  91   198 148  92   200 148  91     0   0   0     0   0   0     0   0   0     0   0   0     0   0   0     0   0   0  
   0   0   0     0   0   0     0   0   0     0   0   0     0   0   0     0   0   0     0   0   0     0   0   0     0   0   0     0   0   0     0   0   0     0   0   0     0   0   0     0   0   0   145 115  81   145 115  81   145 115  81   145 115  81   145 115  81   144 114  80   144 113  82   144 113  82   144 113  82   144 113  82   143 112  83   143 112  83   143 112  83   143 112  83   142 111  82   142 111  82   143 110  80   143 109  80   143 109  80   141 109  80   141 109  79   140 108  78   140 108  78   140 108  78   136 107  76   136 107  76   136 106  75   135 105  75   134 105  72   132 105  72   132 105  72   133 104  70   136 105  70   136 103  67   136 103  64   138 104  65   145 109  68   154 117  73   166 124  79   172 129  81   185 140  90   190 142  89   196 146  90   202 148  91   204 151  90   207 152  91   210 153  91   212 156  91     0   0   0     0   0   0     0   0   0     0   0   0     0   0   0  
   0   0   0     0   0   0     0   0   0     0   0   0     0   0   0     0   0   0     0   0   0     0   0   0     0   0   0     0   0   0     0   0   0     0   0   0     0   0   0     0   0   0     0   0   0   146 115  81   146 115  80   146 115  81   146 115  81   145 114  80   145 113  81   145 113  82   145 113  82   145 113  82   144 113  83   145 112  84   143 112  83   144 112  83   143 112  83   144 112  83   144 111  80   144 110  80   144 110  79   143 110  79   142 109  78   142 109  78   141 108  77   141 108  77   138 106  75   138 106  74   138 106  74   137 105  72   137 106  70   136 105  69   136 105  69   135 104  68   143 108  68   147 111  70   153 117  73   162 124  80   171 132  86   180 139  91   188 144  94   192 146  93   200 151  95   204 152  93   208 155  94   212 155  93   212 155  89   213 154  88   216 155  87   216 156  87   215 158  87   214 157  84     0   0   0     0   0   0     0   0   0  
   0   0   0     0   0   0     0   0   0     0   0   0     0   0   0     0   0   0     0   0   0     0   0   0     0   0   0     0   0   0     0   0   0     0   0   0     0   0   0     0   0   0     0   0   0     0   0   0   146 112  76   146 112  77   147 113  79   147 114  79   147 114  79   147 112  81   148 114  82   148 114  82   146 114  81   147 112  82   145 113  82   146 112  82   145 113  82   146 113  83   144 113  80   142 112  78   141 109  78   141 109  78   142 110  81   142 110  81   142 109  78   140 107  76   142 107  75   141 107  74   140 105  70   139 105  68   141 106  65   145 109  67   149 113  71   153 116  72   167 124  76   173 129  78   180 136  83   189 143  90   194 147  92   199 151  94   202 152  94   206 153  92   208 155  91   212 156  89   214 156  88   216 157  87   217 157  86   218 157  86   219 157  83   219 158  84   215 156  81   214 156  80   214 155  80     0   0   0     0   0   0  
   0   0   0     0   0   0     0   0   0     0   0   0     0   0   0     0   0   0     0   0   0     0   0   0     0   0   0     0   0   0     0   0   0     0   0   0     0   0   0     0   0   0     0   0   0     0   0   0   148 112  76   148 112  76   149 113  79   150 114  80   149 113  79   148 112  78   149 114  82   149 114  82   148 113  81   147 112  80   147 112  82   147 112  82   147 112  82   147 114  81   142 112  78   140 110  76   137 108  74   138 107  76   140 109  78   144 111  80   143 110  77   143 108  76   143 107  73   145 108  72   148 109  72   150 111  70   156 115  71   162 122  76   169 129  79   176 133  81   188 140  83   194 143  84   200 148  89   206 152  91   208 154  93   210 156  92   211 157  92   214 158  91   214 156  88   216 156  86   217 157  84   217 157  84   219 157  82   219 157  82   220 158  81   220 158  83   217 155  80   217 155  80   217 155  80   216 154  79     0   0   0  
   0   0   0     0   0   0     0   0   0     0   0   0     0   0   0     0   0   0     0   0   0     0   0   0     0   0   0     0   0   0     0   0   0     0   0   0     0   0   0     0   0   0     0   0   0     0   0   0     0   0   0   151 115  81   150 116  81   150 116  81   149 115  80   147 113  78   149 114  82   149 114  82   148 113  81   147 112  80   147 112  80   147 112  80   147 112  80   148 113  81   145 112  77   143 110  75   140 109  73   141 108  75   143 108  76   146 110  78   148 111  77   150 111  75   149 109  73   155 113  75   163 119  77   170 126  81   178 133  86   186 141  92   192 149  95   198 153  95   204 153  92   208 154  92   211 157  95   214 159  95   214 159  94   213 158  91   213 158  91   215 158  89   216 157  87   217 157  87   217 157  84   219 157  84   219 157  82   219 157  82   220 156  82   220 156  82   218 156  81   218 156  83   218 156  83   218 156  83   217 155  82  
   0   0   0     0   0   0     0   0   0     0   0   0     0   0   0     0   0   0     0   0   0     0   0   0     0   0   0     0   0   0     0   0   0     0   0   0     0   0   0     0   0   0     0   0   0     0   0   0   152 116  82   153 117  83   152 118  83   152 118  83   149 115  80   147 113  78   149 114  81   149 114  81   148 113  80   147 112  79   147 112  79   147 112  79   147 112  79   148 114  78   148 114  77   147 113  74   146 111  73   147 110  73   148 111  74   153 113  76   156 116  78   160 118  78   167 122  81   173 127  83   183 135  88   191 142  93   196 148  95   203 152  98   207 157 100   210 159  98   210 156  91   213 158  92   215 160  93   217 159  93   214 159  90   214 157  87   214 157  87   215 156  85   219 159  88   220 157  86   220 158  85   219 157  84   219 157  82   220 155  81   219 155  80   218 154  80   219 157  84   219 157  84   219 157  84   218 156  83     0   0   0  
   0   0   0     0   0   0     0   0   0     0   0   0     0   0   0     0   0   0     0   0   0     0   0   0     0   0   0     0   0   0     0   0   0     0   0   0     0   0   0     0   0   0     0   0   0   153 119  84   152 118  83   152 118  83   153 119  84   152 118  83   150 116  81   148 114  79   149 115  80   149 115  80   148 114  78   147 113  77   147 113  77   148 113  77   147 113  77   149 114  77   146 110  70   148 111  70   152 112  71   155 114  73   159 118  76   166 122  80   173 128  84   179 131  86   189 140  92   194 144  94   202 149  96   206 153  98   209 154  95   212 154  95   212 155  94   214 157  92   213 156  88   216 158  87   217 160  89   218 159  89   216 159  87   216 157  86   217 157  86   218 157  85   220 159  87   222 159  86   221 158  85   221 156  84   221 156  82   221 155  81   220 154  80   219 154  80   220 157  84   219 157  84   219 157  84     0   0   0     0   0   0  
   0   0   0     0   0   0     0   0   0     0   0   0     0   0   0     0   0   0     0   0   0     0   0   0     0   0   0     0   0   0     0   0   0     0   0   0     0   0   0     0   0   0   155 120  84   153 119  84   151 117  82   151 116  81   152 116  82   152 116  82   150 115  79   149 113  77   150 114  78   150 114  78   149 114  76   148 113  75   148 113  75   149 112  75   148 113  75   150 113  75   152 112  69   157 115  70   163 120  74   169 124  78   174 129  82   183 134  87   190 141  92   198 145  95   204 150  96   208 152  97   212 154  96   214 155  95   215 155  91   217 155  89   216 154  88   217 155  87   218 157  85   217 158  85   219 159  86   220 159  86   218 158  85   219 158  85   219 158  83   222 159  85   221 157  84   221 157  84   221 157  85   222 155  84   222 155  83   222 154  82   221 154  82   220 154  82   220 156  84   218 156  83     0   0   0     0   0   0     0   0   0  
   0   0   0     0   0   0     0   0   0     0   0   0     0   0   0     0   0   0     0   0   0     0   0   0     0   0   0     0   0   0     0   0   0     0   0   0     0   0   0   155 120  82   155 121  84   153 119  84   151 117  82   150 114  80   151 115  81   151 115  79   150 114  78   152 114  77   150 115  77   152 114  75   151 113  74   150 112  73   150 113  71   151 112  71   151 112  71   154 112  70   168 124  77   173 128  79   180 133  84   185 137  88   191 141  88   196 145  91   203 151  95   209 154  98   210 152  92   214 154  92   217 156  93   219 156  89   219 155  87   222 155  85   222 156  86   224 158  87   220 156  82   220 158  83   221 159  84   220 158  83   219 157  82   219 157  82   221 157  83   222 158  84   221 157  83   221 157  83   222 155  84   222 155  84   223 155  84   223 155  84   222 154  83   221 154  83     0   0   0     0   0   0     0   0   0     0   0   0     0   0   0  
   0   0   0     0   0   0     0   0   0     0   0   0     0   0   0     0   0   0     0   0   0     0   0   0     0   0   0     0   0   0     0   0   0     0   0   0   159 121  82   158 120  83   153 117  81   153 117  83   153 117  81   155 117  81   155 117  81   155 117  80   155 117  80   156 117  78   152 114  75   154 115  74   155 115  72   156 116  73   157 118  74   163 121  78   167 126  81   172 129  83   181 133  83   189 138  87   195 145  91   199 147  94   200 147  90   202 147  90   206 150  91   211 152  92   213 153  89   215 154  89   218 155  88   219 154  86   221 154  84   222 154  83   223 155  84   224 156  83   221 158  81   221 158  81   222 159  82   223 160  83   223 160  83   222 159  82   220 157  80   219 156  79   223 157  83   223 157  83   222 155  84   221 154  83   221 154  83   221 154  83   222 155  84     0   0   0     0   0   0     0   0   0     0   0   0     0   0   0     0   0   0  
   0   0   0     0   0   0     0   0   0     0   0   0     0   0   0     0   0   0     0   0   0     0   0   0     0   0   0     0   0   0   161 123  84   161 123  84   160 122  83   160 122  83   159 121  85   158 119  83   156 118  82   156 116  79   155 117  79   156 117  77   157 117  77   159 116  75   159 116  73   161 119  76   164 122  77   167 124  78   171 127  81   175 131  85   181 136  88   186 139  89   193 142  89   200 146  91   204 151  94   207 152  95   207 152  94   207 151  90   211 153  89   214 155  90   214 153  85   217 154  85   220 156  85   220 156  85   221 154  83   222 154  83   223 155  83   225 157  84   223 157  81   222 159  82   222 159  82   223 160  83   223 159  83   222 159  82   220 157  81   220 157  81   223 158  84   223 157  83   222 156  84   221 155  84   221 155  84   221 155  84     0   0   0     0   0   0     0   0   0     0   0   0     0   0   0     0   0   0     0   0   0  
   0   0   0     0   0   0     0   0   0     0   0   0     0   0   0     0   0   0     0   0   0     0   0   0     0   0   0   164 125  84   163 126  84   162 125  83   162 125  83   162 124  84   162 123  85   161 120  83   159 118  81   159 116  78   158 117  78   160 118  77   162 119  77   164 120  76   167 124  78   172 127  80   177 132  83   181 135  86   186 140  88   191 143  92   195 147  96   200 150  97   203 149  93   207 152  94   210 155  97   212 155  95   211 154  92   212 154  90   213 155  88   215 156  87   216 156  85   219 156  85   220 157  85   221 157  85   222 156  85   223 156  85   224 157  86   225 158  86   223 158  83   223 159  84   223 159  84   223 159  86   222 158  84   222 158  84   221 157  83   221 157  83   223 159  85   222 158  84   221 157  85   221 157  85   220 156  84     0   0   0     0   0   0     0   0   0     0   0   0     0   0   0     0   0   0     0   0   0     0   0   0  
   0   0   0     0   0   0     0   0   0     0   0   0     0   0   0     0   0   0     0   0   0     0   0   0   165 126  85   165 125  85   164 125  84   163 125  84   163 124  83   163 124  83   163 121  82   163 119  81   162 119  80   163 118  78   163 119  78   168 122  79   171 125  80   174 127  80   179 132  83   184 135  85   189 140  88   194 144  92   197 147  91   200 150  94   203 153  96   206 154  97   206 150  92   209 151  93   212 153  94   214 154  92   213 154  91   214 155  90   215 156  88   216 157  87   217 157  85   218 157  85   219 159  86   221 158  86   221 158  86   221 157  88   222 158  89   224 159  90   223 159  87   223 159  86   222 160  86   221 158  87   221 159  85   221 159  85   221 158  85   221 158  85   221 159  85   221 159  85   220 158  85   220 157  84     0   0   0     0   0   0     0   0   0     0   0   0     0   0   0     0   0   0     0   0   0     0   0   0     0   0   0  
   0   0   0     0   0   0     0   0   0     0   0   0     0   0   0     0   0   0     0   0   0   168 126  84   166 127  86   166 127  86   166 127  86   165 126  85   165 126  85   167 125  85   166 122  83   167 122  81   167 122  82   171 124  82   174 127  83   179 131  85   183 135  87   187 137  88   191 141  90   195 144  91   198 147  92   202 150  94   203 151  93   205 152  92   205 153  93   209 155  95   211 153  94   212 153  93   214 154  92   215 155  92   216 157  91   218 159  91   219 159  90   219 160  90   218 158  86   219 159  87   220 160  88   220 160  89   219 160  89   220 159  92   221 160  93   224 161  94   223 160  91   224 160  89   222 159  88   221 158  87   221 158  87   221 158  87   221 159  86   222 160  87   220 158  85   220 158  85     0   0   0     0   0   0     0   0   0     0   0   0     0   0   0     0   0   0     0   0   0     0   0   0     0   0   0     0   0   0     0   0   0  
   0   0   0     0   0   0     0   0   0     0   0   0     0   0   0     0   0   0   171 129  87   171 129  87   169 130  87   168 129  86   168 129  88   168 129  88   168 129  88   170 128  88   173 127  86   175 128  86   178 130  88   180 133  91   185 137  93   190 141  95   195 144  95   197 145  95   199 148  95   202 149  95   204 152  95   207 152  95   207 153  93   208 152  91   208 154  92   210 154  93   214 155  95   215 155  95   214 154  92   215 155  92   217 158  92   218 159  91   219 160  90   219 159  89   217 159  86   219 161  88   220 161  91   220 161  93   218 161  92   219 160  94   221 162  96   222 163  97   224 161  94   223 160  91   222 159  90   221 158  89   221 158  89   221 158  89   220 160  88   220 160  88   217 157  85     0   0   0     0   0   0     0   0   0     0   0   0     0   0   0     0   0   0     0   0   0     0   0   0     0   0   0     0   0   0     0   0   0     0   0   0  
   0   0   0     0   0   0     0   0   0     0   0   0     0   0   0   174 131  87   175 131  88   175 131  88   174 132  87   175 132  87   175 131  88   176 131  88   175 131  88   176 132  87   183 135  89   185 136  88   188 138  91   190 141  93   195 143  95   197 146  96   201 148  96   203 150  96   204 151  96   207 151  95   208 152  95   208 154  94   209 153  92   210 154  92   211 155  91   213 155  92   215 156  96   215 155  95   214 155  92   215 155  92   216 157  91   217 158  91   217 158  91   217 158  88   218 159  90   219 160  90   220 160  90   220 160  92   219 162  92   220 161  92   220 163  95   222 163  95   222 161  93   222 160  92   221 159  90   220 158  89   220 158  89   220 158  89   219 159  88   220 160  88     0   0   0     0   0   0     0   0   0     0   0   0     0   0   0     0   0   0     0   0   0     0   0   0     0   0   0     0   0   0     0   0   0     0   0   0     0   0   0  
   0   0   0     0   0   0     0   0   0     0   0   0     0   0   0   179 133  89   179 132  87   179 132  87   180 132  85   181 133  86   183 134  88   185 136  89   186 138  90   188 138  89   194 144  93   197 144  93   199 146  94   200 148  94   202 148  94   203 149  94   205 152  95   208 153  96   209 153  95   210 154  95   210 154  94   211 155  94   211 156  93   212 157  93   214 156  92   214 156  93   215 156  96   215 156  96   216 158  95   216 158  95   217 159  96     0   0   0     0   0   0   219 160  93   219 160  92   219 160  91   220 160  90   221 161  91   221 161  90   221 161  90   222 162  91   222 162  91   221 161  91   221 161  91   220 160  90   220 160  90   219 159  89   218 158  88   217 157  87   217 157  87     0   0   0     0   0   0     0   0   0     0   0   0     0   0   0     0   0   0     0   0   0     0   0   0     0   0   0     0   0   0     0   0   0     0   0   0     0   0   0  
   0   0   0     0   0   0     0   0   0     0   0   0   181 133  88   181 134  88   182 134  87   182 134  87   184 135  86   186 137  88   189 139  91   191 141  91   194 144  94   196 144  94   199 148  95   201 148  95   203 151  95   204 152  95   206 151  95   207 152  96   209 154  97   210 155  98   210 154  95   210 154  95   210 154  93   211 155  94   212 156  94   212 156  94   214 156  93   215 157  94   215 157  97   215 157  97   216 158  95     0   0   0     0   0   0     0   0   0     0   0   0     0   0   0   219 160  92   219 160  92   220 160  90   221 161  91   221 161  90   221 161  90   222 162  90   222 162  90   221 161  91   221 161  91   220 160  90   220 160  90   219 159  89   218 158  88   217 157  87     0   0   0     0   0   0     0   0   0     0   0   0     0   0   0     0   0   0     0   0   0     0   0   0     0   0   0     0   0   0     0   0   0     0   0   0     0   0   0     0   0   0  
   0   0   0     0   0   0     0   0   0     0   0   0   184 137  91   185 137  90   187 139  91   188 140  91   191 141  92   192 142  92   195 145  94   197 147  96   199 149  99   202 151  99   200 149  94   203 151  94   204 152  95   205 153  96   207 152  96   207 152  96   209 154  97   210 155  98   211 155  96   211 155  96   211 155  94   212 156  95   212 156  95   213 157  96   215 156  96   215 156  96   216 157  97     0   0   0     0   0   0     0   0   0     0   0   0     0   0   0     0   0   0     0   0   0     0   0   0   220 161  93   221 161  91   221 161  91   221 161  91   221 161  91   222 162  90   222 162  92   221 161  91   221 161  91   220 160  90   220 160  90   219 159  89   218 158  88   217 157  87     0   0   0     0   0   0     0   0   0     0   0   0     0   0   0     0   0   0     0   0   0     0   0   0     0   0   0     0   0   0     0   0   0     0   0   0     0   0   0     0   0   0  
   0   0   0     0   0   0     0   0   0     0   0   0   190 142  94   191 143  94   195 147  98   195 148  96   197 147  96   198 148  95   199 149  96   201 151  98   202 152  99   204 153  98   201 150  93   204 152  94   205 153  95   205 153  95   207 152  95   207 152  95   208 153  96   209 154  97   211 155  96   211 155  96   212 156  97   212 156  97   213 157  98   213 157  98   216 157  99     0   0   0     0   0   0     0   0   0     0   0   0     0   0   0     0   0   0     0   0   0     0   0   0     0   0   0     0   0   0     0   0   0   222 161  94   222 161  94   222 162  92   222 162  92   221 161  91   221 161  91   221 161  91   221 160  93   220 159  92   220 159  92   219 158  91   218 157  90   217 156  89     0   0   0     0   0   0     0   0   0     0   0   0     0   0   0     0   0   0     0   0   0     0   0   0     0   0   0     0   0   0     0   0   0     0   0   0     0   0   0     0   0   0  
   0   0   0     0   0   0     0   0   0   192 146  96   195 147  97   196 148  98   200 152 100   200 152 100   201 151  98   201 151  98   202 152  99   203 154  98   205 155  99   206 155  97     0   0   0     0   0   0     0   0   0     0   0   0     0   0   0     0   0   0   209 155  97   211 156  98   212 156  97   212 156  98   212 156  98   213 157  98   213 157  99     0   0   0     0   0   0     0   0   0     0   0   0     0   0   0     0   0   0     0   0   0     0   0   0     0   0   0     0   0   0     0   0   0     0   0   0     0   0   0   222 161  95   222 161  95   222 162  92   222 162  92   221 160  91   221 160  93   220 160  93   220 160  93   220 159  92   220 159  92   219 158  91   218 157  91   217 156  90     0   0   0     0   0   0     0   0   0     0   0   0     0   0   0     0   0   0     0   0   0     0   0   0     0   0   0     0   0   0     0   0   0     0   0   0     0   0   0     0   0   0  
   0   0   0     0   0   0     0   0   0   196 148  99   198 151  99   200 153 101   202 152  99   202 152  99   202 153  97   203 154  98   205 154  98   206 155  98     0   0   0     0   0   0     0   0   0     0   0   0     0   0   0     0   0   0     0   0   0     0   0   0     0   0   0     0   0   0     0   0   0     0   0   0     0   0   0     0   0   0     0   0   0     0   0   0     0   0   0     0   0   0     0   0   0     0   0   0     0   0   0     0   0   0     0   0   0     0   0   0     0   0   0     0   0   0     0   0   0     0   0   0     0   0   0   223 162  97   222 161  95   222 161  94   221 160  93   221 160  94   220 161  94   220 161  95   219 160  94   219 160  94   218 159  93   217 158  92     0   0   0     0   0   0     0   0   0     0   0   0     0   0   0     0   0   0     0   0   0     0   0   0     0   0   0     0   0   0     0   0   0     0   0   0     0   0   0     0   0   0     0   0   0  
   0   0   0     0   0   0   197 149  98   198 151 100   201 152  99   201 152 100   202 153  97   203 154  99   205 154  98   205 155  98     0   0   0     0   0   0     0   0   0     0   0   0     0   0   0     0   0   0     0   0   0     0   0   0     0   0   0     0   0   0     0   0   0     0   0   0     0   0   0     0   0   0     0   0   0     0   0   0     0   0   0     0   0   0     0   0   0     0   0   0     0   0   0     0   0   0     0   0   0     0   0   0     0   0   0     0   0   0     0   0   0     0   0   0     0   0   0     0   0   0     0   0   0     0   0   0   221 160  97   221 160  95   221 160  94   221 160  95   219 160  94   218 159  95   218 158  95   218 158  95   218 158  94   218 158  94     0   0   0     0   0   0     0   0   0     0   0   0     0   0   0     0   0   0     0   0   0     0   0   0     0   0   0     0   0   0     0   0   0     0   0   0     0   0   0     0   0   0     0   0   0  
   0   0   0     0   0   0   198 151  99   199 152 100   202 152  99   202 152  99   202 153  97   204 155  99     0   0   0     0   0   0     0   0   0     0   0   0     0   0   0     0   0   0     0   0   0     0   0   0     0   0   0     0   0   0     0   0   0     0   0   0     0   0   0     0   0   0     0   0   0     0   0   0     0   0   0     0   0   0     0   0   0     0   0   0     0   0   0     0   0   0     0   0   0     0   0   0     0   0   0     0   0   0     0   0   0     0   0   0     0   0   0     0   0   0     0   0   0     0   0   0     0   0   0     0   0   0     0   0   0   221 160  97   221 160  97   221 160  97   219 159  96   218 158  95   218 158  95   218 158  95   218 158  95   218 158  95     0   0   0     0   0   0     0   0   0     0   0   0     0   0   0     0   0   0     0   0   0     0   0   0     0   0   0     0   0   0     0   0   0     0   0   0     0   0   0     0   0   0     0   0   0  
   0   0   0     0   0   0   200 150 101   201 151 102   202 152 101   202 152 101     0   0   0     0   0   0     0   0   0     0   0   0     0   0   0     0   0   0     0   0   0     0   0   0     0   0   0     0   0   0     0   0   0     0   0   0     0   0   0     0   0   0     0   0   0     0   0   0     0   0   0     0   0   0     0   0   0     0   0   0     0   0   0     0   0   0     0   0   0     0   0   0     0   0   0     0   0   0     0   0   0     0   0   0     0   0   0     0   0   0     0   0   0     0   0   0     0   0   0     0   0   0     0   0   0     0   0   0     0   0   0     0   0   0   222 160  99   222 160  99   219 159  97   217 159  96   217 159  96   217 159  96   217 159  96   217 159  96     0   0   0     0   0   0     0   0   0     0   0   0     0   0   0     0   0   0     0   0   0     0   0   0     0   0   0     0   0   0     0   0   0     0   0   0     0   0   0     0   0   0     0   0   0  
   0   0   0   200 150 101   201 150 102   201 151 102     0   0   0     0   0   0     0   0   0     0   0   0     0   0   0     0   0   0     0   0   0     0   0   0     0   0   0     0   0   0     0   0   0     0   0   0     0   0   0     0   0   0     0   0   0     0   0   0     0   0   0     0   0   0     0   0   0     0   0   0     0   0   0     0   0   0     0   0   0     0   0   0     0   0   0     0   0   0     0   0   0     0   0   0     0   0   0     0   0   0     0   0   0     0   0   0     0   0   0     0   0   0     0   0   0     0   0   0     0   0   0     0   0   0     0   0   0     0   0   0     0   0   0   222 160  99   218 160  97   217 159  96   217 159  96   217 159  96   217 159  96     0   0   0     0   0   0     0   0   0     0   0   0     0   0   0     0   0   0     0   0   0     0   0   0     0   0   0     0   0   0     0   0   0     0   0   0     0   0   0     0   0   0     0   0   0     0   0   0  
   0   0   0   201 150 103   202 151 104     0   0   0     0   0   0     0   0   0     0   0   0     0   0   0     0   0   0     0   0   0     0   0   0     0   0   0     0   0   0     0   0   0     0   0   0     0   0   0     0   0   0     0   0   0     0   0   0     0   0   0     0   0   0     0   0   0     0   0   0     0   0   0     0   0   0     0   0   0     0   0   0     0   0   0     0   0   0     0   0   0     0   0   0     0   0   0     0   0   0     0   0   0     0   0   0     0   0   0     0   0   0     0   0   0     0   0   0     0   0   0     0   0   0     0   0   0     0   0   0     0   0   0     0   0   0   222 160  99   218 160  97   217 159  96   217 159  96   217 159  96   217 159  96     0   0   0     0   0   0     0   0   0     0   0   0     0   0   0     0   0   0     0   0   0     0   0   0     0   0   0     0   0   0     0   0   0     0   0   0     0   0   0     0   0   0     0   0   0     0   0   0  
 201 150 104   202 150 105   202 151 105     0   0   0     0   0   0     0   0   0     0   0   0     0   0   0     0   0   0     0   0   0     0   0   0     0   0   0     0   0   0     0   0   0     0   0   0     0   0   0     0   0   0     0   0   0     0   0   0     0   0   0     0   0   0     0   0   0     0   0   0     0   0   0     0   0   0     0   0   0     0   0   0     0   0   0     0   0   0     0   0   0     0   0   0     0   0   0     0   0   0     0   0   0     0   0   0     0   0   0     0   0   0     0   0   0     0   0   0     0   0   0     0   0   0     0   0   0     0   0   0     0   0   0     0   0   0     0   0   0   218 159  98   217 158  97   217 158  97   217 158  97     0   0   0     0   0   0     0   0   0     0   0   0     0   0   0     0   0   0     0   0   0     0   0   0     0   0   0     0   0   0     0   0   0     0   0   0     0   0   0     0   0   0     0   0   0     0   0   0     0   0   0  
 202 151 106   202 151 106     0   0   0     0   0   0     0   0   0     0   0   0     0   0   0     0   0   0     0   0   0     0   0   0     0   0   0     0   0   0     0   0   0     0   0   0     0   0   0     0   0   0     0   0   0     0   0   0     0   0   0     0   0   0     0   0   0     0   0   0     0   0   0     0   0   0     0   0   0     0   0   0     0   0   0     0   0   0     0   0   0     0   0   0     0   0   0     0   0   0     0   0   0     0   0   0     0   0   0     0   0   0     0   0   0     0   0   0     0   0   0     0   0   0     0   0   0     0   0   0     0   0   0     0   0   0     0   0   0     0   0   0     0   0   0   217 158  98   217 158  98   217 158  98     0   0   0     0   0   0     0   0   0     0   0   0     0   0   0     0   0   0     0   0   0     0   0   0     0   0   0     0   0   0     0   0   0     0   0   0     0   0   0     0   0   0     0   0   0     0   0   0     0   0   0  
