P3
50 64
255
   0   0   0     0   0   0     0   0   0     0   0   0     0   0   0     0   0   0     0   0   0     0   0   0     0   0   0     0   0   0     0   0   0     0   0   0     0   0   0     0   0   0     0   0   0     0   0   0     0   0   0     0   0   0     0   0   0     0   0   0     0   0   0     0   0   0     0   0   0     0   0   0     0   0   0     0   0   0     0   0   0     0   0   0     0   0   0     0   0   0     0   0   0     0   0   0     0   0   0     0   0   0     0   0   0     0   0   0     8  14  14     0   0   0     0   0   0     0   0   0     0   0   0     0   0   0     0   0   0     0   0   0     0   0   0     0   0   0     0   0   0     0   0   0     0   0   0     0   0   0  
   0   0   0     0   0   0     0   0   0     0   0   0     0   0   0     0   0   0     0   0   0     0   0   0     0   0   0     0   0   0     0   0   0     0   0   0     0   0   0     0   0   0     0   0   0     0   0   0     0   0   0     0   0   0     0   0   0     0   0   0     0   0   0     0   0   0     0   0   0     0   0   0     0   0   0     0   0   0     0   0   0     0   0   0     0   0   0     0   0   0     0   0   0     0   0   0     0   0   0     0   0   0     9  15  15     9  15  15     9  15  15     8  14  14     0   0   0     0   0   0     0   0   0     0   0   0     0   0   0     0   0   0     0   0   0     0   0   0     0   0   0     0   0   0     0   0   0     0   0   0  
   0   0   0     0   0   0     0   0   0     0   0   0     0   0   0     0   0   0     0   0   0     0   0   0     0   0   0     0   0   0     0   0   0     0   0   0     0   0   0     0   0   0     0   0   0     0   0   0     0   0   0     0   0   0     0   0   0     0   0   0     0   0   0     0   0   0     0   0   0     0   0   0     0   0   0     0   0   0     0   0   0     0   0   0     0   0   0     0   0   0     0   0   0     0   0   0    10  18  18     3  12  11    10  18  17     8  16  15     9  17  15    11  19  17    15  23  21    16  24  22     0   0   0     0   0   0     0   0   0     0   0   0     0   0   0     0   0   0     0   0   0     0   0   0     0   0   0     0   0   0  
   0   0   0     0   0   0     0   0   0     0   0   0     0   0   0     0   0   0     0   0   0     0   0   0     0   0   0     0   0   0     0   0   0     0   0   0     0   0   0     0   0   0     0   0   0     0   0   0     0   0   0     0   0   0     0   0   0     0   0   0     0   0   0     0   0   0     0   0   0     0   0   0     0   0   0     0   0   0     0   0   0     0   0   0     0   0   0     0   0   0     1   6   8     2  10  12     1  10   9     1   9   8     2  11  10     1  10   9     1   9   6     1   8   5     2  10   7     4  13  10     7  16  13     0   0   0     0   0   0     0   0   0     0   0   0     0   0   0     0   0   0     0   0   0     0   0   0     0   0   0  
   0   0   0     0   0   0     0   0   0     0   0   0     0   0   0     0   0   0     0   0   0     0   0   0     0   0   0     0   0   0     0   0   0     0   0   0     0   0   0     0   0   0     0   0   0     0   0   0     0   0   0     0   0   0     0   0   0     0   0   0     0   0   0     0   0   0     0   0   0     0   0   0     0   0   0     0   0   0     0   0   0     0   0   0    67  75  77    63  71  73    74  82  84    72  80  82    64  73  72    68  77  76    75  84  83    74  83  82    70  79  76    66  75  72    64  73  70    69  78  75    78  87  84    88  94  92     0   0   0     0   0   0     0   0   0     0   0   0     0   0   0     0   0   0     0   0   0     0   0   0  
   0   0   0     0   0   0     0   0   0     0   0   0     0   0   0     0   0   0     0   0   0     0   0   0     0   0   0     0   0   0     0   0   0     0   0   0     0   0   0     0   0   0     0   0   0     0   0   0     0   0   0     0   0   0     0   0   0     0   0   0     0   0   0     0   0   0     0   0   0     0   0   0     0   0   0     0   0   0    62  67  71    82  89  91    67  74  76    46  53  55    58  65  67    69  76  79    71  79  78    80  88  88    69  77  77    68  76  76    66  74  71    63  71  68    63  71  68    67  75  72    74  82  79    80  86  84    61  65  64     0   0   0     0   0   0     0   0   0     0   0   0     0   0   0     0   0   0     0   0   0  
   0   0   0     0   0   0     0   0   0     0   0   0     0   0   0     0   0   0     0   0   0     0   0   0     0   0   0     0   0   0     0   0   0     0   0   0     0   0   0     0   0   0     0   0   0     0   0   0     0   0   0     0   0   0     0   0   0     0   0   0    49  54  60    65  70  76    42  47  53    71  76  82    69  73  82    41  46  52    73  78  82    93  98 101    66  71  74    18  23  26     7  12  15    13  18  21    10  16  16    11  17  17     8  14  14     8  14  14     9  15  13    10  16  14    12  18  16    14  20  18    14  20  18    14  20  18    12  16  15    14  18  17     0   0   0     0   0   0     0   0   0     0   0   0     0   0   0     0   0   0  
   0   0   0     0   0   0     0   0   0   107 111 113   121 125 128   114 118 121    87  91  95    93  97 101    99 103 106    69  73  77    60  65  68    53  60  62    47  54  56    42  49  51    34  41  44    25  32  34    20  27  30    20  27  30    27  34  38     8  16  20    20  27  33    30  36  43    14  20  26    14  19  25    31  37  44    23  29  35    22  27  31    38  43  46    33  38  41    12  17  20     6  11  14    11  16  19     9  15  15     1   7   7     5  11  11     8  14  14    11  17  15    12  18  16    13  19  17    13  19  17    14  20  18    15  21  19    13  17  15    11  16  15    10  14  13    10  14  13     0   0   0     0   0   0     0   0   0     0   0   0  
   0   0   0     0   0   0     0   0   0    33  37  38    34  38  41    38  42  45    34  38  41    29  33  36    24  27  30    17  21  24    15  20  24    10  18  20     8  16  18     9  17  19     7  15  17     3  11  13     3  11  14     5  13  16     4  12  15    13  21  24     2   9  16     2   6  12    17  24  30     3   9  15    14  21  27     2   7  13    11  16  19     6  11  14     6  11  14     7  12  15     5  10  13    10  15  18    14  19  19     9  15  15     3   9   9     8  14  14    12  18  16    10  16  14     7  13  10     6  12  10    12  18  16    19  25  23    13  17  16    10  14  13     7  11  10     7  11  10    10  14  13     0   0   0     0   0   0     0   0   0  
  12  14  13    10  11  11     9   9  11    14  15  17    12  13  15    10  11  13    13  14  18     9  11  14     6   7  11     9  13  16    17  23  23     4  11  10    12  21  21    19  28  27     7  14  16    13  21  23    26  34  36    15  23  25    26  34  37    12  20  23    28  36  39    41  49  52    30  38  41    43  51  54    55  62  68    37  44  49    41  46  49    46  50  53    41  45  48    43  47  50    55  59  62    50  54  57    46  50  51    56  60  61    48  52  53    50  54  55    46  50  49    39  43  42    42  46  45    47  51  50    39  42  41    22  26  26    28  32  31    19  23  22    18  22  21    14  18  17    15  19  18     7  11  10     2   3   2    21  25  24  
  29  31  30    35  37  36    30  32  33    32  33  34    24  25  27    21  22  24    29  30  33    33  34  38    36  37  41    43  46  49    41  47  47    46  54  54    80  88  87    98 106 106    81  88  90    78  85  87    92  99 101    94 101 104   112 119 122    92  99 102    97 105 108   112 119 123   106 113 117   101 108 111   107 113 119   109 114 118   105 110 112   114 118 121   122 125 128   120 124 127   108 112 115    95  99 102    95  99 100   102 106 107    84  88  89    74  78  79    66  70  69    67  71  70    72  76  75    70  74  73    59  63  62    49  53  52    43  47  46    53  57  56    50  54  53    34  38  37    46  49  48    52  56  55    33  37  36    34  38  37  
   0   0   0    50  52  51    54  56  55    59  61  60    57  58  60    61  62  64    75  76  78    80  81  83    78  79  81    81  84  85    94  99  99    83  89  89    97 103 103   117 123 123   113 119 119   107 113 113   104 109 112    97 102 105    89  94  97    93  98 101    88  93  97    79  84  88    78  83  87    78  83  87    74  79  83    69  74  78    68  72  75    62  66  69    67  71  74    67  71  74    56  60  63    55  59  62    63  67  68    62  66  67    48  52  53    52  56  57    59  63  62    63  67  66    60  64  63    55  59  58    56  60  59    62  66  65    87  91  90    86  90  89    72  76  75    60  64  63    78  82  81    78  82  81    52  56  55    61  65  64  
   0   0   0     0   0   0     0   0   0    71  73  72    65  66  68    66  66  69    75  76  78    77  78  80    73  74  76    75  76  78    78  81  81    60  64  64    54  59  60    57  61  62    50  54  55    41  46  46    41  45  47    42  47  48    36  40  43    45  49  52    42  47  50    47  51  54    59  63  68    53  57  62    48  51  56    60  63  68    55  59  62    45  49  52    51  55  58    59  63  65    58  62  66    71  75  78    84  88  89    79  83  84    77  81  82    84  89  89    88  92  91    84  88  87    83  87  86    89  93  92    93  97  96    94  97  96    91  95  94    88  92  91    85  89  88    82  85  85    85  89  88    69  73  72    58  62  61    95  99  98  
   0   0   0     0   0   0     0   0   0     0   0   0    76  76  78    78  79  81    87  87  90    87  87  90    82  82  85    82  84  86    83  87  86    82  86  85    80  84  85    78  82  83    75  79  80    76  80  81    87  92  92   101 105 106    88  92  95   100 103 107    99 103 106   100 104 107   109 112 117   102 105 110    93  96 101   102 105 110    83  87  90   102 106 109   127 131 134   134 138 141   125 129 132   125 130 133   137 141 142   141 145 146   129 133 134   138 142 143   133 137 136   116 119 118   108 112 111   122 126 125   135 139 138   137 141 140   122 126 125   125 129 128   134 138 137   125 129 128   116 120 119   102 106 105    81  86  84    86  90  89  
   0   0   0     0   0   0     0   0   0     0   0   0     0   0   0    68  70  69    70  71  73    62  63  65    51  52  54    51  52  54    46  48  47    48  50  50    43  45  44    37  39  38    40  40  42    41  43  45    40  40  42    40  40  42    25  26  30    45  46  50    47  48  52    34  36  39    37  38  42    46  47  51    42  43  48    34  34  39    50  51  55    52  53  57    49  51  54    59  60  64    81  82  86    85  86  90    66  67  69    49  50  52    51  53  54    63  64  66    66  68  67    54  56  55    40  42  41    43  45  44    62  64  63    78  80  79    89  93  91    81  85  84    88  92  90    75  79  78    73  77  76    98 102 101   103 107 106    92  96  95  
   0   0   0     0   0   0     0   0   0     0   0   0     0   0   0     0   0   0    10  11  13     8   9  11     5   6   8     8   9  11     7   9   9    12  15  14    10  13  12     7   8   8     8   9  11    10  12  14     9  10  12     9  10  12    11  12  15    10  11  14     9  11  14    11  13  16    12  14  17    10  11  14     9  10  14    10  12  15    12  13  16    14  16  19    20  25  27    21  22  25    17  22  24    24  26  29    17  21  21    13  15  17    22  27  28    22  24  25    20  24  23    22  24  24    19  24  23    20  22  22    20  25  25    25  29  29    24  28  27    33  37  36    57  61  60    41  45  44    27  31  30    33  37  36    36  40  39    31  35  34  
   0   0   0     0   0   0     0   0   0     0   0   0     0   0   0     0   0   0     0   0   0    59  60  62    54  55  57    49  50  52    51  55  56    48  52  53    45  49  50    46  50  51    49  53  54    50  54  55    49  53  54    47  51  52    50  54  55    46  50  51    42  46  47    41  45  46    43  47  48    43  47  48    38  42  43    34  38  39    43  48  49    32  37  38    65  71  71    69  74  74    45  51  51    56  61  62    58  64  64    42  47  47    66  72  72    64  69  69    60  66  66    59  64  65    61  67  67    64  69  70    65  71  71    65  70  70    49  53  52    56  60  59    67  71  70    48  52  51    64  68  67    53  57  56    41  45  44    42  46  45  
   0   0   0     0   0   0     0   0   0     0   0   0     0   0   0     0   0   0     0   0   0     0   0   0    61  62  64    54  55  57    45  49  50    47  51  52    45  49  50    40  44  45    36  40  41    36  40  41    33  37  38    29  33  34    26  30  31    25  30  30    24  28  29    24  28  29    23  27  28    20  24  25    15  19  20    12  17  17    15  21  21    11  17  17    20  26  26    28  34  34    17  23  23    17  23  23    25  31  31    16  22  22    21  27  27    23  29  29    25  31  31    25  31  31    23  29  29    23  29  29    26  33  33    30  36  36    31  35  34    19  23  22    26  30  29    24  28  27    37  41  40    19  23  22     9  13  12    25  29  28  
   0   0   0     0   0   0     0   0   0     0   0   0     0   0   0     0   0   0     0   0   0     0   0   0     0   0   0    12  13  15     4   8   9    13  17  18    16  20  21     8  12  13     3   7   8     5   9  10     4   8   9     1   3   4     3   7   8     5  10  10     9  13  14    10  14  15     9  13  14     8  12  13     8  12  13     9  13  14     3   9   9     8  14  14     1   3   3     7  13  13    10  16  16     1   6   6    12  18  18     9  15  15     7  14  14     3   9   9     3   8   8     8  14  14    13  19  19    14  20  20    12  18  18    10  16  16    13  17  16     6  10   9    12  16  15     5   9   8     8  12  11     5   9   8     2   6   5    14  18  17  
   0   0   0     0   0   0     0   0   0     0   0   0     0   0   0     0   0   0     0   0   0     0   0   0     0   0   0     0   0   0     5   9  10    14  19  19    19  23  24    15  19  20    10  14  15    10  14  15    10  14  15     8  12  13     5   9  10     6  10  11     7  11  12     5   9  10     1   5   6     1   5   5     3   7   8     5   9  10     7  11  12    19  23  24     4   8   9    12  17  17    18  22  23     7  11  12    14  18  19    13  17  18    14  18  19     8  12  13     7  10  12    11  15  16    14  19  19    13  17  18    11  15  16    11  15  16    19  22  21    19  23  22    30  34  33    27  31  30    17  21  20    20  24  23    14  18  17    22  26  25  
   0   0   0     0   0   0     0   0   0     0   0   0     0   0   0     0   0   0     0   0   0     0   0   0     0   0   0     0   0   0     0   0   0    12  15  15    15  18  18    15  19  19    11  15  15     6  10  10     6  10  10     8  12  12     9  13  13    11  14  14    11  15  15    10  14  14     8  11  12     8  11  11    10  13  14    12  16  16     4   8   9    16  20  21    16  20  21    14  18  19    16  20  21    17  21  22    17  21  22    15  19  20    20  24  25    20  24  25    24  28  29    27  32  32    24  28  29    21  25  26    29  33  34    41  45  46    48  51  50    42  45  44    51  54  53    54  57  56    36  40  39    45  49  48    40  44  42    46  50  49  
   0   0   0     0   0   0     0   0   0     0   0   0     0   0   0     0   0   0     0   0   0     0   0   0     0   0   0     0   0   0     0   0   0     0   0   0    39  41  40    47  49  48    47  49  48    40  42  41    41  43  42    48  50  49    45  47  46    47  49  48    49  51  50    51  53  52    51  53  52    52  54  53    51  53  52    51  53  52    42  46  47    50  54  55    69  73  74    60  64  65    59  63  64    77  81  82    74  78  79    73  77  78    88  92  93    82  86  87    79  83  84    81  85  86    80  84  85    77  81  82    83  87  88    93  97  98   102 104 103   114 116 115   124 126 125   117 119 118    91  93  92   108 110 109    82  84  83    52  54  53  
   0   0   0     0   0   0     0   0   0     0   0   0     0   0   0     0   0   0     0   0   0     0   0   0     0   0   0     0   0   0     0   0   0     0   0   0     0   0   0   104 106 105   101 103 102   101 103 102   103 105 104   103 105 104   100 102 101    89  91  90    88  90  89    93  95  94    95  97  96   104 106 105   113 115 114   113 115 114   100 101 103   108 110 112   100 102 104    83  85  87   113 114 116   110 111 113    97  99 100   104 106 108   104 105 107    98 100 102    87  89  90    82  84  86    77  79  81    65  67  69    71  73  75    99 101 103   103 105 104    87  89  88    92  94  93   107 109 108    94  96  95    78  80  79    66  68  67    66  68  67  
   0   0   0     0   0   0     0   0   0     0   0   0     0   0   0     0   0   0     0   0   0     0   0   0     0   0   0     0   0   0     0   0   0     0   0   0     0   0   0     0   0   0    36  38  37    32  34  33    28  30  29    24  26  25    20  22  22    31  34  32    34  36  35    50  52  51    82  84  84    92  94  93    84  86  85    87  89  88    76  77  79    87  88  90    91  92  94    73  74  75    81  82  84    68  69  71    72  73  75    77  77  80    71  72  74    82  83  85    75  76  78    68  69  71    78  78  81    84  85  87    87  88  90    98  99 101    99 101 100    82  84  83    76  78  76    86  88  87    95  97  96    83  85  84    59  61  60    41  43  42  
   0   0   0     0   0   0     0   0   0     0   0   0     0   0   0     0   0   0     0   0   0     0   0   0     0   0   0     0   0   0     0   0   0     0   0   0     0   0   0    82  82  80    84  84  82    78  78  76    72  72  70    70  70  68    62  62  60   109 109 107   104 104 102    86  86  83    95  95  93    78  78  76    62  62  60    92  92  92    90  91  92    77  78  80    84  85  87    76  77  79    73  75  77    87  88  89   106 107 108    87  88  90    72  73  75    82  83  85    75  76  78    60  61  63    59  60  62    59  60  62    49  49  52    40  41  43    55  55  55    66  66  66    58  58  58    43  43  43    44  44  44    55  55  55    60  60  60    61  61  61  
   0   0   0     0   0   0     0   0   0     0   0   0     0   0   0     0   0   0     0   0   0     0   0   0     0   0   0     0   0   0     0   0   0     0   0   0     0   0   0    92  92  90    90  90  88    88  88  86    84  84  82    79  79  77    80  80  78   103 103 101    93  93  91    83  83  81   101 101  99   100 100  98    88  88  86    99  99  99    92  94  93    83  84  86    80  80  83    72  73  75    71  72  74    88  89  90    95  96  98    79  80  81    94  95  98    97  98 100    99 100 102    98  99 102    95  96  98    93  94  96    97  98 100   104 105 107   100 100 100    95  95  95    84  84  84    86  86  86   102 102 102   109 109 109   109 109 109   113 113 113  
   0   0   0     0   0   0     0   0   0     0   0   0     0   0   0     0   0   0     0   0   0     0   0   0     0   0   0     0   0   0     0   0   0     0   0   0   118 118 116   113 113 111   114 114 112   121 121 119   120 120 118   110 110 108   115 115 113   115 115 113   118 118 116   119 119 117   116 116 114   120 120 118   121 121 119   113 113 113   102 104 103   126 127 129   121 122 124   110 111 113   105 106 108   107 108 110   108 109 111   126 127 129   131 132 134   126 127 129   122 123 125   115 116 118   112 113 115   122 123 125   132 133 135   129 130 132   136 136 136   125 125 125   116 116 116   114 114 114   118 118 118   126 126 126   124 124 124   115 115 115  
   0   0   0     0   0   0     0   0   0     0   0   0     0   0   0     0   0   0     0   0   0     0   0   0     0   0   0     0   0   0     0   0   0     0   0   0   149 149 147   146 146 144   145 145 143   147 147 145   142 142 140   134 134 132   129 129 127   103 103 101    95  95  93    97  97  95    90  90  88    94  94  93   102 102 100    93  93  93   102 104 103   125 126 128   119 120 122   123 124 126   124 125 127   127 128 130   123 124 126   149 150 152   137 138 140   128 129 131   122 123 125   114 115 117   109 109 111   122 123 125   130 131 133   119 120 122   123 123 123   116 116 116   123 123 123   123 123 123   116 116 116   127 127 127   118 118 118    78  78  78  
   0   0   0     0   0   0     0   0   0     0   0   0     0   0   0     0   0   0     0   0   0     0   0   0     0   0   0     0   0   0     0   0   0   130 130 128   128 128 126   130 130 128   133 133 131   132 132 130   130 130 128   132 132 130   121 121 119   108 108 106   102 102 100   102 102 100    95  95  93    92  92  90   106 106 104   123 123 123   103 104 106   120 121 123   131 132 134   154 155 157   138 140 142   125 126 128   102 102 105   107 107 109   137 138 140   120 120 123   124 126 126   129 130 132   109 110 110    96  98  97   105 107 106   112 114 113   110 110 110   112 112 112   139 139 139   132 132 132    86  86  86    80  80  80    96  96  96    78  78  78  
   0   0   0     0   0   0     0   0   0     0   0   0     0   0   0     0   0   0     0   0   0     0   0   0     0   0   0     0   0   0     0   0   0    85  85  85   111 111 111   120 120 120   109 109 109    99  99  99    92  92  92   111 111 111   112 112 112    91  91  91   101 101 101    97  97  97    93  93  93    75  75  75    81  81  81    70  70  70    61  62  64    63  64  66   104 105 107    97  98 100    90  92  90    92  94  93    61  64  63    73  75  74    87  89  88    97  99  98   122 124 121   129 131 130   124 126 123   139 141 138   137 139 136   101 103 101   120 122 121   150 151 153   125 126 128   105 106 108    98  99 101    87  88  90   102 104 105   117 118 120  
   0   0   0     0   0   0     0   0   0     0   0   0     0   0   0     0   0   0     0   0   0     0   0   0     0   0   0     0   0   0    36  38  37    22  22  22    33  33  33    33  33  33    29  29  29    31  31  31    27  27  27    33  33  33    29  29  29    26  26  26    40  40  40    44  44  44    29  29  29    21  21  21    33  33  33    39  39  39    46  47  49    35  36  38    39  40  42    27  28  30    26  27  27    37  39  39    35  37  36    48  50  49    41  42  40    41  43  40    51  52  50    55  57  54    52  54  51    64  66  63    82  85  80    88  90  87    84  86  85    99 100 102    92  93  95    85  86  87    95  96  98   103 105 106   103 104 106    97  98 100  
   0   0   0     0   0   0     0   0   0     0   0   0     0   0   0     0   0   0     0   0   0     0   0   0     0   0   0     0   0   0    39  41  40    41  41  41    57  57  57    59  59  59    49  49  49    48  48  48    49  49  49    53  53  53    60  60  60    63  63  63    68  68  68    81  81  81    69  69  69    75  75  75    80  80  80    90  90  90    78  79  81    83  84  86    79  80  82    80  81  83    78  79  81    78  79  81    91  93  92    95  97  96    92  94  93   100 102 101    97  99  96    90  92  89    95  97  94   108 110 107   116 118 115   118 120 118   113 115 114   124 125 127   136 137 139   109 110 112    96  97  99   113 114 116   118 119 121   123 124 126  
   0   0   0     0   0   0     0   0   0     0   0   0     0   0   0     0   0   0     0   0   0     0   0   0     0   0   0   119 121 120   119 121 120   116 116 116   122 122 122   124 124 124   105 105 105    98  98  98   121 121 121   145 145 145   129 129 129   136 136 136   135 135 135   155 155 155   151 151 151   155 155 155   140 140 140   139 139 139   136 137 139   147 148 150   135 136 138   138 139 141   128 129 132   113 115 117   126 128 127   119 122 121    94  96  95   113 115 114   110 112 108    88  90  87    82  84  81    91  93  90    99 101  98   102 104 103   111 114 113   119 120 122   138 139 141   112 113 115    95  96  98   110 111 113   104 105 107   103 103 105  
   0   0   0     0   0   0     0   0   0     0   0   0     0   0   0     0   0   0     0   0   0     0   0   0     0   0   0   103 107 106   119 121 120   111 111 111   111 111 111   124 124 124   107 107 107    79  79  79    84  84  84    89  89  89    95  95  95    98  98  98    83  83  83    77  77  77    69  69  69    67  67  67    59  59  59    67  67  69    64  65  67    65  66  68    45  46  48    48  50  51    46  47  49    36  37  39    42  44  43    29  31  30    30  32  31    21  23  22    15  17  14    17  19  16    19  22  19    20  21  18    19  21  18    18  20  19    30  32  31    39  39  41    50  51  52    39  40  42    36  37  39    42  43  45    30  31  33    24  25  27  
   0   0   0     0   0   0     0   0   0     0   0   0     0   0   0     0   0   0     0   0   0     0   0   0    61  65  66    75  79  80    68  69  71    59  60  62    50  50  53    65  66  68    61  62  64    48  49  50    56  57  59    51  52  54    45  46  48    55  56  58    55  56  58    45  46  48    51  52  54    38  39  41    33  34  36    39  40  42    32  33  35    36  37  41    36  37  41    40  41  45    39  40  42    34  35  37    36  37  39    33  33  35    37  39  38    38  40  39    56  58  57    63  65  64    45  47  46    36  38  37    42  44  41    40  42  41    36  38  37    57  58  59    47  48  50    37  38  40    33  34  36    21  22  24    26  27  29    36  37  39  
   0   0   0     0   0   0     0   0   0     0   0   0     0   0   0     0   0   0     0   0   0     0   0   0   119 123 124   111 115 116   110 111 113   105 105 107   106 107 109   121 122 124   111 112 114   100 101 103   109 110 112    98  99 101   103 104 106   105 106 108   101 102 104    83  84  86    91  92  93    84  85  87    87  88  90    89  89  92    85  86  90   101 102 106   109 109 114    90  91  95    72  73  76    75  76  78    82  83  84    82  83  85    86  88  88    79  81  81    85  87  86    86  88  87    77  79  78    84  86  85    83  86  83    61  63  62    74  75  77    90  91  93    76  77  79    78  79  81    80  81  83    62  63  65    66  67  69    81  82  84  
   0   0   0     0   0   0     0   0   0     0   0   0     0   0   0     0   0   0     0   0   0    88  92  93    88  92  93    97 101 102    88  89  91    68  69  71    86  87  89   107 108 110    92  93  95    83  84  86    92  93  95    89  90  92    71  72  74    69  70  72    75  76  78    73  74  76    65  66  68    56  57  59    66  67  69    77  78  81    89  90  94    99 100 104    98  99 103    78  79  83    68  69  73    87  88  92    99 100 102    89  90  92    89  90  92    76  77  79    73  75  74    77  79  78    77  79  78    82  84  83    87  89  88    83  85  84    73  74  76    77  78  80    78  79  81    84  85  87    86  87  89    75  76  78    69  70  72    79  80  82  
   0   0   0     0   0   0     0   0   0     0   0   0     0   0   0     0   0   0     0   0   0    75  79  81    72  76  79    82  86  88    87  90  93    75  78  81    82  85  87    95  98 100    92  95  98    90  93  96   102 105 108   114 117 120    96  99 102    91  94  97    97 100 103    98 101 103   108 111 114    86  89  92    95  98 101   116 119 123   100 101 105    85  86  91    96  97 101   122 123 128   125 125 130   109 110 114   102 103 106   101 102 105   105 106 108    94  95  97    97  98  99   107 109 110   108 109 110   108 109 110   112 114 113   113 115 113   118 119 121   122 123 125   114 115 117   108 109 111   109 110 112   105 106 108    97  98 100    95  96  98  
   0   0   0     0   0   0     0   0   0     0   0   0     0   0   0     0   0   0     0   0   0    99 103 106    83  87  90    65  70  72    72  76  79    78  82  85    81  85  88    87  91  94    86  90  93    67  71  74    55  59  62    64  67  71    70  74  77    82  86  89    89  92  96    81  85  88   111 114 117    95  99 102    91  95  98    97 101 104    97  98 103    95  96 101   113 114 119   136 137 142   140 141 145   135 136 140   131 132 136   125 126 130   141 142 144   130 131 133   137 138 140   148 149 151   138 139 141   119 120 122   104 106 105    96  98  97    94  95  97    78  79  81    62  63  65    65  67  69    77  78  79    74  76  78    76  77  79    89  90  92  
   0   0   0     0   0   0     0   0   0     0   0   0     0   0   0     0   0   0     0   0   0    98 101 104    96 100 103    85  88  91    74  78  81    75  79  82    59  63  66    50  54  57    56  60  63    51  55  58    50  54  57    68  72  75    71  75  78    75  79  82    82  86  89    96  99 102   127 131 134   106 110 113    88  92  95    95  99 102    81  82  87    83  84  89    87  88  93    85  86  91    86  87  92    97  98 103   100 101 105    85  86  90    82  83  87    65  66  70    61  62  64    66  67  69    59  60  62    49  50  52    43  43  45    37  38  40    37  38  40    33  34  36    32  33  35    45  46  48    56  57  59    47  48  50    35  36  38    36  37  39  
   0   0   0     0   0   0     0   0   0     0   0   0     0   0   0     0   0   0    84  88  91    79  83  86    80  84  87    79  83  86    64  68  71    64  68  71    51  55  58    46  50  53    56  60  63    58  62  65    58  62  65    67  71  74    69  73  76    73  78  80    59  63  66    59  63  66    61  65  68    64  68  71    48  52  56    47  51  54    47  48  53    37  38  43    41  42  47    51  52  57    53  54  59    52  53  58    44  45  49    30  31  35    48  49  53    37  38  42    33  34  36    33  34  36    31  32  34    38  38  40    47  48  50    48  49  50    33  34  36    47  48  51    53  54  56    56  57  59    70  71  73    79  80  82    74  75  77    70  71  73  
   0   0   0     0   0   0     0   0   0     0   0   0     0   0   0     0   0   0    88  92  95    81  85  88    80  84  87    71  75  78    71  75  78    67  71  74    57  62  65    53  57  60    56  60  63    54  58  61    45  49  52    38  42  45    54  58  61    59  63  66    52  56  59    74  78  81    51  55  58    54  58  61    37  41  44    43  47  50    57  58  63    45  46  51    46  47  52    54  55  60    50  51  56    48  49  54    55  56  60    60  61  65    71  72  76    68  69  73    65  66  68    53  54  56    45  46  48    59  60  62    80  81  83    86  87  89    94  95  97    93  94  96    80  81  83    70  71  73    76  77  79    87  88  90   102 103 105   119 120 122  
   0   0   0     0   0   0     0   0   0     0   0   0     0   0   0     0   0   0   123 129 130   114 119 120   134 139 140   114 120 121   102 107 110    96 100 104    95 102 104   104 109 112    96 103 105    81  86  89    76  81  84    84  89  92    86  91  94    93  98 101   102 106 109   105 109 112   103 107 110   108 112 115    85  89  93    95  98 101   115 117 122   105 107 112   112 116 119   108 111 115    76  79  83    66  69  73    89  92  95   105 108 112   113 116 118   108 111 113   111 114 115   120 124 125   100 103 102    89  92  92   113 116 116   115 118 119   110 112 112   137 138 138   121 122 122   103 105 105    99 101 101    91  93  93   102 104 104   115 117 116  
   0   0   0     0   0   0     0   0   0     0   0   0     0   0   0     0   0   0   120 126 126   102 108 108   119 125 125   123 129 129    93 101 103    84  91  94    84  92  94    99 107 109   109 117 119   106 114 116   104 109 112   107 112 114   114 119 123   117 122 125   115 119 122    95  99 102    92  96  99    95  99 102    89  92  96    94  99 101    86  89  94    72  75  80    77  81  84    87  91  94    86  89  93    88  92  95    88  92  95    75  79  82   103 107 108   100 104 105   100 104 105   113 117 118    99 104 102    89  93  92   107 110 110   100 104 103    94  96  95   135 137 136   119 121 120    95  97  96    89  91  90    85  87  86    97  99  98   104 106 105  
   0   0   0     0   0   0     0   0   0     0   0   0     0   0   0    90  95  98   122 127 130   120 125 128   101 106 109   105 110 113   105 113 115   110 120 121   117 125 127   116 124 126   112 120 122   112 120 122   117 125 127   124 132 134   110 115 118   109 114 117   112 117 120   133 138 141   142 146 149   133 136 139   115 119 121    82  86  89   100 103 108   105 108 113   108 111 116   106 109 114   107 111 114   111 115 118   112 116 119   108 112 115   110 114 115   118 122 123   116 120 121   123 127 128   124 128 129   117 121 122   109 114 112    90  94  93    78  82  81   101 105 104    99 102 102    98 102 101    95  99  98    74  78  77    72  76  75    85  89  88  
   0   0   0     0   0   0     0   0   0     0   0   0     0   0   0   110 116 118   112 118 120   119 125 128   112 118 120   128 136 138   127 137 138   114 124 125   107 116 118   114 123 125   123 131 133   121 129 131   110 118 120   101 110 112   117 122 125   125 130 133   130 135 138   147 152 156   135 139 142   119 123 127   133 137 140   118 121 125   124 128 133   127 131 135   124 128 133   126 130 135   135 139 142   136 141 144   137 141 145   143 147 151   134 138 140   137 141 143   134 139 139   136 140 141   142 147 147   137 141 142   122 127 126   114 118 118   121 125 124   137 141 140   139 143 142   136 140 139   136 140 139   127 131 130   115 119 118   110 114 113  
   0   0   0     0   0   0     0   0   0     0   0   0     0   0   0   124 132 134   101 109 111   116 124 126   119 127 129   122 130 132   133 143 145   121 131 133   120 130 132   131 141 143   135 143 146   122 130 133   114 122 125   116 124 127   129 134 138   124 129 133   118 123 127   134 139 143   138 143 147   136 141 145   145 148 153   128 131 136   128 133 137   130 135 139   137 142 146   143 148 152   135 140 144   120 125 129   121 126 129   134 139 142   128 133 136   121 126 129   120 126 126   119 125 125   124 130 130   127 133 133   124 130 130   132 138 138   127 131 130   124 128 127   125 129 128   120 124 123   123 127 126   129 133 132   123 127 126   123 127 126  
   0   0   0     0   0   0     0   0   0     0   0   0   130 139 140   136 144 146   108 116 118   112 119 122   116 124 126   116 124 126   140 150 152   131 141 143   127 137 139   129 139 142   127 136 139   117 126 128   112 120 123   113 121 124   105 112 115   103 110 113   100 105 109    97 102 106   106 111 115   114 119 123   109 113 118   104 109 113   118 123 128   101 106 111    98 103 107   104 109 113   101 106 110    98 103 107   102 107 110    98 103 107   101 106 109    94  99 102   109 115 117   106 112 114   103 109 109   116 121 121   115 121 121   114 120 120   111 115 116    85  89  89   100 104 105   123 127 128   125 129 130   114 118 119   110 114 114   136 140 141  
   0   0   0     0   0   0     0   0   0     0   0   0    89  97  99    99 107 109   100 108 110   101 109 111    96 104 106    97 106 108    97 107 109   110 120 122   114 124 126   100 110 112    85  95  97    85  95  97   100 108 111   112 120 123   101 109 112   105 113 116   111 116 120    97 102 106   116 121 125   135 140 145   121 126 130   127 132 136   115 120 126   104 109 115   109 114 117   102 107 111    80  85  89    84  89  93    97 102 106    86  91  95    80  85  88    73  78  81    94  99 102    83  88  91    75  81  81   107 113 113   112 119 119   100 106 106    71  76  77    70  74  75    94  98  99    91  95  96    83  87  88    88  92  93    84  88  89    92  96  97  
   0   0   0     0   0   0     0   0   0     0   0   0    40  50  52    28  38  40    36  46  48    50  60  62    59  69  71    65  75  77    65  76  78    73  84  88    72  83  87    73  85  88    82  91  96    73  82  87    68  78  83    86  95 100    87  94 100    95 102 108    98 105 111    95 102 108   100 107 113   109 116 122   106 111 117    92  97 103   107 114 120    97 104 110   108 116 121   124 131 137   119 126 132   117 124 130   118 126 129   109 117 120   121 129 132   112 120 123   109 117 119   114 122 124   114 122 124   106 114 116    99 107 109    99 104 107   113 120 120    90  96  96    97 104 104    96 102 102    92  98  98    92  98  98    76  82  82    80  86  86  
   0   0   0     0   0   0     0   0   0    54  64  66    50  60  62    47  57  58    57  67  69    66  76  78    73  83  84    80  90  92    78  89  93    79  90  94    73  84  88    75  86  90    83  92  97    75  85  90    70  79  84    81  90  95    84  92  98    86  94 100    87  94 100    83  90  96    77  84  90    73  80  86    76  82  88    80  85  91    62  68  75    64  71  78    80  87  93    88  95 101    78  85  91    74  81  87    70  78  81    57  65  69    62  70  73    62  70  73    63  71  73    66  73  76    66  74  76    63  71  73    59  67  69    56  64  66    63  69  69    60  65  66    68  74  75    62  67  68    61  66  67    64  69  70    52  57  58    55  61  62  
   0   0   0     0   0   0     0   0   0    79  89  91    65  75  77    60  70  72    65  75  77    64  74  76    59  69  71    62  71  75    68  79  83    66  77  81    63  74  78    69  80  84    73  84  88    65  76  80    61  70  75    66  75  80    68  77  82    71  80  85    77  84  90    78  85  91    70  77  83    59  66  72    60  67  73    67  74  80    76  83  91    64  71  79    64  71  77    71  78  84    72  79  85    74  81  87    81  88  94    85  92  98    75  83  86    72  80  83    64  72  75    62  70  73    69  77  79    75  83  85    71  79  81    61  69  71    76  82  85    81  86  89    81  86  89    72  77  80    76  81  84    80  85  88    76  81  84    85  90  93  
   0   0   0     0   0   0   111 120 124   102 111 115    86  96 100    84  93  97    93 103 107    95 104 108    92 101 105    97 106 111    98 109 113    93 105 110    94 105 110    97 108 113    92 103 109    85  96 101    85  95 101    90 101 106    77  86  93    84  93  99    90  99 106    95 103 110    97 105 112    96 103 110    90  97 105    85  92  99    91  99 106    94 103 110   100 109 116   107 116 122   110 119 124   108 116 122   108 117 122   112 121 126   110 119 121   108 117 119   101 111 113    99 108 111   108 117 119   119 129 131   118 127 129   109 117 119   119 128 129   114 121 124   107 114 117   112 119 121   118 125 127   114 121 123   117 124 127   130 138 140  
   0   0   0     0   0   0    85  94  99    93 102 107    90  99 104    85  94  99    88  96 101    90  99 104    96 105 110   109 119 123    95 108 113    86  99 105    91 102 108    93 104 110    83  94 100    81  92  98    91 102 108    99 110 116   107 116 123   107 116 123   103 113 119    99 107 114   102 109 117   104 111 119    96 103 111    83  90  98    53  62  69    98 107 114   114 123 130    94 103 110    86  95 100    99 107 112   109 118 123   112 121 126   101 111 113   112 122 124   121 131 133   120 130 132   116 126 128   116 126 128   120 130 131   123 133 134   119 127 129   105 113 115   105 113 115   129 137 139   129 137 139   117 124 127   125 133 135   128 136 138  
   0   0   0     0   0   0    92 103 107    90 101 105    81  91  96    86  97 101   111 122 126   122 133 137   105 116 120    89  99 104    97 110 116    87 100 106    95 108 114   106 119 125   100 110 117    97 108 114   103 115 120   102 113 119   129 138 145   123 132 139   118 127 134   113 122 129   106 115 122   100 109 116    99 106 114   101 108 116    79  88  94   115 124 131   116 126 133    85  94 101    70  79  86    77  86  93    92 101 106   109 119 123    98 107 111   104 113 118   112 122 124   113 123 125   107 117 119   100 110 112   104 114 116   113 123 125   109 117 119    97 105 107   107 115 117   134 142 144   118 126 128   107 115 117   126 135 136   112 119 122  
   0   0   0   128 138 142   114 125 128   134 145 148   140 151 155   132 143 147   128 139 143   125 136 140   118 129 133   113 124 128   122 133 139   119 129 136   122 133 139   132 142 149   126 137 144   118 126 134   114 125 131   103 112 120   101 110 117    95 104 112   100 109 116   104 112 119   100 109 116    86  95 102    94 102 109   108 115 123    79  88  96    92 101 108   101 110 117    97 106 113    92 101 108    82  92  96    83  92  96   106 116 118    95 106 107    91 102 103    91 101 102   100 111 112   106 116 118   104 115 117   104 115 117   111 121 123   108 117 119   102 110 112   117 125 127   131 139 141   105 113 115   104 112 114   127 135 138   108 116 118  
   0   0   0   116 126 128   121 131 133   123 133 135   119 130 134   117 128 132   123 134 138   131 142 146   127 138 142   115 125 130   115 123 130   134 142 152   123 131 140   126 134 143   130 138 147   119 126 136   120 128 137   116 123 133   110 117 127    99 106 116   105 112 120   101 108 116   108 115 123    94 101 109   105 112 120   112 119 127   107 115 125    93 101 111    98 107 114    89  98 105    84  93  97    87  97  99    86  96  97   106 116 116    82  94  93    95 107 106   103 115 114   107 119 119   110 121 123   113 124 127   108 121 124   108 119 123   109 119 121   104 112 115   119 127 130   124 132 135   109 117 120   112 120 123   117 125 128    99 107 110  
  82  92  93    81  91  93    89  99 103    84  93  97    78  87  92    79  89  94    87  97 102    90 100 104    81  90  95    69  78  83    76  83  91    95 102 110    81  88  96    81  88  97    95 102 110    86  93 102    80  87  96    80  87  96    87  94 102    84  90  99    91  98 106    91  98 106   103 110 118    98 105 113   104 111 118   102 109 117   106 113 123    91  95 106    89  96 104    84  92  99    84  93  96    84  93  95    73  83  84    78  88  89    61  72  70    68  79  78    79  91  91    75  87  87    63  76  78    60  73  77    69  83  86    74  85  89    75  85  87    62  71  74    67  77  79    77  86  89    77  86  88    83  92  95    76  85  88    48  58  60  
  72  82  84    62  72  74    68  77  82    75  84  89    85  94  99    84  93  98    73  82  87    62  69  75    61  70  75    69  76  82    80  87  95    89  97 104    68  75  83    63  70  78    88  95 103    93 100 108    87  95 102    96 103 111    87  94 102    93  99 108    98 105 113    94 101 109    94 101 109    89  96 104    82  90  95    72  77  83    28  33  42    30  33  42    36  40  49    38  43  49    32  38  42    23  31  34    17  25  27    21  31  32    33  43  44    13  23  24    17  29  29    19  30  32    14  28  31     4  15  21    16  28  34    23  36  41    28  39  43    22  32  34    24  34  36    25  35  37    21  31  33    27  37  39    31  41  43    20  30  32  
   0   0   0     0   0   0    34  43  48    33  42  47    34  42  47    36  42  49    32  38  46    26  31  40    22  29  36    24  28  37    39  44  50    61  66  72    68  73  79    62  67  72    67  72  78    66  71  77    64  69  75    82  87  93    62  67  73    70  75  80    65  70  76    55  60  66    44  49  55    47  52  58    45  50  56    43  48  54    53  55  62    57  57  65    52  54  61    48  51  58    40  43  48    34  39  43    43  48  51    48  56  58    63  73  74    61  71  74    69  80  82    61  72  76    77  91  94    80  93  99    90 103 109    78  91  98    72  84  87    75  86  90    74  85  89    63  73  78    48  59  63    47  58  62     0   0   0     0   0   0  
   0   0   0     0   0   0     0   0   0    37  46  50    35  42  48    37  42  48    41  46  54    44  48  56    40  43  52    32  36  44    28  33  39    31  36  41    41  46  51    32  37  42    27  32  38    31  36  42    25  30  35    31  36  41    19  24  30    31  36  42    31  36  42    35  40  46    25  30  36    31  36  42    27  32  38    29  32  39    31  32  39    34  34  41    24  24  31    28  28  36    28  31  36    23  26  31    27  32  35    21  26  30    22  30  33    21  30  35    35  46  50    44  56  62    90 103 109    77  90  97    80  93 101    83  96 105    76  87  91    82  93  97    83  94  98    77  88  92     0   0   0     0   0   0     0   0   0     0   0   0  
   0   0   0     0   0   0     0   0   0     0   0   0     0   0   0     0   0   0    71  75  82    70  73  80    50  53  60    26  29  36    34  39  43    18  23  27    34  39  43    27  32  36    18  23  27    35  40  44    37  42  46    36  41  45    31  36  42    38  43  49    34  39  45    46  51  57    36  41  47    40  45  51    28  33  39    31  34  41    38  39  44    45  44  50    33  32  38    40  39  45    41  42  47    32  35  40    39  44  48    29  34  39    24  31  36    15  23  29    14  25  30    26  37  43   102 115 122    94 107 115    87 100 108    91 104 111    94 105 109     0   0   0     0   0   0     0   0   0     0   0   0     0   0   0     0   0   0     0   0   0  
   0   0   0     0   0   0     0   0   0     0   0   0     0   0   0     0   0   0     0   0   0     0   0   0     0   0   0     0   0   0     0   0   0     0   0   0    42  49  52    46  53  56    37  44  48    35  42  45    48  54  60    47  54  59    31  38  43    52  58  64    37  43  51    44  50  57    51  57  65    41  48  55    39  46  53    52  56  64    58  61  67    53  53  60    37  36  44    43  42  50    53  55  62    44  47  54    37  42  48    40  44  52    37  44  52    41  48  55    22  33  39    23  34  40    77  89  95    88 100 106    79  92  99     0   0   0     0   0   0     0   0   0     0   0   0     0   0   0     0   0   0     0   0   0     0   0   0     0   0   0  
   0   0   0     0   0   0     0   0   0     0   0   0     0   0   0     0   0   0     0   0   0     0   0   0     0   0   0     0   0   0     0   0   0     0   0   0     0   0   0     0   0   0     0   0   0     0   0   0     0   0   0     0   0   0     0   0   0     0   0   0     0   0   0     0   0   0     0   0   0     0   0   0     0   0   0     0   0   0     0   0   0     0   0   0     0   0   0     0   0   0     0   0   0    51  54  63    44  48  57    46  53  61    40  47  55    53  62  69    26  37  43    10  21  27     0   0   0     0   0   0     0   0   0     0   0   0     0   0   0     0   0   0     0   0   0     0   0   0     0   0   0     0   0   0     0   0   0     0   0   0  
