P3
57 62
255
   0   0   0     0   0   0     0   0   0     0   0   0     0   0   0     0   0   0     0   0   0     0   0   0     0   0   0     0   0   0     0   0   0     0   0   0     0   0   0     0   0   0     0   0   0     0   0   0     0   0   0     0   0   0     0   0   0     0   0   0    45  19  20    45  19  20    45  19  20    45  19  20    45  19  22    45  19  22    45  19  22    45  19  22    45  19  22    45  19  22    45  19  22    45  19  22    48  22  25    48  22  25    47  22  25     0   0   0     0   0   0     0   0   0     0   0   0     0   0   0     0   0   0     0   0   0     0   0   0     0   0   0     0   0   0     0   0   0     0   0   0     0   0   0     0   0   0     0   0   0     0   0   0     0   0   0     0   0   0     0   0   0     0   0   0     0   0   0     0   0   0  
   0   0   0     0   0   0     0   0   0     0   0   0     0   0   0     0   0   0     0   0   0     0   0   0     0   0   0     0   0   0     0   0   0     0   0   0     0   0   0     0   0   0     0   0   0     0   0   0     0   0   0     0   0   0     0   0   0     0   0   0    45  19  20    45  19  20    45  19  20    45  19  20    45  19  22    45  19  22    45  19  22    45  19  22    45  19  22    45  19  22    45  19  22    45  19  22    48  22  25    48  22  25    48  22  25     0   0   0     0   0   0     0   0   0     0   0   0     0   0   0     0   0   0     0   0   0     0   0   0     0   0   0     0   0   0     0   0   0     0   0   0     0   0   0     0   0   0     0   0   0     0   0   0     0   0   0     0   0   0     0   0   0     0   0   0     0   0   0     0   0   0  
  45  21  19    45  21  19    46  20  19    46  20  19    48  20  19    48  20  19    48  20  19    48  20  19    45  19  20    45  19  20    45  19  20    45  19  20    45  19  20    45  19  20    45  19  20    45  19  20    45  19  20    45  19  20    45  19  20    45  19  20    45  19  20    45  19  20    45  19  20    45  19  20    44  19  22    44  19  22    43  18  21    43  18  21    44  18  21    44  18  21    47  18  22    47  18  22    49  20  24    50  19  24    50  19  24    50  19  24    51  19  24    51  19  24    51  19  24    51  19  24    51  19  24    53  18  24    53  18  24    53  18  24    53  18  24    53  18  24    53  18  24    53  18  24    54  19  25    54  19  25     0   0   0     0   0   0     0   0   0     0   0   0     0   0   0     0   0   0     0   0   0  
  45  20  19    45  20  19    45  20  19    45  20  19    48  20  19    48  20  19    49  19  19    49  19  19    45  19  20    45  19  20    45  19  20    45  19  20    45  19  20    45  19  20    45  19  20    45  19  20    45  19  20    45  19  20    45  19  20    45  19  20    45  19  20    45  19  20    45  19  20    45  19  20    42  20  22    42  20  22    43  18  21    43  18  21    44  18  21    44  18  21    47  18  22    47  18  22    50  19  24    50  19  24    51  19  24    51  19  24    53  18  24    53  18  24    53  18  24    53  18  24    54  17  24    54  17  24    54  17  24    54  17  24    53  18  24    53  18  24    53  18  24    53  18  24    54  19  25    54  19  25     0   0   0     0   0   0     0   0   0     0   0   0     0   0   0     0   0   0     0   0   0  
  44  20  18    44  20  18    45  20  18    45  19  18    47  19  18    47  19  18    48  18  18    48  18  18    45  19  20    45  19  20    45  19  20    45  19  20    45  19  20    45  19  20    45  19  20    45  19  20    45  19  20    45  19  20    45  19  20    45  19  20    45  19  20    45  19  20    45  19  20    45  19  20    43  20  22    42  20  22    43  18  21    43  18  21    44  18  21    44  18  21    47  18  22    47  18  22    50  20  24    50  19  24    51  19  24    51  19  24    52  19  24    53  18  24    53  18  24    53  18  24    53  18  24    53  18  24    53  18  24    53  18  24    53  18  24    53  18  24    53  18  24    53  18  24    54  19  25    54  19  25     0   0   0     0   0   0     0   0   0     0   0   0     0   0   0     0   0   0     0   0   0  
  42  20  19    44  20  19    44  20  19    45  19  19    47  18  19    47  18  19    48  18  19    48  18  19    45  19  20    45  19  20    45  19  20    45  19  20    45  19  20    45  19  20    45  19  20    45  19  20    45  19  20    45  19  20    45  19  20    45  19  20    45  19  20    45  19  20    45  19  20    45  19  20    44  19  22    43  19  22    43  18  21    43  18  21    44  18  21    44  18  21    46  19  22    47  18  22    49  20  24    50  19  24    50  19  24    51  19  24    51  19  24    51  19  24    51  19  24    51  19  24    51  19  24    51  19  24    51  19  24    51  19  24    51  19  24    51  19  24    51  19  24    51  19  24    52  20  25    52  20  25     0   0   0     0   0   0     0   0   0     0   0   0     0   0   0     0   0   0     0   0   0  
  41  20  19    41  20  19    43  19  19    43  19  19    44  18  19    46  17  19    46  17  19    46  17  19    45  19  20    45  19  20    45  19  20    45  19  20    45  19  20    45  19  20    45  19  20    45  19  20    45  19  20    45  19  20    45  19  20    45  19  20    45  19  20    45  19  20    45  19  20    45  19  20    44  19  22    44  19  22    43  18  21    43  18  21    44  18  21    44  18  21    45  19  22    45  19  22    49  20  24    49  20  24    50  19  24    50  19  24    50  19  24    51  19  24    51  19  24    51  19  24    51  19  24    51  19  24    51  19  24    51  19  24    51  19  24    51  19  24    51  19  24    51  19  24    52  20  25    52  20  25     0   0   0     0   0   0     0   0   0     0   0   0     0   0   0     0   0   0     0   0   0  
  41  20  19    41  20  19    43  19  19    43  19  19    44  18  19    46  17  19    46  17  19    46  17  19    45  19  20    45  19  20    45  19  20    45  19  20    45  19  20    45  19  20    45  19  20    45  19  20    45  19  20    45  19  20    45  19  20    45  19  20    45  19  20    45  19  20    45  19  20    45  19  20    44  19  22    44  19  22    43  18  21    43  18  21    43  18  21    43  18  21    45  19  22    45  19  22    49  20  24    49  20  24    49  20  24    50  19  24    50  19  24    50  19  24    50  19  24    50  19  24    50  19  24    50  19  24    50  19  24    50  19  24    51  19  24    51  19  24    51  19  24    51  19  24    52  20  25    52  20  25     0   0   0     0   0   0     0   0   0     0   0   0     0   0   0     0   0   0     0   0   0  
  39  19  18    40  18  18    40  18  18    42  17  18    43  17  18    43  17  18    45  16  18    45  16  18    44  18  19    44  18  19    45  19  20    45  19  20    45  19  20    45  19  20    45  19  20    44  18  19    45  19  20    45  19  20    45  19  20    45  19  20    45  19  20    45  19  20    45  19  20    45  19  20    44  19  22    44  19  22    43  18  21    43  18  21    43  18  21    43  18  21    45  19  22    45  19  22    49  21  24    49  21  24    49  21  24    49  20  24    49  20  24    50  19  24    49  19  24    49  19  24    50  20  24    50  20  24    50  20  24    50  19  24    50  19  24    51  19  24    51  19  24    51  19  24    52  20  25    52  20  25     0   0   0     0   0   0     0   0   0     0   0   0     0   0   0     0   0   0     0   0   0  
  36  16  17    37  16  17    37  15  17    38  15  17    40  14  17    40  14  17    41  14  17    42  13  17    43  17  18    43  17  18    45  19  20    46  20  21    46  20  21    45  19  20    44  18  19    44  18  19    46  20  21    46  20  21    46  20  21    46  20  21    46  20  21    45  19  20    45  19  20    45  19  20    44  19  22    44  19  22    44  19  22    44  19  22    44  19  22    44  19  22    45  19  22    45  19  22    48  22  25    48  22  25    48  22  25    48  21  24    49  20  24    49  20  24    49  20  24    49  20  24    50  21  25    50  21  25    50  21  25    51  21  25    51  21  25    51  20  25    51  20  25    51  20  25    52  20  25    51  19  24     0   0   0     0   0   0     0   0   0     0   0   0     0   0   0     0   0   0     0   0   0  
  36  16  17    36  16  17    37  15  17    37  15  17    39  14  17    40  14  17    40  14  17    41  14  17    41  15  16    42  16  17    43  17  18    44  18  19    45  19  20    45  19  20    45  19  20    45  19  20    45  19  20    45  19  20    45  19  20    45  19  20    45  19  20    45  19  20    45  19  20    45  19  20    44  19  22    44  19  22    44  19  22    44  19  22    44  19  22    44  19  22    44  19  22    44  19  22    46  20  23    46  20  23    46  20  23    47  21  24    47  20  24    47  20  24    48  21  25    48  21  25    48  22  25    48  22  25    48  22  25    50  21  25    50  21  25    50  20  25    51  20  25    51  20  25    52  20  25    51  19  24     0   0   0     0   0   0     0   0   0     0   0   0     0   0   0     0   0   0     0   0   0  
  36  16  17    36  16  17    37  15  17    37  15  17    39  14  17    39  14  17    40  14  17    40  14  17    40  14  15    41  15  16    42  16  17    43  17  18    44  18  19    44  18  19    45  19  20    45  19  20    45  19  20    45  19  20    45  19  20    45  19  20    45  19  20    45  19  20    45  19  20    45  19  20    44  19  22    44  19  22    44  19  22    44  19  22    44  19  22    44  19  22    44  19  22    44  19  22    43  18  21    43  18  21    45  19  22    46  20  23    47  21  24    48  22  25    48  22  25    49  23  26    47  21  24    47  21  24    47  21  24    47  21  24    47  21  24    49  20  24    49  20  24    50  19  24    51  20  25    51  19  24     0   0   0     0   0   0     0   0   0     0   0   0     0   0   0     0   0   0     0   0   0  
  36  16  18    36  16  18    37  15  18    37  15  18    39  14  18    39  14  18    40  13  18    40  14  17    40  14  15    40  14  15    41  15  16    41  15  16    42  16  17    43  17  18    44  18  19    45  19  20    44  18  19    44  18  19    44  18  19    44  18  19    45  19  20    45  19  20    45  19  20    46  20  21    45  19  22    45  19  22    44  19  22    44  19  22    44  19  22    44  19  22    44  19  22    44  19  22    42  17  20    43  18  21    43  18  21    45  20  23    46  21  24    47  22  25    47  22  25    48  23  26    46  21  24    46  21  24    46  21  24    47  21  24    47  21  24    49  20  24    49  20  24    50  19  24    51  20  25    50  19  24     0   0   0     0   0   0     0   0   0     0   0   0     0   0   0     0   0   0     0   0   0  
   0   0   0     0   0   0     0   0   0     0   0   0     0   0   0     0   0   0     0   0   0    40  13  18    40  14  15    40  14  15    40  14  15    40  14  15    40  15  15    42  15  17    43  17  18    44  18  19    43  17  18    43  17  18    43  17  18    44  18  19    45  19  20    45  19  20    45  19  20    46  20  21    45  19  22    45  19  22    44  19  22    44  19  22    44  19  22    44  19  22    44  19  22    44  19  22    42  17  20    43  18  21    43  18  21    44  19  22    44  20  23    45  21  24    46  22  25    46  22  25    45  21  24    45  21  24    45  20  24    45  20  24    47  20  24    47  20  24    49  20  24    49  20  24    51  20  25    50  19  24     0   0   0     0   0   0     0   0   0     0   0   0     0   0   0     0   0   0     0   0   0  
   0   0   0     0   0   0     0   0   0     0   0   0     0   0   0     0   0   0     0   0   0    40  13  18    42  16  17    41  15  16    40  14  15    40  14  15    40  14  15    41  15  16    42  16  17    43  17  18    42  16  17    43  17  18    43  17  18    44  18  19    44  18  19    45  19  20    45  19  20    46  20  21    45  19  22    45  19  22    44  19  22    44  19  22    44  19  22    44  19  22    44  19  22    44  19  22    43  19  20    43  18  21    44  19  21    44  19  22    44  21  22    45  21  24    44  23  23    45  22  24    43  21  23    44  21  23    45  20  23    45  20  23    46  20  23    46  20  23    48  19  23    48  19  23    51  21  25    50  19  24     0   0   0     0   0   0     0   0   0     0   0   0     0   0   0     0   0   0     0   0   0  
   0   0   0     0   0   0     0   0   0     0   0   0     0   0   0     0   0   0     0   0   0    41  13  18    41  15  16    40  14  14    40  14  13    40  14  13    40  14  13    40  14  13    41  15  14    41  15  14    41  15  14    39  13  13    39  13  14    41  15  16    43  17  18    45  19  20    44  18  19    44  18  19    45  19  21    45  19  21    45  19  21    45  19  21    45  19  21    45  19  21    45  19  21    45  19  21    43  17  17    43  17  19    44  18  18    44  18  20    44  19  18    44  18  20    42  19  18    44  18  20    44  20  23    45  19  24    45  18  23    44  18  22    45  19  22    46  20  23    47  20  24    48  21  24    47  20  22    48  19  22     0   0   0     0   0   0     0   0   0     0   0   0     0   0   0     0   0   0     0   0   0  
   0   0   0     0   0   0     0   0   0     0   0   0     0   0   0     0   0   0     0   0   0    42  13  18    40  14  15    40  14  13    40  14  13    40  14  13    40  14  13    40  14  13    40  14  13    40  14  13    41  15  14    39  13  12    39  13  14    41  15  16    44  18  19    45  19  20    45  19  20    43  17  18    45  19  20    45  19  20    45  19  20    45  19  20    45  19  20    45  19  20    44  18  17    44  18  17    44  18  17    44  18  17    45  19  18    45  19  18    45  19  18    45  19  18    44  18  17    44  18  19    43  17  20    43  16  21    43  16  21    44  17  22    44  18  21    45  19  22    46  20  23    47  21  24    48  22  23    48  22  23    48  22  23    48  22  23    48  22  21    48  22  21    48  22  21    48  22  21    47  23  23  
   0   0   0     0   0   0     0   0   0     0   0   0     0   0   0     0   0   0     0   0   0    40  13  18    40  14  15    40  14  13    40  14  13    40  14  13    40  14  13    40  14  13    40  14  13    40  14  13    42  16  17    41  15  16    41  15  16    42  16  17    44  18  19    45  19  20    45  19  20    44  18  19    45  19  20    45  19  20    45  19  20    45  19  20    44  18  19    44  18  19    44  18  19    44  18  19    43  17  16    43  17  16    43  17  16    44  18  17    44  18  17    43  17  16    43  17  16    43  17  18    40  14  17    41  14  19    42  15  20    43  16  21    44  18  21    45  19  22    45  19  22    45  19  22    48  22  23    47  21  22    47  21  22    46  20  21    46  20  19    47  21  19    47  21  20    48  22  21    46  22  22  
   0   0   0     0   0   0     0   0   0     0   0   0     0   0   0     0   0   0     0   0   0    40  13  18    40  14  16    40  14  13    40  14  13    40  14  13    40  14  13    40  14  13    40  14  13    40  14  13    43  17  18    43  17  18    43  17  18    44  18  19    45  19  20    45  19  20    45  19  20    45  19  20    45  19  20    45  19  20    45  19  20    44  18  19    44  18  19    44  18  19    43  17  18    43  17  18    40  14  13    40  14  13    40  15  14    40  15  14    40  15  14    40  15  14    40  14  13    40  14  15    39  13  16    40  13  18    42  15  20    44  17  22    45  19  22    45  19  22    45  19  22    45  19  22    45  19  20    44  18  19    44  18  19    44  18  19    44  18  17    44  18  17    44  18  17    45  19  18    44  20  20  
   0   0   0     0   0   0     0   0   0     0   0   0     0   0   0     0   0   0     0   0   0    39  14  18    40  14  17    40  14  15    40  14  15    40  14  15    40  14  15    40  14  15    40  14  15    40  14  15    44  18  19    45  19  20    46  20  21    45  19  20    44  18  19    44  18  19    44  18  19    45  19  20    46  20  21    45  19  20    45  19  20    44  18  19    43  17  18    43  17  18    42  16  17    42  16  17    40  14  15    40  14  15    41  15  16    41  15  16    41  15  16    41  15  16    40  14  15    40  14  16    40  13  17    41  14  19    42  15  20    44  17  22    45  19  22    46  20  23    46  20  23    45  19  22    44  18  19    44  18  19    44  18  19    44  18  19    44  18  17    44  18  17    44  18  17    44  18  17    45  21  21  
   0   0   0     0   0   0     0   0   0     0   0   0     0   0   0     0   0   0     0   0   0    39  14  18    39  14  17    40  14  16    40  14  16    40  14  16    40  14  16    40  14  16    40  14  15    40  14  15    44  18  19    45  19  20    46  20  21    45  19  20    42  16  17    41  16  16    42  16  16    44  18  17    46  20  20    45  19  18    45  19  20    44  18  19    43  17  18    42  16  17    41  15  16    41  15  16    41  15  16    41  15  16    42  16  18    42  16  18    42  16  18    42  16  18    41  15  17    41  15  18    40  14  19    41  14  19    41  14  19    41  15  20    42  16  20    43  17  21    44  18  21    44  18  21    41  16  16    42  16  17    44  18  19    45  20  20    45  20  19    44  18  17    42  16  16    41  16  15    43  18  19  
   0   0   0     0   0   0     0   0   0     0   0   0     0   0   0     0   0   0     0   0   0    37  14  20    39  14  18    40  14  17    40  14  17    40  14  17    40  14  17    40  14  17    40  14  15    40  14  15    43  17  18    45  19  20    46  20  21    45  19  20    42  16  17    40  14  15    41  15  14    43  17  16    46  20  19    45  19  18    45  19  20    44  18  19    43  17  18    42  16  17    41  15  16    41  15  16    39  13  14    40  14  17    40  14  17    41  15  18    41  15  18    40  14  17    40  14  17    39  13  16    41  14  19    40  13  18    40  13  18    39  12  17    40  14  17    41  15  18    42  16  19    43  17  20    38  12  13    40  14  15    43  17  18    45  19  20    45  19  18    43  17  16    40  14  13    38  12  11    39  13  14  
   0   0   0     0   0   0     0   0   0     0   0   0     0   0   0     0   0   0     0   0   0    38  15  21    39  14  18    39  14  18    39  14  18    38  13  17    38  13  17    38  13  17    38  13  16    38  13  16    44  20  20    43  19  19    43  19  19    41  17  17    40  16  14    39  15  13    38  14  12    38  14  12    45  19  18    44  18  17    43  17  16    42  16  15    41  15  16    40  14  15    40  14  15    40  14  15    40  14  17    40  14  17    40  14  17    41  14  19    41  14  19    40  13  18    40  13  18    39  12  17    40  13  18    40  13  18    40  13  18    40  13  18    40  14  17    41  15  18    41  15  18    41  15  18    40  14  15    42  16  17    44  18  19    45  19  20    45  19  18    43  17  16    41  15  14    40  14  13    41  15  16  
   0   0   0     0   0   0     0   0   0     0   0   0     0   0   0     0   0   0     0   0   0    38  15  21    39  14  18    39  14  18    39  14  18    39  14  18    39  14  18    39  14  18    39  14  17    38  13  16    42  18  19    42  18  19    42  18  18    41  17  17    40  16  14    40  16  14    39  15  13    39  15  13    43  17  16    43  17  15    42  15  15    41  15  14    41  15  16    41  15  16    41  15  17    41  15  18    42  16  20    41  15  19    41  14  19    41  14  19    40  13  18    40  13  18    40  13  18    40  13  19    41  14  19    41  14  19    41  14  19    41  14  19    41  15  18    41  15  18    41  15  18    41  15  18    40  14  15    41  15  16    42  16  17    43  17  18    43  17  16    43  17  15    42  16  15    41  16  15    42  16  17  
   0   0   0     0   0   0     0   0   0     0   0   0     0   0   0     0   0   0     0   0   0    39  15  21    39  14  20    39  14  20    39  14  20    40  15  21    40  15  19    40  15  19    40  15  19    40  15  19    41  16  19    41  16  19    41  17  17    41  17  17    40  16  14    40  16  14    40  16  14    40  16  14    42  16  15    42  16  15    41  15  14    41  15  14    41  15  16    41  15  16    42  16  19    43  17  20    45  19  23    44  17  22    43  16  21    41  14  20    40  13  20    40  13  20    41  14  21    41  14  21    42  15  20    42  15  20    41  14  19    41  14  19    41  15  18    41  15  18    41  15  18    41  15  18    41  15  16    41  15  16    41  15  16    41  15  16    42  16  15    42  16  15    43  17  16    44  18  17    43  17  18  
   0   0   0     0   0   0     0   0   0     0   0   0     0   0   0     0   0   0     0   0   0    38  13  19    38  12  20    37  14  21    37  14  21    38  14  22    38  15  20    38  15  20    38  15  19    38  15  19    38  15  17    38  15  17    38  16  15    38  17  16    38  17  14    38  17  14    38  17  14    40  17  15    40  14  13    40  14  13    40  14  13    40  14  13    40  14  15    41  15  16    42  16  19    43  17  20    46  19  24    45  18  23    43  16  22    41  14  21    40  13  20    40  13  21    41  14  22    41  14  21    40  13  18    40  13  18    40  13  18    40  13  18    40  14  17    39  13  16    39  13  16    39  13  16    41  15  16    40  15  15    40  14  15    40  14  15    40  14  13    42  16  15    44  18  17    45  19  18    44  18  19  
   0   0   0     0   0   0     0   0   0     0   0   0     0   0   0     0   0   0     0   0   0    38  11  18    37  11  20    35  12  20    36  13  21    36  13  21    37  14  20    37  14  20    38  16  19    38  16  19    37  15  17    37  15  17    37  16  15    37  16  15    38  17  14    38  17  14    38  17  14    40  16  14    39  15  13    40  14  13    40  14  13    40  14  13    40  14  15    41  15  16    42  16  19    42  16  19    44  17  22    43  16  21    42  15  22    41  14  21    40  13  22    40  13  22    40  13  22    41  14  23    39  12  19    39  12  17    40  13  18    40  13  18    40  14  17    41  15  18    41  15  18    41  15  18    43  17  18    42  16  17    41  15  16    41  15  16    42  16  15    43  17  16    44  18  17    45  19  18    45  19  20  
  35  14  21    35  14  21    35  12  18    34  11  17    36  11  17    37  10  17    37  10  17    38  11  18    36  10  19    34  11  21    34  11  19    35  12  20    36  13  19    36  13  19    37  15  18    37  15  18    37  15  17    37  15  17    37  16  15    37  16  15    37  16  13    37  16  13    37  16  13    39  15  13    39  15  13    40  14  13    40  14  13    39  13  12    40  14  15    40  14  15    41  15  18    41  15  18    42  15  20    41  14  19    41  14  21    41  14  21    40  13  22    40  13  22    40  12  24    40  13  22    40  13  20    40  13  18    41  14  19    42  15  20    42  16  19    43  17  20    44  18  21    44  18  21    44  18  19    44  18  19    43  17  18    43  17  18    43  17  16    44  18  17    44  18  17    44  18  17    45  19  20  
  36  15  22    37  13  21    35  11  18    36  11  18    36  10  17    37  10  18    37  10  17    36   9  19    36   9  21    36   9  21    36  10  19    36  10  19    37  11  18    36  13  19    37  14  17    37  15  18    38  16  18    38  16  18    37  16  15    36  16  15    36  17  13    36  17  13    36  17  13    37  16  13    39  16  14    38  15  13    38  15  13    38  15  12    38  15  15    40  15  16    41  15  17    41  15  18    41  13  18    41  13  18    41  13  20    43  13  20    43  12  23    42  12  22    42  12  24    41  11  21    42  14  20    41  15  19    42  16  20    43  16  20    44  18  21    45  19  22    45  20  23    46  20  23    45  19  21    45  19  21    45  19  21    44  18  20    44  18  20    44  18  20    44  18  18    44  18  19    45  19  20  
  39  15  23    38  12  21    36  10  19    36  10  19    38  12  21    39  13  22    38  12  21    37   9  21    38   9  21    38   9  21    38   9  19    38   9  19    37  10  17    39  13  19    39  14  18    40  16  20    38  16  18    37  17  18    37  18  16    36  18  16    35  19  14    35  19  14    35  19  14    36  18  14    36  17  13    37  17  13    37  17  13    38  17  14    38  17  16    41  17  17    42  16  19    42  16  19    42  13  18    42  13  18    43  12  20    43  12  20    44  11  22    44  11  22    44  11  24    43  11  22    44  15  20    42  16  19    43  17  20    43  17  20    44  18  21    45  19  22    45  19  22    45  19  22    45  19  22    45  19  22    45  19  22    45  19  22    45  19  22    45  19  22    45  19  21    45  19  21    45  19  20  
  42  15  23    41  14  22    39  12  20    40  13  21    41  14  22    41  15  22    40  14  21    39  12  22    38   8  18    38   8  18    38   8  18    39   9  19    38  10  18    39  12  19    40  15  19    40  15  19    37  15  17    37  16  17    36  16  15    36  16  15    35  17  13    35  17  13    33  18  13    35  17  13    35  17  13    36  17  13    37  16  13    37  16  13    38  17  16    40  16  16    41  15  18    41  15  18    42  13  18    42  13  18    43  12  20    43  12  20    44  11  22    44  11  22    44  10  22    43  12  21    41  12  17    40  14  17    42  16  19    44  18  20    45  19  22    45  19  22    45  19  22    44  18  21    45  19  22    45  19  22    45  19  22    45  19  22    45  19  22    45  19  22    45  19  22    45  19  22    45  19  20  
  40  13  20    40  13  20    40  13  20    40  13  20    40  13  20    40  13  20    39  12  17    38  11  18    41  11  19    41  11  21    41  11  21    41  11  21    40  13  20    40  13  20    39  14  18    40  15  19    37  15  17    37  15  17    36  16  15    36  16  15    35  17  13    35  17  13    33  18  13    35  17  13    36  17  13    36  17  13    37  16  13    37  16  13    39  15  15    40  16  16    41  15  18    41  15  18    42  13  18    42  13  18    43  12  20    43  12  20    43  12  20    44  11  22    44  11  22    43  12  20    40  11  16    40  14  17    42  16  19    44  18  21    45  19  22    45  19  22    44  18  21    44  18  21    45  19  22    45  19  22    45  19  22    45  19  22    45  19  22    45  19  22    45  19  22    45  19  22    45  19  20  
  41  11  19    41  11  19    42  13  18    42  13  18    42  13  18    41  12  17    40  11  15    40  11  16    46  16  24    46  16  24    45  15  23    45  15  23    42  15  20    41  14  19    40  15  19    39  14  18    38  16  18    38  16  18    37  17  16    37  17  16    37  18  14    37  18  14    36  18  14    36  18  14    37  18  14    38  17  14    38  17  14    38  17  14    40  16  16    40  16  16    41  15  18    41  15  18    42  13  18    42  13  18    42  13  18    43  12  20    43  12  20    43  12  20    43  12  20    43  12  20    41  12  17    40  14  17    41  15  18    43  17  20    44  18  21    44  18  21    44  18  21    44  18  21    45  19  22    45  19  22    45  19  22    45  19  22    45  19  22    45  19  22    45  19  22    45  19  22    45  19  20  
  41  11  19    43  14  21    46  16  21    46  16  21    44  15  19    42  13  17    42  13  17    42  13  17    46  17  22    47  17  24    47  18  25    46  17  24    44  17  22    43  16  21    41  16  20    41  16  19    40  17  19    40  17  19    39  18  17    39  18  17    39  19  16    39  19  16    38  20  16    38  20  16    41  20  16    41  19  16    41  19  16    40  18  16    41  17  17    41  17  17    42  16  19    42  16  19    41  13  17    41  13  18    42  13  18    42  13  18    43  12  19    43  12  19    43  12  19    43  12  18    42  16  19    41  16  18    41  15  18    41  15  18    41  15  18    42  16  19    43  17  20    43  17  20    45  19  22    45  19  22    45  19  22    45  19  22    45  19  22    45  19  22    45  19  22    45  19  22    45  19  20  
  42  13  18    45  16  21    47  18  22    47  18  22    45  16  18    43  14  16    43  14  15    43  14  16    44  15  19    45  16  21    44  17  22    45  18  23    45  18  23    45  18  23    44  19  22    43  18  21    43  19  19    43  19  19    41  20  19    41  20  19    41  20  17    41  20  17    41  21  17    41  21  17    44  21  19    44  20  18    44  20  18    44  20  18    43  19  19    43  19  19    43  17  18    43  17  19    40  14  17    40  14  17    42  13  18    42  13  18    42  13  18    42  13  18    43  12  18    43  13  18    45  19  22    44  18  21    41  15  18    40  14  17    40  14  17    41  15  18    42  16  19    43  17  20    45  19  22    45  19  22    45  19  22    45  19  22    45  19  22    45  19  22    45  19  22    45  19  22    45  19  20  
  42  13  18    43  14  18    45  16  18    46  16  19    45  17  16    44  15  15    42  14  13    41  12  15    43  16  20    44  17  20    44  17  21    44  18  21    44  18  21    45  19  22    45  19  21    44  19  20    44  20  20    44  20  20    44  20  20    44  20  20    44  20  20    44  20  20    44  20  18    44  20  18    45  22  20    45  21  19    45  20  20    45  20  20    45  20  20    44  19  20    44  18  19    44  18  19    40  14  16    40  15  18    43  14  18    43  14  18    42  13  17    42  13  17    44  14  19    44  15  19    44  18  21    43  17  20    42  15  19    41  15  18    41  15  18    41  15  18    43  17  20    44  18  20    43  17  21    45  19  22    46  20  23    45  20  23    44  18  21    44  18  21    45  19  22    46  20  23    41  15  16  
  40  14  17    43  14  18    42  16  17    44  15  17    42  16  15    43  15  14    40  14  13    39  13  12    41  15  16    41  15  18    42  16  19    42  16  19    43  17  20    43  17  20    43  17  18    44  18  19    45  21  21    45  21  21    45  21  21    45  21  21    45  21  21    45  21  21    45  21  19    45  21  19    44  20  18    44  20  18    44  20  20    43  19  19    44  18  19    44  18  19    43  17  18    43  17  18    42  16  17    43  17  18    45  16  20    43  14  18    41  12  16    41  12  16    42  13  17    43  14  18    42  16  19    42  16  19    41  15  18    41  15  18    41  15  18    41  15  18    42  16  19    42  16  19    40  14  17    43  17  20    45  19  22    46  20  23    44  18  21    44  18  21    46  20  23    47  21  24    47  21  22  
  40  15  18    41  15  18    40  16  16    41  15  16    40  16  16    41  15  16    40  16  14    41  15  14    40  14  15    40  14  15    41  15  16    41  15  16    42  16  17    43  17  18    43  17  18    44  18  19    45  19  20    45  19  20    45  19  20    45  19  20    45  19  20    45  19  20    45  19  20    45  19  20    45  19  20    45  19  20    45  19  20    44  18  19    44  18  19    44  18  19    44  18  19    44  18  19    44  18  19    44  18  19    44  18  19    42  16  17    39  13  14    38  12  13    38  12  13    39  13  14    40  14  17    40  14  17    40  14  17    40  14  17    40  14  17    40  14  17    40  14  17    40  14  17    38  12  15    40  14  17    43  17  20    44  18  21    44  18  21    44  18  21    45  19  22    46  19  23    49  23  24  
  39  15  18    38  14  17    38  15  15    38  15  15    38  15  16    38  15  16    39  16  16    40  16  16    41  15  16    41  15  15    42  15  16    43  17  17    43  17  17    44  18  18    45  19  19    45  19  19    45  19  20    45  19  20    46  19  20    46  19  20    46  19  20    46  19  20    46  19  20    46  19  20    46  19  20    46  19  20    45  19  20    45  20  20    45  20  20    45  19  20    45  19  20    45  19  20    43  17  17    43  17  18    43  17  17    42  15  16    39  13  14    38  12  13    39  13  13    41  15  16    41  15  17    41  15  17    40  14  17    40  14  17    40  14  17    40  14  17    41  15  17    41  15  17    39  13  16    40  14  17     0   0   0     0   0   0     0   0   0     0   0   0     0   0   0     0   0   0     0   0   0  
  36  15  16    37  15  17    36  15  16    37  15  17    37  16  17    38  16  18    38  17  18    40  17  18    40  15  15    41  15  14    41  15  14    41  15  14    42  16  15    42  16  15    42  16  15    42  16  15    45  19  20    45  19  20    47  18  20    47  18  20    47  18  20    47  18  20    47  18  20    47  18  20    45  16  18    45  16  18    43  17  18    43  17  18    43  17  18    44  18  19    44  18  19    44  18  19    41  15  14    41  15  14    42  16  15    41  15  14    40  14  13    40  14  13    42  16  15    43  17  18    43  17  19    43  17  20    42  16  19    41  15  18    41  15  18    42  16  19    43  17  20    43  17  20    43  17  20    42  16  19     0   0   0     0   0   0     0   0   0     0   0   0     0   0   0     0   0   0     0   0   0  
  32  14  14    35  14  15    34  15  17    36  15  18    36  17  18    37  17  19    36  16  18    36  16  17    39  15  15    40  14  13    40  14  13    40  14  13    39  13  12    39  13  12    39  13  12    39  13  12    45  18  17    45  18  17    46  17  19    46  17  19    46  17  19    46  17  19    46  17  19    46  17  19    41  12  15    41  12  15    41  13  15    42  13  15    42  13  15    42  14  16    41  15  15    41  15  15    40  14  13    40  15  14    41  15  14    41  15  14    40  14  13    40  14  13    41  17  15    43  19  19    45  19  20    44  18  21    42  16  19    40  14  17    40  14  17    42  16  19    44  18  21    45  19  22    45  19  22    42  16  19     0   0   0     0   0   0     0   0   0     0   0   0     0   0   0     0   0   0     0   0   0  
  31  12  14    32  13  15    34  15  17    37  17  19    37  18  20    37  17  19    35  17  17    35  15  16    42  18  18    42  16  17    42  16  15    41  15  16    41  15  14    39  15  14    39  15  13    38  14  14    44  18  17    44  18  19    44  18  19    44  18  19    44  18  19    44  18  19    44  18  19    44  18  19    39  13  14    42  13  15    40  14  15    42  13  15    41  15  16    41  15  16    42  16  15    42  16  15    41  15  14    41  15  14    42  16  15    41  15  14    40  14  13    40  14  13    40  16  14    42  18  18    47  21  22    46  17  19    43  14  16    41  12  14    41  12  14    43  14  18    46  17  19    49  20  24    47  18  22    44  15  19     0   0   0     0   0   0     0   0   0     0   0   0     0   0   0     0   0   0     0   0   0  
  32  11  16    32  11  16    32  11  16    34  12  15    34  14  16    36  14  16    36  16  15    38  17  16    40  16  16    41  15  18    40  16  16    40  15  18    40  16  16    38  16  18    38  17  16    38  16  18    34  14  13    36  16  17    39  19  20    42  22  23    43  23  24    42  22  23    41  21  22    40  19  18    41  17  17    42  16  15    41  17  15    41  15  14    40  16  14    39  15  13    39  15  13    39  15  13    39  15  15    39  15  15    39  15  15    40  16  16    41  17  17    42  18  18    41  17  17    40  14  15    44  17  16    45  15  14    45  13  14    44  12  13    46  12  13    46  11  15    47  13  14    48  13  17    43  11  14    43  11  14     0   0   0     0   0   0     0   0   0     0   0   0     0   0   0     0   0   0     0   0   0  
  32  10  17    32  10  17    33  10  15    34  12  15    35  13  15    35  14  15    37  15  15    40  15  15    41  15  18    41  15  18    41  15  18    41  15  18    40  15  18    40  15  18    38  15  18    38  15  18    36  15  16    37  15  17    39  18  20    40  19  20    40  20  21    41  20  22    41  20  22    41  20  21    42  18  18    43  16  16    41  17  16    42  15  15    40  15  15    41  14  13    39  15  13    40  13  12    41  16  16    42  15  16    41  16  16    43  16  17    43  18  18    44  17  18    40  15  16    39  13  14    41  14  13    42  13  11    43  13  11    44  13  13    45  12  13    46  13  15    47  14  15    47  13  17    45  14  16    45  13  18     0   0   0     0   0   0     0   0   0     0   0   0     0   0   0     0   0   0     0   0   0  
  33  10  16    33  10  16    33  11  14    33  11  14    34  12  14    35  13  15    38  14  14    40  15  15    43  14  18    44  14  18    44  14  18    44  14  18    43  14  18    42  15  18    42  15  18    42  15  18    41  14  18    41  15  18    40  16  19    41  17  19    41  17  19    42  18  21    42  19  21    45  19  22    44  17  18    45  16  18    43  16  17    44  15  17    42  15  16    43  14  16    41  14  15    42  13  15    42  15  16    43  14  16    43  15  17    46  17  19    46  19  20    46  17  19    43  15  19    41  13  16    39  14  13    39  14  14    41  15  14    43  16  16    43  15  16    44  14  16    44  13  16    43  13  16    45  15  18    44  15  19     0   0   0     0   0   0     0   0   0     0   0   0     0   0   0     0   0   0     0   0   0  
  34  12  16    34  11  15    34  12  15    34  12  15    36  12  15    36  12  15    38  14  14    40  14  15    44  14  16    45  13  16    45  13  16    45  13  16    45  13  16    44  14  16    44  14  16    44  14  16    44  15  17    42  14  16    42  13  16    42  13  16    42  13  16    43  15  17    43  17  19    45  17  20    45  16  19    45  15  19    45  14  18    45  14  18    44  14  18    44  14  18    43  13  17    43  13  17    41  11  15    41  11  15    42  12  16    45  15  19    47  16  20    47  17  21    45  15  20    43  14  18    39  16  17    38  17  18    39  18  17    41  17  19    40  17  18    40  14  17    40  13  15    39  11  16    39  12  16    40  12  17     0   0   0     0   0   0     0   0   0     0   0   0     0   0   0     0   0   0     0   0   0  
  36  14  17    36  14  17    36  14  17    36  14  17    38  13  16    38  13  16    39  15  15    41  15  16    43  14  16    44  14  16    44  14  16    45  13  16    44  14  16    45  13  16    45  13  16    45  13  16    44  14  16    44  14  16    43  13  15    42  12  14    42  13  15    43  14  16    44  15  17    45  16  18    43  14  18    44  13  18    44  15  19    45  14  19    44  15  19    46  15  20    45  16  20    46  15  20    42  13  17    42  11  16    42  13  17    44  13  18    46  17  21    48  17  22    46  17  21    44  17  21    41  19  21    40  20  21    40  20  21    40  18  20    39  17  19    40  15  18    40  13  18    42  13  18    41  12  17    42  13  18     0   0   0     0   0   0     0   0   0     0   0   0     0   0   0     0   0   0     0   0   0  
  38  16  18    38  16  18    39  14  17    39  14  17    39  14  17    40  15  18    40  16  16    41  17  17    41  15  16    43  14  16    43  14  16    44  14  16    43  14  16    44  14  16    44  14  16    44  14  16    44  14  16    43  13  15    42  13  15    42  13  15    40  14  15    40  14  15    40  15  16    41  15  16    40  14  17    42  13  18    41  14  19    44  15  20    43  17  20    46  17  21    45  19  22    47  18  22    45  20  23    46  17  21    42  16  17    44  15  17    44  18  19    47  18  20    45  19  20    45  19  20    41  19  21    40  19  21    39  19  19    40  18  20    42  17  20    43  17  20    46  17  21    48  16  21    48  16  22    46  15  21     0   0   0     0   0   0     0   0   0     0   0   0     0   0   0     0   0   0     0   0   0  
  40  17  18    40  17  18    40  16  18    40  15  17    40  15  17    40  15  17    40  16  17    40  16  16    39  16  16    39  17  15    40  16  16    40  16  16    41  16  15    43  15  16    43  15  16    45  16  17    42  14  16    42  14  16    42  14  16    41  15  16    40  16  16    39  16  15    37  17  15    39  16  16    40  16  18    41  17  20    41  17  21    41  17  21    41  17  20    42  18  21    43  20  21    44  20  22    48  24  26    46  22  24    43  20  19    42  19  18    43  20  19    44  21  20    45  21  20    44  20  19    42  19  18    42  15  18    41  16  16    46  18  21    48  18  20    48  16  21    50  17  20    55  18  24    55  18  24    55  18  24     0   0   0     0   0   0     0   0   0     0   0   0     0   0   0     0   0   0     0   0   0  
  41  17  17    41  17  17    41  17  17    40  16  16    41  15  16    41  15  16    41  15  18    40  15  17    37  18  16    37  20  16    40  20  17    40  20  17    41  19  16    43  18  17    45  19  18    47  20  19    45  19  18    45  19  18    45  19  18    44  20  18    41  20  17    40  20  17    39  21  17    40  20  19    44  24  25    45  23  25    44  23  24    41  19  21    37  16  18    37  16  16    39  19  18    42  21  20    45  24  23    46  25  23    45  25  21    44  23  19    44  24  20    45  24  20    42  22  18    41  17  14    48  20  18    44  14  14    47  15  15    55  21  23    58  22  23    53  15  18    51  13  15    56  16  19    61  21  24    64  21  25     0   0   0     0   0   0     0   0   0     0   0   0     0   0   0     0   0   0     0   0   0  
  40  16  15    40  16  15    41  16  15    40  15  15    41  15  16    42  15  17    42  15  19    40  15  19    38  20  15    37  22  17    39  21  17    40  22  18    42  20  18    44  20  18    45  19  18    47  19  18    47  20  19    47  20  19    45  20  19    44  20  18    42  20  18    40  20  17    40  21  17    40  20  17    45  24  24    46  23  23    43  22  21    41  18  18    37  16  16    39  16  15    41  20  18    45  22  20    43  23  20    44  21  17    41  21  16    43  21  15    42  23  16    45  22  17    44  24  18    48  23  18    52  21  18    53  19  17    58  21  20    62  23  23    64  23  24    61  18  19    58  16  15    59  14  15    64  19  19    67  22  22     0   0   0     0   0   0     0   0   0     0   0   0     0   0   0     0   0   0     0   0   0  
  38  14  12    39  15  13    40  14  13    40  14  13    41  15  16    41  15  16    42  16  19    41  16  19    38  20  16    38  20  16    39  21  17    42  21  18    44  21  19    47  20  19    48  18  18    48  16  17    49  17  18    49  17  18    48  18  18    47  19  18    44  18  17    43  19  17    41  20  17    42  18  16    49  23  24    50  22  24    50  22  24    49  22  21    49  21  20    49  21  20    50  23  22    51  24  21    55  27  24    51  23  19    50  23  17    50  23  17    48  22  15    46  19  10    48  21  13    54  26  18    49  15   9    55  16  12    57  18  14    60  19  16    65  21  18    68  24  22    73  28  23    74  29  25    83  38  34    85  40  35     0   0   0     0   0   0     0   0   0     0   0   0     0   0   0     0   0   0     0   0   0  
   0   0   0     0   0   0     0   0   0     0   0   0     0   0   0     0   0   0     0   0   0     0   0   0     0   0   0     0   0   0     0   0   0     0   0   0     0   0   0     0   0   0    53  18  19    53  16  18    53  16  18    53  16  18    52  17  18    50  17  18    49  18  18    48  19  18    46  19  18    48  19  18    50  18  19    53  19  20    55  21  22    58  23  22    59  24  23    59  24  23    58  23  22    56  21  19    48  15  10     0   0   0     0   0   0     0   0   0     0   0   0     0   0   0     0   0   0     0   0   0     0   0   0     0   0   0     0   0   0     0   0   0     0   0   0     0   0   0     0   0   0     0   0   0     0   0   0     0   0   0     0   0   0     0   0   0     0   0   0     0   0   0     0   0   0     0   0   0     0   0   0  
   0   0   0     0   0   0     0   0   0     0   0   0     0   0   0     0   0   0     0   0   0     0   0   0     0   0   0     0   0   0     0   0   0     0   0   0     0   0   0     0   0   0    61  19  23    61  18  22    60  17  21    61  17  21    61  18  22    60  19  22    59  22  23    59  23  24    57  24  25    59  24  25    58  17  20    61  17  21    62  20  22    67  23  25    69  28  29    73  29  30    70  28  28    70  26  24    73  33  28     0   0   0     0   0   0     0   0   0     0   0   0     0   0   0     0   0   0     0   0   0     0   0   0     0   0   0     0   0   0     0   0   0     0   0   0     0   0   0     0   0   0     0   0   0     0   0   0     0   0   0     0   0   0     0   0   0     0   0   0     0   0   0     0   0   0     0   0   0     0   0   0  
   0   0   0     0   0   0     0   0   0     0   0   0     0   0   0     0   0   0     0   0   0     0   0   0     0   0   0     0   0   0     0   0   0     0   0   0     0   0   0     0   0   0    69  24  25    70  23  25    70  23  24    71  24  25    72  25  26    71  26  27    71  29  29    71  31  30    70  32  31    72  32  32    74  30  31    76  28  30    75  29  29    79  32  32    83  37  36    89  42  40    89  44  41    90  44  40    94  50  44     0   0   0     0   0   0     0   0   0     0   0   0     0   0   0     0   0   0     0   0   0     0   0   0     0   0   0     0   0   0     0   0   0     0   0   0     0   0   0     0   0   0     0   0   0     0   0   0     0   0   0     0   0   0     0   0   0     0   0   0     0   0   0     0   0   0     0   0   0     0   0   0  
   0   0   0     0   0   0     0   0   0     0   0   0     0   0   0     0   0   0     0   0   0     0   0   0     0   0   0     0   0   0     0   0   0     0   0   0     0   0   0     0   0   0    74  30  23    78  32  26    85  39  33    78  33  27    75  30  24    77  33  27    82  39  32    89  46  40   101  61  53   114  74  66   123  85  76   123  86  77   126  90  79   134  98  86   146 110  96   161 124 111   173 136 121   180 144 129   189 154 136     0   0   0     0   0   0     0   0   0     0   0   0     0   0   0     0   0   0     0   0   0     0   0   0     0   0   0     0   0   0     0   0   0     0   0   0     0   0   0     0   0   0     0   0   0     0   0   0     0   0   0     0   0   0     0   0   0     0   0   0     0   0   0     0   0   0     0   0   0     0   0   0  
   0   0   0     0   0   0     0   0   0     0   0   0     0   0   0     0   0   0     0   0   0     0   0   0     0   0   0     0   0   0     0   0   0     0   0   0     0   0   0     0   0   0   109  71  56   121  82  67   139 101  85   121  82  67   116  79  63   144 104  90   182 144 129   210 171 156   221 183 168   224 187 172   234 204 187   232 204 186   231 204 183   233 206 185   237 211 188   244 217 195   250 223 199   251 227 203   241 215 188     0   0   0     0   0   0     0   0   0     0   0   0     0   0   0     0   0   0     0   0   0     0   0   0     0   0   0     0   0   0     0   0   0     0   0   0     0   0   0     0   0   0     0   0   0     0   0   0     0   0   0     0   0   0     0   0   0     0   0   0     0   0   0     0   0   0     0   0   0     0   0   0  
   0   0   0     0   0   0     0   0   0     0   0   0     0   0   0     0   0   0     0   0   0     0   0   0     0   0   0     0   0   0     0   0   0     0   0   0     0   0   0     0   0   0   236 206 185   250 218 198   252 234 213   252 220 200   243 212 192   249 217 198   253 226 205   252 224 205   251 220 200   247 220 198   246 221 199   243 222 198   242 221 198   240 218 195   238 216 192   237 215 191   235 215 188   235 215 188   243 222 193     0   0   0     0   0   0     0   0   0     0   0   0     0   0   0     0   0   0     0   0   0     0   0   0     0   0   0     0   0   0     0   0   0     0   0   0     0   0   0     0   0   0     0   0   0     0   0   0     0   0   0     0   0   0     0   0   0     0   0   0     0   0   0     0   0   0     0   0   0     0   0   0  
   0   0   0     0   0   0     0   0   0     0   0   0     0   0   0     0   0   0     0   0   0     0   0   0     0   0   0     0   0   0     0   0   0     0   0   0     0   0   0     0   0   0   242 220 194   238 215 192   232 210 185   235 213 190   240 218 193   242 220 196   237 216 190   233 210 187   237 215 190   244 224 200   236 218 193   235 219 194   235 220 194   236 220 195   236 221 195   237 221 195   237 222 193   237 222 193   234 218 188     0   0   0     0   0   0     0   0   0     0   0   0     0   0   0     0   0   0     0   0   0     0   0   0     0   0   0     0   0   0     0   0   0     0   0   0     0   0   0     0   0   0     0   0   0     0   0   0     0   0   0     0   0   0     0   0   0     0   0   0     0   0   0     0   0   0     0   0   0     0   0   0  
   0   0   0     0   0   0     0   0   0     0   0   0     0   0   0     0   0   0     0   0   0     0   0   0     0   0   0     0   0   0     0   0   0     0   0   0     0   0   0     0   0   0   236 222 193   233 218 190   237 223 194   237 221 194   235 221 192   238 222 195   237 223 194   237 221 194   236 222 193   237 223 195   236 224 197   235 224 197   233 223 195   233 223 194   233 223 195   234 224 196   235 225 194   235 225 195   235 225 192     0   0   0     0   0   0     0   0   0     0   0   0     0   0   0     0   0   0     0   0   0     0   0   0     0   0   0     0   0   0     0   0   0     0   0   0     0   0   0     0   0   0     0   0   0     0   0   0     0   0   0     0   0   0     0   0   0     0   0   0     0   0   0     0   0   0     0   0   0     0   0   0  
   0   0   0     0   0   0     0   0   0     0   0   0     0   0   0     0   0   0     0   0   0     0   0   0     0   0   0     0   0   0     0   0   0     0   0   0     0   0   0     0   0   0   237 227 195   238 226 195   230 221 189   234 222 191   234 224 192   234 222 191   231 221 189   233 221 190   234 225 192   237 227 197   231 222 193   231 222 193   231 222 193   231 222 193   231 222 192   232 223 192   232 223 192   233 224 193   233 224 191     0   0   0     0   0   0     0   0   0     0   0   0     0   0   0     0   0   0     0   0   0     0   0   0     0   0   0     0   0   0     0   0   0     0   0   0     0   0   0     0   0   0     0   0   0     0   0   0     0   0   0     0   0   0     0   0   0     0   0   0     0   0   0     0   0   0     0   0   0     0   0   0  
   0   0   0     0   0   0     0   0   0     0   0   0     0   0   0     0   0   0     0   0   0     0   0   0     0   0   0     0   0   0     0   0   0     0   0   0     0   0   0     0   0   0   229 220 187   234 223 191   235 226 193   235 224 192   232 223 190   233 222 190   234 224 192   236 225 193   234 225 192   232 221 189   232 223 192   234 224 195   234 225 196   237 226 198   236 227 196   236 225 195   234 226 194   234 224 194   231 222 189     0   0   0     0   0   0     0   0   0     0   0   0     0   0   0     0   0   0     0   0   0     0   0   0     0   0   0     0   0   0     0   0   0     0   0   0     0   0   0     0   0   0     0   0   0     0   0   0     0   0   0     0   0   0     0   0   0     0   0   0     0   0   0     0   0   0     0   0   0     0   0   0  
