P3
57 62
255
   0   0   0     0   0   0     0   0   0     0   0   0     0   0   0     0   0   0     0   0   0     0   0   0     0   0   0     0   0   0     0   0   0     0   0   0     0   0   0     0   0   0     0   0   0     0   0   0     0   0   0     0   0   0     0   0   0     0   0   0    47  17  22    55  24  29    54  24  29    50  18  23    48  18  21    50  18  22    50  21  23    54  22  26    54  24  26    54  23  25    53  23  25    54  24  26    55  26  26    53  25  25    53  24  22     0   0   0     0   0   0     0   0   0     0   0   0     0   0   0     0   0   0     0   0   0     0   0   0     0   0   0     0   0   0     0   0   0     0   0   0     0   0   0     0   0   0     0   0   0     0   0   0     0   0   0     0   0   0     0   0   0     0   0   0     0   0   0     0   0   0  
   0   0   0     0   0   0     0   0   0     0   0   0     0   0   0     0   0   0     0   0   0     0   0   0     0   0   0     0   0   0     0   0   0     0   0   0     0   0   0     0   0   0     0   0   0     0   0   0     0   0   0     0   0   0     0   0   0     0   0   0    57  23  23    60  26  26    58  24  24    53  19  20    67  33  34    62  28  30    61  28  29    63  29  30    62  29  29    58  24  25    55  21  22    57  23  24    60  27  26    57  23  22    55  21  20     0   0   0     0   0   0     0   0   0     0   0   0     0   0   0     0   0   0     0   0   0     0   0   0     0   0   0     0   0   0     0   0   0     0   0   0     0   0   0     0   0   0     0   0   0     0   0   0     0   0   0     0   0   0     0   0   0     0   0   0     0   0   0     0   0   0  
 194 157 147   157 120 111   114  77  69    91  54  46    84  47  39    80  43  37    76  39  32    72  35  29    74  37  30    75  38  31    76  39  32    77  40  33    75  38  32    71  34  27    65  27  21    59  22  16    59  25  15    54  20  10    58  24  14    66  31  22    64  29  22    57  22  15    60  25  18    69  34  30    64  29  24    60  25  21    59  24  22    62  27  25    63  27  27    62  26  26    61  25  25    62  25  25    66  31  29    65  29  27    62  26  25    62  26  25    65  29  27    66  30  28    66  30  28    65  29  28    57  22  20    59  24  22    60  25  23    60  24  23    58  23  21    57  21  20    59  23  21    60  25  24    57  25  23    56  25  23     0   0   0     0   0   0     0   0   0     0   0   0     0   0   0     0   0   0     0   0   0  
 246 210 193   246 206 192   235 197 182   214 173 161   182 144 129   167 127 113   180 142 128   206 166 152   185 150 135   173 133 119   150 112  97   134  94  80   129  91  75   139  99  84   151 113  98   161 123 108   129  93  75   105  69  51    93  57  39   106  70  54   118  81  66   110  73  60    97  61  47    92  55  44    91  53  43    93  55  47    91  53  46    86  49  42    85  47  43    85  46  42    77  39  34    68  29  26    70  29  29    71  31  31    73  33  33    74  33  34    72  32  32    71  31  31    70  30  30    70  30  30    70  29  29    69  28  28    68  27  27    69  28  28    70  29  30    70  30  30    69  29  29    68  29  28    66  29  29    65  29  28     0   0   0     0   0   0     0   0   0     0   0   0     0   0   0     0   0   0     0   0   0  
 242 208 183   240 201 180   240 203 182   249 210 190   249 212 191   246 208 187   245 208 186   251 213 192   247 214 191   247 208 187   240 203 180   236 198 176   236 199 175   240 201 178   241 204 181   243 207 183   236 201 176   223 190 165   216 182 158   219 185 163   223 189 167   218 184 163   209 174 154   203 168 150   189 154 137   196 161 146   194 158 145   180 144 131   171 135 124   166 130 119   148 112 101   127  89  81   123  84  79   130  90  87   136  95  92   135  95  92   127  87  84   118  78  75   113  72  69   111  70  67   107  67  64    93  52  49    77  36  33    71  30  27    75  34  31    79  39  36    78  38  35    74  34  31    68  29  25    69  28  25     0   0   0     0   0   0     0   0   0     0   0   0     0   0   0     0   0   0     0   0   0  
 236 209 179   237 209 180   239 211 182   241 213 185   240 212 183   237 209 181   238 209 181   240 212 184   237 209 180   238 209 181   239 210 181   240 211 182   240 212 183   240 212 183   240 211 182   239 211 181   239 211 182   240 213 183   241 214 185   241 214 186   241 213 185   240 212 186   241 213 187   241 214 189   238 210 185   241 213 188   241 214 191   239 211 188   238 210 188   238 210 188   233 205 183   227 198 177   226 196 178   229 199 180   230 200 182   230 200 182   227 197 179   223 193 175   221 191 173   220 190 172   210 180 162   193 163 145   164 134 116   131 102  83   110  80  61   107  77  59   120  90  72   134 102  84   138 104  83   134  97  78     0   0   0     0   0   0     0   0   0     0   0   0     0   0   0     0   0   0     0   0   0  
 234 214 181   234 214 181   234 214 181   234 214 181   234 214 181   234 214 181   234 214 181   234 214 181   234 214 181   234 214 181   234 214 181   234 214 181   234 214 181   234 214 181   234 214 181   234 214 181   233 212 181   233 212 181   233 212 181   233 212 181   233 212 181   233 212 181   233 212 181   233 212 181   232 211 180   233 212 181   233 212 181   234 213 182   236 215 184   238 217 186   239 218 188   240 219 188   238 216 186   238 216 186   238 216 186   238 216 186   238 216 186   238 216 186   238 216 186   238 216 186   240 219 189   242 220 190   238 216 186   228 206 176   219 197 167   218 196 166   227 205 175   239 215 184   241 211 180   238 206 176     0   0   0     0   0   0     0   0   0     0   0   0     0   0   0     0   0   0     0   0   0  
 234 213 182   234 213 182   234 213 182   234 213 182   234 213 182   234 213 182   234 213 182   234 213 182   234 213 182   234 213 182   234 213 182   234 213 182   234 213 182   234 213 182   234 213 182   234 213 182   233 212 181   233 212 181   233 212 181   233 212 181   233 212 181   233 212 181   233 212 181   233 212 181   233 212 181   233 212 181   233 212 181   233 212 181   234 213 182   236 215 184   237 216 185   238 217 186   236 215 184   236 215 184   236 215 184   236 215 184   236 215 184   236 215 184   236 215 184   236 215 184   232 211 180   233 212 181   235 214 183   236 215 184   235 214 183   233 212 181   232 211 180   233 210 179   236 211 180   234 207 177     0   0   0     0   0   0     0   0   0     0   0   0     0   0   0     0   0   0     0   0   0  
 234 213 182   234 213 185   234 213 182   234 213 185   234 213 182   234 213 185   234 213 182   234 213 185   234 213 182   234 213 185   234 213 182   234 213 185   234 213 182   234 213 185   234 213 182   234 213 182   234 213 182   234 213 182   234 213 182   234 213 182   234 213 182   234 213 182   234 213 182   234 213 182   234 213 182   233 212 182   233 212 181   233 212 181   233 212 181   234 213 182   234 213 183   235 214 183   236 215 184   236 215 184   236 215 184   236 215 184   236 215 184   236 215 184   236 215 184   236 215 184   235 214 184   235 214 183   235 214 183   235 214 183   235 214 183   235 214 184   234 213 183   233 212 182   236 214 184   233 211 180     0   0   0     0   0   0     0   0   0     0   0   0     0   0   0     0   0   0     0   0   0  
 234 213 185   234 213 186   234 213 185   234 213 186   234 213 185   234 213 186   234 213 185   234 213 186   234 213 185   234 213 186   234 213 185   234 213 186   234 213 185   234 213 186   234 213 185   234 213 185   234 213 184   234 213 184   234 213 184   234 213 184   234 213 184   234 213 184   234 213 184   234 213 184   235 214 185   234 213 184   234 213 184   233 212 183   233 212 183   233 212 183   233 212 183   234 213 184   233 212 183   233 212 183   233 212 183   233 212 183   233 212 183   233 212 183   233 212 183   233 212 183   230 209 180   233 212 183   236 215 186   237 216 187   235 214 185   233 212 183   232 211 182   232 211 182   231 213 183   229 211 182     0   0   0     0   0   0     0   0   0     0   0   0     0   0   0     0   0   0     0   0   0  
 234 212 187   234 212 187   234 212 187   234 212 187   234 212 187   234 212 187   234 212 187   234 212 187   234 212 187   234 212 187   234 212 187   234 212 187   234 212 187   234 212 187   234 212 187   234 213 186   235 214 185   235 214 185   235 214 185   235 214 185   235 214 185   235 214 185   235 214 185   235 214 185   235 214 185   235 214 185   234 213 184   234 213 184   233 212 183   234 213 184   234 213 184   235 214 185   234 213 184   234 213 184   234 213 184   234 213 184   234 213 184   234 213 184   234 213 184   234 213 184   235 214 185   234 213 184   233 212 183   232 211 182   232 211 182   233 212 183   236 215 186   238 217 188   233 216 187   233 216 189     0   0   0     0   0   0     0   0   0     0   0   0     0   0   0     0   0   0     0   0   0  
 234 212 188   234 212 188   234 212 188   234 212 188   234 212 188   234 212 188   234 212 188   234 212 188   234 212 188   234 212 188   234 212 188   234 212 188   234 212 188   234 212 188   234 212 188   234 212 188   235 214 187   235 214 185   235 214 185   235 214 185   235 214 185   235 214 185   235 214 185   235 214 185   235 214 185   235 214 185   234 213 184   234 213 184   234 213 184   234 213 184   235 214 185   235 214 185   234 213 184   234 213 184   234 213 184   234 213 184   234 213 184   234 213 184   234 213 184   234 213 184   234 213 184   233 212 183   233 212 183   234 212 184   235 214 185   235 214 185   233 211 183   229 208 181   232 212 187   234 214 189     0   0   0     0   0   0     0   0   0     0   0   0     0   0   0     0   0   0     0   0   0  
 234 212 188   234 212 188   234 212 188   234 212 188   234 212 188   234 212 188   234 212 188   234 212 188   234 212 188   234 212 188   234 212 188   234 212 188   234 212 188   234 212 188   234 212 188   234 212 188   234 213 186   234 213 186   234 213 186   234 213 186   234 213 186   234 213 186   234 213 186   234 213 186   234 213 186   234 213 186   234 213 186   234 213 186   234 213 186   234 213 186   234 213 186   234 213 186   234 213 186   234 213 186   234 213 186   234 213 186   234 213 186   234 213 186   234 213 186   234 213 186   234 213 186   234 213 186   234 213 186   234 213 186   234 213 186   234 213 186   234 213 186   234 213 186   233 211 187   233 211 188     0   0   0     0   0   0     0   0   0     0   0   0     0   0   0     0   0   0     0   0   0  
   0   0   0     0   0   0     0   0   0     0   0   0     0   0   0     0   0   0     0   0   0   234 212 188   234 212 188   234 212 188   234 212 188   234 212 188   234 212 188   234 212 188   234 212 188   234 212 188   234 213 186   234 213 186   234 213 186   234 213 186   234 213 186   234 213 186   234 213 186   234 213 186   234 213 186   234 213 186   234 213 186   234 213 186   234 213 186   234 213 186   234 213 186   234 213 186   234 213 186   234 213 186   234 213 186   234 213 186   234 213 186   234 213 186   234 213 186   234 213 186   234 213 186   234 213 186   234 213 186   234 213 186   234 213 186   234 213 186   234 213 186   235 213 186   236 212 188   237 210 189     0   0   0     0   0   0     0   0   0     0   0   0     0   0   0     0   0   0     0   0   0  
   0   0   0     0   0   0     0   0   0     0   0   0     0   0   0     0   0   0     0   0   0   234 212 188   234 212 188   234 212 188   234 212 188   234 212 188   234 212 188   234 212 188   234 212 188   234 212 188   234 213 186   234 213 186   234 213 186   234 213 186   234 213 186   234 213 186   234 213 186   234 213 186   234 213 186   234 213 186   234 213 186   234 213 186   234 213 186   234 213 186   234 213 186   234 213 186   234 213 186   234 213 186   234 213 186   234 213 186   234 213 186   234 213 186   234 213 186   234 213 186   234 213 186   234 213 186   234 213 186   234 213 186   234 213 186   234 213 186   234 213 186   236 212 186   238 211 189   239 211 189     0   0   0     0   0   0     0   0   0     0   0   0     0   0   0     0   0   0     0   0   0  
   0   0   0     0   0   0     0   0   0     0   0   0     0   0   0     0   0   0     0   0   0   234 213 186   234 213 186   234 213 186   234 213 186   234 213 186   234 213 186   234 213 186   234 213 186   234 213 186   234 212 187   234 212 187   234 212 187   234 212 187   234 212 187   234 212 187   234 212 187   234 212 187   234 212 187   234 212 187   234 212 187   234 212 187   234 212 187   234 212 187   234 212 187   234 212 187   234 212 187   234 212 187   234 212 187   234 212 187   234 212 187   234 212 187   234 212 187   234 212 187   234 212 187   234 212 187   234 212 187   234 212 187   234 212 187   234 212 187   234 212 187   236 212 187   236 210 186   236 210 186     0   0   0     0   0   0     0   0   0     0   0   0     0   0   0     0   0   0     0   0   0  
   0   0   0     0   0   0     0   0   0     0   0   0     0   0   0     0   0   0     0   0   0   234 213 186   234 213 186   234 213 186   234 213 186   234 213 186   234 213 186   234 213 186   234 213 186   234 213 186   234 212 188   234 212 188   234 212 188   234 212 188   234 212 188   234 212 188   234 212 188   234 212 188   234 212 188   234 212 188   234 212 188   234 212 188   234 212 188   234 212 188   234 212 188   234 212 188   234 212 188   234 212 188   234 212 188   234 212 188   234 212 188   234 212 188   234 212 188   234 212 188   234 212 188   234 212 188   234 212 188   234 212 188   234 212 188   234 212 188   234 212 188   234 212 188   235 211 185   235 211 185   235 211 185   235 211 185   233 212 185   233 212 185   232 212 185   232 212 185   230 213 185  
   0   0   0     0   0   0     0   0   0     0   0   0     0   0   0     0   0   0     0   0   0   234 213 184   234 213 184   234 213 184   234 213 184   234 213 184   234 213 184   234 213 184   234 213 184   234 213 186   234 212 188   234 212 188   234 212 188   234 212 188   234 212 188   234 212 188   234 212 188   234 212 188   234 212 188   234 212 188   234 212 188   234 212 188   234 212 188   234 212 188   234 212 188   234 212 188   234 212 188   234 212 188   234 212 188   234 212 188   234 212 188   234 212 188   234 212 188   234 212 188   234 212 188   234 212 188   234 212 188   234 212 188   234 212 188   234 212 188   234 212 188   234 212 188   234 213 186   234 213 184   234 213 184   234 213 184   233 214 184   233 214 184   231 214 186   231 214 186   230 214 188  
   0   0   0     0   0   0     0   0   0     0   0   0     0   0   0     0   0   0     0   0   0   234 213 185   234 213 185   234 213 185   234 213 185   234 213 185   232 214 185   234 213 185   232 214 185   234 213 186   234 213 186   234 212 187   234 212 187   234 212 187   234 212 187   234 212 187   234 212 187   234 212 187   234 212 187   234 212 187   234 212 187   234 212 187   234 212 187   234 212 187   234 212 187   234 212 187   234 212 187   234 212 187   234 212 187   234 212 187   234 212 187   234 212 187   234 212 187   234 212 187   234 212 187   234 212 187   234 212 187   234 212 187   234 212 187   234 212 187   234 212 187   234 213 186   234 213 186   234 214 185   234 214 185   234 215 186   233 215 186   233 215 186   232 216 187   232 216 187   232 216 189  
   0   0   0     0   0   0     0   0   0     0   0   0     0   0   0     0   0   0     0   0   0   233 213 186   233 213 186   233 213 186   232 214 186   232 214 186   231 214 186   232 214 186   231 214 186   233 213 186   233 213 186   233 213 186   233 213 186   233 213 186   233 213 186   233 213 186   233 213 186   233 213 186   233 213 186   233 213 186   233 213 186   233 213 186   233 213 186   233 213 186   233 213 186   233 213 186   233 213 186   233 213 186   233 213 186   233 213 186   233 213 186   233 213 186   233 213 186   233 213 186   233 213 186   233 213 186   233 213 186   233 213 186   233 213 186   233 213 186   233 213 186   233 213 186   233 213 186   233 213 186   233 213 186   234 214 187   235 215 188   235 215 188   234 217 189   234 217 189   234 217 189  
   0   0   0     0   0   0     0   0   0     0   0   0     0   0   0     0   0   0     0   0   0   231 214 186   233 213 186   233 213 186   232 213 186   232 213 186   232 213 186   232 213 186   232 213 186   233 213 186   233 213 186   234 213 186   234 213 186   234 213 186   234 213 186   234 213 186   234 213 186   234 213 186   234 213 186   234 213 186   234 213 186   234 213 186   234 213 186   234 213 186   234 213 186   234 213 186   234 213 186   234 213 186   234 213 186   234 213 186   234 213 186   234 213 186   234 213 186   234 213 186   234 213 186   234 213 186   234 213 186   234 213 186   234 213 186   234 213 186   234 213 186   234 213 186   234 213 186   234 213 186   234 213 186   235 214 187   234 214 187   235 215 188   235 216 188   235 216 188   232 215 187  
   0   0   0     0   0   0     0   0   0     0   0   0     0   0   0     0   0   0     0   0   0   231 214 186   233 213 186   233 213 186   233 213 186   233 213 186   233 213 186   233 213 186   233 213 186   233 213 186   234 213 186   234 213 186   234 213 186   234 213 186   234 213 186   234 213 186   234 213 186   234 213 186   234 213 186   234 213 186   234 213 186   234 213 186   234 213 186   234 213 186   234 213 186   234 213 186   234 213 186   234 213 186   234 213 186   234 213 186   234 213 186   234 213 186   234 213 186   234 213 186   234 213 186   234 213 186   234 213 186   234 213 186   234 213 186   234 213 186   234 213 186   234 213 186   234 213 186   234 213 186   234 213 186   234 213 186   234 214 187   234 214 187   234 214 187   235 215 188   233 213 186  
   0   0   0     0   0   0     0   0   0     0   0   0     0   0   0     0   0   0     0   0   0   231 214 186   233 213 186   233 213 186   233 213 186   233 213 186   234 213 186   234 213 186   234 213 186   234 213 186   234 213 186   234 213 186   234 213 186   234 213 186   234 213 186   234 213 186   234 213 186   234 213 186   234 213 186   234 213 186   234 213 186   234 213 186   234 213 186   234 213 186   234 213 186   234 213 186   234 213 186   234 213 186   234 213 186   234 213 186   234 213 186   234 213 186   234 213 186   234 213 186   234 213 186   234 213 186   234 213 186   234 213 186   234 213 186   234 213 186   234 213 186   234 213 186   236 212 186   236 212 186   236 212 186   236 212 186   234 213 186   235 214 187   235 214 187   235 214 187   233 212 185  
   0   0   0     0   0   0     0   0   0     0   0   0     0   0   0     0   0   0     0   0   0   231 214 186   231 214 186   233 213 186   233 213 186   234 213 186   234 213 186   235 213 186   235 213 186   235 213 186   235 213 186   235 213 186   235 213 186   235 213 186   235 213 186   235 213 186   235 213 186   235 213 186   235 213 186   235 213 186   235 213 186   235 213 186   235 213 186   235 213 186   235 213 186   235 213 186   235 213 186   235 213 186   235 213 186   235 213 186   235 213 186   235 213 186   235 213 186   235 213 186   235 213 186   235 213 186   235 213 186   235 213 186   235 213 186   235 213 186   235 213 186   235 213 186   236 212 186   236 212 186   236 212 186   236 212 186   235 213 186   235 213 186   234 213 185   234 213 185   233 212 185  
   0   0   0     0   0   0     0   0   0     0   0   0     0   0   0     0   0   0     0   0   0   231 215 186   231 214 186   232 214 186   233 213 186   234 213 186   234 213 186   236 212 186   236 212 186   236 212 186   236 212 186   236 212 186   236 212 186   236 212 186   236 212 186   236 212 186   236 212 186   236 212 186   236 212 186   236 212 186   236 212 186   236 212 186   236 212 186   236 212 186   236 212 186   236 212 186   236 212 186   236 212 186   236 212 186   236 212 186   236 212 186   236 212 186   236 212 186   236 212 186   236 212 186   236 212 186   236 212 186   236 212 186   236 212 186   236 212 186   236 212 186   236 212 186   236 212 186   236 212 186   236 212 186   236 212 186   236 212 186   236 212 186   233 212 185   233 212 185   234 213 186  
   0   0   0     0   0   0     0   0   0     0   0   0     0   0   0     0   0   0     0   0   0   230 215 186   231 214 186   231 214 186   233 213 186   234 213 186   234 213 186   235 213 186   236 212 186   236 212 186   235 213 186   235 213 186   235 213 186   235 213 186   235 213 186   235 213 186   235 213 186   235 213 186   235 213 186   235 213 186   235 213 186   235 213 186   235 213 186   235 213 186   235 213 186   235 213 186   235 213 187   235 213 187   235 213 187   235 213 187   235 213 187   235 213 187   235 213 187   235 213 187   235 213 187   235 213 187   235 213 187   235 213 187   235 213 187   235 213 187   235 213 187   235 213 187   237 213 187   237 213 187   237 213 187   237 213 187   235 213 187   235 213 186   234 213 186   234 213 186   235 214 187  
   0   0   0     0   0   0     0   0   0     0   0   0     0   0   0     0   0   0     0   0   0   230 215 186   230 215 186   231 214 186   231 214 186   233 213 186   233 213 186   234 213 186   234 213 186   234 213 186   234 213 186   234 213 186   233 213 186   234 213 186   233 213 186   234 213 186   233 213 186   234 213 186   233 213 186   234 213 186   233 213 186   234 213 186   233 213 186   234 213 186   233 213 186   234 213 186   233 213 186   234 213 186   233 213 186   234 213 186   233 213 186   234 213 186   233 213 186   234 213 186   233 213 186   234 213 186   233 213 186   234 213 186   233 213 186   234 213 186   233 213 186   234 213 186   234 213 186   236 212 186   236 212 186   234 213 186   234 213 186   234 213 186   234 213 186   234 213 186   234 213 186  
 227 216 186   227 216 186   227 216 186   227 216 186   227 216 186   229 215 186   229 215 186   230 215 186   230 215 186   231 214 186   231 214 186   233 213 186   233 213 186   233 213 186   233 213 186   233 213 186   233 213 186   233 213 186   231 214 186   233 213 186   231 214 186   233 213 186   231 214 186   233 213 186   231 214 186   233 213 186   231 214 186   233 213 186   231 214 186   233 213 186   231 214 186   233 213 186   231 214 186   233 213 186   231 214 186   233 213 186   231 214 186   233 213 186   231 214 186   233 213 186   231 214 186   233 213 186   231 214 186   233 213 186   231 214 186   233 213 186   231 214 186   233 213 186   234 213 186   234 213 186   234 213 186   233 213 186   233 213 186   233 213 186   233 213 186   233 213 186   233 213 186  
 229 215 186   227 215 186   227 215 186   227 215 186   229 215 186   229 215 186   229 215 186   229 215 186   230 215 186   230 215 186   230 214 186   230 214 186   230 214 186   232 213 186   230 214 186   230 214 186   230 214 186   230 214 186   230 215 186   230 214 186   230 215 186   230 214 186   230 215 186   230 214 186   230 215 186   230 214 186   230 215 186   230 214 186   230 215 186   230 214 186   230 215 186   230 214 186   229 214 185   230 213 185   229 214 185   230 213 185   229 214 185   230 213 185   229 214 185   230 213 185   229 214 185   230 213 185   229 214 185   230 213 185   229 214 185   230 213 185   229 214 185   230 213 185   232 212 185   232 212 185   232 212 185   232 212 185   232 212 185   232 212 185   230 213 185   230 213 185   230 213 185  
 230 215 186   229 215 186   229 215 186   229 215 186   229 215 186   229 215 186   229 215 186   229 215 186   230 215 186   230 215 186   230 215 186   230 215 186   230 215 186   231 215 186   230 215 186   230 215 186   230 215 186   230 215 186   228 216 186   230 215 186   228 216 186   230 215 186   228 216 186   230 215 186   228 216 186   230 215 186   228 216 186   230 215 186   228 216 186   230 215 186   228 216 186   230 215 186   229 216 187   230 216 187   229 216 187   230 216 187   229 216 187   230 216 187   229 216 187   230 216 187   229 216 187   230 216 187   229 216 187   230 216 187   229 216 187   230 216 187   229 216 187   230 216 187   231 215 187   232 215 187   232 215 187   232 215 187   231 215 187   231 215 187   231 216 187   231 216 187   230 216 187  
 230 215 186   230 215 186   230 215 186   230 215 186   230 215 186   230 215 186   229 215 186   229 215 186   229 215 186   229 215 186   229 215 186   229 215 186   229 215 186   229 215 186   227 215 186   227 215 186   227 215 186   227 215 186   226 217 186   227 215 186   226 217 186   227 215 186   226 217 186   227 215 186   226 217 186   227 215 186   226 217 186   227 215 186   226 217 186   227 215 186   226 217 186   227 215 186   228 218 188   229 217 188   228 218 188   229 217 188   228 218 188   229 217 188   228 218 188   229 217 188   228 218 188   229 217 188   228 218 188   229 217 188   228 218 188   229 217 188   228 218 188   229 217 188   232 217 188   232 216 188   232 216 188   232 216 188   231 217 188   231 217 188   231 217 188   231 217 188   229 217 188  
 230 215 186   230 215 186   230 215 186   230 215 186   230 215 186   230 215 186   229 215 186   229 215 186   229 215 186   229 215 186   229 215 186   229 215 186   227 216 186   227 216 186   227 216 186   227 216 186   227 216 186   227 216 186   226 217 186   227 216 186   226 217 186   227 216 186   226 217 186   227 216 186   226 217 186   227 216 186   226 217 186   227 216 186   226 217 186   227 216 186   226 217 186   227 216 186   228 219 188   229 218 188   228 219 188   229 218 188   228 219 188   229 218 188   228 219 188   229 218 188   228 219 188   229 218 188   228 219 188   229 218 188   228 219 188   229 218 188   228 219 188   229 218 188   231 217 188   232 217 188   232 217 188   232 217 188   231 217 188   231 217 188   231 217 188   231 217 188   229 218 188  
 227 213 184   227 213 184   227 213 184   227 213 184   227 213 184   227 213 184   227 213 184   227 213 184   227 213 184   227 213 184   227 213 184   227 213 184   227 213 184   227 213 184   227 213 184   227 213 184   228 214 185   228 214 185   227 216 186   230 216 187   228 217 187   231 217 188   230 219 187   232 219 187   227 216 184   229 216 184   228 217 185   230 217 185   228 217 185   230 217 185   228 217 185   231 218 186   230 219 189   232 218 189   230 219 189   232 218 189   230 219 189   232 218 189   230 219 189   232 218 189   230 219 189   232 218 189   230 219 189   232 218 189   230 219 189   232 218 189   230 219 189   232 218 189   232 218 189   232 218 189   232 218 189   232 218 189   232 218 189   232 218 189   232 218 189   232 218 189   232 218 189  
 230 216 186   230 216 186   230 216 186   230 216 186   230 216 186   230 216 186   230 216 186   230 216 186   230 216 186   230 216 186   230 216 186   230 216 186   230 216 186   230 216 186   230 216 186   230 216 186   229 215 186   229 215 186   230 216 187   230 216 187   231 217 188   232 218 189   232 219 187   232 219 187   230 217 185   230 217 185   230 217 185   231 217 186   231 218 186   231 218 186   231 218 185   231 218 186   232 218 189   232 218 189   232 218 189   232 218 189   232 218 189   232 218 189   232 218 189   232 218 189   232 218 189   232 218 189   232 218 189   232 218 189   232 218 189   232 218 189   232 218 189   232 218 189   232 218 189   232 218 189   232 218 189   232 218 189   232 218 189   232 218 189   232 218 189   232 218 189   232 218 189  
 232 218 189   232 218 189   232 218 189   232 218 189   232 218 189   232 218 189   232 218 189   232 218 189   232 218 189   232 218 189   232 218 189   232 218 189   232 218 189   232 218 189   232 218 189   232 218 189   231 217 188   231 217 188   232 218 189   232 218 189   233 219 190   233 219 190   233 220 188   234 221 189   232 219 187   232 219 187   232 219 187   232 219 187   233 220 188   233 220 188   233 220 188   233 220 188   232 218 189   232 218 189   232 218 189   232 218 189   232 218 189   232 218 189   232 218 189   232 218 189   232 218 189   232 218 189   232 218 189   232 218 189   232 218 189   232 218 189   232 218 189   232 218 189   232 218 189   232 218 189   232 218 189   232 218 189   232 218 189   232 218 189   232 218 189   232 218 189   232 218 189  
 232 218 189   232 218 189   232 218 189   232 218 189   232 218 189   232 218 189   232 218 189   232 218 189   232 218 189   232 218 189   232 218 189   232 218 189   232 218 189   232 218 189   232 218 189   232 218 189   232 218 189   233 219 190   233 219 190   233 219 190   233 219 190   233 219 190   233 219 189   233 220 190   232 218 188   232 218 188   233 219 189   233 219 189   233 219 189   233 219 189   233 219 189   234 220 190   232 218 189   232 218 189   232 218 189   232 218 189   232 218 189   232 218 189   232 218 189   232 218 189   232 218 189   232 218 189   232 218 189   232 218 189   232 218 189   232 218 189   232 218 189   232 218 189   232 218 190   232 218 190   232 218 190   232 218 190   232 218 190   232 218 190   232 218 190   232 218 190   232 218 190  
 231 217 188   231 217 188   231 217 188   231 217 188   231 217 188   231 217 188   231 217 188   231 217 188   231 217 188   231 217 188   231 217 188   231 217 188   231 217 188   231 217 188   231 217 188   231 217 188   233 219 190   233 219 190   233 219 190   233 219 190   233 219 190   233 219 190   233 219 190   233 219 190   232 218 189   232 218 189   232 218 189   233 219 190   233 219 190   233 219 190   233 219 190   233 219 190   232 218 189   232 218 189   232 218 189   232 218 189   232 218 189   232 218 189   232 218 189   232 218 189   232 218 189   232 218 189   232 218 189   232 218 189   232 218 189   232 218 189   232 218 189   232 218 189   232 218 191   232 218 191   232 218 191   232 218 191   232 218 191   232 218 191   232 218 191   232 218 191   232 218 191  
 232 218 189   232 218 189   232 218 189   232 218 189   232 218 189   232 218 189   232 218 189   232 218 189   232 218 189   232 218 189   232 218 189   232 218 189   232 218 189   232 218 189   232 218 189   232 218 189   232 219 187   232 219 187   232 219 187   232 219 187   232 218 189   232 218 189   232 218 189   232 218 189   231 217 188   232 218 189   232 218 191   232 218 191   232 218 191   232 218 191   233 219 192   233 219 192   232 218 189   232 218 189   232 218 189   232 218 189   232 218 189   232 218 189   232 218 189   232 218 189   232 218 189   232 218 189   232 218 189   232 218 189   232 218 189   232 218 189   232 218 189   232 218 189   232 218 191   232 218 192   232 218 192   232 218 192   232 218 192   232 218 192   232 218 192   232 218 192   232 218 192  
 233 219 190   233 219 190   233 219 190   233 219 190   233 219 190   233 219 190   233 219 190   233 219 190   233 219 190   233 219 190   233 219 190   233 219 190   233 219 190   233 219 190   233 219 190   233 219 190   232 219 187   232 219 187   232 219 187   232 219 187   232 218 189   231 217 188   231 217 188   231 217 188   231 217 189   231 217 190   231 217 190   231 217 191   232 218 191   232 218 191   232 218 191   232 218 191   232 218 189   232 218 189   232 218 189   232 218 189   232 218 189   232 218 189   232 218 189   232 218 189   232 218 189   232 218 189   232 218 189   232 218 189   232 218 189   232 218 189   232 218 189   232 218 191   232 218 192   232 218 192     0   0   0     0   0   0     0   0   0     0   0   0     0   0   0     0   0   0     0   0   0  
 232 218 189   232 218 189   232 218 189   232 218 189   232 218 189   232 218 189   232 218 189   232 218 189   232 218 189   232 218 189   232 218 189   232 218 189   232 218 189   232 218 189   232 218 189   232 218 189   232 219 187   232 219 187   232 219 187   232 219 187   232 218 189   232 218 189   232 218 189   232 218 190   232 218 191   232 218 191   232 218 192   232 218 192   232 218 192   232 218 192   232 218 192   232 218 192   232 218 190   232 218 189   232 218 189   232 218 189   232 218 189   232 218 189   232 218 189   232 218 189   232 218 189   232 218 189   232 218 189   232 218 189   232 218 189   232 218 189   232 218 189   232 218 191   232 218 192   232 217 194     0   0   0     0   0   0     0   0   0     0   0   0     0   0   0     0   0   0     0   0   0  
 232 218 189   232 218 189   232 218 189   232 218 189   232 218 189   232 218 189   232 218 189   232 218 189   232 218 189   232 218 189   232 218 189   232 218 189   232 218 189   232 218 189   232 218 189   232 218 189   232 219 187   232 219 187   232 219 187   232 219 187   232 218 189   232 218 189   232 218 190   232 218 191   232 218 191   232 218 192   232 218 192   232 218 192   232 217 193   232 217 193   232 217 193   232 218 192   232 218 191   232 218 189   232 218 189   232 218 189   232 218 189   232 218 189   232 218 189   232 218 189   232 218 189   232 218 189   232 218 189   232 218 189   232 218 189   232 218 189   232 218 189   232 218 191   232 217 193   232 217 195     0   0   0     0   0   0     0   0   0     0   0   0     0   0   0     0   0   0     0   0   0  
 232 218 189   232 218 189   232 218 189   232 218 189   232 218 189   232 218 189   232 218 189   232 218 189   232 218 189   232 218 189   232 218 189   232 218 189   232 218 189   232 218 189   232 218 189   232 218 189   232 219 187   232 219 187   232 219 187   232 219 187   232 218 189   232 218 189   232 218 191   232 218 191   232 218 192   232 218 192   232 218 192   232 217 194   232 217 194   232 217 194   232 217 194   232 218 192   232 218 191   232 218 189   232 218 189   232 218 189   232 218 189   232 218 189   232 218 189   232 218 189   232 218 189   232 218 189   232 218 189   232 218 189   232 218 189   232 218 189   232 218 189   232 218 191   232 217 194   232 217 196     0   0   0     0   0   0     0   0   0     0   0   0     0   0   0     0   0   0     0   0   0  
 232 218 189   232 218 189   232 218 189   232 218 189   232 218 189   232 218 189   232 218 189   232 218 189   232 218 189   232 218 189   232 218 189   232 218 189   232 218 189   232 218 189   232 218 189   232 218 189   232 219 187   232 219 187   232 219 187   232 219 187   232 218 189   232 218 189   232 218 191   232 218 191   232 218 192   232 218 192   232 217 194   232 217 194   232 217 194   232 217 196   232 217 196   232 217 194   232 218 191   232 218 189   232 218 189   232 218 189   232 218 189   232 218 189   232 218 189   232 218 189   232 218 189   232 218 189   232 218 189   232 218 189   232 218 189   232 218 189   232 218 189   232 218 191   232 217 194   232 217 196     0   0   0     0   0   0     0   0   0     0   0   0     0   0   0     0   0   0     0   0   0  
 232 218 189   232 218 189   232 218 189   232 218 189   232 218 189   232 218 189   232 218 189   232 218 189   232 218 189   232 218 189   232 218 189   232 218 189   232 218 189   232 218 189   232 218 189   232 218 189   232 219 187   232 219 186   232 219 187   232 219 187   232 218 189   232 218 189   232 218 191   232 218 191   232 218 192   232 218 192   232 217 194   232 217 194   232 217 196   232 217 196   232 217 196   232 217 195   232 218 191   232 218 189   232 218 189   232 218 189   232 218 189   232 218 189   232 218 189   232 218 189   232 218 189   232 218 189   232 218 189   232 218 189   232 218 189   232 218 189   232 218 189   232 218 191   232 217 195   232 217 196     0   0   0     0   0   0     0   0   0     0   0   0     0   0   0     0   0   0     0   0   0  
 232 218 190   232 218 190   232 218 190   232 218 190   232 218 190   232 218 190   232 218 190   232 218 190   232 218 190   232 218 190   232 218 190   232 218 190   232 218 190   232 218 190   232 218 190   232 218 190   232 219 188   232 219 187   232 219 188   232 219 188   232 218 190   232 218 190   232 218 192   232 218 192   232 218 192   232 218 193   232 217 194   232 217 194   232 217 196   232 217 196   232 217 198   232 217 196   232 218 192   232 218 190   232 218 190   232 218 190   232 218 190   232 218 190   232 218 190   232 218 190   232 218 190   232 218 190   232 218 190   232 218 190   232 218 190   232 218 190   232 218 190   232 218 192   232 217 196   232 217 198     0   0   0     0   0   0     0   0   0     0   0   0     0   0   0     0   0   0     0   0   0  
 232 217 193   232 217 193   231 216 192   231 216 192   231 216 192   232 217 193   233 218 194   233 218 194   231 216 192   231 216 192   231 216 192   231 216 192   231 216 192   231 216 192   231 216 192   231 216 192   231 216 192   231 216 192   231 216 192   231 216 192   231 216 192   231 216 192   231 216 193   231 216 193   231 216 193   231 216 195   231 216 195   231 216 195   231 216 195   231 216 195   231 216 196   231 216 195   231 216 193   232 217 193   233 218 194   233 218 194   232 217 193   232 217 193   233 218 194   233 219 194   232 217 193   232 217 193   231 216 192   231 216 192   231 216 192   230 215 191   230 215 191   229 214 191   233 218 197   233 218 197     0   0   0     0   0   0     0   0   0     0   0   0     0   0   0     0   0   0     0   0   0  
 233 218 197   233 218 197   232 217 196   232 217 196   232 217 196   233 218 197   233 218 197   234 219 198   232 217 196   232 217 196   232 217 196   232 217 196   232 217 196   232 217 196   232 217 196   232 217 196   232 217 196   232 217 196   232 217 196   232 217 196   232 217 196   232 217 196   232 217 196   232 217 196   232 217 196   232 217 196   232 217 196   232 217 196   232 217 196   232 217 196   232 217 196   232 217 196   231 216 195   232 217 196   233 218 197   233 218 197   232 217 196   232 217 196   233 218 197   234 219 198   231 216 195   231 216 195   230 215 194   230 215 194   229 214 193   228 213 192   228 213 192   228 213 192   233 218 197   232 217 196     0   0   0     0   0   0     0   0   0     0   0   0     0   0   0     0   0   0     0   0   0  
 234 219 198   233 218 197   233 218 197   232 217 196   232 217 196   233 218 197   233 218 197   234 219 198   232 217 196   232 217 196   232 217 196   232 217 196   232 217 196   232 217 196   232 217 196   232 217 196   232 217 196   232 217 196   232 217 196   232 217 196   232 217 196   232 217 196   232 217 196   232 217 196   232 217 196   232 217 196   232 217 196   232 217 196   232 217 196   232 217 196   232 217 196   232 217 196   231 216 195   232 217 196   233 218 197   233 218 197   231 216 195   231 216 195   232 217 196   233 218 197   230 215 194   230 215 194   230 215 194   229 214 193   228 213 192   228 213 192   228 213 192   227 212 191   233 218 197   232 217 196     0   0   0     0   0   0     0   0   0     0   0   0     0   0   0     0   0   0     0   0   0  
 233 218 197   232 217 196   231 216 195   230 215 195   230 215 194   230 215 194   231 216 195   231 216 195   230 215 194   230 215 194   230 215 194   230 215 194   230 215 194   230 215 194   230 215 194   230 215 194   230 215 194   230 215 194   230 215 194   230 215 194   230 215 194   230 215 194   230 215 194   230 215 194   230 215 194   230 215 194   230 215 194   230 215 194   230 215 194   230 215 194   230 215 194   230 215 194   231 216 195   232 217 196   233 218 197   232 217 195   230 215 195   230 215 194   230 215 195   232 217 195   230 215 194   230 215 194   230 215 194   230 215 194   230 215 193   230 215 193   230 215 193   230 215 193   232 217 196   232 217 196     0   0   0     0   0   0     0   0   0     0   0   0     0   0   0     0   0   0     0   0   0  
 232 217 196   231 216 195   230 215 194   230 215 194   229 214 193   229 214 193   229 214 193   229 214 193   229 214 193   229 214 193   229 214 193   229 214 193   229 214 193   229 214 193   229 214 193   229 214 193   229 214 193   229 214 193   229 214 193   229 214 193   229 214 193   229 214 193   229 214 193   229 214 193   229 214 193   229 214 193   229 214 193   229 214 193   229 214 193   229 214 193   229 214 193   229 214 193   231 216 195   232 217 196   232 217 196   231 216 195   230 215 194   229 214 193   230 215 194   231 216 195   232 217 196   232 217 196   232 217 196   232 217 196   232 217 196   232 217 196   232 217 196   232 217 196   232 217 196   232 217 196     0   0   0     0   0   0     0   0   0     0   0   0     0   0   0     0   0   0     0   0   0  
 232 217 195   230 215 195   230 215 194   229 214 193   228 213 192   228 213 192   228 213 192   228 213 192   229 214 193   229 214 193   229 214 193   229 214 193   229 214 193   229 214 193   229 214 193   229 214 193   229 214 193   229 214 193   229 214 193   229 214 193   229 214 193   229 214 193   229 214 193   229 214 193   229 214 193   229 214 193   229 214 193   229 214 193   229 214 193   229 214 193   229 214 193   229 214 193   230 215 194   231 216 195   232 217 196   230 215 194   229 214 193   228 213 192   228 213 192   229 214 193   231 216 195   231 216 195   231 216 195   231 216 195   231 216 195   231 216 195   231 216 195   232 217 196   232 217 196   231 216 195     0   0   0     0   0   0     0   0   0     0   0   0     0   0   0     0   0   0     0   0   0  
 233 218 197   232 217 196   231 216 195   230 215 194   229 214 193   229 214 193   229 214 193   229 214 193   229 214 193   229 214 193   229 214 193   229 214 193   229 214 193   229 214 193   229 214 193   229 214 193   229 214 193   229 214 193   229 214 193   229 214 193   229 214 193   229 214 193   229 214 193   229 214 193   229 214 193   229 214 193   229 214 193   229 214 193   229 214 193   229 214 193   229 214 193   229 214 193   230 215 194   231 216 195   231 216 195   230 215 194   228 213 192   227 212 191   227 212 191   228 213 192   230 215 194   230 215 194   230 215 194   230 215 194   230 215 194   231 216 195   231 216 195   231 216 195   232 217 196   231 216 195     0   0   0     0   0   0     0   0   0     0   0   0     0   0   0     0   0   0     0   0   0  
   0   0   0     0   0   0     0   0   0     0   0   0     0   0   0     0   0   0     0   0   0     0   0   0     0   0   0     0   0   0     0   0   0     0   0   0     0   0   0     0   0   0   229 214 193   229 214 193   229 214 193   229 214 193   229 214 193   229 214 193   229 214 193   229 214 193   229 214 193   229 214 193   229 214 193   229 214 193   229 214 193   229 214 193   229 214 193   229 214 193   229 214 193   229 214 193   230 215 194     0   0   0     0   0   0     0   0   0     0   0   0     0   0   0     0   0   0     0   0   0     0   0   0     0   0   0     0   0   0     0   0   0     0   0   0     0   0   0     0   0   0     0   0   0     0   0   0     0   0   0     0   0   0     0   0   0     0   0   0     0   0   0     0   0   0     0   0   0     0   0   0  
   0   0   0     0   0   0     0   0   0     0   0   0     0   0   0     0   0   0     0   0   0     0   0   0     0   0   0     0   0   0     0   0   0     0   0   0     0   0   0     0   0   0   229 214 193   229 214 193   229 214 193   229 214 193   229 214 193   229 214 193   229 214 193   229 214 193   229 214 193   229 214 193   229 214 193   229 214 193   229 214 193   229 214 193   229 214 193   229 214 193   229 214 193   229 214 193   230 215 194     0   0   0     0   0   0     0   0   0     0   0   0     0   0   0     0   0   0     0   0   0     0   0   0     0   0   0     0   0   0     0   0   0     0   0   0     0   0   0     0   0   0     0   0   0     0   0   0     0   0   0     0   0   0     0   0   0     0   0   0     0   0   0     0   0   0     0   0   0     0   0   0  
   0   0   0     0   0   0     0   0   0     0   0   0     0   0   0     0   0   0     0   0   0     0   0   0     0   0   0     0   0   0     0   0   0     0   0   0     0   0   0     0   0   0   229 214 193   229 214 193   229 214 193   229 214 193   229 214 193   229 214 193   229 214 193   229 214 193   229 214 193   229 214 193   229 214 193   229 214 193   229 214 193   229 214 193   229 214 193   229 214 193   229 214 193   229 214 193   230 215 194     0   0   0     0   0   0     0   0   0     0   0   0     0   0   0     0   0   0     0   0   0     0   0   0     0   0   0     0   0   0     0   0   0     0   0   0     0   0   0     0   0   0     0   0   0     0   0   0     0   0   0     0   0   0     0   0   0     0   0   0     0   0   0     0   0   0     0   0   0     0   0   0  
   0   0   0     0   0   0     0   0   0     0   0   0     0   0   0     0   0   0     0   0   0     0   0   0     0   0   0     0   0   0     0   0   0     0   0   0     0   0   0     0   0   0   229 214 193   229 214 193   229 214 193   229 214 193   229 214 193   229 214 193   229 214 193   229 214 193   229 214 193   229 214 193   229 214 193   229 214 193   229 214 193   229 214 193   229 214 193   229 214 193   229 214 193   229 214 193   230 215 194     0   0   0     0   0   0     0   0   0     0   0   0     0   0   0     0   0   0     0   0   0     0   0   0     0   0   0     0   0   0     0   0   0     0   0   0     0   0   0     0   0   0     0   0   0     0   0   0     0   0   0     0   0   0     0   0   0     0   0   0     0   0   0     0   0   0     0   0   0     0   0   0  
   0   0   0     0   0   0     0   0   0     0   0   0     0   0   0     0   0   0     0   0   0     0   0   0     0   0   0     0   0   0     0   0   0     0   0   0     0   0   0     0   0   0   229 214 193   229 214 193   229 214 193   229 214 193   229 214 193   229 214 193   229 214 193   229 214 193   229 214 193   229 214 193   229 214 193   229 214 193   229 214 193   229 214 193   229 214 193   229 214 193   229 214 193   229 214 193   230 215 194     0   0   0     0   0   0     0   0   0     0   0   0     0   0   0     0   0   0     0   0   0     0   0   0     0   0   0     0   0   0     0   0   0     0   0   0     0   0   0     0   0   0     0   0   0     0   0   0     0   0   0     0   0   0     0   0   0     0   0   0     0   0   0     0   0   0     0   0   0     0   0   0  
   0   0   0     0   0   0     0   0   0     0   0   0     0   0   0     0   0   0     0   0   0     0   0   0     0   0   0     0   0   0     0   0   0     0   0   0     0   0   0     0   0   0   229 214 193   229 214 193   229 214 193   229 214 193   229 214 193   229 214 193   229 214 193   229 214 193   229 214 193   229 214 193   229 214 193   229 214 193   229 214 193   229 214 193   229 214 193   229 214 193   229 214 193   229 214 193   230 215 194     0   0   0     0   0   0     0   0   0     0   0   0     0   0   0     0   0   0     0   0   0     0   0   0     0   0   0     0   0   0     0   0   0     0   0   0     0   0   0     0   0   0     0   0   0     0   0   0     0   0   0     0   0   0     0   0   0     0   0   0     0   0   0     0   0   0     0   0   0     0   0   0  
   0   0   0     0   0   0     0   0   0     0   0   0     0   0   0     0   0   0     0   0   0     0   0   0     0   0   0     0   0   0     0   0   0     0   0   0     0   0   0     0   0   0   229 214 193   229 214 193   229 214 193   229 214 193   229 214 193   229 214 193   229 214 193   229 214 193   229 214 193   229 214 193   229 214 193   229 214 193   229 214 193   229 214 193   229 214 193   229 214 193   229 214 193   229 214 193   229 215 193     0   0   0     0   0   0     0   0   0     0   0   0     0   0   0     0   0   0     0   0   0     0   0   0     0   0   0     0   0   0     0   0   0     0   0   0     0   0   0     0   0   0     0   0   0     0   0   0     0   0   0     0   0   0     0   0   0     0   0   0     0   0   0     0   0   0     0   0   0     0   0   0  
   0   0   0     0   0   0     0   0   0     0   0   0     0   0   0     0   0   0     0   0   0     0   0   0     0   0   0     0   0   0     0   0   0     0   0   0     0   0   0     0   0   0   229 214 193   229 214 193   229 214 193   229 214 193   229 214 193   229 214 193   229 214 193   229 214 193   229 214 193   229 214 193   229 214 193   229 214 193   229 214 193   229 214 193   229 214 193   229 214 193   229 214 193   229 214 193   227 215 193     0   0   0     0   0   0     0   0   0     0   0   0     0   0   0     0   0   0     0   0   0     0   0   0     0   0   0     0   0   0     0   0   0     0   0   0     0   0   0     0   0   0     0   0   0     0   0   0     0   0   0     0   0   0     0   0   0     0   0   0     0   0   0     0   0   0     0   0   0     0   0   0  
   0   0   0     0   0   0     0   0   0     0   0   0     0   0   0     0   0   0     0   0   0     0   0   0     0   0   0     0   0   0     0   0   0     0   0   0     0   0   0     0   0   0   229 214 193   229 214 193   229 214 193   229 214 193   229 214 193   229 214 193   229 214 193   229 214 193   229 214 193   229 214 193   229 214 193   229 214 193   229 214 193   229 214 193   229 214 193   229 214 193   229 214 193   229 214 193   228 214 193     0   0   0     0   0   0     0   0   0     0   0   0     0   0   0     0   0   0     0   0   0     0   0   0     0   0   0     0   0   0     0   0   0     0   0   0     0   0   0     0   0   0     0   0   0     0   0   0     0   0   0     0   0   0     0   0   0     0   0   0     0   0   0     0   0   0     0   0   0     0   0   0  
   0   0   0     0   0   0     0   0   0     0   0   0     0   0   0     0   0   0     0   0   0     0   0   0     0   0   0     0   0   0     0   0   0     0   0   0     0   0   0     0   0   0   229 214 193   229 214 193   229 214 193   229 214 193   229 214 193   229 214 193   229 214 193   229 214 193   229 214 193   229 214 193   229 214 193   229 214 193   229 214 193   229 214 193   229 214 193   229 214 193   229 214 193   229 214 193   229 214 193     0   0   0     0   0   0     0   0   0     0   0   0     0   0   0     0   0   0     0   0   0     0   0   0     0   0   0     0   0   0     0   0   0     0   0   0     0   0   0     0   0   0     0   0   0     0   0   0     0   0   0     0   0   0     0   0   0     0   0   0     0   0   0     0   0   0     0   0   0     0   0   0  
