P3
50 67
255
   0   0   0     0   0   0     0   0   0     0   0   0     0   0   0     0   0   0     0   0   0     0   0   0     0   0   0     0   0   0     0   0   0     0   0   0     0   0   0     0   0   0     0   0   0     0   0   0     0   0   0     0   0   0     0   0   0     0   0   0     0   0   0   197 108 130   198 109 131   198 109 131   197 108 130   197 108 130   195 107 128   194 107 126   194 106 127   194 106 130   195 105 131   193 102 129   194 101 131     0   0   0     0   0   0     0   0   0     0   0   0     0   0   0     0   0   0     0   0   0     0   0   0     0   0   0     0   0   0     0   0   0     0   0   0     0   0   0     0   0   0     0   0   0     0   0   0     0   0   0  
   0   0   0     0   0   0     0   0   0     0   0   0     0   0   0     0   0   0     0   0   0     0   0   0     0   0   0     0   0   0     0   0   0     0   0   0     0   0   0     0   0   0     0   0   0     0   0   0     0   0   0     0   0   0     0   0   0     0   0   0     0   0   0   198 109 131   200 111 133   199 110 132   197 108 130   195 106 128   193 104 125   194 105 125   194 105 126   194 105 127   195 105 130   193 103 130   191 101 130     0   0   0     0   0   0     0   0   0     0   0   0     0   0   0     0   0   0     0   0   0     0   0   0     0   0   0     0   0   0     0   0   0     0   0   0     0   0   0     0   0   0     0   0   0     0   0   0     0   0   0  
   0   0   0     0   0   0     0   0   0     0   0   0     0   0   0     0   0   0     0   0   0     0   0   0     0   0   0     0   0   0     0   0   0     0   0   0     0   0   0     0   0   0     0   0   0     0   0   0     0   0   0     0   0   0     0   0   0     0   0   0     0   0   0   198 110 131   200 111 133   199 110 132   197 108 130   195 106 128   194 105 127   195 106 126   193 104 125   193 103 128   194 104 130   193 103 132   191 100 131     0   0   0     0   0   0     0   0   0     0   0   0     0   0   0     0   0   0     0   0   0     0   0   0     0   0   0     0   0   0     0   0   0     0   0   0     0   0   0     0   0   0     0   0   0     0   0   0     0   0   0  
   0   0   0     0   0   0     0   0   0     0   0   0     0   0   0     0   0   0     0   0   0     0   0   0     0   0   0     0   0   0     0   0   0     0   0   0     0   0   0     0   0   0     0   0   0     0   0   0     0   0   0     0   0   0     0   0   0     0   0   0     0   0   0   199 110 132   200 111 133   200 111 133   198 109 131   196 107 129   196 106 128   196 107 127   193 105 126   192 103 125   193 103 128   193 103 129   192 101 131     0   0   0     0   0   0     0   0   0     0   0   0     0   0   0     0   0   0     0   0   0     0   0   0     0   0   0     0   0   0     0   0   0     0   0   0     0   0   0     0   0   0     0   0   0     0   0   0     0   0   0  
   0   0   0     0   0   0     0   0   0     0   0   0     0   0   0     0   0   0     0   0   0     0   0   0     0   0   0     0   0   0     0   0   0     0   0   0     0   0   0     0   0   0     0   0   0     0   0   0     0   0   0     0   0   0     0   0   0     0   0   0     0   0   0   199 110 132   200 111 133   200 111 133   199 110 132   198 109 131   197 108 130   198 109 129   194 105 126   191 101 126   191 101 127   192 102 131   192 101 132     0   0   0     0   0   0     0   0   0     0   0   0     0   0   0     0   0   0     0   0   0     0   0   0     0   0   0     0   0   0     0   0   0     0   0   0     0   0   0     0   0   0     0   0   0     0   0   0     0   0   0  
   0   0   0     0   0   0     0   0   0     0   0   0     0   0   0     0   0   0     0   0   0     0   0   0     0   0   0     0   0   0     0   0   0     0   0   0     0   0   0     0   0   0     0   0   0     0   0   0     0   0   0     0   0   0     0   0   0     0   0   0     0   0   0   200 111 133   200 111 133   200 111 133   199 110 132   198 109 131   198 109 130   198 109 129   194 105 126   191 102 124   191 101 126   192 102 128   192 102 131     0   0   0     0   0   0     0   0   0     0   0   0     0   0   0     0   0   0     0   0   0     0   0   0     0   0   0     0   0   0     0   0   0     0   0   0     0   0   0     0   0   0     0   0   0     0   0   0     0   0   0  
   0   0   0     0   0   0     0   0   0     0   0   0     0   0   0     0   0   0     0   0   0     0   0   0     0   0   0     0   0   0     0   0   0     0   0   0     0   0   0     0   0   0     0   0   0     0   0   0     0   0   0     0   0   0     0   0   0     0   0   0     0   0   0   199 110 132   200 111 133   199 110 132   199 110 132   199 110 132   199 110 132   199 110 130   194 105 126   191 101 126   191 101 127   192 102 131   192 101 132     0   0   0     0   0   0     0   0   0     0   0   0     0   0   0     0   0   0     0   0   0     0   0   0     0   0   0     0   0   0     0   0   0     0   0   0     0   0   0     0   0   0     0   0   0     0   0   0     0   0   0  
   0   0   0     0   0   0     0   0   0     0   0   0     0   0   0     0   0   0     0   0   0     0   0   0     0   0   0     0   0   0     0   0   0     0   0   0     0   0   0     0   0   0     0   0   0     0   0   0     0   0   0     0   0   0     0   0   0     0   0   0     0   0   0   198 110 132   199 110 132   199 110 132   199 110 132   199 110 132   199 110 131   198 109 129   195 106 127   192 103 125   192 102 127   192 102 128   191 100 130     0   0   0     0   0   0     0   0   0     0   0   0     0   0   0     0   0   0     0   0   0     0   0   0     0   0   0     0   0   0     0   0   0     0   0   0     0   0   0     0   0   0     0   0   0     0   0   0     0   0   0  
   0   0   0     0   0   0     0   0   0     0   0   0     0   0   0     0   0   0     0   0   0     0   0   0     0   0   0     0   0   0     0   0   0     0   0   0     0   0   0     0   0   0     0   0   0     0   0   0     0   0   0     0   0   0     0   0   0     0   0   0     0   0   0   197 109 131   198 109 131   198 109 131   199 110 132   199 110 132   199 110 131   198 109 130   195 106 128   193 103 128   192 102 128   192 102 128   190 100 129     0   0   0     0   0   0     0   0   0     0   0   0     0   0   0     0   0   0     0   0   0     0   0   0     0   0   0     0   0   0     0   0   0     0   0   0     0   0   0     0   0   0     0   0   0     0   0   0     0   0   0  
   0   0   0     0   0   0     0   0   0     0   0   0     0   0   0     0   0   0     0   0   0     0   0   0     0   0   0     0   0   0     0   0   0     0   0   0     0   0   0     0   0   0     0   0   0     0   0   0     0   0   0     0   0   0     0   0   0     0   0   0     0   0   0   200 111 133   199 110 132   198 109 131   199 110 132   198 109 131   198 109 130   196 107 129   193 105 126   192 102 127   192 102 128   193 103 130   193 103 131     0   0   0     0   0   0     0   0   0     0   0   0     0   0   0     0   0   0     0   0   0     0   0   0     0   0   0     0   0   0     0   0   0     0   0   0     0   0   0     0   0   0     0   0   0     0   0   0     0   0   0  
   0   0   0     0   0   0     0   0   0     0   0   0     0   0   0     0   0   0     0   0   0     0   0   0     0   0   0     0   0   0     0   0   0     0   0   0     0   0   0     0   0   0     0   0   0     0   0   0     0   0   0     0   0   0     0   0   0     0   0   0     0   0   0   199 110 132   198 109 131   198 109 131   199 110 132   198 109 131   197 108 130   196 107 129   193 104 128   192 102 127   193 103 129   193 103 129   192 102 130     0   0   0     0   0   0     0   0   0     0   0   0     0   0   0     0   0   0     0   0   0     0   0   0     0   0   0     0   0   0     0   0   0     0   0   0     0   0   0     0   0   0     0   0   0     0   0   0     0   0   0  
   0   0   0     0   0   0     0   0   0     0   0   0     0   0   0     0   0   0     0   0   0     0   0   0     0   0   0     0   0   0     0   0   0     0   0   0     0   0   0     0   0   0     0   0   0     0   0   0     0   0   0     0   0   0     0   0   0     0   0   0     0   0   0   198 110 132   199 110 132   199 110 132   199 110 132   199 107 130   196 105 128   195 106 128   193 103 128   193 103 128   194 104 130   192 102 129   191 101 129     0   0   0     0   0   0     0   0   0     0   0   0     0   0   0     0   0   0     0   0   0     0   0   0     0   0   0     0   0   0     0   0   0     0   0   0     0   0   0     0   0   0     0   0   0     0   0   0     0   0   0  
   0   0   0     0   0   0     0   0   0     0   0   0     0   0   0     0   0   0     0   0   0     0   0   0     0   0   0     0   0   0     0   0   0     0   0   0     0   0   0     0   0   0     0   0   0     0   0   0     0   0   0     0   0   0     0   0   0     0   0   0     0   0   0   198 110 132   199 110 132   199 110 132   198 109 131   198 106 129   195 104 127   194 105 127   194 104 128   194 104 129   195 105 131   193 103 130   190 100 128     0   0   0     0   0   0     0   0   0     0   0   0     0   0   0     0   0   0     0   0   0     0   0   0     0   0   0     0   0   0     0   0   0     0   0   0     0   0   0     0   0   0     0   0   0     0   0   0     0   0   0  
   0   0   0     0   0   0     0   0   0     0   0   0     0   0   0     0   0   0     0   0   0     0   0   0     0   0   0     0   0   0     0   0   0     0   0   0     0   0   0     0   0   0     0   0   0     0   0   0     0   0   0     0   0   0     0   0   0     0   0   0     0   0   0   198 110 132   199 110 132   199 110 132   198 109 131   198 106 129   195 105 127   195 106 128   194 104 128   195 105 130   195 105 131   193 103 130   191 101 129     0   0   0     0   0   0     0   0   0     0   0   0     0   0   0     0   0   0     0   0   0     0   0   0     0   0   0     0   0   0     0   0   0     0   0   0     0   0   0     0   0   0     0   0   0     0   0   0     0   0   0  
   0   0   0     0   0   0     0   0   0     0   0   0     0   0   0     0   0   0     0   0   0     0   0   0     0   0   0     0   0   0     0   0   0     0   0   0     0   0   0     0   0   0     0   0   0     0   0   0     0   0   0     0   0   0     0   0   0     0   0   0     0   0   0   198 110 132   199 110 132   199 110 132   199 110 132   199 107 130   197 106 128   197 108 130   195 106 130   195 105 130   195 105 131   194 104 131   192 102 130     0   0   0     0   0   0     0   0   0     0   0   0     0   0   0     0   0   0     0   0   0     0   0   0     0   0   0     0   0   0     0   0   0     0   0   0     0   0   0     0   0   0     0   0   0     0   0   0     0   0   0  
   0   0   0     0   0   0     0   0   0     0   0   0     0   0   0     0   0   0     0   0   0     0   0   0     0   0   0     0   0   0     0   0   0     0   0   0     0   0   0     0   0   0     0   0   0     0   0   0     0   0   0     0   0   0     0   0   0     0   0   0     0   0   0   199 110 132   198 109 131   198 109 131   199 110 132   200 108 131   199 108 131   198 109 131   196 106 130   195 105 130   195 105 131   195 105 131   194 104 132     0   0   0     0   0   0     0   0   0     0   0   0     0   0   0     0   0   0     0   0   0     0   0   0     0   0   0     0   0   0     0   0   0     0   0   0     0   0   0     0   0   0     0   0   0     0   0   0     0   0   0  
   0   0   0     0   0   0     0   0   0     0   0   0     0   0   0     0   0   0     0   0   0     0   0   0     0   0   0     0   0   0     0   0   0     0   0   0     0   0   0     0   0   0     0   0   0     0   0   0     0   0   0     0   0   0     0   0   0     0   0   0     0   0   0   198 112 133   198 110 132   198 109 131   199 110 132   200 108 131   200 109 131   199 110 132   196 106 130   195 105 130   195 105 130   195 105 132   195 105 131     0   0   0     0   0   0     0   0   0     0   0   0     0   0   0     0   0   0     0   0   0     0   0   0     0   0   0     0   0   0     0   0   0     0   0   0     0   0   0     0   0   0     0   0   0     0   0   0     0   0   0  
 207 131 141   207 131 141   208 132 142   209 133 143   209 133 143   210 134 144   210 134 144   209 133 143   208 131 141   208 131 141   209 132 142   210 133 143   209 131 143   204 126 143   202 125 145   199 121 142   197 118 138   199 118 137   198 116 136   195 112 132   198 113 134   196 110 131   196 108 130   197 109 129   198 109 129   200 108 129   199 108 129   198 109 131   195 107 129   194 106 128   195 107 129   194 105 130   192 104 128   192 103 128   192 102 127   192 103 125   191 102 124   194 102 125   195 103 125   196 104 127   197 103 127   198 102 129   197 103 129   196 104 129   196 104 129   194 104 129   193 103 128   192 102 127   193 103 128   192 102 127  
 205 129 139   205 129 139   207 131 141   207 131 141   208 132 142   208 132 142   210 133 143   211 135 145   209 132 142   209 132 142   209 132 142   209 132 142   208 130 142   206 128 145   206 129 149   204 126 147   202 123 143   204 123 142   203 121 141   199 116 136   202 117 138   200 114 135   200 112 134   200 112 132   201 112 132   202 110 131   199 110 131   199 110 132   196 108 130   196 108 130   197 109 131   196 108 130   195 107 129   197 108 130   197 108 130   197 108 130   196 107 129   198 107 130   200 108 130   200 108 131   198 102 129   198 102 129   198 103 129   196 104 129   194 104 129   194 104 129   193 103 128   193 103 128   193 103 128   193 103 128  
 204 128 138   204 128 138   205 129 139   205 130 140   206 130 140   207 131 141   209 133 143   213 136 146   211 134 144   210 133 143   210 133 143   208 131 141   206 129 140   206 128 143   208 129 148   207 128 147   206 127 146   208 127 146   206 124 144   202 119 139   204 119 140   202 116 137   201 113 135   200 112 132   201 112 132   200 111 131   199 110 131   200 111 133   198 109 131   199 110 132   199 111 133   199 110 133   198 110 132   199 111 133   199 111 133   199 111 133   198 110 132   198 110 132   199 110 133   200 111 133   198 104 130   198 104 130   198 105 130   197 105 130   195 105 130   194 106 130   191 106 129   192 105 129   193 105 129   192 104 128  
 203 127 137   204 128 138   205 129 139   205 129 139   206 130 140   207 131 141   209 133 143   214 137 147   212 135 145   211 134 144   211 134 144   208 131 141   206 128 140   204 126 141   205 126 144   206 127 146   206 126 145   207 126 145   206 123 143   201 118 138   203 118 139   200 115 136   200 112 134   199 110 131   199 110 130   198 109 129   198 109 129   200 111 133   198 109 131   199 110 132   199 111 133   200 112 134   199 111 133   198 110 132   198 110 132   197 109 131   197 109 131   196 110 131   195 110 131   197 109 131   197 105 130   197 105 130   196 105 130   195 105 130   194 106 130   192 107 130   192 107 130   192 107 130   192 107 130   193 105 129  
 205 128 138   206 129 139   207 130 140   207 130 140   208 131 141   209 132 142   210 133 143   213 136 146   211 134 144   211 134 144   211 134 144   209 132 142   206 129 140   203 126 139   205 127 142   205 127 143   206 127 143   207 126 143   206 123 141   200 117 135   204 119 138   201 116 135   198 113 134   198 111 133   199 111 133   197 109 131   197 108 131   200 109 132   198 109 131   198 109 131   200 111 133   199 110 133   198 110 132   196 110 131   195 110 131   195 110 131   194 110 130   193 110 130   192 109 129   192 109 129   194 106 130   195 105 130   195 106 130   192 107 130   191 107 130   191 107 130   190 108 130   190 107 130   191 107 130   190 105 128  
 206 129 139   206 129 139   207 130 140   208 130 140   209 132 142   209 132 142   209 132 142   210 133 143   210 133 143   211 134 144   212 135 145   210 133 143   208 131 142   207 129 143   208 130 146   208 130 146   206 128 144   208 127 144   206 124 142   202 119 137   206 121 140   203 118 138   201 116 137   201 114 136   202 114 136   201 113 135   200 112 134   201 110 133   199 109 131   198 109 131   199 110 132   198 110 132   197 109 131   196 110 131   196 111 132   196 113 133   195 112 132   194 112 132   192 111 130   191 110 129   192 107 130   192 107 130   192 107 130   191 107 130   190 108 130   190 108 130   190 108 130   190 108 130   190 107 130   189 105 128  
 207 127 138   208 128 139   209 129 140   209 129 140   210 130 141   209 132 142   208 131 141   206 129 139   207 130 140   210 133 143   212 135 145   211 135 145   209 133 144   209 131 145   210 132 146   208 130 144   206 127 142   208 127 144   206 125 142   202 121 138   204 121 139   201 118 136   200 115 134   200 115 135   200 115 136   200 115 136   201 113 135   202 112 134   201 109 132   201 109 132   199 110 132   198 110 132   196 109 131   195 111 131   195 112 132   194 113 132   194 113 132   192 112 131   189 110 129   188 109 128   190 106 129   190 106 129   190 107 129   189 107 129   187 108 129   187 108 129   187 108 129   188 109 130   189 108 130   188 104 127  
 207 127 138   207 127 138   208 128 139   209 129 140   209 129 140   210 130 141   206 129 139   204 127 137   205 128 138   209 132 142   212 135 145   212 135 145   210 134 144   209 131 144   209 131 145   206 128 142   203 124 139   205 124 141   203 122 140   200 119 136   200 117 135   198 114 132   197 112 131   197 112 132   198 113 134   198 113 134   200 112 134   204 113 136   202 111 133   202 110 133   200 111 133   198 110 132   195 110 131   192 109 129   193 110 130   192 111 130   191 110 130   189 110 129   186 108 126   184 107 125   189 107 129   189 107 129   188 108 129   187 108 129   187 108 129   186 109 129   186 109 129   188 109 130   189 107 129   187 105 127  
 205 123 135   208 126 138   211 129 141   211 129 141   211 131 142   212 132 143   213 134 145   213 136 146   213 136 146   213 136 146   212 136 146   212 136 146   212 136 146   212 135 147   208 130 143   205 127 140   207 128 142   210 129 144   208 127 142   204 123 138   201 120 137   199 117 134   198 115 133   197 114 133   198 115 135   198 115 135   199 113 134   201 112 134   198 110 131   198 109 131   198 110 132   198 111 133   196 112 132   195 114 133   194 113 132   192 113 132   192 114 133   190 113 131   187 112 129   189 113 131   190 111 132   187 108 129   186 108 128   185 109 129   187 110 130   185 110 130   186 110 130   186 109 129   187 109 129   189 107 129  
 205 123 135   208 126 138   211 129 141   212 130 142   212 130 142   211 131 142   213 133 144   214 136 146   213 136 146   213 136 146   212 136 146   212 136 146   212 136 146   212 135 147   209 131 144   206 128 141   207 128 142   210 129 144   208 127 142   205 124 139   201 120 137   200 118 135   199 116 134   199 115 135   199 116 136   198 115 135   198 114 134   201 113 135   200 111 132   197 109 131   198 110 132   196 112 133   195 112 132   196 115 134   195 114 133   192 113 132   193 114 133   191 114 132   187 113 130   189 113 131   190 111 132   187 109 129   185 108 128   185 109 129   187 110 130   185 110 130   186 110 130   186 109 129   187 109 129   189 107 129  
 205 121 134   209 125 138   212 128 141   212 130 142   212 130 142   212 130 142   213 133 144   215 135 146   213 135 146   213 136 146   212 136 146   212 136 146   212 136 146   213 136 146   212 132 143   210 130 141   210 130 142   211 131 144   209 128 142   206 125 140   201 120 137   200 119 135   199 118 135   200 119 137   199 118 137   198 117 136   198 114 135   199 114 135   196 111 132   196 111 132   196 111 132   196 113 133   195 113 133   195 115 134   193 114 133   193 114 133   193 115 134   191 114 132   190 113 131   191 114 132   190 111 132   187 109 129   185 108 128   184 109 129   185 110 130   185 110 130   186 110 130   186 109 129   187 109 129   189 107 129  
 205 121 134   209 125 138   212 128 141   213 129 142   212 130 142   212 130 142   214 132 144   216 136 147   215 137 147   214 137 147   213 137 147   213 137 147   214 137 147   215 136 146   213 133 144   211 131 142   211 131 142   211 131 144   210 129 143   207 126 141   201 120 137   200 120 137   201 120 137   201 120 138   200 119 138   198 117 136   197 115 135   198 115 135   196 113 133   195 112 132   196 113 133   195 115 134   195 114 133   195 116 135   194 115 134   194 115 134   194 116 135   192 115 133   190 113 131   192 115 133   190 111 132   187 109 129   185 108 128   184 109 129   185 110 130   185 110 130   187 110 130   187 109 129   189 108 129   190 106 129  
 208 122 135   211 125 138   213 128 141   212 128 141   213 129 142   213 131 143   215 133 145   216 136 147   215 137 147   214 137 147   213 137 147   213 137 147   213 137 147   213 136 145   214 134 143   212 132 141   212 132 141   212 132 143   209 130 143   206 128 141   200 122 136   199 121 136   199 121 137   200 121 139   199 120 139   197 118 139   196 116 137   198 117 136   196 115 133   195 114 133   195 114 133   194 115 134   194 115 134   195 116 135   194 115 134   194 115 134   195 115 135   193 114 133   191 112 131   193 114 133   190 111 132   187 109 129   185 108 128   185 109 129   187 110 130   187 110 130   187 110 130   187 109 129   189 108 129   190 106 129  
 210 124 137   211 125 138   212 126 139   211 127 140   212 128 141   213 131 143   216 134 146   217 137 148   216 138 148   215 138 148   214 138 148   214 138 148   215 138 148   214 135 144   214 134 143   213 133 142   212 132 141   211 131 142   208 130 142   207 129 142   201 123 137   200 122 136   199 121 137   199 120 138   199 120 139   197 118 139   196 116 137   196 117 136   194 115 134   193 114 133   194 115 134   195 115 135   194 115 134   195 116 135   194 115 134   194 115 134   195 115 135   193 114 133   191 112 131   193 114 133   190 111 132   187 109 129   185 108 128   185 109 129   187 110 130   187 110 130   187 110 130   188 108 129   190 107 129   191 106 129  
 212 124 138   212 125 139   211 125 138   210 125 138   211 127 140   214 132 144   217 136 147   217 137 148   216 138 148   215 138 148   214 138 148   214 138 148   214 138 148   212 136 144   214 135 141   214 134 143   212 132 141   211 131 142   208 129 142   207 129 142   202 124 138   199 121 136   198 120 136   198 119 137   198 119 138   196 119 139   196 118 138   196 119 137   193 116 135   193 116 134   193 116 134   194 117 135   195 116 135   195 116 135   194 115 134   193 114 133   195 115 135   195 114 133   193 112 131   194 113 132   190 111 132   187 109 129   185 108 128   185 109 129   187 110 130   187 110 130   187 110 130   188 108 129   190 107 129   191 106 129  
 213 125 139   212 125 139   211 125 138   208 124 137   211 127 139   214 132 144   218 136 148   217 137 148   216 138 148   215 138 148   214 138 148   214 138 148   215 138 148   214 135 144   214 134 143   214 134 143   212 132 143   210 130 142   207 129 142   207 129 143   202 124 140   199 121 137   198 119 137   197 118 137   198 119 138   198 119 140   196 119 139   196 119 137   193 116 135   193 116 134   194 117 135   194 117 135   195 116 135   195 116 135   194 115 134   193 114 133   195 115 134   195 114 133   193 112 131   192 113 132   189 111 130   186 109 127   185 108 126   185 109 127   187 110 129   187 110 130     0   0   0     0   0   0     0   0   0     0   0   0  
 208 120 134   205 118 132   206 120 133   207 123 136   212 127 140   214 132 144   215 134 146   215 135 146   212 135 145   214 138 148   215 139 149   213 137 147   212 136 146   212 135 144   214 134 143   213 133 142   214 134 146   214 134 148   214 133 149   214 133 150   209 128 147   206 125 144   203 122 141   202 121 140   203 122 141   203 122 141   199 120 140   195 116 137   195 116 137   195 116 137   195 116 137   195 116 137   195 116 137   195 116 137   194 115 136   194 115 136   195 117 138   194 115 136   191 112 133   192 113 132   188 114 129   187 113 128   188 114 129   188 112 127   185 108 126   186 107 126     0   0   0     0   0   0     0   0   0     0   0   0  
 208 120 134   206 119 133   206 120 133   208 123 136   212 127 140   214 132 144   216 134 146   216 136 147   213 135 145   216 139 149   216 140 150   214 138 148   214 137 147   214 135 144   214 134 143   214 134 145   214 134 147   214 133 149   214 133 151   214 133 152   209 127 149   206 124 146   203 121 143   202 120 141   203 122 141   203 122 141   200 120 140   195 116 137   195 116 137   195 116 137   195 116 137   195 116 137   195 116 137   195 116 137   194 115 136   194 115 136   195 117 138   194 115 136   191 112 133   191 114 132   189 115 129   186 114 126   188 114 128   188 112 127   185 108 126   186 107 126     0   0   0     0   0   0     0   0   0     0   0   0  
 208 122 135   207 120 134   207 121 134   209 124 137   212 129 142   214 132 144   215 133 145   215 135 146   213 135 145   216 139 149   216 140 150   215 139 149   214 138 148   212 136 144   214 134 143   214 134 145   214 134 146   214 134 148   213 132 149   213 132 151   209 128 149   206 124 146   203 121 143   202 120 141   203 122 141   203 122 141   200 120 140   195 116 137   195 116 137   195 116 137   195 116 137   195 116 137   195 116 137   195 116 137   194 115 136   194 115 136   195 117 138   194 115 136   191 112 133   191 114 132   189 115 129   188 114 127   188 114 129   188 112 127   184 107 125   185 106 125     0   0   0     0   0   0     0   0   0     0   0   0  
 209 123 136   208 122 135   208 122 135   210 125 138   213 129 142   213 131 143   214 133 145   214 134 145   211 134 144   214 137 147   215 139 149   214 138 148   213 137 147   212 136 144   214 134 143   214 134 145   215 134 148   214 133 149   213 132 150   212 131 150   211 129 151   207 125 147   204 122 144   203 122 141   203 122 141   203 122 141   200 119 139   195 116 137   195 116 137   195 116 137   195 116 137   195 116 137   195 116 137   195 116 137   194 115 136   194 115 136   195 117 138   194 115 136   191 112 133   192 113 132   191 114 130   188 114 129   188 114 129   187 111 128   184 107 125   185 106 127     0   0   0     0   0   0     0   0   0     0   0   0  
 208 124 137   207 123 135   207 123 136   209 127 139   212 130 142   213 131 143   213 131 143   211 131 142   209 131 142   212 134 144   213 137 147   212 135 145   211 135 145   212 135 143   212 135 143   213 136 146   213 135 146   213 135 148   211 132 148   209 130 149   209 130 151   206 127 148   202 123 144   201 122 141   201 122 141   201 122 141   198 119 139   195 116 137   195 116 137   195 116 137   195 116 137   195 116 137   195 116 137   195 116 137   194 115 136   194 115 136   195 117 138   194 115 136   191 112 133   191 114 132   189 115 130   188 114 129   190 113 130   188 111 129   183 106 124   184 105 126     0   0   0     0   0   0     0   0   0     0   0   0  
 209 125 138   208 124 137   209 125 138   210 127 139   212 130 142   212 130 142   212 130 142   210 130 141   207 130 140   210 134 144   212 136 146   210 135 145   211 135 145   212 135 143   212 135 143   213 136 146   214 135 149   213 135 150   211 132 150   209 130 149   209 131 152   206 127 148   203 124 145   201 122 141   201 122 141   201 122 141   198 119 139   195 116 137   195 116 137   195 116 137   195 116 137   195 116 137   195 116 137   195 116 137   194 115 136   194 115 136   195 117 138   194 115 136   191 112 133   192 113 134   191 114 132   188 114 131   190 113 131   187 111 128   183 106 126   183 104 125     0   0   0     0   0   0     0   0   0     0   0   0  
 209 127 139   208 126 138   209 127 139   210 128 140   212 130 142   211 131 142   210 131 141   208 131 141   207 130 140   210 134 144   213 137 147   212 135 145   211 135 145   212 135 143   213 136 144   214 137 147   214 136 147   212 134 148   210 131 147   208 129 148   211 132 153   207 128 149   203 124 145   201 122 142   201 122 141   201 122 141   198 119 139   195 116 137   195 116 137   195 116 137   195 116 137   195 116 137   195 116 137   195 116 137   194 115 136   194 115 136   195 117 138   194 115 136   191 112 133   192 113 134   191 114 132   190 113 131   190 113 132   187 109 130   183 104 125   183 104 125     0   0   0     0   0   0     0   0   0     0   0   0  
 209 127 139   208 126 138   209 127 139   210 128 140   212 130 142   211 131 142   210 131 141   208 131 141   208 130 140   212 134 144   213 137 147   213 137 147   212 136 146   212 135 144   213 136 144   214 137 147   214 135 149   212 134 149   210 131 149   208 129 148   211 132 153   207 128 149   203 124 145   201 122 142   201 122 141   200 121 140   198 119 139   195 116 137   195 116 137   195 116 137   195 116 137   195 116 137   195 116 137   195 116 137   194 115 136   194 115 136   195 117 138   194 115 136   191 112 133   192 113 134   191 114 134   190 113 133   190 113 133   187 109 130   183 104 125   183 104 126     0   0   0     0   0   0     0   0   0     0   0   0  
 208 128 139   208 128 139   208 128 139   209 129 140   211 131 142   209 132 142   208 131 141   209 132 142   209 132 142   211 134 144   212 135 145   212 135 145   212 136 146   212 137 145   212 137 144   212 136 146   212 135 146   211 135 147   209 132 148   208 131 149   207 130 150   208 131 151   208 131 151   202 125 144   197 120 138   196 119 137   196 118 137   196 117 138   196 117 138   195 116 137   195 116 137   195 116 137   195 116 137   196 117 138   196 117 138   194 115 136   195 116 137   196 117 138   195 116 137   193 114 135   192 113 134   189 110 132   186 107 129   184 105 127   183 104 126   184 105 127     0   0   0     0   0   0     0   0   0     0   0   0  
 208 128 139   208 128 139   208 128 139   209 129 140   211 131 142   209 132 142   208 131 141   209 132 142   209 132 142   211 134 144   212 135 145   212 135 145   212 136 146   212 137 145   212 137 144   212 136 146   212 136 148   211 135 149   209 132 150   208 131 149   206 129 149   207 130 150   207 130 150   202 125 144   198 121 139   197 120 138   197 119 138   196 117 138   196 117 138   196 117 138   195 116 137   195 116 137   195 116 137   195 117 138   195 116 137   194 115 136   194 115 136   195 116 137   194 115 136   193 114 135   192 113 135   189 110 132   186 107 129   184 105 127   183 104 126   184 105 127     0   0   0     0   0   0     0   0   0     0   0   0  
 206 129 139   205 129 139   206 129 139   207 130 140   209 132 142   209 132 142   208 131 141   209 132 142   209 132 142   211 134 144   212 135 145   212 135 145   213 136 146   212 137 145   212 137 144   212 136 146   212 136 146   212 136 148   210 133 148   209 132 150   205 128 148   206 129 149   206 129 149   203 126 144   199 122 140   198 121 139   197 120 139   196 117 138   196 117 138   196 117 138   196 117 138   195 116 137   195 116 137   195 115 137   194 115 136   193 114 135   193 114 135   194 115 136   193 114 135   192 113 134   192 113 135   189 109 134   186 106 131   184 104 129   183 103 128   184 104 129     0   0   0     0   0   0     0   0   0     0   0   0  
 206 129 139   205 129 139   206 129 139   207 130 140   209 132 142   209 132 142   208 131 141   209 132 142   209 132 142   211 134 144   212 135 145   212 135 145   213 136 146   212 136 144   212 137 144   212 136 146   213 137 149   212 135 150   210 133 150   209 132 150   204 127 147   205 128 148   205 128 148   203 126 145   201 124 142   199 122 140   198 120 139   196 117 138   197 118 139   197 118 139   196 117 138   195 117 138   195 116 137   194 115 136   193 114 135   192 113 134   192 113 134   193 114 135   192 113 134   191 112 134   192 112 137   189 109 134   186 106 131   184 104 129   183 103 128   184 104 129     0   0   0     0   0   0     0   0   0     0   0   0  
 205 129 139   205 129 139   205 129 139   206 130 140   208 132 142   208 132 142   207 131 141   209 132 142   209 132 142   211 134 144   212 135 145   212 135 145   213 136 146   212 136 144   212 137 144   212 136 146   213 137 147   213 137 149   211 135 150   210 133 151   205 128 148   204 127 147   204 127 147   203 126 145   202 125 143   200 123 141   197 120 139   196 117 138   197 118 139   198 119 140   197 118 139   195 117 138   195 116 137   194 115 136   193 114 135   192 113 134   192 113 134   193 114 135   192 113 134   190 111 133   194 111 137   191 108 136   188 105 133   186 103 131   185 102 130   186 103 129     0   0   0     0   0   0     0   0   0     0   0   0  
 205 129 139   205 129 139   205 129 139   206 130 140   208 132 142   208 132 142   207 131 141   209 132 142   209 132 142   211 134 144   212 135 145   212 135 145   213 136 146   212 136 144   212 137 144   212 136 146   213 137 149   213 136 151   211 134 152   211 134 152   205 128 148   205 128 148   204 127 147   203 126 145   202 125 143   200 123 141   197 120 139   196 117 138   197 118 139   198 119 140   198 119 140   196 117 138   195 116 137   194 115 136   192 113 134   191 112 133   192 113 134   193 114 135   191 112 133   190 111 133   194 111 137   191 108 136   188 105 133   186 103 131   185 102 130   186 103 129     0   0   0     0   0   0     0   0   0     0   0   0  
 205 129 139   205 129 139   205 129 139   206 130 140   208 132 142   208 132 142   207 131 141   208 132 142   208 132 142   211 134 144   212 135 145   212 135 145   213 136 146   212 136 144   210 137 144   210 137 146   211 138 147   211 138 150   210 136 150   209 135 152   205 130 150   203 128 148   202 127 147   202 127 145   200 126 143   197 122 139   196 118 137   197 118 139   198 119 140   199 120 141   198 119 140   196 117 138   195 116 137   194 115 136   193 114 135   192 113 134   192 113 134   193 114 135   192 113 134   190 111 133   194 111 137   191 108 136   188 105 133   186 103 131   185 102 130   186 103 131     0   0   0     0   0   0     0   0   0     0   0   0  
 205 129 139   205 129 139   205 129 139   206 130 140   208 132 142   208 132 142   207 131 141   208 132 142   208 132 142   211 134 144   212 135 145   212 135 145   213 136 146   212 136 146   211 135 145   212 136 146   211 138 149   211 137 150   210 136 150   210 136 153   205 130 150   203 128 148   202 127 147   202 127 145   200 126 143   197 122 140   195 118 138   196 117 138   198 119 140   199 120 141   199 120 141   196 117 138   195 116 137   194 115 136   193 114 136   192 113 135   192 113 135   193 114 136   192 113 135   191 111 136   194 111 139   191 108 136   188 105 133   186 103 131   185 102 130   186 103 131     0   0   0     0   0   0     0   0   0     0   0   0  
 205 128 138   205 128 138   206 129 139   207 130 140   208 131 141   208 131 141   209 132 142   208 131 141   208 130 140   210 133 143   211 134 144   211 134 144   213 136 146   212 136 146   213 135 148   214 136 149   212 137 149   210 136 149   206 133 147   203 132 146   202 131 147   204 131 148   204 131 148   201 127 146   198 123 143   197 122 142   197 122 142   200 122 142   198 119 138   200 121 140   199 121 142   196 117 138   194 115 137   192 113 136   191 111 136   190 110 135   189 109 134   190 110 135   190 110 137   192 112 139   189 109 136   187 107 134   187 107 134   187 107 134   184 104 131   184 104 131     0   0   0     0   0   0     0   0   0     0   0   0  
 205 128 138   205 128 138   206 129 139   207 130 140   208 131 141   208 131 141   209 132 142   209 132 142   209 132 142   211 134 144   212 135 145   211 134 144   213 136 146   214 135 147   215 135 148   214 136 149   213 136 149   211 136 149   207 134 148   203 132 146   203 132 148   204 133 149   204 131 148   201 127 146   198 123 143   197 122 143   200 122 142   201 122 141   198 119 138   200 121 140   199 121 142   196 117 138   194 115 137   193 113 138   193 113 138   192 112 139   191 111 138   192 112 139   193 113 141   193 113 142   189 109 136   187 107 134   187 107 134   187 107 134   184 104 131   184 104 131   185 105 132   185 105 132   185 105 132   185 105 132  
 206 129 139   206 129 139   207 130 140   208 130 140   208 131 141   209 132 142   209 132 142   209 132 142   209 132 142   212 134 144   213 136 146   212 135 145   214 137 147   214 135 146   215 135 146   214 136 149   212 137 149   209 136 149   206 135 146   204 134 145   205 134 148   205 133 148   204 131 148   201 126 145   198 123 143   197 122 142   199 123 143   200 122 141   198 119 138   200 121 140   199 120 142   195 116 138   194 115 137   193 113 137   193 113 138   192 112 139   192 112 139   192 112 139   193 113 141   193 113 142   189 109 136   187 107 134   187 107 134   187 107 134   184 104 131   184 104 131   185 105 132   185 105 132   185 105 132   185 105 132  
 207 130 140   207 130 140   207 130 140   208 130 140   208 131 141   209 132 142   209 132 142   209 132 142   208 131 141   211 134 144   212 135 145   211 134 144   213 136 146   214 135 146   215 135 146   214 136 149   213 136 149   211 136 149   207 135 147   205 135 146   207 136 150   205 134 149   204 131 148   200 125 145   198 123 143   198 123 143   201 124 144   202 123 142   198 120 138   200 121 140   199 119 141   195 116 137   193 114 136   191 112 136   191 111 136   190 110 137   190 110 137   190 110 137   190 110 139   191 111 140   189 109 136   187 107 134   187 107 134   187 107 134   184 104 131   184 104 131   185 105 132   185 105 132   185 105 132   185 105 132  
 208 131 141   208 131 141   208 131 141   208 131 141   209 132 142   209 132 142   209 132 142   208 131 141   208 130 140   210 133 143   211 134 144   210 133 143   212 135 145   214 135 145   215 135 146   213 135 148   212 137 149   210 137 148   207 137 148   206 136 147   208 137 151   207 135 150   205 132 149   201 126 146   198 123 143   198 123 143   200 124 144   201 123 142   198 120 138   200 121 140   199 119 140   194 115 136   192 113 135   191 111 135   191 111 136   191 111 138   191 111 138   191 111 138   191 111 139   191 111 140   189 109 136   187 107 134   187 107 134   187 107 134   184 104 131   184 104 131   185 105 132   185 105 132   185 105 132   185 105 132  
 209 132 142   209 132 142   209 132 142   209 132 142   209 132 142   209 132 142   209 132 142   208 131 141   208 130 140   210 133 143   211 134 144   211 134 144   213 136 146   215 136 146   215 135 146   213 135 148   213 135 148   211 137 148   209 137 149   207 137 148   208 137 151   208 136 151   206 133 150   202 127 146   198 123 143   198 123 143   201 123 143   202 123 142   198 120 138   199 120 139   199 119 140   194 115 136   192 113 135   192 112 136   193 113 138   193 113 140   193 113 140   193 113 140   193 113 141   192 112 141   189 109 136   187 107 134   187 107 134   187 107 134   184 104 131   184 104 131   185 105 132   185 105 132   185 105 132   185 105 132  
 209 132 142   209 132 142   209 132 142   209 132 142   209 132 142   209 132 142   209 132 142   210 133 143   209 132 142   212 134 144   213 136 146   212 135 145   214 137 147   215 136 146   215 135 146   213 136 146   211 136 146   210 137 148   208 138 149   208 138 149   208 137 151   208 137 150   207 135 149   203 129 146   199 125 142   197 122 142   198 123 142   201 123 142   198 120 138   199 120 139   197 119 139   193 114 135   191 112 134   190 111 135   190 110 135   191 111 138   191 111 138   191 111 138   190 110 139   190 110 139   189 109 136   187 107 134   187 107 134   187 107 134   184 104 131   184 104 131   185 105 132   185 105 132   185 105 132   185 105 132  
 210 133 143   210 133 143   210 133 143   209 132 142   209 132 142   209 132 142   210 133 143   211 134 144   210 134 144   214 137 147   215 138 148   214 137 147   216 139 149   216 136 147   215 135 146   213 136 146   213 136 146   211 137 148   210 138 149   209 139 150   207 136 150   208 137 151   208 136 150   204 130 146   200 126 143   197 122 142   199 122 141   202 123 142   198 120 138   199 120 139   197 119 139   193 114 135   191 112 134   186 107 131   185 105 130   186 106 133   187 107 134   187 107 134   185 105 134   185 105 134   189 109 136   187 107 134   187 107 134   187 107 134   184 104 131   184 104 131   185 105 132   185 105 132   185 105 132   185 105 132  
 208 131 141   208 131 141   208 131 141   207 130 140   207 130 140   207 130 140   209 132 142   213 136 146   212 135 145   211 134 144   212 135 145   212 135 145   214 137 147   215 136 145   215 135 144   212 135 145   210 135 145     0   0   0     0   0   0     0   0   0     0   0   0     0   0   0     0   0   0     0   0   0     0   0   0     0   0   0     0   0   0     0   0   0     0   0   0     0   0   0     0   0   0     0   0   0     0   0   0     0   0   0     0   0   0     0   0   0     0   0   0     0   0   0     0   0   0     0   0   0   188 108 135   188 108 135   188 108 135   186 106 133   185 105 132   185 105 132   184 104 130   184 104 131   184 104 131   184 104 131  
 208 131 141   208 131 141   209 132 142   209 132 142   209 132 142   209 132 142   211 134 144   215 138 148   213 136 146   212 135 145   212 135 145   213 136 146   214 137 147   215 136 145   215 135 144   213 136 146   212 135 145     0   0   0     0   0   0     0   0   0     0   0   0     0   0   0     0   0   0     0   0   0     0   0   0     0   0   0     0   0   0     0   0   0     0   0   0     0   0   0     0   0   0     0   0   0     0   0   0     0   0   0     0   0   0     0   0   0     0   0   0     0   0   0     0   0   0     0   0   0   188 108 135   188 108 135   188 108 135   186 106 133   185 105 132   185 105 132   184 104 131   184 104 131   184 104 131   184 104 131  
 209 132 142   209 132 142   210 133 143   210 133 143   211 134 144   211 134 144   213 136 146   216 139 149   215 137 147   213 136 146   213 136 146   213 136 146   214 137 147   214 135 144   214 134 143   213 136 144   211 137 145     0   0   0     0   0   0     0   0   0     0   0   0     0   0   0     0   0   0     0   0   0     0   0   0     0   0   0     0   0   0     0   0   0     0   0   0     0   0   0     0   0   0     0   0   0     0   0   0     0   0   0     0   0   0     0   0   0     0   0   0     0   0   0     0   0   0     0   0   0   188 108 135   188 108 135   188 108 135   186 106 133   186 106 133   185 105 132   184 104 131   183 103 130   184 104 130   184 104 131  
 208 131 141   209 132 142   210 133 143   210 134 144   212 135 145   212 135 145   214 137 147   217 140 150   215 138 148   213 136 146   212 135 145   212 135 145   212 135 145   213 133 143   213 133 142   212 135 143   213 136 145     0   0   0     0   0   0     0   0   0     0   0   0     0   0   0     0   0   0     0   0   0     0   0   0     0   0   0     0   0   0     0   0   0     0   0   0     0   0   0     0   0   0     0   0   0     0   0   0     0   0   0     0   0   0     0   0   0     0   0   0     0   0   0     0   0   0     0   0   0   188 108 135   188 108 135   188 108 135   187 107 134   186 106 133   186 106 133   185 105 132   184 104 131   184 104 131   184 104 131  
 208 131 141   208 131 141   210 133 143   210 134 144   211 134 144   212 135 145   213 136 146   216 139 149   214 137 147   213 136 146   212 135 145   211 134 144   212 135 145   212 133 142   213 134 140   212 135 143   212 138 145     0   0   0     0   0   0     0   0   0     0   0   0     0   0   0     0   0   0     0   0   0     0   0   0     0   0   0     0   0   0     0   0   0     0   0   0     0   0   0     0   0   0     0   0   0     0   0   0     0   0   0     0   0   0     0   0   0     0   0   0     0   0   0     0   0   0     0   0   0   188 108 135   188 108 135   188 108 135   187 107 134   187 107 134   187 107 134   186 106 133   184 104 131   184 104 131   184 104 131  
 209 132 142   209 132 142   210 133 143   210 134 144   211 134 144   212 135 145   213 136 146   216 139 149   214 137 147   213 136 146   212 135 145   212 135 145   213 136 146   214 135 144   215 136 142   214 137 145   215 138 146     0   0   0     0   0   0     0   0   0     0   0   0     0   0   0     0   0   0     0   0   0     0   0   0     0   0   0     0   0   0     0   0   0     0   0   0     0   0   0     0   0   0     0   0   0     0   0   0     0   0   0     0   0   0     0   0   0     0   0   0     0   0   0     0   0   0     0   0   0   188 108 135   188 108 135   188 108 135   187 107 134   187 107 134   187 107 134   187 107 134   186 106 133   185 105 132   185 105 132  
 211 134 144   212 135 145   212 135 145   212 135 145   212 135 145   212 135 145   213 136 146   217 140 150   215 138 148   214 137 147   214 137 147   215 138 148   216 139 148   217 138 145   218 139 145   218 141 149   217 143 150     0   0   0     0   0   0     0   0   0     0   0   0     0   0   0     0   0   0     0   0   0     0   0   0     0   0   0     0   0   0     0   0   0     0   0   0     0   0   0     0   0   0     0   0   0     0   0   0     0   0   0     0   0   0     0   0   0     0   0   0     0   0   0     0   0   0     0   0   0   187 107 134   187 107 134   188 108 135   188 108 135   188 108 135   188 108 135   188 108 135   187 107 134   186 106 133   186 106 133  
 214 137 147   214 137 147   213 136 146   213 136 146   213 136 146   213 136 146   214 137 147   217 140 150   216 139 149   216 139 149   216 139 149   217 140 150   219 141 151   220 140 150   221 142 148   221 144 152   219 145 152     0   0   0     0   0   0     0   0   0     0   0   0     0   0   0     0   0   0     0   0   0     0   0   0     0   0   0     0   0   0     0   0   0     0   0   0     0   0   0     0   0   0     0   0   0     0   0   0     0   0   0     0   0   0     0   0   0     0   0   0     0   0   0     0   0   0     0   0   0   187 107 134   187 107 134   188 108 135   188 108 135   188 108 135   188 108 135   188 108 135   187 107 134   187 107 134   186 106 133  
 211 134 144   211 134 144   212 135 145   212 135 145   213 136 146   215 135 146   216 136 146   217 137 148   217 137 148   218 138 149   217 137 148   216 136 147   219 139 150   221 141 151   221 141 150   219 142 150   216 142 149     0   0   0     0   0   0     0   0   0     0   0   0     0   0   0     0   0   0     0   0   0     0   0   0     0   0   0     0   0   0     0   0   0     0   0   0     0   0   0     0   0   0     0   0   0     0   0   0     0   0   0     0   0   0     0   0   0     0   0   0     0   0   0     0   0   0     0   0   0   186 106 133   187 107 134   188 108 135   187 107 134   186 106 133   187 107 134   188 108 135   187 107 134   187 107 134   187 107 134  
 212 135 145   213 136 146   213 136 146   213 136 146   213 136 146   215 135 146   216 136 147   218 138 149   217 137 148   218 138 149   217 137 148   217 136 147   221 139 151   221 141 151   221 141 150   219 142 150   217 143 150     0   0   0     0   0   0     0   0   0     0   0   0     0   0   0     0   0   0     0   0   0     0   0   0     0   0   0     0   0   0     0   0   0     0   0   0     0   0   0     0   0   0     0   0   0     0   0   0     0   0   0     0   0   0     0   0   0     0   0   0     0   0   0     0   0   0     0   0   0   187 107 134   188 108 135   189 109 136   187 107 135   187 107 134   187 107 134   188 108 135   187 107 134   188 108 135   187 107 134  
