P3
62 57
255
   0   0   0     0   0   0     0   0   0     0   0   0     0   0   0     0   0   0     0   0   0     0   0   0     0   0   0     0   0   0   127  98 156   127  98 156   127  98 156   127  98 156   127  98 156   127  98 156   130  98 156   138 102 159   142 105 160   140 103 157   141 102 155   147 108 161   150 110 162   150 108 159   154 112 160   160 118 164   163 120 165   164 119 165   165 119 165   166 121 164   164 119 160   164 119 160   166 121 162   167 122 161   168 123 162     0   0   0     0   0   0     0   0   0     0   0   0     0   0   0     0   0   0     0   0   0     0   0   0     0   0   0     0   0   0     0   0   0     0   0   0     0   0   0     0   0   0   194 131 165   197 132 164   202 135 166   207 142 168   210 147 169   211 150 166   209 151 165   211 149 164   216 152 165   217 158 166   215 164 168     0   0   0     0   0   0  
   0   0   0     0   0   0     0   0   0     0   0   0     0   0   0     0   0   0     0   0   0     0   0   0     0   0   0     0   0   0   131  97 157   131  97 157   131  97 157   131  97 157   131  97 157   131  97 157   132  98 155   139 102 159   143 105 160   140 103 157   142 103 156   148 109 161   151 111 163   150 109 160   154 112 162   162 118 167   165 120 167   166 120 166   165 119 165   166 120 166   164 119 162   164 119 160   165 120 161   165 120 160   166 121 160     0   0   0     0   0   0     0   0   0     0   0   0     0   0   0     0   0   0     0   0   0     0   0   0     0   0   0     0   0   0     0   0   0     0   0   0     0   0   0     0   0   0   197 131 167   198 131 166   202 135 166   207 142 168   210 146 168   210 149 167   209 151 166   212 150 165   216 152 166   217 158 168   216 164 168     0   0   0     0   0   0  
   0   0   0     0   0   0     0   0   0     0   0   0     0   0   0     0   0   0     0   0   0     0   0   0     0   0   0     0   0   0   132  99 154   132  99 154   132  99 154   132  99 154   132  99 154   132  99 154   134  98 155   140 102 159   143 105 160   142 103 158   142 103 156   148 109 161   151 111 163   151 110 161   155 114 162   162 119 165   165 121 167   166 120 166   165 119 165   166 121 164   165 120 161   165 120 161   165 120 161   165 119 158   164 118 157     0   0   0     0   0   0     0   0   0     0   0   0     0   0   0     0   0   0     0   0   0     0   0   0     0   0   0     0   0   0     0   0   0     0   0   0     0   0   0     0   0   0   197 132 166   198 131 164   202 136 166   207 142 168   208 145 167   209 148 164   209 151 165   211 151 165   216 152 165   217 158 166   215 164 168     0   0   0     0   0   0  
   0   0   0     0   0   0     0   0   0     0   0   0     0   0   0     0   0   0     0   0   0     0   0   0     0   0   0     0   0   0   137  99 156   137  99 156   137  99 156   137  99 156   137  99 156   137  99 156   137  99 156   140 102 159   143 105 160   141 102 157   142 103 156   148 109 161   151 111 163   151 110 161   155 114 164   162 118 167   165 121 167   165 119 165   165 119 165   166 120 166   166 121 164   165 120 162   165 120 161   164 118 158   163 117 156     0   0   0     0   0   0     0   0   0     0   0   0     0   0   0     0   0   0     0   0   0     0   0   0     0   0   0     0   0   0     0   0   0     0   0   0     0   0   0     0   0   0   197 131 167   198 131 166   203 136 166   207 142 168   207 145 166   206 147 165   208 151 166   212 152 166   216 152 166   217 158 168   216 164 168     0   0   0     0   0   0  
   0   0   0     0   0   0     0   0   0     0   0   0     0   0   0     0   0   0     0   0   0     0   0   0     0   0   0     0   0   0   137 100 152   137 100 152   137 100 152   137 100 152   137 100 152   137 100 152   138  99 155   141 102 159   144 105 160   141 102 157   143 103 156   149 109 161   151 111 163   151 110 161   155 114 162   162 119 165   164 120 166   165 119 165   164 118 164   165 120 163   167 120 162   167 120 162   167 120 162   166 120 160   165 119 158     0   0   0     0   0   0     0   0   0     0   0   0     0   0   0     0   0   0     0   0   0     0   0   0     0   0   0     0   0   0     0   0   0     0   0   0     0   0   0     0   0   0   195 130 165   198 131 164   203 137 167   207 143 169   207 145 166   206 148 163   208 152 165   212 153 167   216 152 165   217 158 166   215 164 168     0   0   0     0   0   0  
   0   0   0     0   0   0     0   0   0     0   0   0     0   0   0     0   0   0     0   0   0     0   0   0     0   0   0     0   0   0   137  98 151   137  98 151   137  98 151   137  98 151   137  98 151   137  98 151   137  98 153   141 100 156   144 103 159   142 102 155   143 102 155   151 107 161   152 109 162   152 109 160   155 114 162   162 119 165   164 120 166   164 118 164   164 118 164   164 118 164   166 121 164   166 121 162   167 121 162   167 120 161   168 122 161     0   0   0     0   0   0     0   0   0     0   0   0     0   0   0     0   0   0     0   0   0     0   0   0     0   0   0     0   0   0     0   0   0     0   0   0     0   0   0     0   0   0   194 129 163   198 131 164   203 137 167   207 143 169   206 144 166   205 147 162   209 151 165   214 152 167   216 152 165   218 157 166   216 163 168     0   0   0     0   0   0  
   0   0   0     0   0   0     0   0   0     0   0   0     0   0   0     0   0   0     0   0   0     0   0   0     0   0   0     0   0   0   141 102 157   141 102 157   141 102 157   140 101 156   140 101 156   140 101 156   142 100 156   144 101 156   144 101 155   145 102 155   148 105 158   152 110 160   156 113 163   155 111 160   158 114 163   162 119 165   162 119 165   163 120 165   165 122 167   167 124 167   163 121 161   164 122 162   164 122 162   163 121 160   165 120 159     0   0   0     0   0   0     0   0   0     0   0   0     0   0   0     0   0   0     0   0   0     0   0   0     0   0   0     0   0   0     0   0   0     0   0   0     0   0   0     0   0   0   199 134 169   204 137 169   204 138 166   205 140 164   205 142 161   207 145 162   211 150 165   214 152 164   213 150 161   215 153 162   215 157 164     0   0   0     0   0   0  
   0   0   0     0   0   0     0   0   0     0   0   0     0   0   0     0   0   0     0   0   0     0   0   0     0   0   0     0   0   0   141 102 157   141 102 157   141 102 157   140 101 156   140 101 156   140 101 156   141 100 155   143  99 154   145 101 155   149 104 158   152 108 161   152 108 159   154 110 161   158 114 164   164 119 169   167 124 169   163 120 166   162 119 164   163 120 165   162 119 164   162 121 163   163 122 162   164 122 162   163 121 160   165 120 159   167 123 159   169 125 160   170 124 160   170 124 158   171 124 158   173 124 156   175 126 158   177 127 159   179 127 157   182 127 158   185 128 160   186 126 159   188 126 159   194 129 163   199 134 169   204 137 170   204 137 167   205 140 165   205 141 162   208 144 162   212 150 165   215 150 164   214 148 160   215 152 162   216 157 163     0   0   0     0   0   0  
   0   0   0     0   0   0     0   0   0     0   0   0     0   0   0     0   0   0     0   0   0     0   0   0     0   0   0     0   0   0   142 102 155   142 102 155   142 102 155   142 102 155   142 102 155   142 102 155   142 101 154   142  98 153   146 101 156   151 107 160   154 110 163   152 108 160   152 108 159   159 115 164   165 122 170   168 125 171   165 122 168   163 120 166   162 119 164   162 119 162   163 121 161   164 122 162   164 122 162   165 121 160   165 120 159   167 123 159   170 124 160   170 124 160   170 124 158   171 124 158   173 124 156   175 126 158   177 127 160   179 126 158   182 127 159   185 128 161   184 126 160   187 126 160   193 130 164   199 134 169   204 137 170   204 137 167   205 140 165   205 141 162   208 144 162   212 150 165   214 151 164   212 149 160   214 152 161   216 157 163     0   0   0     0   0   0  
   0   0   0     0   0   0     0   0   0     0   0   0     0   0   0     0   0   0     0   0   0     0   0   0     0   0   0     0   0   0   142 102 155   142 102 155   143 103 156   143 103 156   144 104 157   144 104 157   145 102 156   145 100 155   145 100 155   151 106 161   153 108 163   150 107 160   152 108 160   155 111 162   160 116 166   165 121 170   165 122 168   165 122 168   165 123 169   165 122 167   163 120 163   164 122 162   164 122 162   165 121 160   165 120 159   168 122 159   170 124 160   171 124 160   171 124 158   171 124 158   173 124 156   175 126 158   177 127 160   179 126 160   182 126 161   185 128 163   186 125 160   188 126 160   194 129 164   199 134 169   204 137 172   204 137 168   205 139 167   205 141 164   208 144 164   212 149 166   215 151 166   216 150 163   217 153 163   217 157 164     0   0   0     0   0   0  
   0   0   0     0   0   0     0   0   0     0   0   0     0   0   0     0   0   0     0   0   0     0   0   0     0   0   0     0   0   0   141 101 154   142 102 155   143 103 155   144 104 155   145 105 155   146 106 156   147 106 158   147 103 159   145 100 157   149 104 159   150 105 159   148 105 157   153 109 161   153 109 160   157 113 162   163 119 168   164 120 169   164 121 168   166 123 169   167 124 169   163 120 163   164 122 162   164 122 162   165 121 160   165 120 159   168 122 159   170 124 160   171 124 160   171 124 158   173 123 158   173 124 156   176 126 158   178 127 160   179 126 160   182 126 161   185 128 163   184 126 162   187 126 162   193 129 165   199 134 169   204 137 170   204 137 168   205 139 167   205 141 164   208 144 164   212 149 168   216 152 168   218 154 167   218 156 165   217 158 164     0   0   0     0   0   0  
   0   0   0     0   0   0     0   0   0     0   0   0     0   0   0     0   0   0     0   0   0     0   0   0     0   0   0     0   0   0   141 101 154   142 102 155   144 104 156   145 105 155   146 106 156   147 107 157   150 107 159   151 106 162   145 100 157   147 102 159   148 103 158   147 102 157   154 110 164   154 110 163   158 114 165   164 120 171   164 120 169   164 120 169   164 120 167   163 120 165   163 120 163   164 122 162   164 122 162   165 121 160   165 120 159   168 122 159   170 124 160   171 124 160   172 123 158   173 123 158   173 124 156   176 126 158   179 126 160   180 125 161   182 126 163   185 127 165   186 125 164   188 125 163   194 129 165   199 134 169   204 137 172   204 137 170   205 139 168   205 140 165   208 144 166   212 149 170   218 153 169   222 156 169   221 157 166   218 159 165     0   0   0     0   0   0  
   0   0   0     0   0   0     0   0   0     0   0   0     0   0   0     0   0   0     0   0   0     0   0   0     0   0   0     0   0   0   141 101 153   142 102 154   144 104 154   145 106 154   147 108 155   148 109 156   150 110 161   151 107 163   145 100 157   147 102 159   149 104 160   146 101 156   154 109 163   156 112 165   160 116 167   165 121 172   165 120 171   164 120 169   164 120 169   163 120 166   163 120 163   165 122 162   166 121 162   165 120 160   165 120 159   168 122 159   170 124 160   171 124 160   172 123 158   173 123 158   174 123 156   176 125 158   178 127 160   179 126 161   182 126 164   185 127 167   184 125 164   187 126 163   193 129 165   199 134 169   204 137 170   204 137 168   205 139 167   205 140 167   208 144 168   212 148 172   216 153 170   220 157 169   219 158 166   218 159 165     0   0   0     0   0   0  
   0   0   0     0   0   0     0   0   0     0   0   0     0   0   0     0   0   0     0   0   0     0   0   0     0   0   0     0   0   0   141 101 153   142 102 154   144 104 154   145 106 154   148 109 156   149 110 155   152 109 159   150 105 162   145 100 157   149 104 161   149 104 161   146 101 157   152 107 162   155 110 164   159 115 168   166 122 173   165 122 172   166 122 171   166 122 171   165 122 168   163 120 163   165 122 162   166 121 162   165 120 160   166 120 159   168 122 159   171 123 160   172 124 160   173 123 158   173 123 158   174 123 156   176 125 158   179 126 161   180 125 163   182 126 165   185 127 167   186 125 165   188 125 164   194 128 167   199 134 170   204 137 172   204 137 170   205 139 168   205 140 167   208 144 169   212 148 172   217 152 172   221 155 169   220 155 166   217 158 164     0   0   0     0   0   0  
 143 102 158   145 102 158   145 102 158   144 101 159   144 100 159   144 100 159   145 101 159   145 102 158   145 102 156   145 102 156   148 105 158   148 106 155   148 106 154   149 107 153   149 107 153   149 107 153   149 106 156   150 105 161   149 104 161   151 106 163   152 107 162   151 106 161   153 109 162   157 113 164   161 117 168   164 120 171   165 120 171   164 120 169   163 120 166   164 121 166   165 120 163   166 121 162   166 121 162   165 120 160   167 121 160   169 123 160   170 122 160   169 120 157   174 124 159   179 127 163   179 128 161   180 128 161   181 127 162   182 126 164   184 128 169   186 128 168   183 125 164   187 126 164   193 130 165   198 133 167   203 136 169   203 136 166   202 136 164   201 136 163   204 140 167   214 150 175   220 156 176   218 155 168   216 154 163   214 155 161     0   0   0     0   0   0  
 145 102 158   145 102 158   145 102 158   144 101 159   144 100 159   144 100 159   145 102 158   145 102 158   145 102 156   145 102 155   147 105 155   147 105 155   148 106 154   148 106 152   149 107 153   149 107 153   149 106 156   150 105 161   149 104 161   152 107 164   152 107 162   151 106 161   153 109 162   157 113 164   161 117 168   164 120 171   165 120 170   164 120 168   163 120 166   164 121 166   165 120 163   166 121 162   166 121 162   166 120 160   167 121 160   170 122 160   171 123 160   172 122 159   176 124 160   179 127 163   179 128 161   180 128 161   182 128 163   181 126 164   184 127 167   185 127 167   185 124 164   189 126 164   194 129 165   197 132 166   202 135 168   202 135 165   202 136 164   201 136 163   204 140 167   214 150 175   220 155 175   220 154 168   216 152 162   213 154 160     0   0   0     0   0   0  
 145 102 158   146 101 158   146 101 158   145 101 157   144 101 157   144 101 157   144 101 155   145 102 156   145 103 156   146 103 156   147 105 155   147 105 155   148 106 154   148 106 154   149 107 155   149 107 153   150 107 156   150 106 160   150 105 160   153 108 163   153 109 162   152 108 160   153 109 160   157 113 163   161 117 166   164 120 169   165 122 168   165 122 167   164 121 166   164 121 166   165 120 163   166 120 162   167 120 162   167 120 161   167 121 160   170 122 160   172 124 162   175 125 162   177 125 162   178 126 162   180 126 160   180 126 160   182 128 163   181 126 164   184 127 167   185 127 167   184 125 163   188 128 163   194 131 165   197 132 164   201 134 165   202 136 164   202 136 164   202 137 162   205 142 165   214 150 174   219 155 175   218 154 168   215 153 162   212 153 159     0   0   0     0   0   0  
 146 101 158   146 101 158   146 101 158   145 100 157   144 101 155   144 101 155   144 101 155   146 103 156   147 104 157   147 104 157   149 107 157   149 107 156   149 107 155   150 108 155   150 108 156   150 108 156   150 108 157   151 106 160   150 105 160   154 109 163   155 111 164   153 109 160   154 110 160   157 113 162   161 118 164   164 121 167   165 122 167   165 122 167   164 121 166   163 120 163   164 119 160   166 121 162   168 121 163   167 121 161   169 121 161   170 122 160   173 125 162   178 128 165   179 127 163   178 126 162   179 125 159   180 126 160   182 128 163   183 127 165   185 128 169   186 128 168   187 127 165   192 129 165   197 132 165   198 133 163   201 135 163   203 137 164   204 139 164   204 140 164   207 144 167   215 150 174   221 155 176   221 154 169   218 154 164   213 154 160     0   0   0     0   0   0  
 146 101 158   146 100 158   147 101 158   146 101 156   145 101 154   145 101 154   145 101 152   147 103 154   148 104 155   150 106 157   151 107 158   152 108 159   152 108 159   152 108 159   153 109 160   153 109 160   152 108 159   151 107 158   152 108 159   154 111 162   156 112 162   154 110 159   155 111 159   158 115 161   161 118 163   163 120 165   165 122 165   166 123 166   165 121 165   163 121 161   164 119 160   167 120 162   169 122 164   169 121 162   169 121 161   170 122 160   175 125 163   179 129 166   179 127 164   178 126 162   179 125 159   180 126 160   182 128 163   184 128 166   186 130 169   187 129 167   188 130 165   194 133 167   199 136 166   200 136 163   203 137 164   205 140 163   206 141 164   206 142 164   209 146 167   214 150 174   219 155 173   220 156 169   218 157 166   215 156 162     0   0   0     0   0   0  
 146 101 158   148 100 158   148 101 157   146 102 155   145 101 152   145 101 152   145 101 152   147 103 154   148 104 155   151 107 158   152 108 159   152 108 159   153 109 160   153 109 160   153 109 160   154 110 161   153 109 160   152 108 159   152 108 159   156 112 163   157 113 162   155 111 159   155 112 158   159 116 161   161 118 163   163 120 163   166 122 166   167 124 167   166 123 164   165 120 161   165 118 160   167 121 162   169 122 164   170 122 162   170 122 162   172 122 160   174 124 162   178 127 165   179 127 163   178 126 162   179 125 159   180 126 160   182 128 163   184 129 167   186 130 169   187 129 167   191 131 166   197 135 168   201 138 166   200 136 162   203 138 162   206 141 164   207 142 164   206 143 164   208 145 166   212 148 172   218 153 171   222 156 169   221 157 166   217 158 164     0   0   0     0   0   0  
 146 101 158   148 100 158   148 101 157   146 102 154   145 101 150   144 100 149   144 100 149   147 103 152   149 105 156   152 108 159   151 107 158   151 107 158   152 108 161   152 108 161   152 108 161   153 109 162   153 109 160   152 108 158   153 109 158   157 113 162   158 115 161   155 113 158   155 112 157   160 117 160   162 119 162   162 120 160   166 123 163   167 125 165   166 123 162   163 121 159   164 119 160   167 121 162   170 123 165   170 122 163   170 122 162   172 122 160   174 123 161   178 126 164   178 126 162   180 126 162   180 126 160   181 126 160   183 127 162   184 128 164   185 129 168   186 128 166   189 131 164   196 136 166   199 138 164   199 135 159   202 137 161   205 140 162   206 141 161   205 141 162   205 142 163   209 146 167   214 150 168   219 155 168   219 157 166   217 158 164   212 157 159   211 162 157  
 148 100 158   148 100 158   148 101 157   146 102 154   145 101 150   144 100 149   144 100 149   147 103 152   149 105 156   152 108 159   150 106 157   150 106 157   150 106 158   150 107 160   151 107 160   151 107 160   151 107 158   152 108 157   153 109 158   157 114 162   158 115 161   155 113 158   156 113 158   160 117 161   162 119 162   162 120 160   166 123 163   168 126 166   166 124 162   165 120 159   165 118 160   168 121 162   171 123 165   171 123 163   170 122 162   170 122 160   173 123 161   176 125 162   178 125 164   178 126 162   180 126 162   181 126 162   183 127 164   182 126 163   184 126 164   185 128 163   189 129 163   195 135 165   198 136 163   198 134 160   200 136 160   204 139 163   205 141 162   202 140 161   203 140 161   206 143 164   211 148 165   217 154 166   218 156 165   216 157 163   211 156 159   210 161 156  
 146 101 158   146 101 158   146 101 157   145 100 152   144 102 150   144 102 150   145 103 151   147 105 153   147 105 153   148 106 154   150 108 156   147 105 153   146 104 152   148 106 154   151 109 157   152 110 158   152 110 158   152 108 157   151 107 156   154 110 159   157 114 160   155 112 158   154 111 156   160 117 161   161 118 161   161 118 161   165 122 164   166 124 164   166 124 162   169 124 163   168 120 160   172 121 162   173 124 164   171 122 162   169 121 161   169 121 159   169 121 159   172 124 161   175 128 164   179 130 167   181 129 167   181 128 164   183 128 165   182 125 161   186 127 162   192 132 166   196 135 169   197 136 168   196 135 165   198 135 162   196 134 159   198 136 161   201 138 162   203 139 163   206 142 166   209 146 167   212 150 167   214 153 164   215 155 163   214 157 163   213 158 161   210 161 158  
 146 101 158   146 101 158   146 101 157   145 102 153   144 102 150   145 103 151   146 104 152   147 105 153   148 105 154   148 106 154   149 107 155   148 105 154   148 106 154   150 108 156   152 110 158   151 109 157   150 108 156   153 109 158   152 108 157   154 111 159   158 115 161   155 113 158   155 112 157   160 118 161   161 118 161   161 118 161   165 122 164   166 124 164   166 124 162   169 124 163   171 120 161   173 121 162   173 122 163   171 122 162   169 121 161   169 123 160   169 123 160   171 125 162   175 128 164   179 130 167   181 129 167   181 128 166   183 128 166   183 126 162   187 128 162   193 132 166   196 135 169   197 136 168   198 137 166   198 138 166   197 134 161   198 136 162   201 139 163   202 139 163   206 142 164   209 146 167   212 150 167   213 153 164   213 155 163   213 156 162   212 157 160   210 161 159  
 146 101 156   146 101 156   146 102 156   145 103 153   146 104 152   146 104 152   147 105 153   148 106 154   148 106 154   149 107 155   148 106 154   148 106 155   151 109 157   152 110 158   152 110 158   149 107 155   149 107 155   154 110 159   153 109 158   156 112 161   158 115 161   157 114 159   157 114 159   162 119 162   161 118 161   161 118 161   165 122 164   167 125 165   166 124 162   169 124 163   172 121 162   174 121 163   173 122 163   170 121 160   169 121 159   170 124 161   170 125 161   172 126 162   175 128 164   179 130 167   181 129 167   181 128 165   183 128 164   186 127 161   190 129 163   194 133 166   196 135 168   198 137 168   199 138 167   200 140 166   197 135 160   199 137 162   201 139 162   202 140 161   206 143 162   209 146 165   212 150 165   214 153 163   212 155 161   211 156 161   210 158 160   211 162 160  
 146 101 156   146 101 156   146 102 156   147 104 155   147 105 153   147 105 153   148 106 154   149 107 155   149 107 155   149 107 155   150 108 156   150 108 156   151 109 157   152 110 158   151 109 157   149 107 155   150 108 156   155 111 160   154 110 159   156 112 161   157 114 160   157 114 160   158 115 160   163 120 164   162 119 162   162 119 162   166 123 165   167 125 165   166 124 162   169 124 163   173 122 163   174 121 163   173 122 163   170 121 160   170 122 160   171 125 162   172 126 163   173 126 162   177 128 165   180 130 167   180 128 166   182 127 165   183 128 164   186 127 161   190 129 163   194 133 166   195 134 165   197 136 166   198 138 165   201 141 166   198 136 161   199 137 160   201 139 161   202 140 159   205 142 161   209 146 165   212 151 164   215 153 163   214 155 161   212 155 161   211 156 159   213 162 161  
 146 102 153   146 102 153   146 102 153   147 105 154   148 106 154   148 106 154   148 106 154   149 107 155   149 107 155   149 107 155   152 110 158   152 110 158   151 109 157   149 107 155   150 108 156   151 109 157   153 111 159   156 112 161   155 111 160   156 112 161   157 114 160   156 113 159   160 117 162   164 121 164   163 120 163   162 119 162   166 123 165   167 125 165   166 124 162   169 124 163   171 123 163   172 122 162   171 123 161   170 123 160   170 124 161   172 126 163   174 128 164   174 128 164   176 129 165   179 130 167   180 128 164   182 128 164   184 128 164   186 128 161   189 129 160   193 132 163   195 135 163   196 136 163   199 137 163   202 139 165   199 137 160   200 138 159   201 138 158   202 139 158   204 142 159   209 146 163   213 151 163   216 154 162   214 155 161   212 155 161   211 156 159   212 161 160  
 146 102 153   146 102 153   146 102 153   147 105 154   148 106 154   148 106 154   149 107 155   149 107 155   149 107 155   149 107 155   152 110 158   152 110 158   151 109 157   149 107 155   150 108 156   152 110 158   156 113 161   157 113 162   155 111 160   156 112 161   155 112 158   156 113 158   161 118 163   165 122 165   163 120 163   163 120 163   166 123 165   167 125 165   166 124 162   168 123 162   170 122 162   173 122 163   172 124 162   171 124 161   171 125 162   172 126 163   174 128 165   175 129 165   178 129 165   181 129 167   182 128 164   182 128 164   184 128 164   185 127 160   189 129 157   193 133 161   195 135 163   197 137 162   199 138 163   201 139 162   200 138 159   200 139 157   201 138 156   201 138 155   204 142 157   208 146 161   214 150 163   216 153 162   215 154 161   214 155 159   212 156 157   212 159 156  
 146 102 151   146 102 151   146 102 151   148 105 154   149 107 155   148 106 154   148 106 154   148 106 154   148 106 154   148 106 154   149 107 155   151 109 157   152 110 158   151 109 157   151 109 157   153 111 159   156 113 161   157 113 162   155 111 160   155 111 160   154 111 157   155 112 158   161 118 163   166 123 167   164 121 164   163 120 163   166 123 165   167 125 165   166 124 162   168 123 162   168 122 159   171 123 161   173 125 163   172 125 163   172 126 163   173 127 163   174 128 164   176 129 165   179 130 165   180 130 165   180 128 164   181 127 163   185 128 164   186 127 159   189 129 156   194 134 160   198 137 163   200 138 163   200 138 161   201 139 160   202 139 160   202 139 157   201 139 155   202 138 154   204 141 155   209 145 159   213 151 160   216 153 160   217 155 160   216 155 160   214 155 157   211 157 155  
 146 102 151   146 102 151   146 102 151   148 105 154   149 107 155   148 106 154   148 106 154   148 106 154   148 106 154   148 106 154   146 104 152   151 109 157   154 112 160   153 111 159   152 110 158   153 111 159   155 112 161   157 113 162   155 111 160   155 111 160   154 111 157   155 112 158   161 118 163   166 123 167   164 121 164   163 120 163   166 123 165   167 125 165   165 123 162   168 123 162   167 121 158   171 123 161   174 126 164   173 127 164   172 126 163   173 127 163   174 127 163   177 130 166   179 130 165   181 129 165   182 128 164   182 126 163   186 127 163   187 127 157   190 130 157   196 136 162   200 139 165   202 140 164   201 139 161   201 139 160   202 139 158   202 139 155   201 139 154   201 138 152   204 141 154   209 145 159   214 151 160   218 153 160   219 154 160   217 155 158   215 155 155   212 156 153  
 146 102 151   146 102 151   146 102 151   147 105 153   148 106 154   148 106 154   148 106 154   148 106 154   148 106 154   149 107 155   145 103 151   150 108 156   153 111 159   153 111 159   152 110 158   152 110 158   155 112 160   157 113 162   154 110 159   156 112 161   156 113 159   156 113 159   162 119 164   163 120 163   163 120 163   165 122 165   165 123 165   165 123 163   164 122 161   167 122 161   169 123 160   171 123 161   172 126 162   173 127 163   173 127 163   173 127 163   173 127 162   174 127 161   175 126 161   179 127 163   183 129 163   185 128 163   184 126 160   187 127 156   192 130 157   198 136 161   201 139 164   202 140 163   201 138 160   201 138 159   203 140 159   201 138 155   203 139 155   204 140 154   204 140 154   208 145 156   214 151 159   218 153 158   219 154 158   217 155 156   215 155 155   213 156 153  
 146 102 151   146 102 151   146 102 151   147 104 152   147 105 153   147 105 153   148 106 154   148 106 154   149 107 155   149 107 155   147 105 153   150 108 156   154 112 160   153 111 159   151 109 157   151 109 157   153 111 159   157 113 162   155 111 160   154 110 159   154 111 157   157 114 160   162 119 164   162 119 163   164 121 164   166 123 166   167 124 166   166 124 164   165 124 162   169 124 163   170 124 161   172 125 162   173 127 163   174 128 164   174 128 164   173 127 163   173 127 162   177 128 163   178 126 162   181 127 163   185 129 164   187 130 165   186 128 162   187 127 157   192 130 157   198 136 161   200 138 163   201 139 163   200 137 159   200 137 158   201 138 157   201 138 155   203 139 155   205 140 155   205 141 155   208 145 156   215 148 158   218 151 157   219 153 155   218 154 155   216 155 154   215 156 154  
 146 102 151   146 102 151   146 102 151   145 103 151   145 103 151   146 104 152   147 105 153   149 107 155   149 107 155   150 108 156   148 106 154   151 108 156   153 111 159   152 110 158   151 109 157   150 108 156   151 108 156   155 111 160   157 113 162   152 108 157   153 110 155   159 116 161   161 118 163   161 118 162   164 121 164   167 124 167   168 125 167   167 125 165   168 125 164   170 125 164   170 124 161   171 126 161   174 128 164   174 130 165   173 129 164   172 127 160   173 127 160   177 130 164   177 128 161   181 128 162   185 129 164   188 131 166   189 131 165   189 129 159   193 131 158   197 134 161   199 137 162   200 136 161   199 136 158   200 137 158   200 135 155   200 136 153   203 139 155   205 140 155   205 141 155   209 143 157   214 147 156   218 148 154   219 151 153   219 153 154   218 154 152   217 157 153  
   0   0   0     0   0   0     0   0   0     0   0   0     0   0   0     0   0   0     0   0   0     0   0   0     0   0   0     0   0   0   150 108 156   151 109 157   152 110 158   152 110 158   151 109 157   150 108 156   149 106 155   153 109 158   157 113 162   151 108 156   152 109 155   160 117 162   160 117 162   161 118 161   164 121 164   166 123 166   167 124 166   167 125 165   168 125 164   169 127 165   167 123 159   171 125 161   174 128 164   174 130 165   172 128 163   170 125 158   171 126 159   178 129 164   179 128 161   181 127 161   184 128 163   188 130 166   192 132 167   192 130 160   194 131 158   197 134 161   198 135 162   199 135 161   198 134 158   199 136 157   196 131 153   197 133 152   201 137 154   204 140 155   204 140 154   208 142 156   213 145 155   217 147 152   219 149 152   220 152 153   219 154 152   220 157 154  
   0   0   0     0   0   0     0   0   0     0   0   0     0   0   0     0   0   0     0   0   0     0   0   0     0   0   0     0   0   0   150 108 156   150 108 156   151 109 157   151 109 157   151 109 157   150 108 156   149 106 154   152 108 157   157 113 162   151 108 156   153 110 155   160 117 162   160 117 162   160 117 160   163 120 163   166 123 166   166 123 165   166 124 164   166 124 162   167 125 161   166 122 157   169 125 160   172 128 163   173 129 162   171 127 160   169 125 158   170 125 157   176 129 161   177 129 161   181 127 161   183 127 162   186 128 163   191 131 164   193 130 162   196 131 161   198 133 163   198 134 160   197 133 160   198 134 158   200 135 157   193 128 150   195 130 149   199 135 152   203 137 154   204 137 154   207 140 157   213 144 155   218 147 151   219 149 151   219 151 152   218 153 151   219 157 153  
   0   0   0     0   0   0     0   0   0     0   0   0     0   0   0     0   0   0     0   0   0     0   0   0     0   0   0     0   0   0   150 108 156   149 107 155   150 108 156   150 109 157   151 109 157   150 108 156   149 106 154   151 107 156   155 111 160   154 110 159   154 111 157   159 116 162   159 116 161   161 118 162   164 121 164   166 123 166   167 124 166   166 124 164   165 123 161   166 124 162   165 121 157   167 123 158   171 127 162   172 128 161   172 128 161   170 126 159   172 126 159   178 130 162   180 130 163   182 128 162   183 127 162   187 126 162   191 129 163   195 130 163   197 132 162   198 133 163   197 132 161   196 132 159   197 132 159   200 134 159   193 128 152   194 129 150   198 133 152   202 135 153   204 137 154   207 140 157   214 145 156   220 149 153   220 150 152   220 150 152     0   0   0     0   0   0  
   0   0   0     0   0   0     0   0   0     0   0   0     0   0   0     0   0   0     0   0   0     0   0   0     0   0   0     0   0   0   150 108 156   148 106 154   149 107 155   150 108 156   152 110 158   151 109 157   150 107 155   151 107 156   153 109 158   156 112 161   157 114 160   157 115 160   160 117 162   163 120 164   167 124 167   168 125 168   167 125 167   166 124 164   165 123 161   165 123 159   166 122 157   168 124 158   171 127 160   173 129 162   173 129 162   173 129 162   174 130 162   179 132 163   183 133 165   185 131 165   185 130 162   186 128 161   189 129 162   195 132 164   198 133 165   198 133 163   197 132 161   196 132 159   197 132 159   200 134 159   194 129 153   195 129 151   200 132 152   202 135 153   205 138 156   210 142 160   217 148 160   223 151 156   221 151 152   219 151 150     0   0   0     0   0   0  
   0   0   0     0   0   0     0   0   0     0   0   0     0   0   0     0   0   0     0   0   0     0   0   0     0   0   0     0   0   0   149 107 155   148 105 154   148 106 154   150 108 156   153 111 159   152 110 158   150 109 157   150 107 156   152 108 157   157 113 162   159 116 162   157 114 160   160 117 162   165 122 166   169 126 169   170 128 168   168 126 166   167 125 164   165 123 161   166 124 160   167 123 158   168 125 159   171 127 160   173 129 162   176 131 164   177 132 165   177 132 163   181 133 164   186 134 165   189 134 166   187 130 162   188 129 161   191 129 161   197 132 163   199 134 164   199 135 162   197 133 160   196 132 159   197 133 159   199 134 161   196 131 155   196 131 153   200 134 153   203 136 154   207 139 157   213 145 162   219 151 161   224 152 157   222 152 153   219 151 150     0   0   0     0   0   0  
   0   0   0     0   0   0     0   0   0     0   0   0     0   0   0     0   0   0     0   0   0     0   0   0     0   0   0     0   0   0   151 107 158   150 107 157   150 108 156   150 109 155   151 109 155   151 109 155   150 109 155   149 108 156   148 109 156   153 112 159   156 114 160   156 115 160   159 118 161   163 121 162   167 124 164   169 127 164   167 125 160   169 125 161   169 125 161   168 124 159   164 123 157   166 124 159   174 130 165   174 130 163   175 128 162   177 129 161   178 128 158   183 131 162   185 131 160   187 131 160   187 131 158   192 132 161   196 135 162   200 136 163   199 134 158   196 132 158   195 132 158   195 133 157   196 134 157   199 138 161   192 130 151   195 131 152   199 134 153   204 138 155   209 143 158   214 146 161   219 149 158   223 153 155   224 155 155   220 155 153     0   0   0     0   0   0  
   0   0   0     0   0   0     0   0   0     0   0   0     0   0   0     0   0   0     0   0   0     0   0   0     0   0   0     0   0   0   150 106 157   150 106 157   150 108 156   150 108 155   151 109 155   151 109 155   151 110 156   151 112 159   150 112 159   154 114 162   158 116 162   157 116 160   160 119 161   163 121 162   167 124 164   169 127 164   167 125 160   168 124 159   168 124 159   167 123 158   166 125 159   167 125 159   174 129 165   174 127 162   174 127 159   178 129 159   178 127 157   184 130 160   186 130 160   188 132 159   191 133 158   193 135 160   199 138 163   202 139 163   201 136 158   198 134 158   198 135 159   197 135 158   197 135 158   199 137 160   194 132 153   196 133 153   198 134 152   202 136 153   207 140 155   212 144 157   216 146 154   221 150 152   221 152 152   217 153 151     0   0   0     0   0   0  
   0   0   0     0   0   0     0   0   0     0   0   0     0   0   0     0   0   0     0   0   0     0   0   0     0   0   0     0   0   0   149 105 156   149 106 155   149 107 155   150 108 154   151 109 155   152 110 156   152 111 158   154 115 162   153 114 160   156 117 162   159 118 162   158 117 161   161 120 162   164 122 163   168 126 164   169 127 163   167 124 160   168 124 159   167 123 158   166 122 157   169 125 160   169 125 160   173 129 162   171 127 158   174 127 159   179 130 160   180 128 159   183 130 159   186 132 159   189 133 160   192 134 159   197 137 163   201 140 166   204 140 165   202 137 159   201 137 161   200 137 161   199 137 160   196 134 157   198 136 159   197 135 156   197 135 153   198 134 151   201 135 150   204 139 153   209 141 154   214 144 152   218 148 150   219 150 150   215 151 149     0   0   0     0   0   0  
   0   0   0     0   0   0     0   0   0     0   0   0     0   0   0     0   0   0     0   0   0     0   0   0     0   0   0     0   0   0   148 104 155   148 105 155   149 107 155   150 108 154   151 109 155   152 110 156   154 113 159   155 116 163   154 115 161   156 117 162   159 118 162   158 117 160   161 120 162   164 122 163   168 126 164   169 128 164   167 125 160   168 124 159   167 123 158   166 122 157   169 125 160   168 124 158   172 127 160   172 126 158   176 128 159   183 132 163   182 131 162   186 132 161   189 133 161   193 134 162   195 135 161   197 137 163   201 140 166   203 140 164   203 138 160   202 138 162   202 139 163   199 137 160   196 133 156   196 134 157   198 136 157   198 134 155   197 133 151   200 134 150   204 137 152   209 141 154   214 143 152   217 146 148   217 148 148   214 150 148     0   0   0     0   0   0  
   0   0   0     0   0   0     0   0   0     0   0   0     0   0   0     0   0   0     0   0   0     0   0   0     0   0   0     0   0   0   147 105 155   147 105 155   149 107 155   150 108 155   152 110 156   153 111 157   154 113 159   155 116 163   153 114 160   155 116 161   158 117 161   157 116 160   161 120 162   164 122 163   168 126 164   170 128 164   168 125 161   168 124 159   168 124 157   167 123 156   167 123 158   167 123 157   172 127 160   173 126 159   177 129 162   185 136 166   186 135 165   189 135 165   192 136 164   195 136 164   196 136 162   197 136 162   200 138 163   202 138 162   202 137 159   201 137 161   202 139 162   199 137 160   196 133 156   195 133 156   198 136 157   196 134 152   197 133 150   200 134 149   204 138 152   209 141 154   215 144 152   217 146 148   217 148 148   215 151 149     0   0   0     0   0   0  
   0   0   0     0   0   0     0   0   0     0   0   0     0   0   0     0   0   0     0   0   0     0   0   0     0   0   0     0   0   0   148 106 156   149 107 156   150 108 156   150 109 155   152 110 156   153 111 157   153 112 159   154 115 162   152 113 159   154 115 160   157 116 160   158 117 160   162 121 162   164 123 161   168 126 164   170 128 164   168 125 161   170 126 161   170 126 160   169 125 158   168 124 159   168 124 158   173 128 161   174 127 160   179 130 162   187 136 167   189 135 165   192 136 165   195 137 165   197 138 166   197 137 163   197 136 162   200 137 163   202 138 162   201 136 158   201 137 161   201 138 162   199 137 160   196 133 156   196 134 157   198 136 157   198 134 155   198 134 152   201 135 152   204 139 153   209 141 154   214 143 152   217 146 148   216 148 147   214 150 148     0   0   0     0   0   0  
   0   0   0     0   0   0     0   0   0     0   0   0     0   0   0     0   0   0     0   0   0     0   0   0     0   0   0     0   0   0   150 108 158   150 108 158   151 109 157   152 110 156   153 110 156   153 110 156   153 112 158   154 115 160   152 113 158   154 115 160   158 117 161   160 118 162   163 122 163   164 122 161   167 125 164   170 128 164   170 128 161   172 128 161   172 128 161   171 127 160   170 126 159   170 126 159   176 131 164   176 130 162   179 131 163   186 135 166   186 135 164   190 136 164   193 137 165   197 139 164   198 138 163   198 137 162   201 139 163   202 140 161   202 137 159   201 137 161   202 139 163   200 138 161   198 136 159   199 137 160   200 138 159   199 137 155   200 136 153   202 137 151   204 138 152   207 139 152   212 141 150   216 146 148   215 147 146   213 149 147     0   0   0     0   0   0  
   0   0   0     0   0   0     0   0   0     0   0   0     0   0   0     0   0   0     0   0   0     0   0   0     0   0   0     0   0   0   151 109 159   152 110 159   152 110 158   153 110 156   153 110 156   153 110 156   154 111 157   155 115 160   152 113 158   154 116 161   159 118 162   161 120 161   165 124 164   165 123 162   167 125 162   170 129 163   170 128 161   172 128 161   174 130 163   173 129 162   173 129 162   174 129 162   178 132 166   178 130 162   180 131 161   184 134 163   186 132 162   189 133 161   193 136 162   197 139 164   198 138 163   201 139 164   203 140 164   204 140 162   203 138 160   202 138 162   203 139 163   201 139 162   200 138 161   202 140 163   202 140 161   202 139 159   203 138 157   203 137 154   204 138 152   205 137 149   209 139 147   215 145 147   214 145 145   212 148 146     0   0   0     0   0   0  
   0   0   0     0   0   0     0   0   0     0   0   0     0   0   0     0   0   0     0   0   0     0   0   0     0   0   0     0   0   0   151 109 159   151 109 159   152 110 158   153 110 156   154 111 157   154 111 157   153 112 158   153 114 159   151 112 156   154 114 159   158 117 159   160 119 161   165 124 164   166 125 163   167 125 161   168 127 161   171 129 163   173 129 162   172 129 160   172 129 159   176 131 164   175 130 162   177 131 162   179 131 161   179 130 160   183 133 162   188 134 164   190 135 163   195 138 164   199 141 166   199 139 164   200 138 162   201 138 161   202 138 160   203 138 160   202 138 162   202 138 162   201 139 162   201 139 162   201 139 162   199 137 158   202 140 158   204 141 157   203 138 152   202 136 150   205 137 150   211 140 149   215 145 147   215 146 145   212 148 146     0   0   0     0   0   0  
   0   0   0     0   0   0     0   0   0     0   0   0     0   0   0     0   0   0     0   0   0     0   0   0     0   0   0     0   0   0   151 109 159   151 109 159   152 110 158   153 110 156   154 111 157   154 111 157   155 112 158   154 114 159   152 113 157   154 116 159   159 118 160   161 120 161   165 124 163   167 125 161   168 126 162   169 128 162   171 129 163   173 129 162   172 129 160   172 129 159   175 130 163   175 129 162   177 130 162   179 131 161   180 129 160   184 131 161   189 134 162   191 135 162   195 138 164   199 139 165   201 139 164   200 138 162   202 138 162   203 138 161   203 138 160   202 138 162   202 138 162   201 139 162   201 139 162   201 139 162   199 137 158   203 139 160   205 140 159   203 137 154   202 136 150   205 137 150   211 140 149   216 145 147   215 147 146   213 149 147     0   0   0     0   0   0  
   0   0   0     0   0   0     0   0   0     0   0   0     0   0   0     0   0   0     0   0   0     0   0   0     0   0   0     0   0   0   149 109 159   150 109 159   152 110 158   153 110 156   154 111 157   154 111 157   153 112 157   154 115 159   154 115 159   157 118 162   161 120 162   162 121 163   165 124 163   168 127 163   170 128 164   170 129 163   171 130 161   173 130 160   172 129 159   172 129 159   175 130 161   175 129 160   177 130 162   179 131 161   179 130 160   183 132 161   189 136 163   192 137 164   196 138 164   198 138 163   200 138 161   201 138 161   203 139 163   203 138 161   203 138 160   202 138 162   202 138 162   201 139 162   201 139 162   201 139 162   199 137 158   201 140 158   203 140 156   203 137 152   202 136 150   205 137 150   212 142 150   217 147 149   216 148 147   214 150 148     0   0   0     0   0   0  
   0   0   0     0   0   0     0   0   0     0   0   0     0   0   0     0   0   0     0   0   0     0   0   0     0   0   0     0   0   0   149 109 159   150 109 159   152 110 158   153 110 156   154 111 157   154 111 157   155 112 157   155 115 159   154 115 159   159 119 164   163 122 164   163 122 162   165 125 162   169 128 164   171 129 165   171 130 164   171 130 161   173 130 160   172 129 159   172 129 159   174 129 160   175 129 160   178 131 163   180 131 162   180 130 159   184 131 159   190 134 163   196 138 166   198 139 165   198 138 163   200 138 161   201 138 161   203 139 163   203 138 161   203 138 160   202 138 162   202 138 162   201 139 162   201 139 162   201 139 162   199 137 158   202 139 160   204 139 158   203 137 154   202 136 150   205 137 150   212 142 150   218 148 150   217 149 148   215 151 149     0   0   0     0   0   0  
   0   0   0     0   0   0     0   0   0     0   0   0     0   0   0     0   0   0     0   0   0     0   0   0     0   0   0     0   0   0     0   0   0     0   0   0     0   0   0     0   0   0     0   0   0     0   0   0     0   0   0     0   0   0     0   0   0     0   0   0     0   0   0     0   0   0     0   0   0     0   0   0   172 131 165   171 130 162   171 130 161   173 130 160   173 130 160   173 130 160   175 130 161   176 129 160   179 133 162   180 132 161   181 131 160   184 131 159   190 135 163   196 140 166   197 140 164   199 139 164   200 138 161   201 137 161   203 139 163   203 138 161   203 138 160   202 138 162     0   0   0     0   0   0     0   0   0     0   0   0     0   0   0     0   0   0     0   0   0     0   0   0     0   0   0     0   0   0     0   0   0     0   0   0     0   0   0     0   0   0     0   0   0     0   0   0  
   0   0   0     0   0   0     0   0   0     0   0   0     0   0   0     0   0   0     0   0   0     0   0   0     0   0   0     0   0   0     0   0   0     0   0   0     0   0   0     0   0   0     0   0   0     0   0   0     0   0   0     0   0   0     0   0   0     0   0   0     0   0   0     0   0   0     0   0   0     0   0   0   171 130 164   170 129 161   171 129 160   173 130 160   173 130 160   175 130 161   176 129 161   176 130 161   181 133 163   184 134 163   184 131 161   186 131 160   191 135 164   197 140 166   199 140 165   202 140 165   202 138 162   202 138 162   203 139 163   203 138 161   203 138 160   202 138 162     0   0   0     0   0   0     0   0   0     0   0   0     0   0   0     0   0   0     0   0   0     0   0   0     0   0   0     0   0   0     0   0   0     0   0   0     0   0   0     0   0   0     0   0   0     0   0   0  
   0   0   0     0   0   0     0   0   0     0   0   0     0   0   0     0   0   0     0   0   0     0   0   0     0   0   0     0   0   0     0   0   0     0   0   0     0   0   0     0   0   0     0   0   0     0   0   0     0   0   0     0   0   0     0   0   0     0   0   0     0   0   0     0   0   0     0   0   0     0   0   0   170 129 163   169 128 160   170 128 160   173 130 160   174 130 159   175 132 160   176 131 162   178 131 162   183 134 164   185 135 164   183 133 162   186 133 161   191 136 164   196 139 165   200 140 165   202 142 167   203 141 164   202 138 161   203 138 160   203 138 160   203 138 160   202 138 162     0   0   0     0   0   0     0   0   0     0   0   0     0   0   0     0   0   0     0   0   0     0   0   0     0   0   0     0   0   0     0   0   0     0   0   0     0   0   0     0   0   0     0   0   0     0   0   0  
   0   0   0     0   0   0     0   0   0     0   0   0     0   0   0     0   0   0     0   0   0     0   0   0     0   0   0     0   0   0     0   0   0     0   0   0     0   0   0     0   0   0     0   0   0     0   0   0     0   0   0     0   0   0     0   0   0     0   0   0     0   0   0     0   0   0     0   0   0     0   0   0   169 128 162   169 128 160   169 128 160   171 130 160   172 132 160   176 133 163   176 131 162   178 131 164   184 135 167   185 135 166   184 134 163   186 133 163   191 136 164   196 139 165   200 142 167   203 143 168   203 141 164   202 139 162   201 138 159   202 139 160   202 139 160   201 139 162     0   0   0     0   0   0     0   0   0     0   0   0     0   0   0     0   0   0     0   0   0     0   0   0     0   0   0     0   0   0     0   0   0     0   0   0     0   0   0     0   0   0     0   0   0     0   0   0  
   0   0   0     0   0   0     0   0   0     0   0   0     0   0   0     0   0   0     0   0   0     0   0   0     0   0   0     0   0   0     0   0   0     0   0   0     0   0   0     0   0   0     0   0   0     0   0   0     0   0   0     0   0   0     0   0   0     0   0   0     0   0   0     0   0   0     0   0   0     0   0   0   171 131 165   171 132 163   171 132 162   171 132 161   171 132 161   172 131 161   177 131 167   180 133 169   181 134 170   182 132 168   183 132 165   187 133 165   190 135 166   194 139 167   198 140 166   202 142 167   202 143 165   203 140 163   202 140 161   201 141 161   201 142 162   200 141 161     0   0   0     0   0   0     0   0   0     0   0   0     0   0   0     0   0   0     0   0   0     0   0   0     0   0   0     0   0   0     0   0   0     0   0   0     0   0   0     0   0   0     0   0   0     0   0   0  
   0   0   0     0   0   0     0   0   0     0   0   0     0   0   0     0   0   0     0   0   0     0   0   0     0   0   0     0   0   0     0   0   0     0   0   0     0   0   0     0   0   0     0   0   0     0   0   0     0   0   0     0   0   0     0   0   0     0   0   0     0   0   0     0   0   0     0   0   0     0   0   0   171 131 165   171 132 163   171 132 162   171 132 161   170 133 161   171 132 163   181 135 171   184 136 174   185 138 175   185 136 172   188 136 172   191 137 171   192 138 170   195 139 169   198 140 168   201 143 168   202 142 167   200 142 163   200 141 161   200 143 162   200 143 162   200 143 162     0   0   0     0   0   0     0   0   0     0   0   0     0   0   0     0   0   0     0   0   0     0   0   0     0   0   0     0   0   0     0   0   0     0   0   0     0   0   0     0   0   0     0   0   0     0   0   0  
   0   0   0     0   0   0     0   0   0     0   0   0     0   0   0     0   0   0     0   0   0     0   0   0     0   0   0     0   0   0     0   0   0     0   0   0     0   0   0     0   0   0     0   0   0     0   0   0     0   0   0     0   0   0     0   0   0     0   0   0     0   0   0     0   0   0     0   0   0     0   0   0   172 132 166   172 133 164   172 133 163   172 133 162   172 133 162   173 132 164   183 137 173   185 137 175   186 139 175   187 138 173   188 139 171   191 140 171   195 141 171   195 140 168   197 142 167   201 143 167   202 143 165   201 142 164   200 141 161   200 143 162   201 144 163   202 143 163     0   0   0     0   0   0     0   0   0     0   0   0     0   0   0     0   0   0     0   0   0     0   0   0     0   0   0     0   0   0     0   0   0     0   0   0     0   0   0     0   0   0     0   0   0     0   0   0  
