P3
65 50
255
   0   0   0     0   0   0     0   0   0     0   0   0     0   0   0     0   0   0     0   0   0    74  36  33    76  38  34    78  39  34    75  36  31    83  46  43    79  41  38    71  33  30    64  26  23    67  29  26    72  34  31     0   0   0     0   0   0     0   0   0     0   0   0     0   0   0     0   0   0     0   0   0     0   0   0     0   0   0     0   0   0     0   0   0     0   0   0     0   0   0     0   0   0     0   0   0     0   0   0     0   0   0     0   0   0     0   0   0     0   0   0     0   0   0     0   0   0     0   0   0     0   0   0     0   0   0     0   0   0     0   0   0     0   0   0    33   7   8    33   7   8    35   9  10    35   9  10    34   8   9    32   6   7    34   8   9    33   7   8    33   7   8    33   7   8    33   7   8    34   8   9     0   0   0     0   0   0     0   0   0     0   0   0     0   0   0     0   0   0     0   0   0     0   0   0  
   0   0   0     0   0   0     0   0   0     0   0   0     0   0   0     0   0   0     0   0   0    64  27  23    72  34  31    74  35  30    69  31  26    68  30  27    67  30  27    66  27  25    66  28  25    72  34  31    78  40  37     0   0   0     0   0   0     0   0   0     0   0   0     0   0   0     0   0   0     0   0   0     0   0   0     0   0   0     0   0   0     0   0   0     0   0   0     0   0   0     0   0   0     0   0   0     0   0   0     0   0   0     0   0   0     0   0   0     0   0   0     0   0   0     0   0   0     0   0   0     0   0   0     0   0   0     0   0   0     0   0   0     0   0   0    27   1   2    28   2   3    31   5   6    32   6   7    33   7   8    32   6   7    33   7   8    33   7   8    34   8   9    34   8   9    34   8   9    33   7   8     0   0   0     0   0   0     0   0   0     0   0   0     0   0   0     0   0   0     0   0   0     0   0   0  
   0   0   0     0   0   0     0   0   0     0   0   0     0   0   0     0   0   0     0   0   0    57  19  16    68  30  27    71  34  28    67  30  24    62  24  21    59  21  18    55  17  14    54  16  13    60  20  18    66  26  24     0   0   0     0   0   0     0   0   0     0   0   0     0   0   0     0   0   0     0   0   0     0   0   0     0   0   0     0   0   0     0   0   0     0   0   0     0   0   0     0   0   0     0   0   0     0   0   0     0   0   0     0   0   0     0   0   0     0   0   0     0   0   0     0   0   0     0   0   0     0   0   0     0   0   0     0   0   0     0   0   0     0   0   0    33   7   8    33   7   8    34   8   9    35   9  10    36  10  11    36  10  11    37  11  12    35   9  10    32   6   7    31   5   6    31   5   6    33   7   8     0   0   0     0   0   0     0   0   0     0   0   0     0   0   0     0   0   0     0   0   0     0   0   0  
   0   0   0     0   0   0     0   0   0     0   0   0     0   0   0     0   0   0     0   0   0    54  16  13    63  25  22    69  32  26    70  33  27    66  28  25    61  23  20    56  17  14    55  16  13    59  18  16    63  23  21     0   0   0     0   0   0     0   0   0     0   0   0     0   0   0     0   0   0     0   0   0     0   0   0     0   0   0     0   0   0     0   0   0     0   0   0     0   0   0     0   0   0     0   0   0     0   0   0     0   0   0     0   0   0     0   0   0     0   0   0     0   0   0     0   0   0     0   0   0     0   0   0     0   0   0     0   0   0     0   0   0     0   0   0    38  12  13    36  10  11    34   8   9    34   8   9    34   8   9    34   8   9    36  11  11    35   9  10    33   7   8    32   6   7    34   8   9    37  11  12     0   0   0     0   0   0     0   0   0     0   0   0     0   0   0     0   0   0     0   0   0     0   0   0  
   0   0   0     0   0   0     0   0   0     0   0   0     0   0   0     0   0   0     0   0   0    54  16  13    58  20  17    65  28  22    71  34  28    62  24  21    59  21  18    61  21  19    62  22  20    64  23  21    60  19  17     0   0   0     0   0   0     0   0   0     0   0   0     0   0   0     0   0   0     0   0   0     0   0   0     0   0   0     0   0   0     0   0   0     0   0   0     0   0   0     0   0   0     0   0   0     0   0   0     0   0   0     0   0   0     0   0   0     0   0   0     0   0   0     0   0   0     0   0   0     0   0   0     0   0   0     0   0   0     0   0   0     0   0   0    41  14  16    39  14  14    38  12  13    37  11  12    37  11  12    38  12  13    34   8   9    38  12  13    41  15  16    45  19  20    46  20  21    44  18  19     0   0   0     0   0   0     0   0   0     0   0   0     0   0   0     0   0   0     0   0   0     0   0   0  
   0   0   0     0   0   0     0   0   0     0   0   0     0   0   0     0   0   0     0   0   0    52  17  13    51  16  12    54  17  11    58  21  15    50  12   9    48  10   7    51  11   9    55  15  13    56  14  13    51   7   6     0   0   0     0   0   0     0   0   0     0   0   0     0   0   0     0   0   0     0   0   0     0   0   0     0   0   0     0   0   0     0   0   0     0   0   0     0   0   0     0   0   0     0   0   0     0   0   0     0   0   0     0   0   0     0   0   0     0   0   0     0   0   0     0   0   0     0   0   0     0   0   0     0   0   0     0   0   0     0   0   0     0   0   0    52  26  27    53  27  28    52  25  27    51  25  25    51  25  25    52  25  26    47  21  22    49  23  24    50  24  25    52  26  27    49  24  24    47  21  22     0   0   0     0   0   0     0   0   0     0   0   0     0   0   0     0   0   0     0   0   0     0   0   0  
   0   0   0     0   0   0     0   0   0     0   0   0     0   0   0     0   0   0     0   0   0    53  18  15    49  13   9    47   9   6    48   9   7    45   7   7    42   4   5    44   5   6    49   9  11    53  12  14    53  12  14    53  12  14    55  14  16    54  13  15    55  14  16    52  12  14    48  11   9    49  13  13    54  19  17    56  21  21    54  20  17    58  23  18    58  23  18    58  24  20    56  21  20    46  16  14    38  10   9    33   6   6    32   7   7    32   6   9    30   8   9    28   7   8    27   5   6    32   8   9    40  16  17    44  21  22    44  21  21    50  24  25    53  27  28    56  29  31    57  30  31    57  28  30    56  27  29    57  27  29    58  28  30    59  29  32    58  28  30    55  25  27    52  22  24    47  20  21    45  18  19     0   0   0     0   0   0     0   0   0     0   0   0     0   0   0     0   0   0     0   0   0     0   0   0  
   0   0   0     0   0   0     0   0   0     0   0   0     0   0   0     0   0   0     0   0   0    60  22  21    57  19  17    57  18  15    57  18  18    50  11  15    48   9  15    47   8  14    50  11  17    54  14  21    55  16  22    53  15  21    51  13  19    49  11  17    52  14  20    54  16  22    53  16  21    51  14  20    49  13  17    50  14  19    51  15  18    61  26  26    57  21  20    55  19  20    57  23  23    54  22  23    49  18  18    44  14  14    41  12  13    36   9  10    31   6   7    28   5   5    29   8   7    33  11  13    35  14  16    34  14  15    32  11  13    36  12  12    38  12  13    40  11  13    40  11  13    40   9  12    42  11  13    47  14  17    51  17  21    51  17  21    51  17  21    49  18  21    48  18  20    47  18  20    45  16  18     0   0   0     0   0   0     0   0   0     0   0   0     0   0   0     0   0   0     0   0   0     0   0   0  
   0   0   0     0   0   0     0   0   0     0   0   0     0   0   0     0   0   0     0   0   0    67  32  30    68  32  30    66  30  28    65  28  28    58  21  26    57  19  26    54  16  23    52  14  21    49  11  19    47  10  17    47  10  17    46  11  17    56  20  27    57  21  27    57  21  28    55  20  26    53  18  24    52  16  22    53  17  24    53  18  22    59  24  26    53  18  18    50  15  16    52  18  19    50  18  19    49  17  18    47  17  17    46  18  17    36   7  10    31   5   6    28   4   4    26   5   4    28   6   8    29   9  10    27   7   8    25   4   5    25   1   1    28   2   3    32   3   5    31   2   4    31   1   2    34   2   5    42   7  10    47  12  16    43   8  12    43   8  12    40   8  11    39   9  11    38   8  11    37   8  10     0   0   0     0   0   0     0   0   0     0   0   0     0   0   0     0   0   0     0   0   0     0   0   0  
   0   0   0     0   0   0     0   0   0     0   0   0     0   0   0     0   0   0     0   0   0    63  31  28    64  32  29    62  30  27    60  26  25    65  30  34    65  30  36    64  27  34    56  21  27    51  14  21    47  12  18    49  13  19    51  16  22    65  30  36    65  30  36    64  29  35    61  26  32    58  23  29    54  19  25    51  16  22    49  14  18    52  18  19    45  12  10    42   8   9    41   9  10    42  10  11    40  10  10    39   9   9    39  11  10    35   6   8    31   5   6    30   4   5    29   5   5    32   7  10    31   9  11    30   9  11    29   7   9    22   1   1    24   1   1    27   1   1    28   1   1    32   1   3    34   2   5    39   4   8    42   7  10    38   3   7    39   4   8    37   5   8    37   7   9    36   6   8    34   5   7     0   0   0     0   0   0     0   0   0     0   0   0     0   0   0     0   0   0     0   0   0     0   0   0  
   0   0   0     0   0   0     0   0   0     0   0   0     0   0   0     0   0   0     0   0   0    46  17  13    48  20  16    49  20  16    48  19  16    58  26  27    60  28  31    63  28  32    57  25  28    55  20  24    52  20  23    56  24  27    61  29  32    53  21  24    54  22  25    54  22  25    54  22  25    52  20  23    47  15  18    42  10  13    38   6   9    43  11  12    38   7   5    35   3   4    36   6   6    37   7   7    35   5   5    33   3   3    33   5   4    34   5   7    32   5   7    30   4   5    29   3   4    28   2   5    27   2   5    26   1   4    26   1   4    27   1   2    27   1   2    30   1   3    36   7   9    45  13  16    49  16  20    49  14  18    46  11  15    43   8  12    46  11  15    47  15  18    48  18  20    48  18  20    45  16  18     0   0   0     0   0   0     0   0   0     0   0   0     0   0   0     0   0   0     0   0   0     0   0   0  
   0   0   0     0   0   0     0   0   0     0   0   0     0   0   0     0   0   0     0   0   0    32   5   1    35  10   5    38  13   8    40  13  10    46  17  16    49  19  21    52  20  23    50  18  21    46  15  17    44  12  15    45  13  16    47  16  18    44  12  15    44  13  15    46  15  17    48  17  19    50  18  21    48  16  19    45  13  16    41   9  10    43  12  12    37   7   5    34   4   4    36   6   6    38   8   8    37   7   7    35   7   6    36   8   7    31   2   4    31   2   4    32   3   5    31   4   5    32   5   8    33   6  10    35   8  11    35   8  12    37  11  12    39  13  14    44  15  17    50  21  23    58  26  29    62  30  33    64  29  33    63  28  32    60  25  29    61  26  30    58  26  29    56  26  28    53  23  25    45  17  19     0   0   0     0   0   0     0   0   0     0   0   0     0   0   0     0   0   0     0   0   0     0   0   0  
   0   0   0     0   0   0     0   0   0     0   0   0     0   0   0     0   0   0     0   0   0    28   6   1    28   7   1    29   7   2    30   7   3    34   7   6    38   9  11    43  13  15    45  16  18    45  15  17    44  14  16    43  13  15    43  13  15    46  16  18    44  14  16    44  14  16    45  15  17    49  17  20    51  19  22    50  18  21    49  17  18    48  18  17    40  10   8    34   4   4    33   3   3    33   3   3    33   3   3    34   4   4    36   6   6    35   5   7    36   6   8    37   7   9    37   7   9    37   8  12    38   9  13    40  11  15    42  13  17    43  17  18    47  21  22    53  24  26    53  24  26    53  21  24    55  23  26    62  27  31    67  32  36    68  33  37    67  32  36    62  30  33    57  27  29    54  24  26    49  20  22     0   0   0     0   0   0     0   0   0     0   0   0     0   0   0     0   0   0     0   0   0     0   0   0  
   0   0   0     0   0   0     0   0   0     0   0   0     0   0   0     0   0   0     0   0   0    26   6   1    28   7   2    27   8   2    25   4   1    28   2   1    29   2   2    32   4   4    34   6   6    37   9   9    41  12  12    45  15  15    47  17  17    47  17  18    48  18  19    51  19  20    50  18  20    48  16  18    47  15  17    48  14  16    46  14  15    48  18  16    40  10   8    34   4   4    34   4   4    35   6   6    36   6   6    37   7   7    39   9   9    38   8  10    41  11  13    42  12  14    40  10  12    40   9  14    41  11  15    41  10  15    38   9  13    46  20  21    56  30  31    65  36  37    60  31  33    53  21  24    50  18  21    56  21  25    59  24  29    64  29  33    62  27  31    59  27  30    58  28  30    58  28  30    56  27  29     0   0   0     0   0   0     0   0   0     0   0   0     0   0   0     0   0   0     0   0   0     0   0   0  
   0   0   0     0   0   0     0   0   0     0   0   0     0   0   0     0   0   0     0   0   0    29   5   1    29   8   3    28   7   2    24   3   1    32   5   4    29   3   2    28   1   1    27   1   1    31   3   2    35   7   6    39   9   9    41  11  11    52  22  22    55  25  25    59  27  28    60  28  29    59  27  28    59  26  27    59  26  26    59  26  26    55  24  22    46  16  14    41   9  10    42  12  12    44  14  14    44  14  14    44  14  14    46  16  16    42  12  14    44  14  16    45  15  17    43  13  15    44  13  18    47  15  20    46  15  20    42  13  17    47  21  22    55  29  30    62  33  35    58  29  31    55  23  26    52  20  23    51  16  20    50  15  19    51  16  20    50  15  19    49  17  20    50  20  22    53  23  25    53  24  26     0   0   0     0   0   0     0   0   0     0   0   0     0   0   0     0   0   0     0   0   0     0   0   0  
   0   0   0     0   0   0     0   0   0     0   0   0     0   0   0     0   0   0     0   0   0    29   4   1    30   6   2    30   6   2    28   4   1    31   4   4    31   3   2    28   1   1    30   2   1    36   6   6    40  10  10    43  13  13    44  14  14    57  25  26    59  27  27    62  28  29    63  29  30    63  29  30    64  28  30    66  30  32    66  32  33    68  34  33    62  31  29    64  29  31    65  33  34    67  35  36    64  32  33    59  28  29    58  26  27    56  26  28    57  27  29    54  24  26    49  19  21    45  17  20    47  18  22    47  18  22    44  16  19    47  20  22    50  24  25    54  25  27    56  27  29    60  28  31    62  30  33    59  24  29    54  19  23    51  16  20    50  15  19    47  15  18    47  17  19    47  17  19    45  16  18     0   0   0     0   0   0     0   0   0     0   0   0     0   0   0     0   0   0     0   0   0     0   0   0  
   0   0   0     0   0   0     0   0   0     0   0   0     0   0   0     0   0   0     0   0   0    27   1   1    28   2   1    29   4   1    30   5   2    28   1   1    32   4   3    37   8   8    41  13  12    45  14  14    47  17  17    51  21  21    55  23  24    57  25  26    57  23  24    55  20  21    54  17  20    55  18  20    57  20  23    62  23  26    63  26  28    62  25  25    59  24  24    63  26  28    67  33  34    68  33  35    62  30  31    58  26  26    56  24  25    59  29  31    58  28  30    52  23  24    43  14  17    40  11  15    42  13  17    42  14  17    40  12  16    41  15  16    43  17  18    44  15  17    44  15  17    48  16  19    51  19  22    52  17  21    47  12  16    51  16  20    50  15  19    46  14  17    44  14  16    42  12  14    39  10  12     0   0   0     0   0   0     0   0   0     0   0   0     0   0   0     0   0   0     0   0   0     0   0   0  
   0   0   0     0   0   0     0   0   0     0   0   0     0   0   0     0   0   0     0   0   0    33   3   3    29   1   1    29   1   1    30   1   1    35   6   6    41  13  12    49  19  19    51  21  21    49  17  18    48  16  17    52  19  20    56  22  23    63  28  29    61  25  27    58  21  23    57  18  21    60  20  23    64  24  27    68  27  31    69  29  33    70  31  32    64  26  27    62  23  26    62  24  27    62  25  27    61  26  28    64  30  31    67  35  36    58  27  29    56  26  28    48  19  21    38  10  12    34   6  10    35   9  12    35   9  12    34   8  11    35   9  10    38  12  13    39  10  12    35   6   8    36   4   7    39   7  10    44   9  13    44   9  13    47  12  16    47  12  16    44  12  15    41  11  13    39   9  11    36   7   9     0   0   0     0   0   0     0   0   0     0   0   0     0   0   0     0   0   0     0   0   0     0   0   0  
   0   0   0     0   0   0     0   0   0     0   0   0     0   0   0     0   0   0     0   0   0    47  13  14    38   7   8    37   5   6    37   6   7    47  17  15    47  18  16    50  19  18    50  19  18    50  18  17    50  18  17    53  19  18    54  19  19    67  29  30    66  28  29    66  26  28    67  28  29    70  29  31    72  31  33    72  30  33    71  29  32    70  28  30    62  22  23    56  15  19    53  14  17    52  13  16    52  16  18    58  24  25    63  31  32    64  32  35    61  31  33    52  23  25    40  14  15    34   8  11    34   8  11    34   8  11    32   6   9    36  10  11    40  14  15    44  15  17    42  13  15    44  12  15    49  17  20    55  20  24    55  20  24    48  13  17    48  13  17    45  13  15    41  11  13    36   6   8    33   5   6     0   0   0     0   0   0     0   0   0     0   0   0     0   0   0     0   0   0     0   0   0     0   0   0  
   0   0   0     0   0   0     0   0   0     0   0   0     0   0   0     0   0   0     0   0   0    60  24  24    55  20  20    55  17  18    55  20  20    53  20  19    48  14  12    43  10   9    46  13  10    54  19  19    62  27  25    64  28  28    65  27  26    64  25  26    65  25  25    68  28  29    71  31  31    72  30  32    69  27  28    63  21  23    57  15  17    60  20  20    57  16  20    56  16  19    56  17  20    53  14  17    48  12  14    48  14  15    49  17  18    51  21  23    50  21  23    43  17  18    37  11  12    34   9  12    37  12  15    38  16  18    37  15  17    43  19  19    46  20  21    47  20  22    46  17  19    47  17  19    48  18  20    47  15  18    43  10  13    34   2   5    36   4   7    37   5   8    35   5   7    32   3   5    30   4   5     0   0   0     0   0   0     0   0   0     0   0   0     0   0   0     0   0   0     0   0   0     0   0   0  
   0   0   0     0   0   0     0   0   0     0   0   0     0   0   0     0   0   0     0   0   0    54  15  10    58  17  13    60  15  13    56  12  11    60  18  17    61  21  19    64  24  24    66  25  24    67  25  25    68  28  26    73  33  33    76  36  34    65  24  24    73  33  31    78  38  38    75  35  33    73  33  33    72  32  30    71  31  31    67  27  27    63  24  27    63  28  32    61  25  29    54  19  23    50  16  20    48  16  19    48  16  19    44  14  16    46  16  18    45  16  18    42  16  17    41  15  16    41  17  17    42  18  18    41  20  20    42  21  20    41  20  19    44  20  20    44  19  19    43  18  19    41  14  16    39  10  12    35   5   8    33   3   5    39   9  11    38   9  11    37   8  10    35   9  10    36  10  11    36  12  12     0   0   0     0   0   0     0   0   0     0   0   0     0   0   0     0   0   0     0   0   0     0   0   0  
   0   0   0     0   0   0     0   0   0     0   0   0     0   0   0     0   0   0     0   0   0    53  12   9    64  21  16    73  25  21    73  25  23    83  37  37    80  36  36    77  33  32    73  29  29    73  29  29    75  32  31    77  36  35    80  39  38    84  43  42    84  43  42    81  41  39    76  36  35    74  34  32    72  32  31    67  27  26    60  21  21    47  11  13    50  15  19    50  15  19    48  13  17    45  13  16    47  15  18    47  17  18    44  14  16    42  13  15    42  13  15    41  15  16    42  16  17    42  18  18    42  18  18    42  21  20    42  21  20    42  21  20    40  19  18    40  16  16    38  14  14    38  12  13    39  12  13    42  12  15    42  13  15    35   5   7    36   6   8    37   8  10    38  12  13    38  15  15    40  15  15     0   0   0     0   0   0     0   0   0     0   0   0     0   0   0     0   0   0     0   0   0     0   0   0  
   0   0   0     0   0   0     0   0   0     0   0   0     0   0   0     0   0   0     0   0   0    63  23  21    75  32  30    82  35  34    81  34  33    71  26  27    69  25  26    68  24  25    67  24  25    66  24  25    64  22  23    60  18  19    57  16  16    65  25  25    66  26  26    65  25  25    66  26  26    67  27  27    65  26  25    58  20  19    50  13  13    47  12  14    49  14  18    48  13  17    43  10  13    41   9  12    41  10  13    38   8  10    34   4   6    33   4   6    33   4   6    32   6   7    32   6   7    31   7   7    31   7   7    28   7   6    27   6   5    34  13  12    34  13  12    36  12  12    36  11  12    38  11  12    40  11  13    41  11  13    41  11  13    36   6   8    38   8  10    41  12  14    42  14  16    41  16  16    39  15  15    36  14  13    35  12  12    37  11  12    37  11  12    37  11  12    37  11  12    37  11  12    38  12  13  
   0   0   0     0   0   0     0   0   0     0   0   0     0   0   0     0   0   0     0   0   0    74  35  34    82  41  41    83  40  41    81  37  37    75  33  34    69  27  28    62  20  21    58  16  17    59  17  18    60  20  20    61  20  20    60  20  20    53  13  13    56  17  16    61  22  22    65  27  26    68  29  29    69  31  30    69  31  30    67  31  31    53  19  20    51  18  22    47  14  18    42  10  13    40   8  10    39   9  11    37   7   9    32   3   5    36   7   9    35   8   9    34   8   9    34   8   9    32   8   8    30   6   6    28   5   4    27   4   3    27   4   4    28   5   4    31   6   6    32   6   7    34   5   7    33   4   6    33   3   5    32   2   4    33   3   5    36   6   8    41  12  14    44  15  17    44  18  19    42  18  18    43  18  18    42  19  19    40  14  15    42  16  17    44  18  19    43  18  18    41  15  16    40  14  15  
   0   0   0     0   0   0     0   0   0     0   0   0     0   0   0     0   0   0     0   0   0    68  32  31    75  37  36    77  36  37    75  34  34    79  37  38    74  33  34    69  27  28    64  24  24    63  23  23    64  24  24    66  26  26    65  27  26    56  18  17    56  18  17    56  18  17    57  19  18    56  18  17    56  20  18    63  28  26    69  35  34    60  28  29    58  26  29    52  20  23    44  14  17    43  12  14    43  13  14    38   9  11    32   3   5    29   3   4    30   3   5    30   3   5    30   4   5    29   5   5    29   5   5    28   4   4    28   4   4    30   7   7    29   5   5    27   1   2    25   1   1    28   1   1    31   2   4    34   4   7    37   7   9    40  10  12    43  13  15    46  17  19    48  19  21    45  19  20    45  19  20    46  22  22    48  24  24    53  27  28    55  29  30    55  29  30    51  25  26    44  18  19    37  11  12  
  49  20  24    50  24  27    52  26  27    54  26  28    55  27  26    54  22  23    53  19  20    55  19  21    60  21  22    61  22  25    57  18  20    68  28  29    71  32  33    76  36  37    77  38  39    76  36  38    73  34  35    69  31  32    66  30  30    66  29  29    61  24  24    57  21  21    57  21  21    55  20  20    52  18  17    54  20  19    58  24  24    58  27  28    57  27  29    54  24  25    51  21  23    50  20  23    48  19  21    42  13  15    34   5   7    32   6   7    32   6   7    30   7   7    30   6   6    30   6   6    31   7   7    31   7   7    32   8   8    32   8   8    31   7   7    30   5   5    32   6   7    36   7   9    42  13  15    48  18  20    52  22  24    52  22  24    53  23  25    52  23  24    47  19  20    41  14  15    39  13  14    40  16  16    43  19  19    51  25  26    52  26  27    51  25  26    46  20  21    38  12  13    32   6   7  
  44  14  18    44  15  19    45  15  20    41  12  14    44  14  16    46  14  15    45  13  15    48  14  15    49  13  16    48  10  13    45   7  10    53  15  18    56  18  19    58  20  21    59  21  22    58  20  22    57  22  22    61  26  26    65  30  30    62  27  27    58  23  23    57  21  22    58  24  24    58  25  25    54  21  20    48  15  14    44  12  13    46  16  17    45  16  18    46  16  18    46  17  19    51  22  24    54  26  27    50  22  23    43  15  17    34   8   9    32   6   7    28   4   4    25   1   1    25   1   1    27   3   3    27   3   3    27   3   3    36  11  12    39  14  15    44  17  18    46  20  21    51  21  23    53  23  26    56  25  28    55  25  27    51  20  23    49  19  21    47  17  19    42  13  14    40  11  13    38  13  13    40  14  15    41  16  16    38  12  13    38  12  13    38  12  13    36  10  11    32   6   7    30   3   5  
  42  11  16    44  12  17    44  14  17    41  10  13    43  12  14    45  13  16    45  13  16    47  12  16    48  13  17    51  15  19    53  17  20    52  16  18    49  13  15    47  11  13    47  12  13    45  10  12    44  10  11    49  15  16    55  21  22    60  26  27    57  24  25    54  21  22    53  21  22    53  21  22    52  21  21    50  18  19    48  17  17    46  17  19    44  15  17    40  11  13    38   9  11    41  14  15    47  21  22    48  22  23    45  19  20    47  21  22    46  20  21    40  16  16    33   9   9    32   8   8    36  12  12    38  14  14    35  11  11    52  26  27    56  30  31    60  31  33    56  27  29    55  25  27    57  27  29    60  28  31    59  27  30    59  27  30    54  23  26    48  18  20    42  12  14    43  14  16    45  17  19    41  15  16    36  10  11    35   9  10    32   6   7    32   6   7    34   8   9    34   8   9    31   5   6  
  44  12  16    45  11  16    43  11  13    45  11  13    45  12  13    45  12  14    45  11  13    46  11  13    47  11  14    50  14  17    53  17  19    50  15  18    45   9  13    40   5   8    39   6   9    40   7  10    41   8  11    45  12  15    50  18  20    60  27  29    55  25  26    52  21  23    48  17  19    46  15  17    44  15  16    47  17  18    48  19  20    39  10  12    43  16  17    45  18  19    40  13  15    37  11  12    38  12  13    40  16  16    40  16  16    45  21  21    49  25  25    49  25  25    44  20  20    41  17  17    42  18  18    43  19  19    44  20  20    43  17  18    45  19  20    46  17  19    42  13  15    44  14  15    52  22  23    62  30  33    66  35  37    65  33  36    67  35  38    63  33  35    55  25  27    46  17  19    42  13  16    40  14  15    39  13  14    37  11  12    33   7   8    31   5   6    32   6   7    32   6   7    32   5   7  
  58  22  24    55  19  21    53  17  19    55  19  21    54  20  21    54  18  20    50  14  16    47  11  13    43   7   9    43   7   9    42   6   8    42   7  11    35   3   5    33   1   3    38   6   9    44  12  15    50  18  21    54  22  25    57  27  29    63  32  34    61  31  33    58  28  30    51  22  24    44  15  17    40  11  13    40  10  13    40  13  15    29   3   4    35   9  10    38  12  13    34   8   9    30   4   5    30   5   5    33   9   9    35  11  11    31   7   7    34  10  10    36  12  12    36  12  12    35  12  12    37  13  13    39  15  15    41  17  17    32   6   7    35   9  10    35   7   9    33   3   5    34   4   5    40  10  12    49  17  20    52  20  23    59  27  30    67  35  38    71  39  42    66  36  38    55  26  28    49  20  22    44  17  19    42  16  17    42  15  17    37  11  12    33   7   8    32   6   7    31   5   6    31   5   6  
  73  34  35    71  32  33    70  31  32    70  31  32    69  33  33    71  32  33    68  30  30    64  25  25    58  19  20    52  16  16    50  14  16    46  11  15    40   8  13    41   9  14    45  15  20    51  20  25    52  21  26    53  22  27    54  23  28    53  23  27    56  26  31    58  29  33    55  26  30    50  21  25    42  16  19    40  13  16    40  13  16    33   7   8    34  10  10    32   8   8    28   4   4    28   3   3    31   7   7    33   9   9    32   8   8    32   8   8    28   4   4    26   2   2    28   4   4    32   8   8    35  11  11    39  13  14    39  14  14    31   5   6    35   9  10    38   9  11    35   6   8    38   7   9    45  13  16    54  19  23    57  22  26    65  30  34    68  36  39    72  39  42    68  38  40    63  34  35    60  31  33    55  29  30    51  25  26    47  21  22    41  15  16    36  10  11    34   8   9    32   6   7    30   4   5  
  70  30  31    72  32  33    72  31  32    71  31  32    72  32  33    72  33  34    72  32  33    68  28  29    64  25  26    62  23  24    59  23  25    53  21  24    50  18  23    48  17  22    49  18  23    48  17  22    42  11  16    38   8  13    39   8  13    37   8  12    40  11  15    43  15  19    46  18  22    46  20  23    45  19  22    44  18  21    44  18  21    43  19  19    41  18  17    36  13  13    33  10   9    34  10  10    37  13  13    36  12  12    32   8   8    39  15  15    31   7   7    26   2   2    27   3   3    30   7   7    32   8   8    35   9  10    37  10  12    33   7   8    38  11  13    43  13  15    42  12  14    45  13  16    52  21  23    62  27  31    65  30  34    70  35  39    72  37  40    68  36  39    63  31  34    60  30  32    60  30  33    59  30  32    56  29  30    51  25  26    46  20  21    41  15  16    41  15  16    38  12  13    33   7   8  
  64  22  23    68  26  27    70  28  29    72  30  31    70  29  29    67  26  28    63  22  23    59  18  19    56  15  17    55  15  16    54  16  19    46  12  16    43  11  16    43  11  16    42  11  16    39   8  13    33   3   8    33   4   8    36   8  12    35   8  11    32   5   8    28   3   6    29   5   6    33   7  10    37  11  14    39  13  16    39  14  17    39  15  15    39  18  17    39  16  16    37  14  14    38  14  14    40  16  16    38  14  14    35  11  11    36  12  12    32   8   8    31   6   6    31   7   7    31   6   6    29   4   4    32   6   7    38  12  13    35   8   9    45  16  18    52  22  24    53  23  25    54  22  25    54  22  25    56  21  25    53  18  22    66  30  34    72  36  40    74  40  44    71  37  41    65  34  37    63  32  35    60  30  32    56  27  29    53  26  27    49  23  24    47  21  22    47  21  22    45  19  20    40  14  15  
  62  21  20    69  28  27    75  34  33    80  39  38    78  35  34    74  31  32    70  27  28    68  23  26    64  19  22    60  15  18    55  12  17    43   5  10    41   7  11    41   7  11    38   6  10    33   3   6    31   2   5    30   5   6    33   8   9    32  10  10    31   8   9    27   6   5    25   4   4    25   2   2    27   2   3    28   4   5    29   5   6    30   6   6    35  11  11    40  15  15    40  15  15    39  13  14    37  12  13    36  11  12    35  10  10    35  10  10    33   8   8    36   8   9    36  11  12    37   9  11    36   8   9    40  12  14    46  20  21    39  13  14    45  18  19    49  22  23    51  22  24    49  19  21    48  16  19    50  15  18    50  14  18    61  23  28    67  29  33    74  36  41    78  41  45    77  42  46    72  37  41    64  30  34    55  24  27    52  23  25    47  21  22    47  21  22    50  24  25    50  24  25    45  19  20  
  66  29  24    72  32  30    76  36  34    72  31  29    72  31  29    75  31  32    76  32  33    76  30  33    71  25  28    64  15  19    54   9  14    52  11  17    47  12  15    44   9  13    37   5   8    33   3   5    29   3   4    31   7   7    33  11  10    28   7   6    27   7   6    27   7   6    25   5   4    24   3   2    23   2   1    26   2   2    27   3   3    27   3   3    29   5   5    34   8   9    36  12  12    39  13  14    39  15  15    39  14  14    38  12  13    35   9  10    36  10  11    42  13  15    46  20  21    49  20  22    45  19  20    49  20  22    52  26  27    52  26  27    48  24  24    46  20  21    43  14  16    43  13  15    48  13  17    53  17  22    60  21  26    61  20  26    60  19  25    60  19  25    63  22  28    65  26  31    68  29  34     0   0   0     0   0   0     0   0   0     0   0   0     0   0   0     0   0   0     0   0   0     0   0   0  
  57  22  18    58  21  20    59  22  20    59  20  20    61  21  21    65  24  26    69  27  29    74  29  32    72  28  31    69  25  30    65  23  27    59  21  25    55  19  23    48  13  17    40   8  10    35   5   6    31   5   6    34  10  10    35  14  13    25   4   3    26   5   4    27   6   5    26   5   4    27   3   3    27   3   3    29   3   4    29   5   5    29   5   5    25   4   3    26   2   2    29   8   7    37  13  13    39  17  17    39  16  16    39  15  15    41  17  17    43  19  19    49  23  24    54  30  30    55  29  30    52  27  27    51  26  27    52  27  27    47  21  22    44  18  19    42  13  15    41  12  14    44  14  16    52  17  21    57  21  25    61  22  27    57  16  22    53  12  18    48   7  13    47   6  12    50  11  16    57  18  23     0   0   0     0   0   0     0   0   0     0   0   0     0   0   0     0   0   0     0   0   0     0   0   0  
  65  31  29    65  30  28    66  31  29    66  31  31    64  28  28    62  24  25    60  23  24    62  23  24    64  25  29    69  29  33    70  32  36    67  31  35    64  28  32    58  23  26    50  18  21    44  14  15    39  10  12    37  10  11    35  10  11    27   2   3    27   5   5    30   5   5    29   5   5    29   4   5    29   4   4    31   4   5    31   5   6    30   7   7    26   5   4    26   5   4    30   9   8    33  12  10    34  13  12    35  15  14    39  18  17    49  26  25    48  25  25    47  24  24    47  24  24    46  23  23    44  21  21    44  21  21    45  21  21    44  18  19    45  18  20    50  21  23    56  26  28    61  29  32    62  27  31    57  21  25    54  16  20    54  13  19    54  13  19    54  13  19    55  14  20    56  17  22    58  19  24     0   0   0     0   0   0     0   0   0     0   0   0     0   0   0     0   0   0     0   0   0     0   0   0  
  61  29  28    61  28  28    61  29  28    63  31  32    61  29  30    58  26  26    54  22  22    52  20  21    53  20  23    57  24  27    60  26  30    74  38  42    73  37  41    70  35  39    66  33  36    59  28  31    51  22  24    43  13  15    36   9  10    35   7   9    34   9   9    34   7   8    31   5   6    30   2   4    29   1   3    31   2   4    31   3   5    30   5   5    27   5   4    30   8   7    35  13  12    35  13  12    33  11  10    37  15  14    45  22  22    45  23  22    42  19  19    36  13  13    31   8   8    31   8   8    34  13  12    38  15  15    40  16  16    48  20  22    52  23  25    58  28  30    65  34  36    69  37  40    69  34  38    65  29  33    61  25  29    56  17  22    58  19  24    61  22  27    63  24  29    64  25  30    65  26  31     0   0   0     0   0   0     0   0   0     0   0   0     0   0   0     0   0   0     0   0   0     0   0   0  
  48  18  20    48  17  19    45  16  17    42  13  14    44  15  16    46  17  18    46  17  18    45  16  18    45  16  18    48  18  22    51  19  24    63  28  32    66  30  34    69  34  38    73  38  42    72  38  42    65  34  37    56  25  28    49  19  21    49  19  21    46  18  20    44  14  16    38   9  11    34   4   6    32   2   4    33   3   5    34   4   6    33   5   7    31   4   5    35   8   9    43  15  17    44  17  18    40  12  14    40  14  15    46  20  21    38  12  13    36  10  11    31   6   6    26   1   2    29   3   4    34  11  11    39  14  14    39  13  14    40  11  13    43  13  15    48  16  19    52  20  23    57  25  28    63  30  33    69  34  38    71  36  40    56  19  24    58  21  25    60  23  27    60  23  28    61  25  29    63  26  31     0   0   0     0   0   0     0   0   0     0   0   0     0   0   0     0   0   0     0   0   0     0   0   0  
   0   0   0     0   0   0     0   0   0     0   0   0     0   0   0     0   0   0     0   0   0    36  10  10    34   8   9    36  10  13    40  11  15    41   6  10    46  11  15    56  21  25    68  33  37    77  42  46    78  43  47    73  39  43    66  35  38    65  33  36    62  30  33    55  23  26    47  17  19    40  10  12    37   7   9    37   7   9    39   9  11    43  11  14    37   6   9    39   8  11    49  17  20    52  21  24    45  14  17    41   9  12    41  12  14    39   9  11    40  11  13    39   9  11    37   7   9    39  10  12    45  16  18    45  17  19    41  12  14    39  10  12    41  11  13    44  12  15    44  12  15    46  14  17    50  18  21    57  25  28    65  30  34    54  19  23    56  21  25    58  23  27    59  23  27    57  21  25    57  21  25     0   0   0     0   0   0     0   0   0     0   0   0     0   0   0     0   0   0     0   0   0     0   0   0  
   0   0   0     0   0   0     0   0   0     0   0   0     0   0   0     0   0   0     0   0   0    34  10  10    35  11  11    35  11  11    38   9  11    40   5   9    41   5   9    40   4   8    45   9  13    58  21  26    71  35  39    74  38  42    68  33  37    68  33  37    66  31  35    58  23  26    46  13  17    43  11  14     0   0   0     0   0   0     0   0   0     0   0   0     0   0   0     0   0   0     0   0   0     0   0   0     0   0   0     0   0   0     0   0   0     0   0   0     0   0   0     0   0   0     0   0   0     0   0   0     0   0   0     0   0   0     0   0   0    41  10  13    45  15  17    49  19  21    46  16  18    40  10  12    37   7   9    38   8  10    42  10  13    47  15  18    49  17  20    52  20  23    56  21  25    55  20  24    54  20  24     0   0   0     0   0   0     0   0   0     0   0   0     0   0   0     0   0   0     0   0   0     0   0   0  
   0   0   0     0   0   0     0   0   0     0   0   0     0   0   0     0   0   0     0   0   0    32   5   5    30   4   4    28   2   3    29   1   2    35   1   4    36   1   4    35   1   3    35   1   3    43   7  11    53  16  20    56  19  23    53  16  20    45   6  11    47  10  14    48  11  15    45  10  14    46  11  15     0   0   0     0   0   0     0   0   0     0   0   0     0   0   0     0   0   0     0   0   0     0   0   0     0   0   0     0   0   0     0   0   0     0   0   0     0   0   0     0   0   0     0   0   0     0   0   0     0   0   0     0   0   0     0   0   0    50  18  21    49  19  20    45  15  17    40  10  12    34   5   7    29   1   2    29   1   3    30   2   4    33   5   7    37   8  10    42  12  14    45  15  17    47  16  19    49  17  20     0   0   0     0   0   0     0   0   0     0   0   0     0   0   0     0   0   0     0   0   0     0   0   0  
   0   0   0     0   0   0     0   0   0     0   0   0     0   0   0     0   0   0     0   0   0    35   5   5    33   3   3    30   1   1    29   1   1    30   1   2    33   1   2    36   1   4    40   5   8    48   9  14    56  16  21    61  21  26    62  22  28    64  22  29    63  23  29    60  20  26    56  18  23    56  19  23     0   0   0     0   0   0     0   0   0     0   0   0     0   0   0     0   0   0     0   0   0     0   0   0     0   0   0     0   0   0     0   0   0     0   0   0     0   0   0     0   0   0     0   0   0     0   0   0     0   0   0     0   0   0     0   0   0    53  22  25    48  19  21    42  13  15    37  10  11    35   8   9    33   8   8    33   8   8    31   8   8    29   6   6    32   9   9    38  11  12    41  13  15    42  14  16    45  15  17     0   0   0     0   0   0     0   0   0     0   0   0     0   0   0     0   0   0     0   0   0     0   0   0  
   0   0   0     0   0   0     0   0   0     0   0   0     0   0   0     0   0   0     0   0   0    51  16  17    51  17  17    51  16  16    51  17  17    43  12  13    48  14  17    55  19  23    62  24  29    67  26  32    70  29  35    75  32  39    78  35  42    68  24  31    66  24  31    66  24  31    65  25  31    65  26  31     0   0   0     0   0   0     0   0   0     0   0   0     0   0   0     0   0   0     0   0   0     0   0   0     0   0   0     0   0   0     0   0   0     0   0   0     0   0   0     0   0   0     0   0   0     0   0   0     0   0   0     0   0   0     0   0   0    56  27  29    50  23  24    45  18  19    41  17  17    40  16  16    37  15  15    33  12  11    29   9   8    35  14  13    36  16  15    38  16  16    38  16  15    38  13  13    38  11  12     0   0   0     0   0   0     0   0   0     0   0   0     0   0   0     0   0   0     0   0   0     0   0   0  
   0   0   0     0   0   0     0   0   0     0   0   0     0   0   0     0   0   0     0   0   0    74  34  35    71  32  32    71  31  31    70  31  32    67  31  33    67  32  36    72  33  38    75  36  41    74  34  39    73  30  37    74  29  36    76  31  38    70  25  32    67  22  29    64  19  26    61  19  25    57  16  22     0   0   0     0   0   0     0   0   0     0   0   0     0   0   0     0   0   0     0   0   0     0   0   0     0   0   0     0   0   0     0   0   0     0   0   0     0   0   0     0   0   0     0   0   0     0   0   0     0   0   0     0   0   0     0   0   0    46  20  21    44  18  19    41  17  17    40  19  18    41  20  19    38  18  17    32  14  12    26  11   8    35  17  15    35  17  15    34  16  14    33  13  12    30   9   8    30   5   5     0   0   0     0   0   0     0   0   0     0   0   0     0   0   0     0   0   0     0   0   0     0   0   0  
   0   0   0     0   0   0     0   0   0     0   0   0     0   0   0     0   0   0     0   0   0    65  23  24    59  17  18    58  15  16    56  15  15    52  16  18    49  14  17    53  14  19    59  20  25    65  24  30    69  26  32    76  31  38    81  36  43    83  37  44    75  30  37    69  24  31    63  20  27    57  16  22     0   0   0     0   0   0     0   0   0     0   0   0     0   0   0     0   0   0     0   0   0     0   0   0     0   0   0     0   0   0     0   0   0     0   0   0     0   0   0     0   0   0     0   0   0     0   0   0     0   0   0     0   0   0     0   0   0    33   7   8    34   8   9    34  10  10    34  13  12    33  13  12    32  14  12    28  13  10    25  11   8    23   8   5    24   9   6    23   8   5    24   7   4    24   4   3    24   3   2     0   0   0     0   0   0     0   0   0     0   0   0     0   0   0     0   0   0     0   0   0     0   0   0  
   0   0   0     0   0   0     0   0   0     0   0   0     0   0   0     0   0   0     0   0   0    66  22  23    63  19  20    64  20  19    65  23  23    67  27  28    57  20  21    51  12  15    49  10  12    50   9  12    48   9  11    49  10  13    52  13  18    59  20  25    60  22  27    65  27  31    68  31  35    65  28  33     0   0   0     0   0   0     0   0   0     0   0   0     0   0   0     0   0   0     0   0   0     0   0   0     0   0   0     0   0   0     0   0   0     0   0   0     0   0   0     0   0   0     0   0   0     0   0   0     0   0   0     0   0   0     0   0   0    40  13  14    39  12  13    37  10  11    32  10   9    29   9   8    26   8   6    21   6   3    18   4   2    14   1   1    15   2   1    18   3   1    18   3   1    20   2   1    22   2   1     0   0   0     0   0   0     0   0   0     0   0   0     0   0   0     0   0   0     0   0   0     0   0   0  
   0   0   0     0   0   0     0   0   0     0   0   0     0   0   0     0   0   0     0   0   0    65  22  23    64  20  21    67  23  23    74  30  29    70  27  27    64  24  23    58  17  18    53  15  15    53  14  14    50  15  14    47  14  13    45  13  13    40  10  10    45  15  15    50  21  21    52  24  24    50  22  24     0   0   0     0   0   0     0   0   0     0   0   0     0   0   0     0   0   0     0   0   0     0   0   0     0   0   0     0   0   0     0   0   0     0   0   0     0   0   0     0   0   0     0   0   0     0   0   0     0   0   0     0   0   0     0   0   0    53  19  23    47  14  17    40   9  12    35   8   9    33  10  10    28   9   8    22   7   4    16   2   1    15   3   1    15   4   1    17   3   1    19   4   1    21   3   1    22   2   1     0   0   0     0   0   0     0   0   0     0   0   0     0   0   0     0   0   0     0   0   0     0   0   0  
   0   0   0     0   0   0     0   0   0     0   0   0     0   0   0     0   0   0     0   0   0    68  27  28    67  25  25    68  26  27    72  29  30    77  33  33    71  30  30    68  26  27    64  26  25    62  23  24    57  23  21    49  18  16    44  14  12    41  13  12    40  13  12    40  14  14    40  14  15    40  14  15     0   0   0     0   0   0     0   0   0     0   0   0     0   0   0     0   0   0     0   0   0     0   0   0     0   0   0     0   0   0     0   0   0     0   0   0     0   0   0     0   0   0     0   0   0     0   0   0     0   0   0     0   0   0     0   0   0    53  18  22    49  14  18    43  11  14    37   8  10    31   6   6    26   5   4    21   4   1    17   3   1    16   2   1    15   2   1    16   1   1    15   1   1    17   1   1    20   1   1     0   0   0     0   0   0     0   0   0     0   0   0     0   0   0     0   0   0     0   0   0     0   0   0  
   0   0   0     0   0   0     0   0   0     0   0   0     0   0   0     0   0   0     0   0   0    61  21  22    59  19  20    58  18  19    59  17  18    72  29  30    70  28  29    68  28  28    69  31  30    68  31  31    65  31  30    59  28  26    53  25  22    46  18  17    43  17  16    42  15  17    39  13  14    36  10  11     0   0   0     0   0   0     0   0   0     0   0   0     0   0   0     0   0   0     0   0   0     0   0   0     0   0   0     0   0   0     0   0   0     0   0   0     0   0   0     0   0   0     0   0   0     0   0   0     0   0   0     0   0   0     0   0   0    57  22  25    57  22  26    53  21  24    46  17  19    36  10  11    27   6   5    22   2   1    18   3   1    22   7   4    21   6   4    21   4   2    19   2   1    21   2   1    24   4   3     0   0   0     0   0   0     0   0   0     0   0   0     0   0   0     0   0   0     0   0   0     0   0   0  
