P3
62 57
255
   0   0   0     0   0   0     0   0   0     0   0   0     0   0   0     0   0   0     0   0   0     0   0   0     0   0   0     0   0   0     0   0   0     0   0   0     0   0   0     0   0   0     0   0   0     0   0   0    49  20  24    46  20  23    46  20  22    47  21  24    48  20  24    50  19  24    51  19  24    54  19  25    55  18  25    54  19  25    54  19  25    54  19  25    54  19  25    54  19  25    54  19  25    54  19  25    54  19  25    54  19  25    54  19  25    54  19  25    54  19  25    54  19  25     0   0   0     0   0   0     0   0   0     0   0   0     0   0   0     0   0   0     0   0   0     0   0   0     0   0   0     0   0   0     0   0   0     0   0   0     0   0   0     0   0   0     0   0   0     0   0   0     0   0   0     0   0   0     0   0   0     0   0   0     0   0   0     0   0   0     0   0   0     0   0   0  
   0   0   0     0   0   0     0   0   0     0   0   0     0   0   0     0   0   0     0   0   0     0   0   0     0   0   0     0   0   0     0   0   0     0   0   0     0   0   0     0   0   0     0   0   0     0   0   0    49  20  24    45  19  22    45  18  21    47  20  23    49  18  23    51  19  24    53  18  24    54  19  25    55  18  25    54  19  25    54  19  25    54  19  25    54  19  25    54  19  25    54  19  25    54  19  25    54  19  25    54  19  25    54  19  25    54  19  25    54  19  25    54  19  25     0   0   0     0   0   0     0   0   0     0   0   0     0   0   0     0   0   0     0   0   0     0   0   0     0   0   0     0   0   0     0   0   0     0   0   0     0   0   0     0   0   0     0   0   0     0   0   0     0   0   0     0   0   0     0   0   0     0   0   0     0   0   0     0   0   0     0   0   0     0   0   0  
   0   0   0     0   0   0     0   0   0     0   0   0     0   0   0     0   0   0     0   0   0     0   0   0     0   0   0     0   0   0     0   0   0     0   0   0     0   0   0     0   0   0     0   0   0     0   0   0    47  18  22    45  19  22    44  18  21    45  19  22    47  19  23    49  18  23    51  19  24    54  19  25    55  18  25    54  19  25    54  19  25    54  19  25    54  19  25    54  19  25    54  19  25    54  19  25    54  19  25    54  19  25    54  19  25    54  19  25    54  19  25    54  19  25     0   0   0     0   0   0     0   0   0     0   0   0     0   0   0     0   0   0     0   0   0     0   0   0     0   0   0     0   0   0     0   0   0     0   0   0     0   0   0     0   0   0     0   0   0     0   0   0     0   0   0     0   0   0     0   0   0     0   0   0     0   0   0     0   0   0     0   0   0     0   0   0  
   0   0   0     0   0   0     0   0   0     0   0   0     0   0   0     0   0   0     0   0   0     0   0   0     0   0   0     0   0   0     0   0   0     0   0   0     0   0   0     0   0   0     0   0   0     0   0   0    46  17  21    44  18  21    44  18  21    46  19  22    48  17  22    50  18  23    53  18  24    54  19  25    55  18  25    54  19  25    54  19  25    54  19  25    54  19  25    54  19  25    54  19  25    54  19  25    54  19  25    54  19  25    54  19  25    54  19  25    54  19  25    54  19  25     0   0   0     0   0   0     0   0   0     0   0   0     0   0   0     0   0   0     0   0   0     0   0   0     0   0   0     0   0   0     0   0   0     0   0   0     0   0   0     0   0   0     0   0   0     0   0   0     0   0   0     0   0   0     0   0   0     0   0   0     0   0   0     0   0   0     0   0   0     0   0   0  
   0   0   0     0   0   0     0   0   0     0   0   0     0   0   0     0   0   0     0   0   0     0   0   0     0   0   0     0   0   0     0   0   0     0   0   0     0   0   0     0   0   0     0   0   0     0   0   0    45  16  20    44  18  21    44  18  21    45  19  22    46  18  22    49  18  23    51  19  24    54  19  25    55  18  25    54  19  25    54  19  25    54  19  25    54  19  25    54  19  25    54  19  25    54  19  25    54  19  25    54  19  25    54  19  25    54  19  25    54  19  25    54  19  25     0   0   0     0   0   0     0   0   0     0   0   0     0   0   0     0   0   0     0   0   0     0   0   0     0   0   0     0   0   0     0   0   0     0   0   0     0   0   0     0   0   0     0   0   0     0   0   0     0   0   0     0   0   0     0   0   0     0   0   0     0   0   0     0   0   0     0   0   0     0   0   0  
   0   0   0     0   0   0     0   0   0     0   0   0     0   0   0     0   0   0     0   0   0     0   0   0     0   0   0     0   0   0     0   0   0     0   0   0     0   0   0     0   0   0     0   0   0     0   0   0    43  14  18    42  16  19    43  17  20    46  18  22    48  17  22    50  18  23    53  18  24    54  19  25    55  18  25    54  19  25    54  19  25    54  19  25    54  19  25    54  19  25    54  19  25    54  19  25    54  19  25    54  19  25    54  19  25    54  19  25    54  19  25    54  19  25     0   0   0     0   0   0     0   0   0     0   0   0     0   0   0     0   0   0     0   0   0     0   0   0     0   0   0     0   0   0     0   0   0     0   0   0     0   0   0     0   0   0     0   0   0     0   0   0     0   0   0     0   0   0     0   0   0     0   0   0     0   0   0     0   0   0     0   0   0     0   0   0  
   0   0   0     0   0   0     0   0   0     0   0   0     0   0   0     0   0   0     0   0   0     0   0   0     0   0   0     0   0   0     0   0   0     0   0   0     0   0   0     0   0   0     0   0   0     0   0   0    45  16  20    44  18  21    45  19  22    45  19  22    46  18  22    49  18  23    51  19  24    54  19  25    55  18  25    54  19  25    54  19  25    54  19  25    54  19  25    54  19  25    54  19  25    54  19  25    54  19  25    54  19  25    54  19  25    54  19  25    54  19  25    54  19  25     0   0   0     0   0   0     0   0   0     0   0   0     0   0   0     0   0   0     0   0   0     0   0   0     0   0   0     0   0   0     0   0   0     0   0   0     0   0   0     0   0   0     0   0   0     0   0   0     0   0   0     0   0   0     0   0   0     0   0   0     0   0   0     0   0   0     0   0   0     0   0   0  
   0   0   0     0   0   0    48  19  23    47  18  22    48  17  22    50  19  24    51  20  25    51  19  24    50  19  24    50  18  23    49  17  22    49  17  22    49  18  23    49  18  23    49  18  23    48  19  23    48  19  23    47  21  24    46  20  23    46  19  22    48  18  23    50  18  23    53  18  24    54  19  25    55  18  25    54  19  25    54  19  25    54  19  25    54  19  25    54  19  25    54  19  25    54  19  25    54  19  25    54  19  25    54  19  25    54  19  25    54  19  25    54  19  25    54  19  24    54  19  23    54  19  23    53  18  22    53  18  22    52  17  21    52  17  21    52  17  21    52  17  21    52  17  21    52  17  21    52  17  21    53  18  22    53  18  22     0   0   0     0   0   0     0   0   0     0   0   0     0   0   0     0   0   0     0   0   0     0   0   0     0   0   0     0   0   0  
   0   0   0     0   0   0    47  18  22    46  17  21    47  16  21    50  19  24    51  20  25    51  19  24    50  18  23    49  17  22    48  16  21    48  16  21    47  16  21    48  17  22    50  19  24    50  20  25    50  21  25    48  22  25    47  20  24    46  20  23    47  19  23    50  19  24    51  19  24    54  19  25    55  18  25    54  19  25    54  19  25    54  19  25    54  19  25    54  19  25    54  19  25    54  19  25    54  19  25    54  19  25    54  19  25    54  19  25    54  19  25    54  19  25    54  19  25    55  20  24    54  19  23    53  18  22    52  17  21    51  16  20    51  16  20    50  15  20    51  16  20    51  16  20    52  17  21    52  17  21    52  17  21    52  17  21     0   0   0     0   0   0     0   0   0     0   0   0     0   0   0     0   0   0     0   0   0     0   0   0     0   0   0     0   0   0  
   0   0   0     0   0   0    45  16  20    45  16  20    45  16  20    48  18  23    50  19  24    49  18  23    49  18  23    49  17  22    47  15  20    47  15  20    44  13  18    46  16  21    49  18  23    50  20  25    50  21  25    47  21  24    47  21  24    48  21  24    50  19  24    51  19  24    53  18  24    54  19  25    55  18  25    54  19  25    54  19  25    54  19  25    54  19  25    54  19  25    54  19  25    54  19  25    54  19  25    54  19  25    54  19  25    54  19  25    54  19  25    54  19  25    54  19  24    54  19  23    53  18  22    52  17  21    52  17  21    50  15  20    50  15  19    50  15  19    51  16  20    51  16  20    51  16  20    52  17  21    52  17  21    53  18  22     0   0   0     0   0   0     0   0   0     0   0   0     0   0   0     0   0   0     0   0   0     0   0   0     0   0   0     0   0   0  
   0   0   0     0   0   0    45  16  20    45  16  20    45  16  20    48  17  22    49  18  23    49  18  23    48  17  22    48  16  21    47  15  20    47  15  20    44  13  18    46  15  20    48  17  22    49  19  24    49  20  24    47  21  24    47  21  24    47  21  24    48  20  24    50  19  24    51  19  24    54  19  25    55  18  25    53  18  24    53  18  24    53  18  24    53  18  24    53  18  24    53  18  24    53  18  24    53  18  24    53  18  24    53  18  24    53  18  24    53  18  24    53  18  24    53  18  23    53  18  22    52  17  21    52  17  21    51  16  20    50  15  20    50  15  19    50  15  19    50  15  19    51  16  20    51  16  20    52  17  21    53  18  22    53  18  22     0   0   0     0   0   0     0   0   0     0   0   0     0   0   0     0   0   0     0   0   0     0   0   0     0   0   0     0   0   0  
   0   0   0     0   0   0    46  17  21    46  17  21    46  17  21    47  17  22    48  17  22    48  17  22    47  16  21    48  16  21    48  16  21    48  16  21    46  15  20    46  15  20    48  17  22    49  19  24    49  20  24    47  21  24    48  22  25    49  22  25    50  20  25    52  20  25    54  19  25    54  18  25    54  17  24    53  18  24    53  18  24    53  18  24    53  18  24    53  18  24    53  18  24    53  18  24    53  18  24    53  18  24    53  18  24    53  18  24    53  18  24    53  18  24    52  17  23    51  16  20    51  16  20    51  16  20    51  16  20    51  16  20    51  16  20    50  15  19    50  15  19    51  16  20    52  17  21    53  18  22    54  19  23    54  19  23     0   0   0     0   0   0     0   0   0     0   0   0     0   0   0     0   0   0     0   0   0     0   0   0     0   0   0     0   0   0  
   0   0   0     0   0   0    49  18  23    49  18  23    49  18  23    48  16  21    48  16  21    48  16  21    47  16  21    47  16  21    48  17  22    48  17  22    47  18  22    47  18  22    48  19  23    49  20  24    49  20  24    50  21  25    50  21  25    51  21  25    51  20  25    52  20  25    54  19  25    54  19  25    53  18  24    53  18  24    51  19  24    51  19  24    51  19  24    51  19  24    51  19  24    51  19  24    51  19  24    51  19  24    52  19  24    53  18  24    53  18  24    53  18  24    51  17  22    48  16  19    49  17  20    49  17  20    49  17  20    49  17  20    50  17  20    50  15  19    50  15  19    51  16  20    52  17  21    53  18  22    54  19  23    54  19  23     0   0   0     0   0   0     0   0   0     0   0   0     0   0   0     0   0   0     0   0   0     0   0   0     0   0   0     0   0   0  
   0   0   0     0   0   0    52  20  25    54  19  25    55  19  25    51  14  21    50  13  20    50  15  21    48  16  21    47  17  22    46  19  22    44  19  22    41  16  19    44  18  21    48  20  24    50  19  24    51  19  24    51  19  24    54  19  25    53  18  24    53  18  24    53  18  24    53  18  24    53  18  24    52  19  24    52  20  25    51  19  24    51  19  24    49  18  23    50  19  24    50  20  25    51  22  26    47  18  22    48  19  23    51  20  25    53  19  25    54  19  25    54  17  24    52  18  23    47  20  21    45  17  19    46  17  19    48  18  20    50  20  22    51  20  22    50  17  21    48  16  19    50  15  19    52  16  21    55  19  23    55  19  23    54  19  23     0   0   0     0   0   0     0   0   0     0   0   0     0   0   0     0   0   0     0   0   0     0   0   0     0   0   0     0   0   0  
   0   0   0     0   0   0    51  19  24    53  18  24    55  17  24    53  13  21    50  13  20    50  15  21    48  16  21    46  18  22    44  19  22    42  20  22    39  17  19    44  18  21    48  20  24    49  18  23    50  18  23    53  18  24    54  17  24    55  17  24    55  17  24    54  17  24    53  18  24    52  18  24    51  19  24    52  20  25    51  20  25    50  19  24    50  19  24    49  20  24    48  21  25    48  22  25    45  19  22    47  20  23    50  20  25    52  20  25    54  19  25    54  17  24    52  18  23    47  20  21    44  18  19    44  18  19    47  18  20    49  20  22    50  20  22    49  18  21    49  17  20    50  15  19    52  16  21    55  19  23    57  18  23    53  18  22     0   0   0     0   0   0     0   0   0     0   0   0     0   0   0     0   0   0     0   0   0     0   0   0     0   0   0     0   0   0  
   0   0   0     0   0   0    50  18  23    53  15  23    55  15  23    53  13  21    52  12  20    51  14  21    48  16  21    46  18  22    44  19  22    42  20  22    41  16  19    43  18  21    47  19  23    48  17  22    49  17  22    52  17  23    54  17  24    54  17  24    54  17  24    54  17  24    53  18  24    52  18  24    51  19  24    52  21  26    52  21  26    51  20  25    49  18  23    48  19  23    46  20  23    47  21  24    45  19  22    48  19  23    51  20  25    53  19  25    54  19  25    54  17  24    52  18  23    47  20  21    44  18  19    44  18  19    48  19  21    49  20  22    50  20  22    50  18  21    49  17  20    51  16  20    53  17  21    56  20  24    55  19  23    53  18  22     0   0   0     0   0   0     0   0   0     0   0   0     0   0   0     0   0   0     0   0   0     0   0   0     0   0   0     0   0   0  
   0   0   0     0   0   0    48  16  21    50  15  21    52  14  21    52  12  20    50  13  20    50  15  21    47  16  21    46  18  22    44  19  22    42  20  22    41  16  19    43  17  21    45  19  22    45  17  21    47  16  21    49  17  22    52  17  23    54  18  24    54  17  24    54  17  24    53  18  24    52  18  24    51  19  24    52  20  25    51  20  25    50  19  24    47  17  22    46  17  21    45  18  21    44  18  21    45  19  22    47  20  23    50  20  25    52  20  25    54  19  25    54  17  24    52  18  23    48  20  22    45  18  20    44  18  19    48  19  21    49  20  22    50  20  22    50  19  22    50  18  21    51  16  20    53  17  21    56  20  24    55  19  23    53  18  22     0   0   0     0   0   0     0   0   0     0   0   0     0   0   0     0   0   0     0   0   0     0   0   0     0   0   0     0   0   0  
   0   0   0     0   0   0    48  16  21    50  15  21    51  14  21    50  13  20    50  13  20    50  15  21    47  16  21    46  18  22    44  19  22    44  19  22    42  17  20    43  18  21    46  18  22    46  16  20    46  15  20    48  16  21    52  17  23    53  18  24    53  18  24    53  18  24    53  18  24    53  18  24    52  19  24    50  19  24    50  19  24    48  17  22    46  16  20    45  16  20    43  17  20    43  17  20    45  19  22    48  19  23    51  20  25    53  19  25    54  19  25    54  17  24    52  18  23    49  20  22    46  17  20    47  18  20    49  19  21    51  21  23    51  21  23    50  19  22    50  18  21    52  17  21    53  17  21    56  20  24    55  19  23    53  18  22     0   0   0     0   0   0     0   0   0     0   0   0     0   0   0     0   0   0     0   0   0     0   0   0     0   0   0     0   0   0  
   0   0   0     0   0   0    47  16  21    48  15  21    50  15  21    49  14  20    49  14  20    48  16  21    47  16  21    46  18  22    44  19  22    44  19  22    43  18  21    43  18  21    45  19  22    45  16  20    46  15  20    47  16  21    50  18  23    52  19  24    53  18  24    53  18  24    53  18  24    53  18  24    52  19  24    50  19  24    49  18  23    48  17  22    46  16  20    45  16  20    43  17  20    44  18  21    45  19  22    47  20  23    50  20  25    52  20  25    54  19  25    54  17  24    52  19  24    50  20  22    47  18  20    47  18  20    49  19  21    51  21  23    51  21  23    52  20  23    51  19  22    52  17  21    53  18  22    56  20  24    55  19  23    53  18  22     0   0   0     0   0   0     0   0   0     0   0   0     0   0   0     0   0   0     0   0   0     0   0   0     0   0   0     0   0   0  
   0   0   0     0   0   0    48  17  22    49  17  22    50  17  22    50  15  21    47  15  20    48  16  21    47  16  21    46  18  22    44  19  22    44  19  22    44  19  22    44  19  22    45  19  22    45  16  20    46  15  20    47  16  21    50  18  23    51  19  24    52  18  24    53  18  24    53  18  24    53  18  24    53  18  24    51  19  24    50  19  24    49  18  23    48  17  22    47  18  22    46  19  23    47  21  24    45  19  22    48  19  23    51  20  25    53  19  25    54  19  25    54  17  24    53  18  24    51  20  22    48  18  20    48  18  20    50  20  22    51  20  23    52  20  23    54  20  24    54  19  23    53  18  22    53  18  22    56  20  24    55  19  23    53  18  22     0   0   0     0   0   0     0   0   0     0   0   0     0   0   0     0   0   0     0   0   0     0   0   0     0   0   0     0   0   0  
   0   0   0     0   0   0    47  18  22    48  17  22    49  17  22    47  16  21    46  15  20    47  16  21    45  17  21    45  19  22    44  19  22    44  19  22    44  19  22    45  20  23    45  19  22    45  16  20    45  16  20    47  18  22    49  18  23    51  19  24    51  19  24    53  18  24    53  18  24    53  18  24    53  18  24    52  19  25    51  20  25    50  19  24    50  19  24    50  21  25    49  22  25    49  23  26    45  19  22    47  20  23    50  20  25    52  20  25    54  19  25    54  17  24    53  18  24    51  20  22    48  18  20    48  18  20    50  20  22    51  20  23    52  20  23    54  20  24    54  19  23    53  18  22    53  18  22    56  20  24    55  19  23    52  17  21     0   0   0     0   0   0     0   0   0     0   0   0     0   0   0     0   0   0     0   0   0     0   0   0     0   0   0     0   0   0  
   0   0   0     0   0   0    47  18  22    48  17  22    48  17  22    48  17  22    48  17  22    48  17  22    46  18  22    45  19  22    45  19  22    45  19  22    46  20  23    45  19  22    46  20  23    45  19  22    46  17  21    48  19  23    51  20  25    51  19  24    51  19  24    51  19  24    53  18  24    53  18  24    54  18  24    51  19  24    50  19  24    50  19  24    50  19  24    49  20  24    47  20  24    47  21  24    46  20  23    48  19  23    50  19  24    52  18  24    53  18  24    55  18  25    53  19  24    52  20  23    52  20  23    52  20  23    51  19  22    51  18  22    52  17  21    53  18  22    53  18  22    53  18  22    53  18  22    54  18  22    54  18  22    53  18  22     0   0   0     0   0   0     0   0   0     0   0   0     0   0   0     0   0   0     0   0   0     0   0   0     0   0   0     0   0   0  
  45  19  22    45  19  22    47  18  22    47  18  22    48  18  22    48  17  22    47  18  22    47  18  22    46  18  22    45  19  22    45  19  22    45  19  22    46  20  23    45  19  22    46  20  23    45  19  22    44  18  21    46  20  23    50  21  25    50  20  24    50  19  24    51  19  24    53  18  24    53  18  24    54  18  24    51  19  24    50  19  24    49  18  23    49  18  23    48  19  23    47  20  24    47  21  24    47  21  24    47  20  24    50  20  24    50  19  24    53  18  24    54  17  24    54  17  23    52  19  22    50  18  21    50  18  21    51  19  22    52  19  22    54  19  23    53  18  22    53  18  22    53  18  22    53  18  22    54  18  22    54  18  22    53  18  22     0   0   0     0   0   0     0   0   0     0   0   0     0   0   0     0   0   0     0   0   0     0   0   0     0   0   0     0   0   0  
  45  19  22    45  19  22    45  19  22    47  18  22    47  18  22    47  18  22    47  18  22    47  18  22    45  19  22    45  19  22    45  19  22    45  19  22    46  20  23    45  19  22    46  20  23    45  19  22    43  18  21    45  20  23    48  22  25    48  21  24    50  19  24    51  19  24    53  18  24    53  18  24    54  18  24    51  19  24    50  19  24    48  17  22    47  16  21    47  18  22    47  20  23    47  21  24    48  22  25    50  20  25    51  20  25    52  17  23    52  17  23    52  15  22    52  16  22    52  17  21    51  16  20    51  16  20    52  17  21    55  20  23    57  22  26    55  20  24    54  19  23    54  19  23    54  19  23    54  19  23    54  19  23    54  19  23     0   0   0     0   0   0     0   0   0     0   0   0     0   0   0     0   0   0     0   0   0     0   0   0     0   0   0     0   0   0  
  45  19  22    45  19  22    45  19  22    46  19  22    47  18  22    47  18  22    47  18  22    45  19  22    45  19  22    45  19  22    45  19  22    45  19  22    46  20  23    45  19  22    46  20  23    45  19  22    43  18  21    45  20  23    47  22  25    47  21  24    48  20  24    50  19  24    51  19  24    53  18  24    54  18  24    52  19  25    50  19  24    48  17  22    45  15  20    46  17  21    47  20  23    48  22  25    49  23  26    49  22  25    50  20  25    50  18  23    51  16  22    51  14  21    51  15  20    51  16  20    50  15  19    50  15  19    52  17  21    56  21  25    59  24  28    56  21  25    54  19  23    54  19  23    54  19  23    54  19  23    54  19  23    54  19  23    52  20  25    52  20  25    52  20  25    52  20  25    52  20  25    52  20  25    52  20  25    51  19  24    52  18  24    53  18  24  
  45  19  22    45  19  22    45  19  22    45  19  22    45  19  22    45  19  22    45  19  22    45  19  22    45  19  22    45  19  22    45  19  22    45  19  22    46  20  23    45  19  22    46  20  23    45  19  22    43  18  21    43  21  23    47  22  25    47  21  24    48  20  24    50  19  24    51  19  24    53  18  24    54  18  24    52  19  25    50  19  24    48  17  22    45  15  20    46  17  21    47  20  23    48  22  25    49  23  26    51  21  25    51  20  25    51  17  22    50  15  21    50  13  20    51  14  20    52  16  20    51  15  19    51  15  19    53  17  21    57  21  25    60  24  28    57  21  25    55  19  23    54  19  23    54  19  23    54  19  23    54  19  23    54  19  23    54  19  25    54  19  25    54  19  25    54  19  25    54  19  25    54  19  25    54  19  25    53  18  24    53  18  24    53  18  24  
  45  19  22    45  19  22    45  19  22    45  19  22    45  19  22    45  19  22    45  19  22    45  19  22    45  19  22    45  19  22    45  19  22    45  19  22    46  20  23    45  19  22    46  20  23    45  19  22    43  18  21    43  21  23    46  23  25    46  21  24    47  21  24    49  19  24    51  19  24    53  18  24    54  18  24    51  19  24    50  19  24    48  17  22    47  16  21    47  18  22    47  20  23    47  21  24    49  23  26    48  22  25    50  20  24    49  17  22    50  15  21    50  13  20    51  14  20    53  17  21    52  16  20    52  16  20    53  17  21    56  20  23    58  22  26    56  20  24    55  19  23    54  19  23    54  19  23    54  19  23    54  19  23    54  19  23    54  19  25    54  19  25    54  19  25    54  19  25    54  19  25    54  19  25    54  19  25    53  18  24    53  18  24    53  18  24  
  45  19  22    45  19  22    45  19  22    45  19  22    44  19  22    44  19  22    44  19  22    45  19  22    45  19  22    45  19  22    45  19  22    45  19  22    46  20  23    45  19  22    46  20  23    45  19  22    41  19  21    43  21  23    46  23  25    47  21  24    48  20  24    50  19  24    51  19  24    53  18  24    54  18  24    51  19  24    50  19  24    49  18  23    49  18  23    48  19  23    47  20  24    47  21  24    48  22  25    50  20  25    50  19  24    50  16  22    50  15  21    51  14  21    52  14  21    56  17  22    54  17  21    53  17  21    54  18  22    54  18  22    55  19  23    54  18  22    54  18  22    53  18  22    53  18  22    53  18  22    53  18  22    53  18  22    55  18  25    55  18  25    55  18  25    54  19  25    54  19  25    54  19  25    54  19  25    53  18  24    53  18  24    53  18  24  
  45  19  22    45  19  22    45  19  22    45  19  22    44  19  22    44  19  22    44  19  22    45  19  22    45  19  22    45  19  22    45  19  22    45  19  22    46  20  23    45  19  22    46  20  23    45  19  22    43  18  21    45  20  23    48  22  25    47  21  24    48  20  24    50  19  24    51  19  24    53  18  24    54  18  24    51  19  24    49  20  24    49  20  24    49  20  24    49  20  24    47  20  24    47  21  24    47  21  24    47  20  24    49  19  23    49  17  22    49  17  22    50  15  21    51  16  21    55  19  23    55  19  23    55  19  23    54  18  22    54  18  22    53  17  21    54  18  22    54  18  22    54  18  22    53  18  22    54  18  22    54  18  22    54  18  22    55  18  25    55  18  25    55  18  25    54  19  25    54  19  25    54  19  25    54  19  25    53  20  25    52  20  25    52  20  25  
  45  19  20    45  19  20    45  19  20    45  19  20    45  19  20    45  19  20    45  19  20    45  19  20    45  19  20    45  19  20    45  19  20    45  19  20    46  17  19    47  18  20    48  19  21    46  17  19    46  17  19    47  18  20    48  19  21    50  20  22    50  20  22    51  19  22    53  18  22    53  18  22    52  19  22    50  20  23    49  20  22    48  19  21    46  20  21    46  20  21    47  21  22    48  22  23    47  21  22    47  21  22    49  22  23    49  20  22    47  18  20    46  17  19    47  16  19    51  18  23    53  18  24    53  18  24    53  18  24    54  19  25    54  19  25    55  18  25    55  18  25    55  18  25    57  17  25    56  16  24    56  16  24    56  16  24    57  17  25    56  17  25    55  18  25    55  18  25    54  19  25    54  19  25    52  20  25    51  19  24    50  19  24    50  19  24  
  45  19  20    45  19  20    45  19  20    45  19  20    45  19  20    45  19  20    45  19  20    45  19  20    45  19  20    45  19  20    45  19  20    45  19  20    46  17  19    47  18  20    48  19  21    47  17  19    47  17  19    48  18  20    49  19  21    51  20  22    51  19  22    51  19  22    51  19  22    53  18  22    52  19  22    50  20  23    47  21  22    47  21  22    46  20  21    46  20  21    47  20  22    47  21  22    47  21  22    47  21  22    47  21  22    46  20  21    45  19  20    44  18  19    46  16  19    50  18  23    50  19  24    51  19  24    51  19  24    54  19  25    54  19  25    52  17  23    54  17  24    54  17  24    56  16  24    56  16  24    56  16  24    56  16  24    57  17  25    56  17  25    55  18  25    55  18  25    54  19  25    52  20  25    51  20  25    50  19  24    49  20  24    49  20  24  
  45  19  20    45  19  20    45  19  20    45  19  20    45  19  20    45  19  20    45  19  20    45  19  20    45  19  20    45  19  20    45  19  20    45  19  20    44  18  19    47  18  20    48  19  21    46  17  19    46  17  19    47  18  20    49  19  21    50  20  22    50  20  22    51  19  22    51  19  22    51  19  22    51  20  22    49  20  22    47  21  22    48  22  23    47  21  22    47  21  22    45  19  20    45  19  20    46  20  21    46  20  21    46  20  21    46  20  21    45  19  20    44  18  19    46  16  19    49  18  23    50  19  24    51  19  24    51  19  24    52  20  25    53  20  25    51  16  22    50  15  21    51  16  22    52  15  22    54  17  24    54  17  24    56  16  24    57  17  25    56  17  25    55  18  25    54  19  25    54  19  25    52  20  25    51  20  25    50  19  24    49  20  24    49  20  24  
  45  19  20    45  19  20    45  19  20    45  19  20    45  19  20    45  19  20    45  19  20    45  19  20    45  19  20    45  19  20    45  19  20    45  19  20    44  18  19    45  19  20    47  19  21    46  17  19    46  17  19    47  18  20    48  19  21    50  20  22    50  20  22    50  20  22    50  20  22    51  19  22    51  20  22    49  20  22    47  21  22    48  22  23    48  22  23    47  21  22    45  19  20    43  17  18    46  20  21    46  20  21    46  20  21    45  19  20    44  18  19    44  18  19    45  18  20    49  19  23    50  19  24    50  19  24    50  19  24    52  20  25    52  20  25    48  16  21    49  14  20    50  15  21    50  15  21    52  17  23    53  18  24    54  17  24    55  18  25    56  17  25    55  18  25    54  19  25    54  19  25    52  20  25    51  20  25    50  19  24    49  20  24    49  20  24  
  45  19  20    45  19  20    45  19  20    45  19  20    45  19  20    45  19  20    45  19  20    45  19  20    45  19  20    45  19  20    45  19  20    45  19  20    43  19  19    44  20  20    45  20  21    44  18  19    44  18  19    45  19  20    48  19  21    49  20  22    49  20  22    49  20  22    49  20  22    50  20  22    50  20  22    48  19  21    47  21  22    47  21  22    48  22  23    47  21  22    45  19  20    44  18  19    46  20  21    45  19  20    45  19  20    44  18  19    44  18  19    44  18  19    45  18  20    48  19  23    49  20  24    49  20  24    49  20  24    51  20  25    51  20  25    47  16  21    47  15  20    48  16  21    48  16  21    51  17  23    53  18  24    53  18  24    55  18  25    55  18  25    55  18  25    54  19  25    54  19  25    52  20  25    51  20  25    50  19  24    49  20  24    49  20  24  
  45  19  20    45  19  20    45  19  20    45  19  20    45  19  20    45  19  20    45  19  20    45  19  20    45  19  20    45  19  20    45  19  20    45  19  20    43  19  19    44  20  20    45  21  21    43  19  19    44  18  19    45  19  20    46  20  21    47  20  21    48  19  21    48  19  21    48  19  21    48  19  21    48  19  21    46  19  20    46  20  21    46  20  21    46  20  21    46  20  21    46  20  21    45  19  20    46  20  21    45  20  20    45  19  20    45  19  20    45  19  20    45  19  20    46  20  21    48  19  23    49  20  24    49  20  24    49  20  24    50  21  25    51  21  25    48  17  22    47  16  21    48  17  22    48  17  22    50  19  24    50  19  24    51  19  24    54  19  25    55  18  25    55  18  25    54  19  25    54  19  25    52  20  25    51  20  25    50  19  24    49  20  24    49  20  24  
  45  19  20    45  19  20    45  19  20    45  19  20    45  19  20    45  19  20    45  19  20    45  19  20    45  19  20    45  19  20    45  19  20    45  19  20    43  19  19    42  21  20    44  21  21    43  19  19    43  19  19    44  20  20    45  20  20    45  19  20    45  19  20    45  19  20    45  19  20    47  18  20    47  18  20    46  19  20    45  19  20    45  19  20    45  19  20    46  20  21    47  20  22    48  22  23    47  21  22    45  20  20    45  19  20    45  19  20    45  19  20    46  20  21    47  20  22    46  20  23    47  20  24    47  21  24    47  21  24    48  22  25    49  22  25    48  20  23    49  20  24    49  20  24    50  19  24    50  19  24    50  19  24    50  19  24    54  19  25    54  19  25    54  19  25    54  19  25    54  19  25    52  20  25    51  20  25    50  19  24    50  19  24    50  19  24  
  45  19  20    45  19  20    45  19  20    45  19  20    45  19  20    45  19  20    45  19  20    45  19  20    45  19  20    45  19  20    45  19  20    44  20  20    41  20  19    42  21  20    43  22  21    43  20  19    43  19  19    44  20  20    45  20  20    44  18  19    44  18  19    44  18  19    44  18  19    45  18  19    46  17  19    45  18  19    44  18  19    44  18  19    44  18  19    46  20  21    47  21  22    49  23  24    47  21  22    45  20  20    45  19  20    45  19  20    46  20  21    47  21  22    47  21  23    46  20  23    47  20  24    47  21  24    47  21  24    48  22  25    48  22  25    49  21  25    50  21  25    50  21  25    50  20  25    49  20  24    49  20  24    50  19  24    52  20  25    54  19  25    54  19  25    54  19  25    54  19  25    52  20  25    51  20  25    50  19  24    50  19  24    50  19  24  
   0   0   0     0   0   0    45  19  20    45  19  20    45  19  20    45  19  20    45  19  20    45  19  20    45  19  20    45  19  20    45  19  20    45  19  20    44  20  20    42  21  20    42  21  20    44  21  20    45  21  21    45  21  21    45  20  20    45  19  20    45  19  20    45  19  20    45  19  20    45  18  20    46  17  19    45  18  20    45  19  20    44  18  19    44  18  19    44  18  19    43  17  18    43  17  18    45  19  20    46  20  21    45  19  20    45  19  20    48  22  23    49  23  24    48  22  23    48  22  25    48  22  25    48  22  25    48  22  25    48  22  25    48  22  25    48  22  25    48  22  25    48  22  25    48  22  25    48  22  25    48  22  25    50  21  25    51  19  24    52  18  24    51  19  24    51  19  24    51  19  24    51  19  24    51  19  24    51  19  24    50  19  24    50  19  24  
   0   0   0     0   0   0    45  19  20    45  19  20    45  19  20    45  19  20    45  19  20    45  19  20    45  19  20    45  19  20    45  19  20    45  19  20    43  19  19    42  21  20    42  21  20    44  21  20    45  21  21    45  21  21    45  20  21    46  20  21    46  20  21    46  20  21    46  20  21    46  20  21    48  19  21    46  20  21    46  20  21    46  20  21    46  20  21    46  20  21    45  19  20    44  18  19    44  18  19    45  20  20    45  19  20    44  18  19    47  21  22    49  23  24    48  22  23    48  22  25    48  22  25    48  22  25    48  22  25    48  22  25    48  22  25    46  20  23    45  19  22    45  19  22    45  19  22    45  19  22    45  19  22    47  18  22    51  19  24    52  18  24    51  19  24    51  19  24    51  19  24    51  19  24    51  19  24    51  19  24    50  19  24    50  19  24  
   0   0   0     0   0   0    45  19  20    45  19  20    45  19  20    45  19  20    45  19  20    45  19  20    45  19  20    45  19  20    45  19  20    45  19  20    43  19  19    43  19  19    44  20  20    45  19  20    46  20  21    46  20  21    47  20  21    49  20  22    49  20  22    50  21  23    50  21  23    50  21  23    51  21  23    48  21  22    47  21  22    48  22  23    48  22  23    48  22  23    46  20  21    45  19  20    44  18  19    45  19  20    45  19  20    44  18  19    47  21  22    48  22  23    47  20  22    49  20  24    49  20  24    49  20  24    49  20  24    49  20  24    49  20  24    46  19  22    45  19  22    45  19  22    45  19  22    45  19  22    44  19  22    45  19  22    50  19  24    51  19  24    51  19  24    51  19  24    51  19  24    51  19  24    51  19  24    51  19  24    51  19  24    51  19  24  
   0   0   0     0   0   0    44  18  19    45  19  20    45  19  20    45  19  20    45  19  20    45  19  20    45  19  20    45  19  20    45  19  20    45  19  20    43  19  19    43  19  19    44  19  20    45  19  20    45  19  20    46  20  21    47  20  21    49  20  22    49  20  22    49  20  22    50  21  23    51  21  23    51  21  23    49  20  21    47  21  22    48  22  23    48  22  23    48  22  23    46  20  21    44  18  19    43  17  18    45  19  20    45  19  20    45  19  20    47  21  22    48  22  23    49  20  22    50  19  24    50  19  24    49  20  24    49  20  24    49  20  24    49  20  24    48  21  25    48  22  25    48  22  25    48  22  25    48  22  25    47  22  25    48  22  25    50  19  24    51  19  24    51  19  24    51  19  24    51  19  24    51  19  24    51  19  24    51  19  24    51  19  24    51  19  24  
   0   0   0     0   0   0    44  18  19    44  18  19    45  19  20    45  19  20    45  19  20    45  19  20    45  19  20    45  19  20    45  19  20    45  19  20    44  18  19    44  18  19    45  18  19    47  18  20    47  18  20    47  18  20    47  18  20    48  18  20    49  19  20    49  19  21    50  20  22    51  19  22    51  20  22    48  18  21    46  20  21    46  20  21    47  20  22    46  20  21    44  18  19    44  18  19    43  17  18    45  19  20    46  20  21    45  19  20    48  22  23    48  22  23    48  19  22    51  19  24    51  19  24    50  19  24    50  19  24    50  19  24    50  19  24    51  22  26    52  23  27    52  23  27    51  23  27    50  24  27    50  24  27    50  24  27    50  19  24    50  19  24    50  19  24    50  19  24    51  19  24    51  19  24    51  19  24    51  19  24    51  19  24    51  19  24  
   0   0   0     0   0   0    44  18  19    44  18  19    45  19  20    44  18  19    44  18  19    44  18  19    44  18  19    44  18  19    44  18  19    44  18  19    43  17  18    45  18  19    46  17  19    47  18  20    47  18  20    47  18  20    47  18  20    47  17  19    48  18  20    48  18  20    50  18  21    50  18  21    51  20  22    48  19  21    46  20  21    45  19  20    45  19  20    44  18  19    44  18  19    44  18  19    43  17  18    46  20  21    47  21  22    46  20  21    48  22  23    48  22  23    49  20  22    51  19  24    51  19  24    51  19  24    50  19  24    50  19  24    50  19  24    49  20  24    49  20  24    49  20  24    48  20  24    47  21  24    47  21  24    47  21  24    49  20  24    50  19  24    50  19  24    50  19  24    51  19  24    51  19  24    51  19  24    51  19  24    51  19  24    51  19  24  
   0   0   0     0   0   0    43  17  18    44  18  19    45  19  20    44  18  19    44  18  19    44  18  19    44  18  19    44  18  19    44  18  19    44  18  19    45  16  18    46  16  18    47  17  19    47  17  19    48  18  20    48  18  20    48  17  20    48  16  19    49  17  20    49  17  20    52  17  21    53  18  22    53  19  23    50  20  22    46  20  21    45  19  20    44  18  19    44  18  19    45  19  20    46  20  21    44  18  19    46  20  21    47  21  22    48  22  23    49  23  24    49  23  24    49  19  22    51  18  23    52  17  23    52  17  23    50  18  23    50  18  23    50  18  23    49  18  23    49  18  23    48  19  23    48  19  23    48  19  23    46  20  23    48  19  23     0   0   0     0   0   0     0   0   0     0   0   0     0   0   0     0   0   0     0   0   0     0   0   0     0   0   0     0   0   0  
   0   0   0     0   0   0    43  17  18    44  18  19    45  19  20    44  18  19    44  18  19    44  18  19    44  18  19    44  18  19    44  18  19    44  18  19    45  16  18    46  16  18    47  17  19    47  17  19    48  18  20    48  18  20    48  18  20    48  18  20    49  17  20    50  18  21    53  18  22    54  19  23    54  20  24    51  22  24    47  21  22    45  19  20    44  18  19    44  18  19    45  19  20    47  21  22    44  18  19    47  21  22    48  22  23    48  22  23    49  24  25    48  24  24    49  19  22    51  18  23    52  17  23    52  17  23    50  18  23    50  18  23    50  18  23    50  19  24    50  19  24    49  20  24    49  20  24    49  20  24    47  20  24    47  21  24     0   0   0     0   0   0     0   0   0     0   0   0     0   0   0     0   0   0     0   0   0     0   0   0     0   0   0     0   0   0  
   0   0   0     0   0   0    43  17  18    45  19  20    45  19  20    45  19  20    45  19  20    45  19  20    45  19  20    45  19  20    45  19  20    47  18  20    49  17  22    51  16  22    50  17  22    48  17  22    48  17  22    47  18  22    47  18  22    47  18  22    48  18  23    52  20  25    55  20  26    54  18  24    51  15  22    48  17  20    48  18  20    48  18  20    47  18  20    47  18  20    47  18  20    47  18  20    44  18  19    46  21  21    47  23  23    47  23  23    46  22  22    46  22  22    48  21  23    51  19  24    51  19  24    51  19  24    51  19  24    50  19  24    50  19  24    50  19  24    51  20  25    51  20  25    49  19  23    47  18  22    46  17  21    47  18  22     0   0   0     0   0   0     0   0   0     0   0   0     0   0   0     0   0   0     0   0   0     0   0   0     0   0   0     0   0   0  
   0   0   0     0   0   0    43  17  18    45  19  20    45  19  20    45  19  20    45  19  20    45  19  20    45  19  20    45  19  20    45  19  20    47  18  20    51  16  22    51  16  22    50  17  22    48  17  22    47  18  22    45  19  22    45  19  22    45  19  22    47  19  23    50  19  24    52  20  25    53  18  24    50  15  21    49  16  20    48  18  20    48  18  20    48  18  20    47  18  20    47  18  20    47  18  20    44  18  19    46  21  21    47  23  23    46  24  23    44  23  22    44  23  22    48  22  23    51  19  24    51  19  24    51  19  24    51  19  24    50  19  24    50  19  24    50  19  24    51  20  25    51  20  25    49  19  23    47  18  22    46  17  21    45  19  22     0   0   0     0   0   0     0   0   0     0   0   0     0   0   0     0   0   0     0   0   0     0   0   0     0   0   0     0   0   0  
   0   0   0     0   0   0    44  18  19    45  19  20    45  19  20    45  19  20    45  19  20    45  19  20    45  19  20    45  19  20    45  19  20    47  18  20    49  17  22    50  16  22    49  17  22    48  17  22    47  18  22    45  19  22    45  19  22    44  18  21    46  18  22    49  19  24    51  20  25    51  18  23    50  15  21    49  16  20    48  18  20    48  18  20    48  18  20    47  18  20    46  19  20    45  19  20    44  18  19    46  21  21    47  23  23    47  23  23    46  22  22    46  22  22    48  21  23    51  19  24    51  19  24    51  19  24    51  19  24    50  19  24    49  18  23    49  18  23    50  19  24    50  21  25    48  19  23    47  18  22    46  17  21    47  18  22     0   0   0     0   0   0     0   0   0     0   0   0     0   0   0     0   0   0     0   0   0     0   0   0     0   0   0     0   0   0  
   0   0   0     0   0   0    44  18  19    45  19  20    45  19  20    45  19  20    45  19  20    45  19  20    45  19  20    45  19  20    45  19  20    47  18  20    49  17  22    49  17  22    48  18  22    47  18  22    45  19  22    45  19  22    45  19  22    44  18  21    45  19  22    48  19  23    49  20  24    49  18  23    47  15  20    47  17  20    48  18  20    48  18  20    48  18  20    47  18  20    46  19  20    45  19  20    44  18  19    46  21  21    47  23  23    47  23  23    46  22  22    46  22  22    48  21  23    51  19  24    51  19  24    51  19  24    50  18  23    50  18  23    49  18  23    49  18  23    50  19  24    49  20  24    48  19  23    47  18  22    46  17  21    45  19  22     0   0   0     0   0   0     0   0   0     0   0   0     0   0   0     0   0   0     0   0   0     0   0   0     0   0   0     0   0   0  
   0   0   0     0   0   0    44  18  19    45  19  20    45  19  20    45  19  20    45  19  20    45  19  20    45  19  20    45  19  20    45  19  20    47  18  20    48  17  22    48  17  22    48  18  22    47  18  22    45  19  22    45  19  22    44  19  22    44  18  21    45  19  22    48  19  23    49  20  24    49  18  23    46  15  20    47  17  20    47  18  20    47  18  20    47  18  20    47  18  20    46  19  20    45  19  20    44  18  19    46  21  21    48  22  23    47  23  23    46  22  22    46  22  22    48  21  23    51  19  24    51  19  24    50  18  23    49  18  23    48  17  22    48  17  22    47  18  22    48  19  23    49  20  24    48  19  23    47  18  22    45  18  22    46  20  23     0   0   0     0   0   0     0   0   0     0   0   0     0   0   0     0   0   0     0   0   0     0   0   0     0   0   0     0   0   0  
   0   0   0     0   0   0    45  19  20    45  20  20    45  19  20    45  19  20    45  19  20    45  19  20    45  19  20    45  19  20    45  19  20    45  19  20    47  18  22     0   0   0     0   0   0     0   0   0     0   0   0     0   0   0     0   0   0     0   0   0     0   0   0     0   0   0     0   0   0     0   0   0     0   0   0     0   0   0     0   0   0    47  18  20    47  18  20    47  18  20    46  19  20    45  19  20    44  18  19    46  21  21    48  22  23    47  23  23    46  22  22    46  22  22    48  21  23    51  19  24    51  19  24    50  18  23    49  18  23    48  17  22    48  17  22    48  18  22    49  20  24    50  21  25    49  20  24    48  19  23    46  19  23    47  21  24     0   0   0     0   0   0     0   0   0     0   0   0     0   0   0     0   0   0     0   0   0     0   0   0     0   0   0     0   0   0  
   0   0   0     0   0   0    45  19  20    45  20  20    45  19  20    45  19  20    45  19  20    45  19  20    45  19  20    45  19  20    45  19  20    45  19  20    45  19  22     0   0   0     0   0   0     0   0   0     0   0   0     0   0   0     0   0   0     0   0   0     0   0   0     0   0   0     0   0   0     0   0   0     0   0   0     0   0   0     0   0   0    45  19  20    45  19  20    45  19  20    45  19  20    45  19  20    44  18  19    46  21  21    48  22  23    48  22  23    47  21  22    47  21  22    49  21  23    51  20  25    50  19  24    49  18  23    48  17  22    47  17  22    46  17  21    47  18  22    49  20  24    50  21  25    49  21  25    47  21  24    47  20  24    48  22  25     0   0   0     0   0   0     0   0   0     0   0   0     0   0   0     0   0   0     0   0   0     0   0   0     0   0   0     0   0   0  
   0   0   0     0   0   0    45  19  20    45  20  20    45  19  20    45  19  20    45  19  20    45  19  20    45  19  20    45  19  20    45  19  20    45  19  20    45  19  22     0   0   0     0   0   0     0   0   0     0   0   0     0   0   0     0   0   0     0   0   0     0   0   0     0   0   0     0   0   0     0   0   0     0   0   0     0   0   0     0   0   0    45  19  20    45  19  20    45  19  20    45  19  20    45  19  20    44  18  19    46  21  21    48  22  23    48  22  23    47  21  22    47  21  22    50  20  23    51  20  25    50  19  24    49  18  23    48  17  22    47  16  21    46  17  21    47  18  22    49  20  24    50  21  25    49  21  25    47  21  24    48  22  25    49  23  26     0   0   0     0   0   0     0   0   0     0   0   0     0   0   0     0   0   0     0   0   0     0   0   0     0   0   0     0   0   0  
   0   0   0     0   0   0    45  19  20    45  19  20    45  19  20    45  19  20    45  19  20    45  19  20    45  19  20    45  19  20    45  19  20    45  19  20    44  19  22     0   0   0     0   0   0     0   0   0     0   0   0     0   0   0     0   0   0     0   0   0     0   0   0     0   0   0     0   0   0     0   0   0     0   0   0     0   0   0     0   0   0    45  19  20    45  19  20    45  19  20    44  18  19    43  17  18    43  17  18    47  21  22    49  23  24    47  21  22    44  18  19    45  16  18    46  17  20    49  18  23    50  20  25    51  20  25    48  19  23    47  18  22    47  18  22    46  16  21    46  17  21    44  18  21    45  19  22    47  21  24    47  21  24    48  22  25     0   0   0     0   0   0     0   0   0     0   0   0     0   0   0     0   0   0     0   0   0     0   0   0     0   0   0     0   0   0  
   0   0   0     0   0   0    45  19  20    45  19  20    45  19  20    45  19  20    45  19  20    45  19  20    45  19  20    45  19  20    45  19  20    45  19  20    44  19  22     0   0   0     0   0   0     0   0   0     0   0   0     0   0   0     0   0   0     0   0   0     0   0   0     0   0   0     0   0   0     0   0   0     0   0   0     0   0   0     0   0   0    45  19  20    45  19  20    45  19  20    44  18  19    43  17  18    43  17  18    46  21  21    48  22  23    46  21  21    44  18  19    45  16  18    46  17  20    49  18  23    50  20  25    51  20  25    48  19  23    47  18  22    47  18  22    46  17  21    46  17  21    45  19  22    45  19  22    47  21  24    47  21  24    48  22  25     0   0   0     0   0   0     0   0   0     0   0   0     0   0   0     0   0   0     0   0   0     0   0   0     0   0   0     0   0   0  
   0   0   0     0   0   0    45  19  20    45  19  20    45  19  20    45  19  20    45  19  20    45  19  20    45  19  20    45  19  20    45  19  20    45  19  20    43  18  21     0   0   0     0   0   0     0   0   0     0   0   0     0   0   0     0   0   0     0   0   0     0   0   0     0   0   0     0   0   0     0   0   0     0   0   0     0   0   0     0   0   0    44  20  20    44  20  20    45  19  20    44  18  19    44  18  19    44  18  19    46  19  21    49  20  22    48  19  21    46  17  19    46  17  19    46  16  19    49  18  23    50  20  24    50  21  25    48  19  23    47  18  22    47  18  22    45  18  21    45  19  22    45  19  22    45  20  23    46  21  24    46  21  24    46  21  24     0   0   0     0   0   0     0   0   0     0   0   0     0   0   0     0   0   0     0   0   0     0   0   0     0   0   0     0   0   0  
   0   0   0     0   0   0    45  19  20    45  19  20    45  19  20    45  19  20    45  19  20    45  19  20    45  19  20    45  19  20    45  19  20    45  19  20    43  18  21     0   0   0     0   0   0     0   0   0     0   0   0     0   0   0     0   0   0     0   0   0     0   0   0     0   0   0     0   0   0     0   0   0     0   0   0     0   0   0     0   0   0    44  20  20    44  20  20    45  19  20    45  19  20    44  18  19    44  18  19    46  19  20    48  19  21    48  19  21    47  18  20    46  17  19    46  16  19    49  18  23    50  20  24    49  20  24    48  19  23    47  18  22    47  18  22    46  19  22    45  19  22    45  19  22    45  20  23    46  21  24    46  21  24    46  21  24     0   0   0     0   0   0     0   0   0     0   0   0     0   0   0     0   0   0     0   0   0     0   0   0     0   0   0     0   0   0  
