P3
57 50
255
 209 142 149   209 142 149   210 142 149   210 144 148   212 142 148   209 139 145   209 137 144   211 139 146   209 137 144   204 131 138   200 129 135   203 130 137   207 134 143   207 134 143     0   0   0     0   0   0     0   0   0     0   0   0     0   0   0     0   0   0     0   0   0     0   0   0     0   0   0     0   0   0     0   0   0     0   0   0     0   0   0     0   0   0     0   0   0     0   0   0     0   0   0     0   0   0     0   0   0   214 141 150   212 138 147   208 135 144   209 135 144   209 135 144   209 135 144   209 135 144   209 135 144   209 135 144   209 135 144   209 135 144   212 135 146   212 135 146   213 136 147   213 136 147   211 137 147   211 137 147     0   0   0     0   0   0     0   0   0     0   0   0     0   0   0     0   0   0     0   0   0  
 205 138 145   207 137 145   208 138 146   210 138 147   208 136 144   206 133 142   205 132 141   208 132 142   207 131 141   204 128 138   203 127 137   206 129 139   208 131 141   209 131 141     0   0   0     0   0   0     0   0   0     0   0   0     0   0   0     0   0   0     0   0   0     0   0   0     0   0   0     0   0   0     0   0   0     0   0   0     0   0   0     0   0   0     0   0   0     0   0   0     0   0   0     0   0   0     0   0   0   208 130 140   208 131 141   209 132 142   208 131 141   208 131 141   208 131 141   208 131 141   208 131 141   208 131 141   208 131 141   208 131 141   211 131 142   210 130 141   210 130 141   210 130 141   209 131 141   210 132 143     0   0   0     0   0   0     0   0   0     0   0   0     0   0   0     0   0   0     0   0   0  
 205 134 142   206 134 142   207 135 143   207 134 143   205 132 141   204 129 139   202 128 137   204 127 137   203 127 137   204 127 137   205 128 138   208 130 140   207 129 139   208 128 139     0   0   0     0   0   0     0   0   0     0   0   0     0   0   0     0   0   0     0   0   0     0   0   0     0   0   0     0   0   0     0   0   0     0   0   0     0   0   0     0   0   0     0   0   0     0   0   0     0   0   0     0   0   0     0   0   0   202 125 135   203 126 136   207 130 140   204 127 137   204 127 137   204 127 137   204 127 137   204 127 137   204 127 137   204 127 137   204 127 137   207 127 138   206 126 137   205 125 136   204 124 135   205 125 136   207 127 138     0   0   0     0   0   0     0   0   0     0   0   0     0   0   0     0   0   0     0   0   0  
 205 134 142   205 133 142   206 133 142   207 131 141   207 132 141   207 130 140   204 127 137   203 124 135   203 123 134   204 125 136   206 127 138   209 127 139   207 126 137   207 126 137     0   0   0     0   0   0     0   0   0     0   0   0     0   0   0     0   0   0     0   0   0     0   0   0     0   0   0     0   0   0     0   0   0     0   0   0     0   0   0     0   0   0     0   0   0     0   0   0     0   0   0     0   0   0     0   0   0   205 126 137   204 125 135   205 126 136   204 125 135   204 125 135   204 125 135   204 125 135   204 125 135   204 125 135   204 125 135   204 125 135   203 125 136   202 124 134   201 123 133   200 122 132   200 122 132   202 124 135     0   0   0     0   0   0     0   0   0     0   0   0     0   0   0     0   0   0     0   0   0  
 208 135 144   207 134 143   208 132 142   207 131 141   210 133 143   210 133 143   209 129 140   205 125 136   204 124 135   206 126 137   209 127 139   208 126 138   208 126 138   208 126 138     0   0   0     0   0   0     0   0   0     0   0   0     0   0   0     0   0   0     0   0   0     0   0   0     0   0   0     0   0   0     0   0   0     0   0   0     0   0   0     0   0   0     0   0   0     0   0   0     0   0   0     0   0   0     0   0   0   209 129 140   207 127 138   204 124 135   204 124 135   204 124 135   204 124 135   204 124 135   204 124 135   204 124 135   204 124 135   204 124 135   202 125 135   201 124 134   200 123 133   199 122 132   199 122 132   200 123 133     0   0   0     0   0   0     0   0   0     0   0   0     0   0   0     0   0   0     0   0   0  
 209 136 145   208 135 144   208 132 142   207 131 141   208 131 141   210 133 143   209 130 141   205 125 136   205 123 135   209 127 139   210 128 140   208 126 138   209 127 139   209 127 139     0   0   0     0   0   0     0   0   0     0   0   0     0   0   0     0   0   0     0   0   0     0   0   0     0   0   0     0   0   0     0   0   0     0   0   0     0   0   0     0   0   0     0   0   0     0   0   0     0   0   0     0   0   0     0   0   0   204 128 138   204 127 137   202 125 135   201 124 134   201 124 134   201 124 134   201 124 134   201 124 134   201 124 134   201 124 134   201 124 134   200 124 134   199 123 133   199 122 132   199 122 132   198 121 131   199 122 132     0   0   0     0   0   0     0   0   0     0   0   0     0   0   0     0   0   0     0   0   0  
 209 138 146   208 136 145   206 133 142   206 131 141   206 131 140   209 132 142   206 130 140   205 126 137   206 127 137   210 129 141   210 131 141   208 127 139   210 130 141   211 130 142     0   0   0     0   0   0     0   0   0     0   0   0     0   0   0     0   0   0     0   0   0     0   0   0     0   0   0     0   0   0     0   0   0     0   0   0     0   0   0     0   0   0     0   0   0     0   0   0     0   0   0     0   0   0     0   0   0   201 124 134   201 125 135   202 125 135   201 124 134   200 123 133   199 123 133   199 122 132   199 122 132   199 122 132   199 122 132   199 122 132   199 123 133   199 123 133   199 122 132   199 122 132   198 120 130   197 120 130     0   0   0     0   0   0     0   0   0     0   0   0     0   0   0     0   0   0     0   0   0  
 210 142 149   210 141 148   209 138 146   208 137 145   211 139 147   210 136 145   207 133 142   208 133 142   211 134 144   213 135 145   212 135 145   212 134 144   211 134 144   214 136 146     0   0   0     0   0   0     0   0   0     0   0   0     0   0   0     0   0   0     0   0   0     0   0   0     0   0   0     0   0   0     0   0   0     0   0   0     0   0   0     0   0   0     0   0   0     0   0   0     0   0   0     0   0   0     0   0   0   201 125 135   201 127 136   203 127 137   204 130 139   203 127 137   200 125 135   199 123 133   199 124 134   200 124 134   198 124 133   199 123 133   198 122 132   199 123 133   199 123 133   198 122 132   197 120 130   197 120 130     0   0   0     0   0   0     0   0   0     0   0   0     0   0   0     0   0   0     0   0   0  
 210 147 153   210 146 152   210 144 150   210 143 150   212 144 151   210 142 149   210 139 147   210 139 147   212 140 148   213 141 149   212 140 149   211 139 148   208 136 145   210 137 146     0   0   0     0   0   0     0   0   0     0   0   0     0   0   0     0   0   0     0   0   0     0   0   0     0   0   0     0   0   0     0   0   0     0   0   0     0   0   0     0   0   0     0   0   0     0   0   0     0   0   0     0   0   0     0   0   0   204 130 140   204 132 141   206 132 142   203 132 140   203 130 139   202 130 138   203 129 139   202 131 139   203 129 138   199 127 135   198 125 134   198 122 132   199 123 133   199 123 133   198 122 132   197 120 130   196 120 130     0   0   0     0   0   0     0   0   0     0   0   0     0   0   0     0   0   0     0   0   0  
 211 152 156   212 152 157   214 152 157   214 153 158   210 148 153   210 147 153   211 145 152   210 144 151   211 144 151   211 144 151   211 144 151   210 143 150   212 144 151   212 144 151     0   0   0     0   0   0     0   0   0     0   0   0     0   0   0     0   0   0     0   0   0     0   0   0     0   0   0     0   0   0     0   0   0     0   0   0     0   0   0     0   0   0     0   0   0     0   0   0     0   0   0     0   0   0     0   0   0   205 134 143   206 136 144   207 137 145   204 134 142   203 133 141   203 133 141   203 133 141   203 133 141   203 133 141   201 131 139   200 129 137   202 128 137   204 128 138   204 128 138   203 127 137   201 125 135   200 124 134     0   0   0     0   0   0     0   0   0     0   0   0     0   0   0     0   0   0     0   0   0  
 210 156 158   211 156 159   213 157 160   213 157 160   214 155 159   214 155 159   215 155 160   215 155 159   215 153 158   214 152 157   213 151 156   213 151 156   217 155 160   217 155 160   216 154 159   216 154 159   216 154 159   216 154 159   215 153 158   214 152 157   211 150 155   212 150 155   212 150 155   212 150 155   212 150 155   212 150 155   212 150 155   212 150 155   210 145 151   211 144 151   210 144 151   210 143 150   208 141 148   208 141 148   208 142 148   209 143 150   208 141 148   205 138 145   203 136 143   202 135 142   203 136 143   204 137 144   204 137 144   206 136 144   206 133 142   209 133 143   210 134 144   209 133 143   205 132 141   203 130 139     0   0   0     0   0   0     0   0   0     0   0   0     0   0   0     0   0   0     0   0   0  
 216 166 167   214 163 165   214 162 164   214 160 163   216 162 164   218 163 166   219 164 167   220 162 166   218 160 164   216 158 162   216 158 161   218 158 162   216 158 161   216 156 161   214 156 160   216 155 160   216 157 161   217 157 161   215 157 160   215 155 159   218 160 163   219 158 163   217 159 163   218 157 162   216 158 162   217 157 162   215 157 161   216 156 161   217 155 160   219 155 161   218 154 160   217 153 159   214 150 156   214 150 155   214 150 156   215 151 156   208 144 150   206 141 147   203 139 144   202 138 144   202 138 144   204 140 146   205 141 146   207 140 147   210 137 146   214 138 148   215 139 149   215 139 149   210 137 146   208 135 144   207 134 143   207 134 143   206 134 143   204 133 141   203 132 140   204 133 141   206 135 143  
 225 178 178   224 175 176   222 173 174   222 172 173   222 171 172   225 172 174   227 173 176   226 172 175   224 170 172   221 167 169   221 167 169   224 167 170   220 164 167   220 163 166   218 162 165   221 163 167   222 167 170   225 168 171   223 167 170   223 165 169   225 169 172   226 169 172   224 168 171   224 167 170   222 166 169   222 165 168   220 165 168   221 164 167   224 163 168   225 163 168   224 162 167   222 160 165   219 157 162   217 155 160   218 156 161   218 156 161   213 151 156   212 150 155   211 149 154   212 150 155   213 151 156   213 151 156   212 150 155   213 147 154   216 144 153   220 145 155   220 147 156   220 147 156   216 144 153   214 142 150   212 141 149   211 140 148   212 142 150   212 142 150   212 142 150   211 141 149   210 140 148  
 229 184 182   229 183 180   227 181 179   226 180 178   228 181 179   228 182 180   228 181 180   227 180 179   227 179 178   225 178 176   224 177 176   227 177 176   226 173 175   227 172 175   225 172 174   227 172 175   228 175 177   230 175 178   228 175 177   229 174 177   227 174 176   228 173 175   226 173 175   227 172 175   224 171 174   226 170 173   224 171 173   225 169 172   226 167 171   227 165 170   226 165 170   226 164 169   225 164 169   224 163 168   223 162 167   222 161 166   220 158 163   220 159 164   219 158 163   217 156 161   218 157 162   220 158 163   219 158 163   217 154 159   220 153 160   221 152 160   220 153 159   221 153 160   220 152 159   219 151 158   219 148 157   217 147 155   218 147 157   219 148 158   219 148 158   218 146 156   215 143 153  
   0   0   0     0   0   0     0   0   0     0   0   0     0   0   0     0   0   0     0   0   0   229 185 182   229 184 182   229 184 182   228 184 180   229 183 180   230 182 182   232 181 182   231 181 182   232 181 182   231 180 182   231 180 182   230 179 181   230 179 181   230 180 181   231 180 181   229 179 180   229 178 179   228 177 179   227 176 178   227 177 178   228 175 177   229 172 175   230 171 175   229 170 174   230 171 175   232 172 176   231 172 176   230 171 175   228 169 173   228 169 173   228 169 173   226 167 171   222 163 167   222 162 166   224 164 168   222 162 167   218 159 163   221 161 165   221 159 164   220 158 164   220 158 164   220 158 164   220 157 163   220 154 161   219 152 159   220 152 162   223 152 163   223 152 163   222 149 161   219 147 158  
   0   0   0     0   0   0     0   0   0     0   0   0     0   0   0     0   0   0     0   0   0   232 191 189   231 190 188   231 190 188   230 189 187   232 188 187   236 192 191   235 191 190   234 190 189   234 190 189   233 189 188   232 188 187   231 187 186   231 187 186   232 188 187   232 188 187   231 187 186   230 186 185   229 185 184   228 184 183   228 184 183   228 183 182   230 180 181   230 178 180   230 178 180   231 179 181   232 180 182   232 180 182   231 179 181   230 178 180   229 177 179   230 178 180   228 176 178   224 172 174   223 172 173   225 174 175   223 172 173   221 167 170   223 169 171   222 168 170   220 165 168   221 165 168   221 165 168   222 163 167   220 161 165   219 158 163   220 160 164   222 160 165   221 158 166   221 156 164   219 155 162  
   0   0   0     0   0   0     0   0   0     0   0   0     0   0   0     0   0   0     0   0   0   233 192 191   233 192 191   233 192 191   232 190 190   232 191 190   234 195 192   233 195 192   233 194 192   232 193 191   232 193 191   231 193 190   231 193 190   231 193 190   229 190 188   229 190 188   229 190 188   228 190 187   228 190 187   228 189 186   228 189 186   229 189 186   230 185 185   230 184 184   230 184 183   230 184 184   231 185 185   231 185 184   230 184 183   228 182 181   226 180 180   227 181 181   227 181 180   225 179 178   225 180 179   229 183 182   227 181 180   223 176 176   224 177 177   223 175 175   222 174 174   221 172 173   221 172 173   221 170 172   218 168 169   218 165 167   221 168 170   220 166 169   220 165 169   220 163 168   219 162 166  
   0   0   0     0   0   0     0   0   0     0   0   0     0   0   0     0   0   0     0   0   0   233 191 192   233 191 192   233 191 192   233 191 192   232 192 192   231 194 191   229 195 191   229 195 191   230 196 191   230 196 191   230 196 191   230 196 192   230 196 192   226 192 187   226 192 187   226 192 187   226 192 187   226 192 188   227 193 188   227 193 188   228 192 188   230 191 189   230 190 188   230 190 188   230 190 188   231 190 188   230 189 187   228 188 186   227 186 184   227 187 185   229 189 187   229 188 186   227 186 184   227 187 185   229 189 187   227 186 184   223 181 180   225 183 181   224 181 180   223 180 179   223 179 178   223 179 178   223 177 177   221 175 174   220 172 172   223 175 175   222 173 173   219 171 172   220 170 171   219 169 170  
   0   0   0     0   0   0     0   0   0     0   0   0     0   0   0     0   0   0     0   0   0   234 194 194   234 194 194   234 194 194   234 194 194   233 195 194   230 195 191   229 196 191   229 196 191   230 197 192   230 197 192   230 197 192   229 196 191   229 196 191   228 195 190   227 194 189   227 194 189   226 193 188   227 194 189   226 193 188   226 193 188   227 192 188   230 192 189   230 192 189   230 192 189   231 192 190   233 194 191   232 194 191   231 192 190   230 191 189   230 192 189   233 194 191   232 194 191   230 192 189   230 192 189   231 193 190   228 190 187   224 184 182   227 187 185   226 186 184   225 185 183   225 185 183   225 185 183   225 183 182   223 181 179   223 179 178   225 180 178   224 178 176   220 176 174   221 175 173   221 175 173  
   0   0   0     0   0   0     0   0   0     0   0   0     0   0   0     0   0   0     0   0   0   237 197 197   237 197 197   237 197 197   237 197 197   237 199 198   234 199 194   234 199 194   233 198 194   233 198 194   232 197 193   231 196 192   230 195 191   230 195 191   233 199 194   232 198 194   232 197 193   230 196 192   229 194 190   228 193 189   227 192 188   226 191 187   227 189 186   228 188 186   228 190 187   231 191 189   233 195 192   235 195 193   234 196 193   234 194 192   227 189 186   231 191 189   231 193 190   231 191 189   232 194 191   234 195 193   232 194 191   228 188 186   230 190 188   229 189 187   228 188 186   229 189 187   229 189 187   229 189 187   227 187 184   228 184 183   229 184 182   227 183 179   224 179 177   223 179 176   224 179 177  
   0   0   0     0   0   0     0   0   0     0   0   0     0   0   0     0   0   0     0   0   0   235 197 196   235 197 196   235 197 196   235 197 196   235 197 196   234 196 193   235 198 192   235 198 192   234 197 191   232 195 189   231 194 188   231 194 188   232 195 189   234 197 191   234 197 191   234 197 191   234 197 191   235 198 192   235 198 192   235 198 192   236 197 192   233 193 191   234 193 191   233 193 191   234 193 191   233 193 191   234 193 191   232 192 190   233 192 190   232 192 190   233 192 190   233 193 191   234 193 191   233 193 191   234 193 191   233 193 191   234 193 191   233 191 192   236 192 193   235 194 192   237 193 192   235 194 192   235 191 190   232 188 185   231 187 184   233 189 186   233 188 185   231 186 181   231 186 181   231 186 181  
   0   0   0     0   0   0     0   0   0     0   0   0     0   0   0     0   0   0     0   0   0   235 198 196   235 198 194   235 198 196   235 198 194   236 198 194   236 197 192   238 197 193   237 198 193   236 195 191   233 194 189   233 191 188   232 192 188   234 192 189   236 196 191   237 195 192   236 197 192   238 196 192   236 197 192   238 197 193   237 198 193   238 197 193   237 195 193   237 195 193   236 194 192   236 194 192   235 193 191   234 192 190   233 192 190   232 190 189   232 190 189   233 192 190   234 192 190   235 193 191   236 194 192   236 194 192   237 195 193   238 195 193   238 195 196   240 195 196   241 196 196   241 196 196   241 196 195   238 194 193   237 192 190   236 191 188   238 193 190   237 192 188   235 190 184   233 188 183   233 188 183  
   0   0   0     0   0   0     0   0   0     0   0   0     0   0   0     0   0   0     0   0   0   234 199 194   234 199 193   234 199 194   234 199 193   236 199 193   238 197 193   240 196 193   238 197 193   238 194 191   234 193 189   234 190 187   232 191 187   235 191 188   237 196 192   239 195 192   237 196 192   240 196 193   238 197 193   240 196 193   238 197 193   240 196 193   239 197 195   240 196 195   239 196 195   239 195 194   237 194 193   237 193 192   235 193 191   236 192 191   235 192 191   236 192 191   236 193 192   238 194 193   238 195 194   240 196 195   239 197 195   240 196 195   239 195 196   240 195 197   241 196 197   241 196 198   241 196 195   239 194 194   238 194 191   238 193 190   242 198 192   239 195 190   236 192 186   235 191 184   235 191 185  
   0   0   0     0   0   0     0   0   0     0   0   0     0   0   0     0   0   0     0   0   0   233 200 191   233 200 191   233 200 191   233 200 191   235 200 191   236 197 191   238 196 191   236 197 191   236 195 190   232 193 186   232 190 186   231 191 185   232 190 186   236 196 190   237 195 190   236 196 190   237 195 191   236 197 191   238 196 191   236 197 191   238 196 192   236 196 194   238 196 194   237 197 195   238 196 195   237 196 194   238 196 194   236 196 194   238 196 194   236 196 194   238 196 194   236 196 194   238 196 194   237 197 195   238 197 195   236 196 194   238 196 194   236 194 195   237 195 196   237 195 196   238 195 196   237 195 194   236 195 193   236 194 190   236 194 190   240 198 192   237 195 189   234 193 185   232 192 184   232 193 183  
   0   0   0     0   0   0     0   0   0     0   0   0     0   0   0     0   0   0     0   0   0   233 200 191   233 201 190   233 200 191   233 201 190   234 200 191   235 198 190   237 198 191   236 199 191   236 197 190   233 196 188   233 194 187   232 194 187   234 194 188   235 198 190   236 197 190   235 198 190   236 197 190   236 199 191   237 198 191   236 199 191   236 199 193   236 199 193   236 198 195   236 198 195   237 199 196   238 199 197   238 199 197   239 200 198   239 200 198   239 200 198   239 200 198   238 199 197   238 199 197   237 199 196   236 198 195   236 198 195   236 198 195   237 198 198   237 199 198   237 199 198   236 198 197   236 198 195   237 199 196   237 199 194   237 199 194   237 200 192   235 198 190   232 195 186   232 194 186   230 196 184  
   0   0   0     0   0   0     0   0   0     0   0   0     0   0   0     0   0   0     0   0   0   235 203 192   235 203 190   235 203 192   235 203 190   235 203 192   235 201 192   238 201 193   237 203 194   238 201 193   235 201 192   236 199 191   235 201 192   238 201 193   235 201 192   237 200 192   235 201 192   238 201 193   236 202 193   238 201 193   236 202 193   236 201 195   236 201 195   236 201 197   236 201 197   236 201 197   236 201 197   237 202 198   237 202 198   237 202 198   237 202 198   237 202 198   237 202 198   236 201 197   236 201 197   236 201 197   236 201 197   236 201 197   236 201 199   236 201 199   236 201 199   236 201 199   236 201 197   236 201 197     0   0   0     0   0   0     0   0   0     0   0   0     0   0   0     0   0   0     0   0   0  
   0   0   0     0   0   0     0   0   0     0   0   0     0   0   0     0   0   0     0   0   0   236 205 191   236 205 189   236 205 191   235 204 188   236 204 190   237 203 191   238 203 192   239 204 193   238 203 193   237 203 192   237 202 193   238 203 194   239 204 195   237 203 194   237 202 194   237 202 194   237 202 194   238 203 195   238 202 197   238 203 195   238 202 196   237 203 197   236 203 197   236 203 197   236 203 197   236 203 197   236 202 197   236 202 197   236 202 197   236 202 197   236 202 197   236 202 197   236 203 198   236 203 198   236 203 198   236 203 198   237 204 199   235 201 197   236 200 198   235 200 198   236 200 198   235 201 196   236 201 196     0   0   0     0   0   0     0   0   0     0   0   0     0   0   0     0   0   0     0   0   0  
   0   0   0     0   0   0     0   0   0     0   0   0     0   0   0     0   0   0     0   0   0   234 205 188   234 205 187   234 205 188   233 204 186   235 204 187   237 204 188   239 203 188   239 203 190   239 203 190   239 203 191   239 203 192   239 203 192   239 202 193   239 202 194   238 201 193   237 200 194   238 201 195   239 201 197   239 201 198   239 201 197   238 200 196   237 202 196   237 202 196   237 202 196   237 202 196   237 202 196   237 202 196   237 202 196   237 202 196   238 203 197   238 203 197   238 203 197   238 203 197   238 203 197   238 203 197   238 203 197   238 203 198   236 201 197   239 201 198   238 201 198   239 201 198   238 202 196   239 202 196     0   0   0     0   0   0     0   0   0     0   0   0     0   0   0     0   0   0     0   0   0  
   0   0   0     0   0   0     0   0   0     0   0   0     0   0   0     0   0   0     0   0   0   237 208 190   237 208 190   236 207 189   236 207 189   237 206 188   239 206 189   240 206 189   240 206 191   240 206 191   240 206 192   240 205 193   240 205 193   240 205 195   237 203 194   236 202 193   236 200 194   236 201 195   238 202 197   239 203 198   238 202 199   237 201 198   236 202 195   236 202 195   236 202 195   236 202 195   236 202 195   236 202 195   236 202 195   236 202 195   236 203 196   236 203 196   236 203 196   236 203 196   236 203 196   236 203 196   236 203 196   237 202 196   237 202 198   237 202 198   237 202 196   238 202 197   238 203 197   237 202 196     0   0   0     0   0   0     0   0   0     0   0   0     0   0   0     0   0   0     0   0   0  
   0   0   0     0   0   0     0   0   0     0   0   0     0   0   0     0   0   0     0   0   0   239 210 192   239 210 192   238 209 191   238 209 191   237 208 190   240 209 191   241 208 191   240 208 193   241 208 193   240 208 193   241 208 193   240 208 195   241 207 195   236 204 193   236 202 193   235 202 193   237 202 196   238 205 198   240 205 199   239 206 199   238 204 200   235 202 195   235 202 195   233 203 195   235 202 195   233 203 195   235 202 195   233 203 195   235 202 195   234 204 196   236 203 196   234 204 196   236 203 196   234 204 196   236 203 196   234 204 196   236 203 196   236 203 196   237 202 198   236 203 196   237 202 196   236 203 196   237 202 196     0   0   0     0   0   0     0   0   0     0   0   0     0   0   0     0   0   0     0   0   0  
   0   0   0     0   0   0     0   0   0     0   0   0     0   0   0     0   0   0     0   0   0   238 211 194   238 211 194   237 210 193   237 210 193   237 208 192   238 209 191   239 209 191   238 209 191   239 209 191   238 209 193   239 208 193   238 209 194   239 208 195   235 205 194   236 203 194   234 204 194   237 204 195   237 207 197   240 207 200   238 208 200   237 207 199   234 204 194   234 204 194   233 205 194   234 204 194   233 205 194   234 204 194   233 205 194   234 204 194   234 206 195   235 205 195   234 206 195   235 205 195   234 206 195   235 205 195   234 206 195   235 205 197   234 204 196   236 203 196   233 203 193   235 202 193   233 203 193   235 202 193     0   0   0     0   0   0     0   0   0     0   0   0     0   0   0     0   0   0     0   0   0  
   0   0   0     0   0   0     0   0   0     0   0   0     0   0   0     0   0   0     0   0   0   237 210 194   237 210 194   237 210 194   237 210 193   236 209 192   236 210 190   237 208 190   236 210 190   237 208 190   236 210 192   237 208 192   236 209 192   237 208 194   236 208 194   236 206 195   234 207 194   236 206 196   237 209 198   239 209 199   237 209 198   235 208 197   234 207 195   234 207 195   233 208 194   234 207 195   233 208 194   234 207 195   233 208 194   234 207 195   234 208 195   235 207 196   234 208 195   235 207 196   234 208 195   235 207 196   234 208 195   235 207 196   235 208 196   235 206 195   233 206 194   233 204 193   232 205 193   234 205 193     0   0   0     0   0   0     0   0   0     0   0   0     0   0   0     0   0   0     0   0   0  
   0   0   0     0   0   0     0   0   0     0   0   0     0   0   0     0   0   0     0   0   0   238 212 197   238 212 197   238 212 197   237 211 196   237 211 194   237 212 192   237 211 192   237 212 192   237 211 192   237 212 192   237 211 193   237 211 194   237 210 195   237 211 195   236 209 195   235 209 194   236 209 196   237 211 197   238 211 198   236 210 196   235 209 195   234 210 195   234 210 195   233 210 194   234 210 195   233 210 194   234 210 195   233 210 194   234 210 195   234 211 195   235 210 196   234 211 195   235 210 196   234 211 195   235 210 196   234 211 195   235 210 196   236 212 197   237 210 197   235 209 195   234 207 194   234 208 194   236 209 194     0   0   0     0   0   0     0   0   0     0   0   0     0   0   0     0   0   0     0   0   0  
   0   0   0     0   0   0     0   0   0     0   0   0     0   0   0     0   0   0     0   0   0   239 213 197   239 213 197   239 213 196   237 211 195   237 211 194   235 212 191   235 212 191   236 213 192   236 213 192   236 213 193   237 214 193   237 214 194   238 214 196   236 212 194   235 211 194   235 211 194   235 211 194   236 212 195   236 212 196   235 211 194   234 210 193   234 212 194   234 212 194   234 212 194   234 212 194   234 212 194   234 212 194   234 212 194   234 212 194   234 212 194   234 212 194   233 212 193   233 212 193   233 212 193   234 212 194   235 213 195   235 212 195   235 211 194   236 212 196   236 212 195   236 212 195   236 212 195   236 212 195     0   0   0     0   0   0     0   0   0     0   0   0     0   0   0     0   0   0     0   0   0  
   0   0   0     0   0   0     0   0   0     0   0   0     0   0   0     0   0   0     0   0   0   240 214 197   240 214 197   239 213 196   238 212 195   237 211 194   237 214 194   237 214 194   236 214 193   235 213 192   234 212 191   233 211 190   233 211 190   233 210 190   232 210 189   232 209 191   233 210 192   234 211 193   235 212 194   236 213 195   237 214 196   237 214 196   236 215 196   236 215 196   236 215 196   236 215 196   236 215 196   236 215 196   236 215 196   236 215 196   236 215 196   235 214 195   235 214 195   235 214 195   235 214 195   236 215 196   236 215 196   237 216 197   237 214 196   237 214 196   238 215 197   238 215 197   238 215 197   237 214 196     0   0   0     0   0   0     0   0   0     0   0   0     0   0   0     0   0   0     0   0   0  
   0   0   0     0   0   0     0   0   0     0   0   0     0   0   0     0   0   0     0   0   0   238 216 195   238 216 194   237 215 194   236 214 193   236 214 193   239 217 194   238 216 193   237 215 192   236 214 191   235 213 190   234 212 189   234 212 189   234 212 190   235 213 192   235 213 192   235 213 192   236 214 193   237 215 194   237 215 194   238 216 195   238 216 195   236 215 194   236 215 194   236 215 194   236 215 194   236 215 194   236 215 194   236 215 194   236 215 194   237 216 195   237 216 195   237 216 195   236 215 194   237 216 195   237 216 195   238 217 196   239 218 197   241 219 198   240 218 197   239 217 196   239 217 196   238 216 195   238 216 195     0   0   0     0   0   0     0   0   0     0   0   0     0   0   0     0   0   0     0   0   0  
 236 215 191   237 215 193   238 216 193   238 216 194   238 216 193   238 216 194   238 216 193   238 216 194   237 215 192   237 215 193   237 215 192   236 214 191   236 214 191   237 214 192   237 215 192   238 215 193   240 217 194   240 217 195   241 218 196   241 218 196   242 219 198   241 219 197   241 218 197   241 218 196   240 217 195   240 217 195   238 216 193   238 215 194   236 215 194   236 215 194   236 215 194   236 215 194   236 215 194   236 215 194   236 215 194   236 215 194   237 215 194   237 215 194   237 215 194   237 215 194   237 215 194   237 215 194   238 217 195   240 218 196   242 220 198   241 218 197   240 217 194   238 215 194   237 214 193   238 215 194     0   0   0     0   0   0     0   0   0     0   0   0     0   0   0     0   0   0     0   0   0  
 235 215 190   237 217 192   238 218 193   238 218 194   238 218 193   238 218 193   237 217 192   237 217 192   236 216 191   236 216 192   237 217 192   238 216 192   236 214 191   238 213 191   239 214 192   240 215 193   241 216 194   241 216 194   242 217 195   242 217 195   241 216 194   241 216 194   241 216 194   241 216 194   240 216 193   241 216 193   240 216 192   240 216 193   239 217 194   239 217 194   239 217 194   239 217 194   239 217 194   239 217 194   239 217 194   239 217 194   237 215 192   237 215 192   236 214 191   236 214 191   237 215 192   237 215 192   238 216 193   238 216 193   241 218 195   241 217 194   240 216 192   239 215 192   238 213 191   238 213 191     0   0   0     0   0   0     0   0   0     0   0   0     0   0   0     0   0   0     0   0   0  
 235 215 188   237 217 191   239 219 192   240 220 193   239 219 192   238 218 191   237 217 191   236 216 190   236 216 190   236 216 190   237 217 191   239 217 193   237 215 192   239 214 192   239 214 192   239 214 192   238 213 191   237 212 191   237 212 191   237 212 191   237 213 190   237 213 190   238 214 191   238 214 191   238 214 190   238 215 191   238 215 191   238 215 191   237 216 192   237 216 192   237 216 192   237 216 192   237 216 192   237 216 192   237 216 192   237 216 192   236 214 190   236 214 190   235 213 189   235 213 189   236 214 190   236 214 190   237 215 191   237 215 191   240 216 191   239 215 191   239 215 191   239 215 191   239 214 191   239 214 191     0   0   0     0   0   0     0   0   0     0   0   0     0   0   0     0   0   0     0   0   0  
 232 215 187   236 216 189   238 218 191   240 220 193   239 219 192   239 219 192   237 217 190   236 216 189   236 216 189   236 216 189   237 217 190   238 218 191   238 216 192   240 215 193   240 216 192   240 215 193   239 215 191   239 214 192   239 214 191   239 214 191   240 217 192   240 217 192   240 216 192   239 215 191   238 214 190   237 213 189   236 212 188   236 212 188   233 211 187   233 211 187   233 211 187   233 211 187   233 211 187   233 211 187   233 211 187   233 211 187   237 215 191   236 214 190   236 214 190   236 214 190   236 214 190   237 215 191   238 216 192   238 216 192   238 214 190   239 215 191   240 216 192   241 217 193   241 217 193   240 216 192     0   0   0     0   0   0     0   0   0     0   0   0     0   0   0     0   0   0     0   0   0  
 233 218 189   234 217 189   234 217 189   234 217 189   234 217 189   234 217 189   236 216 189   236 216 189   236 216 189   236 216 189   236 216 189   236 216 189   237 216 189   237 215 191   237 216 189   237 215 191   237 216 189   237 215 191   237 216 189   237 216 189   239 215 189   239 215 189   239 215 189   239 215 189   239 215 189   239 215 189   239 215 189   239 215 189   234 213 186   234 213 186   234 213 186   233 212 185   234 213 186   234 213 186   235 214 187   235 214 187   236 215 188   236 215 188   236 215 188   236 215 188   238 214 188   238 214 188   238 214 188   238 214 188   238 217 189   238 217 190   238 217 190   237 216 189   237 216 189   235 214 187     0   0   0     0   0   0     0   0   0     0   0   0     0   0   0     0   0   0     0   0   0  
 233 218 189   233 218 189   233 218 189   234 217 189   234 217 189   234 217 189   234 217 189   235 216 189   235 216 189   235 216 189   235 216 189   236 216 189   236 216 189   237 216 189   237 216 189   237 216 189   237 216 189   237 216 189   237 216 189   237 216 189   238 215 189   238 215 189   238 215 189   238 215 189   238 215 189   238 215 189   239 215 189   239 215 189   236 216 188   236 215 188   235 215 187   235 215 187   236 215 187   236 215 188   236 215 188   237 216 189   237 216 189   237 216 189   237 216 189   237 216 189   239 215 189   239 215 189   239 215 189   239 215 189   235 214 187   235 215 188   235 215 188   235 214 187   235 214 187   234 213 186     0   0   0     0   0   0     0   0   0     0   0   0     0   0   0     0   0   0     0   0   0  
 232 218 189   233 218 189   233 218 189   233 218 189   233 218 189   234 218 189   234 218 189   234 217 189   234 217 189   234 217 189   234 217 189   235 217 189   235 217 189   236 216 189   236 216 189   236 216 189   236 216 189   236 216 189   237 216 189   237 216 189   237 216 189   237 216 189   237 216 189   237 216 189   237 216 189   237 216 189   239 215 189   238 216 189   238 217 190   237 217 190   236 216 189   236 216 189   237 216 189   237 216 189   237 216 189   238 217 190   237 216 189   237 216 189   237 216 189   238 215 189   239 215 189   239 215 189   239 215 189   239 215 189   236 215 188   236 215 188   236 215 188   236 215 188   236 215 188   235 214 187     0   0   0     0   0   0     0   0   0     0   0   0     0   0   0     0   0   0     0   0   0  
 231 219 189   232 218 189   232 218 189   232 218 189   232 218 189   233 218 189   233 218 189   233 218 189   233 218 189   233 218 189   233 218 189   233 218 189   233 218 189   235 217 189   235 217 189   235 217 189   235 217 189   235 217 189   235 217 189   236 216 189   236 216 189   236 216 189   237 216 189   237 216 189   237 216 189   237 216 189   237 215 189   237 216 189   236 216 189   236 216 189   235 215 188   234 214 187   235 214 187   235 214 187   236 215 187   236 215 187   236 213 186   236 213 186   236 213 186   236 212 186   236 212 186   237 212 186   237 212 186   237 212 186   237 213 187   237 213 187   237 214 188   237 214 188   237 214 188   236 213 187     0   0   0     0   0   0     0   0   0     0   0   0     0   0   0     0   0   0     0   0   0  
 230 219 189   230 219 189   232 218 189   232 218 189   232 218 189   232 218 189   233 218 189   233 218 189   233 218 189   233 218 189   233 218 189   233 218 189   233 218 189   233 218 189   233 218 189   234 217 189   234 217 189   234 217 189   234 217 189   234 217 189   236 216 189   236 216 189   237 216 189   237 216 189   237 216 189   237 216 189   237 216 189   237 216 189   235 215 188   235 215 188   234 214 187   234 213 186   233 212 185   233 212 185   233 212 185   235 211 185   235 211 185   235 211 185   235 211 185   236 210 185   236 210 185   236 210 185   236 210 185   236 210 185   235 209 184   235 211 185   235 211 185   236 212 186   236 212 186   235 211 185     0   0   0     0   0   0     0   0   0     0   0   0     0   0   0     0   0   0     0   0   0  
 230 219 189   230 219 189   230 219 189   230 219 189   232 218 189   232 218 189   232 218 189   232 218 189   233 218 189   233 218 189   233 218 189   233 218 189   232 218 189   233 218 189   233 218 189   233 218 189   233 218 189   233 218 189   234 217 189   234 217 189   236 216 189   236 216 189   236 216 189   236 216 189   237 216 189   237 216 189   237 216 189   237 216 189   236 215 188   236 215 188   235 214 187   234 213 186   233 212 185   235 211 185   235 211 185   235 211 185   236 212 186   237 211 186   237 211 186   238 210 186   238 210 186   238 210 186   238 210 186   238 210 186   235 209 184   235 209 184   236 210 185   236 210 185   237 211 186   236 210 185     0   0   0     0   0   0     0   0   0     0   0   0     0   0   0     0   0   0     0   0   0  
 230 219 189   230 219 189   231 219 189   231 219 189   232 218 189   232 218 189   232 218 189   232 218 189   233 218 189   233 218 189   233 218 189   233 218 189   232 218 189   232 218 189   233 218 189   233 218 189   233 218 189   233 218 189   234 217 189   234 217 189   235 215 188   235 215 188   235 215 188   236 215 188   236 215 188   237 215 188   237 215 188   237 215 188   236 214 188   236 214 187   236 214 187   236 212 186   235 210 185   235 210 185   237 210 186   238 211 186   237 210 185   239 210 186   239 210 186   239 209 185   239 209 185   241 209 186   241 209 186   240 209 185   237 208 184   238 209 185   237 209 185   238 209 185   238 209 185   238 208 185     0   0   0     0   0   0     0   0   0     0   0   0     0   0   0     0   0   0     0   0   0  
 231 220 190   232 219 190   233 219 190   233 219 190   233 219 190   233 219 190   234 219 190   234 219 190   234 219 190   234 218 190   234 219 190   234 219 190   233 218 189   232 218 189   232 218 189   233 218 189   233 218 189   234 218 189   234 217 189   235 217 189   233 213 186   233 213 186   235 214 187   236 213 187   236 214 187   237 212 187   236 211 186   236 211 186   236 211 186   237 212 186   237 212 187   237 210 186   236 209 184   235 208 184   238 209 185   241 210 186   239 208 184   242 209 186   242 208 186   239 205 182   238 204 182   242 207 185   243 206 185   240 205 183   238 204 182   237 205 182   236 204 181   235 203 180   235 203 180   235 202 179     0   0   0     0   0   0     0   0   0     0   0   0     0   0   0     0   0   0     0   0   0  
 232 219 190   234 219 190   234 219 190   234 219 190   233 218 189   234 217 189   234 217 189   234 217 189   234 217 189   235 216 189   234 217 189   234 217 189   232 217 188   232 217 188   232 217 188   232 217 188   232 217 188   233 216 188   233 216 188   235 215 188     0   0   0     0   0   0     0   0   0     0   0   0     0   0   0     0   0   0     0   0   0     0   0   0     0   0   0     0   0   0     0   0   0     0   0   0     0   0   0     0   0   0     0   0   0   237 203 180   237 202 180   241 203 182   240 202 181   237 199 178   237 198 177   240 201 180   241 200 180   238 199 178   236 198 177   235 199 177   233 197 175   233 197 175   233 196 174   233 196 175     0   0   0     0   0   0     0   0   0     0   0   0     0   0   0     0   0   0     0   0   0  
 232 217 188   233 216 188   232 217 188   233 216 188   233 216 188   233 216 188   233 216 188   235 215 188   235 215 188   235 215 188   235 215 188   235 215 188   233 216 188   232 217 188   232 217 188   233 216 188   233 216 188   235 215 188   235 215 188   236 215 188     0   0   0     0   0   0     0   0   0     0   0   0     0   0   0     0   0   0     0   0   0     0   0   0     0   0   0     0   0   0     0   0   0     0   0   0     0   0   0     0   0   0     0   0   0   236 198 177   235 197 176   239 198 178   239 196 177   236 193 174   237 192 173   239 194 175   240 193 175   237 192 173   234 193 173   233 193 172   231 190 170   230 190 169   231 188 169   232 190 170     0   0   0     0   0   0     0   0   0     0   0   0     0   0   0     0   0   0     0   0   0  
