P3
57 62
255
   0   0   0     0   0   0     0   0   0     0   0   0     0   0   0     0   0   0     0   0   0     0   0   0     0   0   0     0   0   0     0   0   0     0   0   0     0   0   0     0   0   0     0   0   0     0   0   0     0   0   0     0   0   0     0   0   0     0   0   0     0   0   0     0   0   0     0   0   0     0   0   0    27   8  14    28   9  15    28   9  15    28   9  15    28   9  15    28   9  15    28   9  15    28   9  15    28   9  15    28   9  15    28   9  15    28   9  15    28   9  15    28   9  15    28   9  15    28   9  15    28   9  15    28   9  15    28   9  15     0   0   0     0   0   0     0   0   0     0   0   0     0   0   0     0   0   0     0   0   0     0   0   0     0   0   0     0   0   0     0   0   0     0   0   0     0   0   0     0   0   0  
   0   0   0     0   0   0     0   0   0     0   0   0     0   0   0     0   0   0     0   0   0     0   0   0     0   0   0     0   0   0     0   0   0     0   0   0     0   0   0     0   0   0     0   0   0     0   0   0     0   0   0     0   0   0     0   0   0     0   0   0     0   0   0     0   0   0     0   0   0     0   0   0    27   8  14    28   9  15    28   9  15    28   9  15    28   9  15    28   9  15    28   9  15    28   9  15    28   9  15    28   9  15    28   9  15    28   9  15    28   9  15    28   9  15    28   9  15    28   9  15    28   9  15    28   9  15    28   9  15     0   0   0     0   0   0     0   0   0     0   0   0     0   0   0     0   0   0     0   0   0     0   0   0     0   0   0     0   0   0     0   0   0     0   0   0     0   0   0     0   0   0  
   0   0   0     0   0   0     0   0   0     0   0   0     0   0   0     0   0   0     0   0   0     0   0   0     0   0   0     0   0   0     0   0   0     0   0   0     0   0   0     0   0   0     0   0   0     0   0   0     0   0   0     0   0   0     0   0   0     0   0   0     0   0   0     0   0   0     0   0   0     0   0   0    27   8  14    28   9  15    28   9  15    28   9  15    28   9  15    28   9  15    28   9  15    28   9  15    28   9  15    28   9  15    28   9  15    28   9  15    28   9  15    28   9  15    28   9  15    28   9  15    28   9  15    28   9  15    28   9  15     0   0   0     0   0   0     0   0   0     0   0   0     0   0   0     0   0   0     0   0   0     0   0   0     0   0   0     0   0   0     0   0   0     0   0   0     0   0   0     0   0   0  
   0   0   0     0   0   0     0   0   0     0   0   0     0   0   0     0   0   0     0   0   0     0   0   0     0   0   0     0   0   0     0   0   0     0   0   0     0   0   0     0   0   0     0   0   0     0   0   0     0   0   0     0   0   0     0   0   0     0   0   0     0   0   0     0   0   0     0   0   0     0   0   0    28   9  15    27   8  14    27   8  14    28   9  15    29  10  15    27   8  14    28   9  15    28   9  15    29  10  15    29  10  15    29  10  15    29  10  15    28   9  15    27   8  14    28   9  15    28   9  15    27   8  14    26   7  13    27   8  14     0   0   0     0   0   0     0   0   0     0   0   0     0   0   0     0   0   0     0   0   0     0   0   0     0   0   0     0   0   0     0   0   0     0   0   0     0   0   0     0   0   0  
   0   0   0     0   0   0     0   0   0     0   0   0     0   0   0     0   0   0     0   0   0     0   0   0     0   0   0     0   0   0     0   0   0     0   0   0     0   0   0     0   0   0     0   0   0     0   0   0     0   0   0     0   0   0     0   0   0     0   0   0     0   0   0     0   0   0     0   0   0     0   0   0    27   8  14    26   7  13    27   8  14    28   9  15    28   9  15    28   9  15    28   9  15    29  10  16    29  10  16    29  10  16    29  10  16    29  10  16    28   9  15    27   8  14    28   9  15    28   9  15    28   9  15    27   8  14    27   8  14     0   0   0     0   0   0     0   0   0     0   0   0     0   0   0     0   0   0     0   0   0     0   0   0     0   0   0     0   0   0     0   0   0     0   0   0     0   0   0     0   0   0  
   0   0   0     0   0   0     0   0   0     0   0   0     0   0   0     0   0   0     0   0   0     0   0   0     0   0   0     0   0   0     0   0   0     0   0   0     0   0   0     0   0   0     0   0   0     0   0   0     0   0   0     0   0   0     0   0   0     0   0   0     0   0   0     0   0   0     0   0   0     0   0   0    27   8  14    26   7  13    27   8  14    27   8  14    28   9  15    28   9  15    28   9  15    29  10  16    29  10  16    29  10  16    29  10  16    28   9  15    28   9  15    27   8  14    28   9  15    29  10  16    28   9  15    27   8  14    27   8  14     0   0   0     0   0   0     0   0   0     0   0   0     0   0   0     0   0   0     0   0   0     0   0   0     0   0   0     0   0   0     0   0   0     0   0   0     0   0   0     0   0   0  
   0   0   0     0   0   0     0   0   0     0   0   0     0   0   0     0   0   0     0   0   0     0   0   0     0   0   0     0   0   0     0   0   0     0   0   0     0   0   0     0   0   0     0   0   0     0   0   0     0   0   0     0   0   0     0   0   0     0   0   0     0   0   0     0   0   0     0   0   0     0   0   0    29  10  16    28  10  16    29  10  16    30  11  16    30  11  16    29  10  16    29  10  16    29  10  16    28   9  15    28   9  15    28   9  15    28   9  15    28   9  15    27   8  14    29  10  16    30  11  17    29  10  16    28   9  15    27   8  14     0   0   0     0   0   0     0   0   0     0   0   0     0   0   0     0   0   0     0   0   0     0   0   0     0   0   0     0   0   0     0   0   0     0   0   0     0   0   0     0   0   0  
   0   0   0     0   0   0     0   0   0     0   0   0     0   0   0     0   0   0     0   0   0     0   0   0     0   0   0     0   0   0     0   0   0     0   0   0     0   0   0     0   0   0     0   0   0     0   0   0     0   0   0     0   0   0     0   0   0     0   0   0     0   0   0     0   0   0     0   0   0     0   0   0    32  13  19    31  12  18    32  13  19    32  13  19    32  13  19    31  12  18    30  11  17    29  10  16    28   9  15    27   8  14    28   9  15    28   9  15    29  10  16    28   9  15    30  11  17    31  12  18    31  12  18    30  11  17    28   9  15     0   0   0     0   0   0     0   0   0     0   0   0     0   0   0     0   0   0     0   0   0     0   0   0     0   0   0     0   0   0     0   0   0     0   0   0     0   0   0     0   0   0  
   0   0   0     0   0   0     0   0   0     0   0   0     0   0   0     0   0   0     0   0   0     0   0   0     0   0   0     0   0   0     0   0   0     0   0   0     0   0   0     0   0   0     0   0   0     0   0   0     0   0   0     0   0   0     0   0   0     0   0   0     0   0   0     0   0   0     0   0   0     0   0   0    32  13  19    32  13  19    32  13  19    32  13  19    32  13  19    32  13  19    30  12  18    29  10  16    27   8  14    26   7  13    27   8  14    28   9  15    29  10  16    28   9  15    30  11  17    32  13  19    32  13  19    30  11  17    28   9  15     0   0   0     0   0   0     0   0   0     0   0   0     0   0   0     0   0   0     0   0   0     0   0   0     0   0   0     0   0   0     0   0   0     0   0   0     0   0   0     0   0   0  
   0   0   0     0   0   0     0   0   0     0   0   0     0   0   0     0   0   0     0   0   0     0   0   0     0   0   0     0   0   0     0   0   0     0   0   0     0   0   0     0   0   0     0   0   0     0   0   0     0   0   0     0   0   0     0   0   0     0   0   0     0   0   0     0   0   0     0   0   0     0   0   0    31  12  18    32  13  19    31  12  18    31  12  18    31  12  18    32  13  19    31  12  18    29  10  16    27   8  14    26   7  13    27   8  14    28   9  15    29  10  16    28   9  15    30  11  17    32  13  19    32  13  19    30  11  17    28   9  15     0   0   0     0   0   0     0   0   0     0   0   0     0   0   0     0   0   0     0   0   0     0   0   0     0   0   0     0   0   0     0   0   0     0   0   0     0   0   0     0   0   0  
   0   0   0     0   0   0     0   0   0     0   0   0     0   0   0     0   0   0     0   0   0    31  11  20    31  11  20    31  11  20    31  11  20    32  12  21    33  13  22    33  16  22    32  15  21    30  13  19    28  11  17    27  10  16    27  10  16    29  12  18    29  12  18    32  13  19    32  13  19    32  13  19    32  13  19    32  13  19    32  13  19    32  13  19    32  13  19    32  13  19    32  13  19    32  13  19    32  13  19    32  13  19    32  13  19    32  13  19    32  13  19    31  12  18    31  12  18    31  12  18    30  11  17    29  10  16    28   9  15    27   8  14    26   7  13    28   9  15    28   9  15    28   9  15    28   9  15    28   9  15    28   9  15    28   9  15    28   9  15    29  10  16    29  10  16    29  10  16    28   9  15  
   0   0   0     0   0   0     0   0   0     0   0   0     0   0   0     0   0   0     0   0   0    31  11  19    31  11  19    31  11  19    31  11  19    32  12  20    33  13  21    34  17  23    33  16  22    31  14  20    29  12  18    28  11  17    29  12  18    31  13  19    31  14  20    32  13  19    32  13  19    32  13  19    32  13  19    32  13  19    32  13  19    32  13  19    32  13  19    32  13  19    32  13  19    32  13  19    32  13  19    32  13  19    32  13  19    32  13  19    32  13  19    31  12  18    31  12  18    31  12  18    30  11  17    29  10  16    28   9  15    27   8  14    26   7  13    28   9  15    28   9  15    28   9  15    28   9  15    28   9  15    28   9  15    28   9  15    28   9  15    28   9  15    28   9  15    28   9  15    28   9  15  
   0   0   0     0   0   0     0   0   0     0   0   0     0   0   0     0   0   0     0   0   0    32  13  19    31  12  18    31  12  18    32  13  19    32  13  19    32  13  19    35  17  23    33  16  22    31  14  20    30  13  19    30  13  19    30  13  19    33  14  20    33  14  20    32  13  19    32  13  19    32  13  19    32  13  19    32  13  19    32  13  19    32  13  19    32  13  19    32  13  19    32  13  19    32  13  19    32  13  19    32  13  19    32  13  19    32  13  19    32  13  19    31  12  18    32  13  19    32  13  19    31  12  18    31  12  18    30  11  17    29  10  16    28   9  15    29  10  16    29  10  16    29  10  16    29  10  16    29  10  16    29  10  16    29  10  16    29  10  16    28   9  15    28   9  15    28   9  15    28   9  15  
   0   0   0     0   0   0     0   0   0     0   0   0     0   0   0     0   0   0     0   0   0    33  13  20    32  12  19    32  12  19    33  12  19    33  12  19    32  13  19    33  14  20    32  13  20    32  13  19    30  12  18    30  12  18    30  12  18    31  12  18    32  13  19    32  13  19    32  13  19    32  13  19    32  13  19    32  13  19    32  13  19    32  13  19    32  13  19    32  13  19    32  13  19    32  13  19    32  13  19    32  13  19    32  13  19    32  13  19    32  13  19    32  13  19    32  13  19    32  13  19    32  13  19    32  13  19    30  12  18    30  10  17    29  10  15    30  11  17    30  11  17    30  11  17    30  11  17    30  11  17    30  11  17    30  11  17    30  11  17    30  11  17    30  11  17    29  10  16    29  10  15  
   0   0   0     0   0   0     0   0   0     0   0   0     0   0   0     0   0   0     0   0   0    34  13  20    33  12  19    33  12  19    33  12  19    33  12  19    33  12  19    32  11  18    31  12  18    31  12  18    31  12  18    31  12  18    31  12  18    31  12  18    31  12  18    32  13  19    32  13  19    32  13  19    32  13  19    32  13  19    32  13  19    32  13  19    32  13  19    32  13  19    32  13  19    32  13  19    32  13  19    32  13  19    32  13  19    32  13  19    32  13  19    32  13  19    32  13  19    32  13  19    33  14  20    32  13  19    32  13  19    31  12  18    30  11  17    33  14  20    33  14  20    33  14  20    33  14  20    33  14  20    33  14  20    33  14  20    33  14  20    33  14  20    32  13  19    31  12  18    30  11  17  
   0   0   0     0   0   0     0   0   0     0   0   0     0   0   0     0   0   0     0   0   0    36  13  19    35  12  18    34  11  17    34  11  17    34  11  17    33  12  17    32  11  18    33  12  19    33  12  19    33  12  19    34  13  20    33  12  19    33  12  19    33  12  19    32  13  19    32  13  19    32  13  19    32  13  19    32  13  19    32  13  19    32  13  19    32  13  19    32  13  19    32  13  19    32  13  19    32  13  19    32  13  19    32  13  19    32  13  19    32  13  19    32  13  19    32  13  19    33  14  20    33  14  20    33  14  20    32  13  19    32  13  19    31  12  18    32  13  19    32  13  19    32  13  19    32  13  19    32  13  19    32  13  19    32  13  19    32  13  19    32  13  19    32  13  19    31  12  18    30  11  17  
   0   0   0     0   0   0     0   0   0     0   0   0     0   0   0     0   0   0     0   0   0    37  14  19    36  13  18    36  12  17    36  12  17    36  12  18    35  12  18    35  12  20    34  12  20    35  13  21    36  14  21    36  14  21    36  14  21    35  13  21    35  13  21    33  13  20    33  13  20    33  14  20    33  14  20    33  14  20    33  14  20    32  13  20    32  13  20    32  13  19    32  13  19    32  13  19    32  13  19    32  13  19    32  13  19    32  13  19    32  13  19    32  13  19    32  13  19    33  14  20    33  14  20    33  14  20    33  14  20    32  13  19    32  13  19    32  13  19    32  13  19    32  13  19    32  13  19    32  13  19    32  13  19    32  13  19    32  13  19    30  12  18    30  11  17    30  11  17    30  11  17  
   0   0   0     0   0   0     0   0   0     0   0   0     0   0   0     0   0   0     0   0   0    40  15  19    40  15  19    39  14  18    40  15  19    40  15  19    39  15  20    38  14  21    37  14  22    37  14  22    37  14  22    37  14  22    37  14  22    37  15  22    36  15  22    36  15  22    36  15  22    36  17  23    36  17  23    36  17  23    35  16  22    33  16  22    32  15  21    33  14  20    33  14  20    32  13  19    32  13  19    32  13  19    32  13  19    33  14  20    33  14  20    32  13  19    32  13  19    32  13  19    32  13  19    32  13  19    32  13  19    32  13  19    32  13  19    32  13  19    32  13  19    32  13  19    32  13  19    32  13  19    32  13  19    32  13  19    32  13  19    31  12  18    32  13  19    32  13  19    31  12  18  
   0   0   0     0   0   0     0   0   0     0   0   0     0   0   0     0   0   0     0   0   0    40  14  17    40  14  17    39  14  17    40  14  17    40  14  17    40  13  18    40  13  20    38  13  22    38  13  22    38  13  22    38  13  22    37  14  22    37  14  22    37  14  22    36  15  22    36  15  22    36  17  23    36  17  23    35  17  23    33  16  22    32  15  21    32  15  21    33  14  20    33  14  20    32  13  19    32  13  19    32  13  19    32  13  19    33  14  20    33  14  20    32  13  19    32  13  19    32  13  19    32  13  19    32  13  19    32  13  19    32  13  19    32  13  19    32  13  19    32  13  19    32  13  19    32  13  19    32  13  19    32  13  19    32  13  19    32  13  19    32  13  19    32  13  19    31  12  18    31  12  18  
   0   0   0     0   0   0     0   0   0     0   0   0     0   0   0     0   0   0     0   0   0    43  17  19    42  16  19    42  16  19    42  16  19    42  16  19    42  15  20    40  13  20    40  13  22    40  13  22    39  13  22    39  13  22    39  13  22    37  14  22    37  14  22    36  15  22    36  15  22    35  16  22    35  16  22    33  16  22    32  15  21    31  14  20    30  13  19    33  14  20    33  14  20    32  13  19    32  13  19    32  13  19    32  13  19    33  14  20    33  14  20    32  13  19    32  13  19    32  13  19    32  13  19    32  13  19    32  13  19    32  13  19    32  13  19    32  13  19    32  13  19    32  13  19    32  13  19    32  13  19    32  13  19    32  13  19    32  13  19    28   9  15    29  10  16    29  10  16    30  11  17  
   0   0   0     0   0   0     0   0   0     0   0   0     0   0   0     0   0   0     0   0   0    43  17  18    42  16  17    42  16  17    42  16  17    42  16  17    42  16  19    42  12  20    40  13  22    40  13  22    40  13  22    39  13  22    39  13  22    37  14  22    37  14  22    35  14  21    35  14  21    34  15  21    34  15  21    31  14  20    30  13  19    29  12  18    29  12  18    33  14  20    33  14  20    32  13  19    32  13  19    32  13  19    32  13  19    33  14  20    33  14  20    32  13  19    32  13  19    32  13  19    32  13  19    32  13  19    32  13  19    32  13  19    32  13  19    32  13  19    32  13  19    32  13  19    32  13  19    32  13  19    32  13  19    32  13  19    32  13  19    25   6  12    25   6  12    26   7  13    28   9  15  
   0   0   0     0   0   0     0   0   0     0   0   0     0   0   0     0   0   0     0   0   0    43  16  17    41  15  16    41  14  15    41  14  15    41  14  15    41  14  17    42  12  20    42  12  22    40  13  22    40  13  22    39  13  22    39  13  22    37  14  22    37  14  22    36  15  21    36  15  22    35  16  22    35  16  21    31  15  21    31  13  20    29  12  18    28  11  17    33  14  20    33  14  20    32  13  19    32  13  19    32  13  19    32  13  19    33  14  20    33  14  20    32  13  19    32  13  19    32  13  19    32  13  19    32  13  19    32  13  19    32  13  19    32  13  19    32  13  19    32  13  19    32  13  19    32  13  19    32  13  19    32  13  19    32  13  19    32  13  19    25   6  12    25   6  12    26   7  13    27   8  15  
   0   0   0     0   0   0     0   0   0     0   0   0     0   0   0     0   0   0     0   0   0    46  17  19    44  15  17    43  14  16    43  14  16    43  14  16    43  14  18    42  13  19    42  12  21    40  13  21    40  13  21    40  13  21    40  13  21    38  14  22    37  14  22    39  17  24    39  17  24    38  18  24    38  18  24    35  17  23    34  16  22    32  14  21    32  14  20    33  14  20    33  14  20    32  13  19    32  13  19    32  13  19    32  13  19    33  14  20    33  14  20    32  13  19    32  13  19    32  13  19    32  13  19    32  13  19    32  13  19    32  13  19    32  13  19    32  13  19    32  13  19    32  13  19    32  13  19    32  13  19    32  13  19    32  13  19    32  13  19    29  10  16    30  11  17    30  11  17    30  11  17  
   0   0   0     0   0   0     0   0   0     0   0   0     0   0   0     0   0   0     0   0   0    46  19  20    45  18  19    44  17  18    43  16  18    43  16  18    42  15  17    39  12  16    39  12  16    38  12  16    39  13  17    40  13  18    40  14  19    41  14  22    40  16  23    43  18  26    40  16  24    38  14  23    37  13  23    37  13  22    37  13  23    37  12  24    35  13  22    34  13  20    34  13  20    33  12  19    32  11  18    32  11  18    31  11  17    30  11  17    30  11  17    31  12  18    31  12  18    30  12  18    30  12  18    30  12  18    31  13  19    31  13  19    31  13  19    32  13  19    32  13  19    32  13  19    32  13  19    32  13  19    32  13  19    32  13  19    32  13  19    32  13  19    32  13  19    32  13  19    31  12  18  
  45  19  20    45  19  20    45  19  20    45  19  20    45  19  20    45  19  20    45  19  20    45  19  20    45  19  20    45  19  20    44  18  19    43  17  18    43  17  18    40  14  15    40  14  15    40  14  15    40  14  15    40  14  17    41  14  19    42  15  22    43  16  23    46  19  28    44  17  26    41  13  25    39  11  23    39  12  25    40  12  26    40  12  26    39  13  24    36  13  23    34  13  20    34  13  20    33  12  19    33  12  19    32  11  18    30  11  17    30  11  17    31  12  18    31  12  18    29  12  18    29  12  18    30  13  19    30  13  19    30  13  19    30  13  19    32  13  19    32  13  19    32  13  19    32  13  19    32  13  19    32  13  19    32  13  19    32  13  19    32  13  19    32  13  19    32  13  19    32  13  19  
  45  19  20    45  19  20    45  19  20    45  19  20    45  19  20    45  19  20    45  19  20    46  20  21    46  20  21    45  19  20    45  19  20    44  18  19    44  18  19    42  16  17    42  16  17    42  16  19    41  15  18    41  14  19    42  15  20    42  15  22    43  16  23    47  20  29    44  17  26    42  14  26    41  13  25    41  13  27    42  14  28    41  13  27    40  14  25    37  14  24    36  13  21    35  14  21    34  13  20    34  13  20    33  12  19    33  12  19    33  12  19    32  13  19    32  13  19    32  13  19    32  13  19    30  13  19    30  13  19    30  13  19    30  13  19    32  13  19    32  13  19    32  13  19    32  13  19    32  13  19    32  13  19    32  13  19    32  13  19    32  13  19    32  13  19    32  13  19    32  13  19  
  45  19  20    45  19  20    45  19  20    45  19  20    45  19  20    45  19  20    45  19  20    45  20  20    45  20  20    46  20  21    45  19  20    45  19  20    44  18  19    45  19  21    44  18  20    43  17  20    43  17  20    42  15  20    42  15  20    43  16  23    43  16  23    45  19  28    44  17  25    42  14  25    41  13  24    41  13  26    42  14  27    40  13  26    39  13  24    39  13  22    37  14  22    36  15  22    36  15  22    36  14  21    36  14  21    35  14  21    35  13  21    32  13  19    32  13  19    32  13  19    32  13  19    31  13  19    31  13  19    31  13  19    30  13  19    32  13  19    32  13  19    32  13  19    32  13  19    32  13  19    32  13  19    32  13  19    32  13  19    32  13  19    32  13  19    32  13  19    33  14  20  
  45  19  20    45  19  20    45  19  20    45  19  20    45  19  20    44  18  19    44  18  19    45  19  20    45  19  20    46  20  21    45  19  20    45  19  20    44  18  19    46  20  23    45  19  22    44  18  21    43  17  20    43  16  21    43  16  21    43  16  23    43  16  23    45  18  27    43  16  25    41  14  23    41  14  23    41  13  25    41  13  25    40  12  24    38  11  23    39  13  22    37  14  22    37  14  22    37  14  22    37  14  22    37  14  22    37  15  22    36  15  22    35  14  21    35  14  21    34  14  21    33  14  20    32  13  19    32  13  19    32  13  19    31  12  18    32  13  19    32  13  19    32  13  19    32  13  19    32  13  19    32  13  19    32  13  19    32  13  19    32  13  19    32  13  19    32  13  19    32  13  19  
  45  19  20    45  19  20    45  19  20    45  19  20    45  19  20    41  16  16    42  16  17    43  17  18    43  17  18    44  18  19    44  18  19    43  17  18    43  17  18    45  19  22    44  17  22    44  17  22    43  16  20    43  16  21    43  16  21    43  16  23    44  17  24    45  18  25    44  17  24    42  15  24    42  15  24    42  15  25    42  14  24    40  13  25    39  10  23    38  12  21    38  13  22    38  13  22    38  13  22    38  13  22    37  14  22    37  14  22    37  14  22    36  14  22    35  14  21    35  14  21    34  13  20    33  13  20    33  12  19    33  12  19    32  11  18    32  13  19    32  13  19    32  13  19    32  13  19    32  13  19    32  13  19    32  13  19    32  13  19    33  14  20    32  13  19    32  13  19    31  12  18  
  45  19  20    45  19  20    45  19  20    45  19  20    45  19  20    40  14  15    41  15  16    42  16  17    43  17  18    43  17  18    43  17  18    43  17  18    43  17  18    44  17  22    44  17  22    43  16  21    43  16  21    43  16  21    43  16  21    43  16  23    44  17  24    46  19  26    45  18  25    44  17  26    44  17  26    44  17  26    44  17  26    42  14  26    40  12  24    38  12  21    38  12  21    38  12  21    38  12  21    39  13  22    39  13  22    39  13  22    37  14  22    37  14  22    37  14  22    36  13  21    35  14  21    34  13  20    33  12  19    33  12  19    32  11  18    32  13  19    32  13  19    32  13  19    32  13  19    32  13  19    32  13  19    32  13  19    32  13  19    33  14  20    32  13  19    31  12  18    30  11  17  
  45  19  20    45  19  20    45  19  20    45  19  20    45  19  20    39  13  14    40  14  15    41  15  16    43  17  18    43  17  18    44  18  19    44  18  19    44  18  19    42  15  20    43  16  21    44  17  22    45  18  23    46  19  26    45  18  25    45  18  25    44  17  24    44  17  24    44  17  24    44  17  26    44  17  26    43  16  25    42  15  24    40  13  22    39  12  21    39  12  21    39  12  21    40  13  22    41  14  23    41  14  23    40  14  23    39  13  22    39  13  22    40  14  23    37  14  22    37  14  22    36  13  21    35  12  20    35  12  20    34  11  19    33  12  19    32  13  19    32  13  19    32  13  19    32  13  19    32  13  19    33  14  20    33  14  20    33  14  20    32  13  19    31  12  18    31  12  18    30  11  17  
  45  19  20    45  19  20    45  19  20    45  19  20    45  19  20    41  15  16    41  15  16    42  16  17    43  17  18    44  18  19    44  18  19    44  18  19    44  18  21    43  16  21    43  16  22    44  17  22    43  16  22    43  16  23    43  16  23    43  16  23    43  15  23    43  16  23    44  17  24    43  16  25    43  15  24    43  15  24    42  15  23    41  14  23    41  14  22    42  15  24    42  14  23    42  14  23    41  13  23    40  13  22    40  13  22    40  13  22    40  13  22    39  13  22    39  13  22    39  13  22    36  13  21    36  12  20    36  12  20    35  11  19    34  11  19    33  12  19    32  13  19    32  13  19    32  13  19    32  13  19    32  13  19    32  13  19    32  13  19    32  13  19    31  12  18    31  12  18    30  11  17  
  45  19  20    45  19  20    45  19  20    45  19  20    45  19  20    43  17  18    43  17  18    44  18  19    44  18  19    44  18  19    44  18  19    45  19  20    45  19  22    45  18  23    44  17  24    43  16  23    42  15  22    41  14  21    41  14  21    41  14  21    42  15  22    43  16  23    43  16  23    42  15  22    41  14  21    42  15  22    42  15  22    43  16  23    44  17  24    47  17  27    46  16  26    44  14  24    42  12  22    40  13  22    40  13  22    41  14  23    42  15  24    40  13  22    40  13  22    39  13  22    39  13  22    38  12  21    38  12  21    38  12  21    35  12  20    33  12  19    31  12  18    31  12  18    31  12  18    31  12  18    31  12  18    31  12  18    31  12  18    32  13  19    31  12  18    31  12  18    31  12  18  
  45  19  20    45  19  20    45  19  20    45  19  20    45  19  20    45  19  20    45  19  20    44  18  19    43  17  18    43  17  18    44  18  19    44  18  19    45  19  22    45  18  24    44  17  25    42  15  22    41  14  21    40  13  20    39  12  19    40  13  20    40  13  20    41  14  21    41  14  21    40  13  20    40  13  20    41  14  21    42  15  22    43  16  23    44  17  24    48  18  28    47  15  26    44  14  24    42  12  22    41  12  22    41  12  22    42  13  23    43  14  24    40  13  22    40  13  22    40  13  22    40  13  22    39  13  22    38  12  21    38  12  21    35  13  20    33  12  19    32  13  19    32  13  19    32  13  19    31  12  18    31  12  18    31  12  18    30  11  17    31  12  18    31  12  18    31  12  18    31  12  18  
  45  19  20    45  19  20    45  19  20    45  19  20    45  19  20    46  20  21    45  19  20    44  18  19    42  16  17    42  16  17    42  16  17    43  17  18    44  18  21    45  18  25    44  17  26    43  16  23    42  15  22    41  14  21    40  13  20    40  13  20    40  13  20    41  14  21    40  13  20    40  13  20    40  13  20    41  14  21    42  15  22    42  15  22    43  16  23    47  15  26    46  14  25    44  14  24    42  12  22    42  12  22    42  12  22    43  13  23    43  13  23    40  13  22    40  13  22    40  13  22    40  13  22    39  13  22    39  13  22    39  13  22    37  14  22    35  14  21    34  15  21    33  14  20    33  14  20    32  13  19    32  13  19    31  12  18    31  12  18    31  12  18    31  12  18    31  12  18    31  12  18  
  45  19  20    45  19  20    45  19  20    45  19  20    45  19  20    47  21  22    45  19  20    43  17  18    41  15  16    41  15  16    41  15  16    42  16  17    43  17  20    44  17  24    44  17  26    43  16  25    43  16  25    42  15  24    41  14  23    40  13  20    40  13  20    40  13  20    40  13  20    41  14  21    41  14  21    42  15  22    42  15  22    41  14  19    41  14  21    44  12  23    44  12  23    44  12  23    44  12  23    43  11  22    43  11  22    42  12  22    42  12  22    42  12  22    42  12  22    40  13  22    40  13  22    40  13  22    40  13  22    41  14  23    40  14  23    36  15  22    35  16  22    34  15  21    34  15  21    33  14  20     0   0   0     0   0   0     0   0   0     0   0   0     0   0   0     0   0   0     0   0   0  
  45  19  20    45  19  20    45  19  20    45  19  20    45  19  20    46  20  21    44  18  19    42  16  17    40  14  15    39  13  14    40  14  15    40  15  15    42  15  18    43  16  20    43  16  23    44  17  23    44  17  23    44  17  25    42  15  21    41  14  20    40  13  20    40  13  20    40  13  20    40  14  20    41  14  21    41  14  22    40  14  21    40  13  21    40  13  21    40  11  21    40  11  21    43  11  22    42  13  23    44  12  23    42  13  23    42  13  22    42  13  23    42  12  22    42  12  22    40  13  22    40  13  22    40  13  22    41  14  23    41  14  23    40  14  23    39  15  23    38  15  23    37  14  22    36  13  21    35  13  20     0   0   0     0   0   0     0   0   0     0   0   0     0   0   0     0   0   0     0   0   0  
  45  19  20    45  19  20    45  19  20    45  19  20    45  19  20    45  19  20    44  18  19    42  16  17    40  14  15    40  14  15    40  14  15    41  15  16    42  16  17    44  18  21    44  18  22    44  17  22    43  16  21    43  16  22    42  15  20    41  14  19    41  14  19    41  14  21    41  14  21    41  14  21    41  14  21    41  14  23    41  14  23    41  14  23    41  14  23    41  14  23    40  13  22    41  13  22    40  13  22    42  14  23    41  14  23    42  15  24    43  16  25    41  14  23    41  14  23    41  14  23    41  14  23    41  14  23    41  14  23    41  14  23    41  14  23    43  13  23    42  14  23    41  13  22    38  12  21    36  12  20     0   0   0     0   0   0     0   0   0     0   0   0     0   0   0     0   0   0     0   0   0  
  45  20  20    45  19  20    45  19  20    44  18  19    44  18  19    45  19  20    45  19  20    44  18  19    43  17  18    43  17  18    43  17  18    43  17  18    43  17  18    45  19  22    44  18  21    43  17  20    41  15  18    41  13  18    40  13  18    40  13  18    40  13  18    41  14  21    41  14  21    41  14  21    41  14  21    41  14  22    41  14  22    41  14  23    41  14  23    41  14  23    40  14  23    40  13  22    40  13  22    40  13  22    41  14  23    42  15  24    42  15  24    41  14  23    41  14  23    41  14  23    41  14  23    41  14  23    41  14  23    41  14  23    41  14  23    44  12  23    42  12  22    42  12  22    38  12  21    37  11  20     0   0   0     0   0   0     0   0   0     0   0   0     0   0   0     0   0   0     0   0   0  
  46  20  21    46  20  21    45  19  20    44  18  19    44  18  19    44  18  19    45  19  20    45  19  20    46  20  21    46  20  21    46  20  21    45  19  20    45  19  20    46  20  23    44  18  21    42  16  19    40  14  17    39  12  17    39  12  17    40  13  18    40  13  18    40  13  20    40  13  20    40  13  20    40  13  20    40  13  20    40  13  20    40  13  22    40  13  22    41  14  23    41  14  23    41  14  23    40  13  22    40  13  22    41  14  23    41  14  23    42  15  24    41  14  23    41  14  23    41  14  23    41  14  23    41  14  23    41  14  23    41  14  23    41  14  23    43  11  22    42  12  22    41  11  21    38  12  21    37  11  20     0   0   0     0   0   0     0   0   0     0   0   0     0   0   0     0   0   0     0   0   0  
  47  21  22    46  20  21    46  20  21    45  19  20    45  19  20    44  18  19    44  18  19    45  19  20    45  19  20    45  19  20    45  19  20    45  19  20    45  19  20    46  20  23    44  18  21    42  16  19    40  14  17    39  13  16    40  14  17    41  14  19    41  14  19    40  13  18    40  13  18    40  13  20    40  13  20    40  13  20    40  13  20    40  13  20    40  13  20    42  15  24    41  14  23    41  14  23    40  13  22    40  13  22    41  14  23    41  14  23    41  14  23    41  14  23    41  14  23    41  14  23    41  14  23    41  14  23    41  14  23    41  14  23    41  14  23    42  10  21    41  11  21    40  10  20    37  11  20    37  11  20     0   0   0     0   0   0     0   0   0     0   0   0     0   0   0     0   0   0     0   0   0  
  47  21  22    47  21  22    47  21  22    46  21  21    46  21  21    46  20  21    45  19  20    44  18  19    44  18  19    44  18  19    44  18  19    44  18  19    44  18  19    45  19  21    44  18  20    43  17  20    42  16  20    42  16  19    42  16  19    42  16  20    43  16  21    43  16  21    43  16  21    43  16  23    43  16  23    43  16  23    43  16  23    43  16  23    43  16  23    42  15  24    42  15  24    41  14  23    40  13  22    40  13  22    40  13  22    40  14  23    41  14  23    41  14  23    41  14  23    41  14  23    41  14  23    41  14  23    41  14  23    41  14  23    41  14  23    41   9  20    40  10  20    40  10  20    37  10  20    36  10  19     0   0   0     0   0   0     0   0   0     0   0   0     0   0   0     0   0   0     0   0   0  
  48  22  23    48  22  23    48  22  23    48  22  23    48  22  23    48  22  23    47  21  22    46  20  21    44  18  19    43  17  18    44  18  19    45  19  20    46  20  21    44  18  19    44  18  19    44  18  21    45  19  22    45  19  22    45  19  22    45  19  22    45  19  22    45  18  23    45  18  23    45  18  23    45  18  23    45  18  25    45  18  25    45  18  25    45  18  25    43  16  25    42  15  24    41  14  23    41  14  23    40  13  22    40  13  22    40  13  22    41  14  23    41  14  23    41  14  23    41  14  23    41  14  23    41  14  23    41  14  23    41  14  23    41  14  23    41   9  20    40  10  20    39   9  19    36  10  19    36  10  19     0   0   0     0   0   0     0   0   0     0   0   0     0   0   0     0   0   0     0   0   0  
  48  22  23    48  22  23    47  21  22    47  21  22    47  21  22    49  23  24    48  22  23    47  20  22    45  19  20    44  18  19    45  19  20    45  19  20    45  19  20    44  18  19    44  18  19    45  19  20    45  19  21    45  19  21    45  19  21    45  19  22    45  19  22    45  18  22    45  18  22    45  18  23    45  18  23    45  18  23    44  17  22    44  17  22    44  17  24    44  17  26    43  15  25    41  14  23    40  13  22    40  14  23    40  14  23    40  14  23    40  14  23    41  14  23    41  14  23    41  14  23    41  14  23    41  14  23    41  14  23    41  14  23    41  14  23    41   9  20    40  10  20    40  10  20    37  10  20    37  10  20     0   0   0     0   0   0     0   0   0     0   0   0     0   0   0     0   0   0     0   0   0  
  48  22  23    48  22  23    47  21  22    47  21  22    47  21  22    49  23  24    48  22  23    47  21  22    46  20  21    45  19  20    45  19  20    45  19  20    45  19  20    45  19  20    45  19  20    45  19  20    45  19  20    45  19  20    45  19  20    45  19  22    45  19  22    45  19  22    45  19  22    45  18  23    45  18  23    45  18  23    44  17  22    44  17  22    44  17  22    45  18  27    43  16  25    41  14  23    40  13  22    41  14  23    41  14  23    41  14  23    41  14  23    41  14  23    41  14  23    41  14  23    41  14  23    41  14  23    41  14  23    41  14  23    41  14  23    42  10  21    41  11  21    41  11  21    37  11  20    37  11  20     0   0   0     0   0   0     0   0   0     0   0   0     0   0   0     0   0   0     0   0   0  
  48  22  23    48  22  23    47  21  22    47  21  22    47  21  22    48  22  23    47  21  22    47  21  22    46  20  21    45  19  20    45  19  20    45  19  20    45  19  20    45  19  18    45  19  18    45  19  20    45  19  20    45  19  20    45  19  20    45  19  20    45  19  20    45  19  22    45  19  22    45  19  22    45  19  22    45  18  23    44  17  22    44  17  22    44  17  22    45  18  27    43  16  25    41  14  23    40  13  22    41  14  23    41  14  23    41  14  23    41  14  23    41  14  23    41  14  23    41  14  23    41  14  23    41  14  23    41  14  23    41  14  23    41  14  23    43  11  22    41  11  21    41  11  21    38  12  21    37  11  20     0   0   0     0   0   0     0   0   0     0   0   0     0   0   0     0   0   0     0   0   0  
   0   0   0     0   0   0     0   0   0     0   0   0     0   0   0     0   0   0     0   0   0    45  20  20    45  19  20    45  19  20    45  19  20    45  19  20    45  19  20    45  19  18    45  19  18    45  19  19    45  19  19    45  19  20    45  19  20    45  19  20    45  19  20    45  19  22    45  19  22    45  19  22    45  19  22    45  18  23    44  17  22    44  17  22    44  17  22    45  18  27    43  16  25    41  14  23    40  13  22    41  14  23    41  14  23    41  14  23    41  14  23    41  14  23    41  14  23    41  14  23    41  14  23    41  14  23    41  14  23    41  14  23    41  14  23    43  11  22    42  12  22    42  12  22    38  12  21    37  11  20     0   0   0     0   0   0     0   0   0     0   0   0     0   0   0     0   0   0     0   0   0  
   0   0   0     0   0   0     0   0   0     0   0   0     0   0   0     0   0   0     0   0   0    45  19  20    45  19  20    45  19  20    45  19  20    45  19  20    46  20  21    45  19  18    45  19  18    45  19  18    45  19  18    45  19  20    45  19  20    45  19  20    45  19  20    45  19  22    45  19  22    45  19  22    45  19  22    45  19  22    44  18  21    44  17  22    44  17  22    45  18  26    43  16  25    41  14  23    40  13  22    41  14  23    41  14  23    41  14  23    41  14  23    41  14  23    41  14  23    41  14  23    41  14  23    41  14  23    41  14  23    41  14  23    41  14  23    45  13  24    44  14  24    43  13  23    39  13  22    38  12  21     0   0   0     0   0   0     0   0   0     0   0   0     0   0   0     0   0   0     0   0   0  
   0   0   0     0   0   0     0   0   0     0   0   0     0   0   0     0   0   0     0   0   0    44  18  19    44  18  19    44  18  19    45  19  20    45  19  20    46  20  21    45  19  18    45  19  18    45  19  18    45  19  18    45  19  18    45  19  18    45  19  20    45  19  20    45  19  21    45  19  21    45  19  22    45  19  22    45  19  22    44  18  21    44  18  21    44  17  22    45  18  25    43  16  25    41  14  23    40  13  22    41  14  23    41  14  23    41  14  23    41  14  23    41  14  23    41  14  23    41  14  23    41  14  23    41  14  23    41  14  23    41  14  23    41  14  23    45  14  25    44  14  24    43  13  23    39  13  22    38  12  21     0   0   0     0   0   0     0   0   0     0   0   0     0   0   0     0   0   0     0   0   0  
   0   0   0     0   0   0     0   0   0     0   0   0     0   0   0     0   0   0     0   0   0    44  18  19    44  18  19    44  18  19    45  19  20    45  19  20    46  20  21    45  19  18    45  19  18    45  19  18    45  19  18    45  19  18    45  19  18    45  19  20    45  19  20    45  19  20    45  19  20    45  19  20    45  19  20    45  19  22    44  18  19    44  18  21    44  18  21    45  18  25    43  16  23    41  14  23    40  13  22    41  14  23    41  14  23    41  14  23    41  14  23    41  14  23    41  14  23    41  14  23    41  14  23    41  14  23    41  14  23    41  14  23    41  14  23    43  16  25    42  15  24    40  14  23    39  13  22    36  13  21    34  13  20    32  13  19    31  12  18    30  13  19    30  13  19    30  13  19    30  13  19  
   0   0   0     0   0   0     0   0   0     0   0   0     0   0   0     0   0   0     0   0   0    44  18  19    44  18  19    44  18  19    45  19  20    45  19  20    46  20  21    45  19  18    45  19  18    44  18  17    44  18  17    44  18  17    45  19  18    45  19  18    46  20  19    45  19  18    45  19  18    45  19  18    45  19  18    45  19  20    45  19  18    45  19  20    45  19  20    47  20  25    45  18  23    42  15  22    40  13  19    41  14  21    42  15  22    42  15  22    42  15  22    43  16  25    41  14  23    40  13  22    40  13  22    41  14  23    42  15  24    41  13  25    40  14  25    38  15  23    37  16  23    36  15  22    36  15  22    35  14  21    32  13  19    31  12  18    30  11  17    33  14  20    33  14  20    33  14  20    33  14  20  
   0   0   0     0   0   0     0   0   0     0   0   0     0   0   0     0   0   0     0   0   0    45  19  20    44  18  19    44  18  19    44  18  19    45  19  20    45  19  20    45  19  18    45  19  18    44  18  17    44  18  17    44  18  17    45  19  18    45  19  18    45  20  19    45  19  18    45  19  18    45  19  18    45  19  18    45  19  18    45  19  18    45  19  18    45  19  20    45  19  22    43  15  20    40  13  18    39  12  17    40  13  20    40  14  20    40  14  20    40  13  20    43  16  25    41  14  23    40  13  22    40  13  22    41  14  23    42  15  24    41  13  24    40  14  24    37  15  23    36  16  23    36  15  22    35  15  22    35  14  21    33  14  20    32  11  18    31  12  18    36  14  21    35  15  21    36  14  21    35  15  21  
   0   0   0     0   0   0     0   0   0     0   0   0     0   0   0     0   0   0     0   0   0    47  21  22    46  20  21    45  19  20    45  19  20    45  19  20    45  19  20    46  20  19    45  19  18    45  19  18    44  18  17    44  18  17    44  18  17    45  19  18    45  19  18    45  19  18    45  19  18    45  19  18    45  19  18    45  19  18    45  19  18    45  19  18    45  19  20    44  18  21    42  15  20    40  13  18    39  12  17    40  13  20    41  14  21    40  13  20    40  13  20    43  16  25    41  14  23    40  13  22    40  13  22    41  14  23    42  15  24    41  14  23    41  14  23    38  14  22    37  15  22    38  15  23    37  15  22    37  14  22    35  13  21    35  12  20    33  11  19    37  14  22    37  15  22    37  14  22    37  15  22  
   0   0   0     0   0   0     0   0   0     0   0   0     0   0   0     0   0   0     0   0   0    47  21  22    46  20  21    45  20  20    45  19  20    45  19  20    45  19  20    46  20  20    45  20  20    45  19  19    44  18  18    44  18  18    44  18  18    44  18  19    44  18  19    45  19  19    45  19  19    45  19  19    45  19  19    45  19  19    45  19  19    45  19  19    45  19  20    44  18  20    43  15  20    41  14  19    41  14  19    42  15  20    42  15  21    41  14  21    41  14  21    43  16  23    41  14  21    40  13  22    40  13  22    41  14  23    42  15  24    41  14  23    41  14  23    39  13  22    38  13  22    39  14  23    39  14  23    38  13  22    37  12  21    36  11  20    36  11  20    38  12  21    38  12  21    38  12  21    38  12  21  
   0   0   0     0   0   0     0   0   0     0   0   0     0   0   0     0   0   0     0   0   0    48  22  23    47  21  22    46  20  21    46  20  21    46  20  21    47  21  22    47  21  22    46  20  21    45  19  20    44  18  19    44  18  19    44  18  19    44  18  19    44  18  19    45  19  20    45  19  20    45  19  20    45  19  20    45  19  20    45  19  20    45  19  20    45  19  20    45  19  22    44  17  22    43  16  21    44  17  22    45  18  23    45  18  23    44  17  24    43  16  23    43  16  23    41  14  21    40  13  22    40  13  22    41  14  23    42  15  24    41  14  23    41  14  23    40  13  22    39  13  22    41  14  23    40  14  23    41  14  23    39  13  22    39  12  21    38  12  21    39  12  21    38  12  21    39  12  21    38  12  21  
   0   0   0     0   0   0     0   0   0     0   0   0     0   0   0     0   0   0     0   0   0    48  22  23    47  21  22    47  21  22    47  21  22    48  22  23    48  22  23    47  21  22    46  20  21    45  19  20    44  18  19    44  18  19    43  17  18    44  18  19    44  18  19    45  19  20    45  19  20    45  19  20    45  19  20    45  19  20    45  19  20    45  19  20    45  19  20    45  19  22    44  18  21    44  18  21    44  18  21    46  19  24    46  19  24    45  18  23    44  17  22    43  16  23    41  14  21    40  13  20    40  13  20    41  14  23    42  15  24    41  14  23    41  14  23    40  13  22    40  13  22    43  13  23    41  14  23    43  13  23    40  13  22    42  12  22    39  12  21    42  12  22    40  13  22    42  12  22    40  13  22  
   0   0   0     0   0   0     0   0   0     0   0   0     0   0   0     0   0   0     0   0   0    47  21  22    47  21  22    47  21  22    48  22  23    49  23  24    49  23  24    47  21  23    47  21  23    46  21  22    45  19  21    45  19  21    44  18  20    44  18  20    44  18  20    46  20  21    45  19  21    45  19  21    45  19  20    44  18  20    44  18  20    45  19  20    45  19  21    44  18  21    43  17  21    43  17  21    44  18  21    45  19  23    45  19  23    45  18  23    43  16  21    43  16  22    41  15  21    41  14  21    41  14  21    42  15  23    42  15  24    41  15  23    41  14  23    42  12  22    42  12  22    43  13  23    43  13  23    43  13  23    43  13  23    42  12  22    42  12  22    43  13  23    43  13  23    43  13  23    43  13  23  
   0   0   0     0   0   0     0   0   0     0   0   0     0   0   0     0   0   0     0   0   0    48  22  23    48  22  23    48  22  23    48  22  23    48  22  23    48  22  23    48  22  25    48  22  25    48  22  25    48  22  25    48  22  25    48  22  25    48  22  25    48  22  25    47  21  24    46  20  23    45  19  22    44  18  21    43  17  20    43  17  20    44  18  21    45  19  22    45  19  22    45  19  22    45  19  22    45  19  22    45  19  22    45  19  22    45  18  23    45  18  23    44  17  22    44  17  22    45  18  25    45  18  25    45  18  25    44  17  24    44  17  24    43  16  23    43  13  23    43  13  23    43  13  23    43  13  23    43  13  23    43  13  23    43  13  23    43  13  23    43  13  23    43  13  23    43  13  23    43  13  23  
   0   0   0     0   0   0     0   0   0     0   0   0     0   0   0     0   0   0     0   0   0    48  22  23    48  22  23    48  22  23    48  22  23    48  22  23    48  22  23    48  22  25    48  22  25    48  22  25    48  22  25    48  22  25    48  22  25    48  22  25    48  22  25    47  21  24    46  20  23    45  19  22    45  19  22    44  18  20    44  18  20    44  18  21    44  18  21    45  19  21    45  19  21    45  19  22    45  19  22    45  19  22    45  19  22    45  19  22    45  19  22    45  18  23    45  18  23    45  18  23    45  19  24    45  18  25    45  18  25    44  17  24    43  16  23    43  13  23    43  13  23    43  13  23    43  13  23    43  13  23    43  13  23    43  13  23    43  13  23    43  13  23    43  13  23    43  13  23    43  13  23  
   0   0   0     0   0   0     0   0   0     0   0   0     0   0   0     0   0   0     0   0   0    48  22  23    48  22  23    48  22  23    48  22  23    48  22  23    48  22  23    48  22  25    48  22  25    48  22  25    48  22  25    48  22  25    48  22  25    48  22  25    48  22  25    47  21  24    47  21  24    46  20  23    45  19  22    45  19  22    44  18  21    44  18  21    44  18  21    45  19  20    45  19  20    45  19  22    45  19  22    45  19  22    45  19  22    45  19  22    45  19  22    44  17  22    45  18  23    45  18  23    45  18  23    44  17  24    44  17  24    43  16  23    42  15  22    43  13  23    43  13  23    43  13  23    43  13  23    43  13  23    43  13  23    43  13  23    43  13  23    43  13  23    43  13  23    43  13  23    43  13  23  
   0   0   0     0   0   0     0   0   0     0   0   0     0   0   0     0   0   0     0   0   0     0   0   0     0   0   0     0   0   0     0   0   0     0   0   0     0   0   0     0   0   0     0   0   0     0   0   0     0   0   0     0   0   0     0   0   0     0   0   0     0   0   0     0   0   0    47  20  25    47  20  25    46  19  24    46  19  24    45  18  23    44  17  22    44  18  21    45  19  20    45  19  20    45  19  20    45  19  20    45  19  22    45  19  22    45  19  22    45  19  22     0   0   0     0   0   0     0   0   0     0   0   0     0   0   0     0   0   0     0   0   0     0   0   0     0   0   0     0   0   0     0   0   0     0   0   0     0   0   0     0   0   0     0   0   0     0   0   0     0   0   0     0   0   0     0   0   0     0   0   0  
   0   0   0     0   0   0     0   0   0     0   0   0     0   0   0     0   0   0     0   0   0     0   0   0     0   0   0     0   0   0     0   0   0     0   0   0     0   0   0     0   0   0     0   0   0     0   0   0     0   0   0     0   0   0     0   0   0     0   0   0     0   0   0     0   0   0    47  20  25    47  20  25    47  20  25    46  19  24    46  19  24    45  18  23    44  18  21    45  19  22    45  19  20    45  19  20    45  19  20    45  19  21    45  19  21    45  19  22    45  19  22     0   0   0     0   0   0     0   0   0     0   0   0     0   0   0     0   0   0     0   0   0     0   0   0     0   0   0     0   0   0     0   0   0     0   0   0     0   0   0     0   0   0     0   0   0     0   0   0     0   0   0     0   0   0     0   0   0     0   0   0  
