P3
60 57
255
   0   0   0     0   0   0     0   0   0     0   0   0     0   0   0     0   0   0     0   0   0     0   0   0     0   0   0     0   0   0     0   0   0    24   5  11    26   7  13    27   8  14    27   8  14    27   8  14    27   8  14    26   7  13    26   7  13    26   7  13    26   7  13    26   7  13    26   7  13    25   6  12    25   6  12     0   0   0     0   0   0     0   0   0     0   0   0     0   0   0     0   0   0     0   0   0     0   0   0     0   0   0     0   0   0     0   0   0     0   0   0     0   0   0     0   0   0     0   0   0     0   0   0     0   0   0     0   0   0     0   0   0     0   0   0     0   0   0     0   0   0     0   0   0     0   0   0     0   0   0     0   0   0     0   0   0     0   0   0     0   0   0     0   0   0     0   0   0     0   0   0     0   0   0     0   0   0     0   0   0  
   0   0   0     0   0   0     0   0   0     0   0   0     0   0   0     0   0   0     0   0   0     0   0   0     0   0   0     0   0   0     0   0   0    25   7  13    25   6  12    25   6  12    25   6  12    26   7  13    25   6  12    24   5  11    24   5  11    24   5  11    24   5  11    24   5  11    24   5  11    24   5  11    24   5  11     0   0   0     0   0   0     0   0   0     0   0   0     0   0   0     0   0   0     0   0   0     0   0   0     0   0   0     0   0   0     0   0   0     0   0   0     0   0   0     0   0   0     0   0   0     0   0   0     0   0   0     0   0   0     0   0   0     0   0   0     0   0   0     0   0   0     0   0   0     0   0   0     0   0   0     0   0   0     0   0   0     0   0   0     0   0   0     0   0   0     0   0   0     0   0   0     0   0   0     0   0   0     0   0   0  
   0   0   0     0   0   0     0   0   0     0   0   0     0   0   0     0   0   0     0   0   0     0   0   0     0   0   0     0   0   0     0   0   0    27   8  14    25   6  12    24   5  11    24   5  11    25   6  12    25   6  12    24   5  11    24   5  11    24   5  11    24   5  11    24   5  11    24   5  11    23   4  10    24   5  11     0   0   0     0   0   0     0   0   0     0   0   0     0   0   0     0   0   0     0   0   0     0   0   0     0   0   0     0   0   0     0   0   0     0   0   0     0   0   0     0   0   0     0   0   0     0   0   0     0   0   0     0   0   0     0   0   0     0   0   0     0   0   0     0   0   0     0   0   0     0   0   0     0   0   0     0   0   0     0   0   0     0   0   0     0   0   0     0   0   0     0   0   0     0   0   0     0   0   0     0   0   0     0   0   0  
   0   0   0     0   0   0     0   0   0     0   0   0     0   0   0     0   0   0     0   0   0     0   0   0     0   0   0     0   0   0     0   0   0    27   8  14    26   7  13    24   5  11    24   5  11    25   6  12    25   6  12    25   6  12    25   6  12    25   6  12    25   6  12    25   6  12    25   6  12    23   5  11    24   5  11     0   0   0     0   0   0     0   0   0     0   0   0     0   0   0     0   0   0     0   0   0     0   0   0     0   0   0     0   0   0     0   0   0     0   0   0     0   0   0     0   0   0     0   0   0     0   0   0     0   0   0     0   0   0     0   0   0     0   0   0     0   0   0     0   0   0     0   0   0     0   0   0     0   0   0     0   0   0     0   0   0     0   0   0     0   0   0     0   0   0     0   0   0     0   0   0     0   0   0     0   0   0     0   0   0  
   0   0   0     0   0   0     0   0   0     0   0   0     0   0   0     0   0   0     0   0   0     0   0   0     0   0   0     0   0   0     0   0   0    28   9  15    27   8  14    26   7  13    25   6  12    26   7  13    26   7  13    26   7  13    26   7  13    26   7  13    26   7  13    26   7  13    26   7  13    25   6  11    24   5  11     0   0   0     0   0   0     0   0   0     0   0   0     0   0   0     0   0   0     0   0   0     0   0   0     0   0   0     0   0   0     0   0   0     0   0   0     0   0   0     0   0   0     0   0   0     0   0   0     0   0   0     0   0   0     0   0   0     0   0   0     0   0   0     0   0   0     0   0   0     0   0   0     0   0   0     0   0   0     0   0   0     0   0   0     0   0   0     0   0   0     0   0   0     0   0   0     0   0   0     0   0   0     0   0   0  
   0   0   0     0   0   0     0   0   0     0   0   0     0   0   0     0   0   0     0   0   0     0   0   0     0   0   0     0   0   0     0   0   0    27   8  14    28   9  15    28   9  15    27   8  14    26   7  13    26   7  13    26   7  13    26   7  13    26   7  13    26   7  13    26   7  13    26   7  13    25   6  12    25   6  12     0   0   0     0   0   0     0   0   0     0   0   0     0   0   0     0   0   0     0   0   0     0   0   0     0   0   0     0   0   0     0   0   0     0   0   0     0   0   0     0   0   0     0   0   0     0   0   0     0   0   0     0   0   0     0   0   0     0   0   0     0   0   0     0   0   0     0   0   0     0   0   0     0   0   0     0   0   0     0   0   0     0   0   0     0   0   0     0   0   0     0   0   0     0   0   0     0   0   0     0   0   0     0   0   0  
   0   0   0     0   0   0     0   0   0     0   0   0     0   0   0     0   0   0     0   0   0     0   0   0     0   0   0     0   0   0     0   0   0    27   8  14    29  10  16    29  10  16    28   9  15    27   8  14    25   7  13    25   6  12    25   6  12    25   6  12    25   6  12    25   6  12    25   6  12    25   7  13    26   7  13     0   0   0     0   0   0     0   0   0     0   0   0     0   0   0     0   0   0     0   0   0     0   0   0     0   0   0     0   0   0     0   0   0     0   0   0     0   0   0     0   0   0     0   0   0     0   0   0     0   0   0     0   0   0     0   0   0     0   0   0     0   0   0     0   0   0     0   0   0     0   0   0     0   0   0     0   0   0     0   0   0     0   0   0     0   0   0     0   0   0     0   0   0     0   0   0     0   0   0     0   0   0     0   0   0  
  26   7  13    25   5  12    24   5  11    25   6  12    26   7  13    27   8  14    27   8  14    29  10  16    30  10  17    30  11  17    27   8  14    27   8  14    27   8  14    27   8  14    27   8  14    27   8  14    26   7  13    25   6  12    25   6  12    25   6  12    25   6  12    25   6  12    25   6  12    25   6  12    25   6  12    25   6  12    25   6  12    25   6  12    25   6  12    25   6  12    25   6  12    25   6  12    25   6  12    25   6  12    25   6  12    25   6  12    25   6  12    25   6  12    25   6  12    25   6  12    25   6  12    25   6  12    25   6  12    25   6  12    25   6  12    25   6  12    25   6  12    25   6  12    25   6  12    25   6  12     0   0   0     0   0   0     0   0   0     0   0   0     0   0   0     0   0   0     0   0   0     0   0   0     0   0   0     0   0   0  
  26   7  13    25   5  12    24   5  11    25   5  12    25   6  12    25   6  12    26   7  13    28   9  15    28   9  15    28   9  15    25   6  12    25   6  12    25   6  12    25   6  12    25   6  12    25   6  12    25   6  12    25   6  12    25   6  12    25   6  12    25   6  12    25   6  12    25   6  12    25   6  12    25   6  12    25   6  12    25   6  12    25   6  12    25   6  12    25   6  12    25   6  12    25   6  12    25   6  12    25   6  12    25   6  12    25   6  12    25   6  12    25   6  12    25   6  12    25   6  12    25   6  12    25   6  12    25   6  12    25   6  12    25   6  12    25   6  12    25   6  12    25   6  12    25   6  12    25   6  12     0   0   0     0   0   0     0   0   0     0   0   0     0   0   0     0   0   0     0   0   0     0   0   0     0   0   0     0   0   0  
  26   7  13    25   6  12    25   6  12    24   5  11    24   5  11    24   5  11    25   6  12    26   7  13    27   8  14    27   8  14    24   5  11    24   5  11    24   5  11    24   5  11    24   5  11    24   5  11    24   5  11    25   6  12    25   6  12    25   6  12    25   6  12    25   6  12    25   6  12    25   6  12    25   6  12    25   6  12    25   6  12    25   6  12    25   6  12    25   6  12    25   6  12    25   6  12    25   6  12    25   6  12    25   6  12    25   6  12    25   6  12    25   6  12    25   6  12    25   6  12    25   6  12    25   6  12    25   6  12    25   6  12    25   6  12    25   6  12    25   6  12    25   6  12    25   6  12    25   6  12     0   0   0     0   0   0     0   0   0     0   0   0     0   0   0     0   0   0     0   0   0     0   0   0     0   0   0     0   0   0  
  25   6  12    25   6  12    25   6  12    24   5  11    24   5  11    25   6  12    25   6  12    26   7  13    26   7  13    26   7  13    24   5  11    24   5  11    24   5  11    24   5  11    24   5  11    24   5  11    24   5  11    25   6  12    25   6  12    25   6  12    25   6  12    25   6  12    25   6  12    25   6  12    25   6  12    25   6  12    25   6  12    25   6  12    25   6  12    25   6  12    25   6  12    25   6  12    25   6  12    25   6  12    25   6  12    25   6  12    25   6  12    25   6  12    25   6  12    25   6  12    25   6  12    25   6  12    25   6  12    25   6  12    25   6  12    25   6  12    25   6  12    25   6  12    25   6  12    25   6  12     0   0   0     0   0   0     0   0   0     0   0   0     0   0   0     0   0   0     0   0   0     0   0   0     0   0   0     0   0   0  
  25   6  12    25   6  12    25   6  12    25   6  12    25   6  12    25   6  12    26   7  13    26   7  13    26   7  13    26   7  13    25   6  12    25   6  12    25   6  12    25   6  12    25   6  12    25   6  12    25   6  12    25   6  12    25   6  12    25   6  12    25   6  12    25   6  12    25   6  12    25   6  12    25   6  12    25   6  12    25   6  12    25   6  12    25   6  12    25   6  12    25   6  12    25   6  12    25   6  12    25   6  12    25   6  12    25   6  12    25   6  12    25   6  12    25   6  12    25   6  12    25   6  12    25   6  12    25   6  12    25   6  12    25   6  12    25   6  12    25   6  12    25   6  12    25   6  12    25   6  12     0   0   0     0   0   0     0   0   0     0   0   0     0   0   0     0   0   0     0   0   0     0   0   0     0   0   0     0   0   0  
  25   6  12    25   6  12    25   6  12    25   7  13    26   7  13    26   7  13    26   7  13    26   7  13    26   7  13    26   7  13    25   6  12    25   6  12    25   6  12    25   6  12    25   6  12    25   6  12    25   6  12    25   6  12    25   6  12    25   6  12    25   6  12    25   6  12    25   6  12    25   6  12    25   6  12    25   6  12    25   6  12    25   6  12    25   6  12    25   6  12    25   6  12    25   6  12    25   6  12    25   6  12    25   6  12    25   6  12    25   6  12    25   6  12    25   6  12    25   6  12    25   6  12    25   6  12    25   6  12    25   6  12    25   6  12    25   6  12    25   6  12    25   6  12    25   6  12    25   6  12     0   0   0     0   0   0     0   0   0     0   0   0     0   0   0     0   0   0     0   0   0     0   0   0     0   0   0     0   0   0  
  25   6  12    25   6  12    25   6  12    25   6  12    25   6  12    25   6  12    25   5  12    24   5  11    24   5  11    24   5  11    25   6  12    25   6  12    25   6  12    25   6  12    25   6  12    25   6  12    25   6  12    25   6  12    25   6  12    25   6  12    25   6  12    25   6  12    25   6  12    25   6  12    25   6  12    25   6  12    25   6  12    25   6  12    25   6  12    25   6  12    25   6  12    25   6  12    25   6  12    25   6  12    25   6  12    25   6  12    25   6  12    25   6  12    25   6  12    25   6  12    25   6  12    25   6  12    25   6  12    25   6  12    25   6  12    25   6  12    25   6  12    25   6  12    25   6  12    25   6  12     0   0   0     0   0   0     0   0   0     0   0   0     0   0   0     0   0   0     0   0   0     0   0   0     0   0   0     0   0   0  
  25   6  12    25   6  12    25   6  12    24   5  11    24   5  11    23   4  10    23   4  10    23   4  10    23   4  10    23   4  10    24   5  11    24   5  11    24   5  11    24   5  11    24   5  11    24   5  11    24   5  11    25   6  12    25   6  12    25   6  12    25   6  12    25   6  12    25   6  12    25   6  12    25   6  12    25   6  12    25   6  12    25   6  12    25   6  12    25   6  12    25   6  12    25   6  12    25   6  12    25   6  12    25   6  12    25   6  12    25   6  12    25   6  12    25   6  12    25   6  12    25   6  12    25   6  12    25   6  12    25   6  12    25   6  12    25   6  12    25   6  12    25   6  12    25   6  12    25   6  12     0   0   0     0   0   0     0   0   0     0   0   0     0   0   0     0   0   0     0   0   0     0   0   0     0   0   0     0   0   0  
  26   7  13    26   7  13    26   7  13    27   8  14    27   8  14    27   8  14    25   7  13    25   6  12    24   5  11    24   5  11    26   7  13    26   7  13    26   7  13    26   7  13    26   7  13    26   7  13    25   7  13    25   6  12    25   6  12    25   6  12    25   6  12    25   6  12    25   6  12    25   6  12    25   6  12    25   6  12    25   6  12    25   6  12    25   6  12    25   6  12    25   6  12    25   6  12    25   6  12    25   6  12    25   6  12    25   6  12    25   6  12    25   6  12    25   6  12    25   6  12    25   6  12    25   6  12    25   6  12    25   6  12    25   6  12    25   6  12    25   6  12    25   6  12    25   6  12    25   6  12     0   0   0     0   0   0     0   0   0     0   0   0     0   0   0     0   0   0     0   0   0     0   0   0     0   0   0     0   0   0  
  25   6  12    25   6  12    25   6  12    25   6  12    25   6  12    25   6  12    25   6  12    26   7  13    26   7  13    26   7  13    26   7  13    26   7  13    26   7  13    26   7  13    26   7  13    26   7  13    25   7  13    25   6  12    25   6  12    25   6  12    25   6  12    25   6  12    25   6  12    25   6  12    25   6  12    25   6  12    25   6  12    25   6  12    25   6  12    25   6  12    25   6  12    25   6  12    25   6  12    25   6  12    25   6  12    25   6  12    25   6  12    25   6  12    25   6  12    25   6  12    25   6  12    25   6  12    25   6  12    25   6  12    25   6  12    25   6  12    25   6  12    25   6  12    25   6  12    25   6  12     0   0   0     0   0   0     0   0   0     0   0   0     0   0   0     0   0   0     0   0   0     0   0   0     0   0   0     0   0   0  
  25   6  12    25   6  12    25   6  12    23   4  10    23   4  10    24   5  11    25   6  12    27   8  14    28   9  15    29  10  16    26   7  13    26   7  13    26   7  13    26   7  13    26   7  13    26   7  13    25   7  13    25   6  12    25   6  12    25   6  12    25   6  12    25   6  12    25   6  12    25   6  12    25   6  12    25   6  12    25   6  12    25   6  12    25   6  12    25   6  12    25   6  12    25   6  12    25   6  12    25   6  12    25   6  12    25   6  12    25   6  12    25   6  12    25   6  12    25   6  12    25   6  12    25   6  12    25   6  12    25   6  12    25   6  12    25   6  12    25   6  12    25   6  12    25   6  12    25   6  12    25   6  12    25   6  12    25   6  12    23   6  12    23   6  12    23   6  12    23   6  12    22   7  12    21   8  12    20   8  12  
  25   6  12    25   6  12    25   6  12    23   5  11    23   4  10    24   5  11    25   6  12    27   8  14    28   9  15    28   9  15    26   7  13    26   7  13    26   7  13    26   7  13    26   7  13    26   7  13    25   7  13    25   6  12    25   6  12    25   6  12    25   6  12    25   6  12    25   6  12    25   6  12    25   6  12    25   6  12    25   6  12    25   6  12    25   6  12    25   6  12    25   6  12    25   6  12    25   6  12    25   6  12    25   6  12    25   6  12    25   6  12    25   6  12    25   6  12    25   6  12    25   6  12    25   6  12    25   6  12    25   6  12    25   6  12    25   6  12    25   6  12    25   6  12    25   6  12    25   6  12    25   6  12    25   6  12    25   6  12    23   6  12    23   6  12    23   6  12    22   7  12    21   8  12    20   8  12    19   8  12  
  26   7  13    26   7  13    26   7  13    25   6  12    25   6  12    25   6  12    25   6  12    26   7  13    26   7  13    26   7  13    25   6  12    25   6  12    25   6  12    25   6  12    25   6  12    25   6  12    25   6  12    25   6  12    25   6  12    25   6  12    25   6  12    25   6  12    25   6  12    25   6  12    25   6  12    25   6  12    25   6  12    25   6  12    25   6  12    25   6  12    25   6  12    25   6  12    25   6  12    25   6  12    25   6  12    25   6  12    25   6  12    25   6  12    25   6  12    25   6  12    25   6  12    25   6  12    25   6  12    25   6  12    25   6  12    25   6  12    25   6  12    25   6  12    25   6  12    25   6  12    26   5  12    25   5  12    25   6  12    23   6  12    23   6  12    22   7  12    22   7  12    21   8  12    20   8  12    19   8  12  
  27   8  14    27   8  14    27   8  14    28   9  15    27   8  14    27   8  14    25   7  13    25   6  12    24   5  11    23   4  10    25   6  12    25   6  12    25   6  12    25   6  12    25   6  12    25   6  12    25   6  12    25   6  12    25   6  12    25   6  12    25   6  12    25   6  12    25   6  12    25   6  12    25   6  12    25   6  12    25   6  12    25   6  12    25   6  12    25   6  12    25   6  12    25   6  12    25   6  12    25   6  12    25   6  12    25   6  12    25   6  12    25   6  12    25   6  12    25   6  12    25   6  12    25   6  12    25   6  12    25   6  12    25   6  12    25   6  12    25   6  12    25   6  12    25   6  12    25   6  12    26   5  12    25   5  12    25   6  12    23   6  12    23   6  12    22   7  12    21   7  12    20   8  12    19   8  12    19   8  12  
  28   9  15    28   9  15    28   9  15    27   8  14    27   8  14    27   8  14    25   7  13    25   6  12    24   5  11    24   5  11    25   6  12    25   6  12    25   6  12    25   6  12    25   6  12    25   6  12    25   6  12    25   6  12    25   6  12    25   6  12    25   6  12    25   6  12    25   6  12    25   6  12    25   6  12    25   6  12    25   6  12    25   6  12    25   6  12    25   6  12    25   6  12    25   6  12    25   6  12    25   6  12    25   6  12    25   6  12    25   6  12    25   6  12    25   6  12    25   6  12    25   6  12    25   6  12    25   6  12    25   6  12    25   6  12    25   6  12    25   6  12    25   6  12    25   6  12    25   6  12    26   5  12    25   5  12    25   6  12    23   6  12    23   6  12    22   7  12    21   7  12    20   8  12    19   8  12    19   8  12  
  28   9  15    28   9  15    28   9  15    26   7  13    26   7  13    26   7  13    25   7  13    25   6  12    25   6  12    25   6  12    25   6  12    25   6  12    25   6  12    25   6  12    25   6  12    25   6  12    25   6  12    25   6  12    25   6  12    25   6  12    25   6  12    25   6  12    25   6  12    25   6  12    25   6  12    25   6  12    25   6  12    25   6  12    25   6  12    25   6  12    25   6  12    25   6  12    25   6  12    25   6  12    25   6  12    25   6  12    25   6  12    25   6  12    25   6  12    25   6  12    25   6  12    25   6  12    25   6  12    25   6  12    25   6  12    25   6  12    25   6  12    25   6  12    25   6  12    25   6  12    26   5  12    25   6  12    24   6  12    23   6  12    22   7  12    22   7  12    20   8  12    20   8  12    19   8  12    18   9  12  
  26   7  13    27   8  14    28   9  15    26   7  13    25   6  12    25   6  12    25   6  12    25   6  12    25   6  12    25   6  12    25   6  12    25   6  12    25   6  12    25   6  12    25   6  12    25   6  12    25   6  12    25   6  12    25   6  12    25   6  12    25   6  12    25   6  12    25   6  12    25   6  12    25   6  12    25   6  12    25   6  12    25   6  12    25   6  12    25   6  12    25   6  12    25   6  12    25   6  12    25   6  12    25   6  12    25   6  12    24   6  12    23   6  12    24   6  12    25   6  12    25   6  12    25   6  12    25   6  12    25   5  12    26   5  12    25   4  11    24   3  10    23   2   9    21   1   7    21   1   7    21   2   8    20   1   7    20   2   8    21   4  10    22   7  12    22   7  12    19   7  11    19   7  11    18   7  11    17   8  11  
   0   0   0     0   0   0     0   0   0     0   0   0     0   0   0     0   0   0     0   0   0     0   0   0     0   0   0     0   0   0    25   6  12    25   6  12    25   6  12    25   6  12    25   6  12    25   6  12    25   6  12    25   6  12    25   6  12    25   6  12    25   6  12    25   6  12    25   6  12    25   6  12    25   6  12    25   6  12    25   6  12    25   6  12    25   6  12    25   6  12    25   6  12    25   6  12    25   6  12    25   6  12    25   6  12    25   6  12    24   6  12    23   6  12    24   6  12    25   6  12    25   6  12    25   6  12    25   6  12    25   5  12    26   5  12    25   4  11    24   3  10    23   2   9    21   1   7    20   1   7    21   2   8    19   1   7    19   2   8    20   5  10    22   7  12    20   8  12    19   7  11    19   8  12    18   9  12    18   9  12  
   0   0   0     0   0   0     0   0   0     0   0   0     0   0   0     0   0   0     0   0   0     0   0   0     0   0   0     0   0   0    25   6  12    25   6  12    25   6  12    25   6  12    25   6  12    25   6  12    25   6  12    25   6  12    25   6  12    25   6  12    25   6  12    25   6  12    25   6  12    25   6  12    25   6  12    25   6  12    25   6  12    25   6  12    25   6  12    25   6  12    25   6  12    25   6  12    25   6  12    25   6  12    25   6  12    25   6  12    25   6  12    25   6  12    25   6  12    25   6  12    25   6  12    25   6  12    25   6  12    25   6  12    24   5  11    24   5  11    23   4  10    22   3   9    20   1   7    20   1   7    21   2   8    18   1   7    19   2   8    20   5  10    22   7  12    20   8  12    19   7  11    19   8  12    18   9  12    18   9  12  
   0   0   0     0   0   0     0   0   0     0   0   0     0   0   0     0   0   0     0   0   0     0   0   0     0   0   0     0   0   0    25   6  12    25   6  12    25   6  12    25   6  12    25   6  12    25   6  12    25   6  12    25   6  12    25   6  12    25   6  12    25   6  12    25   6  12    25   6  12    25   6  12    25   6  12    25   6  12    25   6  12    25   6  12    25   6  12    25   6  12    25   6  12    25   6  12    25   6  12    25   6  12    25   6  12    25   6  12    25   6  12    25   6  12    25   6  12    25   6  12    25   6  12    25   6  12    25   6  12    24   5  11    24   5  11    23   4  10    20   3   9    19   2   8    18   1   7    18   1   7    19   2   8    18   1   7    18   2   8    20   5  10    22   7  12    20   8  12    19   7  11    18   7  11    17   8  11    17   8  11  
   0   0   0     0   0   0     0   0   0     0   0   0     0   0   0     0   0   0     0   0   0     0   0   0     0   0   0     0   0   0    25   6  12    25   6  12    25   6  12    25   6  12    25   6  12    25   6  12    25   6  12    25   6  12    25   6  12    25   6  12    25   6  12    25   6  12    25   6  12    25   6  12    25   6  12    25   6  12    25   6  12    25   6  12    25   6  12    25   6  12    25   6  12    25   6  12    25   6  12    25   6  12    25   6  12    25   6  12    25   5  12    26   5  12    26   5  12    26   5  12    26   5  12    25   5  12    25   6  12    22   5  11    21   4  10    20   3   9    20   3   9    19   3   8    17   2   7    17   2   7    18   3   8    17   2   7    18   3   8    20   5  10    20   8  12    20   8  12    18   6  10    16   5   9    15   5   9    15   6   9  
   0   0   0     0   0   0     0   0   0     0   0   0     0   0   0     0   0   0     0   0   0     0   0   0     0   0   0     0   0   0    25   6  12    25   6  12    25   6  12    25   6  12    25   6  12    25   6  12    25   6  12    25   6  12    25   6  12    25   6  12    25   6  12    25   6  12    25   6  12    25   6  12    25   6  12    25   6  12    25   6  12    25   6  12    25   6  12    25   6  12    25   6  12    25   6  12    25   6  12    25   6  12    25   6  12    25   6  12    25   5  12    27   5  12    26   5  12    26   5  12    26   5  12    25   6  12    24   6  12    21   4  10    19   4   9    19   4   9    19   4   9    17   4   8    15   3   7    15   3   7    16   4   8    17   2   7    18   3   8    19   6  10    20   8  12    20   8  12    17   6  10    15   4   8    14   5   8    14   5   8  
   0   0   0     0   0   0     0   0   0     0   0   0     0   0   0     0   0   0     0   0   0     0   0   0     0   0   0     0   0   0    25   6  12    25   6  12    25   6  12    25   6  12    25   6  12    25   6  12    25   6  12    25   6  12    25   6  12    25   6  12    25   6  12    25   6  12    25   6  12    25   6  12    25   6  12    25   6  12    25   6  12    25   6  12    25   6  12    25   6  12    25   6  12    25   6  12    25   6  12    25   6  12    25   6  12    25   6  12    26   5  12    27   4  12    26   5  12    26   5  12    25   6  12    25   6  12    24   6  12    21   4  10    19   4   9    19   4   9    16   4   8    16   4   8    15   4   8    14   3   7    16   4   8    15   3   7    16   4   8    18   6  10    20   8  12    19   8  12    17   6  10    15   5   8    14   5   8    14   5   8  
   0   0   0     0   0   0     0   0   0     0   0   0     0   0   0     0   0   0     0   0   0     0   0   0     0   0   0     0   0   0    25   6  12    25   6  12    25   6  12    25   6  12    25   6  12    25   6  12    25   6  12    25   6  12    25   6  12    25   6  12    25   6  12    25   6  12    25   6  12    25   6  12    25   6  12    25   6  12    25   6  12    25   6  12    25   6  12    25   6  12    25   6  12    25   6  12    25   6  12    25   6  12    25   6  12    25   6  12    25   5  12    26   5  12    26   5  12    25   6  12    25   6  12    23   6  12    23   7  12    20   5  10    16   4   8    16   4   8    15   4   8    15   5   8    14   5   8    14   5   8    15   4   8    15   3   7    16   4   8    18   6  10    19   8  12    19   8  12    17   7  10    15   6   9    15   6   9    15   6   9  
   0   0   0     0   0   0     0   0   0     0   0   0     0   0   0     0   0   0     0   0   0     0   0   0     0   0   0     0   0   0    25   6  12    25   5  12    24   5  11    24   5  10    24   5  11    25   6  12    25   7  13    25   6  12    25   6  12    25   6  12    25   6  12    26   7  13    26   7  13    25   6  12    25   6  12    25   6  12    25   6  12    25   6  12    25   6  12    25   6  12    25   6  12    25   6  12    25   6  12    25   6  12    25   6  12    25   6  12    25   5  12    25   4  11    25   5  12    26   7  13    22   4   9    18   1   7    18   2   7    19   4   9    17   5   9    17   5   9    16   5   9    16   6   9    15   6   9    15   6   9    16   5   9    16   5   9    16   5   9    16   5   9    16   5   9    16   5   9    15   6   9    15   6   9    15   6   9    15   6   9  
   0   0   0     0   0   0     0   0   0     0   0   0     0   0   0     0   0   0     0   0   0     0   0   0     0   0   0     0   0   0    26   7  13    25   5  12    24   5  11    24   5  11    25   6  12    25   6  12    25   6  12    24   5  11    24   5  11    25   6  12    25   6  12    25   6  12    26   7  13    25   6  12    25   6  12    25   6  12    25   6  12    25   6  12    25   6  12    25   6  12    25   6  12    25   6  12    25   6  12    25   6  12    25   6  12    25   6  12    25   5  12    24   5  11    25   5  12    24   7  13    20   4   9    17   2   7    16   3   7    17   5   9    16   5   9    16   5   9    15   5   9    15   6   9    13   7   9    13   7   9    15   6   9    16   5   9    16   5   9    16   5   9    16   5   9    15   6   9    15   6   9    15   6   9    15   6   9    15   6   9  
   0   0   0     0   0   0     0   0   0     0   0   0     0   0   0     0   0   0     0   0   0     0   0   0     0   0   0     0   0   0    26   7  13    25   6  12    25   6  12    24   5  11    24   5  11    25   6  12    25   6  12    23   4  10    24   5  10    24   5  11    24   5  11    25   6  12    25   6  12    25   6  12    25   6  12    25   6  12    25   6  12    25   6  12    25   6  12    25   6  12    25   6  12    25   6  12    25   6  12    25   6  12    25   6  12    25   6  12    25   5  12    23   5  11    23   5  12    23   8  13    20   5  10    17   2   7    16   3   7    17   5   9    16   5   9    16   5   9    15   6   9    15   6   9    13   7   9    13   7   9    15   6   9    15   6   9    15   6   9    15   6   9    15   6   9    15   6   9    15   6   9    15   6   9    15   6   9    15   6   9  
   0   0   0     0   0   0     0   0   0     0   0   0     0   0   0     0   0   0     0   0   0     0   0   0     0   0   0     0   0   0    25   6  12    24   5  10    23   4  10    22   3   9    23   4  10    23   4  10    23   4  10    22   3   9    23   4  10    23   4  10    24   5  11    24   5  11    25   6  12    25   6  12    25   6  12    25   6  12    25   6  12    25   6  12    25   6  12    25   6  12    25   6  12    25   6  12    25   6  12    25   6  12    25   6  12    25   6  12    24   6  12    22   6  12    22   7  12    21   9  13    19   7  10    15   3   7    15   3   7    16   5   9    16   5   9    15   6   9    15   6   9    15   6   9    15   6   9    15   6   9    15   6   9    15   6   9    15   6   9    15   6   9    15   6   9    15   6   9    15   6   9    15   6   9    15   6   9    15   6   9  
   0   0   0     0   0   0     0   0   0     0   0   0     0   0   0     0   0   0     0   0   0     0   0   0     0   0   0     0   0   0    24   5  11    23   4  10    22   3   9    21   2   8    21   2   8    21   2   8    22   3   9    22   3   9    22   3   9    23   4  10    24   5  11    24   5  11    25   6  12    25   6  12    25   6  12    25   6  12    25   6  12    25   6  12    25   6  12    25   6  12    25   6  12    25   6  12    25   6  12    25   6  12    25   6  12    25   6  12    23   6  12    21   8  12    20   8  12    21   9  13    18   7  10    14   3   7    15   4   8    16   5   9    16   5   9    16   5   9    16   5   9    16   5   9    16   5   9    15   6   9    15   6   9    13   7   9    13   7   9    13   7   9    13   7   9    13   7   9    13   7   9    13   7   9    14   6   9    15   6   9  
   0   0   0     0   0   0     0   0   0     0   0   0     0   0   0     0   0   0     0   0   0     0   0   0     0   0   0     0   0   0    24   5  11    23   4  10    21   2   8    20   1   7    20   1   7    20   1   7    21   2   8    21   2   8    22   3   9    23   4  10    24   5  11    25   6  12    26   7  13    25   6  12    25   6  12    25   6  12    25   6  12    25   6  12    25   6  12    25   6  12    25   6  12    25   6  12    25   6  12    25   6  12    25   6  12    25   6  12    22   6  12    20   8  12    20   9  13    21  10  14    18   7  11    15   4   8    15   4   8    16   5   9    16   5   9    16   5   9    16   5   9    16   5   9    16   5   9    16   5   9    13   7   9    13   7   9    13   7   9    13   7   9    13   7   9    13   7   9    13   7   9    13   7   9    14   6   9    15   6   9  
   0   0   0     0   0   0     0   0   0     0   0   0     0   0   0     0   0   0     0   0   0     0   0   0     0   0   0     0   0   0    25   6  12    24   5  10    23   4  10    21   2   8    21   2   8    21   2   8    21   2   8    21   2   8    22   3   9    23   4  10    24   5  11    25   6  12    26   7  13    25   6  12    25   6  12    25   6  12    25   6  12    25   6  12    25   6  12    25   6  12    25   6  12    25   6  12    25   6  12    25   6  12    25   6  12    25   6  12    22   6  12    19   9  12    19  10  13    20  11  14    17   9  12    14   5   8    14   5   8    15   5   9    16   5   9    16   5   9    16   5   9    16   5   9    17   5   9    16   5   9    13   7   9    12   8   9    13   7   9    13   7   9    13   7   9    13   7   9    13   7   9    13   7   9    14   6   9    15   6   9  
   0   0   0     0   0   0     0   0   0     0   0   0     0   0   0     0   0   0     0   0   0     0   0   0     0   0   0     0   0   0    26   7  13    25   6  12    24   5  11    22   3   9    22   3   9    22   3   9    22   3   9    21   2   8    22   3   9    23   4  10    25   6  12    26   7  13    27   8  14    26   6  12    25   6  12    25   6  12    25   6  12    25   6  12    25   6  12    25   6  12    25   6  12    25   6  12    25   6  12    25   6  12    25   6  12    25   6  12    22   7  12    19   9  13    19  10  13    20  11  14    17   9  12    14   5   8    14   5   8    15   5   9    16   5   9    16   5   9    16   5   9    16   5   9    16   5   9    16   5   9    13   7   9    13   7   9    13   7   9    13   7   9    13   7   9    13   7   9    13   7   9    13   7   9    14   6   9    15   6   9  
   0   0   0     0   0   0     0   0   0     0   0   0     0   0   0     0   0   0     0   0   0     0   0   0     0   0   0     0   0   0    22   3   9    25   6  12    28   9  15    27   8  14    26   7  13    26   7  13    26   7  13    25   6  12    25   6  12    25   6  12    25   6  12    25   6  12    25   6  12    25   6  12    25   6  12    25   6  12    25   6  12    25   6  12    25   6  12    25   6  12    25   6  12    25   6  12    25   6  12    25   6  12    25   6  12    25   6  12    22   7  12    19   9  12    16   7  10    18   9  12    17   8  11    14   5   8    15   6   9    15   6   9    15   6   9    15   6   9    15   6   9    15   6   9    15   6   9    15   6   9    15   6   9    15   6   9    15   6   9    15   6   9    15   6   9    15   6   9    15   6   9    15   6   9    15   6   9    15   6   9  
   0   0   0     0   0   0     0   0   0     0   0   0     0   0   0     0   0   0     0   0   0     0   0   0     0   0   0     0   0   0    23   4  10    25   6  12    26   7  13    25   6  12    25   6  12    25   6  12    25   7  13    25   6  12    25   6  12    25   6  12    25   6  12    25   6  12    25   6  12    25   6  12    25   6  12    25   6  12    25   6  12    25   6  12    25   6  12    25   6  12    25   6  12    25   6  12    25   6  12    25   6  12    25   6  12    25   6  12    22   7  12    19   9  12    17   8  11    18   9  12    17   8  11    15   5   9    15   6   9    15   6   9    15   6   9    15   6   9    15   6   9    15   6   9    15   6   9    15   6   9    15   6   9    15   6   9    15   6   9    15   6   9    15   6   9    15   6   9    15   6   9    15   6   9    15   6   9    15   6   9  
   0   0   0     0   0   0     0   0   0     0   0   0     0   0   0     0   0   0     0   0   0     0   0   0     0   0   0     0   0   0    25   6  12    25   6  12    25   6  12    23   4  10    22   3   9    24   5  11    25   6  12    25   6  12    25   6  12    25   6  12    25   6  12    25   6  12    25   6  12    25   6  12    25   6  12    25   6  12    25   6  12    25   6  12    25   6  12    25   6  12    25   6  12    25   6  12    25   6  12    25   6  12    25   6  12    25   6  12    22   7  12    20  10  13    17   8  11    18   9  12    17   8  11    15   6   9    16   7  10    15   6   9    15   6   9    15   6   9    15   6   9    15   6   9    15   6   9    15   6   9    15   6   9    15   6   9    15   6   9    15   6   9    15   6   9    15   6   9    15   6   9    15   6   9    15   6   9    15   6   9  
   0   0   0     0   0   0     0   0   0     0   0   0     0   0   0     0   0   0     0   0   0     0   0   0     0   0   0     0   0   0    26   7  13    25   5  12    23   4  10    21   1   7    20   1   7    22   3   9    25   6  12    25   6  12    25   6  12    25   6  12    25   6  12    25   6  12    25   6  12    25   6  12    25   6  12    25   6  12    25   6  12    25   6  12    25   6  12    25   6  12    25   6  12    25   6  12    25   6  12    25   6  12    25   6  12    25   6  12    22   7  12    20  10  13    17   8  11    18   9  12    18   9  12    15   6   9    16   7  10    15   6   9    15   6   9    15   6   9    15   6   9    15   6   9    15   6   9    15   6   9     0   0   0     0   0   0     0   0   0     0   0   0     0   0   0     0   0   0     0   0   0     0   0   0     0   0   0     0   0   0  
  25   6  12    25   6  12    25   6  12    25   7  13    26   7  13    26   7  13    25   7  13    25   6  12    24   5  11    24   5  11    25   6  12    24   5  11    22   3   9    20   1   6    19   1   6    22   3   9    24   5  11    25   6  12    25   6  12    25   6  12    25   6  12    25   6  12    25   6  12    25   5  12    26   5  12    26   5  12    26   5  12    26   5  12    26   5  12    26   5  12    26   5  12    26   5  12    26   5  12    26   5  12    26   5  12    26   5  12    22   7  12    19   9  12    17   8  11    18   9  12    17   8  11    15   5   9    15   6   9    15   6   9    15   6   9    15   6   9    15   6   9    15   6   9    15   6   9    15   6   9     0   0   0     0   0   0     0   0   0     0   0   0     0   0   0     0   0   0     0   0   0     0   0   0     0   0   0     0   0   0  
  25   6  12    25   6  12    25   6  12    25   7  13    26   7  13    26   7  13    25   5  12    24   5  11    23   4  10    23   4  10    24   5  11    23   4  10    21   2   8    19   1   6    20   1   7    22   3   9    24   5  11    25   6  12    25   6  12    25   6  12    25   6  12    25   6  12    25   6  12    25   5  12    26   5  12    26   5  12    26   5  12    26   5  12    26   5  12    26   5  12    26   5  12    26   5  12    26   5  12    26   5  12    26   5  12    26   5  12    22   7  12    19   9  12    16   7  10    17   8  11    17   8  11    14   5   8    15   6   9    15   6   9    15   6   9    15   6   9    15   6   9    15   6   9    15   6   9    15   6   9     0   0   0     0   0   0     0   0   0     0   0   0     0   0   0     0   0   0     0   0   0     0   0   0     0   0   0     0   0   0  
  25   6  12    25   6  12    25   6  12    25   7  13    26   7  13    25   6  12    24   5  10    23   4  10    22   3   9    22   3   9    22   3   9    22   3   9    22   3   9    20   1   7    20   1   7    23   4  10    25   6  12    25   6  12    25   6  12    25   6  12    25   6  12    25   6  12    25   6  12    25   5  12    26   5  12    26   5  12    26   5  12    26   5  12    26   5  12    26   5  12    26   5  12    26   5  12    26   5  12    26   5  12    26   5  12    26   5  12    23   6  12    18   8  11    15   6   9    17   8  11    16   7  10    14   5   8    14   5   8    15   6   9    15   6   9    15   6   9    15   6   9    15   6   9    15   6   9    15   6   9     0   0   0     0   0   0     0   0   0     0   0   0     0   0   0     0   0   0     0   0   0     0   0   0     0   0   0     0   0   0  
  25   6  12    25   6  12    25   6  12    25   6  12    25   6  12    25   6  12    24   5  10    23   4  10    22   3   9    21   2   8    20   1   7    21   2   8    22   3   9    21   2   8    21   2   8    23   4  10    25   6  12    25   6  12    25   6  12    25   6  12    25   6  12    25   6  12    25   6  12    25   5  12    26   5  12    26   5  12    26   5  12    26   5  12    26   5  12    26   5  12    26   5  12    26   5  12    26   5  12    26   5  12    26   5  12    26   5  12    21   6  12    17   7  10    15   6   9    16   7  10    15   6   9    13   4   7    14   5   8    15   5   9    15   6   9    15   6   9    15   6   9    15   6   9    15   6   9    15   6   9     0   0   0     0   0   0     0   0   0     0   0   0     0   0   0     0   0   0     0   0   0     0   0   0     0   0   0     0   0   0  
  25   6  12    25   6  12    25   6  12    26   7  13    25   6  12    23   4  10    21   2   8    20   1   7    20   1   7    20   1   7    20   1   7    21   2   8    21   2   8    20   1   7    20   1   7    22   3   9    24   5  11    25   6  12    25   6  12    25   6  12    25   6  12    25   6  12    25   6  12    24   5  11    24   5  11    24   5  11    25   6  12    25   6  12    25   7  13    26   7  13    24   5  11    24   5  11    24   5  11    25   5  12    25   6  12    25   6  12    21   5  11    16   6   9    15   6   9    15   6   9    15   6   9    15   6   9    15   6   9    15   6   9    15   6   9    15   6   9    15   6   9    15   6   9    15   6   9    15   6   9     0   0   0     0   0   0     0   0   0     0   0   0     0   0   0     0   0   0     0   0   0     0   0   0     0   0   0     0   0   0  
  25   6  12    25   6  12    25   6  12    25   7  13    25   6  12    24   5  11    22   3   9    21   2   8    21   2   8    21   2   8    21   2   8    22   3   9    22   3   9    20   1   7    20   1   7    22   3   9    24   5  11    25   6  12    25   6  12    25   6  12    25   6  12    25   6  12    25   6  12    24   5  11    22   5  11    22   5  11    23   6  12    24   7  13    24   7  13    24   7  13    23   6  12    23   6  12    23   6  12    23   6  12    22   5  11    22   5  11    19   5  10    16   6   9    15   6   9    15   6   9    15   6   9    15   6   9    15   6   9    15   6   9    15   6   9    15   6   9    15   6   9    15   6   9    15   6   9    15   6   9     0   0   0     0   0   0     0   0   0     0   0   0     0   0   0     0   0   0     0   0   0     0   0   0     0   0   0     0   0   0  
  25   6  12    25   6  12    25   6  12    25   6  12    25   6  12    24   5  11    23   4  10    23   4  10    23   4  10    23   4  10    23   4  10    23   4  10    23   4  10    21   1   7    20   1   7    22   3   9    23   5  11    25   6  12    25   6  12    25   6  12    25   6  12    25   6  12    25   6  12    23   6  12    23   6  12    23   6  12    23   6  12    24   7  13    24   7  13    24   7  13    23   6  12    23   6  12    23   6  12    22   5  11    22   5  11    21   4  10    19   5  10    16   6   9    15   6   9    15   6   9    15   6   9    15   6   9    15   6   9    15   6   9    15   6   9    15   6   9    15   6   9    15   6   9    15   6   9    15   6   9     0   0   0     0   0   0     0   0   0     0   0   0     0   0   0     0   0   0     0   0   0     0   0   0     0   0   0     0   0   0  
  25   6  12    25   6  12    25   6  12    24   5  11    24   5  11    24   5  11    24   5  11    24   5  11    25   5  12    25   6  12    24   5  11    24   5  11    23   4  10    21   2   8    20   1   7    21   2   8    23   5  11    25   6  12    25   6  12    25   6  12    25   6  12    25   6  12    24   6  12    22   7  12    20   8  12    20   8  12    20   8  12    21   9  13    21   9  13    21   9  13    21   9  13    21   9  13    21   9  13    19   7  11    18   6  10    17   5   9    16   4   8    16   6   9    15   6   9    15   6   9    15   6   9    15   6   9    15   6   9    15   6   9    15   6   9    15   6   9    15   6   9    15   6   9    15   6   9    15   6   9     0   0   0     0   0   0     0   0   0     0   0   0     0   0   0     0   0   0     0   0   0     0   0   0     0   0   0     0   0   0  
  25   6  12    25   6  12    25   6  12    24   5  11    24   5  11    25   6  12    25   6  12    25   6  12    25   6  12    25   6  12    24   5  11    24   5  11    23   4  10    21   2   8    20   1   7    21   2   8    23   5  11    25   6  12    25   6  12    25   6  12    25   6  12    25   6  12    24   6  12    21   8  13    20   8  12    20   8  12    20   8  12    20   8  12    20   8  12    20   8  12    20   8  12    20   8  12    21   9  13    20   8  12    18   6  10    16   4   8    14   4   7    15   6   9    15   6   9    15   6   9    15   6   9    15   6   9    15   6   9    15   6   9    15   6   9    15   6   9    15   6   9    15   6   9    15   6   9    15   6   9     0   0   0     0   0   0     0   0   0     0   0   0     0   0   0     0   0   0     0   0   0     0   0   0     0   0   0     0   0   0  
  25   6  12    25   6  12    25   6  12    24   5  11    24   5  11    25   6  12    26   7  13    26   7  13    25   6  12    25   6  12    23   4  10    23   4  10    23   4  10    21   1   7    20   1   7    22   3   9    23   5  11    25   6  12    25   6  12    25   6  12    25   6  12    25   6  12    24   6  12    21   7  12    19   8  12    19   8  12    19   8  12    18   7  11    18   7  11    18   7  11    17   6  10    18   7  11    20   9  13    19   8  12    17   6  10    16   5   9    15   5   8    15   6   9    15   6   9    15   6   9    15   6   9    15   6   9    15   6   9    15   6   9    15   6   9    15   6   9    15   6   9    15   6   9    15   6   9    15   6   9     0   0   0     0   0   0     0   0   0     0   0   0     0   0   0     0   0   0     0   0   0     0   0   0     0   0   0     0   0   0  
  25   6  12    25   6  12    25   6  12    24   5  11    25   6  12    26   7  13    26   7  13    26   7  13    24   5  11    24   5  11    21   2   8    22   3   9    22   3   9    20   1   7     0   0   0     0   0   0     0   0   0     0   0   0     0   0   0     0   0   0     0   0   0     0   0   0     0   0   0     0   0   0     0   0   0     0   0   0     0   0   0     0   0   0     0   0   0     0   0   0     0   0   0     0   0   0     0   0   0     0   0   0     0   0   0     0   0   0     0   0   0     0   0   0    15   6   9    15   6   9    15   6   9    15   6   9    15   6   9    15   6   9    15   6   9    15   6   9    15   6   9    15   6   9    15   6   9    15   6   9     0   0   0     0   0   0     0   0   0     0   0   0     0   0   0     0   0   0     0   0   0     0   0   0     0   0   0     0   0   0  
  25   6  12    25   6  12    25   6  12    25   6  12    25   6  12    26   7  13    26   7  13    26   7  13    23   5  11    23   4  10    20   1   7    21   2   8    21   2   8    20   1   7     0   0   0     0   0   0     0   0   0     0   0   0     0   0   0     0   0   0     0   0   0     0   0   0     0   0   0     0   0   0     0   0   0     0   0   0     0   0   0     0   0   0     0   0   0     0   0   0     0   0   0     0   0   0     0   0   0     0   0   0     0   0   0     0   0   0     0   0   0     0   0   0    15   6   9    15   6   9    15   6   9    15   6   9    15   6   9    15   6   9    15   6   9    15   6   9    15   6   9    15   6   9    15   6   9    15   6   9     0   0   0     0   0   0     0   0   0     0   0   0     0   0   0     0   0   0     0   0   0     0   0   0     0   0   0     0   0   0  
  25   6  12    25   6  12    25   6  12    25   6  12    25   6  12    26   7  13    26   7  13    26   7  13    24   5  11    23   4  10    20   1   7    21   2   8    22   1   8    20   1   6     0   0   0     0   0   0     0   0   0     0   0   0     0   0   0     0   0   0     0   0   0     0   0   0     0   0   0     0   0   0     0   0   0     0   0   0     0   0   0     0   0   0     0   0   0     0   0   0     0   0   0     0   0   0     0   0   0     0   0   0     0   0   0     0   0   0     0   0   0     0   0   0    15   6   9    15   6   9    15   6   9    15   6   9    15   6   9    15   6   9    15   6   9    15   6   9    15   6   9    15   6   9    15   6   9    15   6   9     0   0   0     0   0   0     0   0   0     0   0   0     0   0   0     0   0   0     0   0   0     0   0   0     0   0   0     0   0   0  
  25   6  12    25   6  12    25   6  12    25   6  12    25   6  12    26   7  13    26   7  13    26   7  13    24   5  11    23   4  10    21   2   8    21   2   8    22   1   8    21   1   7     0   0   0     0   0   0     0   0   0     0   0   0     0   0   0     0   0   0     0   0   0     0   0   0     0   0   0     0   0   0     0   0   0     0   0   0     0   0   0     0   0   0     0   0   0     0   0   0     0   0   0     0   0   0     0   0   0     0   0   0     0   0   0     0   0   0     0   0   0     0   0   0    15   6   9    15   6   9    15   6   9    15   6   9    15   6   9    15   6   9    15   6   9    15   6   9    15   6   9    15   6   9    15   6   9    15   6   9     0   0   0     0   0   0     0   0   0     0   0   0     0   0   0     0   0   0     0   0   0     0   0   0     0   0   0     0   0   0  
