P3
56 62
255
   0   0   0     0   0   0     0   0   0     0   0   0     0   0   0     0   0   0    28   9  15    28   9  15    28   9  15    28   9  15    28   9  15    28   9  15    28   9  15    28   9  15    28   9  15    28   9  15     0   0   0     0   0   0     0   0   0     0   0   0     0   0   0     0   0   0     0   0   0     0   0   0     0   0   0     0   0   0     0   0   0     0   0   0     0   0   0     0   0   0     0   0   0     0   0   0     0   0   0    28   9  15    28   9  15    28   9  15    28   9  15    28   9  15    28   9  15    28   9  15    28   9  15    28   9  15    28   9  15    28   9  15    28   9  15    28   9  15    28   9  15    28   9  15    28   9  15    28   9  15    28   9  15    28   9  15    28   9  15    28   9  15    28   9  15    28   9  15  
   0   0   0     0   0   0     0   0   0     0   0   0     0   0   0     0   0   0    28   9  15    28   9  15    28   9  15    28   9  15    28   9  15    28   9  15    28   9  15    28   9  15    28   9  15    28   9  15     0   0   0     0   0   0     0   0   0     0   0   0     0   0   0     0   0   0     0   0   0     0   0   0     0   0   0     0   0   0     0   0   0     0   0   0     0   0   0     0   0   0     0   0   0     0   0   0     0   0   0    28   9  15    28   9  15    28   9  15    28   9  15    28   9  15    28   9  15    28   9  15    28   9  15    28   9  15    28   9  15    28   9  15    28   9  15    28   9  15    28   9  15    28   9  15    28   9  15    28   9  15    28   9  15    28   9  15    28   9  15    28   9  15    28   9  15    28   9  15  
   0   0   0     0   0   0     0   0   0     0   0   0     0   0   0     0   0   0    28   9  15    28   9  15    28   9  15    28   9  15    28   9  15    28   9  15    28   9  15    28   9  15    28   9  15    28   9  15     0   0   0     0   0   0     0   0   0     0   0   0     0   0   0     0   0   0     0   0   0     0   0   0     0   0   0     0   0   0     0   0   0     0   0   0     0   0   0     0   0   0     0   0   0     0   0   0     0   0   0    28   9  15    28   9  15    28   9  15    28   9  15    28   9  15    28   9  15    28   9  15    28   9  15    28   9  15    28   9  15    28   9  15    28   9  15    28   9  15    28   9  15    28   9  15    28   9  15    28   9  15    28   9  15    28   9  15    28   9  15    28   9  15    28   9  15    28   9  15  
   0   0   0     0   0   0     0   0   0     0   0   0     0   0   0     0   0   0    28   9  15    28   9  15    28   9  15    28   9  15    28   9  15    28   9  15    28   9  15    28   9  15    28   9  15    28   9  15     0   0   0     0   0   0     0   0   0     0   0   0     0   0   0     0   0   0     0   0   0     0   0   0     0   0   0     0   0   0     0   0   0     0   0   0     0   0   0     0   0   0     0   0   0     0   0   0     0   0   0    28   9  15    28   9  15    28   9  15    28   9  15    28   9  15    28   9  15    28   9  15    28   9  15    28   9  15    28   9  15    28   9  15    28   9  15    28   9  15    28   9  15    28   9  15    28   9  15    28   9  15    28   9  15    28   9  15    28   9  15    28   9  15    28   9  15    28   9  15  
   0   0   0     0   0   0     0   0   0     0   0   0     0   0   0     0   0   0    28   9  15    28   9  15    28   9  15    28   9  15    28   9  15    28   9  15    28   9  15    28   9  15    28   9  15    28   9  15     0   0   0     0   0   0     0   0   0     0   0   0     0   0   0     0   0   0     0   0   0     0   0   0     0   0   0     0   0   0     0   0   0     0   0   0     0   0   0     0   0   0     0   0   0     0   0   0     0   0   0    28   9  15    28   9  15    28   9  15    28   9  15    28   9  15    28   9  15    28   9  15    28   9  15    28   9  15    28   9  15    28   9  15    28   9  15    28   9  15    28   9  15    28   9  15    28   9  15    28   9  15    28   9  15    28   9  15    28   9  15    28   9  15    28   9  15    28   9  15  
   0   0   0     0   0   0     0   0   0     0   0   0     0   0   0     0   0   0    28   9  15    28   9  15    28   9  15    28   9  15    28   9  15    28   9  15    28   9  15    28   9  15    28   9  15    28   9  15     0   0   0     0   0   0     0   0   0     0   0   0     0   0   0     0   0   0     0   0   0     0   0   0     0   0   0     0   0   0     0   0   0     0   0   0     0   0   0     0   0   0     0   0   0     0   0   0     0   0   0    28   9  15    28   9  15    28   9  15    28   9  15    28   9  15    28   9  15    28   9  15    28   9  15    28   9  15    28   9  15    28   9  15    28   9  15    28   9  15    28   9  15    28   9  15    28   9  15    28   9  15    28   9  15    28   9  15    28   9  15    28   9  15    28   9  15    28   9  15  
   0   0   0     0   0   0     0   0   0     0   0   0     0   0   0     0   0   0    28   9  15    28   9  15    28   9  15    28   9  15    28   9  15    28   9  15    28   9  15    28   9  15    28   9  15    28   9  15     0   0   0     0   0   0     0   0   0     0   0   0     0   0   0     0   0   0     0   0   0     0   0   0     0   0   0     0   0   0     0   0   0     0   0   0     0   0   0     0   0   0     0   0   0     0   0   0     0   0   0    28   9  15    28   9  15    28   9  15    28   9  15    28   9  15    28   9  15    28   9  15    28   9  15    28   9  15    28   9  15    28   9  15    28   9  15    28   9  15    28   9  15    28   9  15    28   9  15    28   9  15    28   9  15    28   9  15    28   9  15    28   9  15    28   9  15    28   9  15  
   0   0   0     0   0   0     0   0   0     0   0   0     0   0   0     0   0   0    28   9  15    28   9  15    28   9  15    28   9  15    28   9  15    28   9  15    28   9  15    28   9  15    28   9  15    28   9  15     0   0   0     0   0   0     0   0   0     0   0   0     0   0   0     0   0   0     0   0   0     0   0   0     0   0   0     0   0   0     0   0   0     0   0   0     0   0   0     0   0   0     0   0   0     0   0   0     0   0   0    28   9  15    28   9  15    28   9  15    28   9  15    28   9  15    28   9  15    28   9  15    28   9  15    28   9  15    28   9  15    28   9  15    28   9  15    28   9  15    28   9  15    28   9  15    28   9  15    28   9  15    28   9  15    28   9  15    28   9  15    28   9  15    28   9  15    28   9  15  
   0   0   0     0   0   0     0   0   0     0   0   0     0   0   0     0   0   0    28   9  15    28   9  15    28   9  15    28   9  15    28   9  15    28   9  15    28   9  15    28   9  15    28   9  15    28   9  15     0   0   0     0   0   0     0   0   0     0   0   0     0   0   0     0   0   0     0   0   0     0   0   0     0   0   0     0   0   0     0   0   0     0   0   0     0   0   0     0   0   0     0   0   0     0   0   0     0   0   0    28   9  15    28   9  15    28   9  15    28   9  15    28   9  15    28   9  15    28   9  15    28   9  15    28   9  15    28   9  15    28   9  15    28   9  15    28   9  15    28   9  15    28   9  15    28   9  15    28   9  15    28   9  15    28   9  15    28   9  15    28   9  15    28   9  15    28   9  15  
   0   0   0     0   0   0     0   0   0     0   0   0     0   0   0     0   0   0    28   9  15    28   9  15    28   9  15    28   9  15    28   9  15    28   9  15    28   9  15    28   9  15    28   9  15    28   9  15    28   9  15    28   9  15    28   9  15    28   9  15    28   9  15    28   9  15    28   9  15    28   9  15    28   9  15    28   9  15    28   9  15    28   9  15    28   9  15    28   9  15    28   9  15    28   9  15    28   9  15    28   9  15    28   9  15    28   9  15    28   9  15    28   9  15    28   9  15    28   9  15    28   9  15    28   9  15    28   9  15    28   9  15    28   9  15    28   9  15    28   9  15    28   9  15    28   9  15    28   9  15    28   9  15    28   9  15    28   9  15    28   9  15    28   9  15    28   9  15  
   0   0   0     0   0   0     0   0   0     0   0   0     0   0   0     0   0   0    28   9  15    28   9  15    28   9  15    28   9  15    28   9  15    28   9  15    28   9  15    28   9  15    28   9  15    28   9  15    28   9  15    28   9  15    28   9  15    28   9  15    28   9  15    28   9  15    28   9  15    28   9  15    28   9  15    28   9  15    28   9  15    28   9  15    28   9  15    28   9  15    28   9  15    28   9  15    28   9  15    28   9  15    28   9  15    28   9  15    28   9  15    28   9  15    28   9  15    28   9  15    28   9  15    28   9  15    28   9  15    28   9  15    28   9  15    28   9  15    28   9  15    28   9  15    28   9  15    28   9  15    28   9  15    28   9  15    28   9  15    28   9  15    28   9  15    28   9  15  
  26   7  13    26   7  13    27   8  14    27   8  14    27   8  14    28   9  15    28   9  15    28   9  15    28   9  15    28   9  15    28   9  15    28   9  15    28   9  15    28   9  15    28   9  15    28   9  15    28   9  15    28   9  15    28   9  15    28   9  15    28   9  15    28   9  15    28   9  15    28   9  15    28   9  15    28   9  15    28   9  15    28   9  15    28   9  15    28   9  15    28   9  15    28   9  15    28   9  15    28   9  15    28   9  15    28   9  15    28   9  15    28   9  15    28   9  15    28   9  15    28   9  15    28   9  15    28   9  15    28   9  15    28   9  15    28   9  15    28   9  15    28   9  15    28   9  15    28   9  15    28   9  15    28   9  15    28   9  15    28   9  15    28   9  15    28   9  15  
  28   9  15    28   9  15    28   9  15    28   9  15    29  10  16    28   9  15    28   9  15    29  10  16    28   9  15    28   9  15    28   9  15    28   9  15    28   9  15    28   9  15    28   9  15    28   9  15    28   9  15    28   9  15    28   9  15    28   9  15    28   9  15    28   9  15    28   9  15    28   9  15    28   9  15    28   9  15    28   9  15    28   9  15    28   9  15    28   9  15    28   9  15    28   9  15    28   9  15    28   9  15    28   9  15    28   9  15    28   9  15    28   9  15    28   9  15    28   9  15    28   9  15    28   9  15    28   9  15    28   9  15    28   9  15    28   9  15    28   9  15    28   9  15    28   9  15    28   9  15    28   9  15    28   9  15    28   9  15    28   9  15    28   9  15    28   9  15  
  32  13  19    32  13  19    31  12  18    30  11  17    30  10  17    29  10  15    28   9  15    27   8  14    28   9  15    28   9  15    28   9  15    28   9  15    28   9  15    28   9  15    28   9  15    28   9  15    28   9  15    28   9  15    28   9  15    28   9  15    28   9  15    28   9  15    28   9  15    28   9  15    28   9  15    28   9  15    28   9  15    28   9  15    28   9  15    28   9  15    28   9  15    28   9  15    28   9  15    28   9  15    28   9  15    28   9  15    28   9  15    28   9  15    28   9  15    28   9  15    28   9  15    28   9  15    28   9  15    28   9  15    28   9  15    28   9  15    28   9  15    28   9  15    28   9  15    28   9  15    28   9  15    28   9  15    28   9  15    28   9  15    28   9  15    28   9  15  
  34  15  21    33  14  20    32  13  19    31  12  18    30  11  17    28   9  15    27   8  14    27   8  14    28   9  15    28   9  15    28   9  15    28   9  15    28   9  15    28   9  15    28   9  15    28   9  15    28   9  15    28   9  15    28   9  15    28   9  15    28   9  15    28   9  15    28   9  15    28   9  15    28   9  15    28   9  15    28   9  15    28   9  15    28   9  15    28   9  15    28   9  15    28   9  15    28   9  15    28   9  15    28   9  15    28   9  15    28   9  15    28   9  15    28   9  15    28   9  15    28   9  15    28   9  15    28   9  15    28   9  15    28   9  15    28   9  15    28   9  15    28   9  15    28   9  15    28   9  15    28   9  15    28   9  15    28   9  15    28   9  15    28   9  15    28   9  15  
  30  12  17    29  11  17    29  11  17    29  10  16    29  10  16    28   9  15    28   9  15    27   8  14    28   9  15    28   9  15    28   9  15    28   9  15    28   9  15    28   9  15    28   9  15    28   9  15    28   9  15    28   9  15    28   9  15    28   9  15    28   9  15    28   9  15    28   9  15    28   9  15    28   9  15    28   9  15    28   9  15    28   9  15    28   9  15    28   9  15    28   9  15    28   9  15    28   9  15    28   9  15    28   9  15    28   9  15    28   9  15    28   9  15    28   9  15    28   9  15    28   9  15    28   9  15    28   9  15    28   9  15    28   9  15    28   9  15    28   9  15    28   9  15    28   9  15    28   9  15    28   9  15    28   9  15    28   9  15    28   9  15    28   9  15    28   9  15  
  27   8  14    27   8  14    27   8  14    27   8  14    28   9  15    28   9  15    28   9  15    28   9  15    28   9  15    28   9  15    28   9  15    28   9  15    28   9  15    28   9  15    28   9  15    28   9  15    28   9  15    28   9  15    28   9  15    28   9  15    28   9  15    28   9  15    28   9  15    28   9  15    28   9  15    28   9  15    28   9  15    28   9  15    28   9  15    28   9  15    28   9  15    28   9  15    28   9  15    28   9  15    28   9  15    28   9  15    28   9  15    28   9  15    28   9  15    28   9  15    28   9  15    28   9  15    28   9  15    28   9  15    28   9  15    28   9  15    28   9  15    28   9  15    28   9  15    28   9  15    28   9  15    28   9  15    28   9  15    28   9  15    27   8  14    27   8  14  
  28   9  15    28   9  15    28   9  15    28   9  15    28   9  15    28   9  15    28   9  15    28   9  15    28   9  15    28   9  15    28   9  15    28   9  15    28   9  15    28   9  15    28   9  15    28   9  15    28   9  15    28   9  15    28   9  15    28   9  15    28   9  15    28   9  15    28   9  15    28   9  15    28   9  15    28   9  15    28   9  15    28   9  15    28   9  15    28   9  15    28   9  15    28   9  15    28   9  15    28   9  15    28   9  15    28   9  15    28   9  15    28   9  15    28   9  15    28   9  15    29  10  16    29  10  16    29  10  16    29  10  16    29  10  16    29  10  16    29  10  16    29  10  16    28   9  15    28   9  15    28   9  15    27   8  14    27   8  14    27   8  14    27   8  14    27   8  14  
  28   9  15    28   9  15    28   9  15    28   9  15    28   9  15    28   9  15    28   9  15    28   9  15    28   9  15    28   9  15    28   9  15    28   9  15    28   9  15    28   9  15    28   9  15    28   9  15    28   9  15    28   9  15    28   9  15    28   9  15    28   9  15    28   9  15    28   9  15    28   9  15    28   9  15    28   9  15    28   9  15    28   9  15    28   9  15    28   9  15    28   9  15    28   9  15    28   9  15    28   9  15    28   9  15    28   9  15    28   9  15    28   9  15    28   9  15    28   9  15    27   8  14    27   8  14    27   8  14    27   8  14    27   8  14    27   8  14    27   8  14    27   8  14    28   9  15    28   9  15    28   9  15    28   9  15    28   9  15    28   9  15    28   9  15    28   9  15  
  28   9  15    28   9  15    28   9  15    28   9  15    28   9  15    28   9  15    28   9  15    28   9  15    28   9  15    28   9  15    28   9  15    28   9  15    28   9  15    28   9  15    28   9  15    28   9  15    28   9  15    28   9  15    28   9  15    28   9  15    28   9  15    28   9  15    28   9  15    28   9  15    28   9  15    28   9  15    28   9  15    28   9  15    28   9  15    28   9  15    28   9  15    28   9  15    28   9  15    28   9  15    28   9  15    28   9  15    28   9  15    28   9  15    28   9  15    28   9  15    28   9  15    28   9  15    28   9  15    28   9  15    28   9  15    28   9  15    28   9  15    28   9  15    28   9  15    28   9  15    28   9  15    28   9  15    28   9  15    28   9  15    29  10  16    29  10  16  
  28   9  15    28   9  15    28   9  15    28   9  15    28   9  15    28   9  15    28   9  15    28   9  15    28   9  15    28   9  15    28   9  15    28   9  15    28   9  15    28   9  15    28   9  15    28   9  15    28   9  15    28   9  15    28   9  15    28   9  15    28   9  15    28   9  15    28   9  15    28   9  15    28   9  15    28   9  15    28   9  15    28   9  15    28   9  15    28   9  15    28   9  15    28   9  15    28   9  15    28   9  15    28   9  15    28   9  15    28   9  15    28   9  15    28   9  15    28   9  15    28   9  15    28   9  15    28   9  15    28   9  15    28   9  15    28   9  15    28   9  15    28   9  15    27   8  14    27   8  14    27   8  14    28   9  15    28   9  15    28   9  15    29  10  16    29  10  16  
  28   9  15    28   9  15    28   9  15    28   9  15    28   9  15    28   9  15    28   9  15    28   9  15    28   9  15    28   9  15    28   9  15    28   9  15    28   9  15    28   9  15    28   9  15    28   9  15    28   9  15    28   9  15    28   9  15    28   9  15    28   9  15    28   9  15    28   9  15    28   9  15    28   9  15    28   9  15    28   9  15    28   9  15    28   9  15    28   9  15    28   9  15    28   9  15    28   9  15    28   9  15    28   9  15    28   9  15    28   9  15    28   9  15    28   9  15    28   9  15    26   7  13    26   7  13    26   7  13    26   7  13    26   7  13    26   7  13    26   7  13    26   7  13    25   6  12    25   6  12    25   7  13    26   7  13    27   8  14    28   9  15    28   9  15    28   9  15  
  28   9  15    28   9  15    28   9  15    28   9  15    28   9  15    28   9  15    28   9  15    28   9  15    28   9  15    28   9  15    28   9  15    28   9  15    28   9  15    28   9  15    28   9  15    28   9  15    28   9  15    28   9  15    28   9  15    28   9  15    28   9  15    28   9  15    28   9  15    28   9  15    28   9  15    28   9  15    28   9  15    28   9  15    28   9  15    28   9  15    28   9  15    28   9  15    28   9  15    28   9  15    28   9  15    28   9  15    28   9  15    28   9  15    28   9  15    28   9  15    24   5  11    24   5  11    24   5  11    24   5  11    24   5  11    24   5  11    24   5  11    24   5  11    24   5  11    24   5  11    25   6  12    25   6  12    26   7  13    27   8  14    27   8  14    28   9  15  
  28   9  15    28   9  15    28   9  15    28   9  15    28   9  15    28   9  15    28   9  15    28   9  15    28   9  15    28   9  15    28   9  15    28   9  15    28   9  15    28   9  15    28   9  15    28   9  15    28   9  15    28   9  15    28   9  15    28   9  15    28   9  15    28   9  15    28   9  15    28   9  15    28   9  15    28   9  15    28   9  15    28   9  15    28   9  15    28   9  15    28   9  15    28   9  15    28   9  15    28   9  15    28   9  15    28   9  15    28   9  15    28   9  15    28   9  15    28   9  15    24   5  11    24   5  11    24   5  11    24   5  11    24   5  11    25   6  12    25   6  12    25   6  12    24   5  11    25   5  12    25   6  12    25   7  13    27   8  14    27   8  14    27   8  14    28   9  15  
   0   0   0     0   0   0     0   0   0     0   0   0     0   0   0     0   0   0    28   9  15    28   9  15    28   9  15    28   9  15    28   9  15    28   9  15    28   9  15    28   9  15    28   9  15    28   9  15    28   9  15    28   9  15    28   9  15    28   9  15    28   9  15    28   9  15    28   9  15    28   9  15    28   9  15    28   9  15    28   9  15    28   9  15    28   9  15    28   9  15    28   9  15    28   9  15    28   9  15    28   9  15    28   9  15    28   9  15    28   9  15    28   9  15    28   9  15    28   9  15    26   7  13    26   7  13    26   7  13    26   7  13    25   6  12    25   6  12    25   6  12    25   6  12    25   6  12    25   6  12    25   6  12    26   7  13    26   7  13    26   7  13    27   8  14    27   8  14  
   0   0   0     0   0   0     0   0   0     0   0   0     0   0   0     0   0   0    28   9  15    28   9  15    28   9  15    28   9  15    28   9  15    28   9  15    28   9  15    28   9  15    28   9  15    28   9  15    28   9  15    28   9  15    28   9  15    28   9  15    28   9  15    28   9  15    28   9  15    28   9  15    28   9  15    28   9  15    28   9  15    28   9  15    28   9  15    28   9  15    28   9  15    28   9  15    28   9  15    28   9  15    28   9  15    28   9  15    28   9  15    28   9  15    28   9  15    28   9  15    27   8  14    27   8  14    26   7  13    26   7  13    26   7  13    25   6  12    25   6  12    25   6  12    24   5  11    25   6  12    25   6  12    25   6  12    25   6  12    25   6  12    26   7  13    26   7  13  
   0   0   0     0   0   0     0   0   0     0   0   0     0   0   0     0   0   0    28   9  15    28   9  15    28   9  15    28   9  15    28   9  15    28   9  15    28   9  15    28   9  15    28   9  15    28   9  15    28   9  15    28   9  15    28   9  15    28   9  15    28   9  15    28   9  15    28   9  15    28   9  15    28   9  15    28   9  15    28   9  15    28   9  15    28   9  15    28   9  15    28   9  15    28   9  15    28   9  15    28   9  15    28   9  15    28   9  15    28   9  15    28   9  15    28   9  15    28   9  15    28   9  15    28   9  15    27   8  14    26   7  13    26   7  13    25   6  12    25   6  12    24   5  11    24   5  11    24   5  11    24   5  11    24   5  11    25   5  12    25   5  12    25   5  12    25   5  12  
   0   0   0     0   0   0     0   0   0     0   0   0     0   0   0     0   0   0    28   9  15    28   9  15    28   9  15    28   9  15    28   9  15    28   9  15    28   9  15    28   9  15    28   9  15    28   9  15    28   9  15    28   9  15    28   9  15    28   9  15    28   9  15    28   9  15    28   9  15    28   9  15    28   9  15    28   9  15    28   9  15    28   9  15    28   9  15    28   9  15    28   9  15    28   9  15    28   9  15    28   9  15    28   9  15    28   9  15    28   9  15    28   9  15    28   9  15    28   9  15    28   9  15    28   9  15    27   8  14    27   8  14    27   8  14    26   7  13    26   7  13    26   7  13    26   7  13    26   7  13    25   6  12    25   6  12    25   6  12    25   6  12    25   6  12    24   5  11  
   0   0   0     0   0   0     0   0   0     0   0   0     0   0   0     0   0   0    28   9  15    28   9  15    28   9  15    28   9  15    28   9  15    28   9  15    28   9  15    28   9  15    28   9  15    28   9  15    28   9  15    28   9  15    28   9  15    28   9  15    28   9  15    28   9  15    28   9  15    28   9  15    28   9  15    28   9  15    28   9  15    28   9  15    28   9  15    28   9  15    28   9  15    28   9  15    28   9  15    28   9  15    28   9  15    28   9  15    28   9  15    28   9  15    28   9  15    28   9  15    27   8  14    27   8  14    27   8  14    27   8  14    27   8  14    27   8  14    27   8  14    27   8  14    27   8  14    27   8  14    25   7  13    25   7  13    25   7  13    25   6  12    25   6  12    25   5  12  
   0   0   0     0   0   0     0   0   0     0   0   0     0   0   0     0   0   0    28   9  15    28   9  15    28   9  15    28   9  15    28   9  15    28   9  15    28   9  15    28   9  15    28   9  15    28   9  15    28   9  15    28   9  15    28   9  15    28   9  15    28   9  15    28   9  15    28   9  15    28   9  15    28   9  15    28   9  15    28   9  15    28   9  15    28   9  15    28   9  15    28   9  15    28   9  15    28   9  15    28   9  15    28   9  15    28   9  15    28   9  15    28   9  15    28   9  15    28   9  15    27   8  14    27   8  14    27   8  14    27   8  14    27   8  14    27   8  14    27   8  14    28   9  15    28   9  15    27   8  14    27   8  14    27   8  14    26   7  13    26   7  13    25   6  12    25   6  12  
   0   0   0     0   0   0     0   0   0     0   0   0     0   0   0     0   0   0    28   9  15    28   9  15    29  10  16    28   9  15    28   9  15    27   8  14    27   8  14    27   8  14    27   8  14    28   9  15    28   9  15    28   9  15    28   9  15    28   9  15    28   9  15    28   9  15    28   9  15    28   9  15    28   9  15    28   9  15    28   9  15    28   9  15    28   9  15    28   9  15    28   9  15    28   9  15    28   9  15    28   9  15    28   9  15    28   9  15    28   9  15    28   9  15    28   9  15    28   9  15    28   9  15    28   9  15    28   9  15    28   9  15    28   9  15    28   9  15    28   9  15    28   9  15    28   9  15    28   9  15    27   8  14    26   7  13    25   6  12    24   5  11    23   4  10    23   4  10  
   0   0   0     0   0   0     0   0   0     0   0   0     0   0   0     0   0   0    29  10  16    29  10  16    29  10  15    28   9  15    28   9  15    27   8  14    27   8  14    27   8  14    28   9  15    28   9  15    28   9  15    28   9  15    28   9  15    28   9  15    28   9  15    28   9  15    28   9  15    28   9  15    28   9  15    28   9  15    28   9  15    28   9  15    28   9  15    28   9  15    28   9  15    28   9  15    28   9  15    28   9  15    28   9  15    28   9  15    28   9  15    28   9  15    28   9  15    28   9  15    28   9  15    28   9  15    28   9  15    28   9  15    28   9  15    28   9  15    28   9  15    28   9  15    28   9  15    28   9  15    27   8  14    26   7  13    25   6  12    24   5  11    23   4  10    23   4  10  
   0   0   0     0   0   0     0   0   0     0   0   0     0   0   0     0   0   0    28   9  15    28   9  15    28   9  15    28   9  15    28   9  15    28   9  15    28   9  15    28   9  15    29  10  16    30  11  17    28   9  15    28   9  15    28   9  15    28   9  15    28   9  15    28   9  15    28   9  15    28   9  15    28   9  15    28   9  15    28   9  15    28   9  15    28   9  15    28   9  15    28   9  15    28   9  15    28   9  15    28   9  15    28   9  15    28   9  15    28   9  15    28   9  15    28   9  15    28   9  15    28   9  15    28   9  15    28   9  15    28   9  15    28   9  15    28   9  15    28   9  15    28   9  15    28   9  15    28   9  15    27   8  14    26   7  13    26   7  13    25   6  12    25   6  12    24   5  11  
   0   0   0     0   0   0     0   0   0     0   0   0     0   0   0     0   0   0    28   9  15    28   9  15    29  10  15    29  10  15    28   9  15    28   9  15    28   9  15    29  10  15    29  10  16    30  11  17    28   9  15    28   9  15    28   9  15    28   9  15    28   9  15    28   9  15    28   9  15    28   9  15    28   9  15    28   9  15    28   9  15    28   9  15    28   9  15    28   9  15    28   9  15    28   9  15    28   9  15    28   9  15    28   9  15    28   9  15    28   9  15    28   9  15    28   9  15    28   9  15    28   9  15    28   9  15    28   9  15    28   9  15    28   9  15    28   9  15    28   9  15    28   9  15    28   9  15    27   8  14    27   8  14    27   8  14    26   7  13    25   7  13    25   6  12    25   5  12  
   0   0   0     0   0   0     0   0   0     0   0   0     0   0   0     0   0   0    31  12  18    31  12  18    31  12  18    30  11  17    29  10  16    29  10  16    28   9  15    28   9  15    28   9  15    29  10  16    28   9  15    28   9  15    28   9  15    28   9  15    28   9  15    28   9  15    28   9  15    28   9  15    28   9  15    28   9  15    28   9  15    28   9  15    28   9  15    28   9  15    28   9  15    28   9  15    28   9  15    28   9  15    28   9  15    28   9  15    28   9  15    28   9  15    28   9  15    28   9  15    28   9  15    28   9  15    28   9  15    28   9  15    28   9  15    28   9  15    28   9  15    28   9  15    27   8  14    27   8  14    27   8  14    27   8  14    27   8  14    26   7  13    26   7  13    26   7  13  
   0   0   0     0   0   0     0   0   0     0   0   0     0   0   0     0   0   0    32  13  19    32  13  19    32  13  19    31  12  18    30  11  17    29  10  16    28   9  15    28   9  15    28   9  15    28   9  15    28   9  15    28   9  15    28   9  15    28   9  15    28   9  15    28   9  15    28   9  15    28   9  15    28   9  15    28   9  15    28   9  15    28   9  15    28   9  15    28   9  15    28   9  15    28   9  15    28   9  15    28   9  15    28   9  15    28   9  15    28   9  15    28   9  15    28   9  15    28   9  15    28   9  15    28   9  15    28   9  15    28   9  15    28   9  15    28   9  15    28   9  15    28   9  15    27   8  14    27   8  14    27   8  14    27   8  14    27   8  14    27   8  14    27   8  14    27   8  14  
   0   0   0     0   0   0     0   0   0     0   0   0     0   0   0     0   0   0    30  12  18    30  12  18    31  12  18    31  12  18    30  11  17    29  10  15    28   9  15    27   8  14    27   8  14    27   8  14    28   9  15    28   9  15    28   9  15    28   9  15    28   9  15    28   9  15    28   9  15    28   9  15    28   9  15    28   9  15    28   9  15    28   9  15    28   9  15    28   9  15    28   9  15    28   9  15    28   9  15    28   9  15    28   9  15    28   9  15    28   9  15    28   9  15    28   9  15    28   9  15    28   9  15    28   9  15    28   9  15    28   9  15    28   9  15    28   9  15    28   9  15    28   9  15    27   8  14    27   8  14    27   8  14    27   8  14    27   8  14    27   8  14    27   8  14    27   8  14  
   0   0   0     0   0   0     0   0   0     0   0   0     0   0   0     0   0   0    29  10  16    29  10  16    28   9  15    28   9  15    28   9  15    28   9  15    28   9  15    28   9  15    28   9  15    28   9  15    28   9  15    28   9  15    28   9  15    28   9  15    28   9  15    28   9  15    28   9  15    28   9  15    28   9  15    28   9  15    28   9  15    28   9  15    28   9  15    28   9  15    28   9  15    28   9  15    28   9  15    28   9  15    28   9  15    28   9  15    28   9  15    28   9  15    28   9  15    28   9  15    28   9  15    28   9  15    28   9  15    28   9  15    28   9  15    28   9  15    28   9  15    28   9  15    28   9  15    28   9  15    28   9  15    28   9  15    28   9  15    28   9  15    28   9  15    28   9  15  
   0   0   0     0   0   0     0   0   0     0   0   0     0   0   0     0   0   0    27   8  14    27   8  14    28   9  15    28   9  15    28   9  15    28   9  15    28   9  15    28   9  15    28   9  15    28   9  15    28   9  15    28   9  15    28   9  15    28   9  15    28   9  15    28   9  15    28   9  15    28   9  15    28   9  15    28   9  15    28   9  15    28   9  15    28   9  15    28   9  15    28   9  15    28   9  15    28   9  15    28   9  15    28   9  15    28   9  15    28   9  15    28   9  15    28   9  15    28   9  15    28   9  15    28   9  15    28   9  15    28   9  15    28   9  15    28   9  15    28   9  15    28   9  15    28   9  15    28   9  15    28   9  15    28   9  15    28   9  15    28   9  15    28   9  15    28   9  15  
   0   0   0     0   0   0     0   0   0     0   0   0     0   0   0     0   0   0    28   9  15    28   9  15    28   9  15    28   9  15    28   9  15    28   9  15    28   9  15    28   9  15    28   9  15    28   9  15    28   9  15    28   9  15    28   9  15    28   9  15    28   9  15    28   9  15    28   9  15    28   9  15    28   9  15    28   9  15    28   9  15    28   9  15    28   9  15    28   9  15    28   9  15    28   9  15    28   9  15    28   9  15    28   9  15    28   9  15    28   9  15    28   9  15    28   9  15    28   9  15    28   9  15    28   9  15    28   9  15    28   9  15    28   9  15    28   9  15    28   9  15    28   9  15    28   9  15    28   9  15    28   9  15    28   9  15    28   9  15    28   9  15    28   9  15    28   9  15  
   0   0   0     0   0   0     0   0   0     0   0   0     0   0   0     0   0   0    28   9  15    27   8  14    28   9  15    28   9  15    28   9  15    28   9  15    28   9  15    28   9  15    28   9  15    28   9  15    28   9  15    28   9  15    28   9  15    28   9  15    28   9  15    28   9  15    28   9  15    28   9  15    28   9  15    28   9  15    28   9  15    28   9  15    28   9  15    28   9  15    28   9  15    28   9  15    28   9  15    28   9  15    28   9  15    28   9  15    28   9  15    28   9  15    28   9  15    28   9  15    28   9  15    28   9  15    28   9  15    28   9  15    28   9  15    28   9  15    28   9  15    28   9  15    28   9  15    28   9  15    28   9  15    28   9  15    28   9  15    28   9  15    28   9  15    28   9  15  
   0   0   0     0   0   0     0   0   0     0   0   0     0   0   0     0   0   0    26   7  13    26   7  13    28   9  15    28   9  15    28   9  15    28   9  15    28   9  15    28   9  15    28   9  15    28   9  15    28   9  15    28   9  15    28   9  15    28   9  15    28   9  15    28   9  15    28   9  15    28   9  15    28   9  15    28   9  15    28   9  15    28   9  15    28   9  15    28   9  15    28   9  15    28   9  15    28   9  15    28   9  15    28   9  15    28   9  15    28   9  15    28   9  15    28   9  15    28   9  15    28   9  15    28   9  15    28   9  15    28   9  15    28   9  15    28   9  15    28   9  15    28   9  15    28   9  15    28   9  15    28   9  15    28   9  15    28   9  15    28   9  15    28   9  15    28   9  15  
   0   0   0     0   0   0     0   0   0     0   0   0     0   0   0     0   0   0    28   9  15    28   9  15    28   9  15    28   9  15    28   9  15    28   9  15    28   9  15    28   9  15    28   9  15    28   9  15    28   9  15    28   9  15    28   9  15    28   9  15    28   9  15    28   9  15    28   9  15    28   9  15    28   9  15    28   9  15    28   9  15    28   9  15    28   9  15    28   9  15    28   9  15    28   9  15    28   9  15    28   9  15    28   9  15    28   9  15    28   9  15    28   9  15    28   9  15    28   9  15    28   9  15    28   9  15    28   9  15    28   9  15    28   9  15    28   9  15    28   9  15    28   9  15    28   9  15    28   9  15    28   9  15    28   9  15    28   9  15    28   9  15    28   9  15    28   9  15  
   0   0   0     0   0   0     0   0   0     0   0   0     0   0   0     0   0   0    27   8  15    27   8  15    28   9  15    28   9  15    29  10  15    28   9  15    27   8  14    26   7  13    28   9  15    29  10  15    28   9  15    27   8  14    27   8  14    27   8  14    27   8  14    28   9  15    28   9  15    29  10  15    28   9  15    28   9  15    28   9  15    28   9  15    28   9  15    28   9  15    28   9  15    28   9  15    28   9  15    28   9  15    28   9  15    28   9  15    28   9  15    28   9  15    28   9  15    28   9  15    28   9  15    28   9  15    28   9  15    28   9  15    28   9  15    28   9  15    28   9  15    28   9  15    28   9  15    28   9  15    28   9  15    28   9  15    28   9  15    28   9  15    28   9  15    28   9  15  
   0   0   0     0   0   0     0   0   0     0   0   0     0   0   0     0   0   0    28   9  15    28   9  15    28   9  15    28   9  15    29  10  16    28   9  15    27   8  14    26   7  13    28   9  15    29  10  16    28   9  15    28   9  15    27   8  14    27   8  14    27   8  14    28   9  15    28   9  15    29  10  16    28   9  15    28   9  15    28   9  15    28   9  15    28   9  15    28   9  15    28   9  15    28   9  15    28   9  15    28   9  15    28   9  15    28   9  15    28   9  15    28   9  15    28   9  15    28   9  15    28   9  15    28   9  15    28   9  15    28   9  15    28   9  15    28   9  15    28   9  15    28   9  15    28   9  15    28   9  15    28   9  15    28   9  15    28   9  15    28   9  15    28   9  15    28   9  15  
   0   0   0     0   0   0     0   0   0     0   0   0     0   0   0     0   0   0    29  10  16    29  10  16    28   9  15    28   9  15    29  10  16    28   9  15    27   8  14    26   7  13    28   9  15    29  10  16    29  10  16    28   9  15    28   9  15    27   8  14    27   8  14    28   9  15    28   9  15    29  10  16    28   9  15    28   9  15    28   9  15    28   9  15    28   9  15    28   9  15    28   9  15    28   9  15    28   9  15    28   9  15    28   9  15    28   9  15    28   9  15    28   9  15    28   9  15    28   9  15    28   9  15    28   9  15    28   9  15    28   9  15    28   9  15    28   9  15    28   9  15    28   9  15    28   9  15    28   9  15    28   9  15    28   9  15    28   9  15    28   9  15    28   9  15    28   9  15  
   0   0   0     0   0   0     0   0   0     0   0   0     0   0   0     0   0   0    29  10  15    29  10  15    28   9  15    28   9  15    29  10  16    28   9  15    27   8  14    26   7  13    28   9  15    29  10  16    29  10  16    29  10  16    28   9  15    28   9  15    28   9  15    28   9  15    28   9  15    29  10  15    28   9  15    28   9  15    28   9  15    28   9  15    28   9  15    28   9  15    28   9  15    28   9  15    28   9  15    28   9  15    28   9  15    28   9  15    28   9  15    28   9  15    28   9  15    28   9  15    28   9  15    28   9  15    28   9  15    28   9  15    28   9  15    28   9  15    28   9  15    28   9  15    28   9  15    28   9  15    28   9  15    28   9  15    28   9  15    28   9  15    28   9  15    28   9  15  
   0   0   0     0   0   0     0   0   0     0   0   0     0   0   0     0   0   0    28   9  15    28   9  15    28   9  15    28   9  15    29  10  16    28   9  15    27   8  14    26   7  13    28   9  15    29  10  16    31  12  18    30  11  17    30  11  17    29  10  16    28   9  15    28   9  15    28   9  15    28   9  15    28   9  15    28   9  15    28   9  15    28   9  15    28   9  15    28   9  15    28   9  15    28   9  15    28   9  15    28   9  15    28   9  15    28   9  15    28   9  15    28   9  15    28   9  15    28   9  15    28   9  15    28   9  15    28   9  15    28   9  15    28   9  15    28   9  15    28   9  15    28   9  15    28   9  15    28   9  15    28   9  15    28   9  15    28   9  15    28   9  15    28   9  15    28   9  15  
   0   0   0     0   0   0     0   0   0     0   0   0     0   0   0     0   0   0    28   9  15    29  10  15    28   9  15    28   9  15    29  10  16    28   9  15    27   8  14    26   7  13    28   9  15    29  10  16    32  13  19    30  12  18    30  11  17    29  10  16    28   9  15    28   9  15    28   9  15    28   9  15    28   9  15    28   9  15    28   9  15    28   9  15    28   9  15    28   9  15    28   9  15    28   9  15    28   9  15    28   9  15    28   9  15    28   9  15    28   9  15    28   9  15    28   9  15    28   9  15    28   9  15    28   9  15    28   9  15    28   9  15    28   9  15    28   9  15    28   9  15    28   9  15    28   9  15    28   9  15    28   9  15    28   9  15    28   9  15    28   9  15    28   9  15    28   9  15  
   0   0   0     0   0   0     0   0   0     0   0   0     0   0   0     0   0   0    29  10  16    30  11  17    28   9  15    28   9  15    29  10  16    28   9  15    27   8  14    26   7  13    28   9  15    29  10  16    32  13  19    31  12  18    30  11  17    29  10  16    28   9  15    28   9  15    28   9  15    28   9  15    28   9  15    28   9  15    28   9  15    28   9  15    28   9  15    28   9  15    28   9  15    28   9  15    28   9  15    28   9  15    28   9  15    28   9  15    28   9  15    28   9  15    28   9  15    28   9  15    28   9  15    28   9  15    28   9  15    28   9  15    28   9  15    28   9  15    28   9  15    28   9  15    28   9  15    28   9  15    28   9  15    28   9  15    28   9  15    28   9  15    28   9  15    28   9  15  
   0   0   0     0   0   0     0   0   0     0   0   0     0   0   0     0   0   0     0   0   0     0   0   0     0   0   0     0   0   0     0   0   0     0   0   0     0   0   0     0   0   0     0   0   0     0   0   0     0   0   0     0   0   0     0   0   0    28   9  15    28   9  15    28   9  15    28   9  15    28   9  15    28   9  15    28   9  15    28   9  15    28   9  15    28   9  15    28   9  15    28   9  15    28   9  15    28   9  15    28   9  15    28   9  15    28   9  15    28   9  15    28   9  15    28   9  15    28   9  15     0   0   0     0   0   0     0   0   0     0   0   0     0   0   0     0   0   0     0   0   0     0   0   0     0   0   0     0   0   0     0   0   0     0   0   0     0   0   0     0   0   0     0   0   0     0   0   0  
   0   0   0     0   0   0     0   0   0     0   0   0     0   0   0     0   0   0     0   0   0     0   0   0     0   0   0     0   0   0     0   0   0     0   0   0     0   0   0     0   0   0     0   0   0     0   0   0     0   0   0     0   0   0     0   0   0    28   9  15    28   9  15    28   9  15    28   9  15    28   9  15    28   9  15    28   9  15    28   9  15    28   9  15    28   9  15    28   9  15    28   9  15    28   9  15    28   9  15    28   9  15    28   9  15    28   9  15    28   9  15    28   9  15    28   9  15    28   9  15     0   0   0     0   0   0     0   0   0     0   0   0     0   0   0     0   0   0     0   0   0     0   0   0     0   0   0     0   0   0     0   0   0     0   0   0     0   0   0     0   0   0     0   0   0     0   0   0  
   0   0   0     0   0   0     0   0   0     0   0   0     0   0   0     0   0   0     0   0   0     0   0   0     0   0   0     0   0   0     0   0   0     0   0   0     0   0   0     0   0   0     0   0   0     0   0   0     0   0   0     0   0   0     0   0   0    28   9  15    28   9  15    28   9  15    28   9  15    28   9  15    28   9  15    28   9  15    28   9  15    28   9  15    28   9  15    28   9  15    28   9  15    28   9  15    28   9  15    28   9  15    28   9  15    28   9  15    28   9  15    28   9  15    28   9  15    28   9  15     0   0   0     0   0   0     0   0   0     0   0   0     0   0   0     0   0   0     0   0   0     0   0   0     0   0   0     0   0   0     0   0   0     0   0   0     0   0   0     0   0   0     0   0   0     0   0   0  
   0   0   0     0   0   0     0   0   0     0   0   0     0   0   0     0   0   0     0   0   0     0   0   0     0   0   0     0   0   0     0   0   0     0   0   0     0   0   0     0   0   0     0   0   0     0   0   0     0   0   0     0   0   0     0   0   0    28   9  15    28   9  15    28   9  15    28   9  15    28   9  15    28   9  15    28   9  15    28   9  15    28   9  15    28   9  15    28   9  15    28   9  15    28   9  15    28   9  15    28   9  15    28   9  15    28   9  15    28   9  15    28   9  15    28   9  15    28   9  15     0   0   0     0   0   0     0   0   0     0   0   0     0   0   0     0   0   0     0   0   0     0   0   0     0   0   0     0   0   0     0   0   0     0   0   0     0   0   0     0   0   0     0   0   0     0   0   0  
   0   0   0     0   0   0     0   0   0     0   0   0     0   0   0     0   0   0     0   0   0     0   0   0     0   0   0     0   0   0     0   0   0     0   0   0     0   0   0     0   0   0     0   0   0     0   0   0     0   0   0     0   0   0     0   0   0    28   9  15    28   9  15    28   9  15    28   9  15    28   9  15    28   9  15    28   9  15    28   9  15    28   9  15    28   9  15    28   9  15    28   9  15    28   9  15    28   9  15    28   9  15    28   9  15    28   9  15    28   9  15    28   9  15    28   9  15    28   9  15     0   0   0     0   0   0     0   0   0     0   0   0     0   0   0     0   0   0     0   0   0     0   0   0     0   0   0     0   0   0     0   0   0     0   0   0     0   0   0     0   0   0     0   0   0     0   0   0  
   0   0   0     0   0   0     0   0   0     0   0   0     0   0   0     0   0   0     0   0   0     0   0   0     0   0   0     0   0   0     0   0   0     0   0   0     0   0   0     0   0   0     0   0   0     0   0   0     0   0   0     0   0   0     0   0   0    28   9  15    28   9  15    28   9  15    28   9  15    28   9  15    28   9  15    28   9  15    28   9  15    28   9  15    28   9  15    28   9  15    28   9  15    28   9  15    28   9  15    28   9  15    28   9  15    28   9  15    28   9  15    28   9  15    28   9  15    28   9  15     0   0   0     0   0   0     0   0   0     0   0   0     0   0   0     0   0   0     0   0   0     0   0   0     0   0   0     0   0   0     0   0   0     0   0   0     0   0   0     0   0   0     0   0   0     0   0   0  
   0   0   0     0   0   0     0   0   0     0   0   0     0   0   0     0   0   0     0   0   0     0   0   0     0   0   0     0   0   0     0   0   0     0   0   0     0   0   0     0   0   0     0   0   0     0   0   0     0   0   0     0   0   0     0   0   0    28   9  15    28   9  15    28   9  15    28   9  15    28   9  15    28   9  15    28   9  15    28   9  15    28   9  15    28   9  15    28   9  15    28   9  15    28   9  15    28   9  15    28   9  15    28   9  15    28   9  15    28   9  15    28   9  15    28   9  15    28   9  15     0   0   0     0   0   0     0   0   0     0   0   0     0   0   0     0   0   0     0   0   0     0   0   0     0   0   0     0   0   0     0   0   0     0   0   0     0   0   0     0   0   0     0   0   0     0   0   0  
   0   0   0     0   0   0     0   0   0     0   0   0     0   0   0     0   0   0     0   0   0     0   0   0     0   0   0     0   0   0     0   0   0     0   0   0     0   0   0     0   0   0     0   0   0     0   0   0     0   0   0     0   0   0     0   0   0    28   9  15    28   9  15    28   9  15    28   9  15    28   9  15    28   9  15    28   9  15    28   9  15    28   9  15    28   9  15    28   9  15    28   9  15    28   9  15    28   9  15    28   9  15    28   9  15    28   9  15    28   9  15    28   9  15    28   9  15    28   9  15     0   0   0     0   0   0     0   0   0     0   0   0     0   0   0     0   0   0     0   0   0     0   0   0     0   0   0     0   0   0     0   0   0     0   0   0     0   0   0     0   0   0     0   0   0     0   0   0  
   0   0   0     0   0   0     0   0   0     0   0   0     0   0   0     0   0   0     0   0   0     0   0   0     0   0   0     0   0   0     0   0   0     0   0   0     0   0   0     0   0   0     0   0   0     0   0   0     0   0   0     0   0   0     0   0   0    28   9  15    28   9  15    28   9  15    28   9  15    28   9  15    28   9  15    28   9  15    28   9  15    28   9  15    28   9  15    28   9  15    28   9  15    28   9  15    28   9  15    28   9  15    28   9  15    28   9  15    28   9  15    28   9  15    28   9  15    28   9  15     0   0   0     0   0   0     0   0   0     0   0   0     0   0   0     0   0   0     0   0   0     0   0   0     0   0   0     0   0   0     0   0   0     0   0   0     0   0   0     0   0   0     0   0   0     0   0   0  
   0   0   0     0   0   0     0   0   0     0   0   0     0   0   0     0   0   0     0   0   0     0   0   0     0   0   0     0   0   0     0   0   0     0   0   0     0   0   0     0   0   0     0   0   0     0   0   0     0   0   0     0   0   0     0   0   0    28   9  15    28   9  15    28   9  15    28   9  15    28   9  15    28   9  15    28   9  15    28   9  15    28   9  15    28   9  15    28   9  15    28   9  15    28   9  15    28   9  15    28   9  15    28   9  15    28   9  15    28   9  15    28   9  15    28   9  15    28   9  15     0   0   0     0   0   0     0   0   0     0   0   0     0   0   0     0   0   0     0   0   0     0   0   0     0   0   0     0   0   0     0   0   0     0   0   0     0   0   0     0   0   0     0   0   0     0   0   0  
   0   0   0     0   0   0     0   0   0     0   0   0     0   0   0     0   0   0     0   0   0     0   0   0     0   0   0     0   0   0     0   0   0     0   0   0     0   0   0     0   0   0     0   0   0     0   0   0     0   0   0     0   0   0     0   0   0    28   9  15    28   9  15    28   9  15    28   9  15    28   9  15    28   9  15    28   9  15    28   9  15    28   9  15    28   9  15    28   9  15    28   9  15    28   9  15    28   9  15    28   9  15    28   9  15    28   9  15    28   9  15    28   9  15    28   9  15    28   9  15     0   0   0     0   0   0     0   0   0     0   0   0     0   0   0     0   0   0     0   0   0     0   0   0     0   0   0     0   0   0     0   0   0     0   0   0     0   0   0     0   0   0     0   0   0     0   0   0  
   0   0   0     0   0   0     0   0   0     0   0   0     0   0   0     0   0   0     0   0   0     0   0   0     0   0   0     0   0   0     0   0   0     0   0   0     0   0   0     0   0   0     0   0   0     0   0   0     0   0   0     0   0   0     0   0   0    28   9  15    28   9  15    28   9  15    28   9  15    28   9  15    28   9  15    28   9  15    28   9  15    28   9  15    28   9  15    28   9  15    28   9  15    28   9  15    28   9  15    28   9  15    28   9  15    28   9  15    28   9  15    28   9  15    28   9  15    28   9  15     0   0   0     0   0   0     0   0   0     0   0   0     0   0   0     0   0   0     0   0   0     0   0   0     0   0   0     0   0   0     0   0   0     0   0   0     0   0   0     0   0   0     0   0   0     0   0   0  
