P3
61 50
255
 212  58  92   212  58  92   212  58  92   212  58  92   212  58  92   212  58  92   212  58  92   212  58  92   212  58  92   212  58  92   212  58  92     0   0   0     0   0   0     0   0   0     0   0   0     0   0   0     0   0   0     0   0   0     0   0   0     0   0   0     0   0   0     0   0   0     0   0   0     0   0   0     0   0   0     0   0   0     0   0   0     0   0   0     0   0   0     0   0   0     0   0   0     0   0   0     0   0   0   213  59  97   213  59  97   213  59  97   213  59  97   213  59  97   213  59  97   213  59  97   212  60  99   212  60  99   212  60  99   212  60  99   212  60  99   212  60  99   212  60  99   212  60  99   212  60  99   212  60  99     0   0   0     0   0   0     0   0   0     0   0   0     0   0   0     0   0   0     0   0   0     0   0   0     0   0   0     0   0   0     0   0   0  
 212  58  92   212  58  92   212  58  92   212  58  92   212  58  92   212  58  92   212  58  92   212  58  92   212  58  92   212  58  92   212  58  92     0   0   0     0   0   0     0   0   0     0   0   0     0   0   0     0   0   0     0   0   0     0   0   0     0   0   0     0   0   0     0   0   0     0   0   0     0   0   0     0   0   0     0   0   0     0   0   0     0   0   0     0   0   0     0   0   0     0   0   0     0   0   0     0   0   0   213  59  97   213  59  97   213  59  97   213  59  97   213  59  97   213  59  97   213  59  97   212  60  99   212  60  99   212  60  99   212  60  99   212  60  99   212  60  99   212  60  99   212  60  99   212  60  99   212  60  99     0   0   0     0   0   0     0   0   0     0   0   0     0   0   0     0   0   0     0   0   0     0   0   0     0   0   0     0   0   0     0   0   0  
 212  58  92   212  58  92   212  58  92   212  58  92   212  58  92   212  58  92   212  58  92   213  59  93   213  59  93   213  59  93   213  59  93   213  59  93   213  59  93   213  60  91   213  60  91   213  60  91   213  60  91   213  59  93   213  59  93   213  59  93   212  58  94   212  58  94   212  58  94   212  58  94   212  58  94   212  58  94   212  58  95   213  59  97   213  59  97   213  59  97   213  59  97   213  59  97   213  59  97   213  59  97   213  59  97   213  59  97   213  59  97   213  59  97   213  59  97   213  59  97   212  60  99   212  60  99   212  60  99   212  60  99   212  60  99   212  60  99   212  60  99   212  60  99   212  60  99   212  60  99     0   0   0     0   0   0     0   0   0     0   0   0     0   0   0     0   0   0     0   0   0     0   0   0     0   0   0     0   0   0     0   0   0  
 212  58  92   212  58  92   212  58  92   212  58  92   212  58  92   212  58  92   212  58  92   213  59  93   213  59  93   213  59  93   213  59  93   213  59  93   213  59  93   213  60  91   213  60  91   213  60  91   213  60  91   213  59  93   213  59  93   213  59  93   212  58  94   212  58  94   212  58  94   212  58  94   212  58  94   212  58  94   212  58  95   213  59  97   213  59  97   213  59  97   213  59  97   213  59  97   213  59  97   213  59  97   213  59  97   213  59  97   213  59  97   213  59  97   213  59  97   213  59  97   212  60  99   212  60  99   212  60  99   212  60  99   212  60  99   212  60  99   212  60  99   212  60  99   212  60  99   212  60  99     0   0   0     0   0   0     0   0   0     0   0   0     0   0   0     0   0   0     0   0   0     0   0   0     0   0   0     0   0   0     0   0   0  
 212  58  92   212  58  92   212  58  92   212  58  92   212  58  92   212  58  92   212  58  92   213  59  93   211  57  91   211  57  91   211  57  91   211  57  91   213  59  93   213  60  91   213  60  91   213  60  91   213  60  91   213  59  93   213  59  93   213  59  93   213  59  95   213  59  95   213  59  95   213  59  95   213  59  95   213  59  95   213  59  96   213  59  97   213  59  97   213  59  97   213  59  97   213  59  97   213  59  97   212  58  96   213  59  97   213  59  97   213  59  97   214  60  98   214  60  98   214  60  98   212  60  99   212  60  99   212  60  99   212  60  99   212  60  99   212  60  99   212  60  99   211  59  98   211  59  98   211  59  98     0   0   0     0   0   0     0   0   0     0   0   0     0   0   0     0   0   0     0   0   0     0   0   0     0   0   0     0   0   0     0   0   0  
 212  58  92   212  58  92   212  58  92   212  58  92   212  58  92   212  58  92   212  58  92   213  59  93   211  57  91   211  57  91   211  57  91   211  57  91   213  59  93   213  60  91   213  60  91   213  60  91   213  60  91   213  59  93   213  59  93   213  59  93   213  59  95   213  59  95   213  59  95   213  59  95   213  59  95   213  59  95   213  59  96   213  59  97   213  59  97   213  59  97   213  59  97   213  59  97   213  59  97   212  58  96   213  59  97   213  59  97   213  59  97   214  60  98   214  60  98   214  60  98   212  60  99   212  60  99   212  60  99   212  60  99   212  60  99   212  60  99   212  60  99   211  59  98   211  59  98   211  59  98     0   0   0     0   0   0     0   0   0     0   0   0     0   0   0     0   0   0     0   0   0     0   0   0     0   0   0     0   0   0     0   0   0  
 212  58  92   212  58  92   212  58  92   212  58  92   212  58  92   212  58  92   212  58  92   213  59  93   211  57  91   211  57  91   211  57  91   211  57  91   213  59  93   213  60  91   213  60  91   213  60  91   213  60  91   213  59  93   213  59  93   213  59  93   213  59  95   213  59  95   213  59  95   213  59  95   213  59  95   213  59  95   213  59  96   213  59  97   213  59  97   213  59  97   213  59  97   213  59  97   213  59  97   212  58  96   213  59  97   213  59  97   213  59  97   214  60  98   214  60  98   214  60  98   212  60  99   212  60  99   212  60  99   212  60  99   212  60  99   212  60  99   212  60  99   211  59  98   211  59  98   211  59  98     0   0   0     0   0   0     0   0   0     0   0   0     0   0   0     0   0   0     0   0   0     0   0   0     0   0   0     0   0   0     0   0   0  
 212  58  92   212  58  92   212  58  92   212  58  92   212  58  92   212  58  92   212  58  92   213  59  93   211  57  91   211  57  91   211  57  91   211  57  91   213  59  93   213  60  91   213  60  91   213  60  91   213  60  91   213  59  93   213  59  93   213  59  93   213  59  95   213  59  95   213  59  95   213  59  95   213  59  95   213  59  95   213  59  96   213  59  97   213  59  97   213  59  97   213  59  97   213  59  97   213  59  97   212  58  96   213  59  97   213  59  97   213  59  97   214  60  98   214  60  98   214  60  98   212  60  99   212  60  99   212  60  99   212  60  99   212  60  99   212  60  99   212  60  99   211  59  98   211  59  98   211  59  98     0   0   0     0   0   0     0   0   0     0   0   0     0   0   0     0   0   0     0   0   0     0   0   0     0   0   0     0   0   0     0   0   0  
 212  58  92   212  58  92   212  58  92   212  58  92   212  58  92   212  58  92   212  58  92   213  59  93   211  57  91   211  57  91   211  57  91   211  57  91   213  59  93   213  60  91   213  60  91   213  60  91   213  60  91   213  59  93   213  59  93   213  59  93   213  59  95   213  59  95   213  59  95   213  59  95   213  59  95   213  59  95   213  59  96   213  59  97   213  59  97   213  59  97   213  59  97   213  59  97   213  59  97   212  58  96   213  59  97   213  59  97   213  59  97   214  60  98   214  60  98   214  60  98   212  60  99   212  60  99   212  60  99   212  60  99   212  60  99   212  60  99   212  60  99   211  59  98   211  59  98   211  59  98     0   0   0     0   0   0     0   0   0     0   0   0     0   0   0     0   0   0     0   0   0     0   0   0     0   0   0     0   0   0     0   0   0  
 212  58  92   212  58  92   212  58  92   212  58  92   212  58  92   212  58  92   212  58  92   213  59  93   211  57  91   211  57  91   211  57  91   211  57  91   213  59  93   213  60  91   213  60  91   213  60  91   213  60  91   213  59  93   213  59  93   213  59  93   213  59  95   213  59  95   213  59  95   213  59  95   213  59  95   213  59  95   213  59  96   213  59  97   213  59  97   213  59  97   213  59  97   213  59  97   213  59  97   212  58  96   213  59  97   213  59  97   213  59  97   214  60  98   214  60  98   214  60  98   212  60  99   212  60  99   212  60  99   212  60  99   212  60  99   212  60  99   212  60  99   212  60  99   212  60  99   212  60  99     0   0   0     0   0   0     0   0   0     0   0   0     0   0   0     0   0   0     0   0   0     0   0   0     0   0   0     0   0   0     0   0   0  
 212  58  92   212  58  92   212  58  92   212  58  92   212  58  92   212  58  92   212  58  92   213  59  93   211  57  91   211  57  91   211  57  91   211  57  91   213  59  93   213  60  91   213  60  91   213  60  91   213  60  91   213  59  93   213  59  93   213  59  93   213  59  95   213  59  95   213  59  95   213  59  95   213  59  95   213  59  95   213  59  96   213  59  97   213  59  97   213  59  97   213  59  97   213  59  97   213  59  97   212  58  96   213  59  97   213  59  97   213  59  97   214  60  98   214  60  98   214  60  98   212  60  99   212  60  99   212  60  99   212  60  99   212  60  99   212  60  99   212  60  99   212  60  99   212  60  99   212  60  99     0   0   0     0   0   0     0   0   0     0   0   0     0   0   0     0   0   0     0   0   0     0   0   0     0   0   0     0   0   0     0   0   0  
 212  58  92   212  58  92   212  58  92   212  58  92   212  58  92   212  58  92   212  58  92   213  59  93   211  57  91   211  57  91   211  57  91   211  57  91   213  59  93   213  60  91   213  60  91   213  60  91   213  60  91   213  59  93   213  59  93   213  59  93   213  59  95   213  59  95   213  59  95   213  59  95   213  59  95   213  59  95   213  59  96   213  59  97   213  59  97   213  59  97   213  59  97   213  59  97   213  59  97   212  58  96   213  59  97   213  59  97   213  59  97   214  60  98   214  60  98   214  60  98   212  60  99   212  60  99   212  60  99   212  60  99   212  60  99   212  60  99   212  60  99   212  60  99   212  60  99   212  60  99     0   0   0     0   0   0     0   0   0     0   0   0     0   0   0     0   0   0     0   0   0     0   0   0     0   0   0     0   0   0     0   0   0  
 211  57  91   211  57  91   211  57  91   211  57  91   211  57  91   211  57  91   211  57  91   212  58  92   212  58  92   212  58  92   212  58  92   212  58  92   212  58  92   213  59  93   213  59  93   213  59  93   213  59  93   213  59  93   213  59  94   213  59  95   213  59  95   213  59  96   213  59  97   213  59  97   213  59  97   213  59  97   213  59  97   213  59  97   213  59  97   213  59  97   213  59  97   213  59  97   213  59  97   213  59  97   213  59  97   213  59  97   213  59  97   213  59  97   213  59  97   213  59  97   213  58  98   213  58  98   213  58  98   213  58  98   213  58  98   213  58  98   213  58  98   213  58  98   214  59  99   214  59  99   214  59  99   214  59  99   213  58  98   213  60 100   212  60 101   212  60 101   211  59 100   212  60 101   212  60 101   213  61 102   212  60 101  
   0   0   0     0   0   0     0   0   0     0   0   0     0   0   0     0   0   0     0   0   0     0   0   0   212  58  92   212  58  92   212  58  92   212  58  92   212  58  92   213  59  93   213  59  93   213  59  93   213  59  93   213  59  93   213  59  94   213  59  95   213  59  95   213  59  96   213  59  97   213  59  97   213  59  97   213  59  97   213  59  97   213  59  97   213  59  97   213  59  97   213  59  97   213  59  97   213  59  97   213  59  97   213  59  97   213  59  97   213  59  97   213  59  97   213  59  97   213  59  97   213  58  98   213  58  98   213  58  98   213  58  98   213  58  98   213  58  98   213  58  98   213  58  98   214  59  99   214  59  99   214  59  99   214  59  99   213  58  98   213  60 100   212  60 101   212  60 101   211  59 100   212  60 101   212  60 101   213  61 102   212  60 101  
   0   0   0     0   0   0     0   0   0     0   0   0     0   0   0     0   0   0     0   0   0     0   0   0   212  58  92   212  58  92   212  58  92   212  58  92   212  58  92   213  59  93   213  59  93   213  59  93   213  59  93   213  59  93   213  59  94   213  59  95   213  59  95   213  59  96   213  59  97   213  59  97   213  59  97   213  59  97   213  59  97   213  59  97   213  59  97   213  59  97   213  59  97   213  59  97   213  59  97   213  59  97   213  59  97   213  59  97   213  59  97   213  59  97   213  59  97   213  59  97   213  58  98   213  58  98   213  58  98   213  58  98   213  58  98   213  58  98   213  58  98   213  58  98   214  59  99   214  59  99   214  59  99   214  59  99   213  58  98   213  60 101   212  60 101   212  60 101   211  59 100   212  60 101   212  60 101   213  61 102   212  60 101  
   0   0   0     0   0   0     0   0   0     0   0   0     0   0   0     0   0   0     0   0   0     0   0   0   212  58  92   212  58  92   212  58  92   212  58  92   212  58  92   213  59  93   213  59  93   213  59  93   213  59  93   213  59  93   213  59  94   213  59  95   213  59  95   213  59  96   213  59  97   213  59  97   213  59  97   213  59  97   213  59  97   213  59  97   213  59  97   213  59  97   213  59  97   213  59  97   213  59  97   213  59  97   213  59  97   213  59  97   213  59  97   213  59  97   213  59  97   213  59  97   213  58  98   213  58  98   213  58  98   213  58  98   213  58  98   213  58  98   213  58  98   213  58  98   213  58  98   213  58  98   213  58  98   213  58  98   213  58  98   212  59 100   212  60 101   212  60 101   212  60 101   212  60 101   212  60 101   212  60 101   212  60 101  
   0   0   0     0   0   0     0   0   0     0   0   0     0   0   0     0   0   0     0   0   0     0   0   0   212  58  92   212  58  92   212  58  92   212  58  92   212  58  92   213  59  93   213  59  93   213  59  93   213  59  93   213  59  93   213  59  94   213  59  95   213  59  95   213  59  96   213  59  97   213  59  97   213  59  97   213  59  97   213  59  97   213  59  97   213  59  97   213  59  97   213  59  97   213  59  97   213  59  97   213  59  97   213  59  97   213  59  97   213  59  97   213  59  97   213  59  97   213  59  97   213  58  98   213  58  98   213  58  98   213  58  98   213  58  98   213  58  98   213  58  98   213  58  98   213  58  98   213  58  98   213  58  98   213  58  98   213  58  98   212  59 100   212  60 101   212  60 101   212  60 101   212  60 101   212  60 101   212  60 101   212  60 101  
   0   0   0     0   0   0     0   0   0     0   0   0     0   0   0     0   0   0     0   0   0     0   0   0   212  58  92   212  58  92   212  58  92   212  58  92   212  58  92   213  59  93   213  59  93   213  59  93   213  59  93   213  59  93   213  59  94   213  59  95   213  59  95   213  59  96   213  59  97   213  59  97   213  59  97   213  59  97   213  59  97   213  59  97   213  59  97   213  59  97   213  59  97   213  59  97   213  59  97   213  59  97   213  59  97   213  59  97   213  59  97   213  59  97   213  59  97   213  59  97   213  58  98   213  58  98   213  58  98   213  58  98   213  58  98   213  58  98   213  58  98   214  59  99   213  58  98   213  58  98   213  58  98   213  58  98   214  59  99   212  59 100   212  60 101   212  60 101   213  61 102   213  61 102   212  60 101   211  59 100   212  60 101  
   0   0   0     0   0   0     0   0   0     0   0   0     0   0   0     0   0   0     0   0   0     0   0   0   212  58  92   212  58  92   212  58  92   212  58  92   212  58  92   213  59  93   213  59  93   213  59  93   213  59  93   213  59  93   213  59  94   213  59  95   213  59  95   213  59  96   213  59  97   213  59  97   213  59  97   213  59  97   213  59  97   213  59  97   213  59  97   213  59  97   213  59  97   213  59  97   213  59  97   213  59  97   213  59  97   213  59  97   213  59  97   213  59  97   213  59  97   213  59  97   213  58  98   213  58  98   213  58  98   213  58  98   213  58  98   213  58  98   213  58  98   214  59  99   213  58  98   212  57  97   212  57  97   213  58  98   214  59  99   212  59 100   212  60 101   212  60 101   213  61 102   213  61 102   212  60 101   211  59 100   212  60 101  
   0   0   0     0   0   0     0   0   0     0   0   0     0   0   0     0   0   0     0   0   0     0   0   0   212  58  92   212  58  92   212  58  92   212  58  92   212  58  92   213  59  93   213  59  93   213  59  93   213  59  93   213  59  93   213  59  94   213  59  95   213  59  95   213  59  96   213  59  97   213  59  97   213  59  97   213  59  97   213  59  97   213  59  97   213  59  97   213  59  97   213  59  97   213  59  97   213  59  97   213  59  97   213  59  97   213  59  97   213  59  97   213  59  97   213  59  97   213  59  97   213  58  98   213  58  98   213  58  98   213  58  98   213  58  98   213  58  98   213  58  98   214  59  99   213  58  98   212  57  97   212  57  97   213  58  98   214  59  99   212  59 100   212  60 101   212  60 101   213  61 102   213  61 102   212  60 101   211  59 100   212  60 101  
   0   0   0     0   0   0     0   0   0     0   0   0     0   0   0     0   0   0     0   0   0     0   0   0   212  58  92   212  58  92   212  58  92   212  58  92   212  58  92   213  59  93   212  58  92   211  57  91   211  57  91   211  57  91   212  58  93   213  59  95   213  59  95   213  59  96   213  59  97   213  59  97   213  59  97   213  59  97   213  59  97   213  59  97   213  59  97   213  59  97   213  59  97   213  59  97   213  59  97   213  59  97   213  59  97   213  59  97   213  59  97   213  59  97   213  59  97   213  59  97   212  57  97   213  58  98   214  59  99   213  58  98   212  57  97   213  58  98   214  59  99   213  58  98   213  58  98   213  58  98   213  58  98   213  58  98   213  58  98   211  59  99   211  59 100   211  59 100   211  59 100   211  59 100   211  59 100   211  59 100   212  60 101  
   0   0   0     0   0   0     0   0   0     0   0   0     0   0   0     0   0   0     0   0   0     0   0   0   212  58  92   212  58  92   212  58  92   212  58  92   212  58  92   213  59  93   212  58  92   211  57  91   211  57  91   211  57  91   212  58  93   213  59  95   213  59  95   213  59  96   213  59  97   213  59  97   213  59  97   213  59  97   213  59  97   213  59  97   213  59  97   213  59  97   213  59  97   213  59  97   213  59  97   213  59  97   213  59  97   213  59  97   213  59  97   213  59  97   213  59  97   213  59  97   212  57  97   213  58  98   214  59  99   213  58  98   212  57  97   213  58  98   214  59  99   213  58  98   213  58  98   213  58  98   213  58  98   213  58  98   213  58  98   211  59  99   211  59 100   211  59 100   211  59 100   211  59 100   211  59 100   211  59 100   212  60 101  
   0   0   0     0   0   0     0   0   0     0   0   0     0   0   0     0   0   0     0   0   0     0   0   0   212  58  92   212  58  92   212  58  92   212  58  92   212  58  92   212  58  92   212  58  92   211  57  91   211  57  91   211  57  91   212  58  93   212  58  94   213  59  95   213  59  96   213  59  97   213  59  97   213  59  97   213  59  97   213  59  97   213  59  97   213  59  97   213  59  97   213  59  97   213  59  97   213  59  97   213  59  97   213  59  97   213  59  97   213  59  97   213  59  97   213  59  97   213  59  97   212  57  97   213  58  98   214  59  99   213  58  98   212  57  97   213  58  98   214  59  99   213  58  98   213  58  98   213  58  98   213  58  98   213  58  98   213  58  98   211  59  99   211  59 100   211  59 100   211  59 100   211  59 100   211  59 100   211  59 100   212  60 101  
   0   0   0     0   0   0     0   0   0     0   0   0     0   0   0     0   0   0     0   0   0     0   0   0   212  58  92   212  58  92   212  58  92   212  58  92   212  58  92   212  58  92   212  58  92   212  58  92   212  58  92   212  58  92   212  58  93   212  58  94   213  59  95   213  59  96   213  59  97   213  59  97   213  59  97   213  59  97   213  59  97   213  59  97   213  59  97   213  59  97   213  59  97   213  59  97   213  59  97   213  59  97   213  59  97   213  59  97   213  59  97   213  59  97   213  59  97   213  59  97   212  57  97   213  58  98   214  59  99   213  58  98   212  57  97   213  58  98   214  59  99   213  58  98   213  58  98   213  58  98   213  58  98   213  58  98   213  58  98   211  59  99   211  59 100   211  59 100   211  59 100   211  59 100   211  59 100   211  59 100   212  60 101  
   0   0   0     0   0   0     0   0   0     0   0   0     0   0   0     0   0   0     0   0   0     0   0   0   212  58  92   212  58  92   212  58  92   212  58  92   212  58  92   212  58  92   212  58  92   212  58  92   212  58  92   212  58  92   212  58  93   212  58  94   213  59  95   213  59  96   213  59  97   213  59  97   213  59  97   213  59  97   213  59  97   213  59  97   213  59  97   213  59  97   213  59  97   213  59  97   213  59  97   213  59  97   213  59  97   213  59  97   213  59  97   213  59  97   213  59  97   213  59  97   212  57  97   213  58  98   214  59  99   213  58  98   212  57  97   213  58  98   214  59  99   213  58  98   213  58  98   213  58  98   213  58  98   213  58  98   213  58  98   211  59  99   211  59 100   211  59 100   211  59 100   211  59 100   211  59 100   211  59 100   212  60 101  
   0   0   0     0   0   0     0   0   0     0   0   0     0   0   0     0   0   0     0   0   0     0   0   0   212  58  92   212  58  92   212  58  92   212  58  92   212  58  92   211  57  91   211  57  91   212  58  92   212  58  92   212  58  92   211  57  93   211  57  93   213  59  95   213  59  96   213  59  97   213  59  97   213  59  97   213  59  97   213  59  97   213  59  97   213  59  97   213  59  97   213  59  97   213  59  97   213  59  97   213  59  97   213  59  97   213  59  97   213  59  97   213  59  97   213  59  97   213  59  97   212  57  97   213  58  98   214  59  99   213  58  98   212  57  97   213  58  98   214  59  99   213  58  98   213  58  98   213  58  98   213  58  98   213  58  98   213  58  98   211  59  99   211  59 100   211  59 100   211  59 100   211  59 100   211  59 100   211  59 100   212  60 101  
   0   0   0     0   0   0     0   0   0     0   0   0     0   0   0     0   0   0     0   0   0     0   0   0   212  58  92   212  58  92   212  58  92   212  58  92   212  58  92   211  57  91   211  57  91   212  58  92   213  59  93   213  59  93   211  57  93   211  57  93   213  59  95   213  59  96   213  59  97   213  59  97   213  59  97   213  59  97   213  59  97   213  59  97   213  59  97   213  59  97   213  59  97   213  59  97   213  59  97   213  59  97   213  59  97   213  59  97   213  59  97   213  59  97   213  59  97   213  59  97   212  57  97   213  58  98   214  59  99   213  58  98   212  57  97   213  58  98   214  59  99   213  58  98   213  58  98   213  58  98   213  58  98   213  58  98   213  58  98   211  59  99   211  59 100   211  59 100   211  59 100   211  59 100   211  59 100   211  59 100   212  60 101  
   0   0   0     0   0   0     0   0   0     0   0   0     0   0   0     0   0   0     0   0   0     0   0   0   212  58  92   212  58  92   212  58  92   212  58  92   212  58  92   211  57  91   211  57  91   212  58  92   213  59  93   213  59  93   211  57  93   211  57  93   213  59  95   213  59  96   213  59  97   213  59  97   213  59  97   213  59  97   213  59  97   213  59  97   213  59  97   213  59  97   213  59  97   213  59  97   213  59  97   213  59  97   213  59  97   213  59  97   213  59  97   213  59  97   213  59  97   213  59  97   212  57  97   213  58  98   214  59  99   213  58  98   212  57  97   213  58  98   214  59  99   213  58  98   213  58  98   213  58  98   213  58  98   213  58  98   213  58  98   211  59  98   211  59 100   211  59 100   211  59 100   211  59 100   211  59 100   211  59 100   212  60 101  
   0   0   0     0   0   0     0   0   0     0   0   0     0   0   0     0   0   0     0   0   0     0   0   0   211  57  91   211  57  91   212  58  92   212  58  92   213  59  93   212  58  94   212  58  94   212  58  94   212  58  94   212  58  94   212  58  94   212  58  94   213  59  95   213  59  95   213  59  95   213  59  95   213  59  95   213  59  95   213  59  96   213  59  97   213  59  97   213  59  97   213  59  97   213  59  97   213  59  97   213  59  97   213  59  97   213  59  97   213  59  97   213  59  97   213  59  97   213  59  97   211  59  97   211  59  97   211  59  97   211  59  97   211  59  97   211  59  97   211  59  97   212  60  98   212  60  98   212  60  98   212  60  98   212  60  98   212  60  99   211  59  98   211  59  98   211  59  98   211  59  98   211  59  98   211  59  99   211  59 100   212  60 101  
   0   0   0     0   0   0     0   0   0     0   0   0     0   0   0     0   0   0     0   0   0     0   0   0   211  57  91   212  58  92   212  58  92   212  58  92   213  59  93   212  58  94   212  58  94   212  58  94   212  58  94   212  58  94   212  58  94   212  58  94   213  59  95   213  59  95   213  59  95   213  59  95   213  59  95   213  59  95   213  59  96   213  59  97   213  59  97   213  59  97   213  59  97   213  59  97   213  59  97   213  59  97   213  59  97   213  59  97   213  59  97   213  59  97   213  59  97   213  59  97   211  59  97   211  59  97   211  59  97   211  59  97   211  59  97   211  59  97   211  59  97   212  60  98   212  60  98   212  60  98   212  60  98   212  60  98   212  60  98   211  59  98   211  59  98   211  59  98   211  59  98   211  59  98   211  59  99   211  59 100   212  60 101  
   0   0   0     0   0   0     0   0   0     0   0   0     0   0   0     0   0   0     0   0   0     0   0   0   211  57  91   212  58  92   212  58  92   212  58  92   212  58  92   212  58  93   212  58  94   212  58  94   212  58  94   212  58  94   212  58  94   212  58  94   213  59  95   213  59  95   213  59  95   213  59  95   213  59  95   213  59  95   213  59  96   213  59  97   213  59  97   213  59  97   213  59  97   213  59  97   213  59  97   213  59  97   213  59  97   213  59  97   213  59  97   213  59  97   213  59  97   213  59  97   211  59  97   211  59  97   211  59  97   211  59  97   211  59  97   211  59  97   211  59  97   212  60  98   212  60  98   212  60  98   212  60  98   212  60  98   212  60  98   211  59  98   211  59  98   211  59  98   211  59  98   211  59  98   211  59  99   211  59 100   212  60 101  
   0   0   0     0   0   0     0   0   0     0   0   0     0   0   0     0   0   0     0   0   0     0   0   0   212  58  92   212  58  92   212  58  92   212  58  92   212  58  92   212  58  93   212  58  94   212  58  94   212  58  94   212  58  94   212  58  94   212  58  94   213  59  95   213  59  95   213  59  95   213  59  95   213  59  95   213  59  95   213  59  96   213  59  97   213  59  97   213  59  97   213  59  97   213  59  97   213  59  97   213  59  97   213  59  97   213  59  97   213  59  97   213  59  97   213  59  97   213  59  97   211  59  97   211  59  97   211  59  97   211  59  97   211  59  97   211  59  97   211  59  97   211  59  97   211  59  97   211  59  97   211  59  97   211  59  97   211  59  97   211  59  98   211  59  98   211  59  98   211  59  98   211  59  98   211  59  99   211  59 100   212  60 101  
   0   0   0     0   0   0     0   0   0     0   0   0     0   0   0     0   0   0     0   0   0     0   0   0   212  58  92   212  58  92   212  58  92   212  58  92   212  58  92   212  58  93   212  58  94   212  58  94   212  58  94   212  58  94   212  58  94   212  58  94   213  59  95   213  59  95   213  59  95   213  59  95   213  59  95   213  59  95   213  59  96   213  59  97   213  59  97   213  59  97   213  59  97   213  59  97   213  59  97   213  59  97   213  59  97   213  59  97   213  59  97   213  59  97   213  59  97   213  59  97   211  59  97   211  59  97   211  59  97   211  59  97   211  59  97   211  59  97   211  59  97   211  59  97   211  59  97   211  59  97   211  59  97   211  59  97   211  59  97   211  59  98   211  59  98   211  59  98   211  59  98   211  59  98   211  59  99   211  59 100   212  60 101  
   0   0   0     0   0   0     0   0   0     0   0   0     0   0   0     0   0   0     0   0   0     0   0   0   212  58  92   212  58  92   212  58  92   211  57  91   211  57  91   212  58  93   212  58  94   212  58  94   212  58  94   212  58  94   212  58  94   212  58  94   213  59  95   213  59  95   213  59  95   213  59  95   213  59  95   213  59  95   213  59  96   213  59  97   213  59  97   213  59  97   213  59  97   213  59  97   213  59  97   213  59  97   213  59  97   213  59  97   213  59  97   213  59  97   213  59  97   213  59  97   211  59  97   211  59  97   211  59  97   211  59  97   211  59  97   211  59  97   211  59  97   211  59  97   211  59  97   211  59  97     0   0   0     0   0   0     0   0   0     0   0   0     0   0   0     0   0   0     0   0   0     0   0   0     0   0   0     0   0   0     0   0   0  
   0   0   0     0   0   0     0   0   0     0   0   0     0   0   0     0   0   0     0   0   0     0   0   0   212  58  92   212  58  92   212  58  92   211  57  91   211  57  91   212  58  93   212  58  94   212  58  94   212  58  94   212  58  94   212  58  94   212  58  94   213  59  95   213  59  95   213  59  95   213  59  95   213  59  95   213  59  95   213  59  96   213  59  97   213  59  97   213  59  97   213  59  97   213  59  97   213  59  97   213  59  97   213  59  97   213  59  97   213  59  97   213  59  97   213  59  97   213  59  97   211  59  97   211  59  97   211  59  97   211  59  97   211  59  97   211  59  97   211  59  97   211  59  97   211  59  97   211  59  97     0   0   0     0   0   0     0   0   0     0   0   0     0   0   0     0   0   0     0   0   0     0   0   0     0   0   0     0   0   0     0   0   0  
   0   0   0     0   0   0     0   0   0     0   0   0     0   0   0     0   0   0     0   0   0     0   0   0   212  58  92   212  58  92   211  57  91   211  57  91   211  57  91   212  58  93   212  58  94   212  58  94   212  58  94   212  58  94   212  58  94   212  58  94   213  59  95   213  59  95   213  59  95   213  59  95   213  59  95   213  59  95   213  59  96   213  59  97   213  59  97   213  59  97   213  59  97   213  59  97   213  59  97   213  59  97   213  59  97   213  59  97   213  59  97   213  59  97   213  59  97   213  59  97   211  59  97   211  59  97   211  59  97   211  59  97   211  59  97   211  59  97   211  59  97   211  59  97   211  59  97   211  59  97     0   0   0     0   0   0     0   0   0     0   0   0     0   0   0     0   0   0     0   0   0     0   0   0     0   0   0     0   0   0     0   0   0  
   0   0   0     0   0   0     0   0   0     0   0   0     0   0   0     0   0   0     0   0   0     0   0   0   212  58  92   212  58  92   212  58  92   212  58  92   212  58  92   212  58  93   212  58  94   212  58  94   212  58  94   212  58  94   212  58  94   212  58  94   213  59  95   213  59  95   213  59  95   213  59  95   213  59  95   213  59  95   213  59  96   213  59  97   213  59  97   213  59  97   213  59  97   213  59  97   213  59  97   213  59  97   213  59  97   213  59  97   213  59  97   213  59  97   213  59  97   213  59  97   211  59  97   211  59  97   211  59  97   211  59  97   211  59  97   211  59  97   211  59  97   211  59  97   211  59  97   211  59  97     0   0   0     0   0   0     0   0   0     0   0   0     0   0   0     0   0   0     0   0   0     0   0   0     0   0   0     0   0   0     0   0   0  
   0   0   0     0   0   0     0   0   0     0   0   0     0   0   0     0   0   0     0   0   0     0   0   0   212  58  92   212  58  92   212  58  92   212  58  92   212  58  92   212  58  93   212  58  94   212  58  94   212  58  94   212  58  94   212  58  94   212  58  94   213  59  95   213  59  95   213  59  95   213  59  95   213  59  95   213  59  95   213  59  96   213  59  97   213  59  97   213  59  97   213  59  97   213  59  97   213  59  97   213  59  97   213  59  97   213  59  97   213  59  97   213  59  97   213  59  97   213  59  97   211  59  97   211  59  97   211  59  97   211  59  97   211  59  97   211  59  97   211  59  97   211  59  97   211  59  97   211  59  97     0   0   0     0   0   0     0   0   0     0   0   0     0   0   0     0   0   0     0   0   0     0   0   0     0   0   0     0   0   0     0   0   0  
   0   0   0     0   0   0     0   0   0     0   0   0     0   0   0     0   0   0     0   0   0     0   0   0   212  58  92   212  58  92   212  58  92   212  58  92   212  58  92   212  58  93   212  58  94   212  58  94   212  58  94   212  58  94   212  58  94   212  58  94   213  59  95   213  59  95   213  59  95   213  59  95   213  59  95   213  59  95   213  59  96   213  59  97   213  59  97   213  59  97   213  59  97   213  59  97   213  59  97   213  59  97   213  59  97   213  59  97   213  59  97   213  59  97   213  59  97   213  59  97   211  59  97   211  59  97   211  59  97   211  59  97   211  59  97   211  59  97   211  59  97   211  59  97   211  59  97   211  59  97     0   0   0     0   0   0     0   0   0     0   0   0     0   0   0     0   0   0     0   0   0     0   0   0     0   0   0     0   0   0     0   0   0  
 211  57  91   211  57  91   211  57  91   211  57  91   211  57  91   211  57  91   211  57  91   212  58  92   212  58  92   212  58  92   212  58  92   212  58  92   212  58  92   212  58  93   212  58  94   212  58  94   212  58  94   212  58  94   212  58  94   212  58  94   213  59  95   213  59  95   213  59  95   213  59  95   213  59  95   213  59  95   213  59  96   213  59  97   213  59  97   213  59  97   213  59  97   213  59  97   213  59  97   213  59  97   213  59  97   213  59  97   213  59  97   213  59  97   213  59  97   213  59  97   211  59  97   211  59  97   211  59  97   211  59  97   211  59  97   211  59  97   211  59  97   211  59  97   211  59  97   211  59  97     0   0   0     0   0   0     0   0   0     0   0   0     0   0   0     0   0   0     0   0   0     0   0   0     0   0   0     0   0   0     0   0   0  
 211  57  91   211  57  91   211  57  91   211  57  91   211  57  91   211  57  91   211  57  91   212  58  92   212  58  92   212  58  92   212  58  92   212  58  92   212  58  92   212  58  93   212  58  94   212  58  94   212  58  94   212  58  94   212  58  94   212  58  94   213  59  95   213  59  95   213  59  95   213  59  95   213  59  95   213  59  95   213  59  96   213  59  97   213  59  97   213  59  97   213  59  97   213  59  97   213  59  97   213  59  97   213  59  97   213  59  97   213  59  97   213  59  97   213  59  97   213  59  97   211  59  97   211  59  97   211  59  97   211  59  97   211  59  97   211  59  97   211  59  97   211  59  97   211  59  97   211  59  97     0   0   0     0   0   0     0   0   0     0   0   0     0   0   0     0   0   0     0   0   0     0   0   0     0   0   0     0   0   0     0   0   0  
 211  57  91   211  57  91   211  57  91   211  57  91   211  57  91   211  57  91   211  57  91   212  58  92   212  58  92   212  58  92   212  58  92   212  58  92   212  58  92   212  58  93   212  58  94   212  58  94   212  58  94   212  58  94   212  58  94   212  58  94   213  59  95   213  59  95   213  59  95   213  59  95   213  59  95   213  59  95   213  59  96   213  59  97   213  59  97   213  59  97   213  59  97   213  59  97   213  59  97   213  59  97   213  59  97   213  59  97   213  59  97   213  59  97   213  59  97   213  59  97   211  59  97   211  59  97   211  59  97   211  59  97   211  59  97   211  59  97   211  59  97   211  59  97   211  59  97   211  59  97     0   0   0     0   0   0     0   0   0     0   0   0     0   0   0     0   0   0     0   0   0     0   0   0     0   0   0     0   0   0     0   0   0  
 211  57  91   211  57  91   211  57  91   211  57  91   211  57  91   211  57  91   211  57  91   212  58  92   212  58  92   212  58  92   212  58  92   212  58  92   212  58  92   212  58  93   212  58  94   212  58  94   212  58  94   212  58  94   212  58  94   212  58  94   213  59  95   213  59  95   213  59  95   213  59  95   213  59  95   213  59  95   213  59  96   213  59  97   213  59  97   213  59  97   213  59  97   213  59  97   213  59  97   213  59  97   213  59  97   213  59  97   213  59  97   213  59  97   213  59  97   213  59  97   211  59  97   211  59  97   211  59  97   211  59  97   211  59  97   211  59  97   211  59  97   211  59  97   211  59  97   211  59  97     0   0   0     0   0   0     0   0   0     0   0   0     0   0   0     0   0   0     0   0   0     0   0   0     0   0   0     0   0   0     0   0   0  
 211  57  91   211  57  91   211  57  91   211  57  91   211  57  91   211  57  91   211  57  91   212  58  92   212  58  92   212  58  92   212  58  92   212  58  92   212  58  92   212  58  93   212  58  94   212  58  94   212  58  94   212  58  94   212  58  94   212  58  94   213  59  95   213  59  95   213  59  95   213  59  95   213  59  95   213  59  95   213  59  96   213  59  97   213  59  97   213  59  97   213  59  97   213  59  97   213  59  97   213  59  97   213  59  97   213  59  97   213  59  97   213  59  97   213  59  97   213  59  97   211  59  97   211  59  97   211  59  97   211  59  97   211  59  97   211  59  97   211  59  97   211  59  97   211  59  97   211  59  97     0   0   0     0   0   0     0   0   0     0   0   0     0   0   0     0   0   0     0   0   0     0   0   0     0   0   0     0   0   0     0   0   0  
 212  58  92   212  58  92   212  58  92   212  58  92   212  58  92   212  58  92   212  58  92   212  58  92   212  58  92   212  58  92   212  58  92   212  58  92   212  58  92   211  57  91   211  57  91   211  57  91   212  58  92   212  58  92   213  59  94   213  59  95   213  59  95   213  59  96   213  59  97   213  59  97   213  59  97   213  59  97   213  59  97   213  59  97   213  59  97   213  59  97   213  59  97   213  59  97   213  59  97   213  59  97   213  59  97   213  59  97   213  59  97   213  59  97   213  59  97   213  59  97   211  59  98   211  59  98   211  59  98   211  59  98   211  59  98   211  59  98   211  59  98   211  59  98   211  59  98   211  59  98     0   0   0     0   0   0     0   0   0     0   0   0     0   0   0     0   0   0     0   0   0     0   0   0     0   0   0     0   0   0     0   0   0  
 212  58  92   212  58  92   212  58  92   212  58  92   212  58  92   212  58  92   212  58  92   212  58  92   212  58  92   212  58  92   212  58  92   212  58  92   212  58  92   211  57  91   211  57  91   211  57  91   212  58  92   212  58  92   213  59  94   213  59  95   213  59  95   213  59  96   213  59  97   213  59  97   213  59  97   213  59  97   213  59  97   213  59  97   213  59  97   213  59  97   213  59  97   213  59  97   213  59  97   213  59  97   213  59  97   213  59  97   213  59  97   213  59  97   213  59  97   213  59  97   211  59  98   211  59  98   211  59  98   211  59  98   211  59  98   211  59  98   211  59  98   211  59  98   211  59  98   211  59  98     0   0   0     0   0   0     0   0   0     0   0   0     0   0   0     0   0   0     0   0   0     0   0   0     0   0   0     0   0   0     0   0   0  
 211  57  91   211  57  91   211  57  91   211  57  91   211  57  91   211  57  91   211  57  91   212  58  92   212  58  92   212  58  92   212  58  92   212  58  92   212  58  92   211  57  91   211  57  91   211  57  91   212  58  92   212  58  92   213  59  94   213  59  95   213  59  95   213  59  96   213  59  97   213  59  97   213  59  97   213  59  97   213  59  97   212  58  96   212  58  96   212  58  96   212  58  96   212  58  96   212  58  96   213  59  97   213  59  97   213  59  97   213  59  97   213  59  97   213  59  97   213  59  97   212  60  99   212  60  99   212  60  99   212  60  99   212  60  99   212  60  99   212  60  99   211  59  98   211  59  98   211  59  98     0   0   0     0   0   0     0   0   0     0   0   0     0   0   0     0   0   0     0   0   0     0   0   0     0   0   0     0   0   0     0   0   0  
 211  57  91   211  57  91   211  57  91   211  57  91   211  57  91   211  57  91   211  57  91   212  58  92   212  58  92   212  58  92   212  58  92   212  58  92   212  58  92   211  57  91     0   0   0     0   0   0     0   0   0     0   0   0     0   0   0     0   0   0     0   0   0     0   0   0     0   0   0     0   0   0     0   0   0     0   0   0     0   0   0     0   0   0     0   0   0     0   0   0     0   0   0     0   0   0     0   0   0     0   0   0     0   0   0     0   0   0   213  59  97   213  59  97   213  59  97   213  59  97   212  60  99   212  60  99   212  60  99   212  60  99   212  60  99   212  60  99   212  60  99   211  59  98   211  59  98   211  59  98     0   0   0     0   0   0     0   0   0     0   0   0     0   0   0     0   0   0     0   0   0     0   0   0     0   0   0     0   0   0     0   0   0  
 211  57  91   211  57  91   211  57  91   211  57  91   211  57  91   211  57  91   211  57  91   212  58  92   212  58  92   212  58  92   212  58  92   212  58  92   212  58  92   211  57  91     0   0   0     0   0   0     0   0   0     0   0   0     0   0   0     0   0   0     0   0   0     0   0   0     0   0   0     0   0   0     0   0   0     0   0   0     0   0   0     0   0   0     0   0   0     0   0   0     0   0   0     0   0   0     0   0   0     0   0   0     0   0   0     0   0   0   212  58  96   212  58  96   212  58  96   212  58  96   212  60  99   212  60  99   212  60  99   212  60  99   212  60  99   212  60  99   212  60  99   211  59  98   211  59  98   211  59  98     0   0   0     0   0   0     0   0   0     0   0   0     0   0   0     0   0   0     0   0   0     0   0   0     0   0   0     0   0   0     0   0   0  
 211  57  91   211  57  91   211  57  91   211  57  91   211  57  91   211  57  91   211  57  91   212  58  92   212  58  92   212  58  92   212  58  92   212  58  92   212  58  92   211  57  91     0   0   0     0   0   0     0   0   0     0   0   0     0   0   0     0   0   0     0   0   0     0   0   0     0   0   0     0   0   0     0   0   0     0   0   0     0   0   0     0   0   0     0   0   0     0   0   0     0   0   0     0   0   0     0   0   0     0   0   0     0   0   0     0   0   0   212  58  96   212  58  96   212  58  96   212  58  96   212  60  99   212  60  99   212  60  99   212  60  99   212  60  99   212  60  99   212  60  99   211  59  98   211  59  98   211  59  98     0   0   0     0   0   0     0   0   0     0   0   0     0   0   0     0   0   0     0   0   0     0   0   0     0   0   0     0   0   0     0   0   0  
