P3
50 50
255
 151  64  36   149  62  34   146  60  33   146  60  33   148  62  35   148  62  37   146  60  35   143  59  33   142  60  36   141  59  35   140  60  35   140  58  34   138  58  33   137  57  32   136  56  33   136  56  33   137  57  34   135  57  34   134  56  34   133  55  33   133  55  33   133  55  33   134  56  34   134  56  34   135  58  38     0   0   0     0   0   0     0   0   0     0   0   0     0   0   0     0   0   0     0   0   0     0   0   0     0   0   0     0   0   0     0   0   0     0   0   0     0   0   0     0   0   0     0   0   0   125  56  40   125  56  40   125  56  40   124  55  39   124  55  39   124  55  39   123  56  39   122  55  38   122  55  38   122  55  38  
 150  64  35   149  62  34   146  60  33   146  60  33   147  61  36   147  62  37   145  61  35   143  59  33   141  61  36   141  61  36   140  60  35   139  59  34   138  58  34   137  57  33   136  57  34   135  56  33   135  57  34   135  57  34   134  56  34   133  55  33   133  55  33   133  55  33   134  56  35   134  56  36   135  58  38     0   0   0     0   0   0     0   0   0     0   0   0     0   0   0     0   0   0     0   0   0     0   0   0     0   0   0     0   0   0     0   0   0     0   0   0     0   0   0     0   0   0     0   0   0   125  55  40   125  55  40   124  55  39   124  55  39   124  55  39   123  55  39   122  55  38   122  55  38   121  55  38   122  55  38  
 150  63  35   148  61  34   147  61  34   146  60  33   146  62  36   146  62  36   145  61  35   143  59  33   141  61  36   141  61  36   140  60  35   140  60  35   139  59  36   138  58  35   136  58  35   136  58  35   135  57  35   135  57  35   134  56  34   133  55  33   133  55  33   133  55  33   134  56  36   134  56  36   134  58  38     0   0   0     0   0   0     0   0   0     0   0   0     0   0   0     0   0   0     0   0   0     0   0   0     0   0   0     0   0   0     0   0   0     0   0   0     0   0   0     0   0   0     0   0   0   124  55  40   124  55  40   123  56  40   123  56  40   123  56  40   122  55  39   122  55  39   122  55  39   120  54  38   121  55  39  
 148  61  33   148  61  34   147  61  34   146  60  34   144  60  34   144  60  34   144  60  35   144  60  35   140  60  35   140  60  35   140  60  36   139  59  35   139  59  36   138  58  35   136  58  35   136  58  35   135  57  35   135  57  35   133  57  34   132  55  33   132  55  34   132  55  34   133  56  36   133  56  36   133  58  39     0   0   0     0   0   0     0   0   0     0   0   0     0   0   0     0   0   0     0   0   0     0   0   0     0   0   0     0   0   0     0   0   0     0   0   0     0   0   0     0   0   0   125  55  39   123  55  40   123  55  40   122  55  39   122  55  39   121  55  39   121  55  39   121  54  38   121  54  38   120  54  38   120  54  38  
 147  60  33   148  61  34   147  61  36   146  60  35   144  60  34   143  59  33   143  59  35   142  60  36   140  58  34   139  59  34   139  59  36   138  58  35   138  58  35   138  58  35   136  58  35   135  57  34   135  57  35   135  57  35   133  57  34   132  56  33   132  55  35   132  55  35   133  56  36   132  57  36   130  57  38     0   0   0     0   0   0     0   0   0     0   0   0     0   0   0     0   0   0     0   0   0     0   0   0     0   0   0     0   0   0     0   0   0     0   0   0     0   0   0     0   0   0   124  55  39   122  55  39   122  55  39   122  55  39   122  55  39   121  55  39   120  54  38   120  54  38   120  54  38   119  53  37   120  54  38  
 145  59  32   147  61  34   147  63  37   145  61  35   143  59  35   142  58  34   141  59  35   142  60  36   138  56  34   138  56  34   137  57  34   137  57  34   137  57  34   137  57  34   135  57  35   135  57  35   134  58  35   134  58  35   132  57  36   131  56  35   131  56  35   131  56  35   132  57  36   130  58  36   130  57  38   129  56  37     0   0   0     0   0   0     0   0   0     0   0   0     0   0   0     0   0   0     0   0   0     0   0   0     0   0   0     0   0   0     0   0   0     0   0   0     0   0   0   122  55  39   121  55  39   121  55  39   121  55  39   121  55  39   120  54  38   120  54  38   118  55  38   118  55  38   117  54  37   117  54  37  
 145  59  32   146  60  35   146  62  36   145  60  35   142  59  35   141  57  33   141  59  36   142  60  36   138  56  35   138  56  35   137  57  35   136  56  34   136  56  33   136  56  33   134  56  34   134  56  34   134  58  36   134  58  36   132  57  36   130  56  35   130  56  36   130  56  36   130  58  36   129  57  38   129  56  37   128  55  37     0   0   0     0   0   0     0   0   0     0   0   0     0   0   0     0   0   0     0   0   0   123  55  39     0   0   0     0   0   0     0   0   0     0   0   0     0   0   0   122  55  39   120  55  39   120  55  39   120  55  39   120  55  39   119  54  38   119  54  38   117  55  38   117  55  38   117  54  38   117  54  38  
 145  59  33   145  59  34   144  60  35   144  60  36   141  59  35   141  59  35   141  59  37   141  59  37   140  58  36   140  58  36   138  57  36   138  57  36   137  56  35   137  56  35   134  56  34   134  57  34   134  58  37   133  58  37   131  59  37   130  58  36   130  57  38   130  57  38   129  58  38   128  57  37   126  55  36   126  55  37     0   0   0     0   0   0     0   0   0     0   0   0     0   0   0     0   0   0     0   0   0   122  55  38     0   0   0     0   0   0     0   0   0     0   0   0   121  55  39   121  55  39   119  56  41   119  56  41   119  56  41   119  56  41   119  56  41   118  55  40   117  55  40   117  55  40   117  55  40   117  55  40  
 144  60  34   144  60  34   142  60  36   142  60  36   141  59  36   141  59  36   140  60  37   140  60  37   140  58  37   140  58  37   139  57  36   139  57  36   137  56  35   137  56  35   134  56  35   133  56  35   132  57  36   132  57  36   130  57  37   130  57  37   129  58  38   128  57  37   126  58  37   126  58  37   125  55  37   125  55  37     0   0   0     0   0   0     0   0   0     0   0   0     0   0   0     0   0   0     0   0   0   121  55  39   121  55  39     0   0   0     0   0   0     0   0   0   120  55  40   120  55  40   119  57  42   119  57  42   119  57  42   118  56  41   118  56  41   118  55  40   116  56  40   116  56  40   115  55  39   115  55  39  
 145  61  35   144  60  34   142  60  36   142  60  36   141  59  37   141  59  37   140  60  37   139  59  36   140  58  37   140  58  37   139  57  36   139  57  36   137  56  35   137  56  35   133  56  36   133  56  36   132  57  36   132  57  36   130  57  38   130  57  38   128  57  37   128  57  37   126  58  37   126  58  39   124  56  37   124  56  37     0   0   0     0   0   0     0   0   0     0   0   0     0   0   0     0   0   0   121  55  39   121  55  39   121  55  39     0   0   0     0   0   0     0   0   0   119  56  41   119  56  41   118  56  41   118  56  41   118  56  41   118  56  41   117  55  40   117  55  40   115  56  40   115  56  40   114  55  39   114  55  39  
 145  61  35   145  61  37   142  60  36   142  60  36   140  60  37   140  60  37   139  59  36   139  59  36   140  58  37   140  58  37   139  57  36   139  57  36   137  56  37   137  56  37   133  56  36   133  56  36   132  57  38   130  57  38   128  57  37   128  57  37   126  58  37   126  58  37   124  57  38   124  57  38   123  56  37   123  56  39     0   0   0     0   0   0     0   0   0     0   0   0     0   0   0     0   0   0   121  55  39   121  55  39   119  56  41     0   0   0     0   0   0     0   0   0   119  56  41   119  56  41   117  55  42   117  55  42   114  55  41   114  55  41   114  55  41   114  55  41   113  54  40   113  54  40   113  55  41   113  55  41  
 146  62  38   145  61  37   143  61  37   142  60  36   140  60  37   139  59  36   139  58  36   138  58  35   140  58  37   140  58  37   139  57  36   139  57  36   137  56  37   135  57  37   133  56  36   133  56  36   129  56  37   129  56  37   128  57  37   128  57  37   125  58  37   125  57  36   124  57  38   124  57  38   123  56  39   123  56  39     0   0   0     0   0   0     0   0   0     0   0   0     0   0   0     0   0   0   120  55  39   120  55  39   119  56  41   119  56  41     0   0   0   119  56  41   119  56  41   119  56  41   115  55  41   115  54  41   114  55  41   113  54  40   113  54  40   113  54  40   113  54  40   113  54  40   112  54  40   112  54  40  
 146  62  38   146  62  38   143  61  39   142  60  38   140  60  37   139  59  36   138  58  36   138  57  36   140  58  37   140  58  37   139  57  38   139  57  38   136  57  37   135  57  37   133  56  36   133  57  36   129  56  37   129  56  37   128  57  37   128  57  37   125  57  38   124  57  38   124  57  38   124  57  38   123  56  39   123  56  39     0   0   0     0   0   0     0   0   0     0   0   0     0   0   0   121  55  39   119  56  39   119  56  39   119  56  41   119  56  41     0   0   0   118  56  41   118  56  41   118  56  41   115  56  41   115  56  42   115  56  41   115  56  42   115  56  41   114  55  41   113  55  41   113  55  41   112  54  40   112  54  40  
 145  61  36   145  61  36   142  60  37   141  59  36   140  58  35   140  58  36   139  58  35   138  57  36   138  57  36   138  57  38   136  58  38   136  57  37   134  56  36   133  56  36   132  57  37   131  56  37   129  56  37   129  56  37   128  57  38   128  57  38   126  56  38   125  57  38   125  57  38   124  57  38   124  57  39   123  57  38     0   0   0     0   0   0     0   0   0     0   0   0     0   0   0   121  57  40   118  57  39   118  57  39   118  57  40   118  57  40   118  57  40   118  57  40   118  56  41   118  56  41   114  55  39   113  56  40   113  56  38   113  55  39   113  55  37   112  55  39   111  55  39   111  55  39   111  55  38   111  55  38  
   0   0   0     0   0   0     0   0   0   141  59  35   140  58  34   140  58  34   140  58  36   139  57  36   136  58  36   136  58  38   136  58  38   135  57  37   133  56  36   133  56  36   132  57  38   131  56  37   129  56  37   129  56  37   128  57  39   128  57  39   127  56  38   127  56  38   125  57  38   125  57  38   124  59  39   123  58  38   122  57  37     0   0   0     0   0   0     0   0   0   120  57  39   120  57  39   118  57  39   118  57  39   118  57  39   118  57  39   118  57  39   118  57  39   118  56  41   116  57  41   113  56  37   113  56  37   113  56  37   112  55  36   112  55  36   112  55  36   111  55  38   111  55  38   111  55  38   111  55  38  
   0   0   0     0   0   0     0   0   0     0   0   0     0   0   0     0   0   0     0   0   0     0   0   0   136  58  36   136  58  38   136  58  38   135  57  37   133  56  36   133  56  36   132  57  38   131  56  37   129  56  37   129  56  37   128  57  39   128  57  39   127  56  38   127  56  38   125  57  38   125  57  38   123  58  38   123  58  38   122  57  39     0   0   0     0   0   0     0   0   0   120  57  39   120  57  39   118  57  39   118  57  39   118  57  39   118  57  39   118  56  41   118  56  41   116  57  41   116  57  41   113  56  37   113  56  37   113  56  37   112  55  36   112  55  38   112  55  38   111  55  38   111  55  38   111  55  40     0   0   0  
   0   0   0     0   0   0     0   0   0     0   0   0     0   0   0     0   0   0     0   0   0     0   0   0     0   0   0     0   0   0     0   0   0     0   0   0     0   0   0     0   0   0   132  57  38   131  56  37   129  56  37   129  56  37   128  57  39   128  57  39   126  56  38   126  56  38   125  57  38   124  57  38   123  58  38   122  58  38   122  57  39     0   0   0     0   0   0   119  56  38   119  57  39   119  57  39   118  57  39   118  57  39   117  57  40   117  57  40   117  56  41   117  56  41   116  57  41   116  57  41   113  56  37   113  56  37   113  56  37   112  55  36   112  55  38     0   0   0     0   0   0     0   0   0     0   0   0     0   0   0  
   0   0   0     0   0   0     0   0   0     0   0   0     0   0   0     0   0   0     0   0   0     0   0   0     0   0   0     0   0   0     0   0   0     0   0   0     0   0   0     0   0   0     0   0   0     0   0   0     0   0   0   129  56  37   128  57  39   128  57  39   125  57  38   125  57  38   125  57  38   124  57  38   122  57  39   120  57  39   121  58  40     0   0   0     0   0   0   120  57  39   118  57  39   118  57  39   118  57  39   118  57  39   116  57  41   116  57  41   116  57  41   116  57  41   116  57  41   116  57  41   113  56  37   113  56  37     0   0   0     0   0   0     0   0   0     0   0   0     0   0   0     0   0   0     0   0   0     0   0   0  
   0   0   0     0   0   0     0   0   0     0   0   0     0   0   0     0   0   0     0   0   0     0   0   0     0   0   0     0   0   0     0   0   0     0   0   0     0   0   0     0   0   0     0   0   0   130  56  37   128  57  37   128  57  37   126  58  39   126  58  39   125  57  38   125  57  38   124  57  38   124  57  38   122  57  39   120  57  39   121  58  40     0   0   0   120  59  40   119  58  40   118  57  39   117  56  38   118  56  40   118  56  40   116  57  41   116  57  41   116  57  41   116  57  41   116  57  42   116  57  42     0   0   0     0   0   0     0   0   0     0   0   0     0   0   0     0   0   0     0   0   0     0   0   0     0   0   0     0   0   0  
   0   0   0     0   0   0     0   0   0     0   0   0     0   0   0     0   0   0     0   0   0     0   0   0     0   0   0     0   0   0     0   0   0     0   0   0     0   0   0   132  57  36   130  57  38   129  56  37   128  57  37   128  57  37   126  58  39   126  58  39   125  57  38   125  57  38   124  57  38   123  58  38   119  56  38   120  57  39   121  58  40   121  58  40   120  59  41   119  58  40   118  57  39   117  56  38   118  56  41   118  56  41   116  57  41   116  57  41   116  57  41   116  57  41     0   0   0     0   0   0     0   0   0     0   0   0     0   0   0     0   0   0     0   0   0     0   0   0     0   0   0     0   0   0     0   0   0     0   0   0  
   0   0   0     0   0   0     0   0   0     0   0   0     0   0   0     0   0   0     0   0   0     0   0   0     0   0   0     0   0   0   134  59  38   134  59  38   133  58  37   133  58  37   131  58  39   131  58  39   129  58  38   129  58  38   126  58  39   126  58  39   124  57  38   124  57  38   123  56  37   122  57  37   121  58  40   119  58  40   119  58  40   118  57  39   118  57  39   117  56  38   115  56  40   115  56  40   115  56  40   115  56  40   115  56  42   116  57  43   114  56  42     0   0   0     0   0   0     0   0   0     0   0   0     0   0   0     0   0   0     0   0   0     0   0   0     0   0   0     0   0   0     0   0   0     0   0   0     0   0   0  
   0   0   0     0   0   0     0   0   0     0   0   0     0   0   0     0   0   0     0   0   0     0   0   0   135  58  38   135  58  38   134  59  38   134  59  38   132  58  37   132  58  37   130  58  39   130  58  39   128  58  38   128  58  38   126  58  39   126  58  39   124  57  38   124  57  38   123  56  37   122  57  39   121  58  40   119  58  40   119  58  40   119  58  40   118  57  40   117  56  39   115  56  40   115  56  40   115  56  41   115  56  41   115  56  42     0   0   0     0   0   0     0   0   0     0   0   0     0   0   0     0   0   0     0   0   0     0   0   0     0   0   0     0   0   0     0   0   0     0   0   0     0   0   0     0   0   0     0   0   0  
   0   0   0     0   0   0     0   0   0     0   0   0     0   0   0     0   0   0     0   0   0   137  59  39   135  59  38   134  59  38   134  59  38   134  59  38   131  59  37   131  59  37   130  59  39   130  59  39   127  59  38   127  59  38   127  59  40   126  58  39   125  58  39   124  57  38   124  57  38   123  58  40   121  58  40   120  59  41   120  59  41   119  58  40   119  57  42   118  56  41   116  57  41   115  56  40   115  56  42   115  56  42     0   0   0     0   0   0     0   0   0     0   0   0     0   0   0     0   0   0     0   0   0     0   0   0     0   0   0     0   0   0     0   0   0     0   0   0     0   0   0     0   0   0     0   0   0     0   0   0  
   0   0   0     0   0   0     0   0   0     0   0   0     0   0   0     0   0   0   137  59  39   137  59  39   134  59  38   134  59  38   134  59  38   134  59  38   131  59  37   131  59  37   130  59  39   130  59  39   128  60  39   128  60  39   126  59  40   126  59  40   125  58  39   125  58  39   123  58  38   123  58  40   122  59  40   120  59  41   118  59  42   117  58  41   117  58  42   116  57  41   116  57  41   115  57  40   114  56  42   114  56  42   114  56  42   115  57  43     0   0   0     0   0   0     0   0   0     0   0   0     0   0   0     0   0   0     0   0   0     0   0   0     0   0   0     0   0   0     0   0   0     0   0   0     0   0   0     0   0   0  
   0   0   0     0   0   0     0   0   0     0   0   0     0   0   0     0   0   0   137  59  39   136  59  39   134  59  38   134  59  38   134  59  38   134  59  38   131  59  37   131  59  37   130  59  39   130  59  39   128  60  39   128  60  39   127  60  41   126  59  40   125  58  39   125  58  39   124  59  39   121  58  40   121  60  42   121  60  42   118  59  43   118  59  43   117  58  42   117  58  42   116  57  41   116  57  41   114  56  42   114  56  42   114  56  42   115  57  43   113  57  44   113  57  44   112  56  43   111  55  42     0   0   0     0   0   0     0   0   0     0   0   0     0   0   0     0   0   0     0   0   0     0   0   0     0   0   0     0   0   0  
   0   0   0     0   0   0     0   0   0     0   0   0     0   0   0     0   0   0   136  59  39   136  59  39   134  59  38   134  59  38   132  60  38   132  60  38   131  59  37   131  59  37   130  59  39   130  59  39   128  60  39   128  60  39   127  60  41   126  59  40   125  60  40   124  59  39   124  59  39   122  59  41   121  60  42   119  60  44   119  60  44   118  59  43   117  58  42   117  58  42   117  58  44   116  57  43   114  56  42   114  56  42   114  56  44   115  57  45   113  57  44   113  57  44   112  56  43   111  55  42   110  57  41   110  57  41   110  57  43     0   0   0     0   0   0     0   0   0     0   0   0     0   0   0     0   0   0     0   0   0  
   0   0   0     0   0   0     0   0   0     0   0   0     0   0   0     0   0   0     0   0   0     0   0   0     0   0   0   132  60  38   132  60  38   132  60  38   131  59  38   129  59  37   129  59  39   127  60  39   128  60  40   127  61  40   126  60  40   124  60  40   124  60  41   124  59  40   122  60  40   122  59  41   120  60  42   119  60  43   119  60  43   118  59  42   118  59  42   117  58  42   117  58  42   116  57  43   114  56  41   114  56  42   114  56  42   114  57  44   113  57  43   113  57  43   112  56  42   111  55  42   110  57  40   110  57  41   110  57  42   109  56  42   108  56  42   108  56  42   108  56  42     0   0   0     0   0   0     0   0   0  
   0   0   0     0   0   0     0   0   0     0   0   0     0   0   0     0   0   0     0   0   0     0   0   0     0   0   0     0   0   0     0   0   0     0   0   0   130  61  40   128  60  39   128  61  39   126  60  38   127  61  41   126  61  41   124  61  40   123  61  40   123  61  42   123  61  42   121  60  41   121  60  41   120  61  43   119  60  42   118  59  41   117  58  40   117  58  40   117  58  41   116  59  42   116  59  42   115  58  41   115  57  42   114  58  43   114  58  43   113  57  42   113  57  42   113  57  42   113  57  42   110  57  41   110  57  41   110  57  41   110  57  41   109  58  41   109  58  41   109  57  43   110  58  44     0   0   0     0   0   0  
   0   0   0     0   0   0     0   0   0     0   0   0     0   0   0     0   0   0     0   0   0     0   0   0     0   0   0     0   0   0     0   0   0     0   0   0     0   0   0     0   0   0     0   0   0   126  59  39   126  61  41   126  61  41   123  60  41   123  60  41   122  61  42   122  61  42   121  60  41   121  60  41   120  61  43   119  60  42   119  60  42   118  59  40   117  58  41   117  58  41   116  59  42   116  59  42   115  58  43   115  58  43   115  59  44   115  59  44   114  58  43   114  58  43   114  58  44   114  58  44   110  57  41   110  57  41   109  58  41   109  58  41   109  58  41   109  58  41   109  57  43     0   0   0     0   0   0     0   0   0  
   0   0   0     0   0   0     0   0   0     0   0   0     0   0   0     0   0   0     0   0   0     0   0   0     0   0   0     0   0   0     0   0   0     0   0   0     0   0   0     0   0   0     0   0   0     0   0   0     0   0   0   126  61  41   123  60  42   123  60  42   122  61  42   122  61  42   121  60  41   121  60  41   120  61  43   120  61  43   119  60  42   118  59  41   117  58  42   117  58  42   116  59  42   117  60  43   116  58  44   116  58  44   114  58  43   114  58  43   114  58  43   114  58  43   114  58  45   113  57  44   110  57  41   110  57  41   109  58  41   109  58  41   109  58  41   109  58  41   109  57  43     0   0   0     0   0   0     0   0   0  
   0   0   0     0   0   0     0   0   0     0   0   0     0   0   0     0   0   0     0   0   0     0   0   0     0   0   0     0   0   0     0   0   0     0   0   0     0   0   0     0   0   0   126  61  41   125  60  40   124  62  41   124  62  41   123  60  42   123  60  42   122  61  42   122  61  42   121  60  41   121  60  41   121  62  44   120  61  43   119  60  44   118  59  43   117  60  43   117  60  43   117  60  43   117  60  43   114  58  43   113  57  42   113  57  42   113  57  42   113  57  44   113  57  44   110  57  43   110  57  43   110  59  42   110  59  42   110  59  42   109  58  41   109  57  43   108  56  42     0   0   0     0   0   0     0   0   0     0   0   0  
   0   0   0     0   0   0     0   0   0     0   0   0     0   0   0     0   0   0     0   0   0     0   0   0     0   0   0     0   0   0   129  61  41   129  61  41   128  62  41   127  60  40   126  61  41   125  60  40   124  62  41   124  62  41   123  60  42   123  60  42   121  61  42   121  61  42   120  60  41   120  60  42   120  62  44   120  61  44   120  61  45   119  60  44   117  60  43   117  60  43   117  60  43   117  60  44   113  57  42   113  57  42   113  57  43   112  57  42   112  56  43   112  56  43   110  57  43   110  57  43   110  59  43   110  59  42   110  59  42   109  58  41   108  57  43   107  56  42   106  57  42     0   0   0     0   0   0     0   0   0  
   0   0   0     0   0   0     0   0   0     0   0   0     0   0   0     0   0   0   133  62  40   133  62  41   129  61  40   129  61  40   129  61  42   129  61  42   128  61  42   127  60  41   126  61  41   125  60  40   124  61  43   124  61  43   122  61  42     0   0   0   120  61  43   120  61  43   119  60  42   119  60  42   120  63  45   120  63  46   119  62  45   118  61  44   117  60  43   117  60  43   116  60  45   117  61  46   115  59  44   115  59  44   113  60  46   112  59  45   112  59  45   112  59  45   112  59  45   112  59  45   111  59  45   111  59  45   110  58  44   109  57  43   107  58  43   106  57  42   106  57  43   105  56  42     0   0   0     0   0   0  
   0   0   0     0   0   0   135  64  42   135  64  42   132  63  42   132  63  42   132  63  42   132  63  43   128  62  40   128  61  41   128  61  42   128  61  42   126  61  41   126  60  41   125  61  42   124  60  42   123  60  42   123  60  42     0   0   0     0   0   0   119  60  42   118  60  41   118  59  41   118  59  41   118  61  45   118  61  45   118  61  45   118  60  45   116  60  44   116  60  44   116  60  45   116  60  45   112  58  44   112  58  44   111  58  45   111  58  45   111  57  45   111  57  45   111  58  45   111  59  45   110  60  45   110  60  45   109  59  45   109  59  44   108  59  44   107  58  43   105  57  43   104  56  42   106  58  45     0   0   0  
 136  64  42   135  63  41   134  63  41   134  63  41   132  64  43   132  64  43   131  63  42   131  63  42   128  61  42   128  61  42   128  61  42   128  61  42   126  61  41   126  61  41   124  61  43   124  61  43   124  61  43     0   0   0     0   0   0     0   0   0     0   0   0   119  60  42   118  59  41   118  59  43   118  61  44   118  61  44   118  60  46     0   0   0   116  60  45   116  60  45   116  60  45   116  60  45   113  60  46   113  60  46   113  60  46   113  60  46   112  58  46   112  58  46   111  59  46   111  59  46   108  59  44   109  60  45   109  60  45   109  60  45   108  59  45   107  58  44   106  58  44   105  57  43   106  58  46   106  58  46  
 134  63  41   134  63  41   131  63  42   131  63  42   130  64  42   130  64  42   130  64  42   129  63  41   128  61  42   128  61  42   128  61  44   128  61  44   127  62  44   126  61  43   124  61  43   124  61  43   124  63  45     0   0   0     0   0   0     0   0   0     0   0   0   120  61  45   118  61  44   118  61  44   117  61  44   117  61  46   117  61  46     0   0   0   117  61  46   116  60  45   114  61  47   114  61  47   115  62  48   115  62  48   113  61  48   113  61  48   113  61  48   112  60  47   112  60  47   112  60  47   108  59  45   108  59  45   109  60  46   109  60  46   108  60  46   107  59  45   107  59  47   106  58  46   105  59  46   105  59  46  
 132  62  41   132  62  41   130  63  42   130  63  42   129  63  41   129  63  41   129  63  41   129  62  43   129  62  43   129  62  43   128  61  44   128  61  44   127  62  44   127  62  44   124  61  43   124  61  43     0   0   0     0   0   0     0   0   0     0   0   0     0   0   0   120  62  46   119  62  45   119  62  45   118  62  47   118  62  47     0   0   0     0   0   0     0   0   0   117  61  46   114  61  47   114  61  47   115  62  49   115  62  49   114  62  49   113  61  48   113  60  48   112  60  47   111  59  46   111  59  46   108  59  45   108  59  45   109  60  46   109  60  46   109  61  47   108  60  46   108  60  48   108  60  48   106  60  47   106  60  47  
 132  64  43   132  64  43   130  64  42   130  64  42   129  64  42   129  64  42   129  64  44   128  63  43   129  62  44   129  62  45   128  63  45   128  63  45   128  63  45   127  62  44   125  62  45     0   0   0     0   0   0     0   0   0     0   0   0     0   0   0     0   0   0     0   0   0   120  63  46   120  63  46   118  62  47   118  62  47     0   0   0     0   0   0     0   0   0   117  61  48   115  62  48   115  62  48   115  61  49   115  61  49   114  62  49   113  61  48   112  60  47   112  60  47   112  60  49   112  60  49   110  61  47   110  61  47   110  62  48   110  62  48   110  62  48   109  61  47   109  61  49   108  60  48   107  61  48   107  61  48  
 133  65  44   132  64  43   130  65  43   130  65  43   130  65  44   130  65  44   129  64  44   129  64  44   129  63  45   129  63  45   128  63  45   128  63  45   126  63  45   126  63  45   125  62  45     0   0   0     0   0   0     0   0   0     0   0   0     0   0   0     0   0   0     0   0   0   119  62  45   119  62  45   119  63  48   119  63  48     0   0   0     0   0   0     0   0   0   116  62  49   115  62  48   115  62  48   114  62  49   114  62  49   114  62  49   114  62  49   113  61  50   113  61  50   112  61  50   112  61  50   110  62  48   110  62  48   110  63  49   110  63  49   110  62  49   109  61  48   107  61  48   107  60  48   108  61  50   108  61  50  
 132  66  44   132  66  44   132  66  44   131  66  46   130  65  45   130  65  45   130  65  45   130  65  45   129  64  46   129  64  46   129  64  46   126  63  45   126  63  45   126  63  45   126  63  46     0   0   0     0   0   0     0   0   0     0   0   0     0   0   0     0   0   0     0   0   0   118  61  44   118  61  44   119  63  48     0   0   0     0   0   0     0   0   0     0   0   0   116  63  49   116  63  49   115  62  48   115  63  50   115  63  50   115  63  50   115  63  50   115  63  52   116  64  53   114  64  53   114  64  53   111  63  49   111  63  49   111  63  49   111  63  49   110  62  50   109  61  49   107  61  48   106  60  47   108  61  51   108  61  51  
 132  67  47   131  66  46   131  66  46   129  66  48   129  66  48   128  65  47   128  65  47   128  65  47   127  64  46   127  64  46   127  64  47   126  65  47   126  65  47   125  64  46   125  64  46     0   0   0     0   0   0     0   0   0     0   0   0     0   0   0     0   0   0     0   0   0   119  61  47   120  62  48   117  61  46     0   0   0     0   0   0     0   0   0     0   0   0     0   0   0   115  63  49   115  63  49   112  63  48   113  64  49   113  64  50   113  64  50   113  64  50   114  65  51   113  65  51   113  65  51   111  61  50   112  62  51   112  64  52   112  64  52   109  63  50   108  62  49   108  61  51   108  61  51   107  63  52   107  63  52  
 130  68  47   130  68  47   129  66  48   129  66  48   129  66  48   129  66  48   127  66  47   127  66  47   127  64  46   127  65  46   126  65  47   127  66  48   126  65  47   126  65  47     0   0   0     0   0   0     0   0   0     0   0   0     0   0   0     0   0   0     0   0   0     0   0   0     0   0   0   120  62  48     0   0   0     0   0   0     0   0   0     0   0   0     0   0   0     0   0   0   115  63  49   115  63  49   112  63  48   112  63  48   113  64  50   113  64  50   113  64  50   113  64  50   113  65  50   113  65  50   111  61  50   113  63  52   113  65  53   112  65  52   110  64  51   109  63  50   109  62  52   109  63  52   107  63  52   107  63  52  
 130  68  47   130  68  47   130  67  49   130  67  49   128  67  48   128  67  48   128  67  48   128  67  48   127  66  47   127  66  47   128  67  49   128  67  49   127  66  48   127  66  48     0   0   0     0   0   0     0   0   0     0   0   0     0   0   0     0   0   0     0   0   0     0   0   0     0   0   0   120  63  48     0   0   0     0   0   0     0   0   0     0   0   0     0   0   0     0   0   0   115  63  49   115  63  49   112  63  48   112  63  48   112  63  49   113  64  50   112  64  50   112  64  50   112  64  50   112  64  50   112  64  52   114  66  54   115  67  55   115  67  55   112  66  53   111  65  52   109  65  54   110  66  55   108  66  54   108  66  54  
 130  69  48   130  69  48   129  68  49   129  68  49   129  68  49   129  68  49   128  67  48   128  67  48   126  67  48   126  67  48   126  67  49   126  67  49   126  67  49   126  66  48     0   0   0     0   0   0     0   0   0     0   0   0     0   0   0     0   0   0     0   0   0     0   0   0     0   0   0   120  64  49     0   0   0     0   0   0     0   0   0     0   0   0     0   0   0     0   0   0   112  63  48   112  63  48   111  62  47   111  62  47   111  63  49   111  63  49   111  63  49   111  63  49   112  64  50   112  64  50   112  64  52   114  66  54   115  67  55   115  67  55   113  67  54   112  65  53   110  67  55   111  67  56   109  67  55   109  67  55  
 131  69  48   131  69  48   130  69  50   129  68  49   129  68  49   129  68  49   129  68  49   129  68  49   126  68  48   127  69  49   127  68  50   127  68  50   127  68  50   126  67  49     0   0   0     0   0   0     0   0   0     0   0   0     0   0   0     0   0   0     0   0   0     0   0   0     0   0   0     0   0   0     0   0   0     0   0   0     0   0   0     0   0   0     0   0   0     0   0   0     0   0   0   112  63  48   111  62  47   111  62  47   110  62  48   111  63  49   111  63  49   111  63  49   111  63  49   111  63  49   112  64  52   113  65  53   115  67  55   115  67  55   113  67  54   113  67  54   111  67  56   112  68  57   110  68  56   110  68  56  
 130  69  48   130  69  48   130  69  50   130  69  50   129  68  49   129  68  49   127  69  49   127  69  49   127  69  49   127  69  49   126  69  50   127  70  51   126  69  50   126  69  50     0   0   0     0   0   0     0   0   0     0   0   0     0   0   0     0   0   0     0   0   0     0   0   0     0   0   0     0   0   0     0   0   0     0   0   0     0   0   0     0   0   0     0   0   0     0   0   0     0   0   0   112  63  48   110  63  47   110  63  47   110  62  48   110  62  48   111  63  49   111  63  49   110  64  49   110  64  49   111  63  51   113  65  53   114  68  55   114  68  55   113  67  54   113  67  54   111  67  56   112  68  57   111  69  57   111  69  57  
 130  69  48   130  69  48   130  70  50   129  69  50   129  68  49   129  68  49   127  69  49   127  69  49   127  69  49   127  70  50   127  71  51   127  71  51   126  70  51   126  70  50     0   0   0     0   0   0     0   0   0     0   0   0     0   0   0     0   0   0     0   0   0     0   0   0     0   0   0     0   0   0     0   0   0     0   0   0     0   0   0     0   0   0     0   0   0     0   0   0     0   0   0   112  63  48   111  63  47   111  63  47   110  62  48   110  62  48   110  63  49   110  63  49   110  64  49   110  64  49   110  63  51   112  64  52   113  67  54   114  68  55   113  67  54   112  66  53   110  67  56   111  68  57   110  69  57   109  68  56  
 131  70  49   131  70  49   129  71  51   128  70  50   128  70  50   128  70  50   128  70  50   128  70  50   127  70  50   128  71  51   127  72  52   127  72  52   127  72  52     0   0   0     0   0   0     0   0   0     0   0   0     0   0   0     0   0   0     0   0   0     0   0   0     0   0   0     0   0   0     0   0   0     0   0   0     0   0   0     0   0   0     0   0   0     0   0   0     0   0   0     0   0   0   112  65  49   112  65  49   112  65  49   111  65  50   110  64  49   110  64  49   110  64  49   110  64  49   110  64  49   111  65  52   111  65  52   113  67  54   113  67  54   112  68  55   112  68  55   110  68  56   110  68  56   106  66  54   106  66  54  
 130  70  49   130  70  49   129  71  51   128  70  50   128  70  50   128  70  50   127  70  50   127  70  50   126  70  50   127  72  51   127  72  52   127  72  52   126  73  52     0   0   0     0   0   0     0   0   0     0   0   0     0   0   0     0   0   0     0   0   0     0   0   0     0   0   0     0   0   0     0   0   0     0   0   0     0   0   0     0   0   0     0   0   0     0   0   0     0   0   0     0   0   0     0   0   0   111  65  49   111  65  49   111  65  50   110  65  50   110  65  50   110  64  49   108  65  49   108  65  49   111  65  52   111  65  52   109  65  51   109  65  51   110  66  52   110  66  52   109  67  55   109  67  55   106  66  54   106  66  54  
 129  71  49   129  71  49   129  71  51   128  70  50   128  70  50   128  70  50   127  70  50   127  70  50   126  71  50   127  72  51   127  72  52   127  72  52   125  73  52     0   0   0     0   0   0     0   0   0     0   0   0     0   0   0     0   0   0     0   0   0     0   0   0     0   0   0     0   0   0     0   0   0     0   0   0     0   0   0     0   0   0     0   0   0     0   0   0     0   0   0     0   0   0     0   0   0   112  66  50   112  66  50   112  66  51   112  66  51   111  65  50   111  65  50   109  66  50   109  66  50   111  65  52   110  64  51   108  64  51   107  63  50   107  63  50   108  64  51   108  66  54   109  67  55   105  65  53   105  65  53  
