P3
50 50
255
  83  93  79    83  89  77    73  71  61    84  81  69    92  92  77    94  97  80    83  86  69    87  87  71    91  86  70    64  49  33    60  31  19    92  55  42    95  51  38   127  80  66   121  76  57    82  36  16     0   0   0     0   0   0     0   0   0     0   0   0     0   0   0     0   0   0     0   0   0     0   0   0     0   0   0     0   0   0     0   0   0     0   0   0     0   0   0     0   0   0     0   0   0     0   0   0     0   0   0     0   0   0     0   0   0     0   0   0   102  40  23    98  34  17   108  45  28   108  45  28    94  29  10    95  30   9   115  46  23   126  48  21   127  43  15   110  33  10   109  38  20    97  28  13   101  29  12   126  46  24  
  78  89  75    86  91  79    75  73  63    85  82  70    91  91  76    91  92  76    83  84  68    88  87  72    92  84  71    71  54  42    63  35  24    96  60  50    92  51  39   122  79  64   121  78  61    81  38  19     0   0   0     0   0   0     0   0   0     0   0   0     0   0   0     0   0   0     0   0   0     0   0   0     0   0   0     0   0   0     0   0   0     0   0   0     0   0   0     0   0   0     0   0   0     0   0   0     0   0   0     0   0   0     0   0   0     0   0   0   104  46  29    96  36  20   102  42  27   105  43  28    92  30  12    93  30  11   109  45  21   126  50  23   130  49  20   109  33  10   107  35  17    96  27  11   100  27   8   130  50  23  
  79  91  79    83  90  80    76  74  65    89  86  75    88  89  73    86  86  72    84  81  68    92  86  74    94  83  71    75  57  45    59  31  20    96  62  51    91  53  40   117  76  60   118  77  59    81  40  20    87  42  24     0   0   0     0   0   0     0   0   0     0   0   0     0   0   0     0   0   0     0   0   0     0   0   0     0   0   0     0   0   0     0   0   0     0   0   0     0   0   0     0   0   0     0   0   0     0   0   0     0   0   0     0   0   0     0   0   0   103  49  34    92  35  20    96  38  24   102  44  29    91  34  15    90  31  11   106  42  20   123  50  24   130  54  28   112  37  17   112  41  24   102  32  15   100  26   4   132  49  21  
  82  94  82    81  88  78    76  74  66    91  90  78    88  89  73    84  82  69    85  80  68    94  86  75    94  81  70    76  57  48    50  26  15    90  61  49    89  55  41   112  74  58   118  77  59    81  40  20    85  40  22     0   0   0     0   0   0     0   0   0     0   0   0     0   0   0     0   0   0     0   0   0     0   0   0     0   0   0     0   0   0     0   0   0     0   0   0     0   0   0     0   0   0     0   0   0     0   0   0     0   0   0     0   0   0    90  42  28    97  45  31    87  32  19    92  35  23   100  44  29    93  37  20    90  33  12   102  41  19   112  40  16   123  45  23   108  35  17   114  43  28   102  32  16    93  17   1   121  35   8  
  71  85  72    83  92  81    79  78  70    85  85  74    80  82  68    66  66  53    81  76  64    97  86  76    95  79  69    71  52  41    56  32  20    91  64  51    86  55  40   104  68  51   106  68  49    95  54  34    86  42  24     0   0   0     0   0   0     0   0   0     0   0   0     0   0   0     0   0   0     0   0   0     0   0   0     0   0   0     0   0   0     0   0   0     0   0   0     0   0   0     0   0   0     0   0   0     0   0   0     0   0   0     0   0   0    86  40  27    89  39  26    85  33  20    91  39  26    95  42  28    93  37  19    95  38  17   108  47  25   118  46  24   118  41  23   112  39  24   110  39  26    98  26  13    97  19   1   132  43  17  
  71  85  72    81  90  79    78  78  69    86  89  76    82  85  71    66  66  52    78  73  61    94  84  74    96  81  72    76  56  47    61  39  27    83  58  45    84  54  40   103  68  53    96  57  40    94  51  34    99  53  37     0   0   0     0   0   0     0   0   0     0   0   0     0   0   0     0   0   0     0   0   0     0   0   0     0   0   0     0   0   0     0   0   0     0   0   0     0   0   0     0   0   0     0   0   0     0   0   0     0   0   0     0   0   0    87  43  29    93  43  29    86  34  21    93  41  28    97  44  30    94  38  20    93  36  16   103  42  20   117  45  25   120  43  27   113  39  26   115  43  30   108  34  21   109  29   9   144  54  26  
  72  87  74    77  86  76    79  79  72    86  91  78    81  88  72    63  63  51    73  67  56    92  80  71    98  81  73    80  62  52    63  43  32    73  50  37    80  52  38   101  67  51    86  47  30    91  48  31   113  66  51    77  30  16     0   0   0     0   0   0     0   0   0     0   0   0     0   0   0     0   0   0    81  71  56    66  60  50    66  63  58     0   0   0     0   0   0     0   0   0     0   0   0     0   0   0     0   0   0     0   0   0     0   0   0    85  41  28    93  44  31    83  33  19    93  40  27    99  46  30    96  39  22    94  36  15   102  40  17   120  47  29   124  46  33   116  40  27   118  44  32   115  40  25   117  35  13   154  60  29  
  74  89  77    74  83  73    82  83  76    84  90  77    78  86  70    59  61  48    69  64  53    90  76  68    98  80  73    80  61  54    60  40  31    64  43  29    75  50  35    94  63  46    82  44  27    90  43  28   116  68  54    82  35  22     0   0   0     0   0   0     0   0   0     0   0   0     0   0   0     0   0   0    76  62  49    71  62  52    74  68  63    57  54  53     0   0   0     0   0   0     0   0   0     0   0   0     0   0   0     0   0   0     0   0   0    81  35  22    91  41  27    83  31  18    92  39  26    98  45  30    98  41  22    99  40  19   109  46  22   124  51  32   127  48  35   115  39  26   117  43  29   117  41  24   118  35   9   157  62  25  
  76  93  82    72  81  72    87  88  81    79  87  75    71  82  66    58  61  47    68  63  52    89  75  67    97  78  71    77  57  48    52  34  22    64  44  29    74  50  35    87  56  39    89  48  32    88  41  25   108  60  47    85  38  28     0   0   0     0   0   0     0   0   0     0   0   0     0   0   0     0   0   0    74  58  43    75  63  52    76  68  62    64  60  57    34  32  33     0   0   0     0   0   0     0   0   0     0   0   0     0   0   0    83  42  30    81  33  21    93  41  28    89  36  23    95  42  28    99  44  29    98  41  21   100  41  16   113  49  22   124  51  29   128  49  32   115  39  23   120  45  25   123  45  22   125  39   7   165  69  27  
  77  95  83    67  77  68    88  91  83    76  85  73    70  83  66    60  63  49    70  64  54    91  78  70    99  81  73    77  57  50    48  30  19    68  50  36    80  58  43    85  54  39    95  54  40    88  39  25   100  49  37    87  38  30     0   0   0     0   0   0     0   0   0     0   0   0     0   0   0    90  65  49    78  58  44    76  60  50    72  60  54    66  58  57    38  33  34     0   0   0     0   0   0     0   0   0     0   0   0     0   0   0    87  44  33    86  36  25    96  42  30    97  42  30   102  46  33   103  45  31    98  40  19   100  39  14   111  46  19   121  47  23   127  49  27   118  41  21   125  49  25   131  52  25   134  47  10   177  81  31  
  78  96  84    63  73  63    88  91  83    77  88  74    72  86  69    61  67  53    73  68  57    96  81  73   104  85  78    82  62  54    49  31  19    76  58  43    91  69  54    90  57  42    98  55  40    89  37  23   100  47  36    90  41  33    99  51  42     0   0   0     0   0   0     0   0   0     0   0   0    92  65  48    81  58  44    76  58  47    66  54  46    63  54  51    35  29  28    29  25  26     0   0   0     0   0   0     0   0   0     0   0   0    91  48  37    88  38  27    94  40  28    97  43  29   103  47  33   105  48  31   102  40  19   100  37  11   110  43  14   118  44  17   128  51  25   120  44  20   127  51  24   133  56  22   136  50   7   185  87  31  
  81  93  83    59  69  60    85  91  82    79  89  75    78  89  72    67  71  56    75  71  60    96  85  76   106  90  82    86  68  58    54  35  21    86  62  48   106  75  61    97  60  45    99  54  41    87  37  24   103  51  41    95  46  38    99  54  45     0   0   0     0   0   0     0   0   0     0   0   0    90  62  47    83  56  43    79  58  45    68  51  42    65  51  49    33  23  25    24  18  22     0   0   0     0   0   0     0   0   0     0   0   0    93  48  36    90  38  24    91  35  22    95  38  24   103  45  31   106  49  32   102  43  23   100  39  15   108  43  17   115  45  20   128  53  27   125  46  16   130  52  20   131  55  18   136  46   2   185  82  28  
  79  89  80    62  71  62    81  87  77    80  84  68    76  77  59    73  76  59    73  74  61    86  84  72   100  92  80    94  77  63    55  27  12    95  58  44   112  68  54   104  56  42   100  52  40    82  35  25   104  57  48    95  47  41    97  52  48     0   0   0     0   0   0     0   0   0    88  64  52    85  59  45    88  61  44    96  68  54    74  49  41    68  50  50    38  25  33    27  17  25     0   0   0     0   0   0     0   0   0     0   0   0    90  40  30    96  40  27    93  36  21    99  42  25   101  44  27   106  50  31    97  42  22    96  39  20   106  48  29   115  54  36   116  49  26   129  46  12   140  59  22   129  54  15   140  46   5   189  76  32  
   0   0   0     0   0   0     0   0   0    86  87  70    82  79  60    74  75  58    71  74  60    82  84  70    97  91  78    91  74  60    60  27  12    96  52  38   116  65  51   107  55  42   100  50  39    79  35  25    97  52  44    86  40  35    91  49  46     0   0   0     0   0   0     0   0   0    85  64  55    92  67  53    92  64  48    94  65  50    87  62  53    73  54  53    37  25  34    27  19  28    34  24  21     0   0   0     0   0   0     0   0   0    96  44  34   100  42  30    98  39  22   102  43  25   101  44  25   104  49  29    99  44  27    97  41  25    98  41  27   104  45  32   118  51  30   133  46  11   135  53  13   128  54  14   145  46   7   188  70  30  
   0   0   0     0   0   0     0   0   0     0   0   0     0   0   0     0   0   0     0   0   0     0   0   0     0   0   0    88  71  57    67  34  19    94  50  34   114  63  48   106  54  40    97  46  35    77  33  22    91  49  40    84  44  35    82  47  40    85  56  51     0   0   0     0   0   0    86  65  54    96  71  57    94  68  51    89  63  49    95  75  64    68  55  51    29  24  28    23  21  26    36  27  23     0   0   0     0   0   0    88  47  38    97  46  35   103  44  32   102  41  25   104  45  26   103  45  25   104  49  28   104  49  29   105  50  31   101  43  28   105  41  29   129  54  38   137  47  13   131  47   5   129  56  13   148  52   7   191  73  31  
   0   0   0     0   0   0     0   0   0     0   0   0     0   0   0     0   0   0     0   0   0     0   0   0     0   0   0     0   0   0     0   0   0     0   0   0     0   0   0   101  48  35    93  42  31    76  32  21    87  48  38    84  50  38    70  41  29    74  49  42     0   0   0    52  32  23    81  60  48    89  66  51    95  72  56    85  64  48    90  74  61    54  47  41    23  22  24    18  19  23    41  33  26    73  53  45     0   0   0    86  45  36    95  42  32   103  42  31   102  41  25   107  46  27   108  49  29   106  49  29   108  51  32   116  58  40   114  54  38   117  47  34   140  58  42   146  52  19   138  55  14   133  62  18   153  57  11   200  83  37  
   0   0   0     0   0   0     0   0   0     0   0   0     0   0   0     0   0   0     0   0   0     0   0   0     0   0   0     0   0   0     0   0   0     0   0   0     0   0   0     0   0   0    95  44  33    83  39  28    86  50  38    81  51  35    65  41  26    74  52  39     0   0   0    57  37  26    74  53  41    81  59  44    99  78  61    89  70  55    77  65  53    40  38  30    20  27  26    15  22  22    50  44  37    79  60  50     0   0   0    85  44  33    93  42  29   102  44  29   105  44  26   110  49  29   112  53  31   108  50  28   106  48  28   117  58  38   124  60  43   127  52  38   143  55  38   158  61  31   156  73  35   139  70  28   152  60  13   201  89  39  
   0   0   0     0   0   0     0   0   0     0   0   0     0   0   0     0   0   0     0   0   0     0   0   0     0   0   0     0   0   0     0   0   0     0   0   0     0   0   0     0   0   0     0   0   0     0   0   0    87  52  37    81  55  37    79  56  40    88  66  52    88  66  53    75  51  39    83  60  47    83  60  46    99  77  63    94  77  63    68  59  48    35  36  29    22  32  28    17  27  24    60  52  44    86  66  56    93  61  52    89  45  35    98  45  32   107  48  32   109  48  28   113  52  30   115  55  31   111  50  29   103  42  21   110  48  30   123  56  38   130  52  32   141  52  28   165  69  39   160  80  48   132  65  31   147  58  14   193  83  31  
   0   0   0     0   0   0     0   0   0     0   0   0     0   0   0     0   0   0     0   0   0     0   0   0     0   0   0     0   0   0     0   0   0     0   0   0     0   0   0     0   0   0     0   0   0     0   0   0     0   0   0    78  53  33    87  64  45    96  73  57    95  69  54    94  66  54    93  65  53    90  62  50    92  67  55    94  77  67    63  56  46    36  40  32    21  31  26    18  27  22    60  52  44    86  64  53    93  61  49    92  48  36   101  49  33   109  49  31   110  47  28   114  52  28   115  53  28   116  54  29   107  45  20   112  46  24   124  55  32   132  55  24   137  51  16   156  66  38   136  63  37   102  44  18   140  55  16   188  80  28  
   0   0   0     0   0   0     0   0   0     0   0   0     0   0   0     0   0   0     0   0   0     0   0   0     0   0   0     0   0   0     0   0   0     0   0   0     0   0   0     0   0   0     0   0   0     0   0   0     0   0   0     0   0   0    77  52  32    87  61  43    92  60  45   103  69  55    91  58  46    90  59  49    82  57  49    90  71  64    62  53  47    40  41  35    18  27  22    18  24  21    57  46  37    84  59  48    91  57  47    92  47  34   104  49  34   109  48  30   108  46  24   114  51  25   116  52  25   121  57  30   117  52  26   117  50  27   128  57  31   139  60  20   138  55   9   144  60  31   103  37  20    72  19   5   135  53  21   187  81  27  
   0   0   0     0   0   0     0   0   0     0   0   0     0   0   0     0   0   0     0   0   0     0   0   0     0   0   0     0   0   0     0   0   0     0   0   0     0   0   0     0   0   0     0   0   0     0   0   0    76  42  26    84  55  37    81  50  32    88  55  38   113  76  60    99  62  47    94  57  46    94  62  53    77  51  46    83  66  62    70  61  58    47  46  43    19  23  21    23  26  21    62  48  39    80  56  43    90  55  44    92  46  32   110  54  37   112  51  32   115  50  27   118  54  27   118  54  26   119  55  27   118  51  24   115  44  19   123  50  20   142  67  16   147  68  11   142  67  37    92  34  24    66  23  19   125  51  23   184  81  25  
   0   0   0     0   0   0     0   0   0     0   0   0     0   0   0     0   0   0     0   0   0     0   0   0     0   0   0     0   0   0     0   0   0     0   0   0     0   0   0   102  52  35   110  63  46    98  57  41    85  49  33    93  60  43    87  53  34    93  54  37   110  68  53    94  52  39    94  55  45    97  64  60    75  51  49    76  60  60    71  63  63    51  49  49    22  23  22    26  23  20    69  54  45    87  58  47    95  57  44    94  45  31   108  50  32   108  46  24   114  48  23   124  59  30   127  62  32   122  55  26   119  49  20   119  48  20   135  59  26   157  78  21   160  82  18   148  77  47    89  38  34    56  19  20   116  46  18   179  77  17  
   0   0   0     0   0   0     0   0   0     0   0   0     0   0   0     0   0   0     0   0   0     0   0   0     0   0   0    93  81  66    83  55  38    93  53  35   104  58  38   102  55  36   111  65  48   100  58  42    94  57  41   102  65  49    91  53  36    97  56  38   106  63  46    88  46  32    93  56  48    95  65  61    63  42  43    60  45  50    67  59  64    52  49  52    24  22  23    30  23  21    74  54  47    89  61  48    98  60  44    96  48  31   109  52  32   109  47  24   113  47  20   125  59  28   136  70  38   130  61  30   124  50  21   129  53  25   143  65  31   159  79  17   162  83  15   148  79  49    87  41  39    52  21  23   123  57  27   194  93  27  
   0   0   0     0   0   0     0   0   0     0   0   0     0   0   0     0   0   0    75  81  69    63  69  56    74  72  59    96  84  68    86  58  41    90  51  33   103  56  37   106  59  40   110  65  46    95  54  37    96  58  43   105  66  53    89  48  33    98  55  38   104  61  44    87  47  32    93  59  50    86  62  59    47  31  34    36  26  34    53  49  56    45  43  49    25  21  26    35  26  24    73  52  43    90  60  47   100  61  46   100  50  33   115  58  38   117  53  28   118  52  24   125  57  26   140  71  38   133  62  30   131  56  25   138  60  30   147  64  29   163  75  15   167  82  17   149  77  53    89  44  41    53  24  21   132  69  31   208 108  36  
   0   0   0     0   0   0     0   0   0     0   0   0     0   0   0     0   0   0     0   0   0     0   0   0     0   0   0   101  89  74    89  61  44    90  51  32   105  58  39   112  64  44   108  62  43    85  47  28    94  56  41   103  63  51    84  43  28    98  55  39   105  63  46    90  53  37    89  61  51    78  61  58    39  32  35    20  19  27    42  42  51    36  35  42    24  20  25    41  31  29    74  50  42    91  60  46   104  62  48   105  54  37   119  62  40   122  58  31   124  59  28   127  59  27   134  66  32   129  56  21   132  56  22   143  63  32   148  62  28   174  77  25   182  87  32   155  80  58    94  49  43    51  26  12   135  74  22   209 110  27  
   0   0   0     0   0   0     0   0   0     0   0   0     0   0   0     0   0   0     0   0   0     0   0   0     0   0   0     0   0   0     0   0   0    91  51  32   107  60  41   117  70  50   106  61  42    81  43  24    95  57  42    99  59  47    84  43  29   101  59  43   104  67  48    90  57  42    81  59  49    71  63  58    42  42  46    20  24  33    37  42  53    29  29  39    25  20  27    46  33  32    77  53  45    96  62  49   106  64  50   106  56  36   121  61  40   121  57  29   128  60  30   133  65  32   130  61  25   121  48  13   130  53  19   143  61  29   149  60  28   177  74  31   186  79  37     0   0   0     0   0   0     0   0   0     0   0   0     0   0   0  
   0   0   0     0   0   0     0   0   0     0   0   0     0   0   0     0   0   0     0   0   0     0   0   0     0   0   0     0   0   0     0   0   0     0   0   0     0   0   0     0   0   0   106  61  42    85  47  28   101  64  49    96  57  47    90  50  37   106  67  50   103  67  48    84  58  41    67  53  40    59  56  52    42  51  53    22  35  45    36  47  58    23  27  36    24  20  27    48  35  35    78  55  44    96  63  47   106  65  49   107  54  36   121  60  39   120  56  28     0   0   0     0   0   0     0   0   0     0   0   0     0   0   0     0   0   0     0   0   0     0   0   0     0   0   0     0   0   0     0   0   0     0   0   0     0   0   0     0   0   0  
   0   0   0     0   0   0     0   0   0     0   0   0     0   0   0     0   0   0     0   0   0     0   0   0     0   0   0     0   0   0     0   0   0     0   0   0     0   0   0     0   0   0     0   0   0     0   0   0   108  69  55    94  57  48    94  57  43   108  75  55    98  68  48    79  55  40    59  46  34    49  49  41    40  51  49    24  39  45    37  48  58    21  25  37    23  22  29    48  38  36    75  52  41     0   0   0     0   0   0     0   0   0     0   0   0     0   0   0     0   0   0     0   0   0     0   0   0     0   0   0     0   0   0     0   0   0     0   0   0     0   0   0     0   0   0     0   0   0     0   0   0     0   0   0     0   0   0     0   0   0  
   0   0   0     0   0   0     0   0   0     0   0   0     0   0   0     0   0   0     0   0   0     0   0   0     0   0   0     0   0   0     0   0   0     0   0   0     0   0   0     0   0   0   101  67  40    99  57  32   110  71  57    89  57  51    86  60  44   103  79  56    88  64  42    84  63  49    74  60  51    57  57  44    44  54  40    21  33  30    29  36  44    27  28  42    24  23  31    42  36  31    75  54  40   100  70  51     0   0   0     0   0   0     0   0   0     0   0   0     0   0   0     0   0   0     0   0   0     0   0   0     0   0   0     0   0   0     0   0   0     0   0   0     0   0   0     0   0   0     0   0   0     0   0   0     0   0   0     0   0   0  
   0   0   0     0   0   0     0   0   0     0   0   0     0   0   0     0   0   0     0   0   0     0   0   0     0   0   0     0   0   0    98  75  62    87  52  39    99  63  45   110  79  57    97  67  40   100  59  32   109  71  55    89  60  55    76  55  37    95  75  48    97  75  54    95  73  61    84  67  60    70  67  52    58  65  46    30  39  32    32  35  42    25  23  40    21  21  29    43  36  30    78  54  37   105  69  48   108  64  42   117  53  35     0   0   0     0   0   0     0   0   0     0   0   0     0   0   0     0   0   0     0   0   0     0   0   0     0   0   0     0   0   0     0   0   0     0   0   0     0   0   0     0   0   0     0   0   0     0   0   0  
   0   0   0     0   0   0     0   0   0     0   0   0     0   0   0     0   0   0    82  83  70    70  81  65    72  84  67    82  84  68    87  67  53    86  53  41    98  64  47   103  75  51    95  68  41   104  67  41   107  71  56    85  57  51    75  52  34    94  73  46   104  79  59    98  76  63    90  73  64    83  77  61    74  76  59    43  48  42    34  37  43    22  21  34    21  23  25    49  42  32    87  54  34   113  70  44   115  64  39   123  54  32   141  60  34   147  64  25     0   0   0     0   0   0     0   0   0     0   0   0     0   0   0     0   0   0     0   0   0     0   0   0     0   0   0     0   0   0     0   0   0     0   0   0     0   0   0     0   0   0  
   0   0   0     0   0   0    51  63  54    75  87  74    83  90  76    84  80  69    84  83  71    68  78  62    69  80  63    81  83  67    84  63  52    83  52  41    95  62  49    93  66  47    91  67  43   108  73  52   104  71  55    78  52  43    80  58  38    98  74  47   103  76  56    95  68  57    94  72  65    91  79  65    85  81  64    55  56  49    40  41  46    24  24  35    25  27  28    59  51  37    97  59  35   123  72  41   125  67  37   129  55  31   145  60  34   150  68  28   148  70  36   133  66  48     0   0   0     0   0   0     0   0   0     0   0   0     0   0   0     0   0   0     0   0   0     0   0   0     0   0   0     0   0   0     0   0   0     0   0   0  
  84  81  76    39  40  35    51  62  53    77  90  77    83  89  75    81  78  67    84  85  72    69  80  64    67  79  62    78  81  67    88  69  59    85  55  47    93  64  52    82  59  42    80  59  39   106  75  55    98  68  54    73  50  38    84  61  39   102  76  47   105  77  57    96  69  57    93  71  64    94  77  65    93  83  68    66  62  56    47  47  50    27  27  36    30  31  30    66  55  39   112  66  36   136  75  40   134  68  34   137  57  29   148  61  34   150  68  28   147  71  38   122  61  45    54  21  11    63  40  26   128  78  55     0   0   0     0   0   0     0   0   0     0   0   0     0   0   0     0   0   0     0   0   0     0   0   0     0   0   0  
  77  73  69    37  37  32    53  62  54    79  90  77    80  87  73    80  76  65    88  87  75    73  82  67    66  79  62    77  80  66    98  79  69    89  60  53    94  66  57    75  55  41    69  53  35    98  71  54    91  66  52    76  56  43    87  63  40   103  75  45   108  77  57   106  78  66    93  68  62    93  73  61   100  84  71    74  66  61    51  50  52    29  32  36    34  36  31    74  59  42   122  71  41   141  75  40   138  69  33   141  59  30   152  62  35   150  68  28   143  70  37   113  56  41    47  20  12    54  36  27   112  67  48   102  62  50    51  25  21    72  20   4     0   0   0     0   0   0     0   0   0     0   0   0     0   0   0     0   0   0  
  68  65  60    35  34  30    53  62  54    76  87  74    78  85  70    81  77  66    90  91  78    73  83  67    66  79  61    80  83  68    99  81  73    87  60  53    95  70  61    74  58  43    64  51  35    91  68  54    88  66  52    84  66  49    96  72  45   107  75  44    97  65  42   103  72  60    86  60  54    89  65  55   100  80  69    75  63  57    51  49  49     0   0   0    41  43  34    84  68  47   126  73  44   144  76  40   139  68  33   144  61  33   155  65  38   150  69  29   140  68  36   110  54  39    46  20  12    46  32  21   109  67  50   103  66  54     0   0   0     0   0   0     0   0   0     0   0   0     0   0   0     0   0   0     0   0   0     0   0   0  
  62  58  55    34  32  29    53  61  55    73  84  72    77  83  69    83  79  68    92  93  80    73  83  67    65  78  60    81  84  70    96  78  70    82  54  49    95  70  63    76  61  48    64  52  38    89  69  58    88  68  56    90  73  56   109  82  56   110  76  46    80  46  25    86  58  47    76  51  45    85  57  50    99  74  64    72  58  53    50  47  45     0   0   0     0   0   0    97  77  55   126  74  45   141  74  42   139  67  35   145  63  36   155  68  41   151  70  30   141  69  37   118  61  44    56  29  18     0   0   0     0   0   0     0   0   0     0   0   0     0   0   0     0   0   0     0   0   0     0   0   0     0   0   0     0   0   0     0   0   0  
  59  55  52    28  27  24    53  61  55    80  90  80    68  75  63    83  81  70    86  87  74    80  88  73    77  88  72    87  90  75   100  82  73    86  60  53    87  64  56    76  63  52    61  51  39    74  56  46    86  67  55    89  71  53   105  74  48   119  80  52    76  42  22    72  46  34    66  42  37    68  41  34   106  79  70    63  49  44     0   0   0     0   0   0     0   0   0   101  76  55   132  79  54   142  78  49   141  73  43   142  63  37   146  60  33   145  64  24   143  70  36     0   0   0     0   0   0     0   0   0     0   0   0     0   0   0     0   0   0     0   0   0     0   0   0     0   0   0     0   0   0     0   0   0     0   0   0     0   0   0  
  58  54  51    28  28  26    51  59  53    75  87  76    65  72  60    80  78  68    84  85  72    78  86  71    73  84  67    83  85  70    98  79  69    81  54  47    86  63  55    79  66  55    59  49  37    69  50  43    82  63  52    91  72  54   116  81  56   123  79  52    78  44  25    73  50  39    62  45  39    64  40  34    98  71  64    68  51  47     0   0   0     0   0   0     0   0   0     0   0   0   128  77  53   135  74  48   137  73  44   143  67  42   149  63  36   152  71  28   155  80  42   137  74  50    90  52  32     0   0   0     0   0   0     0   0   0     0   0   0     0   0   0     0   0   0     0   0   0     0   0   0     0   0   0     0   0   0     0   0   0  
  54  53  49    28  30  27    50  61  55    72  84  75    61  70  57    76  74  64    80  81  68    75  83  68    70  80  61    79  81  64    98  79  67    79  52  43    82  59  49    75  62  51    58  48  36    70  52  42    77  58  46    87  66  47   121  83  59   125  79  55    87  55  37    82  63  52    72  61  56    78  57  52    98  71  67    68  51  47     0   0   0     0   0   0     0   0   0     0   0   0     0   0   0   131  72  47   137  74  46   147  70  45   151  66  38   155  73  29   160  82  41   145  76  48   105  61  35   109  69  39   160  89  47   151  80  42   121  63  36     0   0   0     0   0   0     0   0   0     0   0   0     0   0   0     0   0   0     0   0   0  
  49  49  47    28  32  29    53  66  61    72  85  76    62  71  60    73  70  61    77  78  65    75  83  66    71  80  61    82  82  64   100  79  68    86  57  49    81  55  46    69  54  41    64  52  40    78  58  49    81  61  48    93  71  53   123  81  60   133  84  61   101  69  53    81  67  57    74  69  64    81  65  60    88  63  59    61  47  44     0   0   0     0   0   0     0   0   0     0   0   0     0   0   0   132  75  47   140  77  48   150  74  46   151  65  33   153  69  21   157  75  30   156  82  50   122  70  41    87  37   3   154  72  25   158  75  33   134  67  35   146  75  43   155  84  52   132  72  46   116  51  17     0   0   0     0   0   0     0   0   0  
  44  46  43    30  35  31    59  73  67    76  90  81    65  74  63    72  69  60    75  75  62    77  83  66    72  81  60    87  87  67    96  73  60    95  65  54    87  60  48    69  53  38    73  61  47    86  66  55    86  63  52   108  81  65   124  78  57   137  85  64   103  72  58    64  55  46    58  60  54    67  55  50    71  50  47     0   0   0     0   0   0     0   0   0     0   0   0     0   0   0     0   0   0     0   0   0   146  79  45   155  75  43   155  66  29   156  66  14   158  71  23   163  84  48   131  75  41    95  38   3   160  69  17   168  76  29   148  72  36   148  72  41   139  69  40   106  56  33   100  49  15   139  67  15   170  70   4   208  90  14  
  38  43  39    30  38  33    59  76  69    76  93  83    67  78  66    70  70  60    74  74  61    77  84  66    71  79  57    88  86  66    89  65  51   100  68  57    96  67  55    78  59  43    79  66  50    89  66  53    85  59  47   102  74  59   111  63  43   130  78  57    95  67  52    54  50  41    53  61  55    66  58  55    71  53  49     0   0   0     0   0   0     0   0   0     0   0   0     0   0   0     0   0   0     0   0   0   147  78  40   157  73  38   163  70  30   165  71  17   164  74  21   158  74  34   132  69  32   127  64  24   167  71  17   171  73  23   154  74  37   153  74  47   119  50  26    82  41  19   103  64  28   142  79  26   166  66   5   217  95  28  
  36  42  38    31  39  35    54  73  66    73  91  81    69  79  69    72  72  62    75  75  62    77  83  65    65  74  51    81  77  57    92  65  51    97  63  51    96  65  52    79  59  42    75  59  42    88  64  50    89  63  50    97  66  52   107  56  38   125  69  52    81  55  42    51  50  40    56  68  63    60  57  54    67  49  47     0   0   0     0   0   0     0   0   0     0   0   0     0   0   0     0   0   0     0   0   0     0   0   0   156  68  28   168  71  27   175  79  19   172  78  22   160  75  32   142  77  39   144  81  37   171  74  19   172  72  21   158  74  39   156  75  51   112  43  26    70  36  13   105  74  36   149  93  38   169  72   9   218  96  33  
  36  41  37    31  40  37    50  68  61    71  89  78    70  80  69    73  75  64    76  77  64    76  82  65    61  67  48    72  68  49    97  74  61    89  60  49    88  61  48    74  55  39    66  49  33    84  62  49    98  75  64   105  81  69   113  72  57   121  74  58    67  46  30    43  44  31    49  60  52    35  33  30     0   0   0     0   0   0     0   0   0     0   0   0     0   0   0     0   0   0     0   0   0     0   0   0     0   0   0   152  63  24   169  73  28   179  83  24   175  80  23   179  90  44   173  98  54   153  77  31   180  78  22   180  78  27   167  78  39   155  74  48   114  46  26    76  36   9   108  69  28   158  97  44   174  82  21   205  92  32  
  33  37  36    32  43  41    57  72  68    74  87  77    71  77  65    73  77  63    84  87  73    63  66  52    51  52  38    83  78  64    91  78  66    89  72  62    85  68  58    71  54  44    69  52  42    81  61  52    79  64  56    83  72  64   101  77  67   106  77  63    58  42  22    67  66  47    57  64  52    36  36  34     0   0   0     0   0   0     0   0   0     0   0   0     0   0   0     0   0   0     0   0   0     0   0   0     0   0   0   160  77  38   160  70  26   167  75  24   177  83  31   184  88  37   182  89  38   170  76  24   193  89  34   188  86  30   183  87  39   169  88  53   132  66  36    83  27   1   129  66  21   174  95  45   174  84  23   179  86  24  
  39  44  43    34  45  44    60  73  71    76  85  77    73  79  65    75  80  65    77  81  67    58  59  47    53  52  40    84  80  69    80  73  62    80  69  59    77  64  55    66  50  41    67  50  42    78  60  53    70  60  52    70  66  62    85  69  63    97  73  62    63  49  30    70  67  46    62  67  53    37  37  36     0   0   0     0   0   0     0   0   0     0   0   0     0   0   0     0   0   0     0   0   0     0   0   0     0   0   0     0   0   0   155  69  26   165  73  26   173  78  27   187  88  36   187  84  29   174  70  15   185  82  24   185  82  24   184  85  31   163  83  40   135  68  33   108  40   2   150  72  24   179  88  39   192 102  39   188 107  43  
  46  50  49    35  45  43    64  76  73    72  82  73    73  79  67    79  85  71    77  80  67    58  59  46    55  54  42    79  75  64    75  68  58    76  67  58    73  62  52    62  48  39    68  51  43    79  60  54    66  54  48    66  60  55    74  58  51     0   0   0    72  58  38    73  69  51    69  74  60    39  39  38     0   0   0     0   0   0     0   0   0     0   0   0     0   0   0     0   0   0     0   0   0     0   0   0     0   0   0     0   0   0   157  69  25   169  77  28   181  84  32   202 101  48   193  90  35   178  75  17   176  72  17   177  74  19   173  75  22   170  88  45   156  87  48   131  60  11   167  86  35   178  84  32   202 107  42   191 105  38  
  48  54  50    33  43  39    65  78  72    69  79  69    72  78  66    85  91  77    85  88  74    68  69  57    61  60  47    66  62  51    77  70  60    80  69  60    77  64  55    66  52  43    73  56  48    83  64  57    68  56  49    70  62  56     0   0   0     0   0   0     0   0   0     0   0   0    76  79  68     0   0   0     0   0   0     0   0   0     0   0   0     0   0   0     0   0   0     0   0   0     0   0   0     0   0   0     0   0   0     0   0   0   163  73  28   180  85  37   188  90  38   190  89  34   185  82  25   180  77  19   179  75  20   190  87  32   189  91  38   184  99  54   171  95  53   140  63  13   180  93  40   186  86  30   204 105  36   196 104  34  
  48  54  48    31  41  36    64  77  69    71  82  72    72  81  68    85  91  79    87  92  80    77  79  68    68  68  57    60  56  45    80  72  63    79  70  60    79  68  58    71  58  48    74  60  51    83  66  58    73  60  54     0   0   0     0   0   0     0   0   0     0   0   0     0   0   0     0   0   0     0   0   0     0   0   0     0   0   0     0   0   0     0   0   0     0   0   0     0   0   0     0   0   0     0   0   0     0   0   0     0   0   0   168  77  30   186  89  39   197  97  44   186  84  27   182  79  21   182  79  21   180  79  23   191  91  35   187  90  37   175  87  40   168  87  40   146  63   8   192  98  38   194  90  27   203 102  27   216 121  47  
  53  59  53    36  47  39    61  74  65    76  87  76    73  81  69    80  86  74    84  89  77    80  82  71    73  73  63    59  56  45    78  71  61    74  65  56    80  69  59    77  63  54    75  61  52    82  66  58     0   0   0     0   0   0     0   0   0     0   0   0     0   0   0     0   0   0     0   0   0     0   0   0     0   0   0     0   0   0     0   0   0     0   0   0     0   0   0     0   0   0     0   0   0     0   0   0     0   0   0     0   0   0     0   0   0   183  85  34   198  97  41   195  92  34   187  84  26   181  78  20   177  76  20   180  79  25   169  71  20   166  75  27   172  85  34   174  83  25   202 103  39   195  85  21   199  93  17   226 126  49  
