P3
68 50
255
   0   0   0     0   0   0     0   0   0     0   0   0     0   0   0     0   0   0     0   0   0     0   0   0     0   0   0     0   0   0     0   0   0     0   0   0     0   0   0     0   0   0     0   0   0     0   0   0     0   0   0     0   0   0    81  50  45    81  50  46    81  50  47    80  48  46    79  48  45    78  48  46    78  48  46    78  48  46    78  48  46    78  48  46    77  49  46    77  50  47    76  50  49     0   0   0     0   0   0     0   0   0     0   0   0     0   0   0     0   0   0     0   0   0     0   0   0     0   0   0     0   0   0     0   0   0     0   0   0     0   0   0     0   0   0     0   0   0     0   0   0     0   0   0     0   0   0     0   0   0     0   0   0     0   0   0     0   0   0     0   0   0    72  58  57    71  60  58    70  60  58    70  60  58    70  60  58    72  62  60    74  64  62    70  62  59    70  62  59    71  63  60    72  65  62    71  66  62    71  66  62    71  66  62  
   0   0   0     0   0   0     0   0   0     0   0   0     0   0   0     0   0   0     0   0   0     0   0   0     0   0   0     0   0   0     0   0   0     0   0   0     0   0   0     0   0   0     0   0   0     0   0   0     0   0   0     0   0   0    81  50  45    81  50  46    81  50  47    80  48  46    79  48  45    78  48  46    78  48  46    78  48  46    78  48  46    78  48  46    77  49  46    77  50  47    76  50  49    76  50  49     0   0   0     0   0   0     0   0   0     0   0   0     0   0   0     0   0   0     0   0   0     0   0   0     0   0   0     0   0   0     0   0   0     0   0   0     0   0   0     0   0   0     0   0   0     0   0   0     0   0   0     0   0   0     0   0   0     0   0   0     0   0   0    72  58  57    72  59  57    72  61  59    70  60  58    70  60  58    70  60  58    72  62  60    74  64  62    70  62  59    70  62  59    71  63  60    72  65  61    71  66  62    71  66  62    71  66  62  
   0   0   0     0   0   0     0   0   0     0   0   0     0   0   0     0   0   0     0   0   0     0   0   0     0   0   0     0   0   0     0   0   0     0   0   0     0   0   0     0   0   0     0   0   0     0   0   0     0   0   0     0   0   0    79  48  43    79  48  43    79  48  45    80  49  45    80  49  46    79  49  47    79  49  47    79  49  47    79  49  47    79  49  47    78  50  47    78  50  48    77  51  50    77  51  50     0   0   0     0   0   0     0   0   0     0   0   0     0   0   0     0   0   0     0   0   0     0   0   0     0   0   0     0   0   0     0   0   0     0   0   0     0   0   0     0   0   0     0   0   0     0   0   0     0   0   0     0   0   0     0   0   0     0   0   0     0   0   0    72  58  57    71  58  57    70  59  57    69  59  57    69  59  57    68  58  56    70  60  58    73  63  61    72  64  61    72  64  61    72  64  61    73  66  62    72  67  63    73  68  64    73  68  64  
   0   0   0     0   0   0     0   0   0     0   0   0     0   0   0     0   0   0     0   0   0     0   0   0     0   0   0     0   0   0     0   0   0     0   0   0     0   0   0     0   0   0     0   0   0     0   0   0     0   0   0     0   0   0    79  48  43    79  48  43    79  48  45    80  49  45    80  49  46    79  49  47    79  49  47    79  49  47    79  49  47    79  49  47    78  50  47    78  50  48    77  51  50    77  51  50     0   0   0     0   0   0     0   0   0     0   0   0     0   0   0     0   0   0     0   0   0     0   0   0     0   0   0     0   0   0     0   0   0     0   0   0     0   0   0     0   0   0     0   0   0     0   0   0     0   0   0     0   0   0     0   0   0     0   0   0     0   0   0    71  57  56    71  58  56    69  58  56    70  60  58    69  59  57    69  59  57    70  60  58    72  62  60    72  64  61    72  64  61    72  64  61    73  66  62    72  67  63    73  68  64    73  68  64  
   0   0   0     0   0   0     0   0   0     0   0   0     0   0   0     0   0   0     0   0   0     0   0   0     0   0   0     0   0   0     0   0   0     0   0   0     0   0   0     0   0   0     0   0   0     0   0   0     0   0   0     0   0   0    79  48  43    79  48  43    79  48  45    80  49  45    80  49  46    79  49  47    79  49  47    79  49  47    79  49  47    79  49  47    78  50  47    78  50  48    77  51  50    77  51  50     0   0   0     0   0   0     0   0   0     0   0   0     0   0   0     0   0   0     0   0   0     0   0   0     0   0   0     0   0   0     0   0   0     0   0   0     0   0   0     0   0   0     0   0   0     0   0   0     0   0   0     0   0   0     0   0   0     0   0   0    70  56  55    70  56  55    70  57  55    69  58  56    70  59  57    71  61  59    70  60  58    70  60  58    72  62  60    72  63  60    72  64  61    72  64  61    73  66  62    72  67  63    73  68  64    73  68  64  
   0   0   0     0   0   0     0   0   0     0   0   0     0   0   0     0   0   0     0   0   0     0   0   0     0   0   0     0   0   0     0   0   0     0   0   0     0   0   0     0   0   0     0   0   0     0   0   0     0   0   0     0   0   0    79  48  43    79  48  43    79  48  45    80  49  45    80  49  46    79  49  47    79  49  47    79  49  47    79  49  47    79  49  47    78  50  47    78  50  48    77  51  50    77  51  50    78  52  51     0   0   0     0   0   0     0   0   0     0   0   0     0   0   0     0   0   0     0   0   0     0   0   0     0   0   0     0   0   0     0   0   0     0   0   0     0   0   0     0   0   0     0   0   0     0   0   0     0   0   0     0   0   0     0   0   0    70  56  55    70  56  55    69  56  55    68  57  55    70  60  58    71  61  59    71  61  59    70  60  58    70  60  58    71  63  60    72  64  61    72  64  61    73  66  62    72  67  63    73  68  64    73  68  64  
   0   0   0     0   0   0     0   0   0     0   0   0     0   0   0     0   0   0     0   0   0     0   0   0     0   0   0     0   0   0     0   0   0     0   0   0     0   0   0     0   0   0     0   0   0     0   0   0     0   0   0     0   0   0    79  48  43    79  48  43    79  48  45    80  49  45    80  49  46    79  49  47    79  49  47    79  49  47    79  49  47    79  49  47    78  50  47    78  50  48    77  51  50    77  51  50    78  52  51     0   0   0     0   0   0     0   0   0     0   0   0     0   0   0     0   0   0     0   0   0     0   0   0     0   0   0     0   0   0     0   0   0     0   0   0     0   0   0     0   0   0     0   0   0     0   0   0     0   0   0     0   0   0     0   0   0    70  56  55    70  56  55    69  56  55    69  58  56    70  60  58    71  61  59    71  61  59    70  60  58    70  60  58    71  63  60    72  64  61    72  64  61    73  66  62    72  67  63    73  68  64    73  68  64  
   0   0   0     0   0   0     0   0   0     0   0   0     0   0   0     0   0   0     0   0   0     0   0   0     0   0   0     0   0   0     0   0   0     0   0   0     0   0   0     0   0   0     0   0   0     0   0   0     0   0   0     0   0   0    79  48  43    79  48  43    79  48  45    80  49  45    80  49  46    79  49  47    79  49  47    79  49  47    79  49  47    79  49  47    78  50  47    78  50  48    77  51  50    77  51  50    78  52  51    77  53  51     0   0   0     0   0   0     0   0   0     0   0   0     0   0   0     0   0   0     0   0   0     0   0   0     0   0   0     0   0   0     0   0   0     0   0   0     0   0   0     0   0   0     0   0   0     0   0   0     0   0   0     0   0   0    70  56  55    70  56  55    70  56  55    70  59  57    71  60  59    71  61  59    70  60  58    69  59  57    70  60  58    71  63  60    72  64  61    72  64  61    73  66  62    72  67  63    73  68  64    73  68  64  
   0   0   0     0   0   0     0   0   0     0   0   0     0   0   0     0   0   0     0   0   0     0   0   0     0   0   0     0   0   0     0   0   0     0   0   0     0   0   0     0   0   0     0   0   0     0   0   0     0   0   0     0   0   0    79  48  43    79  48  43    79  48  45    80  49  45    80  49  46    79  49  47    79  49  47    79  49  47    79  49  47    79  49  47    78  50  47    78  50  48    77  51  50    77  51  50    78  52  51    77  53  51     0   0   0     0   0   0     0   0   0     0   0   0     0   0   0     0   0   0     0   0   0     0   0   0     0   0   0     0   0   0     0   0   0     0   0   0     0   0   0     0   0   0     0   0   0     0   0   0     0   0   0    71  57  56    71  57  56    70  56  55    70  57  56    71  60  58    71  60  59    70  60  58    69  59  57    68  58  56    71  61  59    72  63  60    72  64  61    72  64  61    73  66  62    72  67  63    73  68  64    73  68  64  
   0   0   0     0   0   0     0   0   0     0   0   0     0   0   0     0   0   0     0   0   0     0   0   0     0   0   0     0   0   0     0   0   0     0   0   0     0   0   0     0   0   0     0   0   0     0   0   0     0   0   0     0   0   0    79  48  43    79  48  43    79  48  45    80  49  45    80  49  46    79  49  47    79  49  47    79  49  47    79  49  47    79  49  47    78  50  47    78  50  48    77  51  50    77  51  50    78  52  51    77  53  51    77  53  52     0   0   0     0   0   0     0   0   0     0   0   0     0   0   0     0   0   0     0   0   0     0   0   0     0   0   0     0   0   0     0   0   0     0   0   0     0   0   0     0   0   0     0   0   0     0   0   0    72  58  57    71  57  56    71  57  56    70  57  56    72  61  59    71  60  58    69  59  57    68  58  56    68  58  56    71  61  59    72  63  60    72  64  61    72  64  61    73  66  62    72  67  63    73  68  64    73  68  64  
   0   0   0     0   0   0     0   0   0     0   0   0     0   0   0     0   0   0     0   0   0     0   0   0     0   0   0     0   0   0     0   0   0     0   0   0     0   0   0     0   0   0     0   0   0     0   0   0     0   0   0     0   0   0    79  48  45    79  48  45    79  48  45    78  47  44    78  47  44    77  48  44    78  49  45    78  49  45    79  50  45    79  50  46    81  51  49    80  50  48    79  51  48    78  50  47    78  50  47    75  49  48    76  50  49     0   0   0     0   0   0     0   0   0     0   0   0     0   0   0     0   0   0     0   0   0     0   0   0     0   0   0     0   0   0     0   0   0     0   0   0     0   0   0     0   0   0     0   0   0     0   0   0    70  57  55    72  58  57    72  58  57    72  59  58    70  59  57    67  56  55    67  57  55    69  59  57    71  61  59    71  61  59    70  62  59    71  63  60    71  63  60    70  63  60    71  66  62    73  68  64    74  69  65  
   0   0   0     0   0   0     0   0   0     0   0   0     0   0   0     0   0   0     0   0   0     0   0   0     0   0   0     0   0   0     0   0   0     0   0   0     0   0   0     0   0   0     0   0   0     0   0   0     0   0   0     0   0   0    79  48  45    79  48  45    79  48  45    78  47  44    78  47  44    77  48  44    78  49  45    78  49  45    79  50  45    79  50  46    80  50  48    80  50  48    79  51  48    79  51  48    78  50  47    76  50  49    76  51  50    77  53  51     0   0   0     0   0   0     0   0   0     0   0   0     0   0   0     0   0   0     0   0   0     0   0   0     0   0   0     0   0   0     0   0   0     0   0   0     0   0   0     0   0   0    71  57  56    71  57  56    72  58  57    73  59  58    72  59  58    70  59  57    67  57  55    67  57  55    70  60  58    71  61  59    71  61  59    71  62  60    71  63  60    71  63  60    70  63  60    71  66  62    73  68  64    74  69  65  
   0   0   0     0   0   0     0   0   0     0   0   0     0   0   0     0   0   0     0   0   0     0   0   0     0   0   0     0   0   0     0   0   0     0   0   0     0   0   0     0   0   0     0   0   0     0   0   0     0   0   0     0   0   0    79  48  45    79  48  45    79  48  45    78  47  44    78  47  44    77  48  44    78  49  45    78  49  45    79  50  45    79  50  46    80  50  48    80  50  48    79  51  48    79  51  48    80  52  49    78  52  51    78  52  51    77  53  51    75  53  50     0   0   0     0   0   0     0   0   0     0   0   0     0   0   0     0   0   0     0   0   0     0   0   0     0   0   0     0   0   0     0   0   0     0   0   0     0   0   0    71  57  56    72  58  57    72  58  57    73  59  58    72  59  58    70  59  57    67  57  55    68  58  56    70  60  58    71  61  59    72  62  60    71  63  60    71  63  60    71  63  60    70  63  60    71  66  62    73  68  64    74  69  65  
   0   0   0     0   0   0     0   0   0     0   0   0     0   0   0     0   0   0     0   0   0     0   0   0     0   0   0     0   0   0     0   0   0     0   0   0     0   0   0     0   0   0     0   0   0     0   0   0     0   0   0     0   0   0    79  48  45    79  48  45    79  48  45    78  47  44    78  47  44    77  48  44    78  49  45    78  49  45    79  50  45    79  50  46    79  49  47    80  50  48    79  51  48    80  52  49    80  52  49    79  53  52    78  53  51    76  52  50    75  53  50     0   0   0     0   0   0     0   0   0     0   0   0     0   0   0     0   0   0     0   0   0     0   0   0     0   0   0     0   0   0     0   0   0     0   0   0     0   0   0    72  58  57    72  58  57    73  59  58    73  59  58    72  59  58    70  59  57    68  58  56    68  58  56    69  59  57    71  61  59    72  62  60    71  63  60    71  63  60    71  63  60    72  65  61    72  67  63    73  68  64    75  70  66  
   0   0   0     0   0   0     0   0   0     0   0   0     0   0   0     0   0   0     0   0   0     0   0   0     0   0   0     0   0   0     0   0   0     0   0   0     0   0   0     0   0   0     0   0   0     0   0   0     0   0   0     0   0   0    79  48  45    79  48  45    79  48  45    78  47  44    78  47  44    77  48  44    78  49  45    78  49  45    79  50  45    79  50  46    79  49  47    80  50  48    79  51  48    80  52  49    80  52  49    79  53  52    78  53  51    76  52  50    75  53  50    74  53  50     0   0   0     0   0   0     0   0   0     0   0   0     0   0   0     0   0   0     0   0   0     0   0   0     0   0   0     0   0   0     0   0   0    71  57  56    72  58  57    72  58  57    72  58  57    72  58  57    72  59  57    70  59  57    68  58  56    68  58  56    69  59  57    70  60  58    72  62  60    72  64  61    72  64  61    72  64  61    72  65  61    72  67  63    73  68  64    75  70  66  
   0   0   0     0   0   0     0   0   0     0   0   0     0   0   0     0   0   0     0   0   0     0   0   0     0   0   0     0   0   0     0   0   0     0   0   0     0   0   0     0   0   0     0   0   0     0   0   0     0   0   0     0   0   0    79  48  45    79  48  45    79  48  45    78  47  44    78  47  44    77  48  44    78  49  45    78  49  45    79  50  45    79  50  46    80  50  48    80  50  48    79  51  48    79  51  48    80  52  49    78  52  51    77  52  50    75  51  49    74  52  50    74  53  50    73  53  52     0   0   0     0   0   0     0   0   0     0   0   0     0   0   0     0   0   0     0   0   0     0   0   0     0   0   0     0   0   0    71  57  56    71  57  56    72  58  57    72  58  57    72  58  57    71  58  56    69  58  56    68  58  56    68  58  56    68  58  56    69  59  57    72  62  60    72  63  60    72  64  61    72  64  61    72  65  61    72  67  63    74  69  65    75  70  66  
   0   0   0     0   0   0     0   0   0     0   0   0     0   0   0     0   0   0     0   0   0     0   0   0     0   0   0     0   0   0     0   0   0     0   0   0     0   0   0     0   0   0     0   0   0     0   0   0    81  47  45    81  47  45    79  48  45    79  48  45    79  48  45    78  47  44    78  47  44    77  48  44    78  49  45    78  49  45    79  50  45    79  50  46    80  50  48    80  50  48    79  51  48    79  51  48    78  50  47    76  50  49    75  50  49    75  51  49    73  52  49    74  53  50    73  53  52    74  54  53     0   0   0     0   0   0     0   0   0     0   0   0     0   0   0     0   0   0     0   0   0     0   0   0    72  56  56    72  56  56    72  56  56    72  56  56    72  56  56    72  56  56    70  57  55    68  57  55    68  58  55    68  58  56    67  57  55    68  58  56    71  61  59    72  63  60    72  64  61    72  64  61    72  65  61    72  67  63    74  69  65    75  70  66  
   0   0   0     0   0   0     0   0   0     0   0   0     0   0   0     0   0   0     0   0   0     0   0   0     0   0   0     0   0   0     0   0   0     0   0   0     0   0   0     0   0   0     0   0   0    81  47  45    81  47  45    81  47  45    79  48  45    79  48  45    79  48  45    78  47  44    78  47  44    77  48  44    78  49  45    78  49  45    79  50  45    79  50  46    81  51  49    80  50  48    79  51  48    78  50  47    78  50  47    75  49  48    75  50  48    75  51  49    73  52  49    74  53  50    73  53  52    74  54  53    74  55  53    72  55  55     0   0   0     0   0   0     0   0   0     0   0   0    70  54  54    69  53  53    72  56  56    72  56  56    72  56  56    72  56  56    71  55  55    71  55  55    69  55  54    67  56  54    68  58  55    67  57  55    66  56  54    67  57  56    71  61  59    72  63  60    72  64  61    72  64  61    72  65  61    72  67  63    74  69  65    76  71  67  
   0   0   0     0   0   0     0   0   0     0   0   0     0   0   0     0   0   0     0   0   0     0   0   0     0   0   0     0   0   0     0   0   0     0   0   0    84  47  41    84  46  43    83  46  43    81  46  44    80  46  44    80  46  44    78  47  44    78  47  44    78  47  44    78  47  44    78  47  44    78  49  45    79  50  46    81  52  48    81  52  48    82  53  49    78  48  46    78  48  46    78  50  47    79  50  48    79  51  48    77  51  50    77  52  50    76  52  50    75  53  50    74  53  50    73  53  52    73  53  52    73  53  52    71  53  53    69  53  53     0   0   0    70  54  54    71  55  55    71  55  55    71  55  55    70  54  54    70  54  54    72  56  56    72  56  56    71  55  55    70  54  54    70  55  54    69  57  55    67  57  55    68  58  56    69  59  57    69  59  57    70  60  58    70  62  59    71  63  60    72  64  61    72  65  61    72  67  63    72  67  63    72  67  63  
   0   0   0     0   0   0     0   0   0     0   0   0     0   0   0     0   0   0     0   0   0    89  48  42    88  47  43    87  47  43    86  47  42    85  48  42    84  47  41    84  46  43    81  47  43    80  46  44    80  46  44    80  46  44    78  47  44    78  47  44    78  47  44    78  47  44    78  47  44    77  48  44    78  49  45    79  50  46    80  50  47    80  51  47    79  49  47    79  49  47    78  50  47    78  50  47    79  51  48    77  51  50    77  51  50    76  52  50    75  53  50    74  53  50    73  53  52    73  53  52    73  53  52    71  53  53    69  53  53    70  54  54    70  54  54    71  55  55    71  55  55    71  55  55    70  54  54    71  55  55    72  56  56    72  56  56    72  56  56    71  55  55    70  55  54    69  57  55    67  57  55    68  58  56    69  59  57    69  59  57    70  60  58    70  62  59    71  63  60    72  64  61    72  65  61    72  67  63    72  67  63    72  67  63  
   0   0   0     0   0   0     0   0   0    92  47  41    92  47  41    91  48  42    90  48  42    89  48  42    88  47  43    88  47  43    87  48  43    86  48  42    85  48  42    85  47  44    84  47  44    81  46  44    80  46  44    80  46  44    78  47  44    78  47  44    78  47  44    78  47  44    78  47  44    77  48  44    77  48  44    78  49  45    78  49  45    78  49  45    80  50  48    80  50  48    79  51  48    78  50  47    78  50  47    76  50  49    76  51  49    76  52  50    75  53  50    74  53  50    73  53  52    73  53  52    73  53  52    71  53  53    72  54  54    72  54  54    72  54  54    73  55  55    73  55  55    73  55  55    73  55  55    74  56  56    75  57  57    75  57  57    75  57  57    74  56  56    70  55  55    69  57  55    68  58  55    68  58  56    69  59  57    70  60  58    70  60  58    70  62  59    71  63  60    72  64  61    72  65  62    72  67  63    72  67  63    73  68  64  
  91  46  42    91  46  40    92  47  41    92  47  41    92  47  41    91  48  42    90  48  42    89  48  42    89  48  44    88  48  44    87  48  43    86  49  43    85  48  42    85  47  44    82  47  44    80  46  44    80  46  44    80  46  44    78  47  44    78  47  44    78  47  44    79  48  45    79  48  45    78  49  45    78  49  45    78  49  45    78  49  45    77  48  44    81  51  49    80  50  48    79  51  48    78  50  47    77  49  46    75  49  48    75  50  48    76  52  50    75  53  50    74  53  50    73  53  52    73  53  52    73  53  52    72  54  53    72  54  54    72  54  54    72  54  54    73  55  55    73  55  55    73  55  55    74  56  56    74  56  56    76  58  58    76  58  58    75  57  57    74  56  56    71  56  55    69  57  55    68  58  55    69  59  57    69  59  57    70  60  58    71  61  59    71  62  60    72  64  61    72  64  61    72  65  62    72  67  63    73  68  64    73  68  64  
   0   0   0    92  47  42    92  47  41    92  47  41    92  47  41    91  48  42    90  48  42    89  48  42    89  48  44    88  48  44    87  48  43    86  49  43    85  48  42    85  47  44    84  47  44    81  46  44    80  46  44    80  46  44    78  47  44    78  47  44    78  47  44    80  49  46    80  49  46    79  50  46    79  50  46    79  50  46    79  50  46    79  50  46    81  51  49    80  50  48    79  51  48    78  50  47    77  49  46    75  49  48    75  50  48    76  52  50    75  53  50    74  53  50    73  53  52    73  53  52    73  53  52    72  54  53    72  54  54    72  54  54    73  55  55    73  55  55    74  55  55    74  56  56    74  56  56    75  57  57    76  58  58    76  58  58    75  57  57    74  57  57    71  56  55    70  57  56    68  58  56    69  59  57    69  59  57    70  60  58    71  61  59    72  63  60    72  64  61    72  64  61    73  66  62    72  67  63    73  68  64    73  68  64  
   0   0   0     0   0   0     0   0   0    91  46  40    90  46  40    90  47  41    88  47  41    88  47  41    88  47  43    88  47  43    87  48  43    86  48  42    85  48  42    85  47  44    82  47  44    80  46  44    80  46  44    80  46  44    78  47  44    78  47  44    78  47  44    79  48  45    80  49  46    79  50  46    79  50  46    80  51  47    80  51  47    80  51  47    80  50  48    80  50  48    79  51  48    78  50  47    78  50  47    76  50  49    76  51  49    76  52  50    75  53  50    74  53  50    73  53  52    73  53  52    73  53  52    72  54  53    72  54  54    73  55  55    73  55  55    74  56  56    74  56  56    74  56  56    74  56  56    75  57  57    76  58  58    76  58  58    75  57  57    74  57  57    72  56  56    70  58  56    68  58  56    69  59  57    70  60  58    70  60  58    71  61  59    72  63  60    72  64  61    73  65  62    73  66  62    73  68  64    73  68  64    73  68  64  
   0   0   0     0   0   0     0   0   0     0   0   0     0   0   0    90  47  41    88  47  41    88  47  41    88  47  43    87  47  43    86  47  42    85  48  42    84  47  41    84  46  43    83  46  43    81  46  44    80  46  44    80  46  44    78  47  44    78  47  44    78  47  44    78  47  44    78  47  44    78  49  45    78  49  45    80  51  47    80  51  47    80  51  47    79  49  47    79  49  47    78  50  47    78  50  47    79  51  48    77  51  50    77  51  50    76  52  50    75  53  50    74  53  50    73  53  52    73  53  52    73  53  52    72  54  53    73  55  55    73  55  55    73  55  55    74  56  56    74  56  56    74  56  56    74  56  56    74  56  56    76  58  58    76  58  58    75  57  57    74  56  56    72  56  56    70  58  56    69  59  57    69  59  57    70  60  58    71  61  59    71  61  59    72  63  60    72  64  61    73  65  62    73  66  62    73  68  64    73  68  64    74  69  65  
   0   0   0     0   0   0     0   0   0     0   0   0     0   0   0     0   0   0     0   0   0     0   0   0    87  46  42    86  47  42    86  48  42    84  47  41    84  47  41    84  46  43    81  47  43    80  46  44    80  46  44    80  46  44    78  47  44    78  47  44    78  47  44    76  46  42    77  46  43    76  47  43    77  48  44    79  50  46    80  50  47    80  51  47    78  48  46    78  48  46    78  50  47    79  50  48    79  51  48    77  51  50    77  52  50    76  52  50    75  53  50    74  53  50    73  53  52    73  53  52    73  53  52    73  54  54    73  55  55    73  55  55    73  55  55    74  56  56    74  56  56    74  56  56    73  55  55    74  56  56    74  57  57    73  57  57    73  57  57    72  56  56    71  56  55    70  58  56    69  59  57    69  59  57    70  60  58    71  61  59    71  61  59    72  63  60    72  64  61    73  65  62    73  66  63    73  68  64    73  68  64    74  69  65  
   0   0   0     0   0   0     0   0   0     0   0   0     0   0   0     0   0   0     0   0   0     0   0   0     0   0   0     0   0   0     0   0   0     0   0   0    81  46  42    80  45  41    80  45  42    80  46  44    80  46  44    80  46  44    78  47  44    78  47  44    78  47  44    76  46  42    77  46  43    77  48  44    79  50  46    79  50  46    78  49  45    78  49  45    78  48  46    78  48  47    78  50  49    78  50  49    79  51  50    77  51  50    76  51  50    75  51  51    74  52  52    74  53  52    73  53  54    74  54  55    74  54  55    73  55  55    73  55  55    74  56  56    74  56  56    75  57  57    73  57  57    73  57  57    74  58  58    74  58  58    74  58  58    73  57  57    72  56  56    72  56  56    70  57  56    69  58  56    70  59  57    71  60  58    71  60  58    72  61  59    73  62  60    74  64  62    75  65  63    75  65  63    75  66  64    75  67  64    75  67  64    75  67  64  
   0   0   0     0   0   0     0   0   0     0   0   0     0   0   0     0   0   0     0   0   0     0   0   0     0   0   0     0   0   0     0   0   0     0   0   0     0   0   0     0   0   0     0   0   0     0   0   0    80  46  44    80  46  44    78  47  44    78  47  44    78  47  44    77  46  43    78  47  44    78  49  45    78  49  45    79  50  46    78  49  45    77  48  44    78  48  46    78  48  47    78  50  49    78  50  49    79  51  50    77  51  50    76  51  50    75  51  51    74  52  52    74  53  52    73  53  54    74  54  55    74  54  55    73  55  55    73  55  55    73  55  55    74  56  56    74  56  56    73  57  57    73  57  57    74  58  58    73  57  57    72  58  57    71  57  56    71  57  56    71  57  56    70  57  56    70  59  57    70  59  57    71  60  58    72  61  59    72  61  59    73  62  60    74  63  61    74  64  62    75  65  63    75  66  63    75  67  64    75  68  65    76  68  65  
   0   0   0     0   0   0     0   0   0     0   0   0     0   0   0     0   0   0     0   0   0     0   0   0     0   0   0     0   0   0     0   0   0     0   0   0     0   0   0     0   0   0     0   0   0     0   0   0     0   0   0     0   0   0    78  47  44    78  47  44    78  47  44    78  47  44    79  48  45    78  49  45    78  49  45    78  49  45    77  48  44    76  47  43    78  48  46    78  48  46    78  50  49    78  50  49    78  50  49    77  51  50    76  51  50    76  52  52    75  53  52    74  53  52    74  54  55    74  54  55    74  54  55    72  54  54    72  54  54    73  55  55    73  55  55    74  56  56    72  56  56    72  56  56    73  57  57    72  57  57    71  57  56    71  57  56    71  57  56    70  56  55    70  57  56    71  60  58    71  60  58    72  61  59    72  61  59    73  62  60    74  63  61    73  63  61    74  64  62    74  64  62    75  66  63    76  68  65    76  68  65    77  69  66  
   0   0   0     0   0   0     0   0   0     0   0   0     0   0   0     0   0   0     0   0   0     0   0   0     0   0   0     0   0   0     0   0   0     0   0   0     0   0   0     0   0   0     0   0   0     0   0   0     0   0   0     0   0   0    78  47  44    78  47  44    78  47  44    79  48  45    79  48  45    78  49  45    78  49  45    77  48  44    76  47  43    76  47  43    78  48  46    78  48  46    77  49  48    78  50  49    78  50  49    76  50  49    77  51  51    76  52  52    75  53  52    74  53  52    74  54  55    74  54  55    74  54  55    72  54  54    72  54  54    72  54  54    73  55  55    73  55  55    72  55  55    72  56  56    72  56  56    72  56  56    71  57  56    71  57  56    70  56  55    70  56  55    70  57  56    71  60  58    72  60  59    72  61  59    73  62  60    74  63  61    74  63  61    73  63  61    73  63  61    74  64  62    75  66  63    76  68  65    76  68  65    77  69  66  
   0   0   0     0   0   0     0   0   0     0   0   0     0   0   0     0   0   0     0   0   0     0   0   0     0   0   0     0   0   0     0   0   0     0   0   0     0   0   0     0   0   0     0   0   0     0   0   0     0   0   0     0   0   0    78  47  44    78  47  44    78  47  44    79  48  45    79  48  45    78  49  45    77  48  44    76  47  43    76  47  43    76  47  43    77  47  45    78  48  46    77  49  48    78  50  49    78  50  49    76  50  49    76  51  50    76  52  52    75  53  52    75  54  53    74  54  55    74  54  55    75  55  56    73  54  55    72  54  54    72  54  54    73  55  55    73  55  55    72  55  55    72  56  56    71  55  55    70  55  55    71  57  56    71  57  56    71  57  56    71  57  56    71  58  56    72  61  59    72  61  59    73  62  60    73  62  60    74  63  61    75  64  62    73  63  61    73  63  61    74  64  62    74  65  62    75  67  64    75  68  65    76  68  65  
   0   0   0     0   0   0     0   0   0     0   0   0     0   0   0     0   0   0     0   0   0     0   0   0     0   0   0     0   0   0     0   0   0     0   0   0     0   0   0     0   0   0     0   0   0     0   0   0     0   0   0     0   0   0    78  47  44    78  47  44    78  47  44    79  48  45    78  47  44    77  48  44    76  47  43    76  47  43    76  47  43    77  48  44    77  47  45    77  47  46    77  49  48    77  49  48    78  50  49    76  50  49    76  51  50    76  52  52    75  53  53    75  54  53    74  54  55    75  55  56    75  55  56    73  54  55    72  54  54    73  55  55    73  55  55    74  56  56    72  56  56    72  56  56    71  55  55    71  56  55    71  57  56    71  57  56    71  57  56    72  58  57    72  58  57    71  60  58    72  60  59    73  62  60    73  62  60    74  63  61    75  64  62    74  64  62    74  64  62    74  64  62    74  65  62    74  66  63    74  66  63    74  66  63  
   0   0   0     0   0   0     0   0   0     0   0   0     0   0   0     0   0   0     0   0   0     0   0   0     0   0   0     0   0   0     0   0   0     0   0   0     0   0   0     0   0   0     0   0   0     0   0   0     0   0   0     0   0   0    78  47  44    78  47  44    78  47  44    78  47  44    77  46  43    76  47  43    75  46  42    76  47  43    77  48  44    78  49  45    77  47  45    77  47  46    77  49  48    77  49  48    77  49  48    76  50  49    76  51  50    77  53  53    76  54  53    75  54  53    75  55  56    75  55  56    75  55  56    73  55  55    73  55  55    73  55  55    74  56  56    74  56  56    73  57  57    73  57  57    71  55  55    72  56  56    71  57  56    72  58  57    72  58  57    72  58  57    72  59  58    71  60  58    72  60  59    72  61  59    73  62  60    74  63  61    74  63  61    75  64  62    75  65  63    75  65  63    74  65  63    73  65  62    73  65  62    73  65  62  
   0   0   0     0   0   0     0   0   0     0   0   0     0   0   0     0   0   0     0   0   0     0   0   0     0   0   0     0   0   0     0   0   0     0   0   0     0   0   0     0   0   0     0   0   0     0   0   0     0   0   0     0   0   0    78  47  44    78  47  44    78  47  44    77  46  43    77  46  43    75  46  42    75  46  42    76  47  43    78  49  45    79  50  46    77  47  45    77  47  46    77  49  48    77  49  48    77  49  48    76  50  49    76  51  50    77  53  53    76  54  53    75  54  53    75  55  56    75  55  56    75  55  56    73  55  55    73  55  55    74  56  56    74  56  56    75  57  57    73  57  57    73  57  57    72  56  56    72  56  56    72  58  57    72  58  57    73  59  58    73  59  58    72  59  58    71  60  58    71  60  58    72  61  59    73  62  60    73  62  60    74  63  61    75  65  63    76  66  64    75  65  63    74  65  63    73  65  62    72  64  61    72  64  61  
   0   0   0     0   0   0     0   0   0     0   0   0     0   0   0     0   0   0     0   0   0     0   0   0     0   0   0     0   0   0     0   0   0     0   0   0     0   0   0     0   0   0     0   0   0     0   0   0     0   0   0     0   0   0    77  46  43    75  45  42    75  44  41    77  46  43    78  47  44    78  49  45    78  49  45    78  49  45    76  46  42    75  46  42    76  46  44    76  46  45    76  48  47    77  49  48    78  50  49    77  51  50    76  51  50    76  52  52    78  56  55    77  56  55    74  54  55    73  53  54    75  55  56    73  55  55    73  55  55    73  55  55    73  55  55    73  55  55    71  55  55    71  55  55    72  56  56    70  55  55    70  56  55    70  55  55    71  57  56    72  58  57    72  59  58    73  62  60    73  62  60    73  62  60    74  63  61    74  63  61    75  64  62    73  63  61    73  63  61    73  63  61    72  62  60    71  63  60    70  62  59    70  62  59  
   0   0   0     0   0   0     0   0   0     0   0   0     0   0   0     0   0   0     0   0   0     0   0   0     0   0   0     0   0   0     0   0   0     0   0   0     0   0   0     0   0   0     0   0   0     0   0   0     0   0   0     0   0   0    77  46  43    76  45  42    76  45  42    77  46  43    78  47  44    78  49  45    78  49  45    77  48  44    75  46  42    75  46  42    76  46  44    76  46  45    77  49  48    77  49  48    78  50  49    77  51  50    76  51  50    76  52  52    77  55  54    77  56  55    74  54  55    73  53  54    74  54  55    73  55  55    73  55  55    73  55  55    73  55  55     0   0   0    71  55  55    71  55  55    71  55  55    70  55  55    69  55  54    69  55  54    70  56  55    71  57  56    72  59  58    73  62  60    73  62  60    74  63  61    74  63  61    74  63  61    75  64  62    73  63  61    73  63  61    73  63  61    72  62  60    71  63  60    70  62  59    70  62  59  
   0   0   0     0   0   0     0   0   0     0   0   0     0   0   0     0   0   0     0   0   0     0   0   0     0   0   0     0   0   0     0   0   0     0   0   0     0   0   0     0   0   0     0   0   0     0   0   0     0   0   0     0   0   0    77  46  43    77  46  43    77  46  43    77  46  43    77  46  43    77  48  44    77  48  44    76  47  43    75  46  42    75  46  42    77  47  45    77  47  46    77  49  48    77  49  48    78  50  49    76  50  49    76  51  50    76  52  52    76  54  53    76  55  54    74  54  55    73  53  54    73  53  54    73  54  55    73  55  55    73  55  55    73  55  55     0   0   0    71  55  55    71  55  55    71  55  55    70  54  54    69  55  54    69  55  54    70  56  55    71  57  56    72  59  58    73  62  60    73  62  60    74  63  61    74  63  61    74  63  61    74  63  61    73  63  61    73  63  61    72  62  60    72  62  60    71  63  60    70  63  60    71  63  60  
   0   0   0     0   0   0     0   0   0     0   0   0     0   0   0     0   0   0     0   0   0     0   0   0     0   0   0     0   0   0     0   0   0     0   0   0     0   0   0     0   0   0     0   0   0     0   0   0     0   0   0     0   0   0    77  46  43    78  47  44    78  47  44    77  46  43    77  46  43    76  47  43    76  47  43    76  47  43    75  46  42    75  46  42    77  47  45    77  47  46    77  49  48    78  50  49    78  50  49    76  50  49    75  50  50    76  52  52    75  53  53    75  54  53    74  54  55    73  53  54    73  53  54    73  54  54    73  55  55    73  55  55    73  55  55     0   0   0    71  55  55    71  55  55    71  55  55    70  54  54    69  55  54    69  55  54    70  56  55    71  57  56    72  59  58    74  63  61    74  63  61    74  63  61    74  63  61    74  63  61    74  63  61    73  63  61    73  63  61    72  62  60    70  61  59    71  63  60    71  63  60    72  64  61  
   0   0   0     0   0   0     0   0   0     0   0   0     0   0   0     0   0   0     0   0   0     0   0   0     0   0   0     0   0   0     0   0   0     0   0   0     0   0   0     0   0   0     0   0   0     0   0   0     0   0   0     0   0   0    77  46  43    78  47  44    78  47  44    77  46  43    76  45  42    75  46  42    75  46  42    76  47  43    76  47  43    76  47  43    78  48  46    78  48  46    78  50  49    78  50  49    78  50  49    76  50  49    75  50  50    76  52  52    75  53  52    75  54  53    74  54  55    74  54  55    73  53  54    73  54  54    73  55  55    73  55  55     0   0   0     0   0   0     0   0   0    71  55  55    71  55  55    70  55  55    69  55  54    69  55  54    70  56  55    71  57  56    72  59  58    74  63  61    74  63  61    74  63  61    74  63  61    74  63  61    74  63  61    73  63  61    72  62  60    71  61  59    70  61  59    71  63  60    72  64  60    72  64  61  
   0   0   0     0   0   0     0   0   0     0   0   0     0   0   0     0   0   0     0   0   0     0   0   0     0   0   0     0   0   0     0   0   0     0   0   0     0   0   0     0   0   0     0   0   0     0   0   0     0   0   0     0   0   0    77  46  43    77  46  43    77  46  43    77  46  43    77  46  43    75  46  42    75  46  42    76  47  43    77  48  44    77  48  44    79  49  47    79  49  47    78  50  49    78  50  49    78  50  49    76  50  49    76  51  50    76  52  52    75  53  52    75  54  53    75  55  56    74  54  55    73  53  54    72  53  54    72  54  54    72  54  54     0   0   0     0   0   0     0   0   0    70  54  54    72  56  56    70  55  55    70  56  55    70  55  55    71  57  56    72  58  57    72  59  58    74  63  61    74  63  61    74  63  61    74  63  61    73  62  60    73  62  60    73  63  60    72  62  60    71  61  59    70  61  58    71  63  60    72  64  60    73  65  62  
   0   0   0     0   0   0     0   0   0     0   0   0     0   0   0     0   0   0     0   0   0     0   0   0     0   0   0     0   0   0     0   0   0     0   0   0     0   0   0     0   0   0     0   0   0     0   0   0     0   0   0     0   0   0    77  46  43    76  45  42    76  45  42    77  45  43    77  46  43    76  47  43    75  46  42    77  48  44    78  49  45    79  50  46    79  49  47    79  49  47    78  50  49    78  50  49    78  50  49    76  50  49    76  51  50    77  53  53    75  53  52    75  54  53    76  56  57    75  55  56    73  53  54    72  53  54    72  54  54    72  54  54     0   0   0     0   0   0     0   0   0    70  54  54    72  56  56    71  56  55    70  56  55    70  57  55    71  57  56    73  59  58    73  60  59    75  64  62    74  63  61    74  63  61    74  63  61    73  62  60    73  62  60    73  63  60    72  62  60    71  61  59    70  60  58    70  62  59    72  64  61    74  66  63  
   0   0   0     0   0   0     0   0   0     0   0   0     0   0   0     0   0   0     0   0   0     0   0   0     0   0   0     0   0   0     0   0   0     0   0   0     0   0   0     0   0   0     0   0   0     0   0   0     0   0   0     0   0   0    77  46  43    75  45  42    75  44  41    77  46  43    77  46  43    76  47  43    76  47  43    77  48  44    78  49  45    79  50  46    80  50  48    78  50  47    78  50  49    78  50  49    76  50  49    76  50  49    76  52  50    77  54  54    74  53  52    74  54  53    76  56  57    75  57  57    72  54  54    72  54  54    72  54  54    72  54  54     0   0   0     0   0   0     0   0   0    70  54  54    73  57  57    72  57  57    71  57  56    71  57  56    72  58  57    73  59  58    74  61  60    75  64  62    74  63  61    74  63  61    73  62  60    73  62  60    73  62  60    73  63  60    72  62  60    70  60  58    70  60  58    71  62  59    72  64  61    74  66  63  
   0   0   0     0   0   0     0   0   0     0   0   0     0   0   0     0   0   0     0   0   0     0   0   0     0   0   0     0   0   0     0   0   0     0   0   0     0   0   0     0   0   0     0   0   0     0   0   0     0   0   0     0   0   0    75  44  42    76  45  43    78  47  45    76  46  43    78  47  45    77  47  45    76  46  44    77  47  45    79  49  47    77  47  45    76  48  45    74  49  46    75  49  48    75  50  49    75  51  49    76  52  50    73  52  50    72  52  51    72  52  51    71  53  51    72  54  54    72  54  54    72  54  54    72  54  54    72  54  54     0   0   0     0   0   0     0   0   0     0   0   0     0   0   0    70  54  54    71  56  55    72  58  57    71  57  56    71  57  56    73  59  58    73  60  59    73  62  60    73  62  60    74  63  61    74  63  61    73  62  60    73  62  60    73  62  60    73  62  60    73  62  60    73  62  60    74  63  61    74  63  61    74  63  61  
   0   0   0     0   0   0     0   0   0     0   0   0     0   0   0     0   0   0     0   0   0     0   0   0     0   0   0     0   0   0     0   0   0     0   0   0     0   0   0     0   0   0     0   0   0     0   0   0     0   0   0     0   0   0    75  44  42    76  45  43    78  47  45    76  46  43    78  47  45    77  47  45    76  46  44    77  47  45    79  49  47    76  48  45    74  49  45    74  49  46    75  49  48    75  50  49    75  51  49    74  53  50    73  53  50    72  52  51    71  53  51    72  54  52    70  54  54    70  54  54    71  55  55    72  54  54    72  54  54     0   0   0     0   0   0     0   0   0     0   0   0     0   0   0    70  54  54    71  56  55    72  58  57     0   0   0    71  57  56    73  59  58    73  60  59    73  62  60    74  63  60    74  63  61    74  63  61    74  63  60    73  62  60    73  62  60    73  62  60    73  62  60    73  62  60    73  62  60    73  62  60    73  62  60  
   0   0   0     0   0   0     0   0   0     0   0   0     0   0   0     0   0   0     0   0   0     0   0   0     0   0   0     0   0   0     0   0   0     0   0   0     0   0   0     0   0   0     0   0   0     0   0   0     0   0   0     0   0   0    76  45  43    76  45  43    78  47  45    76  46  43    78  47  45    77  47  45    76  46  44    77  47  45    79  49  47    77  47  45    76  48  45    74  49  46    75  49  48    75  50  49    75  51  49    74  53  50    73  53  50    73  53  52    72  54  52    72  54  52    70  54  54    71  55  55    71  55  55    72  54  54    72  54  54     0   0   0     0   0   0     0   0   0     0   0   0     0   0   0    70  54  54    71  56  56     0   0   0     0   0   0    72  58  57    73  59  58    73  60  59    72  62  60    73  63  60    73  63  61    73  63  61    73  63  60    72  62  60    71  61  59    71  61  59    71  61  59    71  61  59    71  61  59    71  61  59    71  61  59  
   0   0   0     0   0   0     0   0   0     0   0   0     0   0   0     0   0   0     0   0   0     0   0   0     0   0   0     0   0   0     0   0   0     0   0   0     0   0   0     0   0   0     0   0   0     0   0   0     0   0   0     0   0   0    76  45  43    77  46  44    77  46  44    76  45  43    78  47  45    77  47  45    76  46  44    77  47  45    79  49  47    76  48  45    74  49  45    74  49  46    75  49  48    75  50  49    75  51  49    74  53  50    74  53  51    73  53  52    72  54  52    72  54  52    71  55  55    71  55  55    72  56  56    73  55  55    73  55  55     0   0   0     0   0   0     0   0   0     0   0   0     0   0   0    70  54  54    72  56  56     0   0   0     0   0   0     0   0   0    73  59  58    72  61  59    72  62  60    73  63  60    74  64  62    74  64  62    73  63  60    72  62  60    71  61  59    70  60  58    70  60  58    70  60  58    70  60  58    69  59  57    69  59  57  
   0   0   0     0   0   0     0   0   0     0   0   0     0   0   0     0   0   0     0   0   0     0   0   0     0   0   0     0   0   0     0   0   0     0   0   0     0   0   0     0   0   0     0   0   0     0   0   0     0   0   0     0   0   0    77  46  44    77  46  44    77  46  44    76  45  43    78  47  45    77  47  45    76  46  44    77  47  45    79  49  47    77  47  45    76  48  45    74  49  46    75  49  48    75  50  49    75  51  49    74  53  50    74  53  51    73  53  52    72  54  52    72  54  52    71  55  55    71  55  55    72  56  56    73  55  55     0   0   0     0   0   0     0   0   0     0   0   0     0   0   0     0   0   0     0   0   0     0   0   0     0   0   0     0   0   0     0   0   0    73  59  58    74  61  60    73  62  60    73  63  60    74  64  62    74  64  62    73  63  60    72  62  60    71  61  59    71  61  59    71  61  59    70  60  58    70  60  58    69  59  57    69  59  57  
   0   0   0     0   0   0     0   0   0     0   0   0     0   0   0     0   0   0     0   0   0     0   0   0     0   0   0     0   0   0     0   0   0     0   0   0     0   0   0     0   0   0     0   0   0     0   0   0     0   0   0     0   0   0    78  47  45    78  47  45    77  46  44    76  45  43    78  47  45    77  47  45    76  46  44    77  47  45    79  49  47    76  48  45    74  49  45    74  49  46    75  49  48    75  50  49    75  51  49    74  53  50    73  53  50    73  53  52    72  54  52    72  54  52    70  54  54    71  55  55    71  55  55    72  55  55     0   0   0     0   0   0     0   0   0     0   0   0     0   0   0     0   0   0     0   0   0     0   0   0     0   0   0     0   0   0     0   0   0     0   0   0    73  62  60    73  63  61    74  64  62    74  64  62    74  64  62    74  64  62    73  63  61    72  62  60    72  62  60    72  62  60    70  60  59    70  60  58    69  59  57    69  59  57  
   0   0   0     0   0   0     0   0   0     0   0   0     0   0   0     0   0   0     0   0   0     0   0   0     0   0   0     0   0   0     0   0   0     0   0   0     0   0   0     0   0   0     0   0   0     0   0   0     0   0   0     0   0   0    78  47  45    78  47  45    77  46  44    76  45  43    78  47  45    77  47  45    76  46  44    77  47  45    79  49  47    77  47  45    76  48  45    74  49  46    75  49  48    75  50  49    75  51  49    74  53  50    73  53  50    72  52  51    71  53  51    72  54  52    70  54  54    70  54  54    71  55  55    72  55  55     0   0   0     0   0   0     0   0   0     0   0   0     0   0   0     0   0   0     0   0   0     0   0   0     0   0   0     0   0   0     0   0   0     0   0   0    74  61  60    73  63  61    74  64  62    74  64  62    74  64  62    74  64  62    73  63  61    73  63  61    73  63  61    73  63  61    72  62  60    71  61  59    70  60  58    70  60  58  
   0   0   0     0   0   0     0   0   0     0   0   0     0   0   0     0   0   0     0   0   0     0   0   0     0   0   0     0   0   0     0   0   0     0   0   0     0   0   0     0   0   0     0   0   0     0   0   0     0   0   0     0   0   0    79  48  46    78  47  45    77  46  44    76  45  43    78  47  45    77  47  45    76  46  44    77  47  45    79  49  47    76  48  45    74  49  45    74  49  46    75  49  48    75  50  49    75  51  49    74  53  50    73  52  50    72  52  51    71  53  51    71  53  51    70  54  54    70  54  54    70  54  54     0   0   0     0   0   0     0   0   0     0   0   0     0   0   0     0   0   0     0   0   0     0   0   0     0   0   0     0   0   0     0   0   0     0   0   0     0   0   0     0   0   0    73  63  61    74  64  62    74  64  62    74  64  62    74  64  62    73  63  61    74  64  62    74  64  62    74  64  62    73  63  60    72  62  60    71  61  59    70  60  58  
